<svg xmlns="http://www.w3.org/2000/svg" viewBox="0 0 134.4 134.1"><defs><style>.cls-1{opacity:0.31;}.cls-2,.cls-3{fill:#1d1d1b;}.cls-2{opacity:0.42;}</style></defs><g id="Capa_2" data-name="Capa 2"><g id="Capa_1-2" data-name="Capa 1"><g class="cls-1"><rect class="cls-2" width="64.67" height="64.67"/><rect class="cls-2" x="69.72" width="64.67" height="64.67"/><rect class="cls-2" y="69.43" width="64.67" height="64.67"/><rect class="cls-2" x="69.72" y="69.43" width="64.67" height="64.67"/></g><path class="cls-3" d="M70.14,69.43v11a21.35,21.35,0,0,1,21.29,21.33c0,.11,0,.21,0,.32h11c0-.11,0-.21,0-.32A32.33,32.33,0,0,0,70.14,69.43Z"/><path class="cls-3" d="M64.83,69.48H60.91a32.33,32.33,0,0,0,2.47,64.57c.49,0,1,0,1.45,0V123c-.48,0-1,.07-1.45.07a21.34,21.34,0,0,1,0-42.68c.49,0,1,0,1.45.08Z"/><path class="cls-3" d="M91.14,32.4A21.36,21.36,0,0,1,69.81,53.73v11h0a32.34,32.34,0,0,0,0-64.67h0v11A21.36,21.36,0,0,1,91.14,32.4Z"/><path class="cls-3" d="M64.63,64.55v-11A21.35,21.35,0,0,1,43.34,32.22c0-.11,0-.21,0-.32h-11c0,.11,0,.21,0,.32A32.33,32.33,0,0,0,64.63,64.55Z"/></g></g></svg>