<svg xmlns="http://www.w3.org/2000/svg" xmlns:xlink="http://www.w3.org/1999/xlink" viewBox="0 0 1308.65 442.65"><defs><style>.cls-1,.cls-12,.cls-16,.cls-20,.cls-24,.cls-7{fill:none;}.cls-2{fill:#0c6;}.cls-3{fill:#fff;}.cls-4{fill:#4ecb71;}.cls-5{clip-path:url(#clip-path);}.cls-6{clip-path:url(#clip-path-2);}.cls-7{stroke:#0c6;}.cls-12,.cls-16,.cls-20,.cls-24,.cls-7{stroke-width:4px;}.cls-8{fill:#affc41;}.cls-9{fill:#002c35;}.cls-10{clip-path:url(#clip-path-3);}.cls-11{clip-path:url(#clip-path-4);}.cls-12{stroke:#affc41;}.cls-13{fill:#f7a278;}.cls-14{clip-path:url(#clip-path-5);}.cls-15{clip-path:url(#clip-path-6);}.cls-16{stroke:#f7a278;}.cls-17{fill:#086375;}.cls-18{clip-path:url(#clip-path-7);}.cls-19{clip-path:url(#clip-path-8);}.cls-20{stroke:#086375;}.cls-21{fill:#26bea1;}.cls-22{clip-path:url(#clip-path-9);}.cls-23{clip-path:url(#clip-path-10);}.cls-24{stroke:#26bea1;}</style><clipPath id="clip-path"><rect class="cls-1" x="353.5" y="21" width="12" height="12"/></clipPath><clipPath id="clip-path-2"><rect class="cls-1" x="495.5" y="21" width="12" height="12"/></clipPath><clipPath id="clip-path-3"><rect class="cls-1" x="354.5" y="119" width="12" height="12"/></clipPath><clipPath id="clip-path-4"><rect class="cls-1" x="496.5" y="119" width="12" height="12"/></clipPath><clipPath id="clip-path-5"><rect class="cls-1" x="354.5" y="217" width="12" height="12"/></clipPath><clipPath id="clip-path-6"><rect class="cls-1" x="496.5" y="217" width="12" height="12"/></clipPath><clipPath id="clip-path-7"><rect class="cls-1" x="355.5" y="315" width="12" height="12"/></clipPath><clipPath id="clip-path-8"><rect class="cls-1" x="497.5" y="315" width="12" height="12"/></clipPath><clipPath id="clip-path-9"><rect class="cls-1" x="356.5" y="413" width="12" height="12"/></clipPath><clipPath id="clip-path-10"><rect class="cls-1" x="498.5" y="413" width="12" height="12"/></clipPath></defs><g id="Capa_2" data-name="Capa 2"><g id="Capa_1-2" data-name="Capa 1"><path class="cls-2" d="M0,28A18,18,0,0,1,18,10H94a18,18,0,0,1,0,36H18A18,18,0,0,1,0,28Z"/><path class="cls-3" d="M34.87,35V22.4h2.07V35Zm1.42,0V33.11h6.59V35Zm11.52.18a4,4,0,0,1-2.12-.59A4.36,4.36,0,0,1,44.2,33a5.1,5.1,0,0,1,0-4.57,4.39,4.39,0,0,1,1.49-1.62,3.83,3.83,0,0,1,2.12-.61,3.44,3.44,0,0,1,1.75.43,3.14,3.14,0,0,1,1.22,1.15,3.18,3.18,0,0,1,.45,1.68v2.48a3.18,3.18,0,0,1-.45,1.68,3.14,3.14,0,0,1-1.2,1.17A3.79,3.79,0,0,1,47.81,35.18Zm.33-1.87a2.26,2.26,0,0,0,1.76-.74,2.65,2.65,0,0,0,.69-1.89,3,3,0,0,0-.31-1.37,2.25,2.25,0,0,0-.86-.92,2.42,2.42,0,0,0-1.28-.34,2.47,2.47,0,0,0-1.28.34,2.38,2.38,0,0,0-.86.92,3.18,3.18,0,0,0,0,2.74,2.41,2.41,0,0,0,.86.93A2.46,2.46,0,0,0,48.14,33.31ZM50.46,35V32.68l.34-2.11-.34-2.09V26.36h2V35Zm8.8.18a3.75,3.75,0,0,1-1.76-.41,3.15,3.15,0,0,1-1.66-2.85V29.44a3.11,3.11,0,0,1,1.68-2.83,3.48,3.48,0,0,1,1.74-.43,3.75,3.75,0,0,1,2.11.61,4.16,4.16,0,0,1,1.49,1.62,4.94,4.94,0,0,1,0,4.57,4.13,4.13,0,0,1-1.49,1.61A3.9,3.9,0,0,1,59.26,35.18Zm-.32-1.87A2.37,2.37,0,0,0,60.2,33a2.27,2.27,0,0,0,.86-.93,3,3,0,0,0,0-2.74,2.25,2.25,0,0,0-.86-.92,2.37,2.37,0,0,0-1.26-.34,2.47,2.47,0,0,0-1.28.34,2.25,2.25,0,0,0-.86.92,3.18,3.18,0,0,0,0,2.74,2.27,2.27,0,0,0,.86.93A2.46,2.46,0,0,0,58.94,33.31ZM54.64,35V22h2v6.44l-.34,2.09.34,2.11V35Zm14.45.18a4.72,4.72,0,0,1-2.34-.58A4.47,4.47,0,0,1,65.11,33a4.76,4.76,0,0,1,0-4.59A4.38,4.38,0,0,1,69,26.18a4,4,0,0,1,2.13.56,3.91,3.91,0,0,1,1.46,1.53,4.47,4.47,0,0,1,.54,2.21,3.42,3.42,0,0,1,0,.45c0,.15,0,.31-.07.49H65.91V29.8H72l-.74.65a3.27,3.27,0,0,0-.3-1.34,1.88,1.88,0,0,0-.78-.82A2.22,2.22,0,0,0,69,28a2.66,2.66,0,0,0-1.32.32,2.19,2.19,0,0,0-.86.92,3.25,3.25,0,0,0,0,2.81,2.28,2.28,0,0,0,.92,1,2.74,2.74,0,0,0,1.36.33,3.07,3.07,0,0,0,1.23-.24,2.48,2.48,0,0,0,1-.68l1.26,1.28A4,4,0,0,1,71,34.8,4.93,4.93,0,0,1,69.09,35.18Zm5.6-.18V22h2V35Z"/><path class="cls-4" d="M168.87,35V22.4h2.07V35Zm1.42,0V33.11h6.59V35Zm11.52.18a4,4,0,0,1-2.12-.59A4.36,4.36,0,0,1,178.2,33a5.1,5.1,0,0,1,0-4.57,4.39,4.39,0,0,1,1.49-1.62,3.83,3.83,0,0,1,2.12-.61,3.44,3.44,0,0,1,1.75.43,3.14,3.14,0,0,1,1.22,1.15,3.18,3.18,0,0,1,.45,1.68v2.48a3.18,3.18,0,0,1-.45,1.68,3.14,3.14,0,0,1-1.2,1.17A3.79,3.79,0,0,1,181.81,35.18Zm.33-1.87a2.26,2.26,0,0,0,1.76-.74,2.65,2.65,0,0,0,.69-1.89,3,3,0,0,0-.31-1.37,2.25,2.25,0,0,0-.86-.92,2.42,2.42,0,0,0-1.28-.34,2.47,2.47,0,0,0-1.28.34,2.38,2.38,0,0,0-.86.92,3.18,3.18,0,0,0,0,2.74,2.41,2.41,0,0,0,.86.93A2.46,2.46,0,0,0,182.14,33.31ZM184.46,35V32.68l.34-2.11-.34-2.09V26.36h2V35Zm8.8.18a3.72,3.72,0,0,1-1.76-.41,3.29,3.29,0,0,1-1.23-1.17,3.36,3.36,0,0,1-.43-1.68V29.44a3.11,3.11,0,0,1,1.68-2.83,3.48,3.48,0,0,1,1.74-.43,3.77,3.77,0,0,1,2.11.61,4.16,4.16,0,0,1,1.49,1.62,4.94,4.94,0,0,1,0,4.57,4.13,4.13,0,0,1-1.49,1.61A3.92,3.92,0,0,1,193.26,35.18Zm-.32-1.87A2.37,2.37,0,0,0,194.2,33a2.27,2.27,0,0,0,.86-.93,3,3,0,0,0,0-2.74,2.25,2.25,0,0,0-.86-.92,2.37,2.37,0,0,0-1.26-.34,2.47,2.47,0,0,0-1.28.34,2.25,2.25,0,0,0-.86.92,3.18,3.18,0,0,0,0,2.74,2.27,2.27,0,0,0,.86.93A2.46,2.46,0,0,0,192.94,33.31ZM188.64,35V22h2v6.44l-.35,2.09.35,2.11V35Zm14.45.18a4.72,4.72,0,0,1-2.34-.58A4.47,4.47,0,0,1,199.11,33a4.76,4.76,0,0,1,0-4.59A4.38,4.38,0,0,1,203,26.18a4,4,0,0,1,2.13.56,3.91,3.91,0,0,1,1.46,1.53,4.47,4.47,0,0,1,.54,2.21,3.42,3.42,0,0,1,0,.45c0,.15,0,.31-.07.49h-7.09V29.8H206l-.74.65a3.27,3.27,0,0,0-.3-1.34,1.88,1.88,0,0,0-.78-.82A2.22,2.22,0,0,0,203,28a2.66,2.66,0,0,0-1.32.32,2.19,2.19,0,0,0-.86.92,3.25,3.25,0,0,0,0,2.81,2.28,2.28,0,0,0,.92,1,2.74,2.74,0,0,0,1.36.33,3.07,3.07,0,0,0,1.23-.24,2.48,2.48,0,0,0,1-.68l1.26,1.28A4,4,0,0,1,205,34.8,4.93,4.93,0,0,1,203.09,35.18Zm5.6-.18V22h2V35Z"/><path class="cls-4" d="M152,14h76V6H152Zm76,28H152v8h76Zm-76,0a14,14,0,0,1-14-14h-8a22,22,0,0,0,22,22Zm90-14a14,14,0,0,1-14,14v8a22,22,0,0,0,22-22ZM228,14a14,14,0,0,1,14,14h8A22,22,0,0,0,228,6ZM152,6a22,22,0,0,0-22,22h8a14,14,0,0,1,14-14Z"/><path class="cls-2" d="M291,9h76a18,18,0,0,1,18,18h0a18,18,0,0,1-18,18H291a18,18,0,0,1-18-18h0A18,18,0,0,1,291,9Z"/><path class="cls-3" d="M293.87,34V21.4h2.07V34Zm1.42,0V32.11h6.59V34Zm11.52.18a4,4,0,0,1-2.12-.59A4.36,4.36,0,0,1,303.2,32a5.1,5.1,0,0,1,0-4.57,4.39,4.39,0,0,1,1.49-1.62,3.83,3.83,0,0,1,2.12-.61,3.44,3.44,0,0,1,1.75.43,3.14,3.14,0,0,1,1.22,1.15,3.18,3.18,0,0,1,.45,1.68v2.48a3.18,3.18,0,0,1-.45,1.68,3.14,3.14,0,0,1-1.2,1.17A3.79,3.79,0,0,1,306.81,34.18Zm.33-1.87a2.26,2.26,0,0,0,1.76-.74,2.65,2.65,0,0,0,.69-1.89,3,3,0,0,0-.31-1.37,2.25,2.25,0,0,0-.86-.92,2.42,2.42,0,0,0-1.28-.34,2.47,2.47,0,0,0-1.28.34,2.38,2.38,0,0,0-.86.92,3.18,3.18,0,0,0,0,2.74,2.41,2.41,0,0,0,.86.93A2.46,2.46,0,0,0,307.14,32.31ZM309.46,34V31.68l.34-2.11-.34-2.09V25.36h2V34Zm8.8.18a3.75,3.75,0,0,1-1.76-.41,3.11,3.11,0,0,1-1.66-2.85V28.44a3.11,3.11,0,0,1,1.68-2.83,3.45,3.45,0,0,1,1.74-.43,3.77,3.77,0,0,1,2.11.61,4.16,4.16,0,0,1,1.49,1.62,4.94,4.94,0,0,1,0,4.57,4.13,4.13,0,0,1-1.49,1.61A3.92,3.92,0,0,1,318.26,34.18Zm-.32-1.87A2.37,2.37,0,0,0,319.2,32a2.27,2.27,0,0,0,.86-.93,3,3,0,0,0,0-2.74,2.25,2.25,0,0,0-.86-.92,2.37,2.37,0,0,0-1.26-.34,2.47,2.47,0,0,0-1.28.34,2.25,2.25,0,0,0-.86.92,3.18,3.18,0,0,0,0,2.74,2.27,2.27,0,0,0,.86.93A2.46,2.46,0,0,0,317.94,32.31ZM313.64,34V21h2v6.44l-.35,2.09.35,2.11V34Zm14.45.18a4.72,4.72,0,0,1-2.34-.58A4.47,4.47,0,0,1,324.11,32a4.76,4.76,0,0,1,0-4.59A4.38,4.38,0,0,1,328,25.18a4,4,0,0,1,2.13.56,3.91,3.91,0,0,1,1.46,1.53,4.47,4.47,0,0,1,.54,2.21,3.42,3.42,0,0,1,0,.45c0,.15,0,.31-.07.49h-7.09V28.8H331l-.74.65a3.27,3.27,0,0,0-.3-1.34,1.88,1.88,0,0,0-.78-.82A2.22,2.22,0,0,0,328,27a2.66,2.66,0,0,0-1.32.32,2.19,2.19,0,0,0-.86.92,3.25,3.25,0,0,0,0,2.81,2.28,2.28,0,0,0,.92.95,2.74,2.74,0,0,0,1.36.33,3.07,3.07,0,0,0,1.23-.24,2.48,2.48,0,0,0,1-.68l1.26,1.28A4,4,0,0,1,330,33.8,4.93,4.93,0,0,1,328.09,34.18Zm5.6-.18V21h2V34Z"/><g class="cls-5"><path class="cls-3" d="M365.5,23.21,363.29,21l-3.79,3.79L355.71,21l-2.21,2.21L357.29,27l-3.79,3.79L355.71,33l3.79-3.79L363.29,33l2.21-2.21L361.71,27Z"/></g><path class="cls-4" d="M435.87,34V21.4h2.07V34Zm1.42,0V32.11h6.59V34Zm11.52.18a4,4,0,0,1-2.12-.59A4.36,4.36,0,0,1,445.2,32a5.1,5.1,0,0,1,0-4.57,4.39,4.39,0,0,1,1.49-1.62,3.83,3.83,0,0,1,2.12-.61,3.44,3.44,0,0,1,1.75.43,3.14,3.14,0,0,1,1.22,1.15,3.18,3.18,0,0,1,.45,1.68v2.48a3.18,3.18,0,0,1-.45,1.68,3.14,3.14,0,0,1-1.2,1.17A3.79,3.79,0,0,1,448.81,34.18Zm.33-1.87a2.26,2.26,0,0,0,1.76-.74,2.65,2.65,0,0,0,.69-1.89,3,3,0,0,0-.31-1.37,2.25,2.25,0,0,0-.86-.92,2.42,2.42,0,0,0-1.28-.34,2.47,2.47,0,0,0-1.28.34,2.38,2.38,0,0,0-.86.92,3.18,3.18,0,0,0,0,2.74,2.41,2.41,0,0,0,.86.93A2.46,2.46,0,0,0,449.14,32.31ZM451.46,34V31.68l.34-2.11-.34-2.09V25.36h2V34Zm8.8.18a3.75,3.75,0,0,1-1.76-.41,3.11,3.11,0,0,1-1.66-2.85V28.44a3.11,3.11,0,0,1,1.68-2.83,3.45,3.45,0,0,1,1.74-.43,3.77,3.77,0,0,1,2.11.61,4.16,4.16,0,0,1,1.49,1.62,4.94,4.94,0,0,1,0,4.57,4.13,4.13,0,0,1-1.49,1.61A3.92,3.92,0,0,1,460.26,34.18Zm-.32-1.87A2.37,2.37,0,0,0,461.2,32a2.27,2.27,0,0,0,.86-.93,3,3,0,0,0,0-2.74,2.25,2.25,0,0,0-.86-.92,2.37,2.37,0,0,0-1.26-.34,2.47,2.47,0,0,0-1.28.34,2.25,2.25,0,0,0-.86.92,3.18,3.18,0,0,0,0,2.74,2.27,2.27,0,0,0,.86.93A2.46,2.46,0,0,0,459.94,32.31ZM455.64,34V21h2v6.44l-.35,2.09.35,2.11V34Zm14.45.18a4.72,4.72,0,0,1-2.34-.58A4.47,4.47,0,0,1,466.11,32a4.76,4.76,0,0,1,0-4.59A4.38,4.38,0,0,1,470,25.18a4,4,0,0,1,2.13.56,3.91,3.91,0,0,1,1.46,1.53,4.47,4.47,0,0,1,.54,2.21,3.42,3.42,0,0,1,0,.45c0,.15,0,.31-.07.49h-7.09V28.8H473l-.74.65a3.27,3.27,0,0,0-.3-1.34,1.88,1.88,0,0,0-.78-.82A2.22,2.22,0,0,0,470,27a2.66,2.66,0,0,0-1.32.32,2.19,2.19,0,0,0-.86.92,3.25,3.25,0,0,0,0,2.81,2.28,2.28,0,0,0,.92.95,2.74,2.74,0,0,0,1.36.33,3.07,3.07,0,0,0,1.23-.24,2.48,2.48,0,0,0,1-.68l1.26,1.28A4,4,0,0,1,472,33.8,4.93,4.93,0,0,1,470.09,34.18Zm5.6-.18V21h2V34Z"/><g class="cls-6"><path class="cls-2" d="M507.5,23.21,505.29,21l-3.79,3.79L497.71,21l-2.21,2.21L499.29,27l-3.79,3.79L497.71,33l3.79-3.79L505.29,33l2.21-2.21L503.71,27Z"/></g><path class="cls-7" d="M433,11h76a16,16,0,0,1,16,16h0a16,16,0,0,1-16,16H433a16,16,0,0,1-16-16h0A16,16,0,0,1,433,11Z"/><path class="cls-2" d="M578,7h76a18,18,0,0,1,18,18h0a18,18,0,0,1-18,18H578a18,18,0,0,1-18-18h0A18,18,0,0,1,578,7Z"/><path class="cls-3" d="M583.72,32.18a3.75,3.75,0,0,1-1.76-.41,3.15,3.15,0,0,1-1.66-2.85V26.44A3.11,3.11,0,0,1,582,23.61a3.48,3.48,0,0,1,1.74-.43,3.75,3.75,0,0,1,2.11.61,4.16,4.16,0,0,1,1.49,1.62,4.94,4.94,0,0,1,0,4.57,4.13,4.13,0,0,1-1.49,1.61A3.9,3.9,0,0,1,583.72,32.18Zm-.32-1.87a2.37,2.37,0,0,0,1.26-.33,2.27,2.27,0,0,0,.86-.93,3,3,0,0,0,0-2.74,2.25,2.25,0,0,0-.86-.92,2.37,2.37,0,0,0-1.26-.34,2.47,2.47,0,0,0-1.28.34,2.25,2.25,0,0,0-.86.92,3.18,3.18,0,0,0,0,2.74,2.27,2.27,0,0,0,.86.93A2.46,2.46,0,0,0,583.4,30.31ZM579.1,32V19h2v6.44l-.34,2.09.34,2.11V32Zm14,.18a3.89,3.89,0,0,1-2-.49,3.47,3.47,0,0,1-1.33-1.33,4.08,4.08,0,0,1-.47-2v-5h2v4.93a2.7,2.7,0,0,0,.2,1.08,1.65,1.65,0,0,0,.61.67,2,2,0,0,0,1,.23,1.69,1.69,0,0,0,1.31-.5,2.15,2.15,0,0,0,.47-1.48V23.36h2v5a4.06,4.06,0,0,1-.49,2,3.42,3.42,0,0,1-1.31,1.33A4,4,0,0,1,593.09,32.18Zm7.06-.18V19.76h2V32Zm-2.07-6.84v-1.8h11.34v1.8ZM605.37,32V19.76h2V32Zm9.21.18a4.54,4.54,0,0,1-2.29-.59A4.77,4.77,0,0,1,610.65,30a4.57,4.57,0,0,1-.59-2.29,4.47,4.47,0,0,1,.59-2.27,4.65,4.65,0,0,1,1.64-1.6,4.36,4.36,0,0,1,2.29-.61,4.55,4.55,0,0,1,2.3.59,4.49,4.49,0,0,1,1.62,1.62,4.29,4.29,0,0,1,.61,2.27A4.39,4.39,0,0,1,618.5,30a4.63,4.63,0,0,1-1.62,1.64A4.55,4.55,0,0,1,614.58,32.18Zm0-1.91a2.57,2.57,0,0,0,1.29-.32,2.22,2.22,0,0,0,.88-.94,2.7,2.7,0,0,0,.33-1.35,2.62,2.62,0,0,0-.33-1.33,2.43,2.43,0,0,0-2.17-1.24,2.47,2.47,0,0,0-1.3.34,2.38,2.38,0,0,0-.88.9,2.72,2.72,0,0,0-.31,1.33A2.8,2.8,0,0,0,612.4,29a2.42,2.42,0,0,0,.88.94A2.66,2.66,0,0,0,614.58,30.27ZM626.68,32V27a1.94,1.94,0,0,0-.56-1.42,1.88,1.88,0,0,0-1.4-.56,2,2,0,0,0-1,.26,1.75,1.75,0,0,0-.7.7,2,2,0,0,0-.25,1l-.78-.43a3.41,3.41,0,0,1,.44-1.74,3.05,3.05,0,0,1,1.18-1.21,3.41,3.41,0,0,1,1.73-.45,3.08,3.08,0,0,1,1.73.5A3.57,3.57,0,0,1,628.23,25a3.28,3.28,0,0,1,.43,1.62V32Zm-5.92,0V23.36h2V32Z"/><path class="cls-3" d="M648.72,16.08V16H646v.08c0,4.72,3.29,8.59,7.48,8.92-4.16.3-7.48,4.17-7.48,8.92V34h2.72v-.08c0-3.26,2.36-5.88,5.28-5.88V22C651.08,22,648.72,19.34,648.72,16.08Z"/><path class="cls-2" d="M855,7h76a18,18,0,0,1,18,18h0a18,18,0,0,1-18,18H855a18,18,0,0,1-18-18h0A18,18,0,0,1,855,7Z"/><path class="cls-3" d="M859,21.21,856.79,19,853,22.79,849.21,19,847,21.21,850.79,25,847,28.79,849.21,31,853,27.21,856.79,31,859,28.79,855.21,25Z"/><path class="cls-3" d="M874.72,32.18a3.75,3.75,0,0,1-1.76-.41,3.15,3.15,0,0,1-1.66-2.85V26.44A3.11,3.11,0,0,1,873,23.61a3.48,3.48,0,0,1,1.74-.43,3.75,3.75,0,0,1,2.11.61,4.16,4.16,0,0,1,1.49,1.62,4.94,4.94,0,0,1,0,4.57,4.13,4.13,0,0,1-1.49,1.61A3.9,3.9,0,0,1,874.72,32.18Zm-.32-1.87a2.37,2.37,0,0,0,1.26-.33,2.27,2.27,0,0,0,.86-.93,3,3,0,0,0,0-2.74,2.25,2.25,0,0,0-.86-.92,2.37,2.37,0,0,0-1.26-.34,2.47,2.47,0,0,0-1.28.34,2.25,2.25,0,0,0-.86.92,3.18,3.18,0,0,0,0,2.74,2.27,2.27,0,0,0,.86.93A2.46,2.46,0,0,0,874.4,30.31ZM870.1,32V19h2v6.44l-.34,2.09.34,2.11V32Zm14,.18a3.89,3.89,0,0,1-2-.49,3.47,3.47,0,0,1-1.33-1.33,4.08,4.08,0,0,1-.47-2v-5h2v4.93a2.7,2.7,0,0,0,.2,1.08,1.65,1.65,0,0,0,.61.67,2,2,0,0,0,1,.23,1.69,1.69,0,0,0,1.31-.5,2.15,2.15,0,0,0,.47-1.48V23.36h2v5a4.06,4.06,0,0,1-.49,2,3.42,3.42,0,0,1-1.31,1.33A4,4,0,0,1,884.09,32.18Zm7.06-.18V19.76h2V32Zm-2.07-6.84v-1.8h11.34v1.8ZM896.37,32V19.76h2V32Zm9.21.18a4.54,4.54,0,0,1-2.29-.59A4.77,4.77,0,0,1,901.65,30a4.57,4.57,0,0,1-.59-2.29,4.47,4.47,0,0,1,.59-2.27,4.65,4.65,0,0,1,1.64-1.6,4.36,4.36,0,0,1,2.29-.61,4.55,4.55,0,0,1,2.3.59,4.49,4.49,0,0,1,1.62,1.62,4.29,4.29,0,0,1,.61,2.27A4.39,4.39,0,0,1,909.5,30a4.63,4.63,0,0,1-1.62,1.64A4.55,4.55,0,0,1,905.58,32.18Zm0-1.91a2.57,2.57,0,0,0,1.29-.32,2.22,2.22,0,0,0,.88-.94,2.7,2.7,0,0,0,.33-1.35,2.62,2.62,0,0,0-.33-1.33,2.43,2.43,0,0,0-2.17-1.24,2.47,2.47,0,0,0-1.3.34,2.38,2.38,0,0,0-.88.9,2.72,2.72,0,0,0-.31,1.33A2.8,2.8,0,0,0,903.4,29a2.42,2.42,0,0,0,.88.94A2.66,2.66,0,0,0,905.58,30.27ZM917.68,32V27a1.94,1.94,0,0,0-.56-1.42,1.88,1.88,0,0,0-1.4-.56,2,2,0,0,0-1,.26,1.75,1.75,0,0,0-.7.7,2,2,0,0,0-.25,1l-.78-.43a3.41,3.41,0,0,1,.44-1.74,3.05,3.05,0,0,1,1.18-1.21,3.41,3.41,0,0,1,1.73-.45,3.08,3.08,0,0,1,1.73.5A3.57,3.57,0,0,1,919.23,25a3.28,3.28,0,0,1,.43,1.62V32Zm-5.92,0V23.36h2V32Z"/><path class="cls-3" d="M933.72,16.08V16H931v.08c0,4.72,3.29,8.59,7.48,8.92-4.16.3-7.48,4.17-7.48,8.92V34h2.72v-.08c0-3.26,2.36-5.88,5.28-5.88V22C936.08,22,933.72,19.34,933.72,16.08Z"/><path class="cls-2" d="M1159,7h0a18,18,0,0,1,18,18h0a18,18,0,0,1-18,18h0a18,18,0,0,1-18-18h0A18,18,0,0,1,1159,7Z"/><path class="cls-3" d="M1167,19.94,1164.06,17,1159,22.06,1153.94,17,1151,19.94l5.06,5.06L1151,30.06l2.94,2.94,5.06-5.06,5.06,5.06,2.94-2.94L1161.94,25Z"/><path class="cls-2" d="M1216.11,5h0a20.11,20.11,0,0,1,20.11,20.11h0a20.11,20.11,0,0,1-20.11,20.11h0A20.11,20.11,0,0,1,1196,25.11h0A20.11,20.11,0,0,1,1216.11,5Z"/><path class="cls-3" d="M1225.22,19.35,1221.87,16l-5.76,5.76L1210.35,16,1207,19.35l5.76,5.76L1207,30.87l3.35,3.35,5.76-5.76,5.76,5.76,3.35-3.35-5.76-5.76Z"/><path class="cls-2" d="M1280.33,0h0a25.33,25.33,0,0,1,25.32,25.33h0a25.32,25.32,0,0,1-25.32,25.32h0A25.33,25.33,0,0,1,1255,25.33h0A25.33,25.33,0,0,1,1280.33,0Z"/><path class="cls-3" d="M1291.65,18.17,1287.49,14l-7.16,7.16L1273.17,14,1269,18.17l7.16,7.16L1269,32.49l4.17,4.16,7.16-7.16,7.16,7.16,4.16-4.16-7.16-7.16Z"/><path class="cls-2" d="M1006,21.21,1003.79,19,1000,22.79,996.21,19,994,21.21,997.79,25,994,28.79,996.21,31l3.79-3.79,3.79,3.79,2.21-2.21L1002.21,25Z"/><path class="cls-2" d="M1021.72,32.18a3.75,3.75,0,0,1-1.76-.41,3.15,3.15,0,0,1-1.66-2.85V26.44a3.11,3.11,0,0,1,1.68-2.83,3.48,3.48,0,0,1,1.74-.43,3.75,3.75,0,0,1,2.11.61,4.16,4.16,0,0,1,1.49,1.62,4.94,4.94,0,0,1,0,4.57,4.13,4.13,0,0,1-1.49,1.61A3.9,3.9,0,0,1,1021.72,32.18Zm-.32-1.87a2.37,2.37,0,0,0,1.26-.33,2.27,2.27,0,0,0,.86-.93,3,3,0,0,0,0-2.74,2.25,2.25,0,0,0-.86-.92,2.37,2.37,0,0,0-1.26-.34,2.47,2.47,0,0,0-1.28.34,2.25,2.25,0,0,0-.86.92,3.18,3.18,0,0,0,0,2.74,2.27,2.27,0,0,0,.86.93A2.46,2.46,0,0,0,1021.4,30.31ZM1017.1,32V19h2v6.44l-.34,2.09.34,2.11V32Zm14,.18a3.89,3.89,0,0,1-2-.49,3.54,3.54,0,0,1-1.33-1.33,4.08,4.08,0,0,1-.47-2v-5h2v4.93a2.7,2.7,0,0,0,.2,1.08,1.65,1.65,0,0,0,.61.67,2,2,0,0,0,1,.23,1.69,1.69,0,0,0,1.31-.5,2.15,2.15,0,0,0,.47-1.48V23.36h2v5a4,4,0,0,1-.49,2,3.42,3.42,0,0,1-1.31,1.33A4,4,0,0,1,1031.09,32.18Zm7.06-.18V19.76h2V32Zm-2.07-6.84v-1.8h11.34v1.8Zm7.29,6.84V19.76h2V32Zm9.21.18a4.54,4.54,0,0,1-2.29-.59,4.77,4.77,0,0,1-1.64-1.64,4.57,4.57,0,0,1-.59-2.29,4.47,4.47,0,0,1,.59-2.27,4.65,4.65,0,0,1,1.64-1.6,4.36,4.36,0,0,1,2.29-.61,4.55,4.55,0,0,1,2.3.59,4.49,4.49,0,0,1,1.62,1.62,4.29,4.29,0,0,1,.61,2.27,4.39,4.39,0,0,1-.61,2.29,4.63,4.63,0,0,1-1.62,1.64A4.55,4.55,0,0,1,1052.58,32.18Zm0-1.91a2.57,2.57,0,0,0,1.29-.32,2.22,2.22,0,0,0,.88-.94,2.7,2.7,0,0,0,.33-1.35,2.62,2.62,0,0,0-.33-1.33,2.43,2.43,0,0,0-2.17-1.24,2.47,2.47,0,0,0-1.3.34,2.38,2.38,0,0,0-.88.9,2.72,2.72,0,0,0-.31,1.33,2.8,2.8,0,0,0,.31,1.35,2.42,2.42,0,0,0,.88.94A2.66,2.66,0,0,0,1052.58,30.27Zm12.1,1.73V27a1.94,1.94,0,0,0-.56-1.42,1.88,1.88,0,0,0-1.4-.56,2,2,0,0,0-1,.26,1.75,1.75,0,0,0-.7.7,2,2,0,0,0-.25,1l-.78-.43a3.41,3.41,0,0,1,.44-1.74,3.05,3.05,0,0,1,1.18-1.21,3.41,3.41,0,0,1,1.73-.45,3.08,3.08,0,0,1,1.73.5,3.57,3.57,0,0,1,1.19,1.28,3.28,3.28,0,0,1,.43,1.62V32Zm-5.92,0V23.36h2V32Z"/><path class="cls-2" d="M1080.72,16.08V16H1078v.08c0,4.72,3.29,8.59,7.48,8.92-4.16.3-7.48,4.17-7.48,8.92V34h2.72v-.08c0-3.26,2.36-5.88,5.28-5.88V22C1083.08,22,1080.72,19.34,1080.72,16.08Z"/><path class="cls-7" d="M1002,9h76a16,16,0,0,1,16,16h0a16,16,0,0,1-16,16h-76a16,16,0,0,1-16-16h0A16,16,0,0,1,1002,9Z"/><path class="cls-2" d="M717.72,32.18a3.75,3.75,0,0,1-1.76-.41,3.15,3.15,0,0,1-1.66-2.85V26.44A3.11,3.11,0,0,1,716,23.61a3.48,3.48,0,0,1,1.74-.43,3.75,3.75,0,0,1,2.11.61,4.16,4.16,0,0,1,1.49,1.62,4.94,4.94,0,0,1,0,4.57,4.13,4.13,0,0,1-1.49,1.61A3.9,3.9,0,0,1,717.72,32.18Zm-.32-1.87a2.37,2.37,0,0,0,1.26-.33,2.27,2.27,0,0,0,.86-.93,3,3,0,0,0,0-2.74,2.25,2.25,0,0,0-.86-.92,2.37,2.37,0,0,0-1.26-.34,2.47,2.47,0,0,0-1.28.34,2.25,2.25,0,0,0-.86.92,3.18,3.18,0,0,0,0,2.74,2.27,2.27,0,0,0,.86.93A2.46,2.46,0,0,0,717.4,30.31ZM713.1,32V19h2v6.44l-.34,2.09.34,2.11V32Zm14,.18a3.89,3.89,0,0,1-2-.49,3.47,3.47,0,0,1-1.33-1.33,4.08,4.08,0,0,1-.47-2v-5h2v4.93a2.7,2.7,0,0,0,.2,1.08,1.65,1.65,0,0,0,.61.67,2,2,0,0,0,1,.23,1.69,1.69,0,0,0,1.31-.5,2.15,2.15,0,0,0,.47-1.48V23.36h2v5a4.06,4.06,0,0,1-.49,2,3.42,3.42,0,0,1-1.31,1.33A4,4,0,0,1,727.09,32.18Zm7.06-.18V19.76h2V32Zm-2.07-6.84v-1.8h11.34v1.8ZM739.37,32V19.76h2V32Zm9.21.18a4.54,4.54,0,0,1-2.29-.59A4.77,4.77,0,0,1,744.65,30a4.57,4.57,0,0,1-.59-2.29,4.47,4.47,0,0,1,.59-2.27,4.65,4.65,0,0,1,1.64-1.6,4.36,4.36,0,0,1,2.29-.61,4.55,4.55,0,0,1,2.3.59,4.49,4.49,0,0,1,1.62,1.62,4.29,4.29,0,0,1,.61,2.27A4.39,4.39,0,0,1,752.5,30a4.63,4.63,0,0,1-1.62,1.64A4.55,4.55,0,0,1,748.58,32.18Zm0-1.91a2.57,2.57,0,0,0,1.29-.32,2.22,2.22,0,0,0,.88-.94,2.7,2.7,0,0,0,.33-1.35,2.62,2.62,0,0,0-.33-1.33,2.43,2.43,0,0,0-2.17-1.24,2.47,2.47,0,0,0-1.3.34,2.38,2.38,0,0,0-.88.9,2.72,2.72,0,0,0-.31,1.33A2.8,2.8,0,0,0,746.4,29a2.42,2.42,0,0,0,.88.94A2.66,2.66,0,0,0,748.58,30.27ZM760.68,32V27a1.94,1.94,0,0,0-.56-1.42,1.88,1.88,0,0,0-1.4-.56,2,2,0,0,0-1,.26,1.75,1.75,0,0,0-.7.7,2,2,0,0,0-.25,1l-.78-.43a3.41,3.41,0,0,1,.44-1.74,3.05,3.05,0,0,1,1.18-1.21,3.41,3.41,0,0,1,1.73-.45,3.08,3.08,0,0,1,1.73.5A3.57,3.57,0,0,1,762.23,25a3.28,3.28,0,0,1,.43,1.62V32Zm-5.92,0V23.36h2V32Z"/><path class="cls-2" d="M782.72,16.08V16H780v.08c0,4.72,3.29,8.59,7.48,8.92-4.16.3-7.48,4.17-7.48,8.92V34h2.72v-.08c0-3.26,2.36-5.88,5.28-5.88V22C785.08,22,782.72,19.34,782.72,16.08Z"/><path class="cls-7" d="M712,9h76a16,16,0,0,1,16,16h0a16,16,0,0,1-16,16H712a16,16,0,0,1-16-16h0A16,16,0,0,1,712,9Z"/><path class="cls-8" d="M1,126a18,18,0,0,1,18-18H95a18,18,0,0,1,0,36H19A18,18,0,0,1,1,126Z"/><path class="cls-9" d="M35.87,133V120.4h2.07V133Zm1.42,0v-1.89h6.59V133Zm11.52.18a4,4,0,0,1-2.12-.59A4.36,4.36,0,0,1,45.2,131a5.1,5.1,0,0,1,0-4.57,4.39,4.39,0,0,1,1.49-1.62,3.83,3.83,0,0,1,2.12-.61,3.44,3.44,0,0,1,1.75.43,3.14,3.14,0,0,1,1.22,1.15,3.18,3.18,0,0,1,.45,1.68v2.48a3.18,3.18,0,0,1-.45,1.68,3.14,3.14,0,0,1-1.2,1.17A3.79,3.79,0,0,1,48.81,133.18Zm.33-1.87a2.26,2.26,0,0,0,1.76-.74,2.65,2.65,0,0,0,.69-1.89,3,3,0,0,0-.31-1.37,2.25,2.25,0,0,0-.86-.92,2.42,2.42,0,0,0-1.28-.34,2.47,2.47,0,0,0-1.28.34,2.38,2.38,0,0,0-.86.92,3.18,3.18,0,0,0,0,2.74,2.41,2.41,0,0,0,.86.93A2.46,2.46,0,0,0,49.14,131.31ZM51.46,133v-2.32l.34-2.11-.34-2.09v-2.12h2V133Zm8.8.18a3.75,3.75,0,0,1-1.76-.41,3.15,3.15,0,0,1-1.66-2.85v-2.48a3.11,3.11,0,0,1,1.68-2.83,3.48,3.48,0,0,1,1.74-.43,3.75,3.75,0,0,1,2.11.61,4.16,4.16,0,0,1,1.49,1.62,4.94,4.94,0,0,1,0,4.57,4.13,4.13,0,0,1-1.49,1.61A3.9,3.9,0,0,1,60.26,133.18Zm-.32-1.87A2.37,2.37,0,0,0,61.2,131a2.27,2.27,0,0,0,.86-.93,3,3,0,0,0,0-2.74,2.25,2.25,0,0,0-.86-.92,2.37,2.37,0,0,0-1.26-.34,2.47,2.47,0,0,0-1.28.34,2.25,2.25,0,0,0-.86.92,3.18,3.18,0,0,0,0,2.74,2.27,2.27,0,0,0,.86.93A2.46,2.46,0,0,0,59.94,131.31ZM55.64,133V120h2v6.44l-.34,2.09.34,2.11V133Zm14.45.18a4.72,4.72,0,0,1-2.34-.58A4.47,4.47,0,0,1,66.11,131a4.76,4.76,0,0,1,0-4.59A4.38,4.38,0,0,1,70,124.18a4,4,0,0,1,2.13.56,3.91,3.91,0,0,1,1.46,1.53,4.47,4.47,0,0,1,.54,2.21,3.42,3.42,0,0,1,0,.45c0,.15,0,.31-.07.49H66.91V127.8H73l-.74.65a3.27,3.27,0,0,0-.3-1.34,1.88,1.88,0,0,0-.78-.82A2.22,2.22,0,0,0,70,126a2.66,2.66,0,0,0-1.32.32,2.19,2.19,0,0,0-.86.92,3.25,3.25,0,0,0,0,2.81,2.28,2.28,0,0,0,.92.95,2.74,2.74,0,0,0,1.36.33,3.07,3.07,0,0,0,1.23-.24,2.48,2.48,0,0,0,1-.68l1.26,1.28A4,4,0,0,1,72,132.8,4.93,4.93,0,0,1,70.09,133.18Zm5.6-.18V120h2v13Z"/><path class="cls-8" d="M169.87,133V120.4h2.07V133Zm1.42,0v-1.89h6.59V133Zm11.52.18a4,4,0,0,1-2.12-.59A4.36,4.36,0,0,1,179.2,131a5.1,5.1,0,0,1,0-4.57,4.39,4.39,0,0,1,1.49-1.62,3.83,3.83,0,0,1,2.12-.61,3.44,3.44,0,0,1,1.75.43,3.14,3.14,0,0,1,1.22,1.15,3.18,3.18,0,0,1,.45,1.68v2.48a3.18,3.18,0,0,1-.45,1.68,3.14,3.14,0,0,1-1.2,1.17A3.79,3.79,0,0,1,182.81,133.18Zm.33-1.87a2.26,2.26,0,0,0,1.76-.74,2.65,2.65,0,0,0,.69-1.89,3,3,0,0,0-.31-1.37,2.25,2.25,0,0,0-.86-.92,2.42,2.42,0,0,0-1.28-.34,2.47,2.47,0,0,0-1.28.34,2.38,2.38,0,0,0-.86.92,3.18,3.18,0,0,0,0,2.74,2.41,2.41,0,0,0,.86.93A2.46,2.46,0,0,0,183.14,131.31Zm2.32,1.69v-2.32l.34-2.11-.34-2.09v-2.12h2V133Zm8.8.18a3.72,3.72,0,0,1-1.76-.41,3.29,3.29,0,0,1-1.23-1.17,3.36,3.36,0,0,1-.43-1.68v-2.48a3.11,3.11,0,0,1,1.68-2.83,3.48,3.48,0,0,1,1.74-.43,3.77,3.77,0,0,1,2.11.61,4.16,4.16,0,0,1,1.49,1.62,4.94,4.94,0,0,1,0,4.57,4.13,4.13,0,0,1-1.49,1.61A3.92,3.92,0,0,1,194.26,133.18Zm-.32-1.87a2.37,2.37,0,0,0,1.26-.33,2.27,2.27,0,0,0,.86-.93,3,3,0,0,0,0-2.74,2.25,2.25,0,0,0-.86-.92,2.37,2.37,0,0,0-1.26-.34,2.47,2.47,0,0,0-1.28.34,2.25,2.25,0,0,0-.86.92,3.18,3.18,0,0,0,0,2.74,2.27,2.27,0,0,0,.86.93A2.46,2.46,0,0,0,193.94,131.31Zm-4.3,1.69V120h2v6.44l-.35,2.09.35,2.11V133Zm14.45.18a4.72,4.72,0,0,1-2.34-.58,4.47,4.47,0,0,1-1.64-1.62,4.76,4.76,0,0,1,0-4.59,4.38,4.38,0,0,1,3.87-2.21,4,4,0,0,1,2.13.56,3.91,3.91,0,0,1,1.46,1.53,4.47,4.47,0,0,1,.54,2.21,3.42,3.42,0,0,1,0,.45c0,.15,0,.31-.07.49h-7.09V127.8H207l-.74.65a3.27,3.27,0,0,0-.3-1.34,1.88,1.88,0,0,0-.78-.82A2.22,2.22,0,0,0,204,126a2.66,2.66,0,0,0-1.32.32,2.19,2.19,0,0,0-.86.92,3.25,3.25,0,0,0,0,2.81,2.28,2.28,0,0,0,.92.95,2.74,2.74,0,0,0,1.36.33,3.07,3.07,0,0,0,1.23-.24,2.48,2.48,0,0,0,1-.68l1.26,1.28A4,4,0,0,1,206,132.8,4.93,4.93,0,0,1,204.09,133.18Zm5.6-.18V120h2v13Z"/><path class="cls-8" d="M153,112h76v-8H153Zm76,28H153v8h76Zm-76,0a14,14,0,0,1-14-14h-8a22,22,0,0,0,22,22Zm90-14a14,14,0,0,1-14,14v8a22,22,0,0,0,22-22Zm-14-14a14,14,0,0,1,14,14h8a22,22,0,0,0-22-22Zm-76-8a22,22,0,0,0-22,22h8a14,14,0,0,1,14-14Z"/><path class="cls-8" d="M292,107h76a18,18,0,0,1,18,18h0a18,18,0,0,1-18,18H292a18,18,0,0,1-18-18h0A18,18,0,0,1,292,107Z"/><path class="cls-9" d="M294.87,132V119.4h2.07V132Zm1.42,0v-1.89h6.59V132Zm11.52.18a4,4,0,0,1-2.12-.59A4.36,4.36,0,0,1,304.2,130a5.1,5.1,0,0,1,0-4.57,4.39,4.39,0,0,1,1.49-1.62,3.83,3.83,0,0,1,2.12-.61,3.44,3.44,0,0,1,1.75.43,3.14,3.14,0,0,1,1.22,1.15,3.18,3.18,0,0,1,.45,1.68v2.48a3.18,3.18,0,0,1-.45,1.68,3.14,3.14,0,0,1-1.2,1.17A3.79,3.79,0,0,1,307.81,132.18Zm.33-1.87a2.26,2.26,0,0,0,1.76-.74,2.65,2.65,0,0,0,.69-1.89,3,3,0,0,0-.31-1.37,2.25,2.25,0,0,0-.86-.92,2.42,2.42,0,0,0-1.28-.34,2.47,2.47,0,0,0-1.28.34,2.38,2.38,0,0,0-.86.92,3.18,3.18,0,0,0,0,2.74,2.41,2.41,0,0,0,.86.93A2.46,2.46,0,0,0,308.14,130.31Zm2.32,1.69v-2.32l.34-2.11-.34-2.09v-2.12h2V132Zm8.8.18a3.75,3.75,0,0,1-1.76-.41,3.11,3.11,0,0,1-1.66-2.85v-2.48a3.11,3.11,0,0,1,1.68-2.83,3.45,3.45,0,0,1,1.74-.43,3.77,3.77,0,0,1,2.11.61,4.16,4.16,0,0,1,1.49,1.62,4.94,4.94,0,0,1,0,4.57,4.13,4.13,0,0,1-1.49,1.61A3.92,3.92,0,0,1,319.26,132.18Zm-.32-1.87a2.37,2.37,0,0,0,1.26-.33,2.27,2.27,0,0,0,.86-.93,3,3,0,0,0,0-2.74,2.25,2.25,0,0,0-.86-.92,2.37,2.37,0,0,0-1.26-.34,2.47,2.47,0,0,0-1.28.34,2.25,2.25,0,0,0-.86.92,3.18,3.18,0,0,0,0,2.74,2.27,2.27,0,0,0,.86.93A2.46,2.46,0,0,0,318.94,130.31Zm-4.3,1.69V119h2v6.44l-.35,2.09.35,2.11V132Zm14.45.18a4.72,4.72,0,0,1-2.34-.58,4.47,4.47,0,0,1-1.64-1.62,4.76,4.76,0,0,1,0-4.59,4.38,4.38,0,0,1,3.87-2.21,4,4,0,0,1,2.13.56,3.91,3.91,0,0,1,1.46,1.53,4.47,4.47,0,0,1,.54,2.21,3.42,3.42,0,0,1,0,.45c0,.15,0,.31-.07.49h-7.09V126.8H332l-.74.65a3.27,3.27,0,0,0-.3-1.34,1.88,1.88,0,0,0-.78-.82A2.22,2.22,0,0,0,329,125a2.66,2.66,0,0,0-1.32.32,2.19,2.19,0,0,0-.86.92,3.25,3.25,0,0,0,0,2.81,2.28,2.28,0,0,0,.92.95,2.74,2.74,0,0,0,1.36.33,3.07,3.07,0,0,0,1.23-.24,2.48,2.48,0,0,0,1-.68l1.26,1.28A4,4,0,0,1,331,131.8,4.93,4.93,0,0,1,329.09,132.18Zm5.6-.18V119h2v13Z"/><g class="cls-10"><path class="cls-9" d="M366.5,121.21,364.29,119l-3.79,3.79L356.71,119l-2.21,2.21,3.79,3.79-3.79,3.79,2.21,2.21,3.79-3.79,3.79,3.79,2.21-2.21L362.71,125Z"/></g><path class="cls-8" d="M436.87,132V119.4h2.07V132Zm1.42,0v-1.89h6.59V132Zm11.52.18a4,4,0,0,1-2.12-.59A4.36,4.36,0,0,1,446.2,130a5.1,5.1,0,0,1,0-4.57,4.39,4.39,0,0,1,1.49-1.62,3.83,3.83,0,0,1,2.12-.61,3.44,3.44,0,0,1,1.75.43,3.14,3.14,0,0,1,1.22,1.15,3.18,3.18,0,0,1,.45,1.68v2.48a3.18,3.18,0,0,1-.45,1.68,3.14,3.14,0,0,1-1.2,1.17A3.79,3.79,0,0,1,449.81,132.18Zm.33-1.87a2.26,2.26,0,0,0,1.76-.74,2.65,2.65,0,0,0,.69-1.89,3,3,0,0,0-.31-1.37,2.25,2.25,0,0,0-.86-.92,2.42,2.42,0,0,0-1.28-.34,2.47,2.47,0,0,0-1.28.34,2.38,2.38,0,0,0-.86.92,3.18,3.18,0,0,0,0,2.74,2.41,2.41,0,0,0,.86.93A2.46,2.46,0,0,0,450.14,130.31Zm2.32,1.69v-2.32l.34-2.11-.34-2.09v-2.12h2V132Zm8.8.18a3.75,3.75,0,0,1-1.76-.41,3.11,3.11,0,0,1-1.66-2.85v-2.48a3.11,3.11,0,0,1,1.68-2.83,3.45,3.45,0,0,1,1.74-.43,3.77,3.77,0,0,1,2.11.61,4.16,4.16,0,0,1,1.49,1.62,4.94,4.94,0,0,1,0,4.57,4.13,4.13,0,0,1-1.49,1.61A3.92,3.92,0,0,1,461.26,132.18Zm-.32-1.87a2.37,2.37,0,0,0,1.26-.33,2.27,2.27,0,0,0,.86-.93,3,3,0,0,0,0-2.74,2.25,2.25,0,0,0-.86-.92,2.37,2.37,0,0,0-1.26-.34,2.47,2.47,0,0,0-1.28.34,2.25,2.25,0,0,0-.86.92,3.18,3.18,0,0,0,0,2.74,2.27,2.27,0,0,0,.86.93A2.46,2.46,0,0,0,460.94,130.31Zm-4.3,1.69V119h2v6.44l-.35,2.09.35,2.11V132Zm14.45.18a4.72,4.72,0,0,1-2.34-.58,4.47,4.47,0,0,1-1.64-1.62,4.76,4.76,0,0,1,0-4.59,4.38,4.38,0,0,1,3.87-2.21,4,4,0,0,1,2.13.56,3.91,3.91,0,0,1,1.46,1.53,4.47,4.47,0,0,1,.54,2.21,3.42,3.42,0,0,1,0,.45c0,.15,0,.31-.07.49h-7.09V126.8H474l-.74.65a3.27,3.27,0,0,0-.3-1.34,1.88,1.88,0,0,0-.78-.82A2.22,2.22,0,0,0,471,125a2.66,2.66,0,0,0-1.32.32,2.19,2.19,0,0,0-.86.92,3.25,3.25,0,0,0,0,2.81,2.28,2.28,0,0,0,.92.95,2.74,2.74,0,0,0,1.36.33,3.07,3.07,0,0,0,1.23-.24,2.48,2.48,0,0,0,1-.68l1.26,1.28A4,4,0,0,1,473,131.8,4.93,4.93,0,0,1,471.09,132.18Zm5.6-.18V119h2v13Z"/><g class="cls-11"><path class="cls-8" d="M508.5,121.21,506.29,119l-3.79,3.79L498.71,119l-2.21,2.21,3.79,3.79-3.79,3.79,2.21,2.21,3.79-3.79,3.79,3.79,2.21-2.21L504.71,125Z"/></g><path class="cls-12" d="M434,109h76a16,16,0,0,1,16,16h0a16,16,0,0,1-16,16H434a16,16,0,0,1-16-16h0A16,16,0,0,1,434,109Z"/><path class="cls-8" d="M579,105h76a18,18,0,0,1,18,18h0a18,18,0,0,1-18,18H579a18,18,0,0,1-18-18h0A18,18,0,0,1,579,105Z"/><path class="cls-9" d="M584.72,130.18a3.75,3.75,0,0,1-1.76-.41,3.15,3.15,0,0,1-1.66-2.85v-2.48a3.11,3.11,0,0,1,1.68-2.83,3.48,3.48,0,0,1,1.74-.43,3.75,3.75,0,0,1,2.11.61,4.16,4.16,0,0,1,1.49,1.62,4.94,4.94,0,0,1,0,4.57,4.13,4.13,0,0,1-1.49,1.61A3.9,3.9,0,0,1,584.72,130.18Zm-.32-1.87a2.37,2.37,0,0,0,1.26-.33,2.27,2.27,0,0,0,.86-.93,3,3,0,0,0,0-2.74,2.25,2.25,0,0,0-.86-.92,2.37,2.37,0,0,0-1.26-.34,2.47,2.47,0,0,0-1.28.34,2.25,2.25,0,0,0-.86.92,3.18,3.18,0,0,0,0,2.74,2.27,2.27,0,0,0,.86.93A2.46,2.46,0,0,0,584.4,128.31ZM580.1,130V117h2v6.44l-.34,2.09.34,2.11V130Zm14,.18a3.89,3.89,0,0,1-2-.49,3.47,3.47,0,0,1-1.33-1.33,4.08,4.08,0,0,1-.47-2v-5h2v4.93a2.7,2.7,0,0,0,.2,1.08,1.65,1.65,0,0,0,.61.67,2,2,0,0,0,1,.23,1.69,1.69,0,0,0,1.31-.5,2.15,2.15,0,0,0,.47-1.48v-4.93h2v5a4.06,4.06,0,0,1-.49,2,3.42,3.42,0,0,1-1.31,1.33A4,4,0,0,1,594.09,130.18Zm7.06-.18V117.76h2V130Zm-2.07-6.84v-1.8h11.34v1.8Zm7.29,6.84V117.76h2V130Zm9.21.18a4.54,4.54,0,0,1-2.29-.59,4.77,4.77,0,0,1-1.64-1.64,4.57,4.57,0,0,1-.59-2.29,4.47,4.47,0,0,1,.59-2.27,4.65,4.65,0,0,1,1.64-1.6,4.36,4.36,0,0,1,2.29-.61,4.55,4.55,0,0,1,2.3.59,4.49,4.49,0,0,1,1.62,1.62,4.29,4.29,0,0,1,.61,2.27,4.39,4.39,0,0,1-.61,2.29,4.63,4.63,0,0,1-1.62,1.64A4.55,4.55,0,0,1,615.58,130.18Zm0-1.91a2.57,2.57,0,0,0,1.29-.32,2.22,2.22,0,0,0,.88-.94,2.7,2.7,0,0,0,.33-1.35,2.62,2.62,0,0,0-.33-1.33,2.43,2.43,0,0,0-2.17-1.24,2.47,2.47,0,0,0-1.3.34,2.38,2.38,0,0,0-.88.9,2.72,2.72,0,0,0-.31,1.33,2.8,2.8,0,0,0,.31,1.35,2.42,2.42,0,0,0,.88.94A2.66,2.66,0,0,0,615.58,128.27Zm12.1,1.73v-5a1.94,1.94,0,0,0-.56-1.42,1.88,1.88,0,0,0-1.4-.56,2,2,0,0,0-1,.26,1.75,1.75,0,0,0-.7.7,2,2,0,0,0-.25,1l-.78-.43a3.41,3.41,0,0,1,.44-1.74,3.05,3.05,0,0,1,1.18-1.21,3.41,3.41,0,0,1,1.73-.45,3.08,3.08,0,0,1,1.73.5,3.57,3.57,0,0,1,1.19,1.28,3.28,3.28,0,0,1,.43,1.62V130Zm-5.92,0v-8.64h2V130Z"/><path class="cls-9" d="M649.72,114.08V114H647v.08c0,4.72,3.29,8.59,7.48,8.92-4.16.3-7.48,4.17-7.48,8.92V132h2.72v-.08c0-3.26,2.36-5.88,5.28-5.88V120C652.08,120,649.72,117.34,649.72,114.08Z"/><path class="cls-8" d="M856,105h76a18,18,0,0,1,18,18h0a18,18,0,0,1-18,18H856a18,18,0,0,1-18-18h0A18,18,0,0,1,856,105Z"/><path class="cls-9" d="M860,119.21,857.79,117,854,120.79,850.21,117,848,119.21l3.79,3.79L848,126.79l2.21,2.21,3.79-3.79,3.79,3.79,2.21-2.21L856.21,123Z"/><path class="cls-9" d="M875.72,130.18a3.75,3.75,0,0,1-1.76-.41,3.15,3.15,0,0,1-1.66-2.85v-2.48a3.11,3.11,0,0,1,1.68-2.83,3.48,3.48,0,0,1,1.74-.43,3.75,3.75,0,0,1,2.11.61,4.16,4.16,0,0,1,1.49,1.62,4.94,4.94,0,0,1,0,4.57,4.13,4.13,0,0,1-1.49,1.61A3.9,3.9,0,0,1,875.72,130.18Zm-.32-1.87a2.37,2.37,0,0,0,1.26-.33,2.27,2.27,0,0,0,.86-.93,3,3,0,0,0,0-2.74,2.25,2.25,0,0,0-.86-.92,2.37,2.37,0,0,0-1.26-.34,2.47,2.47,0,0,0-1.28.34,2.25,2.25,0,0,0-.86.92,3.18,3.18,0,0,0,0,2.74,2.27,2.27,0,0,0,.86.93A2.46,2.46,0,0,0,875.4,128.31ZM871.1,130V117h2v6.44l-.34,2.09.34,2.11V130Zm14,.18a3.89,3.89,0,0,1-2-.49,3.47,3.47,0,0,1-1.33-1.33,4.08,4.08,0,0,1-.47-2v-5h2v4.93a2.7,2.7,0,0,0,.2,1.08,1.65,1.65,0,0,0,.61.67,2,2,0,0,0,1,.23,1.69,1.69,0,0,0,1.31-.5,2.15,2.15,0,0,0,.47-1.48v-4.93h2v5a4.06,4.06,0,0,1-.49,2,3.42,3.42,0,0,1-1.31,1.33A4,4,0,0,1,885.09,130.18Zm7.06-.18V117.76h2V130Zm-2.07-6.84v-1.8h11.34v1.8Zm7.29,6.84V117.76h2V130Zm9.21.18a4.54,4.54,0,0,1-2.29-.59,4.77,4.77,0,0,1-1.64-1.64,4.57,4.57,0,0,1-.59-2.29,4.47,4.47,0,0,1,.59-2.27,4.65,4.65,0,0,1,1.64-1.6,4.36,4.36,0,0,1,2.29-.61,4.55,4.55,0,0,1,2.3.59,4.49,4.49,0,0,1,1.62,1.62,4.29,4.29,0,0,1,.61,2.27,4.39,4.39,0,0,1-.61,2.29,4.63,4.63,0,0,1-1.62,1.64A4.55,4.55,0,0,1,906.58,130.18Zm0-1.91a2.57,2.57,0,0,0,1.29-.32,2.22,2.22,0,0,0,.88-.94,2.7,2.7,0,0,0,.33-1.35,2.62,2.62,0,0,0-.33-1.33,2.43,2.43,0,0,0-2.17-1.24,2.47,2.47,0,0,0-1.3.34,2.38,2.38,0,0,0-.88.9,2.72,2.72,0,0,0-.31,1.33,2.8,2.8,0,0,0,.31,1.35,2.42,2.42,0,0,0,.88.94A2.66,2.66,0,0,0,906.58,128.27Zm12.1,1.73v-5a1.94,1.94,0,0,0-.56-1.42,1.88,1.88,0,0,0-1.4-.56,2,2,0,0,0-1,.26,1.75,1.75,0,0,0-.7.7,2,2,0,0,0-.25,1l-.78-.43a3.41,3.41,0,0,1,.44-1.74,3.05,3.05,0,0,1,1.18-1.21,3.41,3.41,0,0,1,1.73-.45,3.08,3.08,0,0,1,1.73.5,3.57,3.57,0,0,1,1.19,1.28,3.28,3.28,0,0,1,.43,1.62V130Zm-5.92,0v-8.64h2V130Z"/><path class="cls-9" d="M934.72,114.08V114H932v.08c0,4.72,3.29,8.59,7.48,8.92-4.16.3-7.48,4.17-7.48,8.92V132h2.72v-.08c0-3.26,2.36-5.88,5.28-5.88V120C937.08,120,934.72,117.34,934.72,114.08Z"/><path class="cls-8" d="M1160,105h0a18,18,0,0,1,18,18h0a18,18,0,0,1-18,18h0a18,18,0,0,1-18-18h0A18,18,0,0,1,1160,105Z"/><path class="cls-9" d="M1168,117.94l-2.94-2.94-5.06,5.06-5.06-5.06-2.94,2.94,5.06,5.06-5.06,5.06,2.94,2.94,5.06-5.06,5.06,5.06,2.94-2.94-5.06-5.06Z"/><path class="cls-8" d="M1217.11,103h0a20.11,20.11,0,0,1,20.11,20.11h0a20.11,20.11,0,0,1-20.11,20.11h0A20.11,20.11,0,0,1,1197,123.11h0A20.11,20.11,0,0,1,1217.11,103Z"/><path class="cls-9" d="M1226.22,117.35l-3.35-3.35-5.76,5.76-5.76-5.76-3.35,3.35,5.76,5.76-5.76,5.76,3.35,3.35,5.76-5.76,5.76,5.76,3.35-3.35-5.76-5.76Z"/><path class="cls-8" d="M1281.33,98h0a25.33,25.33,0,0,1,25.32,25.33h0a25.32,25.32,0,0,1-25.32,25.32h0A25.33,25.33,0,0,1,1256,123.33h0A25.33,25.33,0,0,1,1281.33,98Z"/><path class="cls-9" d="M1292.65,116.17l-4.16-4.17-7.16,7.16-7.16-7.16-4.17,4.17,7.16,7.16-7.16,7.16,4.17,4.16,7.16-7.16,7.16,7.16,4.16-4.16-7.16-7.16Z"/><path class="cls-8" d="M1007,119.21l-2.21-2.21-3.79,3.79L997.21,117,995,119.21l3.79,3.79L995,126.79l2.21,2.21,3.79-3.79,3.79,3.79,2.21-2.21-3.79-3.79Z"/><path class="cls-8" d="M1022.72,130.18a3.75,3.75,0,0,1-1.76-.41,3.15,3.15,0,0,1-1.66-2.85v-2.48a3.11,3.11,0,0,1,1.68-2.83,3.48,3.48,0,0,1,1.74-.43,3.75,3.75,0,0,1,2.11.61,4.16,4.16,0,0,1,1.49,1.62,4.94,4.94,0,0,1,0,4.57,4.13,4.13,0,0,1-1.49,1.61A3.9,3.9,0,0,1,1022.72,130.18Zm-.32-1.87a2.37,2.37,0,0,0,1.26-.33,2.27,2.27,0,0,0,.86-.93,3,3,0,0,0,0-2.74,2.25,2.25,0,0,0-.86-.92,2.37,2.37,0,0,0-1.26-.34,2.47,2.47,0,0,0-1.28.34,2.25,2.25,0,0,0-.86.92,3.18,3.18,0,0,0,0,2.74,2.27,2.27,0,0,0,.86.93A2.46,2.46,0,0,0,1022.4,128.31Zm-4.3,1.69V117h2v6.44l-.34,2.09.34,2.11V130Zm14,.18a3.89,3.89,0,0,1-2-.49,3.54,3.54,0,0,1-1.33-1.33,4.08,4.08,0,0,1-.47-2v-5h2v4.93a2.7,2.7,0,0,0,.2,1.08,1.65,1.65,0,0,0,.61.67,2,2,0,0,0,1,.23,1.69,1.69,0,0,0,1.31-.5,2.15,2.15,0,0,0,.47-1.48v-4.93h2v5a4,4,0,0,1-.49,2,3.42,3.42,0,0,1-1.31,1.33A4,4,0,0,1,1032.09,130.18Zm7.06-.18V117.76h2V130Zm-2.07-6.84v-1.8h11.34v1.8Zm7.29,6.84V117.76h2V130Zm9.21.18a4.54,4.54,0,0,1-2.29-.59,4.77,4.77,0,0,1-1.64-1.64,4.57,4.57,0,0,1-.59-2.29,4.47,4.47,0,0,1,.59-2.27,4.65,4.65,0,0,1,1.64-1.6,4.36,4.36,0,0,1,2.29-.61,4.55,4.55,0,0,1,2.3.59,4.49,4.49,0,0,1,1.62,1.62,4.29,4.29,0,0,1,.61,2.27,4.39,4.39,0,0,1-.61,2.29,4.63,4.63,0,0,1-1.62,1.64A4.55,4.55,0,0,1,1053.58,130.18Zm0-1.91a2.57,2.57,0,0,0,1.29-.32,2.22,2.22,0,0,0,.88-.94,2.7,2.7,0,0,0,.33-1.35,2.62,2.62,0,0,0-.33-1.33,2.43,2.43,0,0,0-2.17-1.24,2.47,2.47,0,0,0-1.3.34,2.38,2.38,0,0,0-.88.9,2.72,2.72,0,0,0-.31,1.33,2.8,2.8,0,0,0,.31,1.35,2.42,2.42,0,0,0,.88.94A2.66,2.66,0,0,0,1053.58,128.27Zm12.1,1.73v-5a1.94,1.94,0,0,0-.56-1.42,1.88,1.88,0,0,0-1.4-.56,2,2,0,0,0-1,.26,1.75,1.75,0,0,0-.7.7,2,2,0,0,0-.25,1l-.78-.43a3.41,3.41,0,0,1,.44-1.74,3.05,3.05,0,0,1,1.18-1.21,3.41,3.41,0,0,1,1.73-.45,3.08,3.08,0,0,1,1.73.5,3.57,3.57,0,0,1,1.19,1.28,3.28,3.28,0,0,1,.43,1.62V130Zm-5.92,0v-8.64h2V130Z"/><path class="cls-8" d="M1081.72,114.08V114H1079v.08c0,4.72,3.29,8.59,7.48,8.92-4.16.3-7.48,4.17-7.48,8.92V132h2.72v-.08c0-3.26,2.36-5.88,5.28-5.88V120C1084.08,120,1081.72,117.34,1081.72,114.08Z"/><path class="cls-12" d="M1003,107h76a16,16,0,0,1,16,16h0a16,16,0,0,1-16,16h-76a16,16,0,0,1-16-16h0A16,16,0,0,1,1003,107Z"/><path class="cls-8" d="M718.72,130.18a3.75,3.75,0,0,1-1.76-.41,3.15,3.15,0,0,1-1.66-2.85v-2.48a3.11,3.11,0,0,1,1.68-2.83,3.48,3.48,0,0,1,1.74-.43,3.75,3.75,0,0,1,2.11.61,4.16,4.16,0,0,1,1.49,1.62,4.94,4.94,0,0,1,0,4.57,4.13,4.13,0,0,1-1.49,1.61A3.9,3.9,0,0,1,718.72,130.18Zm-.32-1.87a2.37,2.37,0,0,0,1.26-.33,2.27,2.27,0,0,0,.86-.93,3,3,0,0,0,0-2.74,2.25,2.25,0,0,0-.86-.92,2.37,2.37,0,0,0-1.26-.34,2.47,2.47,0,0,0-1.28.34,2.25,2.25,0,0,0-.86.92,3.18,3.18,0,0,0,0,2.74,2.27,2.27,0,0,0,.86.93A2.46,2.46,0,0,0,718.4,128.31ZM714.1,130V117h2v6.44l-.34,2.09.34,2.11V130Zm14,.18a3.89,3.89,0,0,1-2-.49,3.47,3.47,0,0,1-1.33-1.33,4.08,4.08,0,0,1-.47-2v-5h2v4.93a2.7,2.7,0,0,0,.2,1.08,1.65,1.65,0,0,0,.61.67,2,2,0,0,0,1,.23,1.69,1.69,0,0,0,1.31-.5,2.15,2.15,0,0,0,.47-1.48v-4.93h2v5a4.06,4.06,0,0,1-.49,2,3.42,3.42,0,0,1-1.31,1.33A4,4,0,0,1,728.09,130.18Zm7.06-.18V117.76h2V130Zm-2.07-6.84v-1.8h11.34v1.8Zm7.29,6.84V117.76h2V130Zm9.21.18a4.54,4.54,0,0,1-2.29-.59,4.77,4.77,0,0,1-1.64-1.64,4.57,4.57,0,0,1-.59-2.29,4.47,4.47,0,0,1,.59-2.27,4.65,4.65,0,0,1,1.64-1.6,4.36,4.36,0,0,1,2.29-.61,4.55,4.55,0,0,1,2.3.59,4.49,4.49,0,0,1,1.62,1.62,4.29,4.29,0,0,1,.61,2.27,4.39,4.39,0,0,1-.61,2.29,4.63,4.63,0,0,1-1.62,1.64A4.55,4.55,0,0,1,749.58,130.18Zm0-1.91a2.57,2.57,0,0,0,1.29-.32,2.22,2.22,0,0,0,.88-.94,2.7,2.7,0,0,0,.33-1.35,2.62,2.62,0,0,0-.33-1.33,2.43,2.43,0,0,0-2.17-1.24,2.47,2.47,0,0,0-1.3.34,2.38,2.38,0,0,0-.88.9,2.72,2.72,0,0,0-.31,1.33,2.8,2.8,0,0,0,.31,1.35,2.42,2.42,0,0,0,.88.94A2.66,2.66,0,0,0,749.58,128.27Zm12.1,1.73v-5a1.94,1.94,0,0,0-.56-1.42,1.88,1.88,0,0,0-1.4-.56,2,2,0,0,0-1,.26,1.75,1.75,0,0,0-.7.7,2,2,0,0,0-.25,1l-.78-.43a3.41,3.41,0,0,1,.44-1.74,3.05,3.05,0,0,1,1.18-1.21,3.41,3.41,0,0,1,1.73-.45,3.08,3.08,0,0,1,1.73.5,3.57,3.57,0,0,1,1.19,1.28,3.28,3.28,0,0,1,.43,1.62V130Zm-5.92,0v-8.64h2V130Z"/><path class="cls-8" d="M783.72,114.08V114H781v.08c0,4.72,3.29,8.59,7.48,8.92-4.16.3-7.48,4.17-7.48,8.92V132h2.72v-.08c0-3.26,2.36-5.88,5.28-5.88V120C786.08,120,783.72,117.34,783.72,114.08Z"/><path class="cls-12" d="M713,107h76a16,16,0,0,1,16,16h0a16,16,0,0,1-16,16H713a16,16,0,0,1-16-16h0A16,16,0,0,1,713,107Z"/><path class="cls-13" d="M1,224a18,18,0,0,1,18-18H95a18,18,0,0,1,0,36H19A18,18,0,0,1,1,224Z"/><path class="cls-9" d="M35.87,231V218.4h2.07V231Zm1.42,0v-1.89h6.59V231Zm11.52.18a4,4,0,0,1-2.12-.59A4.36,4.36,0,0,1,45.2,229a5.1,5.1,0,0,1,0-4.57,4.39,4.39,0,0,1,1.49-1.62,3.83,3.83,0,0,1,2.12-.61,3.44,3.44,0,0,1,1.75.43,3.14,3.14,0,0,1,1.22,1.15,3.18,3.18,0,0,1,.45,1.68v2.48a3.18,3.18,0,0,1-.45,1.68,3.14,3.14,0,0,1-1.2,1.17A3.79,3.79,0,0,1,48.81,231.18Zm.33-1.87a2.26,2.26,0,0,0,1.76-.74,2.65,2.65,0,0,0,.69-1.89,3,3,0,0,0-.31-1.37,2.25,2.25,0,0,0-.86-.92,2.42,2.42,0,0,0-1.28-.34,2.47,2.47,0,0,0-1.28.34,2.38,2.38,0,0,0-.86.92,3.18,3.18,0,0,0,0,2.74,2.41,2.41,0,0,0,.86.93A2.46,2.46,0,0,0,49.14,229.31ZM51.46,231v-2.32l.34-2.11-.34-2.09v-2.12h2V231Zm8.8.18a3.75,3.75,0,0,1-1.76-.41,3.15,3.15,0,0,1-1.66-2.85v-2.48a3.11,3.11,0,0,1,1.68-2.83,3.48,3.48,0,0,1,1.74-.43,3.75,3.75,0,0,1,2.11.61,4.16,4.16,0,0,1,1.49,1.62,4.94,4.94,0,0,1,0,4.57,4.13,4.13,0,0,1-1.49,1.61A3.9,3.9,0,0,1,60.26,231.18Zm-.32-1.87A2.37,2.37,0,0,0,61.2,229a2.27,2.27,0,0,0,.86-.93,3,3,0,0,0,0-2.74,2.25,2.25,0,0,0-.86-.92,2.37,2.37,0,0,0-1.26-.34,2.47,2.47,0,0,0-1.28.34,2.25,2.25,0,0,0-.86.92,3.18,3.18,0,0,0,0,2.74,2.27,2.27,0,0,0,.86.93A2.46,2.46,0,0,0,59.94,229.31ZM55.64,231V218h2v6.44l-.34,2.09.34,2.11V231Zm14.45.18a4.72,4.72,0,0,1-2.34-.58A4.47,4.47,0,0,1,66.11,229a4.76,4.76,0,0,1,0-4.59A4.38,4.38,0,0,1,70,222.18a4,4,0,0,1,2.13.56,3.91,3.91,0,0,1,1.46,1.53,4.47,4.47,0,0,1,.54,2.21,3.42,3.42,0,0,1,0,.45c0,.15,0,.31-.07.49H66.91V225.8H73l-.74.65a3.27,3.27,0,0,0-.3-1.34,1.88,1.88,0,0,0-.78-.82A2.22,2.22,0,0,0,70,224a2.66,2.66,0,0,0-1.32.32,2.19,2.19,0,0,0-.86.92,3.25,3.25,0,0,0,0,2.81,2.28,2.28,0,0,0,.92.95,2.74,2.74,0,0,0,1.36.33,3.07,3.07,0,0,0,1.23-.24,2.48,2.48,0,0,0,1-.68l1.26,1.28A4,4,0,0,1,72,230.8,4.93,4.93,0,0,1,70.09,231.18Zm5.6-.18V218h2v13Z"/><path class="cls-13" d="M169.87,231V218.4h2.07V231Zm1.42,0v-1.89h6.59V231Zm11.52.18a4,4,0,0,1-2.12-.59A4.36,4.36,0,0,1,179.2,229a5.1,5.1,0,0,1,0-4.57,4.39,4.39,0,0,1,1.49-1.62,3.83,3.83,0,0,1,2.12-.61,3.44,3.44,0,0,1,1.75.43,3.14,3.14,0,0,1,1.22,1.15,3.18,3.18,0,0,1,.45,1.68v2.48a3.18,3.18,0,0,1-.45,1.68,3.14,3.14,0,0,1-1.2,1.17A3.79,3.79,0,0,1,182.81,231.18Zm.33-1.87a2.26,2.26,0,0,0,1.76-.74,2.65,2.65,0,0,0,.69-1.89,3,3,0,0,0-.31-1.37,2.25,2.25,0,0,0-.86-.92,2.42,2.42,0,0,0-1.28-.34,2.47,2.47,0,0,0-1.28.34,2.38,2.38,0,0,0-.86.92,3.18,3.18,0,0,0,0,2.74,2.41,2.41,0,0,0,.86.93A2.46,2.46,0,0,0,183.14,229.31Zm2.32,1.69v-2.32l.34-2.11-.34-2.09v-2.12h2V231Zm8.8.18a3.72,3.72,0,0,1-1.76-.41,3.29,3.29,0,0,1-1.23-1.17,3.36,3.36,0,0,1-.43-1.68v-2.48a3.11,3.11,0,0,1,1.68-2.83,3.48,3.48,0,0,1,1.74-.43,3.77,3.77,0,0,1,2.11.61,4.16,4.16,0,0,1,1.49,1.62,4.94,4.94,0,0,1,0,4.57,4.13,4.13,0,0,1-1.49,1.61A3.92,3.92,0,0,1,194.26,231.18Zm-.32-1.87a2.37,2.37,0,0,0,1.26-.33,2.27,2.27,0,0,0,.86-.93,3,3,0,0,0,0-2.74,2.25,2.25,0,0,0-.86-.92,2.37,2.37,0,0,0-1.26-.34,2.47,2.47,0,0,0-1.28.34,2.25,2.25,0,0,0-.86.92,3.18,3.18,0,0,0,0,2.74,2.27,2.27,0,0,0,.86.93A2.46,2.46,0,0,0,193.94,229.31Zm-4.3,1.69V218h2v6.44l-.35,2.09.35,2.11V231Zm14.45.18a4.72,4.72,0,0,1-2.34-.58,4.47,4.47,0,0,1-1.64-1.62,4.76,4.76,0,0,1,0-4.59,4.38,4.38,0,0,1,3.87-2.21,4,4,0,0,1,2.13.56,3.91,3.91,0,0,1,1.46,1.53,4.47,4.47,0,0,1,.54,2.21,3.42,3.42,0,0,1,0,.45c0,.15,0,.31-.07.49h-7.09V225.8H207l-.74.65a3.27,3.27,0,0,0-.3-1.34,1.88,1.88,0,0,0-.78-.82A2.22,2.22,0,0,0,204,224a2.66,2.66,0,0,0-1.32.32,2.19,2.19,0,0,0-.86.92,3.25,3.25,0,0,0,0,2.81,2.28,2.28,0,0,0,.92.95,2.74,2.74,0,0,0,1.36.33,3.07,3.07,0,0,0,1.23-.24,2.48,2.48,0,0,0,1-.68l1.26,1.28A4,4,0,0,1,206,230.8,4.93,4.93,0,0,1,204.09,231.18Zm5.6-.18V218h2v13Z"/><path class="cls-13" d="M153,210h76v-8H153Zm76,28H153v8h76Zm-76,0a14,14,0,0,1-14-14h-8a22,22,0,0,0,22,22Zm90-14a14,14,0,0,1-14,14v8a22,22,0,0,0,22-22Zm-14-14a14,14,0,0,1,14,14h8a22,22,0,0,0-22-22Zm-76-8a22,22,0,0,0-22,22h8a14,14,0,0,1,14-14Z"/><path class="cls-13" d="M292,205h76a18,18,0,0,1,18,18h0a18,18,0,0,1-18,18H292a18,18,0,0,1-18-18h0A18,18,0,0,1,292,205Z"/><path class="cls-9" d="M294.87,230V217.4h2.07V230Zm1.42,0v-1.89h6.59V230Zm11.52.18a4,4,0,0,1-2.12-.59A4.36,4.36,0,0,1,304.2,228a5.1,5.1,0,0,1,0-4.57,4.39,4.39,0,0,1,1.49-1.62,3.83,3.83,0,0,1,2.12-.61,3.44,3.44,0,0,1,1.75.43,3.14,3.14,0,0,1,1.22,1.15,3.18,3.18,0,0,1,.45,1.68v2.48a3.18,3.18,0,0,1-.45,1.68,3.14,3.14,0,0,1-1.2,1.17A3.79,3.79,0,0,1,307.81,230.18Zm.33-1.87a2.26,2.26,0,0,0,1.76-.74,2.65,2.65,0,0,0,.69-1.89,3,3,0,0,0-.31-1.37,2.25,2.25,0,0,0-.86-.92,2.42,2.42,0,0,0-1.28-.34,2.47,2.47,0,0,0-1.28.34,2.38,2.38,0,0,0-.86.92,3.18,3.18,0,0,0,0,2.74,2.41,2.41,0,0,0,.86.93A2.46,2.46,0,0,0,308.14,228.31Zm2.32,1.69v-2.32l.34-2.11-.34-2.09v-2.12h2V230Zm8.8.18a3.75,3.75,0,0,1-1.76-.41,3.11,3.11,0,0,1-1.66-2.85v-2.48a3.11,3.11,0,0,1,1.68-2.83,3.45,3.45,0,0,1,1.74-.43,3.77,3.77,0,0,1,2.11.61,4.16,4.16,0,0,1,1.49,1.62,4.94,4.94,0,0,1,0,4.57,4.13,4.13,0,0,1-1.49,1.61A3.92,3.92,0,0,1,319.26,230.18Zm-.32-1.87a2.37,2.37,0,0,0,1.26-.33,2.27,2.27,0,0,0,.86-.93,3,3,0,0,0,0-2.74,2.25,2.25,0,0,0-.86-.92,2.37,2.37,0,0,0-1.26-.34,2.47,2.47,0,0,0-1.28.34,2.25,2.25,0,0,0-.86.92,3.18,3.18,0,0,0,0,2.74,2.27,2.27,0,0,0,.86.93A2.46,2.46,0,0,0,318.94,228.31Zm-4.3,1.69V217h2v6.44l-.35,2.09.35,2.11V230Zm14.45.18a4.72,4.72,0,0,1-2.34-.58,4.47,4.47,0,0,1-1.64-1.62,4.76,4.76,0,0,1,0-4.59,4.38,4.38,0,0,1,3.87-2.21,4,4,0,0,1,2.13.56,3.91,3.91,0,0,1,1.46,1.53,4.47,4.47,0,0,1,.54,2.21,3.42,3.42,0,0,1,0,.45c0,.15,0,.31-.07.49h-7.09V224.8H332l-.74.65a3.27,3.27,0,0,0-.3-1.34,1.88,1.88,0,0,0-.78-.82A2.22,2.22,0,0,0,329,223a2.66,2.66,0,0,0-1.32.32,2.19,2.19,0,0,0-.86.92,3.25,3.25,0,0,0,0,2.81,2.28,2.28,0,0,0,.92.95,2.74,2.74,0,0,0,1.36.33,3.07,3.07,0,0,0,1.23-.24,2.48,2.48,0,0,0,1-.68l1.26,1.28A4,4,0,0,1,331,229.8,4.93,4.93,0,0,1,329.09,230.18Zm5.6-.18V217h2v13Z"/><g class="cls-14"><path class="cls-9" d="M366.5,219.21,364.29,217l-3.79,3.79L356.71,217l-2.21,2.21,3.79,3.79-3.79,3.79,2.21,2.21,3.79-3.79,3.79,3.79,2.21-2.21L362.71,223Z"/></g><path class="cls-13" d="M436.87,230V217.4h2.07V230Zm1.42,0v-1.89h6.59V230Zm11.52.18a4,4,0,0,1-2.12-.59A4.36,4.36,0,0,1,446.2,228a5.1,5.1,0,0,1,0-4.57,4.39,4.39,0,0,1,1.49-1.62,3.83,3.83,0,0,1,2.12-.61,3.44,3.44,0,0,1,1.75.43,3.14,3.14,0,0,1,1.22,1.15,3.18,3.18,0,0,1,.45,1.68v2.48a3.18,3.18,0,0,1-.45,1.68,3.14,3.14,0,0,1-1.2,1.17A3.79,3.79,0,0,1,449.81,230.18Zm.33-1.87a2.26,2.26,0,0,0,1.76-.74,2.65,2.65,0,0,0,.69-1.89,3,3,0,0,0-.31-1.37,2.25,2.25,0,0,0-.86-.92,2.42,2.42,0,0,0-1.28-.34,2.47,2.47,0,0,0-1.28.34,2.38,2.38,0,0,0-.86.92,3.18,3.18,0,0,0,0,2.74,2.41,2.41,0,0,0,.86.93A2.46,2.46,0,0,0,450.14,228.31Zm2.32,1.69v-2.32l.34-2.11-.34-2.09v-2.12h2V230Zm8.8.18a3.75,3.75,0,0,1-1.76-.41,3.11,3.11,0,0,1-1.66-2.85v-2.48a3.11,3.11,0,0,1,1.68-2.83,3.45,3.45,0,0,1,1.74-.43,3.77,3.77,0,0,1,2.11.61,4.16,4.16,0,0,1,1.49,1.62,4.94,4.94,0,0,1,0,4.57,4.13,4.13,0,0,1-1.49,1.61A3.92,3.92,0,0,1,461.26,230.18Zm-.32-1.87a2.37,2.37,0,0,0,1.26-.33,2.27,2.27,0,0,0,.86-.93,3,3,0,0,0,0-2.74,2.25,2.25,0,0,0-.86-.92,2.37,2.37,0,0,0-1.26-.34,2.47,2.47,0,0,0-1.28.34,2.25,2.25,0,0,0-.86.92,3.18,3.18,0,0,0,0,2.74,2.27,2.27,0,0,0,.86.93A2.46,2.46,0,0,0,460.94,228.31Zm-4.3,1.69V217h2v6.44l-.35,2.09.35,2.11V230Zm14.45.18a4.72,4.72,0,0,1-2.34-.58,4.47,4.47,0,0,1-1.64-1.62,4.76,4.76,0,0,1,0-4.59,4.38,4.38,0,0,1,3.87-2.21,4,4,0,0,1,2.13.56,3.91,3.91,0,0,1,1.46,1.53,4.47,4.47,0,0,1,.54,2.21,3.42,3.42,0,0,1,0,.45c0,.15,0,.31-.07.49h-7.09V224.8H474l-.74.65a3.27,3.27,0,0,0-.3-1.34,1.88,1.88,0,0,0-.78-.82A2.22,2.22,0,0,0,471,223a2.66,2.66,0,0,0-1.32.32,2.19,2.19,0,0,0-.86.92,3.25,3.25,0,0,0,0,2.81,2.28,2.28,0,0,0,.92.95,2.74,2.74,0,0,0,1.36.33,3.07,3.07,0,0,0,1.23-.24,2.48,2.48,0,0,0,1-.68l1.26,1.28A4,4,0,0,1,473,229.8,4.93,4.93,0,0,1,471.09,230.18Zm5.6-.18V217h2v13Z"/><g class="cls-15"><path class="cls-13" d="M508.5,219.21,506.29,217l-3.79,3.79L498.71,217l-2.21,2.21,3.79,3.79-3.79,3.79,2.21,2.21,3.79-3.79,3.79,3.79,2.21-2.21L504.71,223Z"/></g><path class="cls-16" d="M434,207h76a16,16,0,0,1,16,16h0a16,16,0,0,1-16,16H434a16,16,0,0,1-16-16h0A16,16,0,0,1,434,207Z"/><path class="cls-13" d="M579,203h76a18,18,0,0,1,18,18h0a18,18,0,0,1-18,18H579a18,18,0,0,1-18-18h0A18,18,0,0,1,579,203Z"/><path class="cls-9" d="M584.72,228.18a3.75,3.75,0,0,1-1.76-.41,3.15,3.15,0,0,1-1.66-2.85v-2.48a3.11,3.11,0,0,1,1.68-2.83,3.48,3.48,0,0,1,1.74-.43,3.75,3.75,0,0,1,2.11.61,4.16,4.16,0,0,1,1.49,1.62,4.94,4.94,0,0,1,0,4.57,4.13,4.13,0,0,1-1.49,1.61A3.9,3.9,0,0,1,584.72,228.18Zm-.32-1.87a2.37,2.37,0,0,0,1.26-.33,2.27,2.27,0,0,0,.86-.93,3,3,0,0,0,0-2.74,2.25,2.25,0,0,0-.86-.92,2.37,2.37,0,0,0-1.26-.34,2.47,2.47,0,0,0-1.28.34,2.25,2.25,0,0,0-.86.92,3.18,3.18,0,0,0,0,2.74,2.27,2.27,0,0,0,.86.93A2.46,2.46,0,0,0,584.4,226.31ZM580.1,228V215h2v6.44l-.34,2.09.34,2.11V228Zm14,.18a3.89,3.89,0,0,1-2-.49,3.47,3.47,0,0,1-1.33-1.33,4.08,4.08,0,0,1-.47-2v-5h2v4.93a2.7,2.7,0,0,0,.2,1.08,1.65,1.65,0,0,0,.61.67,2,2,0,0,0,1,.23,1.69,1.69,0,0,0,1.31-.5,2.15,2.15,0,0,0,.47-1.48v-4.93h2v5a4.06,4.06,0,0,1-.49,2,3.42,3.42,0,0,1-1.31,1.33A4,4,0,0,1,594.09,228.18Zm7.06-.18V215.76h2V228Zm-2.07-6.84v-1.8h11.34v1.8Zm7.29,6.84V215.76h2V228Zm9.21.18a4.54,4.54,0,0,1-2.29-.59,4.77,4.77,0,0,1-1.64-1.64,4.57,4.57,0,0,1-.59-2.29,4.47,4.47,0,0,1,.59-2.27,4.65,4.65,0,0,1,1.64-1.6,4.36,4.36,0,0,1,2.29-.61,4.55,4.55,0,0,1,2.3.59,4.49,4.49,0,0,1,1.62,1.62,4.29,4.29,0,0,1,.61,2.27,4.39,4.39,0,0,1-.61,2.29,4.63,4.63,0,0,1-1.62,1.64A4.55,4.55,0,0,1,615.58,228.18Zm0-1.91a2.57,2.57,0,0,0,1.29-.32,2.22,2.22,0,0,0,.88-.94,2.7,2.7,0,0,0,.33-1.35,2.62,2.62,0,0,0-.33-1.33,2.43,2.43,0,0,0-2.17-1.24,2.47,2.47,0,0,0-1.3.34,2.38,2.38,0,0,0-.88.9,2.72,2.72,0,0,0-.31,1.33,2.8,2.8,0,0,0,.31,1.35,2.42,2.42,0,0,0,.88.94A2.66,2.66,0,0,0,615.58,226.27Zm12.1,1.73v-5a1.94,1.94,0,0,0-.56-1.42,1.88,1.88,0,0,0-1.4-.56,2,2,0,0,0-1,.26,1.75,1.75,0,0,0-.7.7,2,2,0,0,0-.25,1l-.78-.43a3.41,3.41,0,0,1,.44-1.74,3.05,3.05,0,0,1,1.18-1.21,3.41,3.41,0,0,1,1.73-.45,3.08,3.08,0,0,1,1.73.5,3.57,3.57,0,0,1,1.19,1.28,3.28,3.28,0,0,1,.43,1.62V228Zm-5.92,0v-8.64h2V228Z"/><path class="cls-9" d="M649.72,212.08V212H647v.08c0,4.72,3.29,8.59,7.48,8.92-4.16.3-7.48,4.17-7.48,8.92V230h2.72v-.08c0-3.26,2.36-5.88,5.28-5.88V218C652.08,218,649.72,215.34,649.72,212.08Z"/><path class="cls-13" d="M856,203h76a18,18,0,0,1,18,18h0a18,18,0,0,1-18,18H856a18,18,0,0,1-18-18h0A18,18,0,0,1,856,203Z"/><path class="cls-9" d="M860,217.21,857.79,215,854,218.79,850.21,215,848,217.21l3.79,3.79L848,224.79l2.21,2.21,3.79-3.79,3.79,3.79,2.21-2.21L856.21,221Z"/><path class="cls-9" d="M875.72,228.18a3.75,3.75,0,0,1-1.76-.41,3.15,3.15,0,0,1-1.66-2.85v-2.48a3.11,3.11,0,0,1,1.68-2.83,3.48,3.48,0,0,1,1.74-.43,3.75,3.75,0,0,1,2.11.61,4.16,4.16,0,0,1,1.49,1.62,4.94,4.94,0,0,1,0,4.57,4.13,4.13,0,0,1-1.49,1.61A3.9,3.9,0,0,1,875.72,228.18Zm-.32-1.87a2.37,2.37,0,0,0,1.26-.33,2.27,2.27,0,0,0,.86-.93,3,3,0,0,0,0-2.74,2.25,2.25,0,0,0-.86-.92,2.37,2.37,0,0,0-1.26-.34,2.47,2.47,0,0,0-1.28.34,2.25,2.25,0,0,0-.86.92,3.18,3.18,0,0,0,0,2.74,2.27,2.27,0,0,0,.86.93A2.46,2.46,0,0,0,875.4,226.31ZM871.1,228V215h2v6.44l-.34,2.09.34,2.11V228Zm14,.18a3.89,3.89,0,0,1-2-.49,3.47,3.47,0,0,1-1.33-1.33,4.08,4.08,0,0,1-.47-2v-5h2v4.93a2.7,2.7,0,0,0,.2,1.08,1.65,1.65,0,0,0,.61.67,2,2,0,0,0,1,.23,1.69,1.69,0,0,0,1.31-.5,2.15,2.15,0,0,0,.47-1.48v-4.93h2v5a4.06,4.06,0,0,1-.49,2,3.42,3.42,0,0,1-1.31,1.33A4,4,0,0,1,885.09,228.18Zm7.06-.18V215.76h2V228Zm-2.07-6.84v-1.8h11.34v1.8Zm7.29,6.84V215.76h2V228Zm9.21.18a4.54,4.54,0,0,1-2.29-.59,4.77,4.77,0,0,1-1.64-1.64,4.57,4.57,0,0,1-.59-2.29,4.47,4.47,0,0,1,.59-2.27,4.65,4.65,0,0,1,1.64-1.6,4.36,4.36,0,0,1,2.29-.61,4.55,4.55,0,0,1,2.3.59,4.49,4.49,0,0,1,1.62,1.62,4.29,4.29,0,0,1,.61,2.27,4.39,4.39,0,0,1-.61,2.29,4.63,4.63,0,0,1-1.62,1.64A4.55,4.55,0,0,1,906.58,228.18Zm0-1.91a2.57,2.57,0,0,0,1.29-.32,2.22,2.22,0,0,0,.88-.94,2.7,2.7,0,0,0,.33-1.35,2.62,2.62,0,0,0-.33-1.33,2.43,2.43,0,0,0-2.17-1.24,2.47,2.47,0,0,0-1.3.34,2.38,2.38,0,0,0-.88.9,2.72,2.72,0,0,0-.31,1.33,2.8,2.8,0,0,0,.31,1.35,2.42,2.42,0,0,0,.88.94A2.66,2.66,0,0,0,906.58,226.27Zm12.1,1.73v-5a1.94,1.94,0,0,0-.56-1.42,1.88,1.88,0,0,0-1.4-.56,2,2,0,0,0-1,.26,1.75,1.75,0,0,0-.7.7,2,2,0,0,0-.25,1l-.78-.43a3.41,3.41,0,0,1,.44-1.74,3.05,3.05,0,0,1,1.18-1.21,3.41,3.41,0,0,1,1.73-.45,3.08,3.08,0,0,1,1.73.5,3.57,3.57,0,0,1,1.19,1.28,3.28,3.28,0,0,1,.43,1.62V228Zm-5.92,0v-8.64h2V228Z"/><path class="cls-9" d="M934.72,212.08V212H932v.08c0,4.72,3.29,8.59,7.48,8.92-4.16.3-7.48,4.17-7.48,8.92V230h2.72v-.08c0-3.26,2.36-5.88,5.28-5.88V218C937.08,218,934.72,215.34,934.72,212.08Z"/><path class="cls-13" d="M1160,203h0a18,18,0,0,1,18,18h0a18,18,0,0,1-18,18h0a18,18,0,0,1-18-18h0A18,18,0,0,1,1160,203Z"/><path class="cls-9" d="M1168,215.94l-2.94-2.94-5.06,5.06-5.06-5.06-2.94,2.94,5.06,5.06-5.06,5.06,2.94,2.94,5.06-5.06,5.06,5.06,2.94-2.94-5.06-5.06Z"/><path class="cls-13" d="M1217.11,201h0a20.11,20.11,0,0,1,20.11,20.11h0a20.11,20.11,0,0,1-20.11,20.11h0A20.11,20.11,0,0,1,1197,221.11h0A20.11,20.11,0,0,1,1217.11,201Z"/><path class="cls-9" d="M1226.22,215.35l-3.35-3.35-5.76,5.76-5.76-5.76-3.35,3.35,5.76,5.76-5.76,5.76,3.35,3.35,5.76-5.76,5.76,5.76,3.35-3.35-5.76-5.76Z"/><path class="cls-13" d="M1281.33,196h0a25.33,25.33,0,0,1,25.32,25.33h0a25.32,25.32,0,0,1-25.32,25.32h0A25.33,25.33,0,0,1,1256,221.33h0A25.33,25.33,0,0,1,1281.33,196Z"/><path class="cls-9" d="M1292.65,214.17l-4.16-4.17-7.16,7.16-7.16-7.16-4.17,4.17,7.16,7.16-7.16,7.15,4.17,4.17,7.16-7.16,7.16,7.16,4.16-4.17-7.16-7.15Z"/><path class="cls-13" d="M1007,217.21l-2.21-2.21-3.79,3.79L997.21,215,995,217.21l3.79,3.79L995,224.79l2.21,2.21,3.79-3.79,3.79,3.79,2.21-2.21-3.79-3.79Z"/><path class="cls-13" d="M1022.72,228.18a3.75,3.75,0,0,1-1.76-.41,3.15,3.15,0,0,1-1.66-2.85v-2.48a3.11,3.11,0,0,1,1.68-2.83,3.48,3.48,0,0,1,1.74-.43,3.75,3.75,0,0,1,2.11.61,4.16,4.16,0,0,1,1.49,1.62,4.94,4.94,0,0,1,0,4.57,4.13,4.13,0,0,1-1.49,1.61A3.9,3.9,0,0,1,1022.72,228.18Zm-.32-1.87a2.37,2.37,0,0,0,1.26-.33,2.27,2.27,0,0,0,.86-.93,3,3,0,0,0,0-2.74,2.25,2.25,0,0,0-.86-.92,2.37,2.37,0,0,0-1.26-.34,2.47,2.47,0,0,0-1.28.34,2.25,2.25,0,0,0-.86.92,3.18,3.18,0,0,0,0,2.74,2.27,2.27,0,0,0,.86.93A2.46,2.46,0,0,0,1022.4,226.31Zm-4.3,1.69V215h2v6.44l-.34,2.09.34,2.11V228Zm14,.18a3.89,3.89,0,0,1-2-.49,3.54,3.54,0,0,1-1.33-1.33,4.08,4.08,0,0,1-.47-2v-5h2v4.93a2.7,2.7,0,0,0,.2,1.08,1.65,1.65,0,0,0,.61.67,2,2,0,0,0,1,.23,1.69,1.69,0,0,0,1.31-.5,2.15,2.15,0,0,0,.47-1.48v-4.93h2v5a4,4,0,0,1-.49,2,3.42,3.42,0,0,1-1.31,1.33A4,4,0,0,1,1032.09,228.18Zm7.06-.18V215.76h2V228Zm-2.07-6.84v-1.8h11.34v1.8Zm7.29,6.84V215.76h2V228Zm9.21.18a4.54,4.54,0,0,1-2.29-.59,4.77,4.77,0,0,1-1.64-1.64,4.57,4.57,0,0,1-.59-2.29,4.47,4.47,0,0,1,.59-2.27,4.65,4.65,0,0,1,1.64-1.6,4.36,4.36,0,0,1,2.29-.61,4.55,4.55,0,0,1,2.3.59,4.49,4.49,0,0,1,1.62,1.62,4.29,4.29,0,0,1,.61,2.27,4.39,4.39,0,0,1-.61,2.29,4.63,4.63,0,0,1-1.62,1.64A4.55,4.55,0,0,1,1053.58,228.18Zm0-1.91a2.57,2.57,0,0,0,1.29-.32,2.22,2.22,0,0,0,.88-.94,2.7,2.7,0,0,0,.33-1.35,2.62,2.62,0,0,0-.33-1.33,2.43,2.43,0,0,0-2.17-1.24,2.47,2.47,0,0,0-1.3.34,2.38,2.38,0,0,0-.88.9,2.72,2.72,0,0,0-.31,1.33,2.8,2.8,0,0,0,.31,1.35,2.42,2.42,0,0,0,.88.94A2.66,2.66,0,0,0,1053.58,226.27Zm12.1,1.73v-5a1.94,1.94,0,0,0-.56-1.42,1.88,1.88,0,0,0-1.4-.56,2,2,0,0,0-1,.26,1.75,1.75,0,0,0-.7.7,2,2,0,0,0-.25,1l-.78-.43a3.41,3.41,0,0,1,.44-1.74,3.05,3.05,0,0,1,1.18-1.21,3.41,3.41,0,0,1,1.73-.45,3.08,3.08,0,0,1,1.73.5,3.57,3.57,0,0,1,1.19,1.28,3.28,3.28,0,0,1,.43,1.62V228Zm-5.92,0v-8.64h2V228Z"/><path class="cls-13" d="M1081.72,212.08V212H1079v.08c0,4.72,3.29,8.59,7.48,8.92-4.16.3-7.48,4.17-7.48,8.92V230h2.72v-.08c0-3.26,2.36-5.88,5.28-5.88V218C1084.08,218,1081.72,215.34,1081.72,212.08Z"/><path class="cls-16" d="M1003,205h76a16,16,0,0,1,16,16h0a16,16,0,0,1-16,16h-76a16,16,0,0,1-16-16h0A16,16,0,0,1,1003,205Z"/><path class="cls-13" d="M718.72,228.18a3.75,3.75,0,0,1-1.76-.41,3.15,3.15,0,0,1-1.66-2.85v-2.48a3.11,3.11,0,0,1,1.68-2.83,3.48,3.48,0,0,1,1.74-.43,3.75,3.75,0,0,1,2.11.61,4.16,4.16,0,0,1,1.49,1.62,4.94,4.94,0,0,1,0,4.57,4.13,4.13,0,0,1-1.49,1.61A3.9,3.9,0,0,1,718.72,228.18Zm-.32-1.87a2.37,2.37,0,0,0,1.26-.33,2.27,2.27,0,0,0,.86-.93,3,3,0,0,0,0-2.74,2.25,2.25,0,0,0-.86-.92,2.37,2.37,0,0,0-1.26-.34,2.47,2.47,0,0,0-1.28.34,2.25,2.25,0,0,0-.86.92,3.18,3.18,0,0,0,0,2.74,2.27,2.27,0,0,0,.86.93A2.46,2.46,0,0,0,718.4,226.31ZM714.1,228V215h2v6.44l-.34,2.09.34,2.11V228Zm14,.18a3.89,3.89,0,0,1-2-.49,3.47,3.47,0,0,1-1.33-1.33,4.08,4.08,0,0,1-.47-2v-5h2v4.93a2.7,2.7,0,0,0,.2,1.08,1.65,1.65,0,0,0,.61.67,2,2,0,0,0,1,.23,1.69,1.69,0,0,0,1.31-.5,2.15,2.15,0,0,0,.47-1.48v-4.93h2v5a4.06,4.06,0,0,1-.49,2,3.42,3.42,0,0,1-1.31,1.33A4,4,0,0,1,728.09,228.18Zm7.06-.18V215.76h2V228Zm-2.07-6.84v-1.8h11.34v1.8Zm7.29,6.84V215.76h2V228Zm9.21.18a4.54,4.54,0,0,1-2.29-.59,4.77,4.77,0,0,1-1.64-1.64,4.57,4.57,0,0,1-.59-2.29,4.47,4.47,0,0,1,.59-2.27,4.65,4.65,0,0,1,1.64-1.6,4.36,4.36,0,0,1,2.29-.61,4.55,4.55,0,0,1,2.3.59,4.49,4.49,0,0,1,1.62,1.62,4.29,4.29,0,0,1,.61,2.27,4.39,4.39,0,0,1-.61,2.29,4.63,4.63,0,0,1-1.62,1.64A4.55,4.55,0,0,1,749.58,228.18Zm0-1.91a2.57,2.57,0,0,0,1.29-.32,2.22,2.22,0,0,0,.88-.94,2.7,2.7,0,0,0,.33-1.35,2.62,2.62,0,0,0-.33-1.33,2.43,2.43,0,0,0-2.17-1.24,2.47,2.47,0,0,0-1.3.34,2.38,2.38,0,0,0-.88.9,2.72,2.72,0,0,0-.31,1.33,2.8,2.8,0,0,0,.31,1.35,2.42,2.42,0,0,0,.88.94A2.66,2.66,0,0,0,749.58,226.27Zm12.1,1.73v-5a1.94,1.94,0,0,0-.56-1.42,1.88,1.88,0,0,0-1.4-.56,2,2,0,0,0-1,.26,1.75,1.75,0,0,0-.7.7,2,2,0,0,0-.25,1l-.78-.43a3.41,3.41,0,0,1,.44-1.74,3.05,3.05,0,0,1,1.18-1.21,3.41,3.41,0,0,1,1.73-.45,3.08,3.08,0,0,1,1.73.5,3.57,3.57,0,0,1,1.19,1.28,3.28,3.28,0,0,1,.43,1.62V228Zm-5.92,0v-8.64h2V228Z"/><path class="cls-13" d="M783.72,212.08V212H781v.08c0,4.72,3.29,8.59,7.48,8.92-4.16.3-7.48,4.17-7.48,8.92V230h2.72v-.08c0-3.26,2.36-5.88,5.28-5.88V218C786.08,218,783.72,215.34,783.72,212.08Z"/><path class="cls-16" d="M713,205h76a16,16,0,0,1,16,16h0a16,16,0,0,1-16,16H713a16,16,0,0,1-16-16h0A16,16,0,0,1,713,205Z"/><path class="cls-17" d="M2,322a18,18,0,0,1,18-18H96a18,18,0,0,1,0,36H20A18,18,0,0,1,2,322Z"/><path class="cls-3" d="M36.87,329V316.4h2.07V329Zm1.42,0v-1.89h6.59V329Zm11.52.18a4,4,0,0,1-2.12-.59A4.36,4.36,0,0,1,46.2,327a5.1,5.1,0,0,1,0-4.57,4.39,4.39,0,0,1,1.49-1.62,3.83,3.83,0,0,1,2.12-.61,3.44,3.44,0,0,1,1.75.43,3.14,3.14,0,0,1,1.22,1.15,3.18,3.18,0,0,1,.45,1.68v2.48a3.18,3.18,0,0,1-.45,1.68,3.14,3.14,0,0,1-1.2,1.17A3.79,3.79,0,0,1,49.81,329.18Zm.33-1.87a2.26,2.26,0,0,0,1.76-.74,2.65,2.65,0,0,0,.69-1.89,3,3,0,0,0-.31-1.37,2.25,2.25,0,0,0-.86-.92,2.42,2.42,0,0,0-1.28-.34,2.47,2.47,0,0,0-1.28.34,2.38,2.38,0,0,0-.86.92,3.18,3.18,0,0,0,0,2.74,2.41,2.41,0,0,0,.86.93A2.46,2.46,0,0,0,50.14,327.31ZM52.46,329v-2.32l.34-2.11-.34-2.09v-2.12h2V329Zm8.8.18a3.75,3.75,0,0,1-1.76-.41,3.15,3.15,0,0,1-1.66-2.85v-2.48a3.11,3.11,0,0,1,1.68-2.83,3.48,3.48,0,0,1,1.74-.43,3.75,3.75,0,0,1,2.11.61,4.16,4.16,0,0,1,1.49,1.62,4.94,4.94,0,0,1,0,4.57,4.13,4.13,0,0,1-1.49,1.61A3.9,3.9,0,0,1,61.26,329.18Zm-.32-1.87A2.37,2.37,0,0,0,62.2,327a2.27,2.27,0,0,0,.86-.93,3,3,0,0,0,0-2.74,2.25,2.25,0,0,0-.86-.92,2.37,2.37,0,0,0-1.26-.34,2.47,2.47,0,0,0-1.28.34,2.25,2.25,0,0,0-.86.92,3.18,3.18,0,0,0,0,2.74,2.27,2.27,0,0,0,.86.93A2.46,2.46,0,0,0,60.94,327.31ZM56.64,329V316h2v6.44l-.34,2.09.34,2.11V329Zm14.45.18a4.72,4.72,0,0,1-2.34-.58A4.47,4.47,0,0,1,67.11,327a4.76,4.76,0,0,1,0-4.59A4.38,4.38,0,0,1,71,320.18a4,4,0,0,1,2.13.56,3.91,3.91,0,0,1,1.46,1.53,4.47,4.47,0,0,1,.54,2.21,3.42,3.42,0,0,1,0,.45c0,.15,0,.31-.07.49H67.91V323.8H74l-.74.65a3.27,3.27,0,0,0-.3-1.34,1.88,1.88,0,0,0-.78-.82A2.22,2.22,0,0,0,71,322a2.66,2.66,0,0,0-1.32.32,2.19,2.19,0,0,0-.86.92,3.25,3.25,0,0,0,0,2.81,2.28,2.28,0,0,0,.92.95,2.74,2.74,0,0,0,1.36.33,3.07,3.07,0,0,0,1.23-.24,2.48,2.48,0,0,0,1-.68l1.26,1.28A4,4,0,0,1,73,328.8,4.93,4.93,0,0,1,71.09,329.18Zm5.6-.18V316h2v13Z"/><path class="cls-17" d="M170.87,329V316.4h2.07V329Zm1.42,0v-1.89h6.59V329Zm11.52.18a4,4,0,0,1-2.12-.59A4.36,4.36,0,0,1,180.2,327a5.1,5.1,0,0,1,0-4.57,4.39,4.39,0,0,1,1.49-1.62,3.83,3.83,0,0,1,2.12-.61,3.44,3.44,0,0,1,1.75.43,3.14,3.14,0,0,1,1.22,1.15,3.18,3.18,0,0,1,.45,1.68v2.48a3.18,3.18,0,0,1-.45,1.68,3.14,3.14,0,0,1-1.2,1.17A3.79,3.79,0,0,1,183.81,329.18Zm.33-1.87a2.26,2.26,0,0,0,1.76-.74,2.65,2.65,0,0,0,.69-1.89,3,3,0,0,0-.31-1.37,2.25,2.25,0,0,0-.86-.92,2.42,2.42,0,0,0-1.28-.34,2.47,2.47,0,0,0-1.28.34,2.38,2.38,0,0,0-.86.92,3.18,3.18,0,0,0,0,2.74,2.41,2.41,0,0,0,.86.93A2.46,2.46,0,0,0,184.14,327.31Zm2.32,1.69v-2.32l.34-2.11-.34-2.09v-2.12h2V329Zm8.8.18a3.72,3.72,0,0,1-1.76-.41,3.29,3.29,0,0,1-1.23-1.17,3.36,3.36,0,0,1-.43-1.68v-2.48a3.11,3.11,0,0,1,1.68-2.83,3.48,3.48,0,0,1,1.74-.43,3.77,3.77,0,0,1,2.11.61,4.16,4.16,0,0,1,1.49,1.62,4.94,4.94,0,0,1,0,4.57,4.13,4.13,0,0,1-1.49,1.61A3.92,3.92,0,0,1,195.26,329.18Zm-.32-1.87a2.37,2.37,0,0,0,1.26-.33,2.27,2.27,0,0,0,.86-.93,3,3,0,0,0,0-2.74,2.25,2.25,0,0,0-.86-.92,2.37,2.37,0,0,0-1.26-.34,2.47,2.47,0,0,0-1.28.34,2.25,2.25,0,0,0-.86.92,3.18,3.18,0,0,0,0,2.74,2.27,2.27,0,0,0,.86.93A2.46,2.46,0,0,0,194.94,327.31Zm-4.3,1.69V316h2v6.44l-.35,2.09.35,2.11V329Zm14.45.18a4.72,4.72,0,0,1-2.34-.58,4.47,4.47,0,0,1-1.64-1.62,4.76,4.76,0,0,1,0-4.59,4.38,4.38,0,0,1,3.87-2.21,4,4,0,0,1,2.13.56,3.91,3.91,0,0,1,1.46,1.53,4.47,4.47,0,0,1,.54,2.21,3.42,3.42,0,0,1,0,.45c0,.15,0,.31-.07.49h-7.09V323.8H208l-.74.65a3.27,3.27,0,0,0-.3-1.34,1.88,1.88,0,0,0-.78-.82A2.22,2.22,0,0,0,205,322a2.66,2.66,0,0,0-1.32.32,2.19,2.19,0,0,0-.86.92,3.25,3.25,0,0,0,0,2.81,2.28,2.28,0,0,0,.92.95,2.74,2.74,0,0,0,1.36.33,3.07,3.07,0,0,0,1.23-.24,2.48,2.48,0,0,0,1-.68l1.26,1.28A4,4,0,0,1,207,328.8,4.93,4.93,0,0,1,205.09,329.18Zm5.6-.18V316h2v13Z"/><path class="cls-17" d="M154,308h76v-8H154Zm76,28H154v8h76Zm-76,0a14,14,0,0,1-14-14h-8a22,22,0,0,0,22,22Zm90-14a14,14,0,0,1-14,14v8a22,22,0,0,0,22-22Zm-14-14a14,14,0,0,1,14,14h8a22,22,0,0,0-22-22Zm-76-8a22,22,0,0,0-22,22h8a14,14,0,0,1,14-14Z"/><path class="cls-17" d="M293,303h76a18,18,0,0,1,18,18h0a18,18,0,0,1-18,18H293a18,18,0,0,1-18-18h0A18,18,0,0,1,293,303Z"/><path class="cls-3" d="M295.87,328V315.4h2.07V328Zm1.42,0v-1.89h6.59V328Zm11.52.18a4,4,0,0,1-2.12-.59A4.36,4.36,0,0,1,305.2,326a5.1,5.1,0,0,1,0-4.57,4.39,4.39,0,0,1,1.49-1.62,3.83,3.83,0,0,1,2.12-.61,3.44,3.44,0,0,1,1.75.43,3.14,3.14,0,0,1,1.22,1.15,3.18,3.18,0,0,1,.45,1.68v2.48a3.18,3.18,0,0,1-.45,1.68,3.14,3.14,0,0,1-1.2,1.17A3.79,3.79,0,0,1,308.81,328.18Zm.33-1.87a2.26,2.26,0,0,0,1.76-.74,2.65,2.65,0,0,0,.69-1.89,3,3,0,0,0-.31-1.37,2.25,2.25,0,0,0-.86-.92,2.42,2.42,0,0,0-1.28-.34,2.47,2.47,0,0,0-1.28.34,2.38,2.38,0,0,0-.86.92,3.18,3.18,0,0,0,0,2.74,2.41,2.41,0,0,0,.86.93A2.46,2.46,0,0,0,309.14,326.31Zm2.32,1.69v-2.32l.34-2.11-.34-2.09v-2.12h2V328Zm8.8.18a3.75,3.75,0,0,1-1.76-.41,3.11,3.11,0,0,1-1.66-2.85v-2.48a3.11,3.11,0,0,1,1.68-2.83,3.45,3.45,0,0,1,1.74-.43,3.77,3.77,0,0,1,2.11.61,4.16,4.16,0,0,1,1.49,1.62,4.94,4.94,0,0,1,0,4.57,4.13,4.13,0,0,1-1.49,1.61A3.92,3.92,0,0,1,320.26,328.18Zm-.32-1.87a2.37,2.37,0,0,0,1.26-.33,2.27,2.27,0,0,0,.86-.93,3,3,0,0,0,0-2.74,2.25,2.25,0,0,0-.86-.92,2.37,2.37,0,0,0-1.26-.34,2.47,2.47,0,0,0-1.28.34,2.25,2.25,0,0,0-.86.92,3.18,3.18,0,0,0,0,2.74,2.27,2.27,0,0,0,.86.93A2.46,2.46,0,0,0,319.94,326.31Zm-4.3,1.69V315h2v6.44l-.35,2.09.35,2.11V328Zm14.45.18a4.72,4.72,0,0,1-2.34-.58,4.47,4.47,0,0,1-1.64-1.62,4.76,4.76,0,0,1,0-4.59,4.38,4.38,0,0,1,3.87-2.21,4,4,0,0,1,2.13.56,3.91,3.91,0,0,1,1.46,1.53,4.47,4.47,0,0,1,.54,2.21,3.42,3.42,0,0,1,0,.45c0,.15,0,.31-.07.49h-7.09V322.8H333l-.74.65a3.27,3.27,0,0,0-.3-1.34,1.88,1.88,0,0,0-.78-.82A2.22,2.22,0,0,0,330,321a2.66,2.66,0,0,0-1.32.32,2.19,2.19,0,0,0-.86.92,3.25,3.25,0,0,0,0,2.81,2.28,2.28,0,0,0,.92.95,2.74,2.74,0,0,0,1.36.33,3.07,3.07,0,0,0,1.23-.24,2.48,2.48,0,0,0,1-.68l1.26,1.28A4,4,0,0,1,332,327.8,4.93,4.93,0,0,1,330.09,328.18Zm5.6-.18V315h2v13Z"/><g class="cls-18"><path class="cls-3" d="M367.5,317.21,365.29,315l-3.79,3.79L357.71,315l-2.21,2.21,3.79,3.79-3.79,3.79,2.21,2.21,3.79-3.79,3.79,3.79,2.21-2.21L363.71,321Z"/></g><path class="cls-17" d="M437.87,328V315.4h2.07V328Zm1.42,0v-1.89h6.59V328Zm11.52.18a4,4,0,0,1-2.12-.59A4.36,4.36,0,0,1,447.2,326a5.1,5.1,0,0,1,0-4.57,4.39,4.39,0,0,1,1.49-1.62,3.83,3.83,0,0,1,2.12-.61,3.44,3.44,0,0,1,1.75.43,3.14,3.14,0,0,1,1.22,1.15,3.18,3.18,0,0,1,.45,1.68v2.48a3.18,3.18,0,0,1-.45,1.68,3.14,3.14,0,0,1-1.2,1.17A3.79,3.79,0,0,1,450.81,328.18Zm.33-1.87a2.26,2.26,0,0,0,1.76-.74,2.65,2.65,0,0,0,.69-1.89,3,3,0,0,0-.31-1.37,2.25,2.25,0,0,0-.86-.92,2.42,2.42,0,0,0-1.28-.34,2.47,2.47,0,0,0-1.28.34,2.38,2.38,0,0,0-.86.92,3.18,3.18,0,0,0,0,2.74,2.41,2.41,0,0,0,.86.93A2.46,2.46,0,0,0,451.14,326.31Zm2.32,1.69v-2.32l.34-2.11-.34-2.09v-2.12h2V328Zm8.8.18a3.75,3.75,0,0,1-1.76-.41,3.11,3.11,0,0,1-1.66-2.85v-2.48a3.11,3.11,0,0,1,1.68-2.83,3.45,3.45,0,0,1,1.74-.43,3.77,3.77,0,0,1,2.11.61,4.16,4.16,0,0,1,1.49,1.62,4.94,4.94,0,0,1,0,4.57,4.13,4.13,0,0,1-1.49,1.61A3.92,3.92,0,0,1,462.26,328.18Zm-.32-1.87a2.37,2.37,0,0,0,1.26-.33,2.27,2.27,0,0,0,.86-.93,3,3,0,0,0,0-2.74,2.25,2.25,0,0,0-.86-.92,2.37,2.37,0,0,0-1.26-.34,2.47,2.47,0,0,0-1.28.34,2.25,2.25,0,0,0-.86.92,3.18,3.18,0,0,0,0,2.74,2.27,2.27,0,0,0,.86.93A2.46,2.46,0,0,0,461.94,326.31Zm-4.3,1.69V315h2v6.44l-.35,2.09.35,2.11V328Zm14.45.18a4.72,4.72,0,0,1-2.34-.58,4.47,4.47,0,0,1-1.64-1.62,4.76,4.76,0,0,1,0-4.59,4.38,4.38,0,0,1,3.87-2.21,4,4,0,0,1,2.13.56,3.91,3.91,0,0,1,1.46,1.53,4.47,4.47,0,0,1,.54,2.21,3.42,3.42,0,0,1,0,.45c0,.15,0,.31-.07.49h-7.09V322.8H475l-.74.65a3.27,3.27,0,0,0-.3-1.34,1.88,1.88,0,0,0-.78-.82A2.22,2.22,0,0,0,472,321a2.66,2.66,0,0,0-1.32.32,2.19,2.19,0,0,0-.86.92,3.25,3.25,0,0,0,0,2.81,2.28,2.28,0,0,0,.92.95,2.74,2.74,0,0,0,1.36.33,3.07,3.07,0,0,0,1.23-.24,2.48,2.48,0,0,0,1-.68l1.26,1.28A4,4,0,0,1,474,327.8,4.93,4.93,0,0,1,472.09,328.18Zm5.6-.18V315h2v13Z"/><g class="cls-19"><path class="cls-17" d="M509.5,317.21,507.29,315l-3.79,3.79L499.71,315l-2.21,2.21,3.79,3.79-3.79,3.79,2.21,2.21,3.79-3.79,3.79,3.79,2.21-2.21L505.71,321Z"/></g><path class="cls-20" d="M435,305h76a16,16,0,0,1,16,16h0a16,16,0,0,1-16,16H435a16,16,0,0,1-16-16h0A16,16,0,0,1,435,305Z"/><path class="cls-17" d="M580,301h76a18,18,0,0,1,18,18h0a18,18,0,0,1-18,18H580a18,18,0,0,1-18-18h0A18,18,0,0,1,580,301Z"/><path class="cls-3" d="M585.72,326.18a3.75,3.75,0,0,1-1.76-.41,3.15,3.15,0,0,1-1.66-2.85v-2.48a3.11,3.11,0,0,1,1.68-2.83,3.48,3.48,0,0,1,1.74-.43,3.75,3.75,0,0,1,2.11.61,4.16,4.16,0,0,1,1.49,1.62,4.94,4.94,0,0,1,0,4.57,4.13,4.13,0,0,1-1.49,1.61A3.9,3.9,0,0,1,585.72,326.18Zm-.32-1.87a2.37,2.37,0,0,0,1.26-.33,2.27,2.27,0,0,0,.86-.93,3,3,0,0,0,0-2.74,2.25,2.25,0,0,0-.86-.92,2.37,2.37,0,0,0-1.26-.34,2.47,2.47,0,0,0-1.28.34,2.25,2.25,0,0,0-.86.92,3.18,3.18,0,0,0,0,2.74,2.27,2.27,0,0,0,.86.93A2.46,2.46,0,0,0,585.4,324.31ZM581.1,326V313h2v6.44l-.34,2.09.34,2.11V326Zm14,.18a3.89,3.89,0,0,1-2-.49,3.47,3.47,0,0,1-1.33-1.33,4.08,4.08,0,0,1-.47-2v-5h2v4.93a2.7,2.7,0,0,0,.2,1.08,1.65,1.65,0,0,0,.61.67,2,2,0,0,0,1,.23,1.69,1.69,0,0,0,1.31-.5,2.15,2.15,0,0,0,.47-1.48v-4.93h2v5a4.06,4.06,0,0,1-.49,2,3.42,3.42,0,0,1-1.31,1.33A4,4,0,0,1,595.09,326.18Zm7.06-.18V313.76h2V326Zm-2.07-6.84v-1.8h11.34v1.8Zm7.29,6.84V313.76h2V326Zm9.21.18a4.54,4.54,0,0,1-2.29-.59,4.77,4.77,0,0,1-1.64-1.64,4.57,4.57,0,0,1-.59-2.29,4.47,4.47,0,0,1,.59-2.27,4.65,4.65,0,0,1,1.64-1.6,4.36,4.36,0,0,1,2.29-.61,4.55,4.55,0,0,1,2.3.59,4.49,4.49,0,0,1,1.62,1.62,4.29,4.29,0,0,1,.61,2.27,4.39,4.39,0,0,1-.61,2.29,4.63,4.63,0,0,1-1.62,1.64A4.55,4.55,0,0,1,616.58,326.18Zm0-1.91a2.57,2.57,0,0,0,1.29-.32,2.22,2.22,0,0,0,.88-.94,2.7,2.7,0,0,0,.33-1.35,2.62,2.62,0,0,0-.33-1.33,2.43,2.43,0,0,0-2.17-1.24,2.47,2.47,0,0,0-1.3.34,2.38,2.38,0,0,0-.88.9,2.72,2.72,0,0,0-.31,1.33,2.8,2.8,0,0,0,.31,1.35,2.42,2.42,0,0,0,.88.94A2.66,2.66,0,0,0,616.58,324.27Zm12.1,1.73v-5a1.94,1.94,0,0,0-.56-1.42,1.88,1.88,0,0,0-1.4-.56,2,2,0,0,0-1,.26,1.75,1.75,0,0,0-.7.7,2,2,0,0,0-.25,1l-.78-.43a3.41,3.41,0,0,1,.44-1.74,3.05,3.05,0,0,1,1.18-1.21,3.41,3.41,0,0,1,1.73-.45,3.08,3.08,0,0,1,1.73.5,3.57,3.57,0,0,1,1.19,1.28,3.28,3.28,0,0,1,.43,1.62V326Zm-5.92,0v-8.64h2V326Z"/><path class="cls-3" d="M650.72,310.08V310H648v.08c0,4.72,3.29,8.59,7.48,8.92-4.16.3-7.48,4.17-7.48,8.92V328h2.72v-.08c0-3.26,2.36-5.88,5.28-5.88V316C653.08,316,650.72,313.34,650.72,310.08Z"/><path class="cls-17" d="M857,301h76a18,18,0,0,1,18,18h0a18,18,0,0,1-18,18H857a18,18,0,0,1-18-18h0A18,18,0,0,1,857,301Z"/><path class="cls-3" d="M861,315.21,858.79,313,855,316.79,851.21,313,849,315.21l3.79,3.79L849,322.79l2.21,2.21,3.79-3.79,3.79,3.79,2.21-2.21L857.21,319Z"/><path class="cls-3" d="M876.72,326.18a3.75,3.75,0,0,1-1.76-.41,3.15,3.15,0,0,1-1.66-2.85v-2.48a3.11,3.11,0,0,1,1.68-2.83,3.48,3.48,0,0,1,1.74-.43,3.75,3.75,0,0,1,2.11.61,4.16,4.16,0,0,1,1.49,1.62,4.94,4.94,0,0,1,0,4.57,4.13,4.13,0,0,1-1.49,1.61A3.9,3.9,0,0,1,876.72,326.18Zm-.32-1.87a2.37,2.37,0,0,0,1.26-.33,2.27,2.27,0,0,0,.86-.93,3,3,0,0,0,0-2.74,2.25,2.25,0,0,0-.86-.92,2.37,2.37,0,0,0-1.26-.34,2.47,2.47,0,0,0-1.28.34,2.25,2.25,0,0,0-.86.92,3.18,3.18,0,0,0,0,2.74,2.27,2.27,0,0,0,.86.93A2.46,2.46,0,0,0,876.4,324.31ZM872.1,326V313h2v6.44l-.34,2.09.34,2.11V326Zm14,.18a3.89,3.89,0,0,1-2-.49,3.47,3.47,0,0,1-1.33-1.33,4.08,4.08,0,0,1-.47-2v-5h2v4.93a2.7,2.7,0,0,0,.2,1.08,1.65,1.65,0,0,0,.61.67,2,2,0,0,0,1,.23,1.69,1.69,0,0,0,1.31-.5,2.15,2.15,0,0,0,.47-1.48v-4.93h2v5a4.06,4.06,0,0,1-.49,2,3.42,3.42,0,0,1-1.31,1.33A4,4,0,0,1,886.09,326.18Zm7.06-.18V313.76h2V326Zm-2.07-6.84v-1.8h11.34v1.8Zm7.29,6.84V313.76h2V326Zm9.21.18a4.54,4.54,0,0,1-2.29-.59,4.77,4.77,0,0,1-1.64-1.64,4.57,4.57,0,0,1-.59-2.29,4.47,4.47,0,0,1,.59-2.27,4.65,4.65,0,0,1,1.64-1.6,4.36,4.36,0,0,1,2.29-.61,4.55,4.55,0,0,1,2.3.59,4.49,4.49,0,0,1,1.62,1.62,4.29,4.29,0,0,1,.61,2.27,4.39,4.39,0,0,1-.61,2.29,4.63,4.63,0,0,1-1.62,1.64A4.55,4.55,0,0,1,907.58,326.18Zm0-1.91a2.57,2.57,0,0,0,1.29-.32,2.22,2.22,0,0,0,.88-.94,2.7,2.7,0,0,0,.33-1.35,2.62,2.62,0,0,0-.33-1.33,2.43,2.43,0,0,0-2.17-1.24,2.47,2.47,0,0,0-1.3.34,2.38,2.38,0,0,0-.88.9,2.72,2.72,0,0,0-.31,1.33,2.8,2.8,0,0,0,.31,1.35,2.42,2.42,0,0,0,.88.94A2.66,2.66,0,0,0,907.58,324.27Zm12.1,1.73v-5a1.94,1.94,0,0,0-.56-1.42,1.88,1.88,0,0,0-1.4-.56,2,2,0,0,0-1,.26,1.75,1.75,0,0,0-.7.7,2,2,0,0,0-.25,1l-.78-.43a3.41,3.41,0,0,1,.44-1.74,3.05,3.05,0,0,1,1.18-1.21,3.41,3.41,0,0,1,1.73-.45,3.08,3.08,0,0,1,1.73.5,3.57,3.57,0,0,1,1.19,1.28,3.28,3.28,0,0,1,.43,1.62V326Zm-5.92,0v-8.64h2V326Z"/><path class="cls-3" d="M935.72,310.08V310H933v.08c0,4.72,3.29,8.59,7.48,8.92-4.16.3-7.48,4.17-7.48,8.92V328h2.72v-.08c0-3.26,2.36-5.88,5.28-5.88V316C938.08,316,935.72,313.34,935.72,310.08Z"/><path class="cls-17" d="M1161,301h0a18,18,0,0,1,18,18h0a18,18,0,0,1-18,18h0a18,18,0,0,1-18-18h0A18,18,0,0,1,1161,301Z"/><path class="cls-3" d="M1169,313.94l-2.94-2.94-5.06,5.06-5.06-5.06-2.94,2.94,5.06,5.06-5.06,5.06,2.94,2.94,5.06-5.06,5.06,5.06,2.94-2.94-5.06-5.06Z"/><path class="cls-17" d="M1218.11,299h0a20.11,20.11,0,0,1,20.11,20.11h0a20.11,20.11,0,0,1-20.11,20.11h0A20.11,20.11,0,0,1,1198,319.11h0A20.11,20.11,0,0,1,1218.11,299Z"/><path class="cls-3" d="M1227.22,313.35l-3.35-3.35-5.76,5.76-5.76-5.76-3.35,3.35,5.76,5.76-5.76,5.76,3.35,3.35,5.76-5.76,5.76,5.76,3.35-3.35-5.76-5.76Z"/><path class="cls-17" d="M1282.33,294h0a25.33,25.33,0,0,1,25.32,25.33h0a25.32,25.32,0,0,1-25.32,25.32h0A25.33,25.33,0,0,1,1257,319.33h0A25.33,25.33,0,0,1,1282.33,294Z"/><path class="cls-3" d="M1293.65,312.17l-4.16-4.17-7.16,7.16-7.16-7.16-4.17,4.17,7.16,7.16-7.16,7.15,4.17,4.17,7.16-7.16,7.16,7.16,4.16-4.17-7.16-7.15Z"/><path class="cls-17" d="M1008,315.21l-2.21-2.21-3.79,3.79L998.21,313,996,315.21l3.79,3.79L996,322.79l2.21,2.21,3.79-3.79,3.79,3.79,2.21-2.21-3.79-3.79Z"/><path class="cls-17" d="M1023.72,326.18a3.75,3.75,0,0,1-1.76-.41,3.15,3.15,0,0,1-1.66-2.85v-2.48a3.11,3.11,0,0,1,1.68-2.83,3.48,3.48,0,0,1,1.74-.43,3.75,3.75,0,0,1,2.11.61,4.16,4.16,0,0,1,1.49,1.62,4.94,4.94,0,0,1,0,4.57,4.13,4.13,0,0,1-1.49,1.61A3.9,3.9,0,0,1,1023.72,326.18Zm-.32-1.87a2.37,2.37,0,0,0,1.26-.33,2.27,2.27,0,0,0,.86-.93,3,3,0,0,0,0-2.74,2.25,2.25,0,0,0-.86-.92,2.37,2.37,0,0,0-1.26-.34,2.47,2.47,0,0,0-1.28.34,2.25,2.25,0,0,0-.86.92,3.18,3.18,0,0,0,0,2.74,2.27,2.27,0,0,0,.86.93A2.46,2.46,0,0,0,1023.4,324.31Zm-4.3,1.69V313h2v6.44l-.34,2.09.34,2.11V326Zm14,.18a3.89,3.89,0,0,1-2-.49,3.54,3.54,0,0,1-1.33-1.33,4.08,4.08,0,0,1-.47-2v-5h2v4.93a2.7,2.7,0,0,0,.2,1.08,1.65,1.65,0,0,0,.61.67,2,2,0,0,0,1,.23,1.69,1.69,0,0,0,1.31-.5,2.15,2.15,0,0,0,.47-1.48v-4.93h2v5a4,4,0,0,1-.49,2,3.42,3.42,0,0,1-1.31,1.33A4,4,0,0,1,1033.09,326.18Zm7.06-.18V313.76h2V326Zm-2.07-6.84v-1.8h11.34v1.8Zm7.29,6.84V313.76h2V326Zm9.21.18a4.54,4.54,0,0,1-2.29-.59,4.77,4.77,0,0,1-1.64-1.64,4.57,4.57,0,0,1-.59-2.29,4.47,4.47,0,0,1,.59-2.27,4.65,4.65,0,0,1,1.64-1.6,4.36,4.36,0,0,1,2.29-.61,4.55,4.55,0,0,1,2.3.59,4.49,4.49,0,0,1,1.62,1.62,4.29,4.29,0,0,1,.61,2.27,4.39,4.39,0,0,1-.61,2.29,4.63,4.63,0,0,1-1.62,1.64A4.55,4.55,0,0,1,1054.58,326.18Zm0-1.91a2.57,2.57,0,0,0,1.29-.32,2.22,2.22,0,0,0,.88-.94,2.7,2.7,0,0,0,.33-1.35,2.62,2.62,0,0,0-.33-1.33,2.43,2.43,0,0,0-2.17-1.24,2.47,2.47,0,0,0-1.3.34,2.38,2.38,0,0,0-.88.9,2.72,2.72,0,0,0-.31,1.33,2.8,2.8,0,0,0,.31,1.35,2.42,2.42,0,0,0,.88.94A2.66,2.66,0,0,0,1054.58,324.27Zm12.1,1.73v-5a1.94,1.94,0,0,0-.56-1.42,1.88,1.88,0,0,0-1.4-.56,2,2,0,0,0-1,.26,1.75,1.75,0,0,0-.7.7,2,2,0,0,0-.25,1l-.78-.43a3.41,3.41,0,0,1,.44-1.74,3.05,3.05,0,0,1,1.18-1.21,3.41,3.41,0,0,1,1.73-.45,3.08,3.08,0,0,1,1.73.5,3.57,3.57,0,0,1,1.19,1.28,3.28,3.28,0,0,1,.43,1.62V326Zm-5.92,0v-8.64h2V326Z"/><path class="cls-17" d="M1082.72,310.08V310H1080v.08c0,4.72,3.29,8.59,7.48,8.92-4.16.3-7.48,4.17-7.48,8.92V328h2.72v-.08c0-3.26,2.36-5.88,5.28-5.88V316C1085.08,316,1082.72,313.34,1082.72,310.08Z"/><path class="cls-20" d="M1004,303h76a16,16,0,0,1,16,16h0a16,16,0,0,1-16,16h-76a16,16,0,0,1-16-16h0A16,16,0,0,1,1004,303Z"/><path class="cls-17" d="M719.72,326.18a3.75,3.75,0,0,1-1.76-.41,3.15,3.15,0,0,1-1.66-2.85v-2.48a3.11,3.11,0,0,1,1.68-2.83,3.48,3.48,0,0,1,1.74-.43,3.75,3.75,0,0,1,2.11.61,4.16,4.16,0,0,1,1.49,1.62,4.94,4.94,0,0,1,0,4.57,4.13,4.13,0,0,1-1.49,1.61A3.9,3.9,0,0,1,719.72,326.18Zm-.32-1.87a2.37,2.37,0,0,0,1.26-.33,2.27,2.27,0,0,0,.86-.93,3,3,0,0,0,0-2.74,2.25,2.25,0,0,0-.86-.92,2.37,2.37,0,0,0-1.26-.34,2.47,2.47,0,0,0-1.28.34,2.25,2.25,0,0,0-.86.92,3.18,3.18,0,0,0,0,2.74,2.27,2.27,0,0,0,.86.93A2.46,2.46,0,0,0,719.4,324.31ZM715.1,326V313h2v6.44l-.34,2.09.34,2.11V326Zm14,.18a3.89,3.89,0,0,1-2-.49,3.47,3.47,0,0,1-1.33-1.33,4.08,4.08,0,0,1-.47-2v-5h2v4.93a2.7,2.7,0,0,0,.2,1.08,1.65,1.65,0,0,0,.61.67,2,2,0,0,0,1,.23,1.69,1.69,0,0,0,1.31-.5,2.15,2.15,0,0,0,.47-1.48v-4.93h2v5a4.06,4.06,0,0,1-.49,2,3.42,3.42,0,0,1-1.31,1.33A4,4,0,0,1,729.09,326.18Zm7.06-.18V313.76h2V326Zm-2.07-6.84v-1.8h11.34v1.8Zm7.29,6.84V313.76h2V326Zm9.21.18a4.54,4.54,0,0,1-2.29-.59,4.77,4.77,0,0,1-1.64-1.64,4.57,4.57,0,0,1-.59-2.29,4.47,4.47,0,0,1,.59-2.27,4.65,4.65,0,0,1,1.64-1.6,4.36,4.36,0,0,1,2.29-.61,4.55,4.55,0,0,1,2.3.59,4.49,4.49,0,0,1,1.62,1.62,4.29,4.29,0,0,1,.61,2.27,4.39,4.39,0,0,1-.61,2.29,4.63,4.63,0,0,1-1.62,1.64A4.55,4.55,0,0,1,750.58,326.18Zm0-1.91a2.57,2.57,0,0,0,1.29-.32,2.22,2.22,0,0,0,.88-.94,2.7,2.7,0,0,0,.33-1.35,2.62,2.62,0,0,0-.33-1.33,2.43,2.43,0,0,0-2.17-1.24,2.47,2.47,0,0,0-1.3.34,2.38,2.38,0,0,0-.88.9,2.72,2.72,0,0,0-.31,1.33,2.8,2.8,0,0,0,.31,1.35,2.42,2.42,0,0,0,.88.94A2.66,2.66,0,0,0,750.58,324.27Zm12.1,1.73v-5a1.94,1.94,0,0,0-.56-1.42,1.88,1.88,0,0,0-1.4-.56,2,2,0,0,0-1,.26,1.75,1.75,0,0,0-.7.7,2,2,0,0,0-.25,1l-.78-.43a3.41,3.41,0,0,1,.44-1.74,3.05,3.05,0,0,1,1.18-1.21,3.41,3.41,0,0,1,1.73-.45,3.08,3.08,0,0,1,1.73.5,3.57,3.57,0,0,1,1.19,1.28,3.28,3.28,0,0,1,.43,1.62V326Zm-5.92,0v-8.64h2V326Z"/><path class="cls-17" d="M784.72,310.08V310H782v.08c0,4.72,3.29,8.59,7.48,8.92-4.16.3-7.48,4.17-7.48,8.92V328h2.72v-.08c0-3.26,2.36-5.88,5.28-5.88V316C787.08,316,784.72,313.34,784.72,310.08Z"/><path class="cls-20" d="M714,303h76a16,16,0,0,1,16,16h0a16,16,0,0,1-16,16H714a16,16,0,0,1-16-16h0A16,16,0,0,1,714,303Z"/><path class="cls-21" d="M3,420a18,18,0,0,1,18-18H97a18,18,0,0,1,0,36H21A18,18,0,0,1,3,420Z"/><path class="cls-3" d="M37.87,427V414.4h2.07V427Zm1.42,0v-1.89h6.59V427Zm11.52.18a4,4,0,0,1-2.12-.59A4.36,4.36,0,0,1,47.2,425a5.1,5.1,0,0,1,0-4.57,4.39,4.39,0,0,1,1.49-1.62,3.83,3.83,0,0,1,2.12-.61,3.44,3.44,0,0,1,1.75.43,3.14,3.14,0,0,1,1.22,1.15,3.18,3.18,0,0,1,.45,1.68v2.48a3.18,3.18,0,0,1-.45,1.68,3.14,3.14,0,0,1-1.2,1.17A3.79,3.79,0,0,1,50.81,427.18Zm.33-1.87a2.26,2.26,0,0,0,1.76-.74,2.65,2.65,0,0,0,.69-1.89,3,3,0,0,0-.31-1.37,2.25,2.25,0,0,0-.86-.92,2.42,2.42,0,0,0-1.28-.34,2.47,2.47,0,0,0-1.28.34,2.38,2.38,0,0,0-.86.92,3.18,3.18,0,0,0,0,2.74,2.41,2.41,0,0,0,.86.93A2.46,2.46,0,0,0,51.14,425.31ZM53.46,427v-2.32l.34-2.11-.34-2.09v-2.12h2V427Zm8.8.18a3.75,3.75,0,0,1-1.76-.41,3.15,3.15,0,0,1-1.66-2.85v-2.48a3.11,3.11,0,0,1,1.68-2.83,3.48,3.48,0,0,1,1.74-.43,3.75,3.75,0,0,1,2.11.61,4.16,4.16,0,0,1,1.49,1.62,4.94,4.94,0,0,1,0,4.57,4.13,4.13,0,0,1-1.49,1.61A3.9,3.9,0,0,1,62.26,427.18Zm-.32-1.87A2.37,2.37,0,0,0,63.2,425a2.27,2.27,0,0,0,.86-.93,3,3,0,0,0,0-2.74,2.25,2.25,0,0,0-.86-.92,2.37,2.37,0,0,0-1.26-.34,2.47,2.47,0,0,0-1.28.34,2.25,2.25,0,0,0-.86.92,3.18,3.18,0,0,0,0,2.74,2.27,2.27,0,0,0,.86.93A2.46,2.46,0,0,0,61.94,425.31ZM57.64,427V414h2v6.44l-.34,2.09.34,2.11V427Zm14.45.18a4.72,4.72,0,0,1-2.34-.58A4.47,4.47,0,0,1,68.11,425a4.76,4.76,0,0,1,0-4.59A4.38,4.38,0,0,1,72,418.18a4,4,0,0,1,2.13.56,3.91,3.91,0,0,1,1.46,1.53,4.47,4.47,0,0,1,.54,2.21,3.42,3.42,0,0,1,0,.45c0,.15,0,.31-.07.49H68.91V421.8H75l-.74.65a3.27,3.27,0,0,0-.3-1.34,1.88,1.88,0,0,0-.78-.82A2.22,2.22,0,0,0,72,420a2.66,2.66,0,0,0-1.32.32,2.19,2.19,0,0,0-.86.92,3.25,3.25,0,0,0,0,2.81,2.28,2.28,0,0,0,.92.95,2.74,2.74,0,0,0,1.36.33,3.07,3.07,0,0,0,1.23-.24,2.48,2.48,0,0,0,1-.68l1.26,1.28A4,4,0,0,1,74,426.8,4.93,4.93,0,0,1,72.09,427.18Zm5.6-.18V414h2v13Z"/><path class="cls-21" d="M171.87,427V414.4h2.07V427Zm1.42,0v-1.89h6.59V427Zm11.52.18a4,4,0,0,1-2.12-.59A4.36,4.36,0,0,1,181.2,425a5.1,5.1,0,0,1,0-4.57,4.39,4.39,0,0,1,1.49-1.62,3.83,3.83,0,0,1,2.12-.61,3.44,3.44,0,0,1,1.75.43,3.14,3.14,0,0,1,1.22,1.15,3.18,3.18,0,0,1,.45,1.68v2.48a3.18,3.18,0,0,1-.45,1.68,3.14,3.14,0,0,1-1.2,1.17A3.79,3.79,0,0,1,184.81,427.18Zm.33-1.87a2.26,2.26,0,0,0,1.76-.74,2.65,2.65,0,0,0,.69-1.89,3,3,0,0,0-.31-1.37,2.25,2.25,0,0,0-.86-.92,2.42,2.42,0,0,0-1.28-.34,2.47,2.47,0,0,0-1.28.34,2.38,2.38,0,0,0-.86.92,3.18,3.18,0,0,0,0,2.74,2.41,2.41,0,0,0,.86.93A2.46,2.46,0,0,0,185.14,425.31Zm2.32,1.69v-2.32l.34-2.11-.34-2.09v-2.12h2V427Zm8.8.18a3.72,3.72,0,0,1-1.76-.41,3.29,3.29,0,0,1-1.23-1.17,3.36,3.36,0,0,1-.43-1.68v-2.48a3.11,3.11,0,0,1,1.68-2.83,3.48,3.48,0,0,1,1.74-.43,3.77,3.77,0,0,1,2.11.61,4.16,4.16,0,0,1,1.49,1.62,4.94,4.94,0,0,1,0,4.57,4.13,4.13,0,0,1-1.49,1.61A3.92,3.92,0,0,1,196.26,427.18Zm-.32-1.87a2.37,2.37,0,0,0,1.26-.33,2.27,2.27,0,0,0,.86-.93,3,3,0,0,0,0-2.74,2.25,2.25,0,0,0-.86-.92,2.37,2.37,0,0,0-1.26-.34,2.47,2.47,0,0,0-1.28.34,2.25,2.25,0,0,0-.86.92,3.18,3.18,0,0,0,0,2.74,2.27,2.27,0,0,0,.86.93A2.46,2.46,0,0,0,195.94,425.31Zm-4.3,1.69V414h2v6.44l-.35,2.09.35,2.11V427Zm14.45.18a4.72,4.72,0,0,1-2.34-.58,4.47,4.47,0,0,1-1.64-1.62,4.76,4.76,0,0,1,0-4.59,4.38,4.38,0,0,1,3.87-2.21,4,4,0,0,1,2.13.56,3.91,3.91,0,0,1,1.46,1.53,4.47,4.47,0,0,1,.54,2.21,3.42,3.42,0,0,1,0,.45c0,.15,0,.31-.07.49h-7.09V421.8H209l-.74.65a3.27,3.27,0,0,0-.3-1.34,1.88,1.88,0,0,0-.78-.82A2.22,2.22,0,0,0,206,420a2.66,2.66,0,0,0-1.32.32,2.19,2.19,0,0,0-.86.92,3.25,3.25,0,0,0,0,2.81,2.28,2.28,0,0,0,.92.95,2.74,2.74,0,0,0,1.36.33,3.07,3.07,0,0,0,1.23-.24,2.48,2.48,0,0,0,1-.68l1.26,1.28A4,4,0,0,1,208,426.8,4.93,4.93,0,0,1,206.09,427.18Zm5.6-.18V414h2v13Z"/><path class="cls-21" d="M155,406h76v-8H155Zm76,28H155v8h76Zm-76,0a14,14,0,0,1-14-14h-8a22,22,0,0,0,22,22Zm90-14a14,14,0,0,1-14,14v8a22,22,0,0,0,22-22Zm-14-14a14,14,0,0,1,14,14h8a22,22,0,0,0-22-22Zm-76-8a22,22,0,0,0-22,22h8a14,14,0,0,1,14-14Z"/><path class="cls-21" d="M294,401h76a18,18,0,0,1,18,18h0a18,18,0,0,1-18,18H294a18,18,0,0,1-18-18h0A18,18,0,0,1,294,401Z"/><path class="cls-3" d="M296.87,426V413.4h2.07V426Zm1.42,0v-1.89h6.59V426Zm11.52.18a4,4,0,0,1-2.12-.59A4.36,4.36,0,0,1,306.2,424a5.1,5.1,0,0,1,0-4.57,4.39,4.39,0,0,1,1.49-1.62,3.83,3.83,0,0,1,2.12-.61,3.44,3.44,0,0,1,1.75.43,3.14,3.14,0,0,1,1.22,1.15,3.18,3.18,0,0,1,.45,1.68v2.48a3.18,3.18,0,0,1-.45,1.68,3.14,3.14,0,0,1-1.2,1.17A3.79,3.79,0,0,1,309.81,426.18Zm.33-1.87a2.26,2.26,0,0,0,1.76-.74,2.65,2.65,0,0,0,.69-1.89,3,3,0,0,0-.31-1.37,2.25,2.25,0,0,0-.86-.92,2.42,2.42,0,0,0-1.28-.34,2.47,2.47,0,0,0-1.28.34,2.38,2.38,0,0,0-.86.92,3.18,3.18,0,0,0,0,2.74,2.41,2.41,0,0,0,.86.93A2.46,2.46,0,0,0,310.14,424.31Zm2.32,1.69v-2.32l.34-2.11-.34-2.09v-2.12h2V426Zm8.8.18a3.75,3.75,0,0,1-1.76-.41,3.11,3.11,0,0,1-1.66-2.85v-2.48a3.11,3.11,0,0,1,1.68-2.83,3.45,3.45,0,0,1,1.74-.43,3.77,3.77,0,0,1,2.11.61,4.16,4.16,0,0,1,1.49,1.62,4.94,4.94,0,0,1,0,4.57,4.13,4.13,0,0,1-1.49,1.61A3.92,3.92,0,0,1,321.26,426.18Zm-.32-1.87a2.37,2.37,0,0,0,1.26-.33,2.27,2.27,0,0,0,.86-.93,3,3,0,0,0,0-2.74,2.25,2.25,0,0,0-.86-.92,2.37,2.37,0,0,0-1.26-.34,2.47,2.47,0,0,0-1.28.34,2.25,2.25,0,0,0-.86.92,3.18,3.18,0,0,0,0,2.74,2.27,2.27,0,0,0,.86.93A2.46,2.46,0,0,0,320.94,424.31Zm-4.3,1.69V413h2v6.44l-.35,2.09.35,2.11V426Zm14.45.18a4.72,4.72,0,0,1-2.34-.58,4.47,4.47,0,0,1-1.64-1.62,4.76,4.76,0,0,1,0-4.59,4.38,4.38,0,0,1,3.87-2.21,4,4,0,0,1,2.13.56,3.91,3.91,0,0,1,1.46,1.53,4.47,4.47,0,0,1,.54,2.21,3.42,3.42,0,0,1,0,.45c0,.15,0,.31-.07.49h-7.09V420.8H334l-.74.65a3.27,3.27,0,0,0-.3-1.34,1.88,1.88,0,0,0-.78-.82A2.22,2.22,0,0,0,331,419a2.66,2.66,0,0,0-1.32.32,2.19,2.19,0,0,0-.86.92,3.25,3.25,0,0,0,0,2.81,2.28,2.28,0,0,0,.92.95,2.74,2.74,0,0,0,1.36.33,3.07,3.07,0,0,0,1.23-.24,2.48,2.48,0,0,0,1-.68l1.26,1.28A4,4,0,0,1,333,425.8,4.93,4.93,0,0,1,331.09,426.18Zm5.6-.18V413h2v13Z"/><g class="cls-22"><path class="cls-3" d="M368.5,415.21,366.29,413l-3.79,3.79L358.71,413l-2.21,2.21,3.79,3.79-3.79,3.79,2.21,2.21,3.79-3.79,3.79,3.79,2.21-2.21L364.71,419Z"/></g><path class="cls-21" d="M438.87,426V413.4h2.07V426Zm1.42,0v-1.89h6.59V426Zm11.52.18a4,4,0,0,1-2.12-.59A4.36,4.36,0,0,1,448.2,424a5.1,5.1,0,0,1,0-4.57,4.39,4.39,0,0,1,1.49-1.62,3.83,3.83,0,0,1,2.12-.61,3.44,3.44,0,0,1,1.75.43,3.14,3.14,0,0,1,1.22,1.15,3.18,3.18,0,0,1,.45,1.68v2.48a3.18,3.18,0,0,1-.45,1.68,3.14,3.14,0,0,1-1.2,1.17A3.79,3.79,0,0,1,451.81,426.18Zm.33-1.87a2.26,2.26,0,0,0,1.76-.74,2.65,2.65,0,0,0,.69-1.89,3,3,0,0,0-.31-1.37,2.25,2.25,0,0,0-.86-.92,2.42,2.42,0,0,0-1.28-.34,2.47,2.47,0,0,0-1.28.34,2.38,2.38,0,0,0-.86.92,3.18,3.18,0,0,0,0,2.74,2.41,2.41,0,0,0,.86.93A2.46,2.46,0,0,0,452.14,424.31Zm2.32,1.69v-2.32l.34-2.11-.34-2.09v-2.12h2V426Zm8.8.18a3.75,3.75,0,0,1-1.76-.41,3.11,3.11,0,0,1-1.66-2.85v-2.48a3.11,3.11,0,0,1,1.68-2.83,3.45,3.45,0,0,1,1.74-.43,3.77,3.77,0,0,1,2.11.61,4.16,4.16,0,0,1,1.49,1.62,4.94,4.94,0,0,1,0,4.57,4.13,4.13,0,0,1-1.49,1.61A3.92,3.92,0,0,1,463.26,426.18Zm-.32-1.87a2.37,2.37,0,0,0,1.26-.33,2.27,2.27,0,0,0,.86-.93,3,3,0,0,0,0-2.74,2.25,2.25,0,0,0-.86-.92,2.37,2.37,0,0,0-1.26-.34,2.47,2.47,0,0,0-1.28.34,2.25,2.25,0,0,0-.86.92,3.18,3.18,0,0,0,0,2.74,2.27,2.27,0,0,0,.86.93A2.46,2.46,0,0,0,462.94,424.31Zm-4.3,1.69V413h2v6.44l-.35,2.09.35,2.11V426Zm14.45.18a4.72,4.72,0,0,1-2.34-.58,4.47,4.47,0,0,1-1.64-1.62,4.76,4.76,0,0,1,0-4.59,4.38,4.38,0,0,1,3.87-2.21,4,4,0,0,1,2.13.56,3.91,3.91,0,0,1,1.46,1.53,4.47,4.47,0,0,1,.54,2.21,3.42,3.42,0,0,1,0,.45c0,.15,0,.31-.07.49h-7.09V420.8H476l-.74.65a3.27,3.27,0,0,0-.3-1.34,1.88,1.88,0,0,0-.78-.82A2.22,2.22,0,0,0,473,419a2.66,2.66,0,0,0-1.32.32,2.19,2.19,0,0,0-.86.92,3.25,3.25,0,0,0,0,2.81,2.28,2.28,0,0,0,.92.95,2.74,2.74,0,0,0,1.36.33,3.07,3.07,0,0,0,1.23-.24,2.48,2.48,0,0,0,1-.68l1.26,1.28A4,4,0,0,1,475,425.8,4.93,4.93,0,0,1,473.09,426.18Zm5.6-.18V413h2v13Z"/><g class="cls-23"><path class="cls-21" d="M510.5,415.21,508.29,413l-3.79,3.79L500.71,413l-2.21,2.21,3.79,3.79-3.79,3.79,2.21,2.21,3.79-3.79,3.79,3.79,2.21-2.21L506.71,419Z"/></g><path class="cls-24" d="M436,403h76a16,16,0,0,1,16,16h0a16,16,0,0,1-16,16H436a16,16,0,0,1-16-16h0A16,16,0,0,1,436,403Z"/><path class="cls-21" d="M581,399h76a18,18,0,0,1,18,18h0a18,18,0,0,1-18,18H581a18,18,0,0,1-18-18h0A18,18,0,0,1,581,399Z"/><path class="cls-3" d="M586.72,424.18a3.75,3.75,0,0,1-1.76-.41,3.15,3.15,0,0,1-1.66-2.85v-2.48a3.11,3.11,0,0,1,1.68-2.83,3.48,3.48,0,0,1,1.74-.43,3.75,3.75,0,0,1,2.11.61,4.16,4.16,0,0,1,1.49,1.62,4.94,4.94,0,0,1,0,4.57,4.13,4.13,0,0,1-1.49,1.61A3.9,3.9,0,0,1,586.72,424.18Zm-.32-1.87a2.37,2.37,0,0,0,1.26-.33,2.27,2.27,0,0,0,.86-.93,3,3,0,0,0,0-2.74,2.25,2.25,0,0,0-.86-.92,2.37,2.37,0,0,0-1.26-.34,2.47,2.47,0,0,0-1.28.34,2.25,2.25,0,0,0-.86.92,3.18,3.18,0,0,0,0,2.74,2.27,2.27,0,0,0,.86.93A2.46,2.46,0,0,0,586.4,422.31ZM582.1,424V411h2v6.44l-.34,2.09.34,2.11V424Zm14,.18a3.89,3.89,0,0,1-2-.49,3.47,3.47,0,0,1-1.33-1.33,4.08,4.08,0,0,1-.47-2v-5h2v4.93a2.7,2.7,0,0,0,.2,1.08,1.65,1.65,0,0,0,.61.67,2,2,0,0,0,1,.23,1.69,1.69,0,0,0,1.31-.5,2.15,2.15,0,0,0,.47-1.48v-4.93h2v5a4.06,4.06,0,0,1-.49,2,3.42,3.42,0,0,1-1.31,1.33A4,4,0,0,1,596.09,424.18Zm7.06-.18V411.76h2V424Zm-2.07-6.84v-1.8h11.34v1.8Zm7.29,6.84V411.76h2V424Zm9.21.18a4.54,4.54,0,0,1-2.29-.59,4.77,4.77,0,0,1-1.64-1.64,4.57,4.57,0,0,1-.59-2.29,4.47,4.47,0,0,1,.59-2.27,4.65,4.65,0,0,1,1.64-1.6,4.36,4.36,0,0,1,2.29-.61,4.55,4.55,0,0,1,2.3.59,4.49,4.49,0,0,1,1.62,1.62,4.29,4.29,0,0,1,.61,2.27,4.39,4.39,0,0,1-.61,2.29,4.63,4.63,0,0,1-1.62,1.64A4.55,4.55,0,0,1,617.58,424.18Zm0-1.91a2.57,2.57,0,0,0,1.29-.32,2.22,2.22,0,0,0,.88-.94,2.7,2.7,0,0,0,.33-1.35,2.62,2.62,0,0,0-.33-1.33,2.43,2.43,0,0,0-2.17-1.24,2.47,2.47,0,0,0-1.3.34,2.38,2.38,0,0,0-.88.9,2.72,2.72,0,0,0-.31,1.33,2.8,2.8,0,0,0,.31,1.35,2.42,2.42,0,0,0,.88.94A2.66,2.66,0,0,0,617.58,422.27Zm12.1,1.73v-5a1.94,1.94,0,0,0-.56-1.42,1.88,1.88,0,0,0-1.4-.56,2,2,0,0,0-1,.26,1.75,1.75,0,0,0-.7.7,2,2,0,0,0-.25,1l-.78-.43a3.41,3.41,0,0,1,.44-1.74,3.05,3.05,0,0,1,1.18-1.21,3.41,3.41,0,0,1,1.73-.45,3.08,3.08,0,0,1,1.73.5,3.57,3.57,0,0,1,1.19,1.28,3.28,3.28,0,0,1,.43,1.62V424Zm-5.92,0v-8.64h2V424Z"/><path class="cls-3" d="M651.72,408.08V408H649v.08c0,4.72,3.29,8.59,7.48,8.92-4.16.3-7.48,4.17-7.48,8.92V426h2.72v-.08c0-3.26,2.36-5.88,5.28-5.88V414C654.08,414,651.72,411.34,651.72,408.08Z"/><path class="cls-21" d="M858,399h76a18,18,0,0,1,18,18h0a18,18,0,0,1-18,18H858a18,18,0,0,1-18-18h0A18,18,0,0,1,858,399Z"/><path class="cls-3" d="M862,413.21,859.79,411,856,414.79,852.21,411,850,413.21l3.79,3.79L850,420.79l2.21,2.21,3.79-3.79,3.79,3.79,2.21-2.21L858.21,417Z"/><path class="cls-3" d="M877.72,424.18a3.75,3.75,0,0,1-1.76-.41,3.15,3.15,0,0,1-1.66-2.85v-2.48a3.11,3.11,0,0,1,1.68-2.83,3.48,3.48,0,0,1,1.74-.43,3.75,3.75,0,0,1,2.11.61,4.16,4.16,0,0,1,1.49,1.62,4.94,4.94,0,0,1,0,4.57,4.13,4.13,0,0,1-1.49,1.61A3.9,3.9,0,0,1,877.72,424.18Zm-.32-1.87a2.37,2.37,0,0,0,1.26-.33,2.27,2.27,0,0,0,.86-.93,3,3,0,0,0,0-2.74,2.25,2.25,0,0,0-.86-.92,2.37,2.37,0,0,0-1.26-.34,2.47,2.47,0,0,0-1.28.34,2.25,2.25,0,0,0-.86.92,3.18,3.18,0,0,0,0,2.74,2.27,2.27,0,0,0,.86.93A2.46,2.46,0,0,0,877.4,422.31ZM873.1,424V411h2v6.44l-.34,2.09.34,2.11V424Zm14,.18a3.89,3.89,0,0,1-2-.49,3.47,3.47,0,0,1-1.33-1.33,4.08,4.08,0,0,1-.47-2v-5h2v4.93a2.7,2.7,0,0,0,.2,1.08,1.65,1.65,0,0,0,.61.67,2,2,0,0,0,1,.23,1.69,1.69,0,0,0,1.31-.5,2.15,2.15,0,0,0,.47-1.48v-4.93h2v5a4.06,4.06,0,0,1-.49,2,3.42,3.42,0,0,1-1.31,1.33A4,4,0,0,1,887.09,424.18Zm7.06-.18V411.76h2V424Zm-2.07-6.84v-1.8h11.34v1.8Zm7.29,6.84V411.76h2V424Zm9.21.18a4.54,4.54,0,0,1-2.29-.59,4.77,4.77,0,0,1-1.64-1.64,4.57,4.57,0,0,1-.59-2.29,4.47,4.47,0,0,1,.59-2.27,4.65,4.65,0,0,1,1.64-1.6,4.36,4.36,0,0,1,2.29-.61,4.55,4.55,0,0,1,2.3.59,4.49,4.49,0,0,1,1.62,1.62,4.29,4.29,0,0,1,.61,2.27,4.39,4.39,0,0,1-.61,2.29,4.63,4.63,0,0,1-1.62,1.64A4.55,4.55,0,0,1,908.58,424.18Zm0-1.91a2.57,2.57,0,0,0,1.29-.32,2.22,2.22,0,0,0,.88-.94,2.7,2.7,0,0,0,.33-1.35,2.62,2.62,0,0,0-.33-1.33,2.43,2.43,0,0,0-2.17-1.24,2.47,2.47,0,0,0-1.3.34,2.38,2.38,0,0,0-.88.9,2.72,2.72,0,0,0-.31,1.33,2.8,2.8,0,0,0,.31,1.35,2.42,2.42,0,0,0,.88.94A2.66,2.66,0,0,0,908.58,422.27Zm12.1,1.73v-5a1.94,1.94,0,0,0-.56-1.42,1.88,1.88,0,0,0-1.4-.56,2,2,0,0,0-1,.26,1.75,1.75,0,0,0-.7.7,2,2,0,0,0-.25,1l-.78-.43a3.41,3.41,0,0,1,.44-1.74,3.05,3.05,0,0,1,1.18-1.21,3.41,3.41,0,0,1,1.73-.45,3.08,3.08,0,0,1,1.73.5,3.57,3.57,0,0,1,1.19,1.28,3.28,3.28,0,0,1,.43,1.62V424Zm-5.92,0v-8.64h2V424Z"/><path class="cls-3" d="M936.72,408.08V408H934v.08c0,4.72,3.29,8.59,7.48,8.92-4.16.3-7.48,4.17-7.48,8.92V426h2.72v-.08c0-3.26,2.36-5.88,5.28-5.88V414C939.08,414,936.72,411.34,936.72,408.08Z"/><path class="cls-21" d="M1162,399h0a18,18,0,0,1,18,18h0a18,18,0,0,1-18,18h0a18,18,0,0,1-18-18h0A18,18,0,0,1,1162,399Z"/><path class="cls-3" d="M1170,411.94l-2.94-2.94-5.06,5.06-5.06-5.06-2.94,2.94,5.06,5.06-5.06,5.06,2.94,2.94,5.06-5.06,5.06,5.06,2.94-2.94-5.06-5.06Z"/><path class="cls-21" d="M1219.11,397h0a20.11,20.11,0,0,1,20.11,20.11h0a20.11,20.11,0,0,1-20.11,20.11h0A20.11,20.11,0,0,1,1199,417.11h0A20.11,20.11,0,0,1,1219.11,397Z"/><path class="cls-3" d="M1228.22,411.35l-3.35-3.35-5.76,5.76-5.76-5.76-3.35,3.35,5.76,5.76-5.76,5.76,3.35,3.35,5.76-5.76,5.76,5.76,3.35-3.35-5.76-5.76Z"/><path class="cls-21" d="M1283.33,392h0a25.33,25.33,0,0,1,25.32,25.33h0a25.32,25.32,0,0,1-25.32,25.32h0A25.33,25.33,0,0,1,1258,417.33h0A25.33,25.33,0,0,1,1283.33,392Z"/><path class="cls-3" d="M1294.65,410.17l-4.16-4.17-7.16,7.16-7.16-7.16-4.17,4.17,7.16,7.16-7.16,7.15,4.17,4.17,7.16-7.16,7.16,7.16,4.16-4.17-7.16-7.15Z"/><path class="cls-21" d="M1009,413.21l-2.21-2.21-3.79,3.79L999.21,411,997,413.21l3.79,3.79L997,420.79l2.21,2.21,3.79-3.79,3.79,3.79,2.21-2.21-3.79-3.79Z"/><path class="cls-21" d="M1024.72,424.18a3.75,3.75,0,0,1-1.76-.41,3.15,3.15,0,0,1-1.66-2.85v-2.48a3.11,3.11,0,0,1,1.68-2.83,3.48,3.48,0,0,1,1.74-.43,3.75,3.75,0,0,1,2.11.61,4.16,4.16,0,0,1,1.49,1.62,4.94,4.94,0,0,1,0,4.57,4.13,4.13,0,0,1-1.49,1.61A3.9,3.9,0,0,1,1024.72,424.18Zm-.32-1.87a2.37,2.37,0,0,0,1.26-.33,2.27,2.27,0,0,0,.86-.93,3,3,0,0,0,0-2.74,2.25,2.25,0,0,0-.86-.92,2.37,2.37,0,0,0-1.26-.34,2.47,2.47,0,0,0-1.28.34,2.25,2.25,0,0,0-.86.92,3.18,3.18,0,0,0,0,2.74,2.27,2.27,0,0,0,.86.93A2.46,2.46,0,0,0,1024.4,422.31Zm-4.3,1.69V411h2v6.44l-.34,2.09.34,2.11V424Zm14,.18a3.89,3.89,0,0,1-2-.49,3.54,3.54,0,0,1-1.33-1.33,4.08,4.08,0,0,1-.47-2v-5h2v4.93a2.7,2.7,0,0,0,.2,1.08,1.65,1.65,0,0,0,.61.67,2,2,0,0,0,1,.23,1.69,1.69,0,0,0,1.31-.5,2.15,2.15,0,0,0,.47-1.48v-4.93h2v5a4,4,0,0,1-.49,2,3.42,3.42,0,0,1-1.31,1.33A4,4,0,0,1,1034.09,424.18Zm7.06-.18V411.76h2V424Zm-2.07-6.84v-1.8h11.34v1.8Zm7.29,6.84V411.76h2V424Zm9.21.18a4.54,4.54,0,0,1-2.29-.59,4.77,4.77,0,0,1-1.64-1.64,4.57,4.57,0,0,1-.59-2.29,4.47,4.47,0,0,1,.59-2.27,4.65,4.65,0,0,1,1.64-1.6,4.36,4.36,0,0,1,2.29-.61,4.55,4.55,0,0,1,2.3.59,4.49,4.49,0,0,1,1.62,1.62,4.29,4.29,0,0,1,.61,2.27,4.39,4.39,0,0,1-.61,2.29,4.63,4.63,0,0,1-1.62,1.64A4.55,4.55,0,0,1,1055.58,424.18Zm0-1.91a2.57,2.57,0,0,0,1.29-.32,2.22,2.22,0,0,0,.88-.94,2.7,2.7,0,0,0,.33-1.35,2.62,2.62,0,0,0-.33-1.33,2.43,2.43,0,0,0-2.17-1.24,2.47,2.47,0,0,0-1.3.34,2.38,2.38,0,0,0-.88.9,2.72,2.72,0,0,0-.31,1.33,2.8,2.8,0,0,0,.31,1.35,2.42,2.42,0,0,0,.88.94A2.66,2.66,0,0,0,1055.58,422.27Zm12.1,1.73v-5a1.94,1.94,0,0,0-.56-1.42,1.88,1.88,0,0,0-1.4-.56,2,2,0,0,0-1,.26,1.75,1.75,0,0,0-.7.7,2,2,0,0,0-.25,1l-.78-.43a3.41,3.41,0,0,1,.44-1.74,3.05,3.05,0,0,1,1.18-1.21,3.41,3.41,0,0,1,1.73-.45,3.08,3.08,0,0,1,1.73.5,3.57,3.57,0,0,1,1.19,1.28,3.28,3.28,0,0,1,.43,1.62V424Zm-5.92,0v-8.64h2V424Z"/><path class="cls-21" d="M1083.72,408.08V408H1081v.08c0,4.72,3.29,8.59,7.48,8.92-4.16.3-7.48,4.17-7.48,8.92V426h2.72v-.08c0-3.26,2.36-5.88,5.28-5.88V414C1086.08,414,1083.72,411.34,1083.72,408.08Z"/><path class="cls-24" d="M1005,401h76a16,16,0,0,1,16,16h0a16,16,0,0,1-16,16h-76a16,16,0,0,1-16-16h0A16,16,0,0,1,1005,401Z"/><path class="cls-21" d="M720.72,424.18a3.75,3.75,0,0,1-1.76-.41,3.15,3.15,0,0,1-1.66-2.85v-2.48a3.11,3.11,0,0,1,1.68-2.83,3.48,3.48,0,0,1,1.74-.43,3.75,3.75,0,0,1,2.11.61,4.16,4.16,0,0,1,1.49,1.62,4.94,4.94,0,0,1,0,4.57,4.13,4.13,0,0,1-1.49,1.61A3.9,3.9,0,0,1,720.72,424.18Zm-.32-1.87a2.37,2.37,0,0,0,1.26-.33,2.27,2.27,0,0,0,.86-.93,3,3,0,0,0,0-2.74,2.25,2.25,0,0,0-.86-.92,2.37,2.37,0,0,0-1.26-.34,2.47,2.47,0,0,0-1.28.34,2.25,2.25,0,0,0-.86.92,3.18,3.18,0,0,0,0,2.74,2.27,2.27,0,0,0,.86.93A2.46,2.46,0,0,0,720.4,422.31ZM716.1,424V411h2v6.44l-.34,2.09.34,2.11V424Zm14,.18a3.89,3.89,0,0,1-2-.49,3.47,3.47,0,0,1-1.33-1.33,4.08,4.08,0,0,1-.47-2v-5h2v4.93a2.7,2.7,0,0,0,.2,1.08,1.65,1.65,0,0,0,.61.67,2,2,0,0,0,1,.23,1.69,1.69,0,0,0,1.31-.5,2.15,2.15,0,0,0,.47-1.48v-4.93h2v5a4.06,4.06,0,0,1-.49,2,3.42,3.42,0,0,1-1.31,1.33A4,4,0,0,1,730.09,424.18Zm7.06-.18V411.76h2V424Zm-2.07-6.84v-1.8h11.34v1.8Zm7.29,6.84V411.76h2V424Zm9.21.18a4.54,4.54,0,0,1-2.29-.59,4.77,4.77,0,0,1-1.64-1.64,4.57,4.57,0,0,1-.59-2.29,4.47,4.47,0,0,1,.59-2.27,4.65,4.65,0,0,1,1.64-1.6,4.36,4.36,0,0,1,2.29-.61,4.55,4.55,0,0,1,2.3.59,4.49,4.49,0,0,1,1.62,1.62,4.29,4.29,0,0,1,.61,2.27,4.39,4.39,0,0,1-.61,2.29,4.63,4.63,0,0,1-1.62,1.64A4.55,4.55,0,0,1,751.58,424.18Zm0-1.91a2.57,2.57,0,0,0,1.29-.32,2.22,2.22,0,0,0,.88-.94,2.7,2.7,0,0,0,.33-1.35,2.62,2.62,0,0,0-.33-1.33,2.43,2.43,0,0,0-2.17-1.24,2.47,2.47,0,0,0-1.3.34,2.38,2.38,0,0,0-.88.9,2.72,2.72,0,0,0-.31,1.33,2.8,2.8,0,0,0,.31,1.35,2.42,2.42,0,0,0,.88.94A2.66,2.66,0,0,0,751.58,422.27Zm12.1,1.73v-5a1.94,1.94,0,0,0-.56-1.42,1.88,1.88,0,0,0-1.4-.56,2,2,0,0,0-1,.26,1.75,1.75,0,0,0-.7.7,2,2,0,0,0-.25,1l-.78-.43a3.41,3.41,0,0,1,.44-1.74,3.05,3.05,0,0,1,1.18-1.21,3.41,3.41,0,0,1,1.73-.45,3.08,3.08,0,0,1,1.73.5,3.57,3.57,0,0,1,1.19,1.28,3.28,3.28,0,0,1,.43,1.62V424Zm-5.92,0v-8.64h2V424Z"/><path class="cls-21" d="M785.72,408.08V408H783v.08c0,4.72,3.29,8.59,7.48,8.92-4.16.3-7.48,4.17-7.48,8.92V426h2.72v-.08c0-3.26,2.36-5.88,5.28-5.88V414C788.08,414,785.72,411.34,785.72,408.08Z"/><path class="cls-24" d="M715,401h76a16,16,0,0,1,16,16h0a16,16,0,0,1-16,16H715a16,16,0,0,1-16-16h0A16,16,0,0,1,715,401Z"/></g></g></svg>