<svg xmlns="http://www.w3.org/2000/svg" viewBox="0 0 479 544"><defs><style>.cls-1{fill:#064a58;}.cls-2{fill:#f2f2f2;}.cls-3,.cls-6{fill:none;stroke-width:2px;}.cls-3{stroke:#cffd8d;}.cls-4{fill:#e7e7e7;}.cls-5{fill:#002c35;}.cls-6{stroke:#0c6;}.cls-7{fill:#0c6;}.cls-8{fill:#fff;}.cls-9{fill:#cffd8d;}</style></defs><g id="Capa_2" data-name="Capa 2"><g id="Capa_1-2" data-name="Capa 1"><path class="cls-1" d="M297,20A20,20,0,0,1,317,0H459a20,20,0,0,1,20,20V208a20,20,0,0,1-20,20H317a20,20,0,0,1-20-20Z"/><path class="cls-2" d="M326.84,58V40.4h6.26V58Zm11.05,0V47.81a2.2,2.2,0,0,0-.69-1.73,2.36,2.36,0,0,0-1.69-.64,2.66,2.66,0,0,0-1.26.28,2.21,2.21,0,0,0-.86.83,2.55,2.55,0,0,0-.29,1.26l-2.45-1a6.73,6.73,0,0,1,.94-3.64,6.46,6.46,0,0,1,2.52-2.34,7.64,7.64,0,0,1,3.6-.82,6.41,6.41,0,0,1,5.58,3.2,7.13,7.13,0,0,1,.86,3.56V58Zm11.05,0V47.81a2.23,2.23,0,0,0-.68-1.73,2.38,2.38,0,0,0-1.7-.64,2.83,2.83,0,0,0-1.26.28,2.28,2.28,0,0,0-.86.83,2.55,2.55,0,0,0-.29,1.26l-3.67-.18a8.72,8.72,0,0,1,1-4.07A6.65,6.65,0,0,1,344.19,41a8.07,8.07,0,0,1,3.89-.93,7.65,7.65,0,0,1,3.67.86,6.12,6.12,0,0,1,2.52,2.52,7.7,7.7,0,0,1,.93,3.89V58Zm9.5,0V40.4h6.3V58Zm3.13-19.66a3.2,3.2,0,0,1-2.34-.93A3.35,3.35,0,0,1,358.3,35a3.31,3.31,0,0,1,.93-2.38,3.12,3.12,0,0,1,2.34-1,3.08,3.08,0,0,1,2.38,1,3.32,3.32,0,0,1,.94,2.38,3.36,3.36,0,0,1-.94,2.41A3.16,3.16,0,0,1,361.57,38.34ZM375,58V31.76h6.26V58ZM385,58V40.4h6.3V58Zm3.13-19.66a3.17,3.17,0,0,1-2.34-.93A3.36,3.36,0,0,1,384.8,35a3.32,3.32,0,0,1,.94-2.38,3.36,3.36,0,0,1,4.72,0,3.31,3.31,0,0,1,.93,2.38,3.35,3.35,0,0,1-.93,2.41A3.17,3.17,0,0,1,388.08,38.34ZM401.6,58.5a12.11,12.11,0,0,1-3.21-.43,14.82,14.82,0,0,1-2.91-1.15,9.64,9.64,0,0,1-2.27-1.73l3.42-3.49a6,6,0,0,0,2.05,1.4,6.65,6.65,0,0,0,2.59.51,2.47,2.47,0,0,0,1.19-.22.66.66,0,0,0,.43-.61.91.91,0,0,0-.61-.86,5.55,5.55,0,0,0-1.55-.54c-.62-.17-1.28-.36-2-.58a10.56,10.56,0,0,1-2-.94,4.47,4.47,0,0,1-1.58-1.62,5.49,5.49,0,0,1-.57-2.66,4.94,4.94,0,0,1,.9-2.95,6,6,0,0,1,2.59-2,9.33,9.33,0,0,1,3.88-.75,11.79,11.79,0,0,1,4.32.79,7.51,7.51,0,0,1,3.32,2.3l-3.46,3.49a4.62,4.62,0,0,0-1.91-1.33,5.47,5.47,0,0,0-1.91-.39,2.09,2.09,0,0,0-1.18.25.67.67,0,0,0-.36.61.87.87,0,0,0,.57.76,10.15,10.15,0,0,0,1.55.54,15.64,15.64,0,0,1,2,.57,8,8,0,0,1,2,1,4.42,4.42,0,0,1,1.55,1.66,5.24,5.24,0,0,1,.61,2.7A5,5,0,0,1,407,57,8.75,8.75,0,0,1,401.6,58.5Zm12.66-.5V33.12h6.26V58Zm-3.89-12.38V40.4h14v5.22Zm23.3,12.74a8.07,8.07,0,0,1-4.35-1.19,8.2,8.2,0,0,1-3-3.24,10.09,10.09,0,0,1-1.08-4.71,10.24,10.24,0,0,1,1.08-4.76,7.94,7.94,0,0,1,3-3.24A8.06,8.06,0,0,1,433.67,40a7.32,7.32,0,0,1,3,.61,5.55,5.55,0,0,1,2.23,1.65A4.73,4.73,0,0,1,440,44.75v8.86a4.75,4.75,0,0,1-1.08,2.48,6.07,6.07,0,0,1-2.23,1.66A7.32,7.32,0,0,1,433.67,58.36ZM435,52.78a3.25,3.25,0,0,0,2.49-1,3.56,3.56,0,0,0,1-2.59,3.76,3.76,0,0,0-.43-1.84,3.38,3.38,0,0,0-1.23-1.26,3.28,3.28,0,0,0-1.76-.46,3.5,3.5,0,0,0-1.8.46,3.63,3.63,0,0,0-1.22,1.3,3.69,3.69,0,0,0-.44,1.8,3.94,3.94,0,0,0,.44,1.87,3.14,3.14,0,0,0,1.22,1.26A3.43,3.43,0,0,0,435,52.78ZM438.21,58V53.28l.9-4.32-.9-4.24V40.4h6.15V58Z"/><path class="cls-3" d="M333,83h0a7,7,0,0,1,7,7h0a7,7,0,0,1-7,7h0a7,7,0,0,1-7-7h0A7,7,0,0,1,333,83Z"/><path class="cls-2" d="M355.17,91.3V89.9h2.45a1.87,1.87,0,0,0,.88-.19,1.57,1.57,0,0,0,.62-.58,1.85,1.85,0,0,0,0-1.75,1.48,1.48,0,0,0-.62-.57,1.76,1.76,0,0,0-.88-.21h-2.45V85.2h2.53a3.59,3.59,0,0,1,1.66.38,2.83,2.83,0,0,1,1.16,1.06,3.23,3.23,0,0,1,0,3.22,2.92,2.92,0,0,1-1.16,1.07,3.59,3.59,0,0,1-1.66.37ZM354.06,95V85.2h1.61V95Zm8.24,0V88.28h1.54V95Zm1.54-3.74-.53-.26a3.49,3.49,0,0,1,.56-2.06,2,2,0,0,1,1.72-.8,2.21,2.21,0,0,1,.91.18,2.18,2.18,0,0,1,.76.59l-1,1a1,1,0,0,0-.4-.28,1.42,1.42,0,0,0-.52-.09,1.49,1.49,0,0,0-1.07.41A1.69,1.69,0,0,0,363.84,91.26Zm7,3.88a3.47,3.47,0,0,1-1.78-.46,3.54,3.54,0,0,1-1.27-1.28,3.44,3.44,0,0,1-.47-1.77,3.39,3.39,0,0,1,.47-1.77,3.43,3.43,0,0,1,1.27-1.24,3.39,3.39,0,0,1,1.78-.48,3.44,3.44,0,0,1,3.05,1.72,3.31,3.31,0,0,1,.48,1.77,3.36,3.36,0,0,1-.48,1.77,3.41,3.41,0,0,1-3.05,1.74Zm0-1.48a2,2,0,0,0,1-.26,1.69,1.69,0,0,0,.68-.72,2.15,2.15,0,0,0,.26-1.05,2.06,2.06,0,0,0-.26-1,1.83,1.83,0,0,0-.68-.7,1.88,1.88,0,0,0-1-.27,1.93,1.93,0,0,0-1,.27,1.86,1.86,0,0,0-.69.7,2.28,2.28,0,0,0-.23,1,2.38,2.38,0,0,0,.23,1.05,1.91,1.91,0,0,0,.69.72A2,2,0,0,0,370.88,93.66Zm7.61,4.28a4.18,4.18,0,0,1-1.86-.39,3.17,3.17,0,0,1-1.29-1.08l1-1a2.64,2.64,0,0,0,.92.76,2.79,2.79,0,0,0,1.25.25A2.09,2.09,0,0,0,380,96a1.59,1.59,0,0,0,.53-1.27V93.07l.27-1.49-.27-1.49V88.28H382v6.44a3.1,3.1,0,0,1-.45,1.68,3,3,0,0,1-1.24,1.13A4.06,4.06,0,0,1,378.49,97.94Zm-.07-3.08a3.13,3.13,0,0,1-1.63-.43,3.32,3.32,0,0,1-1.13-1.22,3.67,3.67,0,0,1-.41-1.72,3.54,3.54,0,0,1,.41-1.71,3.16,3.16,0,0,1,1.13-1.19,3.05,3.05,0,0,1,1.63-.45,3,3,0,0,1,1.4.32,2.47,2.47,0,0,1,.94.9,2.52,2.52,0,0,1,.33,1.31v1.66a2.46,2.46,0,0,1-1.29,2.21A2.93,2.93,0,0,1,378.42,94.86Zm.31-1.46a2.06,2.06,0,0,0,1-.23,1.63,1.63,0,0,0,.64-.66,2.07,2.07,0,0,0,.24-1,2,2,0,0,0-.24-1,1.62,1.62,0,0,0-.64-.68,2.06,2.06,0,0,0-1-.23,2.14,2.14,0,0,0-1,.23,1.73,1.73,0,0,0-.66.68,2.07,2.07,0,0,0-.23,1,2.13,2.13,0,0,0,.23,1,1.73,1.73,0,0,0,.66.68A2.14,2.14,0,0,0,378.73,93.4Zm5,1.6V88.28h1.54V95Zm1.54-3.74-.53-.26a3.42,3.42,0,0,1,.56-2.06,2,2,0,0,1,1.72-.8,2.21,2.21,0,0,1,.91.18,2.27,2.27,0,0,1,.76.59l-1,1a1,1,0,0,0-.41-.28,1.36,1.36,0,0,0-.51-.09,1.47,1.47,0,0,0-1.07.41A1.69,1.69,0,0,0,385.28,91.26Zm6.77,3.88a3,3,0,0,1-1.65-.46,3.4,3.4,0,0,1-1.16-1.25,3.74,3.74,0,0,1-.42-1.78,3.67,3.67,0,0,1,.42-1.77,3.21,3.21,0,0,1,1.16-1.26,3,3,0,0,1,1.65-.48,2.64,2.64,0,0,1,1.36.34,2.4,2.4,0,0,1,.95.89,2.48,2.48,0,0,1,.35,1.3v1.94a2.49,2.49,0,0,1-1.29,2.21A2.91,2.91,0,0,1,392.05,95.14Zm.25-1.46a1.75,1.75,0,0,0,1.37-.57,2.05,2.05,0,0,0,.54-1.47,2.24,2.24,0,0,0-.24-1.06,1.73,1.73,0,0,0-.67-.72,2,2,0,0,0-2,0,1.79,1.79,0,0,0-.67.72,2.46,2.46,0,0,0,0,2.12,1.89,1.89,0,0,0,.67.73A1.92,1.92,0,0,0,392.3,93.68ZM394.11,95V93.19l.27-1.63-.27-1.63V88.28h1.54V95Zm3.25,0V88.28h1.54V95Zm4.46,0V91a1.3,1.3,0,0,0-.42-1,1.49,1.49,0,0,0-1-.38,1.73,1.73,0,0,0-.76.17,1.43,1.43,0,0,0-.52.49,1.41,1.41,0,0,0-.19.76l-.6-.34a2.57,2.57,0,0,1,.33-1.33,2.45,2.45,0,0,1,.91-.87,2.8,2.8,0,0,1,2.58,0,2.3,2.3,0,0,1,.91.87,2.59,2.59,0,0,1,.33,1.34V95Zm4.47,0V91a1.3,1.3,0,0,0-.42-1,1.51,1.51,0,0,0-1-.38,1.68,1.68,0,0,0-.74.17,1.32,1.32,0,0,0-.53.49,1.41,1.41,0,0,0-.2.76l-.86-.34a2.73,2.73,0,0,1,.44-1.33,2.73,2.73,0,0,1,2.29-1.19,2.72,2.72,0,0,1,1.31.31,2.32,2.32,0,0,1,.94.87,2.5,2.5,0,0,1,.35,1.34V95Zm5.94.14a3,3,0,0,1-1.65-.46,3.4,3.4,0,0,1-1.16-1.25,3.74,3.74,0,0,1-.42-1.78,3.67,3.67,0,0,1,.42-1.77,3.21,3.21,0,0,1,1.16-1.26,3,3,0,0,1,1.65-.48,2.64,2.64,0,0,1,1.36.34,2.4,2.4,0,0,1,1,.89,2.48,2.48,0,0,1,.35,1.3v1.94a2.49,2.49,0,0,1-1.29,2.21A2.91,2.91,0,0,1,412.23,95.14Zm.25-1.46a1.79,1.79,0,0,0,1.38-.57,2.09,2.09,0,0,0,.53-1.47,2.24,2.24,0,0,0-.24-1.06,1.73,1.73,0,0,0-.67-.72,2,2,0,0,0-2,0,1.79,1.79,0,0,0-.67.72,2.46,2.46,0,0,0,0,2.12,1.89,1.89,0,0,0,.67.73A1.92,1.92,0,0,0,412.48,93.68ZM414.29,95V93.19l.26-1.63-.26-1.63V88.28h1.54V95Zm7.52,0V85.2h1.58V95Zm-2-8.36V85.2h3.4v1.44Z"/><path class="cls-3" d="M333,117h0a7,7,0,0,1,7,7h0a7,7,0,0,1-7,7h0a7,7,0,0,1-7-7h0A7,7,0,0,1,333,117Z"/><path class="cls-2" d="M355.17,125.3v-1.4h2.45a1.87,1.87,0,0,0,.88-.19,1.57,1.57,0,0,0,.62-.58,1.85,1.85,0,0,0,0-1.75,1.48,1.48,0,0,0-.62-.57,1.76,1.76,0,0,0-.88-.21h-2.45v-1.4h2.53a3.59,3.59,0,0,1,1.66.38,2.83,2.83,0,0,1,1.16,1.06,3.23,3.23,0,0,1,0,3.22,2.92,2.92,0,0,1-1.16,1.07,3.59,3.59,0,0,1-1.66.37Zm-1.11,3.7v-9.8h1.61V129Zm8.24,0v-6.72h1.54V129Zm1.54-3.74-.53-.26a3.49,3.49,0,0,1,.56-2.06,2,2,0,0,1,1.72-.8,2.21,2.21,0,0,1,.91.18,2.18,2.18,0,0,1,.76.59l-1,1a1,1,0,0,0-.4-.28,1.42,1.42,0,0,0-.52-.09,1.49,1.49,0,0,0-1.07.41A1.69,1.69,0,0,0,363.84,125.26Zm7,3.88a3.47,3.47,0,0,1-1.78-.46,3.54,3.54,0,0,1-1.27-1.28,3.44,3.44,0,0,1-.47-1.77,3.39,3.39,0,0,1,.47-1.77,3.43,3.43,0,0,1,1.27-1.24,3.39,3.39,0,0,1,1.78-.48,3.44,3.44,0,0,1,3.05,1.72,3.31,3.31,0,0,1,.48,1.77,3.36,3.36,0,0,1-.48,1.77,3.41,3.41,0,0,1-3.05,1.74Zm0-1.48a2,2,0,0,0,1-.26,1.69,1.69,0,0,0,.68-.72,2.15,2.15,0,0,0,.26-1.05,2.06,2.06,0,0,0-.26-1,1.83,1.83,0,0,0-.68-.7,1.88,1.88,0,0,0-1-.27,1.93,1.93,0,0,0-1,.27,1.86,1.86,0,0,0-.69.7,2.28,2.28,0,0,0-.23,1,2.38,2.38,0,0,0,.23,1.05,1.91,1.91,0,0,0,.69.72A2,2,0,0,0,370.88,127.66Zm7.61,4.28a4.18,4.18,0,0,1-1.86-.39,3.17,3.17,0,0,1-1.29-1.08l1-1a2.64,2.64,0,0,0,.92.76,2.79,2.79,0,0,0,1.25.25A2.09,2.09,0,0,0,380,130a1.59,1.59,0,0,0,.53-1.27v-1.65l.27-1.49-.27-1.49v-1.81H382v6.44a3.1,3.1,0,0,1-.45,1.68,3,3,0,0,1-1.24,1.13A4.06,4.06,0,0,1,378.49,131.94Zm-.07-3.08a3.13,3.13,0,0,1-1.63-.43,3.32,3.32,0,0,1-1.13-1.22,3.67,3.67,0,0,1-.41-1.72,3.54,3.54,0,0,1,.41-1.71,3.16,3.16,0,0,1,1.13-1.19,3.05,3.05,0,0,1,1.63-.45,3,3,0,0,1,1.4.32,2.47,2.47,0,0,1,.94.9,2.52,2.52,0,0,1,.33,1.31v1.66a2.46,2.46,0,0,1-1.29,2.21A2.93,2.93,0,0,1,378.42,128.86Zm.31-1.46a2.06,2.06,0,0,0,1-.23,1.63,1.63,0,0,0,.64-.66,2.07,2.07,0,0,0,.24-1,2,2,0,0,0-.24-1,1.62,1.62,0,0,0-.64-.68,2.06,2.06,0,0,0-1-.23,2.14,2.14,0,0,0-1,.23,1.73,1.73,0,0,0-.66.68,2.07,2.07,0,0,0-.23,1,2.13,2.13,0,0,0,.23,1,1.73,1.73,0,0,0,.66.68A2.14,2.14,0,0,0,378.73,127.4Zm5,1.6v-6.72h1.54V129Zm1.54-3.74-.53-.26a3.42,3.42,0,0,1,.56-2.06,2,2,0,0,1,1.72-.8,2.21,2.21,0,0,1,.91.18,2.27,2.27,0,0,1,.76.59l-1,1a1,1,0,0,0-.41-.28,1.36,1.36,0,0,0-.51-.09,1.47,1.47,0,0,0-1.07.41A1.69,1.69,0,0,0,385.28,125.26Zm6.77,3.88a3,3,0,0,1-1.65-.46,3.4,3.4,0,0,1-1.16-1.25,3.74,3.74,0,0,1-.42-1.78,3.67,3.67,0,0,1,.42-1.77,3.21,3.21,0,0,1,1.16-1.26,3,3,0,0,1,1.65-.48,2.64,2.64,0,0,1,1.36.34,2.4,2.4,0,0,1,.95.89,2.48,2.48,0,0,1,.35,1.3v1.94a2.49,2.49,0,0,1-1.29,2.21A2.91,2.91,0,0,1,392.05,129.14Zm.25-1.46a1.75,1.75,0,0,0,1.37-.57,2.05,2.05,0,0,0,.54-1.47,2.24,2.24,0,0,0-.24-1.06,1.73,1.73,0,0,0-.67-.72,2,2,0,0,0-2,0,1.79,1.79,0,0,0-.67.72,2.46,2.46,0,0,0,0,2.12,1.89,1.89,0,0,0,.67.73A1.92,1.92,0,0,0,392.3,127.68Zm1.81,1.32v-1.81l.27-1.63-.27-1.63v-1.65h1.54V129Zm3.25,0v-6.72h1.54V129Zm4.46,0v-4a1.3,1.3,0,0,0-.42-1,1.49,1.49,0,0,0-1-.38,1.73,1.73,0,0,0-.76.17,1.43,1.43,0,0,0-.52.49,1.41,1.41,0,0,0-.19.76l-.6-.34a2.57,2.57,0,0,1,.33-1.33,2.45,2.45,0,0,1,.91-.87,2.8,2.8,0,0,1,2.58,0,2.3,2.3,0,0,1,.91.87,2.59,2.59,0,0,1,.33,1.34V129Zm4.47,0v-4a1.3,1.3,0,0,0-.42-1,1.51,1.51,0,0,0-1-.38,1.68,1.68,0,0,0-.74.17,1.32,1.32,0,0,0-.53.49,1.41,1.41,0,0,0-.2.76l-.86-.34a2.73,2.73,0,0,1,.44-1.33,2.73,2.73,0,0,1,2.29-1.19,2.72,2.72,0,0,1,1.31.31,2.32,2.32,0,0,1,.94.87,2.5,2.5,0,0,1,.35,1.34V129Zm5.94.14a3,3,0,0,1-1.65-.46,3.4,3.4,0,0,1-1.16-1.25,3.74,3.74,0,0,1-.42-1.78,3.67,3.67,0,0,1,.42-1.77,3.21,3.21,0,0,1,1.16-1.26,3,3,0,0,1,1.65-.48,2.64,2.64,0,0,1,1.36.34,2.4,2.4,0,0,1,1,.89,2.48,2.48,0,0,1,.35,1.3v1.94a2.49,2.49,0,0,1-1.29,2.21A2.91,2.91,0,0,1,412.23,129.14Zm.25-1.46a1.79,1.79,0,0,0,1.38-.57,2.09,2.09,0,0,0,.53-1.47,2.24,2.24,0,0,0-.24-1.06,1.73,1.73,0,0,0-.67-.72,2,2,0,0,0-2,0,1.79,1.79,0,0,0-.67.72,2.46,2.46,0,0,0,0,2.12,1.89,1.89,0,0,0,.67.73A1.92,1.92,0,0,0,412.48,127.68Zm1.81,1.32v-1.81l.26-1.63-.26-1.63v-1.65h1.54V129Zm7.52,0v-9.8h1.58V129Zm-2-8.36V119.2h3.4v1.44Z"/><path class="cls-3" d="M333,151h0a7,7,0,0,1,7,7h0a7,7,0,0,1-7,7h0a7,7,0,0,1-7-7h0A7,7,0,0,1,333,151Z"/><path class="cls-2" d="M355.17,159.3v-1.4h2.45a1.87,1.87,0,0,0,.88-.19,1.57,1.57,0,0,0,.62-.58,1.85,1.85,0,0,0,0-1.75,1.48,1.48,0,0,0-.62-.57,1.76,1.76,0,0,0-.88-.21h-2.45v-1.4h2.53a3.59,3.59,0,0,1,1.66.38,2.83,2.83,0,0,1,1.16,1.06,3.23,3.23,0,0,1,0,3.22,2.92,2.92,0,0,1-1.16,1.07,3.59,3.59,0,0,1-1.66.37Zm-1.11,3.7v-9.8h1.61V163Zm8.24,0v-6.72h1.54V163Zm1.54-3.74-.53-.26a3.49,3.49,0,0,1,.56-2.06,2,2,0,0,1,1.72-.8,2.21,2.21,0,0,1,.91.18,2.18,2.18,0,0,1,.76.59l-1,1a1,1,0,0,0-.4-.28,1.42,1.42,0,0,0-.52-.09,1.49,1.49,0,0,0-1.07.41A1.69,1.69,0,0,0,363.84,159.26Zm7,3.88a3.47,3.47,0,0,1-1.78-.46,3.54,3.54,0,0,1-1.27-1.28,3.44,3.44,0,0,1-.47-1.77,3.39,3.39,0,0,1,.47-1.77,3.43,3.43,0,0,1,1.27-1.24,3.39,3.39,0,0,1,1.78-.48,3.44,3.44,0,0,1,3.05,1.72,3.31,3.31,0,0,1,.48,1.77,3.36,3.36,0,0,1-.48,1.77,3.41,3.41,0,0,1-3.05,1.74Zm0-1.48a2,2,0,0,0,1-.26,1.69,1.69,0,0,0,.68-.72,2.15,2.15,0,0,0,.26-1.05,2.06,2.06,0,0,0-.26-1,1.83,1.83,0,0,0-.68-.7,1.88,1.88,0,0,0-1-.27,1.93,1.93,0,0,0-1,.27,1.86,1.86,0,0,0-.69.7,2.28,2.28,0,0,0-.23,1,2.38,2.38,0,0,0,.23,1.05,1.91,1.91,0,0,0,.69.72A2,2,0,0,0,370.88,161.66Zm7.61,4.28a4.18,4.18,0,0,1-1.86-.39,3.17,3.17,0,0,1-1.29-1.08l1-1a2.64,2.64,0,0,0,.92.76,2.79,2.79,0,0,0,1.25.25A2.09,2.09,0,0,0,380,164a1.59,1.59,0,0,0,.53-1.27v-1.65l.27-1.49-.27-1.49v-1.81H382v6.44a3.1,3.1,0,0,1-.45,1.68,3,3,0,0,1-1.24,1.13A4.06,4.06,0,0,1,378.49,165.94Zm-.07-3.08a3.13,3.13,0,0,1-1.63-.43,3.32,3.32,0,0,1-1.13-1.22,3.67,3.67,0,0,1-.41-1.72,3.54,3.54,0,0,1,.41-1.71,3.16,3.16,0,0,1,1.13-1.19,3.05,3.05,0,0,1,1.63-.45,3,3,0,0,1,1.4.32,2.47,2.47,0,0,1,.94.9,2.52,2.52,0,0,1,.33,1.31v1.66a2.46,2.46,0,0,1-1.29,2.21A2.93,2.93,0,0,1,378.42,162.86Zm.31-1.46a2.06,2.06,0,0,0,1-.23,1.63,1.63,0,0,0,.64-.66,2.07,2.07,0,0,0,.24-1,2,2,0,0,0-.24-1,1.62,1.62,0,0,0-.64-.68,2.06,2.06,0,0,0-1-.23,2.14,2.14,0,0,0-1,.23,1.73,1.73,0,0,0-.66.68,2.07,2.07,0,0,0-.23,1,2.13,2.13,0,0,0,.23,1,1.73,1.73,0,0,0,.66.68A2.14,2.14,0,0,0,378.73,161.4Zm5,1.6v-6.72h1.54V163Zm1.54-3.74-.53-.26a3.42,3.42,0,0,1,.56-2.06,2,2,0,0,1,1.72-.8,2.21,2.21,0,0,1,.91.18,2.27,2.27,0,0,1,.76.59l-1,1a1,1,0,0,0-.41-.28,1.36,1.36,0,0,0-.51-.09,1.47,1.47,0,0,0-1.07.41A1.69,1.69,0,0,0,385.28,159.26Zm6.77,3.88a3,3,0,0,1-1.65-.46,3.4,3.4,0,0,1-1.16-1.25,3.74,3.74,0,0,1-.42-1.78,3.67,3.67,0,0,1,.42-1.77,3.21,3.21,0,0,1,1.16-1.26,3,3,0,0,1,1.65-.48,2.64,2.64,0,0,1,1.36.34,2.4,2.4,0,0,1,.95.89,2.48,2.48,0,0,1,.35,1.3v1.94a2.49,2.49,0,0,1-1.29,2.21A2.91,2.91,0,0,1,392.05,163.14Zm.25-1.46a1.75,1.75,0,0,0,1.37-.57,2.05,2.05,0,0,0,.54-1.47,2.24,2.24,0,0,0-.24-1.06,1.73,1.73,0,0,0-.67-.72,2,2,0,0,0-2,0,1.79,1.79,0,0,0-.67.72,2.46,2.46,0,0,0,0,2.12,1.89,1.89,0,0,0,.67.73A1.92,1.92,0,0,0,392.3,161.68Zm1.81,1.32v-1.81l.27-1.63-.27-1.63v-1.65h1.54V163Zm3.25,0v-6.72h1.54V163Zm4.46,0v-4a1.3,1.3,0,0,0-.42-1,1.49,1.49,0,0,0-1-.38,1.73,1.73,0,0,0-.76.17,1.43,1.43,0,0,0-.52.49,1.41,1.41,0,0,0-.19.76l-.6-.34a2.57,2.57,0,0,1,.33-1.33,2.45,2.45,0,0,1,.91-.87,2.8,2.8,0,0,1,2.58,0,2.3,2.3,0,0,1,.91.87,2.59,2.59,0,0,1,.33,1.34V163Zm4.47,0v-4a1.3,1.3,0,0,0-.42-1,1.51,1.51,0,0,0-1-.38,1.68,1.68,0,0,0-.74.17,1.32,1.32,0,0,0-.53.49,1.41,1.41,0,0,0-.2.76l-.86-.34a2.73,2.73,0,0,1,.44-1.33,2.73,2.73,0,0,1,2.29-1.19,2.72,2.72,0,0,1,1.31.31,2.32,2.32,0,0,1,.94.87,2.5,2.5,0,0,1,.35,1.34V163Zm5.94.14a3,3,0,0,1-1.65-.46,3.4,3.4,0,0,1-1.16-1.25,3.74,3.74,0,0,1-.42-1.78,3.67,3.67,0,0,1,.42-1.77,3.21,3.21,0,0,1,1.16-1.26,3,3,0,0,1,1.65-.48,2.64,2.64,0,0,1,1.36.34,2.4,2.4,0,0,1,1,.89,2.48,2.48,0,0,1,.35,1.3v1.94a2.49,2.49,0,0,1-1.29,2.21A2.91,2.91,0,0,1,412.23,163.14Zm.25-1.46a1.79,1.79,0,0,0,1.38-.57,2.09,2.09,0,0,0,.53-1.47,2.24,2.24,0,0,0-.24-1.06,1.73,1.73,0,0,0-.67-.72,2,2,0,0,0-2,0,1.79,1.79,0,0,0-.67.72,2.46,2.46,0,0,0,0,2.12,1.89,1.89,0,0,0,.67.73A1.92,1.92,0,0,0,412.48,161.68Zm1.81,1.32v-1.81l.26-1.63-.26-1.63v-1.65h1.54V163Zm7.52,0v-9.8h1.58V163Zm-2-8.36V153.2h3.4v1.44Z"/><path class="cls-3" d="M333,185h0a7,7,0,0,1,7,7h0a7,7,0,0,1-7,7h0a7,7,0,0,1-7-7h0A7,7,0,0,1,333,185Z"/><path class="cls-2" d="M355.17,193.3v-1.4h2.45a1.87,1.87,0,0,0,.88-.19,1.57,1.57,0,0,0,.62-.58,1.85,1.85,0,0,0,0-1.75,1.48,1.48,0,0,0-.62-.57,1.76,1.76,0,0,0-.88-.21h-2.45v-1.4h2.53a3.59,3.59,0,0,1,1.66.38,2.83,2.83,0,0,1,1.16,1.06,3.23,3.23,0,0,1,0,3.22,2.92,2.92,0,0,1-1.16,1.07,3.59,3.59,0,0,1-1.66.37Zm-1.11,3.7v-9.8h1.61V197Zm8.24,0v-6.72h1.54V197Zm1.54-3.74-.53-.26a3.49,3.49,0,0,1,.56-2.06,2,2,0,0,1,1.72-.8,2.21,2.21,0,0,1,.91.18,2.18,2.18,0,0,1,.76.59l-1,1a1,1,0,0,0-.4-.28,1.42,1.42,0,0,0-.52-.09,1.49,1.49,0,0,0-1.07.41A1.69,1.69,0,0,0,363.84,193.26Zm7,3.88a3.47,3.47,0,0,1-1.78-.46,3.54,3.54,0,0,1-1.27-1.28,3.44,3.44,0,0,1-.47-1.77,3.39,3.39,0,0,1,.47-1.77,3.43,3.43,0,0,1,1.27-1.24,3.39,3.39,0,0,1,1.78-.48,3.44,3.44,0,0,1,3.05,1.72,3.31,3.31,0,0,1,.48,1.77,3.36,3.36,0,0,1-.48,1.77,3.41,3.41,0,0,1-3.05,1.74Zm0-1.48a2,2,0,0,0,1-.26,1.69,1.69,0,0,0,.68-.72,2.15,2.15,0,0,0,.26-1.05,2.06,2.06,0,0,0-.26-1,1.83,1.83,0,0,0-.68-.7,1.88,1.88,0,0,0-1-.27,1.93,1.93,0,0,0-1,.27,1.86,1.86,0,0,0-.69.7,2.28,2.28,0,0,0-.23,1,2.38,2.38,0,0,0,.23,1.05,1.91,1.91,0,0,0,.69.72A2,2,0,0,0,370.88,195.66Zm7.61,4.28a4.18,4.18,0,0,1-1.86-.39,3.17,3.17,0,0,1-1.29-1.08l1-1a2.64,2.64,0,0,0,.92.76,2.79,2.79,0,0,0,1.25.25A2.09,2.09,0,0,0,380,198a1.59,1.59,0,0,0,.53-1.27v-1.65l.27-1.49-.27-1.49v-1.81H382v6.44a3.1,3.1,0,0,1-.45,1.68,3,3,0,0,1-1.24,1.13A4.06,4.06,0,0,1,378.49,199.94Zm-.07-3.08a3.13,3.13,0,0,1-1.63-.43,3.32,3.32,0,0,1-1.13-1.22,3.67,3.67,0,0,1-.41-1.72,3.54,3.54,0,0,1,.41-1.71,3.16,3.16,0,0,1,1.13-1.19,3.05,3.05,0,0,1,1.63-.45,3,3,0,0,1,1.4.32,2.47,2.47,0,0,1,.94.9,2.52,2.52,0,0,1,.33,1.31v1.66a2.46,2.46,0,0,1-1.29,2.21A2.93,2.93,0,0,1,378.42,196.86Zm.31-1.46a2.06,2.06,0,0,0,1-.23,1.63,1.63,0,0,0,.64-.66,2.07,2.07,0,0,0,.24-1,2,2,0,0,0-.24-1,1.62,1.62,0,0,0-.64-.68,2.06,2.06,0,0,0-1-.23,2.14,2.14,0,0,0-1,.23,1.73,1.73,0,0,0-.66.68,2.07,2.07,0,0,0-.23,1,2.13,2.13,0,0,0,.23,1,1.73,1.73,0,0,0,.66.68A2.14,2.14,0,0,0,378.73,195.4Zm5,1.6v-6.72h1.54V197Zm1.54-3.74-.53-.26a3.42,3.42,0,0,1,.56-2.06,2,2,0,0,1,1.72-.8,2.21,2.21,0,0,1,.91.18,2.27,2.27,0,0,1,.76.59l-1,1a1,1,0,0,0-.41-.28,1.36,1.36,0,0,0-.51-.09,1.47,1.47,0,0,0-1.07.41A1.69,1.69,0,0,0,385.28,193.26Zm6.77,3.88a3,3,0,0,1-1.65-.46,3.4,3.4,0,0,1-1.16-1.25,3.74,3.74,0,0,1-.42-1.78,3.67,3.67,0,0,1,.42-1.77,3.21,3.21,0,0,1,1.16-1.26,3,3,0,0,1,1.65-.48,2.64,2.64,0,0,1,1.36.34,2.4,2.4,0,0,1,.95.89,2.48,2.48,0,0,1,.35,1.3v1.94a2.49,2.49,0,0,1-1.29,2.21A2.91,2.91,0,0,1,392.05,197.14Zm.25-1.46a1.75,1.75,0,0,0,1.37-.57,2.05,2.05,0,0,0,.54-1.47,2.24,2.24,0,0,0-.24-1.06,1.73,1.73,0,0,0-.67-.72,2,2,0,0,0-2,0,1.79,1.79,0,0,0-.67.72,2.46,2.46,0,0,0,0,2.12,1.89,1.89,0,0,0,.67.73A1.92,1.92,0,0,0,392.3,195.68Zm1.81,1.32v-1.81l.27-1.63-.27-1.63v-1.65h1.54V197Zm3.25,0v-6.72h1.54V197Zm4.46,0v-4a1.3,1.3,0,0,0-.42-1,1.49,1.49,0,0,0-1-.38,1.73,1.73,0,0,0-.76.17,1.43,1.43,0,0,0-.52.49,1.41,1.41,0,0,0-.19.76l-.6-.34a2.57,2.57,0,0,1,.33-1.33,2.45,2.45,0,0,1,.91-.87,2.8,2.8,0,0,1,2.58,0,2.3,2.3,0,0,1,.91.87,2.59,2.59,0,0,1,.33,1.34V197Zm4.47,0v-4a1.3,1.3,0,0,0-.42-1,1.51,1.51,0,0,0-1-.38,1.68,1.68,0,0,0-.74.17,1.32,1.32,0,0,0-.53.49,1.41,1.41,0,0,0-.2.76l-.86-.34a2.73,2.73,0,0,1,.44-1.33,2.73,2.73,0,0,1,2.29-1.19,2.72,2.72,0,0,1,1.31.31,2.32,2.32,0,0,1,.94.87,2.5,2.5,0,0,1,.35,1.34V197Zm5.94.14a3,3,0,0,1-1.65-.46,3.4,3.4,0,0,1-1.16-1.25,3.74,3.74,0,0,1-.42-1.78,3.67,3.67,0,0,1,.42-1.77,3.21,3.21,0,0,1,1.16-1.26,3,3,0,0,1,1.65-.48,2.64,2.64,0,0,1,1.36.34,2.4,2.4,0,0,1,1,.89,2.48,2.48,0,0,1,.35,1.3v1.94a2.49,2.49,0,0,1-1.29,2.21A2.91,2.91,0,0,1,412.23,197.14Zm.25-1.46a1.79,1.79,0,0,0,1.38-.57,2.09,2.09,0,0,0,.53-1.47,2.24,2.24,0,0,0-.24-1.06,1.73,1.73,0,0,0-.67-.72,2,2,0,0,0-2,0,1.79,1.79,0,0,0-.67.72,2.46,2.46,0,0,0,0,2.12,1.89,1.89,0,0,0,.67.73A1.92,1.92,0,0,0,412.48,195.68Zm1.81,1.32v-1.81l.26-1.63-.26-1.63v-1.65h1.54V197Zm7.52,0v-9.8h1.58V197Zm-2-8.36V187.2h3.4v1.44Z"/><path class="cls-4" d="M0,23A20,20,0,0,1,20,3H162a20,20,0,0,1,20,20V211a20,20,0,0,1-20,20H20A20,20,0,0,1,0,211Z"/><path class="cls-5" d="M29.84,61V43.4H36.1V61Zm11.05,0V50.81a2.2,2.2,0,0,0-.69-1.73,2.36,2.36,0,0,0-1.69-.64,2.66,2.66,0,0,0-1.26.28,2.21,2.21,0,0,0-.86.83,2.55,2.55,0,0,0-.29,1.26l-2.45-1a6.73,6.73,0,0,1,.94-3.64,6.46,6.46,0,0,1,2.52-2.34,7.64,7.64,0,0,1,3.6-.82,6.41,6.41,0,0,1,5.58,3.2,7.13,7.13,0,0,1,.86,3.56V61Zm11,0V50.81a2.23,2.23,0,0,0-.68-1.73,2.38,2.38,0,0,0-1.7-.64,2.83,2.83,0,0,0-1.26.28,2.28,2.28,0,0,0-.86.83,2.55,2.55,0,0,0-.29,1.26l-3.67-.18a8.72,8.72,0,0,1,1-4.07A6.65,6.65,0,0,1,47.19,44,8.07,8.07,0,0,1,51.08,43a7.65,7.65,0,0,1,3.67.86,6.12,6.12,0,0,1,2.52,2.52,7.7,7.7,0,0,1,.93,3.89V61Zm9.5,0V43.4h6.3V61Zm3.13-19.66a3.2,3.2,0,0,1-2.34-.93A3.35,3.35,0,0,1,61.3,38a3.31,3.31,0,0,1,.93-2.38,3.12,3.12,0,0,1,2.34-1,3.08,3.08,0,0,1,2.38,1A3.32,3.32,0,0,1,67.89,38,3.36,3.36,0,0,1,67,40.41,3.16,3.16,0,0,1,64.57,41.34ZM78,61V34.76H84.3V61ZM88,61V43.4h6.3V61Zm3.13-19.66a3.17,3.17,0,0,1-2.34-.93A3.36,3.36,0,0,1,87.8,38a3.32,3.32,0,0,1,.94-2.38,3.36,3.36,0,0,1,4.72,0A3.31,3.31,0,0,1,94.39,38a3.35,3.35,0,0,1-.93,2.41A3.17,3.17,0,0,1,91.08,41.34ZM104.6,61.5a12.05,12.05,0,0,1-3.21-.43,14.82,14.82,0,0,1-2.91-1.15,9.64,9.64,0,0,1-2.27-1.73l3.42-3.49a6,6,0,0,0,2.05,1.4,6.65,6.65,0,0,0,2.59.51,2.47,2.47,0,0,0,1.19-.22.66.66,0,0,0,.43-.61.91.91,0,0,0-.61-.86,5.44,5.44,0,0,0-1.55-.54c-.62-.17-1.28-.36-2-.58a10.21,10.21,0,0,1-2-.94,4.42,4.42,0,0,1-1.59-1.62,5.49,5.49,0,0,1-.58-2.66,4.94,4.94,0,0,1,.91-2.95,6,6,0,0,1,2.59-2,9.34,9.34,0,0,1,3.89-.75,11.77,11.77,0,0,1,4.31.79,7.51,7.51,0,0,1,3.32,2.3l-3.46,3.49a4.62,4.62,0,0,0-1.91-1.33,5.47,5.47,0,0,0-1.91-.39,2.09,2.09,0,0,0-1.18.25.67.67,0,0,0-.36.61.87.87,0,0,0,.57.76,10.15,10.15,0,0,0,1.55.54,15.64,15.64,0,0,1,2,.57,8,8,0,0,1,2,1,4.5,4.5,0,0,1,1.55,1.66,5.24,5.24,0,0,1,.61,2.7A5,5,0,0,1,110,60,8.75,8.75,0,0,1,104.6,61.5Zm12.66-.5V36.12h6.26V61Zm-3.89-12.38V43.4h14v5.22Zm23.3,12.74a8.07,8.07,0,0,1-4.35-1.19,8.2,8.2,0,0,1-3-3.24,10.09,10.09,0,0,1-1.08-4.71,10.24,10.24,0,0,1,1.08-4.76,7.94,7.94,0,0,1,3-3.24A8.06,8.06,0,0,1,136.67,43a7.32,7.32,0,0,1,3,.61,5.55,5.55,0,0,1,2.23,1.65A4.73,4.73,0,0,1,143,47.75v8.86a4.75,4.75,0,0,1-1.08,2.48,6.07,6.07,0,0,1-2.23,1.66A7.32,7.32,0,0,1,136.67,61.36ZM138,55.78a3.25,3.25,0,0,0,2.49-1,3.56,3.56,0,0,0,1-2.59,3.76,3.76,0,0,0-.43-1.84,3.38,3.38,0,0,0-1.23-1.26,3.28,3.28,0,0,0-1.76-.46,3.5,3.5,0,0,0-1.8.46,3.63,3.63,0,0,0-1.22,1.3,3.69,3.69,0,0,0-.44,1.8,3.94,3.94,0,0,0,.44,1.87,3.14,3.14,0,0,0,1.22,1.26A3.43,3.43,0,0,0,138,55.78ZM141.21,61V56.28l.9-4.32-.9-4.24V43.4h6.15V61Z"/><path class="cls-6" d="M36,86h0a7,7,0,0,1,7,7h0a7,7,0,0,1-7,7h0a7,7,0,0,1-7-7h0A7,7,0,0,1,36,86Z"/><path class="cls-5" d="M58.17,94.3V92.9h2.45a1.87,1.87,0,0,0,.88-.19,1.57,1.57,0,0,0,.62-.58,1.85,1.85,0,0,0,0-1.75,1.48,1.48,0,0,0-.62-.57,1.76,1.76,0,0,0-.88-.21H58.17V88.2H60.7a3.59,3.59,0,0,1,1.66.38,2.83,2.83,0,0,1,1.16,1.06,3.23,3.23,0,0,1,0,3.22,2.92,2.92,0,0,1-1.16,1.07,3.59,3.59,0,0,1-1.66.37ZM57.06,98V88.2h1.61V98Zm8.24,0V91.28h1.54V98Zm1.54-3.74L66.31,94a3.49,3.49,0,0,1,.56-2.06,2,2,0,0,1,1.72-.8,2.21,2.21,0,0,1,.91.18,2.18,2.18,0,0,1,.76.59l-1,1a1,1,0,0,0-.4-.28,1.42,1.42,0,0,0-.52-.09,1.49,1.49,0,0,0-1.07.41A1.69,1.69,0,0,0,66.84,94.26Zm7,3.88a3.47,3.47,0,0,1-1.78-.46,3.54,3.54,0,0,1-1.27-1.28,3.44,3.44,0,0,1-.47-1.77,3.39,3.39,0,0,1,.47-1.77,3.43,3.43,0,0,1,1.27-1.24,3.39,3.39,0,0,1,1.78-.48,3.44,3.44,0,0,1,3.05,1.72,3.31,3.31,0,0,1,.48,1.77,3.36,3.36,0,0,1-.48,1.77,3.41,3.41,0,0,1-3.05,1.74Zm0-1.48a2,2,0,0,0,1-.26,1.75,1.75,0,0,0,.68-.72,2.14,2.14,0,0,0,.25-1.05,2.05,2.05,0,0,0-.25-1,1.83,1.83,0,0,0-.68-.7,1.88,1.88,0,0,0-1-.27,1.93,1.93,0,0,0-1,.27,1.86,1.86,0,0,0-.69.7,2.28,2.28,0,0,0-.23,1,2.38,2.38,0,0,0,.23,1.05,1.91,1.91,0,0,0,.69.72A2,2,0,0,0,73.88,96.66Zm7.61,4.28a4.18,4.18,0,0,1-1.86-.39,3.1,3.1,0,0,1-1.29-1.08l1-1a2.73,2.73,0,0,0,.92.76,2.82,2.82,0,0,0,1.25.25A2.09,2.09,0,0,0,83,99a1.59,1.59,0,0,0,.53-1.27V96.07l.27-1.49-.27-1.49V91.28H85v6.44a3.1,3.1,0,0,1-.45,1.68,3,3,0,0,1-1.24,1.13A4.06,4.06,0,0,1,81.49,100.94Zm-.07-3.08a3.13,3.13,0,0,1-1.63-.43,3.32,3.32,0,0,1-1.13-1.22,3.67,3.67,0,0,1-.41-1.72,3.54,3.54,0,0,1,.41-1.71,3.16,3.16,0,0,1,1.13-1.19,3.05,3.05,0,0,1,1.63-.45,3,3,0,0,1,1.4.32,2.47,2.47,0,0,1,.94.9,2.52,2.52,0,0,1,.33,1.31v1.66a2.4,2.4,0,0,1-.35,1.31,2.33,2.33,0,0,1-.94.9A2.93,2.93,0,0,1,81.42,97.86Zm.31-1.46a2.06,2.06,0,0,0,1-.23,1.63,1.63,0,0,0,.64-.66,2.07,2.07,0,0,0,.24-1,2,2,0,0,0-.24-1,1.62,1.62,0,0,0-.64-.68,2.06,2.06,0,0,0-1-.23,2.14,2.14,0,0,0-1,.23,1.73,1.73,0,0,0-.66.68,2,2,0,0,0-.23,1,2,2,0,0,0,.23,1,1.73,1.73,0,0,0,.66.68A2.14,2.14,0,0,0,81.73,96.4Zm5,1.6V91.28h1.54V98Zm1.54-3.74L87.75,94a3.42,3.42,0,0,1,.56-2.06,2,2,0,0,1,1.72-.8,2.21,2.21,0,0,1,.91.18,2.27,2.27,0,0,1,.76.59l-1,1a1,1,0,0,0-.41-.28,1.38,1.38,0,0,0-.52-.09A1.48,1.48,0,0,0,88.7,93,1.69,1.69,0,0,0,88.28,94.26Zm6.77,3.88a3,3,0,0,1-1.65-.46,3.4,3.4,0,0,1-1.16-1.25,3.74,3.74,0,0,1-.42-1.78,3.67,3.67,0,0,1,.42-1.77,3.21,3.21,0,0,1,1.16-1.26,3,3,0,0,1,1.65-.48,2.64,2.64,0,0,1,1.36.34,2.4,2.4,0,0,1,1,.89,2.48,2.48,0,0,1,.35,1.3v1.94a2.49,2.49,0,0,1-1.29,2.21A2.91,2.91,0,0,1,95.05,98.14Zm.25-1.46a1.79,1.79,0,0,0,1.38-.57,2.09,2.09,0,0,0,.53-1.47A2.24,2.24,0,0,0,97,93.58a1.73,1.73,0,0,0-.67-.72,2,2,0,0,0-2,0,1.79,1.79,0,0,0-.67.72,2.46,2.46,0,0,0,0,2.12,1.89,1.89,0,0,0,.67.73A1.92,1.92,0,0,0,95.3,96.68ZM97.11,98V96.19l.27-1.63-.27-1.63V91.28h1.54V98Zm3.25,0V91.28h1.54V98Zm4.46,0V94a1.3,1.3,0,0,0-.42-1,1.49,1.49,0,0,0-1-.38,1.73,1.73,0,0,0-.76.17,1.43,1.43,0,0,0-.52.49,1.41,1.41,0,0,0-.19.76l-.6-.34a2.57,2.57,0,0,1,.33-1.33,2.45,2.45,0,0,1,.91-.87,2.65,2.65,0,0,1,1.29-.32,2.62,2.62,0,0,1,1.29.31,2.3,2.3,0,0,1,.91.87,2.59,2.59,0,0,1,.33,1.34V98Zm4.47,0V94a1.3,1.3,0,0,0-.42-1,1.51,1.51,0,0,0-1-.38,1.68,1.68,0,0,0-.74.17,1.32,1.32,0,0,0-.53.49,1.41,1.41,0,0,0-.2.76l-.86-.34a2.73,2.73,0,0,1,.44-1.33,2.73,2.73,0,0,1,2.29-1.19,2.72,2.72,0,0,1,1.31.31,2.32,2.32,0,0,1,.94.87,2.5,2.5,0,0,1,.35,1.34V98Zm5.94.14a3,3,0,0,1-1.65-.46,3.4,3.4,0,0,1-1.16-1.25,3.74,3.74,0,0,1-.42-1.78,3.67,3.67,0,0,1,.42-1.77,3.21,3.21,0,0,1,1.16-1.26,3,3,0,0,1,1.65-.48,2.64,2.64,0,0,1,1.36.34,2.4,2.4,0,0,1,1,.89,2.48,2.48,0,0,1,.35,1.3v1.94a2.49,2.49,0,0,1-1.29,2.21A2.91,2.91,0,0,1,115.23,98.14Zm.25-1.46a1.75,1.75,0,0,0,1.37-.57,2.05,2.05,0,0,0,.54-1.47,2.24,2.24,0,0,0-.24-1.06,1.73,1.73,0,0,0-.67-.72,1.8,1.8,0,0,0-1-.26,1.83,1.83,0,0,0-1,.26,1.87,1.87,0,0,0-.67.72,2.46,2.46,0,0,0,0,2.12,2,2,0,0,0,.67.73A1.92,1.92,0,0,0,115.48,96.68ZM117.29,98V96.19l.26-1.63-.26-1.63V91.28h1.54V98Zm7.52,0V88.2h1.58V98Zm-2-8.36V88.2h3.4v1.44Z"/><path class="cls-6" d="M36,120h0a7,7,0,0,1,7,7h0a7,7,0,0,1-7,7h0a7,7,0,0,1-7-7h0A7,7,0,0,1,36,120Z"/><path class="cls-5" d="M58.17,128.3v-1.4h2.45a1.87,1.87,0,0,0,.88-.19,1.57,1.57,0,0,0,.62-.58,1.85,1.85,0,0,0,0-1.75,1.48,1.48,0,0,0-.62-.57,1.76,1.76,0,0,0-.88-.21H58.17v-1.4H60.7a3.59,3.59,0,0,1,1.66.38,2.83,2.83,0,0,1,1.16,1.06,3.23,3.23,0,0,1,0,3.22,2.92,2.92,0,0,1-1.16,1.07,3.59,3.59,0,0,1-1.66.37ZM57.06,132v-9.8h1.61V132Zm8.24,0v-6.72h1.54V132Zm1.54-3.74-.53-.26a3.49,3.49,0,0,1,.56-2.06,2,2,0,0,1,1.72-.8,2.21,2.21,0,0,1,.91.18,2.18,2.18,0,0,1,.76.59l-1,1a1,1,0,0,0-.4-.28,1.42,1.42,0,0,0-.52-.09,1.49,1.49,0,0,0-1.07.41A1.69,1.69,0,0,0,66.84,128.26Zm7,3.88a3.47,3.47,0,0,1-1.78-.46,3.54,3.54,0,0,1-1.27-1.28,3.44,3.44,0,0,1-.47-1.77,3.39,3.39,0,0,1,.47-1.77,3.43,3.43,0,0,1,1.27-1.24,3.39,3.39,0,0,1,1.78-.48,3.44,3.44,0,0,1,3.05,1.72,3.31,3.31,0,0,1,.48,1.77,3.36,3.36,0,0,1-.48,1.77,3.41,3.41,0,0,1-3.05,1.74Zm0-1.48a2,2,0,0,0,1-.26,1.75,1.75,0,0,0,.68-.72,2.14,2.14,0,0,0,.25-1.05,2.05,2.05,0,0,0-.25-1,1.83,1.83,0,0,0-.68-.7,1.88,1.88,0,0,0-1-.27,1.93,1.93,0,0,0-1,.27,1.86,1.86,0,0,0-.69.7,2.28,2.28,0,0,0-.23,1,2.38,2.38,0,0,0,.23,1.05,1.91,1.91,0,0,0,.69.72A2,2,0,0,0,73.88,130.66Zm7.61,4.28a4.18,4.18,0,0,1-1.86-.39,3.1,3.1,0,0,1-1.29-1.08l1-1a2.73,2.73,0,0,0,.92.76,2.82,2.82,0,0,0,1.25.25A2.09,2.09,0,0,0,83,133a1.59,1.59,0,0,0,.53-1.27v-1.65l.27-1.49-.27-1.49v-1.81H85v6.44a3.1,3.1,0,0,1-.45,1.68,3,3,0,0,1-1.24,1.13A4.06,4.06,0,0,1,81.49,134.94Zm-.07-3.08a3.13,3.13,0,0,1-1.63-.43,3.32,3.32,0,0,1-1.13-1.22,3.67,3.67,0,0,1-.41-1.72,3.54,3.54,0,0,1,.41-1.71,3.16,3.16,0,0,1,1.13-1.19,3.05,3.05,0,0,1,1.63-.45,3,3,0,0,1,1.4.32,2.47,2.47,0,0,1,.94.9,2.52,2.52,0,0,1,.33,1.31v1.66a2.4,2.4,0,0,1-.35,1.31,2.33,2.33,0,0,1-.94.9A2.93,2.93,0,0,1,81.42,131.86Zm.31-1.46a2.06,2.06,0,0,0,1-.23,1.63,1.63,0,0,0,.64-.66,2.07,2.07,0,0,0,.24-1,2,2,0,0,0-.24-1,1.62,1.62,0,0,0-.64-.68,2.06,2.06,0,0,0-1-.23,2.14,2.14,0,0,0-1,.23,1.73,1.73,0,0,0-.66.68,2,2,0,0,0-.23,1,2,2,0,0,0,.23,1,1.73,1.73,0,0,0,.66.68A2.14,2.14,0,0,0,81.73,130.4Zm5,1.6v-6.72h1.54V132Zm1.54-3.74-.53-.26a3.42,3.42,0,0,1,.56-2.06,2,2,0,0,1,1.72-.8,2.21,2.21,0,0,1,.91.18,2.27,2.27,0,0,1,.76.59l-1,1a1,1,0,0,0-.41-.28,1.38,1.38,0,0,0-.52-.09,1.48,1.48,0,0,0-1.06.41A1.69,1.69,0,0,0,88.28,128.26Zm6.77,3.88a3,3,0,0,1-1.65-.46,3.4,3.4,0,0,1-1.16-1.25,3.74,3.74,0,0,1-.42-1.78,3.67,3.67,0,0,1,.42-1.77,3.21,3.21,0,0,1,1.16-1.26,3,3,0,0,1,1.65-.48,2.64,2.64,0,0,1,1.36.34,2.4,2.4,0,0,1,1,.89,2.48,2.48,0,0,1,.35,1.3v1.94a2.49,2.49,0,0,1-1.29,2.21A2.91,2.91,0,0,1,95.05,132.14Zm.25-1.46a1.79,1.79,0,0,0,1.38-.57,2.09,2.09,0,0,0,.53-1.47,2.24,2.24,0,0,0-.24-1.06,1.73,1.73,0,0,0-.67-.72,2,2,0,0,0-2,0,1.79,1.79,0,0,0-.67.72,2.46,2.46,0,0,0,0,2.12,1.89,1.89,0,0,0,.67.73A1.92,1.92,0,0,0,95.3,130.68ZM97.11,132v-1.81l.27-1.63-.27-1.63v-1.65h1.54V132Zm3.25,0v-6.72h1.54V132Zm4.46,0v-4a1.3,1.3,0,0,0-.42-1,1.49,1.49,0,0,0-1-.38,1.73,1.73,0,0,0-.76.17,1.43,1.43,0,0,0-.52.49,1.41,1.41,0,0,0-.19.76l-.6-.34a2.57,2.57,0,0,1,.33-1.33,2.45,2.45,0,0,1,.91-.87,2.65,2.65,0,0,1,1.29-.32,2.62,2.62,0,0,1,1.29.31,2.3,2.3,0,0,1,.91.87,2.59,2.59,0,0,1,.33,1.34V132Zm4.47,0v-4a1.3,1.3,0,0,0-.42-1,1.51,1.51,0,0,0-1-.38,1.68,1.68,0,0,0-.74.17,1.32,1.32,0,0,0-.53.49,1.41,1.41,0,0,0-.2.76l-.86-.34a2.73,2.73,0,0,1,.44-1.33,2.73,2.73,0,0,1,2.29-1.19,2.72,2.72,0,0,1,1.31.31,2.32,2.32,0,0,1,.94.87,2.5,2.5,0,0,1,.35,1.34V132Zm5.94.14a3,3,0,0,1-1.65-.46,3.4,3.4,0,0,1-1.16-1.25,3.74,3.74,0,0,1-.42-1.78,3.67,3.67,0,0,1,.42-1.77,3.21,3.21,0,0,1,1.16-1.26,3,3,0,0,1,1.65-.48,2.64,2.64,0,0,1,1.36.34,2.4,2.4,0,0,1,1,.89,2.48,2.48,0,0,1,.35,1.3v1.94a2.49,2.49,0,0,1-1.29,2.21A2.91,2.91,0,0,1,115.23,132.14Zm.25-1.46a1.75,1.75,0,0,0,1.37-.57,2.05,2.05,0,0,0,.54-1.47,2.24,2.24,0,0,0-.24-1.06,1.73,1.73,0,0,0-.67-.72,1.8,1.8,0,0,0-1-.26,1.83,1.83,0,0,0-1,.26,1.87,1.87,0,0,0-.67.72,2.46,2.46,0,0,0,0,2.12,2,2,0,0,0,.67.73A1.92,1.92,0,0,0,115.48,130.68Zm1.81,1.32v-1.81l.26-1.63-.26-1.63v-1.65h1.54V132Zm7.52,0v-9.8h1.58V132Zm-2-8.36V122.2h3.4v1.44Z"/><path class="cls-6" d="M36,154h0a7,7,0,0,1,7,7h0a7,7,0,0,1-7,7h0a7,7,0,0,1-7-7h0A7,7,0,0,1,36,154Z"/><path class="cls-5" d="M58.17,162.3v-1.4h2.45a1.87,1.87,0,0,0,.88-.19,1.57,1.57,0,0,0,.62-.58,1.85,1.85,0,0,0,0-1.75,1.48,1.48,0,0,0-.62-.57,1.76,1.76,0,0,0-.88-.21H58.17v-1.4H60.7a3.59,3.59,0,0,1,1.66.38,2.83,2.83,0,0,1,1.16,1.06,3.23,3.23,0,0,1,0,3.22,2.92,2.92,0,0,1-1.16,1.07,3.59,3.59,0,0,1-1.66.37ZM57.06,166v-9.8h1.61V166Zm8.24,0v-6.72h1.54V166Zm1.54-3.74-.53-.26a3.49,3.49,0,0,1,.56-2.06,2,2,0,0,1,1.72-.8,2.21,2.21,0,0,1,.91.18,2.18,2.18,0,0,1,.76.59l-1,1a1,1,0,0,0-.4-.28,1.42,1.42,0,0,0-.52-.09,1.49,1.49,0,0,0-1.07.41A1.69,1.69,0,0,0,66.84,162.26Zm7,3.88a3.47,3.47,0,0,1-1.78-.46,3.54,3.54,0,0,1-1.27-1.28,3.44,3.44,0,0,1-.47-1.77,3.39,3.39,0,0,1,.47-1.77,3.43,3.43,0,0,1,1.27-1.24,3.39,3.39,0,0,1,1.78-.48,3.44,3.44,0,0,1,3.05,1.72,3.31,3.31,0,0,1,.48,1.77,3.36,3.36,0,0,1-.48,1.77,3.41,3.41,0,0,1-3.05,1.74Zm0-1.48a2,2,0,0,0,1-.26,1.75,1.75,0,0,0,.68-.72,2.14,2.14,0,0,0,.25-1.05,2.05,2.05,0,0,0-.25-1,1.83,1.83,0,0,0-.68-.7,1.88,1.88,0,0,0-1-.27,1.93,1.93,0,0,0-1,.27,1.86,1.86,0,0,0-.69.7,2.28,2.28,0,0,0-.23,1,2.38,2.38,0,0,0,.23,1.05,1.91,1.91,0,0,0,.69.72A2,2,0,0,0,73.88,164.66Zm7.61,4.28a4.18,4.18,0,0,1-1.86-.39,3.1,3.1,0,0,1-1.29-1.08l1-1a2.73,2.73,0,0,0,.92.76,2.82,2.82,0,0,0,1.25.25A2.09,2.09,0,0,0,83,167a1.59,1.59,0,0,0,.53-1.27v-1.65l.27-1.49-.27-1.49v-1.81H85v6.44a3.1,3.1,0,0,1-.45,1.68,3,3,0,0,1-1.24,1.13A4.06,4.06,0,0,1,81.49,168.94Zm-.07-3.08a3.13,3.13,0,0,1-1.63-.43,3.32,3.32,0,0,1-1.13-1.22,3.67,3.67,0,0,1-.41-1.72,3.54,3.54,0,0,1,.41-1.71,3.16,3.16,0,0,1,1.13-1.19,3.05,3.05,0,0,1,1.63-.45,3,3,0,0,1,1.4.32,2.47,2.47,0,0,1,.94.9,2.52,2.52,0,0,1,.33,1.31v1.66a2.4,2.4,0,0,1-.35,1.31,2.33,2.33,0,0,1-.94.9A2.93,2.93,0,0,1,81.42,165.86Zm.31-1.46a2.06,2.06,0,0,0,1-.23,1.63,1.63,0,0,0,.64-.66,2.07,2.07,0,0,0,.24-1,2,2,0,0,0-.24-1,1.62,1.62,0,0,0-.64-.68,2.06,2.06,0,0,0-1-.23,2.14,2.14,0,0,0-1,.23,1.73,1.73,0,0,0-.66.68,2,2,0,0,0-.23,1,2,2,0,0,0,.23,1,1.73,1.73,0,0,0,.66.68A2.14,2.14,0,0,0,81.73,164.4Zm5,1.6v-6.72h1.54V166Zm1.54-3.74-.53-.26a3.42,3.42,0,0,1,.56-2.06,2,2,0,0,1,1.72-.8,2.21,2.21,0,0,1,.91.18,2.27,2.27,0,0,1,.76.59l-1,1a1,1,0,0,0-.41-.28,1.38,1.38,0,0,0-.52-.09,1.48,1.48,0,0,0-1.06.41A1.69,1.69,0,0,0,88.28,162.26Zm6.77,3.88a3,3,0,0,1-1.65-.46,3.4,3.4,0,0,1-1.16-1.25,3.74,3.74,0,0,1-.42-1.78,3.67,3.67,0,0,1,.42-1.77,3.21,3.21,0,0,1,1.16-1.26,3,3,0,0,1,1.65-.48,2.64,2.64,0,0,1,1.36.34,2.4,2.4,0,0,1,1,.89,2.48,2.48,0,0,1,.35,1.3v1.94a2.49,2.49,0,0,1-1.29,2.21A2.91,2.91,0,0,1,95.05,166.14Zm.25-1.46a1.79,1.79,0,0,0,1.38-.57,2.09,2.09,0,0,0,.53-1.47,2.24,2.24,0,0,0-.24-1.06,1.73,1.73,0,0,0-.67-.72,2,2,0,0,0-2,0,1.79,1.79,0,0,0-.67.72,2.46,2.46,0,0,0,0,2.12,1.89,1.89,0,0,0,.67.73A1.92,1.92,0,0,0,95.3,164.68ZM97.11,166v-1.81l.27-1.63-.27-1.63v-1.65h1.54V166Zm3.25,0v-6.72h1.54V166Zm4.46,0v-4a1.3,1.3,0,0,0-.42-1,1.49,1.49,0,0,0-1-.38,1.73,1.73,0,0,0-.76.17,1.43,1.43,0,0,0-.52.49,1.41,1.41,0,0,0-.19.76l-.6-.34a2.57,2.57,0,0,1,.33-1.33,2.45,2.45,0,0,1,.91-.87,2.65,2.65,0,0,1,1.29-.32,2.62,2.62,0,0,1,1.29.31,2.3,2.3,0,0,1,.91.87,2.59,2.59,0,0,1,.33,1.34V166Zm4.47,0v-4a1.3,1.3,0,0,0-.42-1,1.51,1.51,0,0,0-1-.38,1.68,1.68,0,0,0-.74.17,1.32,1.32,0,0,0-.53.49,1.41,1.41,0,0,0-.2.76l-.86-.34a2.73,2.73,0,0,1,.44-1.33,2.73,2.73,0,0,1,2.29-1.19,2.72,2.72,0,0,1,1.31.31,2.32,2.32,0,0,1,.94.87,2.5,2.5,0,0,1,.35,1.34V166Zm5.94.14a3,3,0,0,1-1.65-.46,3.4,3.4,0,0,1-1.16-1.25,3.74,3.74,0,0,1-.42-1.78,3.67,3.67,0,0,1,.42-1.77,3.21,3.21,0,0,1,1.16-1.26,3,3,0,0,1,1.65-.48,2.64,2.64,0,0,1,1.36.34,2.4,2.4,0,0,1,1,.89,2.48,2.48,0,0,1,.35,1.3v1.94a2.49,2.49,0,0,1-1.29,2.21A2.91,2.91,0,0,1,115.23,166.14Zm.25-1.46a1.75,1.75,0,0,0,1.37-.57,2.05,2.05,0,0,0,.54-1.47,2.24,2.24,0,0,0-.24-1.06,1.73,1.73,0,0,0-.67-.72,1.8,1.8,0,0,0-1-.26,1.83,1.83,0,0,0-1,.26,1.87,1.87,0,0,0-.67.72,2.46,2.46,0,0,0,0,2.12,2,2,0,0,0,.67.73A1.92,1.92,0,0,0,115.48,164.68Zm1.81,1.32v-1.81l.26-1.63-.26-1.63v-1.65h1.54V166Zm7.52,0v-9.8h1.58V166Zm-2-8.36V156.2h3.4v1.44Z"/><path class="cls-6" d="M36,188h0a7,7,0,0,1,7,7h0a7,7,0,0,1-7,7h0a7,7,0,0,1-7-7h0A7,7,0,0,1,36,188Z"/><path class="cls-5" d="M58.17,196.3v-1.4h2.45a1.87,1.87,0,0,0,.88-.19,1.57,1.57,0,0,0,.62-.58,1.85,1.85,0,0,0,0-1.75,1.48,1.48,0,0,0-.62-.57,1.76,1.76,0,0,0-.88-.21H58.17v-1.4H60.7a3.59,3.59,0,0,1,1.66.38,2.83,2.83,0,0,1,1.16,1.06,3.23,3.23,0,0,1,0,3.22,2.92,2.92,0,0,1-1.16,1.07,3.59,3.59,0,0,1-1.66.37ZM57.06,200v-9.8h1.61V200Zm8.24,0v-6.72h1.54V200Zm1.54-3.74-.53-.26a3.49,3.49,0,0,1,.56-2.06,2,2,0,0,1,1.72-.8,2.21,2.21,0,0,1,.91.18,2.18,2.18,0,0,1,.76.59l-1,1a1,1,0,0,0-.4-.28,1.42,1.42,0,0,0-.52-.09,1.49,1.49,0,0,0-1.07.41A1.69,1.69,0,0,0,66.84,196.26Zm7,3.88a3.47,3.47,0,0,1-1.78-.46,3.54,3.54,0,0,1-1.27-1.28,3.44,3.44,0,0,1-.47-1.77,3.39,3.39,0,0,1,.47-1.77,3.43,3.43,0,0,1,1.27-1.24,3.39,3.39,0,0,1,1.78-.48,3.44,3.44,0,0,1,3.05,1.72,3.31,3.31,0,0,1,.48,1.77,3.36,3.36,0,0,1-.48,1.77,3.41,3.41,0,0,1-3.05,1.74Zm0-1.48a2,2,0,0,0,1-.26,1.75,1.75,0,0,0,.68-.72,2.14,2.14,0,0,0,.25-1.05,2.05,2.05,0,0,0-.25-1,1.83,1.83,0,0,0-.68-.7,1.88,1.88,0,0,0-1-.27,1.93,1.93,0,0,0-1,.27,1.86,1.86,0,0,0-.69.7,2.28,2.28,0,0,0-.23,1,2.38,2.38,0,0,0,.23,1.05,1.91,1.91,0,0,0,.69.72A2,2,0,0,0,73.88,198.66Zm7.61,4.28a4.18,4.18,0,0,1-1.86-.39,3.1,3.1,0,0,1-1.29-1.08l1-1a2.73,2.73,0,0,0,.92.76,2.82,2.82,0,0,0,1.25.25A2.09,2.09,0,0,0,83,201a1.59,1.59,0,0,0,.53-1.27v-1.65l.27-1.49-.27-1.49v-1.81H85v6.44a3.1,3.1,0,0,1-.45,1.68,3,3,0,0,1-1.24,1.13A4.06,4.06,0,0,1,81.49,202.94Zm-.07-3.08a3.13,3.13,0,0,1-1.63-.43,3.32,3.32,0,0,1-1.13-1.22,3.67,3.67,0,0,1-.41-1.72,3.54,3.54,0,0,1,.41-1.71,3.16,3.16,0,0,1,1.13-1.19,3.05,3.05,0,0,1,1.63-.45,3,3,0,0,1,1.4.32,2.47,2.47,0,0,1,.94.9,2.52,2.52,0,0,1,.33,1.31v1.66a2.4,2.4,0,0,1-.35,1.31,2.33,2.33,0,0,1-.94.9A2.93,2.93,0,0,1,81.42,199.86Zm.31-1.46a2.06,2.06,0,0,0,1-.23,1.63,1.63,0,0,0,.64-.66,2.07,2.07,0,0,0,.24-1,2,2,0,0,0-.24-1,1.62,1.62,0,0,0-.64-.68,2.06,2.06,0,0,0-1-.23,2.14,2.14,0,0,0-1,.23,1.73,1.73,0,0,0-.66.68,2,2,0,0,0-.23,1,2,2,0,0,0,.23,1,1.73,1.73,0,0,0,.66.68A2.14,2.14,0,0,0,81.73,198.4Zm5,1.6v-6.72h1.54V200Zm1.54-3.74-.53-.26a3.42,3.42,0,0,1,.56-2.06,2,2,0,0,1,1.72-.8,2.21,2.21,0,0,1,.91.18,2.27,2.27,0,0,1,.76.59l-1,1a1,1,0,0,0-.41-.28,1.38,1.38,0,0,0-.52-.09,1.48,1.48,0,0,0-1.06.41A1.69,1.69,0,0,0,88.28,196.26Zm6.77,3.88a3,3,0,0,1-1.65-.46,3.4,3.4,0,0,1-1.16-1.25,3.74,3.74,0,0,1-.42-1.78,3.67,3.67,0,0,1,.42-1.77,3.21,3.21,0,0,1,1.16-1.26,3,3,0,0,1,1.65-.48,2.64,2.64,0,0,1,1.36.34,2.4,2.4,0,0,1,1,.89,2.48,2.48,0,0,1,.35,1.3v1.94a2.49,2.49,0,0,1-1.29,2.21A2.91,2.91,0,0,1,95.05,200.14Zm.25-1.46a1.79,1.79,0,0,0,1.38-.57,2.09,2.09,0,0,0,.53-1.47,2.24,2.24,0,0,0-.24-1.06,1.73,1.73,0,0,0-.67-.72,2,2,0,0,0-2,0,1.79,1.79,0,0,0-.67.72,2.46,2.46,0,0,0,0,2.12,1.89,1.89,0,0,0,.67.73A1.92,1.92,0,0,0,95.3,198.68ZM97.11,200v-1.81l.27-1.63-.27-1.63v-1.65h1.54V200Zm3.25,0v-6.72h1.54V200Zm4.46,0v-4a1.3,1.3,0,0,0-.42-1,1.49,1.49,0,0,0-1-.38,1.73,1.73,0,0,0-.76.17,1.43,1.43,0,0,0-.52.49,1.41,1.41,0,0,0-.19.76l-.6-.34a2.57,2.57,0,0,1,.33-1.33,2.45,2.45,0,0,1,.91-.87,2.65,2.65,0,0,1,1.29-.32,2.62,2.62,0,0,1,1.29.31,2.3,2.3,0,0,1,.91.87,2.59,2.59,0,0,1,.33,1.34V200Zm4.47,0v-4a1.3,1.3,0,0,0-.42-1,1.51,1.51,0,0,0-1-.38,1.68,1.68,0,0,0-.74.17,1.32,1.32,0,0,0-.53.49,1.41,1.41,0,0,0-.2.76l-.86-.34a2.73,2.73,0,0,1,.44-1.33,2.73,2.73,0,0,1,2.29-1.19,2.72,2.72,0,0,1,1.31.31,2.32,2.32,0,0,1,.94.87,2.5,2.5,0,0,1,.35,1.34V200Zm5.94.14a3,3,0,0,1-1.65-.46,3.4,3.4,0,0,1-1.16-1.25,3.74,3.74,0,0,1-.42-1.78,3.67,3.67,0,0,1,.42-1.77,3.21,3.21,0,0,1,1.16-1.26,3,3,0,0,1,1.65-.48,2.64,2.64,0,0,1,1.36.34,2.4,2.4,0,0,1,1,.89,2.48,2.48,0,0,1,.35,1.3v1.94a2.49,2.49,0,0,1-1.29,2.21A2.91,2.91,0,0,1,115.23,200.14Zm.25-1.46a1.75,1.75,0,0,0,1.37-.57,2.05,2.05,0,0,0,.54-1.47,2.24,2.24,0,0,0-.24-1.06,1.73,1.73,0,0,0-.67-.72,1.8,1.8,0,0,0-1-.26,1.83,1.83,0,0,0-1,.26,1.87,1.87,0,0,0-.67.72,2.46,2.46,0,0,0,0,2.12,2,2,0,0,0,.67.73A1.92,1.92,0,0,0,115.48,198.68Zm1.81,1.32v-1.81l.26-1.63-.26-1.63v-1.65h1.54V200Zm7.52,0v-9.8h1.58V200Zm-2-8.36V190.2h3.4v1.44Z"/><path class="cls-4" d="M0,298a20,20,0,0,1,20-20H162a20,20,0,0,1,20,20V524a20,20,0,0,1-20,20H20A20,20,0,0,1,0,524Z"/><path class="cls-5" d="M29.84,336V318.4H36.1V336Zm11.05,0V325.81a2.2,2.2,0,0,0-.69-1.73,2.36,2.36,0,0,0-1.69-.64,2.66,2.66,0,0,0-1.26.28,2.21,2.21,0,0,0-.86.83,2.55,2.55,0,0,0-.29,1.26l-2.45-1a6.73,6.73,0,0,1,.94-3.64,6.46,6.46,0,0,1,2.52-2.34,7.64,7.64,0,0,1,3.6-.82,6.41,6.41,0,0,1,5.58,3.2,7.13,7.13,0,0,1,.86,3.56V336Zm11,0V325.81a2.23,2.23,0,0,0-.68-1.73,2.38,2.38,0,0,0-1.7-.64,2.83,2.83,0,0,0-1.26.28,2.28,2.28,0,0,0-.86.83,2.55,2.55,0,0,0-.29,1.26l-3.67-.18a8.72,8.72,0,0,1,1-4.07A6.65,6.65,0,0,1,47.19,319a8.07,8.07,0,0,1,3.89-.93,7.65,7.65,0,0,1,3.67.86,6.12,6.12,0,0,1,2.52,2.52,7.7,7.7,0,0,1,.93,3.89V336Zm9.5,0V318.4h6.3V336Zm3.13-19.66a3.2,3.2,0,0,1-2.34-.93A3.35,3.35,0,0,1,61.3,313a3.31,3.31,0,0,1,.93-2.38,3.12,3.12,0,0,1,2.34-1,3.08,3.08,0,0,1,2.38,1,3.32,3.32,0,0,1,.94,2.38,3.36,3.36,0,0,1-.94,2.41A3.16,3.16,0,0,1,64.57,316.34ZM78,336V309.76H84.3V336ZM88,336V318.4h6.3V336Zm3.13-19.66a3.17,3.17,0,0,1-2.34-.93A3.36,3.36,0,0,1,87.8,313a3.32,3.32,0,0,1,.94-2.38,3.36,3.36,0,0,1,4.72,0,3.31,3.31,0,0,1,.93,2.38,3.35,3.35,0,0,1-.93,2.41A3.17,3.17,0,0,1,91.08,316.34ZM104.6,336.5a12.05,12.05,0,0,1-3.21-.43,14.82,14.82,0,0,1-2.91-1.15,9.64,9.64,0,0,1-2.27-1.73l3.42-3.49a6,6,0,0,0,2.05,1.4,6.65,6.65,0,0,0,2.59.51,2.47,2.47,0,0,0,1.19-.22.66.66,0,0,0,.43-.61.91.91,0,0,0-.61-.86,5.44,5.44,0,0,0-1.55-.54c-.62-.17-1.28-.36-2-.58a10.21,10.21,0,0,1-2-.94,4.42,4.42,0,0,1-1.59-1.62,5.49,5.49,0,0,1-.58-2.66,4.94,4.94,0,0,1,.91-2.95,6,6,0,0,1,2.59-2,9.34,9.34,0,0,1,3.89-.75,11.77,11.77,0,0,1,4.31.79,7.51,7.51,0,0,1,3.32,2.3l-3.46,3.49a4.62,4.62,0,0,0-1.91-1.33,5.47,5.47,0,0,0-1.91-.39,2.09,2.09,0,0,0-1.18.25.67.67,0,0,0-.36.61.87.87,0,0,0,.57.76,10.15,10.15,0,0,0,1.55.54,15.64,15.64,0,0,1,2,.57,8,8,0,0,1,2,1,4.5,4.5,0,0,1,1.55,1.66,5.24,5.24,0,0,1,.61,2.7,5,5,0,0,1-2,4.17A8.75,8.75,0,0,1,104.6,336.5Zm12.66-.5V311.12h6.26V336Zm-3.89-12.38V318.4h14v5.22Zm23.3,12.74a8.07,8.07,0,0,1-4.35-1.19,8.2,8.2,0,0,1-3-3.24,10.09,10.09,0,0,1-1.08-4.71,10.24,10.24,0,0,1,1.08-4.76,7.94,7.94,0,0,1,3-3.24,8.06,8.06,0,0,1,4.35-1.18,7.32,7.32,0,0,1,3,.61,5.55,5.55,0,0,1,2.23,1.65,4.73,4.73,0,0,1,1.08,2.45v8.86a4.75,4.75,0,0,1-1.08,2.48,6.07,6.07,0,0,1-2.23,1.66A7.32,7.32,0,0,1,136.67,336.36Zm1.33-5.58a3.25,3.25,0,0,0,2.49-1,3.56,3.56,0,0,0,1-2.59,3.76,3.76,0,0,0-.43-1.84,3.38,3.38,0,0,0-1.23-1.26,3.28,3.28,0,0,0-1.76-.46,3.5,3.5,0,0,0-1.8.46,3.63,3.63,0,0,0-1.22,1.3,3.69,3.69,0,0,0-.44,1.8,3.94,3.94,0,0,0,.44,1.87,3.14,3.14,0,0,0,1.22,1.26A3.43,3.43,0,0,0,138,330.78Zm3.21,5.22v-4.72l.9-4.32-.9-4.24V318.4h6.15V336Z"/><path class="cls-6" d="M36,361h0a7,7,0,0,1,7,7h0a7,7,0,0,1-7,7h0a7,7,0,0,1-7-7h0A7,7,0,0,1,36,361Z"/><path class="cls-5" d="M58.17,369.3v-1.4h2.45a1.87,1.87,0,0,0,.88-.19,1.57,1.57,0,0,0,.62-.58,1.85,1.85,0,0,0,0-1.75,1.48,1.48,0,0,0-.62-.57,1.76,1.76,0,0,0-.88-.21H58.17v-1.4H60.7a3.59,3.59,0,0,1,1.66.38,2.83,2.83,0,0,1,1.16,1.06,3.23,3.23,0,0,1,0,3.22,2.92,2.92,0,0,1-1.16,1.07,3.59,3.59,0,0,1-1.66.37ZM57.06,373v-9.8h1.61V373Zm8.24,0v-6.72h1.54V373Zm1.54-3.74-.53-.26a3.49,3.49,0,0,1,.56-2.06,2,2,0,0,1,1.72-.8,2.21,2.21,0,0,1,.91.18,2.18,2.18,0,0,1,.76.59l-1,1a1,1,0,0,0-.4-.28,1.42,1.42,0,0,0-.52-.09,1.49,1.49,0,0,0-1.07.41A1.69,1.69,0,0,0,66.84,369.26Zm7,3.88a3.47,3.47,0,0,1-1.78-.46,3.54,3.54,0,0,1-1.27-1.28,3.44,3.44,0,0,1-.47-1.77,3.39,3.39,0,0,1,.47-1.77,3.43,3.43,0,0,1,1.27-1.24,3.39,3.39,0,0,1,1.78-.48,3.44,3.44,0,0,1,3.05,1.72,3.31,3.31,0,0,1,.48,1.77,3.36,3.36,0,0,1-.48,1.77,3.41,3.41,0,0,1-3.05,1.74Zm0-1.48a2,2,0,0,0,1-.26,1.75,1.75,0,0,0,.68-.72,2.14,2.14,0,0,0,.25-1.05,2.05,2.05,0,0,0-.25-1,1.83,1.83,0,0,0-.68-.7,1.88,1.88,0,0,0-1-.27,1.93,1.93,0,0,0-1,.27,1.86,1.86,0,0,0-.69.7,2.28,2.28,0,0,0-.23,1,2.38,2.38,0,0,0,.23,1.05,1.91,1.91,0,0,0,.69.72A2,2,0,0,0,73.88,371.66Zm7.61,4.28a4.18,4.18,0,0,1-1.86-.39,3.1,3.1,0,0,1-1.29-1.08l1-1a2.73,2.73,0,0,0,.92.76,2.82,2.82,0,0,0,1.25.25A2.09,2.09,0,0,0,83,374a1.59,1.59,0,0,0,.53-1.27v-1.65l.27-1.49-.27-1.49v-1.81H85v6.44a3.1,3.1,0,0,1-.45,1.68,3,3,0,0,1-1.24,1.13A4.06,4.06,0,0,1,81.49,375.94Zm-.07-3.08a3.13,3.13,0,0,1-1.63-.43,3.32,3.32,0,0,1-1.13-1.22,3.67,3.67,0,0,1-.41-1.72,3.54,3.54,0,0,1,.41-1.71,3.16,3.16,0,0,1,1.13-1.19,3.05,3.05,0,0,1,1.63-.45,3,3,0,0,1,1.4.32,2.47,2.47,0,0,1,.94.9,2.52,2.52,0,0,1,.33,1.31v1.66a2.4,2.4,0,0,1-.35,1.31,2.33,2.33,0,0,1-.94.9A2.93,2.93,0,0,1,81.42,372.86Zm.31-1.46a2.06,2.06,0,0,0,1-.23,1.63,1.63,0,0,0,.64-.66,2.07,2.07,0,0,0,.24-1,2,2,0,0,0-.24-1,1.62,1.62,0,0,0-.64-.68,2.06,2.06,0,0,0-1-.23,2.14,2.14,0,0,0-1,.23,1.73,1.73,0,0,0-.66.68,2,2,0,0,0-.23,1,2,2,0,0,0,.23,1,1.73,1.73,0,0,0,.66.68A2.14,2.14,0,0,0,81.73,371.4Zm5,1.6v-6.72h1.54V373Zm1.54-3.74-.53-.26a3.42,3.42,0,0,1,.56-2.06,2,2,0,0,1,1.72-.8,2.21,2.21,0,0,1,.91.18,2.27,2.27,0,0,1,.76.59l-1,1a1,1,0,0,0-.41-.28,1.38,1.38,0,0,0-.52-.09,1.48,1.48,0,0,0-1.06.41A1.69,1.69,0,0,0,88.28,369.26Zm6.77,3.88a3,3,0,0,1-1.65-.46,3.4,3.4,0,0,1-1.16-1.25,3.74,3.74,0,0,1-.42-1.78,3.67,3.67,0,0,1,.42-1.77,3.21,3.21,0,0,1,1.16-1.26,3,3,0,0,1,1.65-.48,2.64,2.64,0,0,1,1.36.34,2.4,2.4,0,0,1,1,.89,2.48,2.48,0,0,1,.35,1.3v1.94a2.49,2.49,0,0,1-1.29,2.21A2.91,2.91,0,0,1,95.05,373.14Zm.25-1.46a1.79,1.79,0,0,0,1.38-.57,2.09,2.09,0,0,0,.53-1.47,2.24,2.24,0,0,0-.24-1.06,1.73,1.73,0,0,0-.67-.72,2,2,0,0,0-2,0,1.79,1.79,0,0,0-.67.72,2.46,2.46,0,0,0,0,2.12,1.89,1.89,0,0,0,.67.73A1.92,1.92,0,0,0,95.3,371.68ZM97.11,373v-1.81l.27-1.63-.27-1.63v-1.65h1.54V373Zm3.25,0v-6.72h1.54V373Zm4.46,0v-4a1.3,1.3,0,0,0-.42-1,1.49,1.49,0,0,0-1-.38,1.73,1.73,0,0,0-.76.17,1.43,1.43,0,0,0-.52.49,1.41,1.41,0,0,0-.19.76l-.6-.34a2.57,2.57,0,0,1,.33-1.33,2.45,2.45,0,0,1,.91-.87,2.65,2.65,0,0,1,1.29-.32,2.62,2.62,0,0,1,1.29.31,2.3,2.3,0,0,1,.91.87,2.59,2.59,0,0,1,.33,1.34V373Zm4.47,0v-4a1.3,1.3,0,0,0-.42-1,1.51,1.51,0,0,0-1-.38,1.68,1.68,0,0,0-.74.17,1.32,1.32,0,0,0-.53.49,1.41,1.41,0,0,0-.2.76l-.86-.34a2.73,2.73,0,0,1,.44-1.33,2.73,2.73,0,0,1,2.29-1.19,2.72,2.72,0,0,1,1.31.31,2.32,2.32,0,0,1,.94.87,2.5,2.5,0,0,1,.35,1.34V373Zm5.94.14a3,3,0,0,1-1.65-.46,3.4,3.4,0,0,1-1.16-1.25,3.74,3.74,0,0,1-.42-1.78,3.67,3.67,0,0,1,.42-1.77,3.21,3.21,0,0,1,1.16-1.26,3,3,0,0,1,1.65-.48,2.64,2.64,0,0,1,1.36.34,2.4,2.4,0,0,1,1,.89,2.48,2.48,0,0,1,.35,1.3v1.94a2.49,2.49,0,0,1-1.29,2.21A2.91,2.91,0,0,1,115.23,373.14Zm.25-1.46a1.75,1.75,0,0,0,1.37-.57,2.05,2.05,0,0,0,.54-1.47,2.24,2.24,0,0,0-.24-1.06,1.73,1.73,0,0,0-.67-.72,1.8,1.8,0,0,0-1-.26,1.83,1.83,0,0,0-1,.26,1.87,1.87,0,0,0-.67.72,2.46,2.46,0,0,0,0,2.12,2,2,0,0,0,.67.73A1.92,1.92,0,0,0,115.48,371.68Zm1.81,1.32v-1.81l.26-1.63-.26-1.63v-1.65h1.54V373Zm7.52,0v-9.8h1.58V373Zm-2-8.36V363.2h3.4v1.44Z"/><path class="cls-6" d="M36,395h0a7,7,0,0,1,7,7h0a7,7,0,0,1-7,7h0a7,7,0,0,1-7-7h0A7,7,0,0,1,36,395Z"/><path class="cls-5" d="M58.17,403.3v-1.4h2.45a1.87,1.87,0,0,0,.88-.19,1.57,1.57,0,0,0,.62-.58,1.85,1.85,0,0,0,0-1.75,1.48,1.48,0,0,0-.62-.57,1.76,1.76,0,0,0-.88-.21H58.17v-1.4H60.7a3.59,3.59,0,0,1,1.66.38,2.83,2.83,0,0,1,1.16,1.06,3.23,3.23,0,0,1,0,3.22,2.92,2.92,0,0,1-1.16,1.07,3.59,3.59,0,0,1-1.66.37ZM57.06,407v-9.8h1.61V407Zm8.24,0v-6.72h1.54V407Zm1.54-3.74-.53-.26a3.49,3.49,0,0,1,.56-2.06,2,2,0,0,1,1.72-.8,2.21,2.21,0,0,1,.91.18,2.18,2.18,0,0,1,.76.59l-1,1a1,1,0,0,0-.4-.28,1.42,1.42,0,0,0-.52-.09,1.49,1.49,0,0,0-1.07.41A1.69,1.69,0,0,0,66.84,403.26Zm7,3.88a3.47,3.47,0,0,1-1.78-.46,3.54,3.54,0,0,1-1.27-1.28,3.44,3.44,0,0,1-.47-1.77,3.39,3.39,0,0,1,.47-1.77,3.43,3.43,0,0,1,1.27-1.24,3.39,3.39,0,0,1,1.78-.48,3.44,3.44,0,0,1,3.05,1.72,3.31,3.31,0,0,1,.48,1.77,3.36,3.36,0,0,1-.48,1.77,3.41,3.41,0,0,1-3.05,1.74Zm0-1.48a2,2,0,0,0,1-.26,1.75,1.75,0,0,0,.68-.72,2.14,2.14,0,0,0,.25-1.05,2.05,2.05,0,0,0-.25-1,1.83,1.83,0,0,0-.68-.7,1.88,1.88,0,0,0-1-.27,1.93,1.93,0,0,0-1,.27,1.86,1.86,0,0,0-.69.7,2.28,2.28,0,0,0-.23,1,2.38,2.38,0,0,0,.23,1.05,1.91,1.91,0,0,0,.69.72A2,2,0,0,0,73.88,405.66Zm7.61,4.28a4.18,4.18,0,0,1-1.86-.39,3.1,3.1,0,0,1-1.29-1.08l1-1a2.73,2.73,0,0,0,.92.76,2.82,2.82,0,0,0,1.25.25A2.09,2.09,0,0,0,83,408a1.59,1.59,0,0,0,.53-1.27v-1.65l.27-1.49-.27-1.49v-1.81H85v6.44a3.1,3.1,0,0,1-.45,1.68,3,3,0,0,1-1.24,1.13A4.06,4.06,0,0,1,81.49,409.94Zm-.07-3.08a3.13,3.13,0,0,1-1.63-.43,3.32,3.32,0,0,1-1.13-1.22,3.67,3.67,0,0,1-.41-1.72,3.54,3.54,0,0,1,.41-1.71,3.16,3.16,0,0,1,1.13-1.19,3.05,3.05,0,0,1,1.63-.45,3,3,0,0,1,1.4.32,2.47,2.47,0,0,1,.94.9,2.52,2.52,0,0,1,.33,1.31v1.66a2.4,2.4,0,0,1-.35,1.31,2.33,2.33,0,0,1-.94.9A2.93,2.93,0,0,1,81.42,406.86Zm.31-1.46a2.06,2.06,0,0,0,1-.23,1.63,1.63,0,0,0,.64-.66,2.07,2.07,0,0,0,.24-1,2,2,0,0,0-.24-1,1.62,1.62,0,0,0-.64-.68,2.06,2.06,0,0,0-1-.23,2.14,2.14,0,0,0-1,.23,1.73,1.73,0,0,0-.66.68,2,2,0,0,0-.23,1,2,2,0,0,0,.23,1,1.73,1.73,0,0,0,.66.68A2.14,2.14,0,0,0,81.73,405.4Zm5,1.6v-6.72h1.54V407Zm1.54-3.74-.53-.26a3.42,3.42,0,0,1,.56-2.06,2,2,0,0,1,1.72-.8,2.21,2.21,0,0,1,.91.18,2.27,2.27,0,0,1,.76.59l-1,1a1,1,0,0,0-.41-.28,1.38,1.38,0,0,0-.52-.09,1.48,1.48,0,0,0-1.06.41A1.69,1.69,0,0,0,88.28,403.26Zm6.77,3.88a3,3,0,0,1-1.65-.46,3.4,3.4,0,0,1-1.16-1.25,3.74,3.74,0,0,1-.42-1.78,3.67,3.67,0,0,1,.42-1.77,3.21,3.21,0,0,1,1.16-1.26,3,3,0,0,1,1.65-.48,2.64,2.64,0,0,1,1.36.34,2.4,2.4,0,0,1,1,.89,2.48,2.48,0,0,1,.35,1.3v1.94a2.49,2.49,0,0,1-1.29,2.21A2.91,2.91,0,0,1,95.05,407.14Zm.25-1.46a1.79,1.79,0,0,0,1.38-.57,2.09,2.09,0,0,0,.53-1.47,2.24,2.24,0,0,0-.24-1.06,1.73,1.73,0,0,0-.67-.72,2,2,0,0,0-2,0,1.79,1.79,0,0,0-.67.72,2.46,2.46,0,0,0,0,2.12,1.89,1.89,0,0,0,.67.73A1.92,1.92,0,0,0,95.3,405.68ZM97.11,407v-1.81l.27-1.63-.27-1.63v-1.65h1.54V407Zm3.25,0v-6.72h1.54V407Zm4.46,0v-4a1.3,1.3,0,0,0-.42-1,1.49,1.49,0,0,0-1-.38,1.73,1.73,0,0,0-.76.17,1.43,1.43,0,0,0-.52.49,1.41,1.41,0,0,0-.19.76l-.6-.34a2.57,2.57,0,0,1,.33-1.33,2.45,2.45,0,0,1,.91-.87,2.65,2.65,0,0,1,1.29-.32,2.62,2.62,0,0,1,1.29.31,2.3,2.3,0,0,1,.91.87,2.59,2.59,0,0,1,.33,1.34V407Zm4.47,0v-4a1.3,1.3,0,0,0-.42-1,1.51,1.51,0,0,0-1-.38,1.68,1.68,0,0,0-.74.17,1.32,1.32,0,0,0-.53.49,1.41,1.41,0,0,0-.2.76l-.86-.34a2.73,2.73,0,0,1,.44-1.33,2.73,2.73,0,0,1,2.29-1.19,2.72,2.72,0,0,1,1.31.31,2.32,2.32,0,0,1,.94.87,2.5,2.5,0,0,1,.35,1.34V407Zm5.94.14a3,3,0,0,1-1.65-.46,3.4,3.4,0,0,1-1.16-1.25,3.74,3.74,0,0,1-.42-1.78,3.67,3.67,0,0,1,.42-1.77,3.21,3.21,0,0,1,1.16-1.26,3,3,0,0,1,1.65-.48,2.64,2.64,0,0,1,1.36.34,2.4,2.4,0,0,1,1,.89,2.48,2.48,0,0,1,.35,1.3v1.94a2.49,2.49,0,0,1-1.29,2.21A2.91,2.91,0,0,1,115.23,407.14Zm.25-1.46a1.75,1.75,0,0,0,1.37-.57,2.05,2.05,0,0,0,.54-1.47,2.24,2.24,0,0,0-.24-1.06,1.73,1.73,0,0,0-.67-.72,1.8,1.8,0,0,0-1-.26,1.83,1.83,0,0,0-1,.26,1.87,1.87,0,0,0-.67.72,2.46,2.46,0,0,0,0,2.12,2,2,0,0,0,.67.73A1.92,1.92,0,0,0,115.48,405.68Zm1.81,1.32v-1.81l.26-1.63-.26-1.63v-1.65h1.54V407Zm7.52,0v-9.8h1.58V407Zm-2-8.36V397.2h3.4v1.44Z"/><path class="cls-6" d="M36,429h0a7,7,0,0,1,7,7h0a7,7,0,0,1-7,7h0a7,7,0,0,1-7-7h0A7,7,0,0,1,36,429Z"/><path class="cls-5" d="M58.17,437.3v-1.4h2.45a1.87,1.87,0,0,0,.88-.19,1.57,1.57,0,0,0,.62-.58,1.85,1.85,0,0,0,0-1.75,1.48,1.48,0,0,0-.62-.57,1.76,1.76,0,0,0-.88-.21H58.17v-1.4H60.7a3.59,3.59,0,0,1,1.66.38,2.83,2.83,0,0,1,1.16,1.06,3.23,3.23,0,0,1,0,3.22,2.92,2.92,0,0,1-1.16,1.07,3.59,3.59,0,0,1-1.66.37ZM57.06,441v-9.8h1.61V441Zm8.24,0v-6.72h1.54V441Zm1.54-3.74-.53-.26a3.49,3.49,0,0,1,.56-2.06,2,2,0,0,1,1.72-.8,2.21,2.21,0,0,1,.91.18,2.18,2.18,0,0,1,.76.59l-1,1a1,1,0,0,0-.4-.28,1.42,1.42,0,0,0-.52-.09,1.49,1.49,0,0,0-1.07.41A1.69,1.69,0,0,0,66.84,437.26Zm7,3.88a3.47,3.47,0,0,1-1.78-.46,3.54,3.54,0,0,1-1.27-1.28,3.44,3.44,0,0,1-.47-1.77,3.39,3.39,0,0,1,.47-1.77,3.43,3.43,0,0,1,1.27-1.24,3.39,3.39,0,0,1,1.78-.48,3.44,3.44,0,0,1,3.05,1.72,3.31,3.31,0,0,1,.48,1.77,3.36,3.36,0,0,1-.48,1.77,3.41,3.41,0,0,1-3.05,1.74Zm0-1.48a2,2,0,0,0,1-.26,1.75,1.75,0,0,0,.68-.72,2.14,2.14,0,0,0,.25-1.05,2.05,2.05,0,0,0-.25-1,1.83,1.83,0,0,0-.68-.7,1.88,1.88,0,0,0-1-.27,1.93,1.93,0,0,0-1,.27,1.86,1.86,0,0,0-.69.7,2.28,2.28,0,0,0-.23,1,2.38,2.38,0,0,0,.23,1.05,1.91,1.91,0,0,0,.69.72A2,2,0,0,0,73.88,439.66Zm7.61,4.28a4.18,4.18,0,0,1-1.86-.39,3.1,3.1,0,0,1-1.29-1.08l1-1a2.73,2.73,0,0,0,.92.76,2.82,2.82,0,0,0,1.25.25A2.09,2.09,0,0,0,83,442a1.59,1.59,0,0,0,.53-1.27v-1.65l.27-1.49-.27-1.49v-1.81H85v6.44a3.1,3.1,0,0,1-.45,1.68,3,3,0,0,1-1.24,1.13A4.06,4.06,0,0,1,81.49,443.94Zm-.07-3.08a3.13,3.13,0,0,1-1.63-.43,3.32,3.32,0,0,1-1.13-1.22,3.67,3.67,0,0,1-.41-1.72,3.54,3.54,0,0,1,.41-1.71,3.16,3.16,0,0,1,1.13-1.19,3.05,3.05,0,0,1,1.63-.45,3,3,0,0,1,1.4.32,2.47,2.47,0,0,1,.94.9,2.52,2.52,0,0,1,.33,1.31v1.66a2.4,2.4,0,0,1-.35,1.31,2.33,2.33,0,0,1-.94.9A2.93,2.93,0,0,1,81.42,440.86Zm.31-1.46a2.06,2.06,0,0,0,1-.23,1.63,1.63,0,0,0,.64-.66,2.07,2.07,0,0,0,.24-1,2,2,0,0,0-.24-1,1.62,1.62,0,0,0-.64-.68,2.06,2.06,0,0,0-1-.23,2.14,2.14,0,0,0-1,.23,1.73,1.73,0,0,0-.66.68,2,2,0,0,0-.23,1,2,2,0,0,0,.23,1,1.73,1.73,0,0,0,.66.68A2.14,2.14,0,0,0,81.73,439.4Zm5,1.6v-6.72h1.54V441Zm1.54-3.74-.53-.26a3.42,3.42,0,0,1,.56-2.06,2,2,0,0,1,1.72-.8,2.21,2.21,0,0,1,.91.18,2.27,2.27,0,0,1,.76.59l-1,1a1,1,0,0,0-.41-.28,1.38,1.38,0,0,0-.52-.09,1.48,1.48,0,0,0-1.06.41A1.69,1.69,0,0,0,88.28,437.26Zm6.77,3.88a3,3,0,0,1-1.65-.46,3.4,3.4,0,0,1-1.16-1.25,3.74,3.74,0,0,1-.42-1.78,3.67,3.67,0,0,1,.42-1.77,3.21,3.21,0,0,1,1.16-1.26,3,3,0,0,1,1.65-.48,2.64,2.64,0,0,1,1.36.34,2.4,2.4,0,0,1,1,.89,2.48,2.48,0,0,1,.35,1.3v1.94a2.49,2.49,0,0,1-1.29,2.21A2.91,2.91,0,0,1,95.05,441.14Zm.25-1.46a1.79,1.79,0,0,0,1.38-.57,2.09,2.09,0,0,0,.53-1.47,2.24,2.24,0,0,0-.24-1.06,1.73,1.73,0,0,0-.67-.72,2,2,0,0,0-2,0,1.79,1.79,0,0,0-.67.72,2.46,2.46,0,0,0,0,2.12,1.89,1.89,0,0,0,.67.73A1.92,1.92,0,0,0,95.3,439.68ZM97.11,441v-1.81l.27-1.63-.27-1.63v-1.65h1.54V441Zm3.25,0v-6.72h1.54V441Zm4.46,0v-4a1.3,1.3,0,0,0-.42-1,1.49,1.49,0,0,0-1-.38,1.73,1.73,0,0,0-.76.17,1.43,1.43,0,0,0-.52.49,1.41,1.41,0,0,0-.19.76l-.6-.34a2.57,2.57,0,0,1,.33-1.33,2.45,2.45,0,0,1,.91-.87,2.65,2.65,0,0,1,1.29-.32,2.62,2.62,0,0,1,1.29.31,2.3,2.3,0,0,1,.91.87,2.59,2.59,0,0,1,.33,1.34V441Zm4.47,0v-4a1.3,1.3,0,0,0-.42-1,1.51,1.51,0,0,0-1-.38,1.68,1.68,0,0,0-.74.17,1.32,1.32,0,0,0-.53.49,1.41,1.41,0,0,0-.2.76l-.86-.34a2.73,2.73,0,0,1,.44-1.33,2.73,2.73,0,0,1,2.29-1.19,2.72,2.72,0,0,1,1.31.31,2.32,2.32,0,0,1,.94.87,2.5,2.5,0,0,1,.35,1.34V441Zm5.94.14a3,3,0,0,1-1.65-.46,3.4,3.4,0,0,1-1.16-1.25,3.74,3.74,0,0,1-.42-1.78,3.67,3.67,0,0,1,.42-1.77,3.21,3.21,0,0,1,1.16-1.26,3,3,0,0,1,1.65-.48,2.64,2.64,0,0,1,1.36.34,2.4,2.4,0,0,1,1,.89,2.48,2.48,0,0,1,.35,1.3v1.94a2.49,2.49,0,0,1-1.29,2.21A2.91,2.91,0,0,1,115.23,441.14Zm.25-1.46a1.75,1.75,0,0,0,1.37-.57,2.05,2.05,0,0,0,.54-1.47,2.24,2.24,0,0,0-.24-1.06,1.73,1.73,0,0,0-.67-.72,1.8,1.8,0,0,0-1-.26,1.83,1.83,0,0,0-1,.26,1.87,1.87,0,0,0-.67.72,2.46,2.46,0,0,0,0,2.12,2,2,0,0,0,.67.73A1.92,1.92,0,0,0,115.48,439.68Zm1.81,1.32v-1.81l.26-1.63-.26-1.63v-1.65h1.54V441Zm7.52,0v-9.8h1.58V441Zm-2-8.36V431.2h3.4v1.44Z"/><path class="cls-6" d="M36,463h0a7,7,0,0,1,7,7h0a7,7,0,0,1-7,7h0a7,7,0,0,1-7-7h0A7,7,0,0,1,36,463Z"/><path class="cls-5" d="M58.17,471.3v-1.4h2.45a1.87,1.87,0,0,0,.88-.19,1.57,1.57,0,0,0,.62-.58,1.85,1.85,0,0,0,0-1.75,1.48,1.48,0,0,0-.62-.57,1.76,1.76,0,0,0-.88-.21H58.17v-1.4H60.7a3.59,3.59,0,0,1,1.66.38,2.83,2.83,0,0,1,1.16,1.06,3.23,3.23,0,0,1,0,3.22,2.92,2.92,0,0,1-1.16,1.07,3.59,3.59,0,0,1-1.66.37ZM57.06,475v-9.8h1.61V475Zm8.24,0v-6.72h1.54V475Zm1.54-3.74-.53-.26a3.49,3.49,0,0,1,.56-2.06,2,2,0,0,1,1.72-.8,2.21,2.21,0,0,1,.91.18,2.18,2.18,0,0,1,.76.59l-1,1a1,1,0,0,0-.4-.28,1.42,1.42,0,0,0-.52-.09,1.49,1.49,0,0,0-1.07.41A1.69,1.69,0,0,0,66.84,471.26Zm7,3.88a3.47,3.47,0,0,1-1.78-.46,3.54,3.54,0,0,1-1.27-1.28,3.44,3.44,0,0,1-.47-1.77,3.39,3.39,0,0,1,.47-1.77,3.43,3.43,0,0,1,1.27-1.24,3.39,3.39,0,0,1,1.78-.48,3.44,3.44,0,0,1,3.05,1.72,3.31,3.31,0,0,1,.48,1.77,3.36,3.36,0,0,1-.48,1.77,3.41,3.41,0,0,1-3.05,1.74Zm0-1.48a2,2,0,0,0,1-.26,1.75,1.75,0,0,0,.68-.72,2.14,2.14,0,0,0,.25-1.05,2.05,2.05,0,0,0-.25-1,1.83,1.83,0,0,0-.68-.7,1.88,1.88,0,0,0-1-.27,1.93,1.93,0,0,0-1,.27,1.86,1.86,0,0,0-.69.7,2.28,2.28,0,0,0-.23,1,2.38,2.38,0,0,0,.23,1.05,1.91,1.91,0,0,0,.69.72A2,2,0,0,0,73.88,473.66Zm7.61,4.28a4.18,4.18,0,0,1-1.86-.39,3.1,3.1,0,0,1-1.29-1.08l1-1a2.73,2.73,0,0,0,.92.76,2.82,2.82,0,0,0,1.25.25A2.09,2.09,0,0,0,83,476a1.59,1.59,0,0,0,.53-1.27v-1.65l.27-1.49-.27-1.49v-1.81H85v6.44a3.1,3.1,0,0,1-.45,1.68,3,3,0,0,1-1.24,1.13A4.06,4.06,0,0,1,81.49,477.94Zm-.07-3.08a3.13,3.13,0,0,1-1.63-.43,3.32,3.32,0,0,1-1.13-1.22,3.67,3.67,0,0,1-.41-1.72,3.54,3.54,0,0,1,.41-1.71,3.16,3.16,0,0,1,1.13-1.19,3.05,3.05,0,0,1,1.63-.45,3,3,0,0,1,1.4.32,2.47,2.47,0,0,1,.94.9,2.52,2.52,0,0,1,.33,1.31v1.66a2.4,2.4,0,0,1-.35,1.31,2.33,2.33,0,0,1-.94.9A2.93,2.93,0,0,1,81.42,474.86Zm.31-1.46a2.06,2.06,0,0,0,1-.23,1.63,1.63,0,0,0,.64-.66,2.07,2.07,0,0,0,.24-1,2,2,0,0,0-.24-1,1.62,1.62,0,0,0-.64-.68,2.06,2.06,0,0,0-1-.23,2.14,2.14,0,0,0-1,.23,1.73,1.73,0,0,0-.66.68,2,2,0,0,0-.23,1,2,2,0,0,0,.23,1,1.73,1.73,0,0,0,.66.68A2.14,2.14,0,0,0,81.73,473.4Zm5,1.6v-6.72h1.54V475Zm1.54-3.74-.53-.26a3.42,3.42,0,0,1,.56-2.06,2,2,0,0,1,1.72-.8,2.21,2.21,0,0,1,.91.18,2.27,2.27,0,0,1,.76.59l-1,1a1,1,0,0,0-.41-.28,1.38,1.38,0,0,0-.52-.09,1.48,1.48,0,0,0-1.06.41A1.69,1.69,0,0,0,88.28,471.26Zm6.77,3.88a3,3,0,0,1-1.65-.46,3.4,3.4,0,0,1-1.16-1.25,3.74,3.74,0,0,1-.42-1.78,3.67,3.67,0,0,1,.42-1.77,3.21,3.21,0,0,1,1.16-1.26,3,3,0,0,1,1.65-.48,2.64,2.64,0,0,1,1.36.34,2.4,2.4,0,0,1,1,.89,2.48,2.48,0,0,1,.35,1.3v1.94a2.49,2.49,0,0,1-1.29,2.21A2.91,2.91,0,0,1,95.05,475.14Zm.25-1.46a1.79,1.79,0,0,0,1.38-.57,2.09,2.09,0,0,0,.53-1.47,2.24,2.24,0,0,0-.24-1.06,1.73,1.73,0,0,0-.67-.72,2,2,0,0,0-2,0,1.79,1.79,0,0,0-.67.72,2.46,2.46,0,0,0,0,2.12,1.89,1.89,0,0,0,.67.73A1.92,1.92,0,0,0,95.3,473.68ZM97.11,475v-1.81l.27-1.63-.27-1.63v-1.65h1.54V475Zm3.25,0v-6.72h1.54V475Zm4.46,0v-4a1.3,1.3,0,0,0-.42-1,1.49,1.49,0,0,0-1-.38,1.73,1.73,0,0,0-.76.17,1.43,1.43,0,0,0-.52.49,1.41,1.41,0,0,0-.19.76l-.6-.34a2.57,2.57,0,0,1,.33-1.33,2.45,2.45,0,0,1,.91-.87,2.65,2.65,0,0,1,1.29-.32,2.62,2.62,0,0,1,1.29.31,2.3,2.3,0,0,1,.91.87,2.59,2.59,0,0,1,.33,1.34V475Zm4.47,0v-4a1.3,1.3,0,0,0-.42-1,1.51,1.51,0,0,0-1-.38,1.68,1.68,0,0,0-.74.17,1.32,1.32,0,0,0-.53.49,1.41,1.41,0,0,0-.2.76l-.86-.34a2.73,2.73,0,0,1,.44-1.33,2.73,2.73,0,0,1,2.29-1.19,2.72,2.72,0,0,1,1.31.31,2.32,2.32,0,0,1,.94.87,2.5,2.5,0,0,1,.35,1.34V475Zm5.94.14a3,3,0,0,1-1.65-.46,3.4,3.4,0,0,1-1.16-1.25,3.74,3.74,0,0,1-.42-1.78,3.67,3.67,0,0,1,.42-1.77,3.21,3.21,0,0,1,1.16-1.26,3,3,0,0,1,1.65-.48,2.64,2.64,0,0,1,1.36.34,2.4,2.4,0,0,1,1,.89,2.48,2.48,0,0,1,.35,1.3v1.94a2.49,2.49,0,0,1-1.29,2.21A2.91,2.91,0,0,1,115.23,475.14Zm.25-1.46a1.75,1.75,0,0,0,1.37-.57,2.05,2.05,0,0,0,.54-1.47,2.24,2.24,0,0,0-.24-1.06,1.73,1.73,0,0,0-.67-.72,1.8,1.8,0,0,0-1-.26,1.83,1.83,0,0,0-1,.26,1.87,1.87,0,0,0-.67.72,2.46,2.46,0,0,0,0,2.12,2,2,0,0,0,.67.73A1.92,1.92,0,0,0,115.48,473.68Zm1.81,1.32v-1.81l.26-1.63-.26-1.63v-1.65h1.54V475Zm7.52,0v-9.8h1.58V475Zm-2-8.36V465.2h3.4v1.44Z"/><path class="cls-7" d="M55.38,512,60,500.8h1.28L65.85,512h-2l-3.58-9.07H61L57.34,512Zm2.28-2.16v-1.6h5.93v1.6ZM72.47,512v-4.43A1.73,1.73,0,0,0,72,506.3a1.66,1.66,0,0,0-1.25-.49,1.8,1.8,0,0,0-.91.22,1.59,1.59,0,0,0-.63.63,1.8,1.8,0,0,0-.22.91l-.69-.39a3.05,3.05,0,0,1,.39-1.55,2.7,2.7,0,0,1,1-1.07,3,3,0,0,1,1.54-.4,2.67,2.67,0,0,1,1.53.45,3.11,3.11,0,0,1,1.06,1.13,2.87,2.87,0,0,1,.38,1.44V512Zm-5.26,0v-7.68H69V512Zm4.59-8.78a1.86,1.86,0,0,1-.89-.2c-.25-.12-.48-.25-.69-.36a1.24,1.24,0,0,0-.69-.2,1.19,1.19,0,0,0-.64.15,1.66,1.66,0,0,0-.46.43l-1-.94a4.71,4.71,0,0,1,.93-.84,1.89,1.89,0,0,1,1.09-.32,1.86,1.86,0,0,1,.89.2,7.38,7.38,0,0,1,.69.36,1.34,1.34,0,0,0,.69.2,1.24,1.24,0,0,0,.66-.15,1.38,1.38,0,0,0,.44-.43l.95.94a4.78,4.78,0,0,1-.93.85A2,2,0,0,1,71.8,503.22Zm7.44,8.94a3.55,3.55,0,0,1-1.89-.53A3.87,3.87,0,0,1,76,510.21a4.31,4.31,0,0,1-.48-2,4.27,4.27,0,0,1,.48-2,4,4,0,0,1,1.33-1.44,3.47,3.47,0,0,1,1.89-.54,3.12,3.12,0,0,1,1.55.38,2.84,2.84,0,0,1,1.09,1,2.77,2.77,0,0,1,.4,1.49v2.2a2.86,2.86,0,0,1-1.47,2.53A3.22,3.22,0,0,1,79.24,512.16Zm.29-1.66a2,2,0,0,0,1.57-.66,2.4,2.4,0,0,0,.6-1.68,2.67,2.67,0,0,0-.27-1.22,1.94,1.94,0,0,0-.77-.81,2.1,2.1,0,0,0-1.13-.31,2.13,2.13,0,0,0-1.91,1.12,2.89,2.89,0,0,0,0,2.44,2.28,2.28,0,0,0,.77.83A2.25,2.25,0,0,0,79.53,510.5Zm2.06,1.5v-2.06l.31-1.88-.31-1.85v-1.89h1.76V512Zm6.93.16a3.55,3.55,0,0,1-1.89-.53,3.87,3.87,0,0,1-1.33-1.42,4.31,4.31,0,0,1-.48-2,4.27,4.27,0,0,1,.48-2,4,4,0,0,1,1.33-1.44,3.47,3.47,0,0,1,1.89-.54,3.12,3.12,0,0,1,1.55.38,2.84,2.84,0,0,1,1.09,1,2.77,2.77,0,0,1,.4,1.49v2.2a2.86,2.86,0,0,1-1.47,2.53A3.22,3.22,0,0,1,88.52,512.16Zm.29-1.66a2.18,2.18,0,0,0,1.13-.29,2.06,2.06,0,0,0,.77-.83,2.89,2.89,0,0,0,0-2.44,1.94,1.94,0,0,0-.77-.81,2.1,2.1,0,0,0-1.13-.31,2.13,2.13,0,0,0-1.91,1.12,2.89,2.89,0,0,0,0,2.44,2.28,2.28,0,0,0,.77.83A2.25,2.25,0,0,0,88.81,510.5Zm3.82,1.5H90.87v-2.06l.31-1.88-.31-1.85v-5.73h1.76Zm2,0v-7.68h1.76V512Zm.88-9.09a1,1,0,0,1-.75-.3,1.07,1.07,0,0,1-.29-.75,1.09,1.09,0,0,1,.29-.76,1,1,0,0,1,.75-.3,1,1,0,0,1,.75.3,1,1,0,0,1,.29.76,1,1,0,0,1-.29.75A1,1,0,0,1,95.48,502.91ZM98.34,512v-7.68h1.76V512Zm1.76-4.27-.61-.31a3.94,3.94,0,0,1,.64-2.35,2.26,2.26,0,0,1,2-.91,2.43,2.43,0,0,1,1,.21,2.46,2.46,0,0,1,.87.67l-1.15,1.18a1.31,1.31,0,0,0-.47-.32,1.78,1.78,0,0,0-.59-.09,1.7,1.7,0,0,0-1.22.46A2,2,0,0,0,100.1,507.73Z"/><path class="cls-7" d="M121,505.47,119.53,504,117,506.53,114.47,504,113,505.47l2.53,2.53L113,510.53l1.47,1.47,2.53-2.53,2.53,2.53,1.47-1.47L118.47,508Z"/><path class="cls-1" d="M297,294a20,20,0,0,1,20-20H459a20,20,0,0,1,20,20V520a20,20,0,0,1-20,20H317a20,20,0,0,1-20-20Z"/><path class="cls-8" d="M326.84,332V314.4h6.26V332Zm11.05,0V321.81a2.2,2.2,0,0,0-.69-1.73,2.36,2.36,0,0,0-1.69-.64,2.66,2.66,0,0,0-1.26.28,2.21,2.21,0,0,0-.86.83,2.55,2.55,0,0,0-.29,1.26l-2.45-1a6.73,6.73,0,0,1,.94-3.64,6.46,6.46,0,0,1,2.52-2.34,7.64,7.64,0,0,1,3.6-.82,6.41,6.41,0,0,1,5.58,3.2,7.13,7.13,0,0,1,.86,3.56V332Zm11.05,0V321.81a2.23,2.23,0,0,0-.68-1.73,2.38,2.38,0,0,0-1.7-.64,2.83,2.83,0,0,0-1.26.28,2.28,2.28,0,0,0-.86.83,2.55,2.55,0,0,0-.29,1.26l-3.67-.18a8.72,8.72,0,0,1,1-4.07,6.65,6.65,0,0,1,2.67-2.59,8.07,8.07,0,0,1,3.89-.93,7.65,7.65,0,0,1,3.67.86,6.12,6.12,0,0,1,2.52,2.52,7.7,7.7,0,0,1,.93,3.89V332Zm9.5,0V314.4h6.3V332Zm3.13-19.66a3.2,3.2,0,0,1-2.34-.93,3.35,3.35,0,0,1-.93-2.41,3.31,3.31,0,0,1,.93-2.38,3.12,3.12,0,0,1,2.34-1,3.08,3.08,0,0,1,2.38,1,3.32,3.32,0,0,1,.94,2.38,3.36,3.36,0,0,1-.94,2.41A3.16,3.16,0,0,1,361.57,312.34ZM375,332V305.76h6.26V332Zm9.91,0V314.4h6.3V332Zm3.13-19.66a3.17,3.17,0,0,1-2.34-.93,3.36,3.36,0,0,1-.94-2.41,3.32,3.32,0,0,1,.94-2.38,3.36,3.36,0,0,1,4.72,0,3.31,3.31,0,0,1,.93,2.38,3.35,3.35,0,0,1-.93,2.41A3.17,3.17,0,0,1,388.08,312.34ZM401.6,332.5a12.11,12.11,0,0,1-3.21-.43,14.82,14.82,0,0,1-2.91-1.15,9.64,9.64,0,0,1-2.27-1.73l3.42-3.49a6,6,0,0,0,2.05,1.4,6.65,6.65,0,0,0,2.59.51,2.47,2.47,0,0,0,1.19-.22.66.66,0,0,0,.43-.61.91.91,0,0,0-.61-.86,5.55,5.55,0,0,0-1.55-.54c-.62-.17-1.28-.36-2-.58a10.56,10.56,0,0,1-2-.94,4.47,4.47,0,0,1-1.58-1.62,5.49,5.49,0,0,1-.57-2.66,4.94,4.94,0,0,1,.9-2.95,6,6,0,0,1,2.59-2,9.33,9.33,0,0,1,3.88-.75,11.79,11.79,0,0,1,4.32.79,7.51,7.51,0,0,1,3.32,2.3l-3.46,3.49a4.62,4.62,0,0,0-1.91-1.33,5.47,5.47,0,0,0-1.91-.39,2.09,2.09,0,0,0-1.18.25.67.67,0,0,0-.36.61.87.87,0,0,0,.57.76,10.15,10.15,0,0,0,1.55.54,15.64,15.64,0,0,1,2,.57,8,8,0,0,1,2,1,4.42,4.42,0,0,1,1.55,1.66,5.24,5.24,0,0,1,.61,2.7,5,5,0,0,1-2,4.17A8.75,8.75,0,0,1,401.6,332.5Zm12.66-.5V307.12h6.26V332Zm-3.89-12.38V314.4h14v5.22Zm23.3,12.74a8.07,8.07,0,0,1-4.35-1.19,8.2,8.2,0,0,1-3-3.24,10.09,10.09,0,0,1-1.08-4.71,10.24,10.24,0,0,1,1.08-4.76,7.94,7.94,0,0,1,3-3.24,8.06,8.06,0,0,1,4.35-1.18,7.32,7.32,0,0,1,3,.61,5.55,5.55,0,0,1,2.23,1.65,4.73,4.73,0,0,1,1.08,2.45v8.86a4.75,4.75,0,0,1-1.08,2.48,6.07,6.07,0,0,1-2.23,1.66A7.32,7.32,0,0,1,433.67,332.36Zm1.33-5.58a3.25,3.25,0,0,0,2.49-1,3.56,3.56,0,0,0,1-2.59,3.76,3.76,0,0,0-.43-1.84,3.38,3.38,0,0,0-1.23-1.26,3.28,3.28,0,0,0-1.76-.46,3.5,3.5,0,0,0-1.8.46,3.63,3.63,0,0,0-1.22,1.3,3.69,3.69,0,0,0-.44,1.8,3.94,3.94,0,0,0,.44,1.87,3.14,3.14,0,0,0,1.22,1.26A3.43,3.43,0,0,0,435,326.78Zm3.21,5.22v-4.72l.9-4.32-.9-4.24V314.4h6.15V332Z"/><path class="cls-3" d="M333,357h0a7,7,0,0,1,7,7h0a7,7,0,0,1-7,7h0a7,7,0,0,1-7-7h0A7,7,0,0,1,333,357Z"/><path class="cls-8" d="M355.17,365.3v-1.4h2.45a1.87,1.87,0,0,0,.88-.19,1.57,1.57,0,0,0,.62-.58,1.85,1.85,0,0,0,0-1.75,1.48,1.48,0,0,0-.62-.57,1.76,1.76,0,0,0-.88-.21h-2.45v-1.4h2.53a3.59,3.59,0,0,1,1.66.38,2.83,2.83,0,0,1,1.16,1.06,3.23,3.23,0,0,1,0,3.22,2.92,2.92,0,0,1-1.16,1.07,3.59,3.59,0,0,1-1.66.37Zm-1.11,3.7v-9.8h1.61V369Zm8.24,0v-6.72h1.54V369Zm1.54-3.74-.53-.26a3.49,3.49,0,0,1,.56-2.06,2,2,0,0,1,1.72-.8,2.21,2.21,0,0,1,.91.18,2.18,2.18,0,0,1,.76.59l-1,1a1,1,0,0,0-.4-.28,1.42,1.42,0,0,0-.52-.09,1.49,1.49,0,0,0-1.07.41A1.69,1.69,0,0,0,363.84,365.26Zm7,3.88a3.47,3.47,0,0,1-1.78-.46,3.54,3.54,0,0,1-1.27-1.28,3.44,3.44,0,0,1-.47-1.77,3.39,3.39,0,0,1,.47-1.77,3.43,3.43,0,0,1,1.27-1.24,3.39,3.39,0,0,1,1.78-.48,3.44,3.44,0,0,1,3.05,1.72,3.31,3.31,0,0,1,.48,1.77,3.36,3.36,0,0,1-.48,1.77,3.41,3.41,0,0,1-3.05,1.74Zm0-1.48a2,2,0,0,0,1-.26,1.69,1.69,0,0,0,.68-.72,2.15,2.15,0,0,0,.26-1.05,2.06,2.06,0,0,0-.26-1,1.83,1.83,0,0,0-.68-.7,1.88,1.88,0,0,0-1-.27,1.93,1.93,0,0,0-1,.27,1.86,1.86,0,0,0-.69.7,2.28,2.28,0,0,0-.23,1,2.38,2.38,0,0,0,.23,1.05,1.91,1.91,0,0,0,.69.72A2,2,0,0,0,370.88,367.66Zm7.61,4.28a4.18,4.18,0,0,1-1.86-.39,3.17,3.17,0,0,1-1.29-1.08l1-1a2.64,2.64,0,0,0,.92.76,2.79,2.79,0,0,0,1.25.25A2.09,2.09,0,0,0,380,370a1.59,1.59,0,0,0,.53-1.27v-1.65l.27-1.49-.27-1.49v-1.81H382v6.44a3.1,3.1,0,0,1-.45,1.68,3,3,0,0,1-1.24,1.13A4.06,4.06,0,0,1,378.49,371.94Zm-.07-3.08a3.13,3.13,0,0,1-1.63-.43,3.32,3.32,0,0,1-1.13-1.22,3.67,3.67,0,0,1-.41-1.72,3.54,3.54,0,0,1,.41-1.71,3.16,3.16,0,0,1,1.13-1.19,3.05,3.05,0,0,1,1.63-.45,3,3,0,0,1,1.4.32,2.47,2.47,0,0,1,.94.9,2.52,2.52,0,0,1,.33,1.31v1.66a2.46,2.46,0,0,1-1.29,2.21A2.93,2.93,0,0,1,378.42,368.86Zm.31-1.46a2.06,2.06,0,0,0,1-.23,1.63,1.63,0,0,0,.64-.66,2.07,2.07,0,0,0,.24-1,2,2,0,0,0-.24-1,1.62,1.62,0,0,0-.64-.68,2.06,2.06,0,0,0-1-.23,2.14,2.14,0,0,0-1,.23,1.73,1.73,0,0,0-.66.68,2.07,2.07,0,0,0-.23,1,2.13,2.13,0,0,0,.23,1,1.73,1.73,0,0,0,.66.68A2.14,2.14,0,0,0,378.73,367.4Zm5,1.6v-6.72h1.54V369Zm1.54-3.74-.53-.26a3.42,3.42,0,0,1,.56-2.06,2,2,0,0,1,1.72-.8,2.21,2.21,0,0,1,.91.18,2.27,2.27,0,0,1,.76.59l-1,1a1,1,0,0,0-.41-.28,1.36,1.36,0,0,0-.51-.09,1.47,1.47,0,0,0-1.07.41A1.69,1.69,0,0,0,385.28,365.26Zm6.77,3.88a3,3,0,0,1-1.65-.46,3.4,3.4,0,0,1-1.16-1.25,3.74,3.74,0,0,1-.42-1.78,3.67,3.67,0,0,1,.42-1.77,3.21,3.21,0,0,1,1.16-1.26,3,3,0,0,1,1.65-.48,2.64,2.64,0,0,1,1.36.34,2.4,2.4,0,0,1,.95.89,2.48,2.48,0,0,1,.35,1.3v1.94a2.49,2.49,0,0,1-1.29,2.21A2.91,2.91,0,0,1,392.05,369.14Zm.25-1.46a1.75,1.75,0,0,0,1.37-.57,2.05,2.05,0,0,0,.54-1.47,2.24,2.24,0,0,0-.24-1.06,1.73,1.73,0,0,0-.67-.72,2,2,0,0,0-2,0,1.79,1.79,0,0,0-.67.72,2.46,2.46,0,0,0,0,2.12,1.89,1.89,0,0,0,.67.73A1.92,1.92,0,0,0,392.3,367.68Zm1.81,1.32v-1.81l.27-1.63-.27-1.63v-1.65h1.54V369Zm3.25,0v-6.72h1.54V369Zm4.46,0v-4a1.3,1.3,0,0,0-.42-1,1.49,1.49,0,0,0-1-.38,1.73,1.73,0,0,0-.76.17,1.43,1.43,0,0,0-.52.49,1.41,1.41,0,0,0-.19.76l-.6-.34a2.57,2.57,0,0,1,.33-1.33,2.45,2.45,0,0,1,.91-.87,2.8,2.8,0,0,1,2.58,0,2.3,2.3,0,0,1,.91.87,2.59,2.59,0,0,1,.33,1.34V369Zm4.47,0v-4a1.3,1.3,0,0,0-.42-1,1.51,1.51,0,0,0-1-.38,1.68,1.68,0,0,0-.74.17,1.32,1.32,0,0,0-.53.49,1.41,1.41,0,0,0-.2.76l-.86-.34a2.73,2.73,0,0,1,.44-1.33,2.73,2.73,0,0,1,2.29-1.19,2.72,2.72,0,0,1,1.31.31,2.32,2.32,0,0,1,.94.87,2.5,2.5,0,0,1,.35,1.34V369Zm5.94.14a3,3,0,0,1-1.65-.46,3.4,3.4,0,0,1-1.16-1.25,3.74,3.74,0,0,1-.42-1.78,3.67,3.67,0,0,1,.42-1.77,3.21,3.21,0,0,1,1.16-1.26,3,3,0,0,1,1.65-.48,2.64,2.64,0,0,1,1.36.34,2.4,2.4,0,0,1,1,.89,2.48,2.48,0,0,1,.35,1.3v1.94a2.49,2.49,0,0,1-1.29,2.21A2.91,2.91,0,0,1,412.23,369.14Zm.25-1.46a1.79,1.79,0,0,0,1.38-.57,2.09,2.09,0,0,0,.53-1.47,2.24,2.24,0,0,0-.24-1.06,1.73,1.73,0,0,0-.67-.72,2,2,0,0,0-2,0,1.79,1.79,0,0,0-.67.72,2.46,2.46,0,0,0,0,2.12,1.89,1.89,0,0,0,.67.73A1.92,1.92,0,0,0,412.48,367.68Zm1.81,1.32v-1.81l.26-1.63-.26-1.63v-1.65h1.54V369Zm7.52,0v-9.8h1.58V369Zm-2-8.36V359.2h3.4v1.44Z"/><path class="cls-3" d="M333,391h0a7,7,0,0,1,7,7h0a7,7,0,0,1-7,7h0a7,7,0,0,1-7-7h0A7,7,0,0,1,333,391Z"/><path class="cls-8" d="M355.17,399.3v-1.4h2.45a1.87,1.87,0,0,0,.88-.19,1.57,1.57,0,0,0,.62-.58,1.85,1.85,0,0,0,0-1.75,1.48,1.48,0,0,0-.62-.57,1.76,1.76,0,0,0-.88-.21h-2.45v-1.4h2.53a3.59,3.59,0,0,1,1.66.38,2.83,2.83,0,0,1,1.16,1.06,3.23,3.23,0,0,1,0,3.22,2.92,2.92,0,0,1-1.16,1.07,3.59,3.59,0,0,1-1.66.37Zm-1.11,3.7v-9.8h1.61V403Zm8.24,0v-6.72h1.54V403Zm1.54-3.74-.53-.26a3.49,3.49,0,0,1,.56-2.06,2,2,0,0,1,1.72-.8,2.21,2.21,0,0,1,.91.18,2.18,2.18,0,0,1,.76.59l-1,1a1,1,0,0,0-.4-.28,1.42,1.42,0,0,0-.52-.09,1.49,1.49,0,0,0-1.07.41A1.69,1.69,0,0,0,363.84,399.26Zm7,3.88a3.47,3.47,0,0,1-1.78-.46,3.54,3.54,0,0,1-1.27-1.28,3.44,3.44,0,0,1-.47-1.77,3.39,3.39,0,0,1,.47-1.77,3.43,3.43,0,0,1,1.27-1.24,3.39,3.39,0,0,1,1.78-.48,3.44,3.44,0,0,1,3.05,1.72,3.31,3.31,0,0,1,.48,1.77,3.36,3.36,0,0,1-.48,1.77,3.41,3.41,0,0,1-3.05,1.74Zm0-1.48a2,2,0,0,0,1-.26,1.69,1.69,0,0,0,.68-.72,2.15,2.15,0,0,0,.26-1.05,2.06,2.06,0,0,0-.26-1,1.83,1.83,0,0,0-.68-.7,1.88,1.88,0,0,0-1-.27,1.93,1.93,0,0,0-1,.27,1.86,1.86,0,0,0-.69.7,2.28,2.28,0,0,0-.23,1,2.38,2.38,0,0,0,.23,1.05,1.91,1.91,0,0,0,.69.72A2,2,0,0,0,370.88,401.66Zm7.61,4.28a4.18,4.18,0,0,1-1.86-.39,3.17,3.17,0,0,1-1.29-1.08l1-1a2.64,2.64,0,0,0,.92.76,2.79,2.79,0,0,0,1.25.25A2.09,2.09,0,0,0,380,404a1.59,1.59,0,0,0,.53-1.27v-1.65l.27-1.49-.27-1.49v-1.81H382v6.44a3.1,3.1,0,0,1-.45,1.68,3,3,0,0,1-1.24,1.13A4.06,4.06,0,0,1,378.49,405.94Zm-.07-3.08a3.13,3.13,0,0,1-1.63-.43,3.32,3.32,0,0,1-1.13-1.22,3.67,3.67,0,0,1-.41-1.72,3.54,3.54,0,0,1,.41-1.71,3.16,3.16,0,0,1,1.13-1.19,3.05,3.05,0,0,1,1.63-.45,3,3,0,0,1,1.4.32,2.47,2.47,0,0,1,.94.9,2.52,2.52,0,0,1,.33,1.31v1.66a2.46,2.46,0,0,1-1.29,2.21A2.93,2.93,0,0,1,378.42,402.86Zm.31-1.46a2.06,2.06,0,0,0,1-.23,1.63,1.63,0,0,0,.64-.66,2.07,2.07,0,0,0,.24-1,2,2,0,0,0-.24-1,1.62,1.62,0,0,0-.64-.68,2.06,2.06,0,0,0-1-.23,2.14,2.14,0,0,0-1,.23,1.73,1.73,0,0,0-.66.68,2.07,2.07,0,0,0-.23,1,2.13,2.13,0,0,0,.23,1,1.73,1.73,0,0,0,.66.68A2.14,2.14,0,0,0,378.73,401.4Zm5,1.6v-6.72h1.54V403Zm1.54-3.74-.53-.26a3.42,3.42,0,0,1,.56-2.06,2,2,0,0,1,1.72-.8,2.21,2.21,0,0,1,.91.18,2.27,2.27,0,0,1,.76.59l-1,1a1,1,0,0,0-.41-.28,1.36,1.36,0,0,0-.51-.09,1.47,1.47,0,0,0-1.07.41A1.69,1.69,0,0,0,385.28,399.26Zm6.77,3.88a3,3,0,0,1-1.65-.46,3.4,3.4,0,0,1-1.16-1.25,3.74,3.74,0,0,1-.42-1.78,3.67,3.67,0,0,1,.42-1.77,3.21,3.21,0,0,1,1.16-1.26,3,3,0,0,1,1.65-.48,2.64,2.64,0,0,1,1.36.34,2.4,2.4,0,0,1,.95.89,2.48,2.48,0,0,1,.35,1.3v1.94a2.49,2.49,0,0,1-1.29,2.21A2.91,2.91,0,0,1,392.05,403.14Zm.25-1.46a1.75,1.75,0,0,0,1.37-.57,2.05,2.05,0,0,0,.54-1.47,2.24,2.24,0,0,0-.24-1.06,1.73,1.73,0,0,0-.67-.72,2,2,0,0,0-2,0,1.79,1.79,0,0,0-.67.72,2.46,2.46,0,0,0,0,2.12,1.89,1.89,0,0,0,.67.73A1.92,1.92,0,0,0,392.3,401.68Zm1.81,1.32v-1.81l.27-1.63-.27-1.63v-1.65h1.54V403Zm3.25,0v-6.72h1.54V403Zm4.46,0v-4a1.3,1.3,0,0,0-.42-1,1.49,1.49,0,0,0-1-.38,1.73,1.73,0,0,0-.76.17,1.43,1.43,0,0,0-.52.49,1.41,1.41,0,0,0-.19.76l-.6-.34a2.57,2.57,0,0,1,.33-1.33,2.45,2.45,0,0,1,.91-.87,2.8,2.8,0,0,1,2.58,0,2.3,2.3,0,0,1,.91.87,2.59,2.59,0,0,1,.33,1.34V403Zm4.47,0v-4a1.3,1.3,0,0,0-.42-1,1.51,1.51,0,0,0-1-.38,1.68,1.68,0,0,0-.74.17,1.32,1.32,0,0,0-.53.49,1.41,1.41,0,0,0-.2.76l-.86-.34a2.73,2.73,0,0,1,.44-1.33,2.73,2.73,0,0,1,2.29-1.19,2.72,2.72,0,0,1,1.31.31,2.32,2.32,0,0,1,.94.87,2.5,2.5,0,0,1,.35,1.34V403Zm5.94.14a3,3,0,0,1-1.65-.46,3.4,3.4,0,0,1-1.16-1.25,3.74,3.74,0,0,1-.42-1.78,3.67,3.67,0,0,1,.42-1.77,3.21,3.21,0,0,1,1.16-1.26,3,3,0,0,1,1.65-.48,2.64,2.64,0,0,1,1.36.34,2.4,2.4,0,0,1,1,.89,2.48,2.48,0,0,1,.35,1.3v1.94a2.49,2.49,0,0,1-1.29,2.21A2.91,2.91,0,0,1,412.23,403.14Zm.25-1.46a1.79,1.79,0,0,0,1.38-.57,2.09,2.09,0,0,0,.53-1.47,2.24,2.24,0,0,0-.24-1.06,1.73,1.73,0,0,0-.67-.72,2,2,0,0,0-2,0,1.79,1.79,0,0,0-.67.72,2.46,2.46,0,0,0,0,2.12,1.89,1.89,0,0,0,.67.73A1.92,1.92,0,0,0,412.48,401.68Zm1.81,1.32v-1.81l.26-1.63-.26-1.63v-1.65h1.54V403Zm7.52,0v-9.8h1.58V403Zm-2-8.36V393.2h3.4v1.44Z"/><path class="cls-3" d="M333,425h0a7,7,0,0,1,7,7h0a7,7,0,0,1-7,7h0a7,7,0,0,1-7-7h0A7,7,0,0,1,333,425Z"/><path class="cls-8" d="M355.17,433.3v-1.4h2.45a1.87,1.87,0,0,0,.88-.19,1.57,1.57,0,0,0,.62-.58,1.85,1.85,0,0,0,0-1.75,1.48,1.48,0,0,0-.62-.57,1.76,1.76,0,0,0-.88-.21h-2.45v-1.4h2.53a3.59,3.59,0,0,1,1.66.38,2.83,2.83,0,0,1,1.16,1.06,3.23,3.23,0,0,1,0,3.22,2.92,2.92,0,0,1-1.16,1.07,3.59,3.59,0,0,1-1.66.37Zm-1.11,3.7v-9.8h1.61V437Zm8.24,0v-6.72h1.54V437Zm1.54-3.74-.53-.26a3.49,3.49,0,0,1,.56-2.06,2,2,0,0,1,1.72-.8,2.21,2.21,0,0,1,.91.18,2.18,2.18,0,0,1,.76.59l-1,1a1,1,0,0,0-.4-.28,1.42,1.42,0,0,0-.52-.09,1.49,1.49,0,0,0-1.07.41A1.69,1.69,0,0,0,363.84,433.26Zm7,3.88a3.47,3.47,0,0,1-1.78-.46,3.54,3.54,0,0,1-1.27-1.28,3.44,3.44,0,0,1-.47-1.77,3.39,3.39,0,0,1,.47-1.77,3.43,3.43,0,0,1,1.27-1.24,3.39,3.39,0,0,1,1.78-.48,3.44,3.44,0,0,1,3.05,1.72,3.31,3.31,0,0,1,.48,1.77,3.36,3.36,0,0,1-.48,1.77,3.41,3.41,0,0,1-3.05,1.74Zm0-1.48a2,2,0,0,0,1-.26,1.69,1.69,0,0,0,.68-.72,2.15,2.15,0,0,0,.26-1.05,2.06,2.06,0,0,0-.26-1,1.83,1.83,0,0,0-.68-.7,1.88,1.88,0,0,0-1-.27,1.93,1.93,0,0,0-1,.27,1.86,1.86,0,0,0-.69.7,2.28,2.28,0,0,0-.23,1,2.38,2.38,0,0,0,.23,1.05,1.91,1.91,0,0,0,.69.72A2,2,0,0,0,370.88,435.66Zm7.61,4.28a4.18,4.18,0,0,1-1.86-.39,3.17,3.17,0,0,1-1.29-1.08l1-1a2.64,2.64,0,0,0,.92.76,2.79,2.79,0,0,0,1.25.25A2.09,2.09,0,0,0,380,438a1.59,1.59,0,0,0,.53-1.27v-1.65l.27-1.49-.27-1.49v-1.81H382v6.44a3.1,3.1,0,0,1-.45,1.68,3,3,0,0,1-1.24,1.13A4.06,4.06,0,0,1,378.49,439.94Zm-.07-3.08a3.13,3.13,0,0,1-1.63-.43,3.32,3.32,0,0,1-1.13-1.22,3.67,3.67,0,0,1-.41-1.72,3.54,3.54,0,0,1,.41-1.71,3.16,3.16,0,0,1,1.13-1.19,3.05,3.05,0,0,1,1.63-.45,3,3,0,0,1,1.4.32,2.47,2.47,0,0,1,.94.9,2.52,2.52,0,0,1,.33,1.31v1.66a2.46,2.46,0,0,1-1.29,2.21A2.93,2.93,0,0,1,378.42,436.86Zm.31-1.46a2.06,2.06,0,0,0,1-.23,1.63,1.63,0,0,0,.64-.66,2.07,2.07,0,0,0,.24-1,2,2,0,0,0-.24-1,1.62,1.62,0,0,0-.64-.68,2.06,2.06,0,0,0-1-.23,2.14,2.14,0,0,0-1,.23,1.73,1.73,0,0,0-.66.68,2.07,2.07,0,0,0-.23,1,2.13,2.13,0,0,0,.23,1,1.73,1.73,0,0,0,.66.68A2.14,2.14,0,0,0,378.73,435.4Zm5,1.6v-6.72h1.54V437Zm1.54-3.74-.53-.26a3.42,3.42,0,0,1,.56-2.06,2,2,0,0,1,1.72-.8,2.21,2.21,0,0,1,.91.18,2.27,2.27,0,0,1,.76.59l-1,1a1,1,0,0,0-.41-.28,1.36,1.36,0,0,0-.51-.09,1.47,1.47,0,0,0-1.07.41A1.69,1.69,0,0,0,385.28,433.26Zm6.77,3.88a3,3,0,0,1-1.65-.46,3.4,3.4,0,0,1-1.16-1.25,3.74,3.74,0,0,1-.42-1.78,3.67,3.67,0,0,1,.42-1.77,3.21,3.21,0,0,1,1.16-1.26,3,3,0,0,1,1.65-.48,2.64,2.64,0,0,1,1.36.34,2.4,2.4,0,0,1,.95.89,2.48,2.48,0,0,1,.35,1.3v1.94a2.49,2.49,0,0,1-1.29,2.21A2.91,2.91,0,0,1,392.05,437.14Zm.25-1.46a1.75,1.75,0,0,0,1.37-.57,2.05,2.05,0,0,0,.54-1.47,2.24,2.24,0,0,0-.24-1.06,1.73,1.73,0,0,0-.67-.72,2,2,0,0,0-2,0,1.79,1.79,0,0,0-.67.72,2.46,2.46,0,0,0,0,2.12,1.89,1.89,0,0,0,.67.73A1.92,1.92,0,0,0,392.3,435.68Zm1.81,1.32v-1.81l.27-1.63-.27-1.63v-1.65h1.54V437Zm3.25,0v-6.72h1.54V437Zm4.46,0v-4a1.3,1.3,0,0,0-.42-1,1.49,1.49,0,0,0-1-.38,1.73,1.73,0,0,0-.76.17,1.43,1.43,0,0,0-.52.49,1.41,1.41,0,0,0-.19.76l-.6-.34a2.57,2.57,0,0,1,.33-1.33,2.45,2.45,0,0,1,.91-.87,2.8,2.8,0,0,1,2.58,0,2.3,2.3,0,0,1,.91.87,2.59,2.59,0,0,1,.33,1.34V437Zm4.47,0v-4a1.3,1.3,0,0,0-.42-1,1.51,1.51,0,0,0-1-.38,1.68,1.68,0,0,0-.74.17,1.32,1.32,0,0,0-.53.49,1.41,1.41,0,0,0-.2.76l-.86-.34a2.73,2.73,0,0,1,.44-1.33,2.73,2.73,0,0,1,2.29-1.19,2.72,2.72,0,0,1,1.31.31,2.32,2.32,0,0,1,.94.87,2.5,2.5,0,0,1,.35,1.34V437Zm5.94.14a3,3,0,0,1-1.65-.46,3.4,3.4,0,0,1-1.16-1.25,3.74,3.74,0,0,1-.42-1.78,3.67,3.67,0,0,1,.42-1.77,3.21,3.21,0,0,1,1.16-1.26,3,3,0,0,1,1.65-.48,2.64,2.64,0,0,1,1.36.34,2.4,2.4,0,0,1,1,.89,2.48,2.48,0,0,1,.35,1.3v1.94a2.49,2.49,0,0,1-1.29,2.21A2.91,2.91,0,0,1,412.23,437.14Zm.25-1.46a1.79,1.79,0,0,0,1.38-.57,2.09,2.09,0,0,0,.53-1.47,2.24,2.24,0,0,0-.24-1.06,1.73,1.73,0,0,0-.67-.72,2,2,0,0,0-2,0,1.79,1.79,0,0,0-.67.72,2.46,2.46,0,0,0,0,2.12,1.89,1.89,0,0,0,.67.73A1.92,1.92,0,0,0,412.48,435.68Zm1.81,1.32v-1.81l.26-1.63-.26-1.63v-1.65h1.54V437Zm7.52,0v-9.8h1.58V437Zm-2-8.36V427.2h3.4v1.44Z"/><path class="cls-3" d="M333,459h0a7,7,0,0,1,7,7h0a7,7,0,0,1-7,7h0a7,7,0,0,1-7-7h0A7,7,0,0,1,333,459Z"/><path class="cls-8" d="M355.17,467.3v-1.4h2.45a1.87,1.87,0,0,0,.88-.19,1.57,1.57,0,0,0,.62-.58,1.85,1.85,0,0,0,0-1.75,1.48,1.48,0,0,0-.62-.57,1.76,1.76,0,0,0-.88-.21h-2.45v-1.4h2.53a3.59,3.59,0,0,1,1.66.38,2.83,2.83,0,0,1,1.16,1.06,3.23,3.23,0,0,1,0,3.22,2.92,2.92,0,0,1-1.16,1.07,3.59,3.59,0,0,1-1.66.37Zm-1.11,3.7v-9.8h1.61V471Zm8.24,0v-6.72h1.54V471Zm1.54-3.74-.53-.26a3.49,3.49,0,0,1,.56-2.06,2,2,0,0,1,1.72-.8,2.21,2.21,0,0,1,.91.18,2.18,2.18,0,0,1,.76.59l-1,1a1,1,0,0,0-.4-.28,1.42,1.42,0,0,0-.52-.09,1.49,1.49,0,0,0-1.07.41A1.69,1.69,0,0,0,363.84,467.26Zm7,3.88a3.47,3.47,0,0,1-1.78-.46,3.54,3.54,0,0,1-1.27-1.28,3.44,3.44,0,0,1-.47-1.77,3.39,3.39,0,0,1,.47-1.77,3.43,3.43,0,0,1,1.27-1.24,3.39,3.39,0,0,1,1.78-.48,3.44,3.44,0,0,1,3.05,1.72,3.31,3.31,0,0,1,.48,1.77,3.36,3.36,0,0,1-.48,1.77,3.41,3.41,0,0,1-3.05,1.74Zm0-1.48a2,2,0,0,0,1-.26,1.69,1.69,0,0,0,.68-.72,2.15,2.15,0,0,0,.26-1.05,2.06,2.06,0,0,0-.26-1,1.83,1.83,0,0,0-.68-.7,1.88,1.88,0,0,0-1-.27,1.93,1.93,0,0,0-1,.27,1.86,1.86,0,0,0-.69.7,2.28,2.28,0,0,0-.23,1,2.38,2.38,0,0,0,.23,1.05,1.91,1.91,0,0,0,.69.72A2,2,0,0,0,370.88,469.66Zm7.61,4.28a4.18,4.18,0,0,1-1.86-.39,3.17,3.17,0,0,1-1.29-1.08l1-1a2.64,2.64,0,0,0,.92.76,2.79,2.79,0,0,0,1.25.25A2.09,2.09,0,0,0,380,472a1.59,1.59,0,0,0,.53-1.27v-1.65l.27-1.49-.27-1.49v-1.81H382v6.44a3.1,3.1,0,0,1-.45,1.68,3,3,0,0,1-1.24,1.13A4.06,4.06,0,0,1,378.49,473.94Zm-.07-3.08a3.13,3.13,0,0,1-1.63-.43,3.32,3.32,0,0,1-1.13-1.22,3.67,3.67,0,0,1-.41-1.72,3.54,3.54,0,0,1,.41-1.71,3.16,3.16,0,0,1,1.13-1.19,3.05,3.05,0,0,1,1.63-.45,3,3,0,0,1,1.4.32,2.47,2.47,0,0,1,.94.9,2.52,2.52,0,0,1,.33,1.31v1.66a2.46,2.46,0,0,1-1.29,2.21A2.93,2.93,0,0,1,378.42,470.86Zm.31-1.46a2.06,2.06,0,0,0,1-.23,1.63,1.63,0,0,0,.64-.66,2.07,2.07,0,0,0,.24-1,2,2,0,0,0-.24-1,1.62,1.62,0,0,0-.64-.68,2.06,2.06,0,0,0-1-.23,2.14,2.14,0,0,0-1,.23,1.73,1.73,0,0,0-.66.68,2.07,2.07,0,0,0-.23,1,2.13,2.13,0,0,0,.23,1,1.73,1.73,0,0,0,.66.68A2.14,2.14,0,0,0,378.73,469.4Zm5,1.6v-6.72h1.54V471Zm1.54-3.74-.53-.26a3.42,3.42,0,0,1,.56-2.06,2,2,0,0,1,1.72-.8,2.21,2.21,0,0,1,.91.18,2.27,2.27,0,0,1,.76.59l-1,1a1,1,0,0,0-.41-.28,1.36,1.36,0,0,0-.51-.09,1.47,1.47,0,0,0-1.07.41A1.69,1.69,0,0,0,385.28,467.26Zm6.77,3.88a3,3,0,0,1-1.65-.46,3.4,3.4,0,0,1-1.16-1.25,3.74,3.74,0,0,1-.42-1.78,3.67,3.67,0,0,1,.42-1.77,3.21,3.21,0,0,1,1.16-1.26,3,3,0,0,1,1.65-.48,2.64,2.64,0,0,1,1.36.34,2.4,2.4,0,0,1,.95.89,2.48,2.48,0,0,1,.35,1.3v1.94a2.49,2.49,0,0,1-1.29,2.21A2.91,2.91,0,0,1,392.05,471.14Zm.25-1.46a1.75,1.75,0,0,0,1.37-.57,2.05,2.05,0,0,0,.54-1.47,2.24,2.24,0,0,0-.24-1.06,1.73,1.73,0,0,0-.67-.72,2,2,0,0,0-2,0,1.79,1.79,0,0,0-.67.72,2.46,2.46,0,0,0,0,2.12,1.89,1.89,0,0,0,.67.73A1.92,1.92,0,0,0,392.3,469.68Zm1.81,1.32v-1.81l.27-1.63-.27-1.63v-1.65h1.54V471Zm3.25,0v-6.72h1.54V471Zm4.46,0v-4a1.3,1.3,0,0,0-.42-1,1.49,1.49,0,0,0-1-.38,1.73,1.73,0,0,0-.76.17,1.43,1.43,0,0,0-.52.49,1.41,1.41,0,0,0-.19.76l-.6-.34a2.57,2.57,0,0,1,.33-1.33,2.45,2.45,0,0,1,.91-.87,2.8,2.8,0,0,1,2.58,0,2.3,2.3,0,0,1,.91.87,2.59,2.59,0,0,1,.33,1.34V471Zm4.47,0v-4a1.3,1.3,0,0,0-.42-1,1.51,1.51,0,0,0-1-.38,1.68,1.68,0,0,0-.74.17,1.32,1.32,0,0,0-.53.49,1.41,1.41,0,0,0-.2.76l-.86-.34a2.73,2.73,0,0,1,.44-1.33,2.73,2.73,0,0,1,2.29-1.19,2.72,2.72,0,0,1,1.31.31,2.32,2.32,0,0,1,.94.87,2.5,2.5,0,0,1,.35,1.34V471Zm5.94.14a3,3,0,0,1-1.65-.46,3.4,3.4,0,0,1-1.16-1.25,3.74,3.74,0,0,1-.42-1.78,3.67,3.67,0,0,1,.42-1.77,3.21,3.21,0,0,1,1.16-1.26,3,3,0,0,1,1.65-.48,2.64,2.64,0,0,1,1.36.34,2.4,2.4,0,0,1,1,.89,2.48,2.48,0,0,1,.35,1.3v1.94a2.49,2.49,0,0,1-1.29,2.21A2.91,2.91,0,0,1,412.23,471.14Zm.25-1.46a1.79,1.79,0,0,0,1.38-.57,2.09,2.09,0,0,0,.53-1.47,2.24,2.24,0,0,0-.24-1.06,1.73,1.73,0,0,0-.67-.72,2,2,0,0,0-2,0,1.79,1.79,0,0,0-.67.72,2.46,2.46,0,0,0,0,2.12,1.89,1.89,0,0,0,.67.73A1.92,1.92,0,0,0,412.48,469.68Zm1.81,1.32v-1.81l.26-1.63-.26-1.63v-1.65h1.54V471Zm7.52,0v-9.8h1.58V471Zm-2-8.36V461.2h3.4v1.44Z"/><path class="cls-9" d="M352.38,508,357,496.8h1.28l4.58,11.2h-2l-3.58-9.07H358L354.34,508Zm2.28-2.16v-1.6h5.93v1.6ZM369.47,508v-4.43a1.73,1.73,0,0,0-.49-1.27,1.66,1.66,0,0,0-1.25-.49,1.8,1.8,0,0,0-.91.22,1.59,1.59,0,0,0-.63.63,1.91,1.91,0,0,0-.22.91l-.69-.39a3.05,3.05,0,0,1,.39-1.55,2.7,2.7,0,0,1,1.05-1.07,3,3,0,0,1,1.54-.4,2.67,2.67,0,0,1,1.53.45,3.11,3.11,0,0,1,1.06,1.13,2.87,2.87,0,0,1,.38,1.44V508Zm-5.26,0v-7.68H366V508Zm4.59-8.78a1.86,1.86,0,0,1-.89-.2c-.25-.12-.48-.25-.69-.36a1.24,1.24,0,0,0-.69-.2,1.19,1.19,0,0,0-.64.15,1.66,1.66,0,0,0-.46.43l-.95-.94a4.71,4.71,0,0,1,.93-.84,1.89,1.89,0,0,1,1.09-.32,1.86,1.86,0,0,1,.89.2,7.38,7.38,0,0,1,.69.36,1.32,1.32,0,0,0,.69.2,1.24,1.24,0,0,0,.66-.15,1.38,1.38,0,0,0,.44-.43l.95.94a4.78,4.78,0,0,1-.93.85A2,2,0,0,1,368.8,499.22Zm7.44,8.94a3.55,3.55,0,0,1-1.89-.53,3.87,3.87,0,0,1-1.33-1.42,4.31,4.31,0,0,1-.48-2,4.27,4.27,0,0,1,.48-2,4,4,0,0,1,1.33-1.44,3.47,3.47,0,0,1,1.89-.54,3.12,3.12,0,0,1,1.55.38,2.84,2.84,0,0,1,1.09,1,2.77,2.77,0,0,1,.4,1.49v2.2a2.86,2.86,0,0,1-1.47,2.53A3.22,3.22,0,0,1,376.24,508.16Zm.29-1.66a2,2,0,0,0,1.57-.66,2.4,2.4,0,0,0,.6-1.68,2.67,2.67,0,0,0-.27-1.22,1.94,1.94,0,0,0-.77-.81,2.1,2.1,0,0,0-1.13-.31,2.13,2.13,0,0,0-1.91,1.12,2.89,2.89,0,0,0,0,2.44,2.28,2.28,0,0,0,.77.83A2.25,2.25,0,0,0,376.53,506.5Zm2.06,1.5v-2.06l.3-1.88-.3-1.85v-1.89h1.76V508Zm6.93.16a3.55,3.55,0,0,1-1.89-.53,4,4,0,0,1-1.33-1.42,4.31,4.31,0,0,1-.48-2,4.27,4.27,0,0,1,.48-2,4.1,4.1,0,0,1,1.33-1.44,3.47,3.47,0,0,1,1.89-.54,3.12,3.12,0,0,1,1.55.38,2.84,2.84,0,0,1,1.09,1,2.77,2.77,0,0,1,.4,1.49v2.2a2.86,2.86,0,0,1-1.47,2.53A3.22,3.22,0,0,1,385.52,508.16Zm.29-1.66a2.18,2.18,0,0,0,1.13-.29,2.06,2.06,0,0,0,.77-.83,2.89,2.89,0,0,0,0-2.44,1.94,1.94,0,0,0-.77-.81,2.1,2.1,0,0,0-1.13-.31,2.13,2.13,0,0,0-1.91,1.12,2.89,2.89,0,0,0,0,2.44,2.28,2.28,0,0,0,.77.83A2.25,2.25,0,0,0,385.81,506.5Zm3.82,1.5h-1.76v-2.06l.31-1.88-.31-1.85v-5.73h1.76Zm2,0v-7.68h1.76V508Zm.88-9.09a1,1,0,0,1-.75-.3,1.07,1.07,0,0,1-.29-.75,1.09,1.09,0,0,1,.29-.76,1,1,0,0,1,.75-.3,1,1,0,0,1,.75.3,1.09,1.09,0,0,1,.29.76,1.07,1.07,0,0,1-.29.75A1,1,0,0,1,392.48,498.91Zm2.85,9.09v-7.68h1.77V508Zm1.77-4.27-.61-.31a3.94,3.94,0,0,1,.64-2.35,2.26,2.26,0,0,1,2-.91,2.35,2.35,0,0,1,1.9.88l-1.15,1.18a1.31,1.31,0,0,0-.47-.32,1.74,1.74,0,0,0-.59-.09,1.64,1.64,0,0,0-1.21.46A2,2,0,0,0,397.1,503.73Z"/><path class="cls-9" d="M418,501.47,416.53,500,414,502.53,411.47,500,410,501.47l2.53,2.53L410,506.53l1.47,1.47,2.53-2.53,2.53,2.53,1.47-1.47L415.47,504Z"/></g></g></svg>