<svg xmlns="http://www.w3.org/2000/svg" xmlns:xlink="http://www.w3.org/1999/xlink" viewBox="0 0 1770 926"><defs><style>.cls-1,.cls-5{fill-opacity:0.46;}.cls-1{fill:url(#Degradado_sin_nombre_5);}.cls-2,.cls-6{fill-opacity:0.54;}.cls-2{fill:url(#Degradado_sin_nombre_2);}.cls-3{fill:none;}.cls-4{fill:#26bea1;fill-opacity:0.8;}.cls-5{fill:url(#Degradado_sin_nombre_3);}.cls-6{fill:url(#Degradado_sin_nombre_4);}</style><linearGradient id="Degradado_sin_nombre_5" x1="200.74" y1="-10700.28" x2="201.21" y2="-11270.33" gradientTransform="matrix(1, 0, 0, -1, -0.05, -10868.33)" gradientUnits="userSpaceOnUse"><stop offset="0" stop-opacity="0"/><stop offset="0.69" stop-color="#001a1f" stop-opacity="0.69"/><stop offset="0.82" stop-color="#002c35"/><stop offset="0.99" stop-color="#002c35"/></linearGradient><linearGradient id="Degradado_sin_nombre_2" x1="657.05" y1="-10868.33" x2="657.05" y2="-11270.33" gradientTransform="matrix(1, 0, 0, -1, -0.05, -10868.33)" gradientUnits="userSpaceOnUse"><stop offset="0" stop-opacity="0"/><stop offset="0.48" stop-color="#002c35"/><stop offset="0.73" stop-color="#002c35"/><stop offset="1" stop-color="#002c35"/></linearGradient><linearGradient id="Degradado_sin_nombre_3" x1="200.74" y1="-11224.28" x2="201.21" y2="-11794.33" gradientTransform="matrix(1, 0, 0, -1, -0.05, -10868.33)" gradientUnits="userSpaceOnUse"><stop offset="0" stop-opacity="0"/><stop offset="0.69" stop-color="#f4f4f4" stop-opacity="0.7"/><stop offset="0.82" stop-color="#f2f2f2"/><stop offset="0.99" stop-color="#e7e7e7"/></linearGradient><linearGradient id="Degradado_sin_nombre_4" x1="657.05" y1="-11392.33" x2="657.05" y2="-11794.33" gradientTransform="matrix(1, 0, 0, -1, -0.05, -10868.33)" gradientUnits="userSpaceOnUse"><stop offset="0" stop-opacity="0"/><stop offset="0.48" stop-color="#f4f4f4" stop-opacity="0.7"/><stop offset="0.73" stop-color="#f2f2f2"/><stop offset="1" stop-color="#e7e7e7"/></linearGradient></defs><g id="Capa_2" data-name="Capa 2"><g id="Capa_1-2" data-name="Capa 1"><rect class="cls-1" width="402" height="402"/><rect class="cls-2" x="456" width="402" height="402"/><rect class="cls-3" x="912" width="402" height="402"/><rect class="cls-4" x="1368" width="402" height="402"/><path d="M40.26,63a7.13,7.13,0,0,1-3.19-.67,5.54,5.54,0,0,1-2.21-1.85l1.73-1.73a4.64,4.64,0,0,0,1.59,1.3,4.79,4.79,0,0,0,2.13.43,3.53,3.53,0,0,0,2.47-.82,2.72,2.72,0,0,0,.92-2.18V54.69l.45-2.55-.45-2.56v-3.1h2.64v11a5.34,5.34,0,0,1-.77,2.88,5.22,5.22,0,0,1-2.14,1.94A6.82,6.82,0,0,1,40.26,63Zm-.12-5.28A5.38,5.38,0,0,1,37.36,57a5.58,5.58,0,0,1-1.94-2.09,6.18,6.18,0,0,1-.7-3,6,6,0,0,1,.7-2.93,5.29,5.29,0,0,1,1.94-2,5.22,5.22,0,0,1,2.78-.77,5,5,0,0,1,2.4.55,4,4,0,0,1,1.61,1.54,4.24,4.24,0,0,1,.58,2.25v2.84a4.23,4.23,0,0,1-.6,2.25,4,4,0,0,1-1.61,1.54A5,5,0,0,1,40.14,57.76Zm.53-2.5a3.37,3.37,0,0,0,1.68-.4,2.87,2.87,0,0,0,1.11-1.13,3.56,3.56,0,0,0,.4-1.73,3.39,3.39,0,0,0-.4-1.7,2.82,2.82,0,0,0-1.11-1.16,3.37,3.37,0,0,0-1.68-.4,3.47,3.47,0,0,0-1.7.4,2.93,2.93,0,0,0-1.13,1.16,3.4,3.4,0,0,0-.41,1.7,3.48,3.48,0,0,0,.41,1.7A2.93,2.93,0,0,0,39,54.86,3.47,3.47,0,0,0,40.67,55.26ZM49.27,58V46.48h2.64V58Zm2.64-6.41L51,51.14a5.92,5.92,0,0,1,1-3.53,3.4,3.4,0,0,1,2.95-1.37,3.78,3.78,0,0,1,1.56.31,3.86,3.86,0,0,1,1.29,1L56,49.34a1.7,1.7,0,0,0-.7-.48,2.44,2.44,0,0,0-.89-.15,2.5,2.5,0,0,0-1.82.7A2.91,2.91,0,0,0,51.91,51.59Zm11.6,6.65a5.23,5.23,0,0,1-2.83-.79,5.86,5.86,0,0,1-2-2.14A6.45,6.45,0,0,1,58,52.26a6.32,6.32,0,0,1,.72-3,5.69,5.69,0,0,1,2-2.16,5.09,5.09,0,0,1,2.83-.82,4.55,4.55,0,0,1,2.33.58,4.14,4.14,0,0,1,1.63,1.53,4.21,4.21,0,0,1,.6,2.23V53.9a4.21,4.21,0,0,1-.6,2.23,4.28,4.28,0,0,1-1.6,1.56A4.92,4.92,0,0,1,63.51,58.24Zm.44-2.5a3,3,0,0,0,2.35-1,3.56,3.56,0,0,0,.91-2.52,3.91,3.91,0,0,0-.41-1.82,2.91,2.91,0,0,0-1.15-1.23,3.15,3.15,0,0,0-1.7-.45,3.26,3.26,0,0,0-1.71.45,3.18,3.18,0,0,0-1.15,1.23,4.24,4.24,0,0,0,0,3.64,3.31,3.31,0,0,0,1.15,1.25A3.34,3.34,0,0,0,64,55.74ZM67,58V54.9l.46-2.8L67,49.31V46.48h2.64V58Zm10.4.24a5.26,5.26,0,0,1-2.84-.79,5.86,5.86,0,0,1-2-2.14,6.45,6.45,0,0,1-.72-3.05,6.32,6.32,0,0,1,.72-3,5.69,5.69,0,0,1,2-2.16,5.12,5.12,0,0,1,2.84-.82,4.52,4.52,0,0,1,2.32.58A4.14,4.14,0,0,1,82,50.58V53.9a4.21,4.21,0,0,1-.6,2.23,4.31,4.31,0,0,1-1.61,1.56A4.88,4.88,0,0,1,77.44,58.24Zm.43-2.5a3.23,3.23,0,0,0,1.7-.43,3,3,0,0,0,1.15-1.25,4.24,4.24,0,0,0,0-3.64,2.91,2.91,0,0,0-1.15-1.23,3.15,3.15,0,0,0-1.7-.45,3.26,3.26,0,0,0-1.71.45A3.18,3.18,0,0,0,75,50.42a4.24,4.24,0,0,0,0,3.64,3.31,3.31,0,0,0,1.15,1.25A3.34,3.34,0,0,0,77.87,55.74ZM83.6,58H81V54.9l.46-2.8L81,49.31V40.72H83.6Zm3,0V46.48H89.2V58Zm1.32-13.63a1.51,1.51,0,0,1-1.13-.46,1.69,1.69,0,0,1,0-2.25,1.51,1.51,0,0,1,1.13-.46,1.48,1.48,0,0,1,1.13.46,1.69,1.69,0,0,1,0,2.25A1.48,1.48,0,0,1,87.88,44.37Zm9.63,13.87a6.38,6.38,0,0,1-3.12-.77,5.87,5.87,0,0,1-3-5.23,5.88,5.88,0,0,1,.79-3.05,5.81,5.81,0,0,1,5.16-2.95,5.4,5.4,0,0,1,2.83.74,5.21,5.21,0,0,1,1.94,2,6,6,0,0,1,.72,3,4.22,4.22,0,0,1,0,.6,6.36,6.36,0,0,1-.1.64H93.26V51.06h8.09l-1,.87a4.53,4.53,0,0,0-.41-1.78,2.5,2.5,0,0,0-1-1.1,3.07,3.07,0,0,0-1.61-.39,3.39,3.39,0,0,0-1.75.44,2.83,2.83,0,0,0-1.15,1.22A3.8,3.8,0,0,0,94,52.17a3.93,3.93,0,0,0,.43,1.89,3.2,3.2,0,0,0,1.22,1.28,3.86,3.86,0,0,0,1.83.43,4.34,4.34,0,0,0,1.63-.31,3.54,3.54,0,0,0,1.3-.92l1.68,1.71a5.5,5.5,0,0,1-2,1.49A6.62,6.62,0,0,1,97.51,58.24ZM112.88,58V51.35a2.53,2.53,0,0,0-.75-1.89,2.47,2.47,0,0,0-1.87-.75,2.7,2.7,0,0,0-1.37.34A2.31,2.31,0,0,0,108,50a2.7,2.7,0,0,0-.34,1.37l-1-.57a4.65,4.65,0,0,1,.57-2.33,4.17,4.17,0,0,1,1.59-1.61,4.49,4.49,0,0,1,2.3-.6,4.06,4.06,0,0,1,2.31.67,4.56,4.56,0,0,1,1.58,1.71,4.37,4.37,0,0,1,.58,2.16V58ZM105,58V46.48h2.64V58Zm14.83,0V41.68h2.64V58Zm-2.76-9.12v-2.4h8.16v2.4ZM134.45,58V41.2h2.71V58Zm-3.36-14.33V41.2h5.84v2.47Z"/><path d="M498.26,63a7.13,7.13,0,0,1-3.19-.67,5.54,5.54,0,0,1-2.21-1.85l1.73-1.73a4.64,4.64,0,0,0,1.59,1.3,4.79,4.79,0,0,0,2.13.43,3.53,3.53,0,0,0,2.47-.82,2.72,2.72,0,0,0,.92-2.18V54.69l.45-2.55-.45-2.56v-3.1h2.64v11a5.34,5.34,0,0,1-.77,2.88,5.22,5.22,0,0,1-2.14,1.94A6.82,6.82,0,0,1,498.26,63Zm-.12-5.28a5.38,5.38,0,0,1-2.78-.74,5.58,5.58,0,0,1-1.94-2.09,6.18,6.18,0,0,1-.7-3,6,6,0,0,1,.7-2.93,5.29,5.29,0,0,1,1.94-2,5.22,5.22,0,0,1,2.78-.77,5,5,0,0,1,2.4.55,4,4,0,0,1,1.61,1.54,4.24,4.24,0,0,1,.58,2.25v2.84a4.23,4.23,0,0,1-.6,2.25,4,4,0,0,1-1.61,1.54A5,5,0,0,1,498.14,57.76Zm.53-2.5a3.37,3.37,0,0,0,1.68-.4,2.87,2.87,0,0,0,1.11-1.13,3.56,3.56,0,0,0,.4-1.73,3.39,3.39,0,0,0-.4-1.7,2.82,2.82,0,0,0-1.11-1.16,3.37,3.37,0,0,0-1.68-.4,3.47,3.47,0,0,0-1.7.4,2.93,2.93,0,0,0-1.13,1.16,3.4,3.4,0,0,0-.41,1.7,3.48,3.48,0,0,0,.41,1.7A2.93,2.93,0,0,0,497,54.86,3.47,3.47,0,0,0,498.67,55.26Zm8.6,2.74V46.48h2.64V58Zm2.64-6.41-.91-.45a5.92,5.92,0,0,1,1-3.53,3.4,3.4,0,0,1,2.95-1.37,3.75,3.75,0,0,1,1.56.31,4,4,0,0,1,1.3,1L514,49.34a1.7,1.7,0,0,0-.7-.48,2.4,2.4,0,0,0-.89-.15,2.5,2.5,0,0,0-1.82.7A2.91,2.91,0,0,0,509.91,51.59Zm11.61,6.65a5.24,5.24,0,0,1-2.84-.79,5.86,5.86,0,0,1-2-2.14,6.45,6.45,0,0,1-.72-3.05,6.32,6.32,0,0,1,.72-3,5.69,5.69,0,0,1,2-2.16,5.1,5.1,0,0,1,2.84-.82,4.52,4.52,0,0,1,2.32.58,4.08,4.08,0,0,1,1.63,1.53,4.13,4.13,0,0,1,.61,2.23V53.9a4.13,4.13,0,0,1-.61,2.23,4.28,4.28,0,0,1-1.6,1.56A4.88,4.88,0,0,1,521.52,58.24Zm.43-2.5a3,3,0,0,0,2.35-1,3.56,3.56,0,0,0,.91-2.52,3.79,3.79,0,0,0-.41-1.82,2.91,2.91,0,0,0-1.15-1.23,3.15,3.15,0,0,0-1.7-.45,3.26,3.26,0,0,0-1.71.45,3.18,3.18,0,0,0-1.15,1.23,4.24,4.24,0,0,0,0,3.64,3.31,3.31,0,0,0,1.15,1.25A3.34,3.34,0,0,0,522,55.74ZM525,58V54.9l.46-2.8L525,49.31V46.48h2.64V58Zm10.4.24a5.26,5.26,0,0,1-2.84-.79,5.86,5.86,0,0,1-2-2.14,6.45,6.45,0,0,1-.72-3.05,6.32,6.32,0,0,1,.72-3,5.69,5.69,0,0,1,2-2.16,5.12,5.12,0,0,1,2.84-.82,4.52,4.52,0,0,1,2.32.58A4.14,4.14,0,0,1,540,50.58V53.9a4.21,4.21,0,0,1-.6,2.23,4.31,4.31,0,0,1-1.61,1.56A4.88,4.88,0,0,1,535.44,58.24Zm.43-2.5a3.23,3.23,0,0,0,1.7-.43,3,3,0,0,0,1.15-1.25,4.24,4.24,0,0,0,0-3.64,2.91,2.91,0,0,0-1.15-1.23,3.15,3.15,0,0,0-1.7-.45,3.26,3.26,0,0,0-1.71.45A3.18,3.18,0,0,0,533,50.42a4.24,4.24,0,0,0,0,3.64,3.31,3.31,0,0,0,1.15,1.25A3.34,3.34,0,0,0,535.87,55.74ZM541.6,58H539V54.9l.46-2.8L539,49.31V40.72h2.64Zm3,0V46.48h2.64V58Zm1.32-13.63a1.51,1.51,0,0,1-1.13-.46,1.69,1.69,0,0,1,0-2.25,1.51,1.51,0,0,1,1.13-.46,1.48,1.48,0,0,1,1.13.46,1.69,1.69,0,0,1,0,2.25A1.48,1.48,0,0,1,545.88,44.37Zm9.63,13.87a6.38,6.38,0,0,1-3.12-.77,5.9,5.9,0,0,1-3-5.23,5.87,5.87,0,0,1,6-6,5.4,5.4,0,0,1,2.83.74,5.21,5.21,0,0,1,1.94,2,6,6,0,0,1,.72,3,4.22,4.22,0,0,1,0,.6,6.36,6.36,0,0,1-.1.64h-9.46V51.06h8.09l-1,.87a4.37,4.37,0,0,0-.41-1.78,2.5,2.5,0,0,0-1-1.1,3.1,3.1,0,0,0-1.61-.39,3.39,3.39,0,0,0-1.75.44,2.91,2.91,0,0,0-1.16,1.22,4.42,4.42,0,0,0,0,3.74,3.2,3.2,0,0,0,1.22,1.28,3.86,3.86,0,0,0,1.83.43,4.34,4.34,0,0,0,1.63-.31,3.43,3.43,0,0,0,1.29-.92l1.68,1.71a5.5,5.5,0,0,1-2,1.49A6.54,6.54,0,0,1,555.51,58.24ZM570.88,58V51.35a2.53,2.53,0,0,0-.75-1.89,2.47,2.47,0,0,0-1.87-.75,2.7,2.7,0,0,0-1.37.34A2.31,2.31,0,0,0,566,50a2.7,2.7,0,0,0-.34,1.37l-1-.57a4.65,4.65,0,0,1,.57-2.33,4.17,4.17,0,0,1,1.59-1.61,4.49,4.49,0,0,1,2.3-.6,4.06,4.06,0,0,1,2.31.67,4.56,4.56,0,0,1,1.58,1.71,4.37,4.37,0,0,1,.58,2.16V58ZM563,58V46.48h2.64V58Zm14.83,0V41.68h2.64V58Zm-2.76-9.12v-2.4h8.16v2.4Zm14.09,7.49,6.19-6.58a16.82,16.82,0,0,0,1.25-1.46,5.22,5.22,0,0,0,.7-1.23,3.36,3.36,0,0,0,.21-1.17,2.17,2.17,0,0,0-.74-1.75,2.63,2.63,0,0,0-1.85-.65,3.75,3.75,0,0,0-2.11.6A5.25,5.25,0,0,0,591.16,46l-1.92-1.58a6.84,6.84,0,0,1,2.42-2.57A6.24,6.24,0,0,1,595,41a5.79,5.79,0,0,1,2.73.62,4.44,4.44,0,0,1,1.83,1.76,5,5,0,0,1,.65,2.56,6.18,6.18,0,0,1-.27,1.9,5.65,5.65,0,0,1-.84,1.66,21.77,21.77,0,0,1-1.65,1.92l-4.76,4.92Zm0,1.63V56.37l2.38-.84h9V58Z"/><path d="M949.49,56V44.48h2.64V56Zm1.32-13.63a1.51,1.51,0,0,1-1.13-.46,1.69,1.69,0,0,1,0-2.25,1.51,1.51,0,0,1,1.13-.46,1.48,1.48,0,0,1,1.13.46,1.69,1.69,0,0,1,0,2.25A1.48,1.48,0,0,1,950.81,42.37ZM955.09,56V44.48h2.64V56Zm7.65,0V49.14a2.23,2.23,0,0,0-.71-1.78,2.6,2.6,0,0,0-1.78-.65A2.92,2.92,0,0,0,959,47a2.22,2.22,0,0,0-.88.84,2.31,2.31,0,0,0-.34,1.3l-1-.58a4.38,4.38,0,0,1,.57-2.28,4.06,4.06,0,0,1,1.56-1.49,4.42,4.42,0,0,1,2.21-.55,4.63,4.63,0,0,1,2.21.53,4,4,0,0,1,1.56,1.49,4.41,4.41,0,0,1,.58,2.3V56Zm7.66,0V49.14a2.23,2.23,0,0,0-.72-1.78,2.56,2.56,0,0,0-1.77-.65,2.87,2.87,0,0,0-1.28.29,2.23,2.23,0,0,0-.91.84,2.39,2.39,0,0,0-.33,1.3l-1.49-.58a4.79,4.79,0,0,1,.76-2.28,4.56,4.56,0,0,1,1.66-1.49,4.69,4.69,0,0,1,2.26-.55,4.79,4.79,0,0,1,2.25.53,4.06,4.06,0,0,1,1.61,1.49,4.24,4.24,0,0,1,.6,2.3V56Zm10.19.24a5.24,5.24,0,0,1-2.84-.79,5.86,5.86,0,0,1-2-2.14,6.45,6.45,0,0,1-.72-3.05,6.32,6.32,0,0,1,.72-3,5.69,5.69,0,0,1,2-2.16,5.1,5.1,0,0,1,2.84-.82,4.52,4.52,0,0,1,2.32.58,4.08,4.08,0,0,1,1.63,1.53,4.13,4.13,0,0,1,.61,2.23V51.9a4.13,4.13,0,0,1-.61,2.23,4.21,4.21,0,0,1-1.6,1.56A4.88,4.88,0,0,1,980.59,56.24Zm.43-2.5a3,3,0,0,0,2.35-1,3.56,3.56,0,0,0,.91-2.52,3.79,3.79,0,0,0-.41-1.82,2.91,2.91,0,0,0-1.15-1.23,3.15,3.15,0,0,0-1.7-.45,3.26,3.26,0,0,0-1.71.45,3.18,3.18,0,0,0-1.15,1.23,4.24,4.24,0,0,0,0,3.64,3.31,3.31,0,0,0,1.15,1.25A3.34,3.34,0,0,0,981,53.74ZM984.11,56V52.9l.46-2.8-.46-2.79V44.48h2.64V56Zm10.37,5a7.13,7.13,0,0,1-3.19-.67,5.54,5.54,0,0,1-2.21-1.85l1.73-1.73a4.64,4.64,0,0,0,1.59,1.3,4.79,4.79,0,0,0,2.13.43A3.53,3.53,0,0,0,997,57.7a2.71,2.71,0,0,0,.91-2.18V52.69l.46-2.55-.46-2.56v-3.1h2.64v11a5.34,5.34,0,0,1-.76,2.88,5.22,5.22,0,0,1-2.14,1.94A6.82,6.82,0,0,1,994.48,61Zm-.12-5.28a5.38,5.38,0,0,1-2.78-.74,5.5,5.5,0,0,1-1.94-2.09,6.18,6.18,0,0,1-.7-3,6,6,0,0,1,.7-2.93,5.34,5.34,0,0,1,4.72-2.81,5,5,0,0,1,2.4.55,4,4,0,0,1,1.61,1.54,4.24,4.24,0,0,1,.58,2.25v2.84a4.23,4.23,0,0,1-.6,2.25,4,4,0,0,1-1.61,1.54A5,5,0,0,1,994.36,55.76Zm.53-2.5a3.37,3.37,0,0,0,1.68-.4,2.78,2.78,0,0,0,1.1-1.13,3.46,3.46,0,0,0,.41-1.73,3.29,3.29,0,0,0-.41-1.7,2.74,2.74,0,0,0-1.1-1.16,3.37,3.37,0,0,0-1.68-.4,3.47,3.47,0,0,0-1.7.4,2.93,2.93,0,0,0-1.13,1.16,3.4,3.4,0,0,0-.41,1.7,3.48,3.48,0,0,0,.41,1.7,2.93,2.93,0,0,0,1.13,1.16A3.47,3.47,0,0,0,994.89,53.26Zm14,3a6.38,6.38,0,0,1-3.12-.77,5.9,5.9,0,0,1-3-5.23,5.87,5.87,0,0,1,6-6,5.4,5.4,0,0,1,2.83.74,5.21,5.21,0,0,1,1.94,2,6,6,0,0,1,.72,3,3.17,3.17,0,0,1-.05.6,4.25,4.25,0,0,1-.09.64h-9.46V49.06h8.09l-1,.87a4.53,4.53,0,0,0-.41-1.78,2.55,2.55,0,0,0-1-1.1,3.1,3.1,0,0,0-1.61-.39,3.39,3.39,0,0,0-1.75.44,2.91,2.91,0,0,0-1.16,1.22,4.42,4.42,0,0,0,0,3.74,3.14,3.14,0,0,0,1.22,1.28,3.86,3.86,0,0,0,1.83.43,4.34,4.34,0,0,0,1.63-.31,3.43,3.43,0,0,0,1.29-.92l1.68,1.71a5.5,5.5,0,0,1-2,1.49A6.57,6.57,0,0,1,1008.84,56.24ZM1024.2,56V49.35a2.52,2.52,0,0,0-.74-1.89,2.47,2.47,0,0,0-1.87-.75,2.7,2.7,0,0,0-1.37.34,2.4,2.4,0,0,0-.94.93,2.8,2.8,0,0,0-.33,1.37l-1-.57a4.65,4.65,0,0,1,.57-2.33,4.1,4.1,0,0,1,1.59-1.61,4.46,4.46,0,0,1,2.3-.6,4,4,0,0,1,2.3.67,4.58,4.58,0,0,1,1.59,1.71,4.36,4.36,0,0,1,.57,2.16V56Zm-7.89,0V44.48H1019V56Z"/><path d="M1407.05,54V41a4.65,4.65,0,0,1,.57-2.33,4.29,4.29,0,0,1,1.64-1.58,4.9,4.9,0,0,1,2.42-.58,4.13,4.13,0,0,1,1.8.36,4.78,4.78,0,0,1,1.39,1l-1.7,1.71a2.12,2.12,0,0,0-.63-.46,1.93,1.93,0,0,0-.86-.17,2,2,0,0,0-1.49.53,2,2,0,0,0-.5,1.46V54Zm-2.76-9.12v-2.4h8.88v2.4Zm15.55,9.36a6,6,0,0,1-3-.79,6.18,6.18,0,0,1-2.18-2.19,5.92,5.92,0,0,1-.8-3,5.86,5.86,0,0,1,.8-3,6,6,0,0,1,2.18-2.13,5.79,5.79,0,0,1,3-.82,6,6,0,0,1,3.07.79,5.89,5.89,0,0,1,2.16,2.16,5.78,5.78,0,0,1,.82,3,5.84,5.84,0,0,1-.82,3,5.85,5.85,0,0,1-5.23,3Zm0-2.54a3.4,3.4,0,0,0,1.73-.44,3,3,0,0,0,1.17-1.24,3.69,3.69,0,0,0,.43-1.8,3.53,3.53,0,0,0-.43-1.78,3.21,3.21,0,0,0-1.17-1.2,3.31,3.31,0,0,0-1.73-.46,3.36,3.36,0,0,0-1.73.46,3.16,3.16,0,0,0-1.18,1.2,3.74,3.74,0,0,0-.4,1.78,3.91,3.91,0,0,0,.4,1.8,3.27,3.27,0,0,0,1.18,1.24A3.45,3.45,0,0,0,1419.84,51.7ZM1436,54V47.35a2.53,2.53,0,0,0-.75-1.89,2.47,2.47,0,0,0-1.87-.75,2.7,2.7,0,0,0-1.37.34,2.31,2.31,0,0,0-.93.93,2.7,2.7,0,0,0-.34,1.37l-1-.57a4.55,4.55,0,0,1,.58-2.33,4.08,4.08,0,0,1,1.58-1.61,4.51,4.51,0,0,1,2.3-.6,4,4,0,0,1,2.31.67,4.56,4.56,0,0,1,1.58,1.71,4.27,4.27,0,0,1,.58,2.16V54Zm-7.9,0V42.48h2.64V54Zm18,.24a5.23,5.23,0,0,1-2.83-.79,5.86,5.86,0,0,1-2-2.14,6.45,6.45,0,0,1-.72-3.05,6.32,6.32,0,0,1,.72-3,5.69,5.69,0,0,1,2-2.16,5.09,5.09,0,0,1,2.83-.82,4.55,4.55,0,0,1,2.33.58,4.14,4.14,0,0,1,1.63,1.53,4.21,4.21,0,0,1,.6,2.23V49.9a4.21,4.21,0,0,1-.6,2.23,4.28,4.28,0,0,1-1.6,1.56A4.92,4.92,0,0,1,1446.12,54.24Zm.44-2.5a3.23,3.23,0,0,0,1.7-.43,3,3,0,0,0,1.15-1.25,4.24,4.24,0,0,0,0-3.64,2.91,2.91,0,0,0-1.15-1.23,3.15,3.15,0,0,0-1.7-.45,3.26,3.26,0,0,0-1.71.45,3.18,3.18,0,0,0-1.15,1.23,4.24,4.24,0,0,0,0,3.64,3.31,3.31,0,0,0,1.15,1.25A3.34,3.34,0,0,0,1446.56,51.74Zm5.73,2.26h-2.64V50.9l.46-2.8-.46-2.79V36.72h2.64Zm8.21.24a6,6,0,0,1-3-.79,6.18,6.18,0,0,1-2.18-2.19,5.92,5.92,0,0,1-.79-3,5.86,5.86,0,0,1,.79-3,6,6,0,0,1,2.18-2.13,5.81,5.81,0,0,1,3-.82,6,6,0,0,1,3.07.79,6,6,0,0,1,2.16,8.23,5.89,5.89,0,0,1-2.16,2.19A6,6,0,0,1,1460.5,54.24Zm0-2.54a3.37,3.37,0,0,0,1.73-.44,3.13,3.13,0,0,0,1.18-1.24,3.8,3.8,0,0,0,.43-1.8,3.63,3.63,0,0,0-.43-1.78,3.16,3.16,0,0,0-1.18-1.2,3.29,3.29,0,0,0-1.73-.46,3.39,3.39,0,0,0-1.73.46,3.21,3.21,0,0,0-1.17,1.2,3.74,3.74,0,0,0-.41,1.78,3.91,3.91,0,0,0,.41,1.8,3.32,3.32,0,0,0,1.17,1.24A3.48,3.48,0,0,0,1460.5,51.7Z"/><rect class="cls-5" y="524" width="402" height="402"/><rect class="cls-6" x="456" y="524" width="402" height="402"/><rect class="cls-3" x="912" y="524" width="402" height="402"/><rect class="cls-4" x="1368" y="524" width="402" height="402"/><path d="M40.26,587a7.13,7.13,0,0,1-3.19-.67,5.54,5.54,0,0,1-2.21-1.85l1.73-1.73a4.64,4.64,0,0,0,1.59,1.3,4.79,4.79,0,0,0,2.13.43,3.53,3.53,0,0,0,2.47-.82,2.72,2.72,0,0,0,.92-2.18v-2.83l.45-2.55-.45-2.56v-3.1h2.64v11a5.34,5.34,0,0,1-.77,2.88,5.22,5.22,0,0,1-2.14,1.94A6.82,6.82,0,0,1,40.26,587Zm-.12-5.28a5.38,5.38,0,0,1-2.78-.74,5.58,5.58,0,0,1-1.94-2.09,6.18,6.18,0,0,1-.7-2.95,6,6,0,0,1,.7-2.93,5.29,5.29,0,0,1,1.94-2,5.22,5.22,0,0,1,2.78-.77,5,5,0,0,1,2.4.55,4,4,0,0,1,1.61,1.54,4.24,4.24,0,0,1,.58,2.25v2.84a4.23,4.23,0,0,1-.6,2.25,4,4,0,0,1-1.61,1.54A5,5,0,0,1,40.14,581.76Zm.53-2.5a3.37,3.37,0,0,0,1.68-.4,2.87,2.87,0,0,0,1.11-1.13,3.56,3.56,0,0,0,.4-1.73,3.39,3.39,0,0,0-.4-1.7,2.82,2.82,0,0,0-1.11-1.16,3.37,3.37,0,0,0-1.68-.4,3.47,3.47,0,0,0-1.7.4,2.93,2.93,0,0,0-1.13,1.16,3.4,3.4,0,0,0-.41,1.7,3.48,3.48,0,0,0,.41,1.7A2.93,2.93,0,0,0,39,578.86,3.47,3.47,0,0,0,40.67,579.26Zm8.6,2.74V570.48h2.64V582Zm2.64-6.41-.91-.45a5.92,5.92,0,0,1,1-3.53,3.4,3.4,0,0,1,2.95-1.37,3.78,3.78,0,0,1,1.56.31,3.86,3.86,0,0,1,1.29,1L56,573.34a1.7,1.7,0,0,0-.7-.48,2.44,2.44,0,0,0-.89-.15,2.5,2.5,0,0,0-1.82.7A2.91,2.91,0,0,0,51.91,575.59Zm11.6,6.65a5.23,5.23,0,0,1-2.83-.79,5.86,5.86,0,0,1-2-2.14,6.45,6.45,0,0,1-.72-3,6.32,6.32,0,0,1,.72-3,5.69,5.69,0,0,1,2-2.16,5.09,5.09,0,0,1,2.83-.82,4.55,4.55,0,0,1,2.33.58,4.14,4.14,0,0,1,1.63,1.53,4.21,4.21,0,0,1,.6,2.23v3.32a4.21,4.21,0,0,1-.6,2.23,4.28,4.28,0,0,1-1.6,1.56A4.92,4.92,0,0,1,63.51,582.24Zm.44-2.5a3,3,0,0,0,2.35-1,3.56,3.56,0,0,0,.91-2.52,3.91,3.91,0,0,0-.41-1.82,2.91,2.91,0,0,0-1.15-1.23,3.15,3.15,0,0,0-1.7-.45,3.26,3.26,0,0,0-1.71.45,3.18,3.18,0,0,0-1.15,1.23,4.24,4.24,0,0,0,0,3.64,3.31,3.31,0,0,0,1.15,1.25A3.34,3.34,0,0,0,64,579.74ZM67,582v-3.1l.46-2.8L67,573.31v-2.83h2.64V582Zm10.4.24a5.26,5.26,0,0,1-2.84-.79,5.86,5.86,0,0,1-2-2.14,6.45,6.45,0,0,1-.72-3,6.32,6.32,0,0,1,.72-3,5.69,5.69,0,0,1,2-2.16,5.12,5.12,0,0,1,2.84-.82,4.52,4.52,0,0,1,2.32.58A4.14,4.14,0,0,1,82,574.58v3.32a4.21,4.21,0,0,1-.6,2.23,4.31,4.31,0,0,1-1.61,1.56A4.88,4.88,0,0,1,77.44,582.24Zm.43-2.5a3.23,3.23,0,0,0,1.7-.43,3,3,0,0,0,1.15-1.25,4.24,4.24,0,0,0,0-3.64,2.91,2.91,0,0,0-1.15-1.23,3.15,3.15,0,0,0-1.7-.45,3.26,3.26,0,0,0-1.71.45A3.18,3.18,0,0,0,75,574.42a4.24,4.24,0,0,0,0,3.64,3.31,3.31,0,0,0,1.15,1.25A3.34,3.34,0,0,0,77.87,579.74ZM83.6,582H81v-3.1l.46-2.8L81,573.31v-8.59H83.6Zm3,0V570.48H89.2V582Zm1.32-13.63a1.51,1.51,0,0,1-1.13-.46,1.69,1.69,0,0,1,0-2.25,1.51,1.51,0,0,1,1.13-.46,1.48,1.48,0,0,1,1.13.46,1.69,1.69,0,0,1,0,2.25A1.48,1.48,0,0,1,87.88,568.37Zm9.63,13.87a6.38,6.38,0,0,1-3.12-.77,5.87,5.87,0,0,1-3-5.23,5.88,5.88,0,0,1,.79-3,5.81,5.81,0,0,1,5.16-3,5.4,5.4,0,0,1,2.83.74,5.21,5.21,0,0,1,1.94,2,6,6,0,0,1,.72,3,4.22,4.22,0,0,1,0,.6,6.36,6.36,0,0,1-.1.64H93.26v-2.16h8.09l-1,.87a4.53,4.53,0,0,0-.41-1.78,2.5,2.5,0,0,0-1-1.1,3.07,3.07,0,0,0-1.61-.39,3.39,3.39,0,0,0-1.75.44,2.83,2.83,0,0,0-1.15,1.22,3.8,3.8,0,0,0-.41,1.85,3.93,3.93,0,0,0,.43,1.89,3.2,3.2,0,0,0,1.22,1.28,3.86,3.86,0,0,0,1.83.43,4.34,4.34,0,0,0,1.63-.31,3.54,3.54,0,0,0,1.3-.92l1.68,1.71a5.5,5.5,0,0,1-2,1.49A6.62,6.62,0,0,1,97.51,582.24Zm15.37-.24v-6.65a2.53,2.53,0,0,0-.75-1.89,2.47,2.47,0,0,0-1.87-.75,2.7,2.7,0,0,0-1.37.34,2.31,2.31,0,0,0-.93.93,2.7,2.7,0,0,0-.34,1.37l-1-.57a4.65,4.65,0,0,1,.57-2.33,4.17,4.17,0,0,1,1.59-1.61,4.49,4.49,0,0,1,2.3-.6,4.06,4.06,0,0,1,2.31.67,4.56,4.56,0,0,1,1.58,1.71,4.37,4.37,0,0,1,.58,2.16V582Zm-7.9,0V570.48h2.64V582Zm14.83,0V565.68h2.64V582Zm-2.76-9.12v-2.4h8.16v2.4Zm17.4,9.12V565.2h2.71V582Zm-3.36-14.33V565.2h5.84v2.47Z"/><path d="M498.26,587a7.13,7.13,0,0,1-3.19-.67,5.54,5.54,0,0,1-2.21-1.85l1.73-1.73a4.64,4.64,0,0,0,1.59,1.3,4.79,4.79,0,0,0,2.13.43,3.53,3.53,0,0,0,2.47-.82,2.72,2.72,0,0,0,.92-2.18v-2.83l.45-2.55-.45-2.56v-3.1h2.64v11a5.34,5.34,0,0,1-.77,2.88,5.22,5.22,0,0,1-2.14,1.94A6.82,6.82,0,0,1,498.26,587Zm-.12-5.28a5.38,5.38,0,0,1-2.78-.74,5.58,5.58,0,0,1-1.94-2.09,6.18,6.18,0,0,1-.7-2.95,6,6,0,0,1,.7-2.93,5.29,5.29,0,0,1,1.94-2,5.22,5.22,0,0,1,2.78-.77,5,5,0,0,1,2.4.55,4,4,0,0,1,1.61,1.54,4.24,4.24,0,0,1,.58,2.25v2.84a4.23,4.23,0,0,1-.6,2.25,4,4,0,0,1-1.61,1.54A5,5,0,0,1,498.14,581.76Zm.53-2.5a3.37,3.37,0,0,0,1.68-.4,2.87,2.87,0,0,0,1.11-1.13,3.56,3.56,0,0,0,.4-1.73,3.39,3.39,0,0,0-.4-1.7,2.82,2.82,0,0,0-1.11-1.16,3.37,3.37,0,0,0-1.68-.4,3.47,3.47,0,0,0-1.7.4,2.93,2.93,0,0,0-1.13,1.16,3.4,3.4,0,0,0-.41,1.7,3.48,3.48,0,0,0,.41,1.7,2.93,2.93,0,0,0,1.13,1.16A3.47,3.47,0,0,0,498.67,579.26Zm8.6,2.74V570.48h2.64V582Zm2.64-6.41-.91-.45a5.92,5.92,0,0,1,1-3.53,3.4,3.4,0,0,1,2.95-1.37,3.75,3.75,0,0,1,1.56.31,4,4,0,0,1,1.3,1L514,573.34a1.7,1.7,0,0,0-.7-.48,2.4,2.4,0,0,0-.89-.15,2.5,2.5,0,0,0-1.82.7A2.91,2.91,0,0,0,509.91,575.59Zm11.61,6.65a5.24,5.24,0,0,1-2.84-.79,5.86,5.86,0,0,1-2-2.14,6.45,6.45,0,0,1-.72-3,6.32,6.32,0,0,1,.72-3,5.69,5.69,0,0,1,2-2.16,5.1,5.1,0,0,1,2.84-.82,4.52,4.52,0,0,1,2.32.58,4.08,4.08,0,0,1,1.63,1.53,4.13,4.13,0,0,1,.61,2.23v3.32a4.13,4.13,0,0,1-.61,2.23,4.28,4.28,0,0,1-1.6,1.56A4.88,4.88,0,0,1,521.52,582.24Zm.43-2.5a3,3,0,0,0,2.35-1,3.56,3.56,0,0,0,.91-2.52,3.79,3.79,0,0,0-.41-1.82,2.91,2.91,0,0,0-1.15-1.23,3.15,3.15,0,0,0-1.7-.45,3.26,3.26,0,0,0-1.71.45,3.18,3.18,0,0,0-1.15,1.23,4.24,4.24,0,0,0,0,3.64,3.31,3.31,0,0,0,1.15,1.25A3.34,3.34,0,0,0,522,579.74ZM525,582v-3.1l.46-2.8-.46-2.79v-2.83h2.64V582Zm10.4.24a5.26,5.26,0,0,1-2.84-.79,5.86,5.86,0,0,1-2-2.14,6.45,6.45,0,0,1-.72-3,6.32,6.32,0,0,1,.72-3,5.69,5.69,0,0,1,2-2.16,5.12,5.12,0,0,1,2.84-.82,4.52,4.52,0,0,1,2.32.58,4.14,4.14,0,0,1,2.24,3.76v3.32a4.21,4.21,0,0,1-.6,2.23,4.31,4.31,0,0,1-1.61,1.56A4.88,4.88,0,0,1,535.44,582.24Zm.43-2.5a3.23,3.23,0,0,0,1.7-.43,3,3,0,0,0,1.15-1.25,4.24,4.24,0,0,0,0-3.64,2.91,2.91,0,0,0-1.15-1.23,3.15,3.15,0,0,0-1.7-.45,3.26,3.26,0,0,0-1.71.45,3.18,3.18,0,0,0-1.15,1.23,4.24,4.24,0,0,0,0,3.64,3.31,3.31,0,0,0,1.15,1.25A3.34,3.34,0,0,0,535.87,579.74ZM541.6,582H539v-3.1l.46-2.8-.46-2.79v-8.59h2.64Zm3,0V570.48h2.64V582Zm1.32-13.63a1.51,1.51,0,0,1-1.13-.46,1.69,1.69,0,0,1,0-2.25,1.51,1.51,0,0,1,1.13-.46,1.48,1.48,0,0,1,1.13.46,1.69,1.69,0,0,1,0,2.25A1.48,1.48,0,0,1,545.88,568.37Zm9.63,13.87a6.38,6.38,0,0,1-3.12-.77,5.9,5.9,0,0,1-3-5.23,5.87,5.87,0,0,1,6-6,5.4,5.4,0,0,1,2.83.74,5.21,5.21,0,0,1,1.94,2,6,6,0,0,1,.72,3,4.22,4.22,0,0,1,0,.6,6.36,6.36,0,0,1-.1.64h-9.46v-2.16h8.09l-1,.87a4.37,4.37,0,0,0-.41-1.78,2.5,2.5,0,0,0-1-1.1,3.1,3.1,0,0,0-1.61-.39,3.39,3.39,0,0,0-1.75.44,2.91,2.91,0,0,0-1.16,1.22,4.42,4.42,0,0,0,0,3.74,3.2,3.2,0,0,0,1.22,1.28,3.86,3.86,0,0,0,1.83.43,4.34,4.34,0,0,0,1.63-.31,3.43,3.43,0,0,0,1.29-.92l1.68,1.71a5.5,5.5,0,0,1-2,1.49A6.54,6.54,0,0,1,555.51,582.24Zm15.37-.24v-6.65a2.53,2.53,0,0,0-.75-1.89,2.47,2.47,0,0,0-1.87-.75,2.7,2.7,0,0,0-1.37.34,2.31,2.31,0,0,0-.93.93,2.7,2.7,0,0,0-.34,1.37l-1-.57a4.65,4.65,0,0,1,.57-2.33,4.17,4.17,0,0,1,1.59-1.61,4.49,4.49,0,0,1,2.3-.6,4.06,4.06,0,0,1,2.31.67,4.56,4.56,0,0,1,1.58,1.71,4.37,4.37,0,0,1,.58,2.16V582Zm-7.9,0V570.48h2.64V582Zm14.83,0V565.68h2.64V582Zm-2.76-9.12v-2.4h8.16v2.4Zm14.09,7.49,6.19-6.58a16.82,16.82,0,0,0,1.25-1.46,5.22,5.22,0,0,0,.7-1.23,3.36,3.36,0,0,0,.21-1.17,2.17,2.17,0,0,0-.74-1.75,2.63,2.63,0,0,0-1.85-.65,3.75,3.75,0,0,0-2.11.6,5.25,5.25,0,0,0-1.63,1.87l-1.92-1.58a6.84,6.84,0,0,1,2.42-2.57A6.24,6.24,0,0,1,595,565a5.79,5.79,0,0,1,2.73.62,4.44,4.44,0,0,1,1.83,1.76,5,5,0,0,1,.65,2.56,6.18,6.18,0,0,1-.27,1.9,5.65,5.65,0,0,1-.84,1.66,21.77,21.77,0,0,1-1.65,1.92l-4.76,4.92Zm0,1.63v-1.63l2.38-.84h9V582Z"/><path d="M949.49,580V568.48h2.64V580Zm1.32-13.63a1.51,1.51,0,0,1-1.13-.46,1.69,1.69,0,0,1,0-2.25,1.51,1.51,0,0,1,1.13-.46,1.48,1.48,0,0,1,1.13.46,1.69,1.69,0,0,1,0,2.25A1.48,1.48,0,0,1,950.81,566.37ZM955.09,580V568.48h2.64V580Zm7.65,0v-6.86a2.23,2.23,0,0,0-.71-1.78,2.6,2.6,0,0,0-1.78-.65,2.92,2.92,0,0,0-1.3.29,2.22,2.22,0,0,0-.88.84,2.31,2.31,0,0,0-.34,1.3l-1-.58a4.38,4.38,0,0,1,.57-2.28,4.06,4.06,0,0,1,1.56-1.49,4.42,4.42,0,0,1,2.21-.55,4.63,4.63,0,0,1,2.21.53,4,4,0,0,1,1.56,1.49,4.41,4.41,0,0,1,.58,2.3V580Zm7.66,0v-6.86a2.23,2.23,0,0,0-.72-1.78,2.56,2.56,0,0,0-1.77-.65,2.87,2.87,0,0,0-1.28.29,2.23,2.23,0,0,0-.91.84,2.39,2.39,0,0,0-.33,1.3l-1.49-.58a4.79,4.79,0,0,1,.76-2.28,4.56,4.56,0,0,1,1.66-1.49,4.69,4.69,0,0,1,2.26-.55,4.79,4.79,0,0,1,2.25.53,4.06,4.06,0,0,1,1.61,1.49,4.24,4.24,0,0,1,.6,2.3V580Zm10.19.24a5.24,5.24,0,0,1-2.84-.79,5.86,5.86,0,0,1-2-2.14,6.45,6.45,0,0,1-.72-3,6.32,6.32,0,0,1,.72-3,5.69,5.69,0,0,1,2-2.16,5.1,5.1,0,0,1,2.84-.82,4.52,4.52,0,0,1,2.32.58,4.08,4.08,0,0,1,1.63,1.53,4.13,4.13,0,0,1,.61,2.23v3.32a4.13,4.13,0,0,1-.61,2.23,4.21,4.21,0,0,1-1.6,1.56A4.88,4.88,0,0,1,980.59,580.24Zm.43-2.5a3,3,0,0,0,2.35-1,3.56,3.56,0,0,0,.91-2.52,3.79,3.79,0,0,0-.41-1.82,2.91,2.91,0,0,0-1.15-1.23,3.15,3.15,0,0,0-1.7-.45,3.26,3.26,0,0,0-1.71.45,3.18,3.18,0,0,0-1.15,1.23,4.24,4.24,0,0,0,0,3.64,3.31,3.31,0,0,0,1.15,1.25A3.34,3.34,0,0,0,981,577.74Zm3.09,2.26v-3.1l.46-2.8-.46-2.79v-2.83h2.64V580Zm10.37,5a7.13,7.13,0,0,1-3.19-.67,5.54,5.54,0,0,1-2.21-1.85l1.73-1.73a4.64,4.64,0,0,0,1.59,1.3,4.79,4.79,0,0,0,2.13.43,3.53,3.53,0,0,0,2.47-.82,2.71,2.71,0,0,0,.91-2.18v-2.83l.46-2.55-.46-2.56v-3.1h2.64v11a5.34,5.34,0,0,1-.76,2.88,5.22,5.22,0,0,1-2.14,1.94A6.82,6.82,0,0,1,994.48,585Zm-.12-5.28a5.38,5.38,0,0,1-2.78-.74,5.5,5.5,0,0,1-1.94-2.09,6.18,6.18,0,0,1-.7-2.95,6,6,0,0,1,.7-2.93,5.34,5.34,0,0,1,4.72-2.81,5,5,0,0,1,2.4.55,4,4,0,0,1,1.61,1.54,4.24,4.24,0,0,1,.58,2.25v2.84a4.23,4.23,0,0,1-.6,2.25,4,4,0,0,1-1.61,1.54A5,5,0,0,1,994.36,579.76Zm.53-2.5a3.37,3.37,0,0,0,1.68-.4,2.78,2.78,0,0,0,1.1-1.13,3.46,3.46,0,0,0,.41-1.73,3.29,3.29,0,0,0-.41-1.7,2.74,2.74,0,0,0-1.1-1.16,3.37,3.37,0,0,0-1.68-.4,3.47,3.47,0,0,0-1.7.4,2.93,2.93,0,0,0-1.13,1.16,3.4,3.4,0,0,0-.41,1.7,3.48,3.48,0,0,0,.41,1.7,2.93,2.93,0,0,0,1.13,1.16A3.47,3.47,0,0,0,994.89,577.26Zm14,3a6.38,6.38,0,0,1-3.12-.77,5.9,5.9,0,0,1-3-5.23,5.87,5.87,0,0,1,6-6,5.4,5.4,0,0,1,2.83.74,5.21,5.21,0,0,1,1.94,2,6,6,0,0,1,.72,3,3.17,3.17,0,0,1-.05.6,4.25,4.25,0,0,1-.09.64h-9.46v-2.16h8.09l-1,.87a4.53,4.53,0,0,0-.41-1.78,2.55,2.55,0,0,0-1-1.1,3.1,3.1,0,0,0-1.61-.39,3.39,3.39,0,0,0-1.75.44,2.91,2.91,0,0,0-1.16,1.22,4.42,4.42,0,0,0,0,3.74,3.14,3.14,0,0,0,1.22,1.28,3.86,3.86,0,0,0,1.83.43,4.34,4.34,0,0,0,1.63-.31,3.43,3.43,0,0,0,1.29-.92l1.68,1.71a5.5,5.5,0,0,1-2,1.49A6.57,6.57,0,0,1,1008.84,580.24Zm15.36-.24v-6.65a2.52,2.52,0,0,0-.74-1.89,2.47,2.47,0,0,0-1.87-.75,2.7,2.7,0,0,0-1.37.34,2.4,2.4,0,0,0-.94.93,2.8,2.8,0,0,0-.33,1.37l-1-.57a4.65,4.65,0,0,1,.57-2.33,4.1,4.1,0,0,1,1.59-1.61,4.46,4.46,0,0,1,2.3-.6,4,4,0,0,1,2.3.67,4.58,4.58,0,0,1,1.59,1.71,4.36,4.36,0,0,1,.57,2.16V580Zm-7.89,0V568.48H1019V580Z"/><path d="M1407.05,578V565a4.65,4.65,0,0,1,.57-2.33,4.29,4.29,0,0,1,1.64-1.58,4.9,4.9,0,0,1,2.42-.58,4.13,4.13,0,0,1,1.8.36,4.78,4.78,0,0,1,1.39,1l-1.7,1.71a2.12,2.12,0,0,0-.63-.46,1.93,1.93,0,0,0-.86-.17,2,2,0,0,0-1.49.53,2,2,0,0,0-.5,1.46V578Zm-2.76-9.12v-2.4h8.88v2.4Zm15.55,9.36a6,6,0,0,1-3-.79,6.18,6.18,0,0,1-2.18-2.19,5.92,5.92,0,0,1-.8-3,5.86,5.86,0,0,1,.8-3,6,6,0,0,1,2.18-2.13,5.79,5.79,0,0,1,3-.82,6,6,0,0,1,3.07.79,5.89,5.89,0,0,1,2.16,2.16,5.78,5.78,0,0,1,.82,3,5.84,5.84,0,0,1-.82,3,5.85,5.85,0,0,1-5.23,3Zm0-2.54a3.4,3.4,0,0,0,1.73-.44,3,3,0,0,0,1.17-1.24,3.69,3.69,0,0,0,.43-1.8,3.53,3.53,0,0,0-.43-1.78,3.21,3.21,0,0,0-1.17-1.2,3.31,3.31,0,0,0-1.73-.46,3.36,3.36,0,0,0-1.73.46,3.16,3.16,0,0,0-1.18,1.2,3.74,3.74,0,0,0-.4,1.78,3.91,3.91,0,0,0,.4,1.8,3.27,3.27,0,0,0,1.18,1.24A3.45,3.45,0,0,0,1419.84,575.7ZM1436,578v-6.65a2.53,2.53,0,0,0-.75-1.89,2.47,2.47,0,0,0-1.87-.75,2.7,2.7,0,0,0-1.37.34,2.31,2.31,0,0,0-.93.93,2.7,2.7,0,0,0-.34,1.37l-1-.57a4.55,4.55,0,0,1,.58-2.33,4.08,4.08,0,0,1,1.58-1.61,4.51,4.51,0,0,1,2.3-.6,4,4,0,0,1,2.31.67,4.56,4.56,0,0,1,1.58,1.71,4.27,4.27,0,0,1,.58,2.16V578Zm-7.9,0V566.48h2.64V578Zm18,.24a5.23,5.23,0,0,1-2.83-.79,5.86,5.86,0,0,1-2-2.14,6.45,6.45,0,0,1-.72-3,6.32,6.32,0,0,1,.72-3,5.69,5.69,0,0,1,2-2.16,5.09,5.09,0,0,1,2.83-.82,4.55,4.55,0,0,1,2.33.58,4.14,4.14,0,0,1,1.63,1.53,4.21,4.21,0,0,1,.6,2.23v3.32a4.21,4.21,0,0,1-.6,2.23,4.28,4.28,0,0,1-1.6,1.56A4.92,4.92,0,0,1,1446.12,578.24Zm.44-2.5a3.23,3.23,0,0,0,1.7-.43,3,3,0,0,0,1.15-1.25,4.24,4.24,0,0,0,0-3.64,2.91,2.91,0,0,0-1.15-1.23,3.15,3.15,0,0,0-1.7-.45,3.26,3.26,0,0,0-1.71.45,3.18,3.18,0,0,0-1.15,1.23,4.24,4.24,0,0,0,0,3.64,3.31,3.31,0,0,0,1.15,1.25A3.34,3.34,0,0,0,1446.56,575.74Zm5.73,2.26h-2.64v-3.1l.46-2.8-.46-2.79v-8.59h2.64Zm8.21.24a6,6,0,0,1-3-.79,6.18,6.18,0,0,1-2.18-2.19,5.92,5.92,0,0,1-.79-3,5.86,5.86,0,0,1,.79-3,6,6,0,0,1,2.18-2.13,5.81,5.81,0,0,1,3-.82,6,6,0,0,1,3.07.79,6,6,0,0,1,2.16,8.23,5.89,5.89,0,0,1-2.16,2.19A6,6,0,0,1,1460.5,578.24Zm0-2.54a3.37,3.37,0,0,0,1.73-.44,3.13,3.13,0,0,0,1.18-1.24,3.8,3.8,0,0,0,.43-1.8,3.63,3.63,0,0,0-.43-1.78,3.16,3.16,0,0,0-1.18-1.2,3.29,3.29,0,0,0-1.73-.46,3.39,3.39,0,0,0-1.73.46,3.21,3.21,0,0,0-1.17,1.2,3.74,3.74,0,0,0-.41,1.78,3.91,3.91,0,0,0,.41,1.8,3.32,3.32,0,0,0,1.17,1.24A3.48,3.48,0,0,0,1460.5,575.7Z"/></g></g></svg>