<svg xmlns="http://www.w3.org/2000/svg" viewBox="0 0 71.18 133.99"><defs><style>.cls-1{fill:#0c6;}.cls-2{fill:#fff;}</style></defs><g id="Capa_2" data-name="Capa 2"><g id="Capa_1-2" data-name="Capa 1"><path class="cls-1" d="M38.87,69.41v11a21.35,21.35,0,0,1,21.29,21.33c0,.11,0,.21,0,.31h11c0-.1,0-.2,0-.31A32.35,32.35,0,0,0,38.87,69.41Z"/><path class="cls-2" d="M33.79,69.41H29.87A32.34,32.34,0,0,0,32.34,134c.49,0,1,0,1.45,0v-11c-.48,0-1,.08-1.45.08a21.34,21.34,0,0,1,0-42.68c.49,0,1,0,1.45.08Z"/><path class="cls-1" d="M60.18,32.34A21.37,21.37,0,0,1,38.84,53.68v11h0A32.34,32.34,0,0,0,38.85,0h0V11A21.36,21.36,0,0,1,60.18,32.34Z"/><path class="cls-2" d="M33.79,64.66v-11A21.35,21.35,0,0,1,12.5,32.33c0-.11,0-.21,0-.32h-11c0,.11,0,.21,0,.32A32.33,32.33,0,0,0,33.79,64.66Z"/></g></g></svg>