<svg xmlns="http://www.w3.org/2000/svg" xmlns:xlink="http://www.w3.org/1999/xlink" viewBox="0 0 2575.08 991.45"><defs><style>.cls-1{fill:none;}.cls-2{clip-path:url(#clip-path);}</style><clipPath id="clip-path" transform="translate(0 120.8)"><polygon class="cls-1" points="1693.79 0 887.76 0 887.76 707.95 1693.79 707.95 2499.81 707.95 2499.81 0 1693.79 0"/></clipPath></defs><g id="Capa_2" data-name="Capa 2"><g id="Capa_1-2" data-name="Capa 1"><g class="cls-2"><image width="880" height="495" transform="translate(812.5) scale(2)" xlink:href="../../Desktop/ESDM/3%C2%BA/2%C2%BA%20Semestre/Proyectos%20Interdisciplinares%20(LAB)/O0_Images/Suvi%20Suitala/24cab97f-3ae0-422d-a5c7-207f1f9921d6_16-9-aspect-ratio_default_0.jpg"/></g><image width="400" height="400" transform="translate(0 124.2) scale(1.77)" xlink:href="../../Desktop/ESDM/3%C2%BA/2%C2%BA%20Semestre/Proyectos%20Interdisciplinares%20(LAB)/O0_Images/Suvi%20Suitala/1197213.jpg"/><path d="M21.22,851.54a22.18,22.18,0,0,1-9-1.69,21.56,21.56,0,0,1-6.87-5.24l6.14-6.09A16.35,16.35,0,0,0,16,842.2a13,13,0,0,0,5.85,1.26,8.38,8.38,0,0,0,4.64-1.08,3.4,3.4,0,0,0,1.68-3,3.86,3.86,0,0,0-1.08-2.84,9.24,9.24,0,0,0-2.89-1.86,39.88,39.88,0,0,0-3.92-1.51c-1.41-.48-2.81-1-4.22-1.63a19.8,19.8,0,0,1-3.91-2.35,11,11,0,0,1-2.83-3.55,13.5,13.5,0,0,1,.78-12.17,11.92,11.92,0,0,1,5.3-4.28,19,19,0,0,1,7.77-1.5,20.65,20.65,0,0,1,8.14,1.56,16.77,16.77,0,0,1,6.14,4.28l-6.14,6.08a14.2,14.2,0,0,0-3.92-3,9.75,9.75,0,0,0-4.4-1,7,7,0,0,0-3.91,1,2.93,2.93,0,0,0-1.45,2.65A3.47,3.47,0,0,0,18.69,822a9.84,9.84,0,0,0,2.84,1.69c1.2.48,2.51,1,3.91,1.45a43.12,43.12,0,0,1,4.28,1.68,16.58,16.58,0,0,1,3.86,2.47A10.55,10.55,0,0,1,36.47,833a12.66,12.66,0,0,1,1.08,5.54,11.61,11.61,0,0,1-4.34,9.58Q28.88,851.54,21.22,851.54Zm21.51-.67V821.59H52v29.28Zm4.64-33.31a4.92,4.92,0,0,1-3.61-1.45,5.12,5.12,0,0,1-1.39-3.61,5,5,0,0,1,1.39-3.62,4.92,4.92,0,0,1,3.61-1.45,4.74,4.74,0,0,1,3.56,1.45,5,5,0,0,1,1.38,3.62,5.16,5.16,0,0,1-1.38,3.61A4.74,4.74,0,0,1,47.37,817.56Zm30.41,33.31V834.18a4.86,4.86,0,0,0-1.44-3.67,4.74,4.74,0,0,0-3.56-1.45,5.12,5.12,0,0,0-2.65.67,4.42,4.42,0,0,0-1.81,1.8,5.24,5.24,0,0,0-.66,2.65l-3.55-1.74a11.83,11.83,0,0,1,1.5-6,10.2,10.2,0,0,1,4.16-4A12.64,12.64,0,0,1,75.85,821a10.44,10.44,0,0,1,5.73,1.57A11,11,0,0,1,87,832.14v18.73Zm-19.34,0V821.59h9.22v29.28Zm49.69,0V819.06a12.86,12.86,0,0,1,1.57-6.38,11.6,11.6,0,0,1,4.51-4.52,13.36,13.36,0,0,1,6.87-1.69,12.46,12.46,0,0,1,5.24,1,11.85,11.85,0,0,1,4,2.72L124.52,816a4.06,4.06,0,0,0-1.39-.9,3.74,3.74,0,0,0-1.75-.37,3.75,3.75,0,0,0-4,4v32.11Zm-6.45-21.45v-7.83h24.1v7.83Zm41.76,22.12a17,17,0,0,1-8.2-2,15.54,15.54,0,0,1-5.72-5.55,14.8,14.8,0,0,1-2.11-7.83,14.51,14.51,0,0,1,2.11-7.77,15.13,15.13,0,0,1,5.72-5.42,16.31,16.31,0,0,1,8.2-2.05,16.66,16.66,0,0,1,8.19,2,14.91,14.91,0,0,1,5.72,5.48,14.51,14.51,0,0,1,2.11,7.77,14.8,14.8,0,0,1-2.11,7.83,15.47,15.47,0,0,1-5.72,5.55A16.77,16.77,0,0,1,143.44,851.54Zm0-8.38a7,7,0,0,0,3.49-.84,5.87,5.87,0,0,0,2.29-2.47,7.92,7.92,0,0,0,.85-3.68,7.17,7.17,0,0,0-.85-3.55,5.81,5.81,0,0,0-2.35-2.41,6.36,6.36,0,0,0-3.43-.91,6.6,6.6,0,0,0-3.44.91,5.93,5.93,0,0,0-2.35,2.41,7.52,7.52,0,0,0-.84,3.61,7.78,7.78,0,0,0,.84,3.62,6.42,6.42,0,0,0,2.35,2.47A7,7,0,0,0,143.44,843.16Zm39.95,7.71V834.18a4.86,4.86,0,0,0-1.44-3.67,4.74,4.74,0,0,0-3.56-1.45,5.12,5.12,0,0,0-2.65.67,4.42,4.42,0,0,0-1.81,1.8,5.24,5.24,0,0,0-.66,2.65l-3.55-1.74a11.83,11.83,0,0,1,1.5-6,10.2,10.2,0,0,1,4.16-4,12.67,12.67,0,0,1,6.08-1.45,10.44,10.44,0,0,1,5.73,1.57,11,11,0,0,1,5.42,9.58v18.73Zm-19.34,0V821.59h9.22v29.28Zm46,.61a12.34,12.34,0,0,1-6.93-2,14,14,0,0,1-4.7-5.49,17.68,17.68,0,0,1-1.69-7.77,17.32,17.32,0,0,1,1.69-7.71,13.35,13.35,0,0,1,4.7-5.48,12,12,0,0,1,6.93-2,11.09,11.09,0,0,1,6,1.51,9.45,9.45,0,0,1,3.68,4,14.07,14.07,0,0,1,1.5,5.79v7.83a15,15,0,0,1-1.44,5.78,9.89,9.89,0,0,1-3.68,4A11.3,11.3,0,0,1,210.1,851.48Zm2.35-8.56a5.84,5.84,0,0,0,4.64-1.93,7.16,7.16,0,0,0,1.74-5,8,8,0,0,0-.78-3.61,6,6,0,0,0-5.6-3.38,6.09,6.09,0,0,0-3.32.91,6.57,6.57,0,0,0-2.22,2.47,8.67,8.67,0,0,0,0,7.23,6.72,6.72,0,0,0,2.22,2.47A6.5,6.5,0,0,0,212.45,842.92Zm6,8V843l1.39-7.11-1.39-7.11V807.13h9.1v43.74Zm29.7.67a17,17,0,0,1-8.2-2,15.54,15.54,0,0,1-5.72-5.55,14.8,14.8,0,0,1-2.11-7.83,14.51,14.51,0,0,1,2.11-7.77,15.13,15.13,0,0,1,5.72-5.42,16.29,16.29,0,0,1,8.2-2.05,16.66,16.66,0,0,1,8.19,2A15,15,0,0,1,262,828.4a14.6,14.6,0,0,1,2.1,7.77A14.88,14.88,0,0,1,262,844a15.57,15.57,0,0,1-5.73,5.55A16.77,16.77,0,0,1,248.11,851.54Zm0-8.38a7,7,0,0,0,3.49-.84,5.87,5.87,0,0,0,2.29-2.47,7.92,7.92,0,0,0,.84-3.68,7.17,7.17,0,0,0-.84-3.55,5.87,5.87,0,0,0-2.35-2.41,6.36,6.36,0,0,0-3.43-.91,6.6,6.6,0,0,0-3.44.91,5.93,5.93,0,0,0-2.35,2.41,7.52,7.52,0,0,0-.84,3.61,7.78,7.78,0,0,0,.84,3.62,6.42,6.42,0,0,0,2.35,2.47A7,7,0,0,0,248.11,843.16Zm46.18,8.38a17,17,0,0,1-8.19-2,15.47,15.47,0,0,1-5.72-5.55,14.8,14.8,0,0,1-2.11-7.83,14.51,14.51,0,0,1,2.11-7.77A15.06,15.06,0,0,1,286.1,823a16.27,16.27,0,0,1,8.19-2.05,16.67,16.67,0,0,1,8.2,2,15,15,0,0,1,5.72,5.48,14.51,14.51,0,0,1,2.11,7.77,14.8,14.8,0,0,1-2.11,7.83,15.54,15.54,0,0,1-5.72,5.55A16.78,16.78,0,0,1,294.29,851.54Zm0-8.38a7.08,7.08,0,0,0,3.5-.84,6,6,0,0,0,2.29-2.47,7.92,7.92,0,0,0,.84-3.68,7.17,7.17,0,0,0-.84-3.55,5.93,5.93,0,0,0-2.35-2.41,6.4,6.4,0,0,0-3.44-.91,6.56,6.56,0,0,0-3.43.91,5.81,5.81,0,0,0-2.35,2.41,7.52,7.52,0,0,0-.84,3.61,7.78,7.78,0,0,0,.84,3.62,6.27,6.27,0,0,0,2.35,2.47A6.92,6.92,0,0,0,294.29,843.16Zm35.83,7.71V819.06a13,13,0,0,1,1.56-6.38,11.62,11.62,0,0,1,4.52-4.52,13.36,13.36,0,0,1,6.87-1.69,12.5,12.5,0,0,1,5.24,1,12,12,0,0,1,4,2.72L346.5,816a3.93,3.93,0,0,0-1.38-.9,3.8,3.8,0,0,0-1.75-.37,3.76,3.76,0,0,0-4,4v32.11Zm-6.45-21.45v-7.83h24.1v7.83Zm41.76,22.12a17,17,0,0,1-8.2-2,15.47,15.47,0,0,1-5.72-5.55,14.8,14.8,0,0,1-2.11-7.83,14.51,14.51,0,0,1,2.11-7.77,15.06,15.06,0,0,1,5.72-5.42,16.29,16.29,0,0,1,8.2-2.05,16.66,16.66,0,0,1,8.19,2,14.91,14.91,0,0,1,5.72,5.48,14.51,14.51,0,0,1,2.11,7.77,14.8,14.8,0,0,1-2.11,7.83,15.47,15.47,0,0,1-5.72,5.55A16.77,16.77,0,0,1,365.43,851.54Zm0-8.38a7,7,0,0,0,3.49-.84,5.93,5.93,0,0,0,2.29-2.47,7.92,7.92,0,0,0,.84-3.68,7.17,7.17,0,0,0-.84-3.55,5.87,5.87,0,0,0-2.35-2.41,6.36,6.36,0,0,0-3.43-.91,6.6,6.6,0,0,0-3.44.91,5.87,5.87,0,0,0-2.35,2.41,7.52,7.52,0,0,0-.84,3.61,7.78,7.78,0,0,0,.84,3.62,6.34,6.34,0,0,0,2.35,2.47A7,7,0,0,0,365.43,843.16Zm39.95,7.71V834.18a4.83,4.83,0,0,0-1.45-3.67,4.7,4.7,0,0,0-3.55-1.45,5.12,5.12,0,0,0-2.65.67,4.36,4.36,0,0,0-1.81,1.8,5.24,5.24,0,0,0-.66,2.65l-3.56-1.74a11.84,11.84,0,0,1,1.51-6,10.13,10.13,0,0,1,4.16-4,12.62,12.62,0,0,1,6.08-1.45,10.44,10.44,0,0,1,5.73,1.57,11,11,0,0,1,5.42,9.58v18.73Zm-19.34,0V821.59h9.22v29.28Zm46,.61a12.29,12.29,0,0,1-6.92-2,13.9,13.9,0,0,1-4.7-5.49,17.54,17.54,0,0,1-1.69-7.77,17.19,17.19,0,0,1,1.69-7.71,13.28,13.28,0,0,1,4.7-5.48,12,12,0,0,1,6.92-2,11.15,11.15,0,0,1,6,1.51,9.36,9.36,0,0,1,3.67,4,13.93,13.93,0,0,1,1.51,5.79v7.83a14.79,14.79,0,0,1-1.45,5.78,9.8,9.8,0,0,1-3.67,4A11.36,11.36,0,0,1,432.08,851.48Zm2.35-8.56a5.82,5.82,0,0,0,4.64-1.93,7.12,7.12,0,0,0,1.75-5,8,8,0,0,0-.78-3.61,6.39,6.39,0,0,0-8.92-2.47,6.59,6.59,0,0,0-2.23,2.47,8.77,8.77,0,0,0,0,7.23,6.75,6.75,0,0,0,2.23,2.47A6.46,6.46,0,0,0,434.43,842.92Zm6,8V843l1.38-7.11-1.38-7.11V807.13h9.1v43.74Zm29.69.67a17,17,0,0,1-8.19-2,15.47,15.47,0,0,1-5.72-5.55,14.8,14.8,0,0,1-2.11-7.83,14.51,14.51,0,0,1,2.11-7.77A15.06,15.06,0,0,1,461.9,823a16.27,16.27,0,0,1,8.19-2.05,16.67,16.67,0,0,1,8.2,2A14.91,14.91,0,0,1,484,828.4a14.51,14.51,0,0,1,2.11,7.77A14.8,14.8,0,0,1,484,844a15.47,15.47,0,0,1-5.72,5.55A16.78,16.78,0,0,1,470.09,851.54Zm0-8.38a7.08,7.08,0,0,0,3.5-.84,5.93,5.93,0,0,0,2.29-2.47,7.92,7.92,0,0,0,.84-3.68,7.17,7.17,0,0,0-.84-3.55,5.87,5.87,0,0,0-2.35-2.41,6.4,6.4,0,0,0-3.44-.91,6.56,6.56,0,0,0-3.43.91,5.87,5.87,0,0,0-2.35,2.41,7.52,7.52,0,0,0-.84,3.61,7.78,7.78,0,0,0,.84,3.62,6.34,6.34,0,0,0,2.35,2.47A6.92,6.92,0,0,0,470.09,843.16Zm51.43,7.71V834.18a4.86,4.86,0,0,0-1.44-3.67,4.74,4.74,0,0,0-3.56-1.45,5.12,5.12,0,0,0-2.65.67,4.42,4.42,0,0,0-1.81,1.8,5.24,5.24,0,0,0-.66,2.65l-3.55-1.74a11.83,11.83,0,0,1,1.5-6,10.2,10.2,0,0,1,4.16-4,12.67,12.67,0,0,1,6.08-1.45,10.44,10.44,0,0,1,5.73,1.57,11,11,0,0,1,5.42,9.58v18.73Zm-19.34,0V821.59h9.22v29.28Zm48.94.67a18.35,18.35,0,0,1-8.5-1.93,15.21,15.21,0,0,1-.18-26.69,16.09,16.09,0,0,1,8-2,15.27,15.27,0,0,1,7.65,1.87,13.36,13.36,0,0,1,5.18,5.18,14.87,14.87,0,0,1,1.93,7.59,13,13,0,0,1-.12,1.69,15.36,15.36,0,0,1-.3,2l-25.25.06V833l21.33-.06-4,2.65a11,11,0,0,0-.78-4.16,5.16,5.16,0,0,0-2.17-2.53,6.17,6.17,0,0,0-3.43-.9,7,7,0,0,0-3.8,1,6.74,6.74,0,0,0-2.47,2.77,10.44,10.44,0,0,0-.84,4.4,10.17,10.17,0,0,0,.9,4.46,7.16,7.16,0,0,0,2.65,2.83,8.29,8.29,0,0,0,4.1,1,10,10,0,0,0,3.92-.73,8.92,8.92,0,0,0,3.07-2.29l5.06,5.07a13.7,13.7,0,0,1-5.24,3.79A17.64,17.64,0,0,1,551.12,851.54Zm31.56,0a15.4,15.4,0,0,1-7.17-1.63,12.57,12.57,0,0,1-4.82-4.58,13.06,13.06,0,0,1-1.75-6.75v-17h9.22v16.87a6.34,6.34,0,0,0,.48,2.59,4,4,0,0,0,1.57,1.69,4.81,4.81,0,0,0,2.47.6,4.29,4.29,0,0,0,3.25-1.26,5.16,5.16,0,0,0,1.21-3.62V821.59h9.22v16.93a13.17,13.17,0,0,1-1.75,6.81,12.65,12.65,0,0,1-4.82,4.58A15,15,0,0,1,582.68,851.54Zm23.62-.67V809.48h9.22v41.39Zm-6.63-21.45v-7.83h22.48v7.83Zm26.54,21.45V821.59h9.22v29.28Zm9.22-16.08-3.86-3a16.39,16.39,0,0,1,3.86-7.95A9.9,9.9,0,0,1,643,821a9.39,9.39,0,0,1,3.67.66,7.09,7.09,0,0,1,2.83,1.93L644,830.51a4,4,0,0,0-1.5-1,5.35,5.35,0,0,0-2.05-.37,4.89,4.89,0,0,0-3.68,1.45A5.91,5.91,0,0,0,635.43,834.79Zm29.76,16.75a17,17,0,0,1-8.19-2,15.47,15.47,0,0,1-5.72-5.55,14.8,14.8,0,0,1-2.11-7.83,14.51,14.51,0,0,1,2.11-7.77A15.06,15.06,0,0,1,657,823a16.27,16.27,0,0,1,8.19-2.05,16.67,16.67,0,0,1,8.2,2,14.91,14.91,0,0,1,5.72,5.48,14.51,14.51,0,0,1,2.11,7.77,14.8,14.8,0,0,1-2.11,7.83,15.47,15.47,0,0,1-5.72,5.55A16.78,16.78,0,0,1,665.19,851.54Zm0-8.38a7.08,7.08,0,0,0,3.5-.84,5.93,5.93,0,0,0,2.29-2.47,7.92,7.92,0,0,0,.84-3.68,7.17,7.17,0,0,0-.84-3.55,5.87,5.87,0,0,0-2.35-2.41,6.4,6.4,0,0,0-3.44-.91,6.56,6.56,0,0,0-3.43.91,5.87,5.87,0,0,0-2.35,2.41,7.52,7.52,0,0,0-.84,3.61,7.78,7.78,0,0,0,.84,3.62,6.34,6.34,0,0,0,2.35,2.47A6.92,6.92,0,0,0,665.19,843.16Z" transform="translate(0 120.8)"/><path d="M908.24,835v-7.35h9.16a6.93,6.93,0,0,0,3.19-.73,5.52,5.52,0,0,0,2.29-2.1,6.42,6.42,0,0,0,.84-3.38,6.26,6.26,0,0,0-.84-3.31,5.48,5.48,0,0,0-2.29-2.11,7.05,7.05,0,0,0-3.19-.72h-9.16V808h10.54a16.14,16.14,0,0,1,7.29,1.62,12.3,12.3,0,0,1,5.12,4.7,13,13,0,0,1,1.93,7.17,13.29,13.29,0,0,1-1.93,7.23,12.77,12.77,0,0,1-5.12,4.7,16,16,0,0,1-7.29,1.63ZM901,850.51V808h9.46v42.53Zm50.21.66a18.3,18.3,0,0,1-8.49-1.92A15.5,15.5,0,0,1,936.88,828a15.18,15.18,0,0,1,5.66-5.48,16.12,16.12,0,0,1,8-2,15.27,15.27,0,0,1,7.65,1.87,13.3,13.3,0,0,1,5.18,5.18,14.77,14.77,0,0,1,1.93,7.59,13,13,0,0,1-.12,1.69,15,15,0,0,1-.3,2l-25.25.06v-6.32l21.33-.06-4,2.65a11,11,0,0,0-.78-4.16,5.16,5.16,0,0,0-2.17-2.53,6.17,6.17,0,0,0-3.43-.9,7,7,0,0,0-3.8,1,6.68,6.68,0,0,0-2.47,2.77,10.4,10.4,0,0,0-.84,4.4,10.2,10.2,0,0,0,.9,4.46,7.3,7.3,0,0,0,2.65,2.83,8.4,8.4,0,0,0,4.1,1,10.22,10.22,0,0,0,3.92-.73,8.83,8.83,0,0,0,3.07-2.29l5.06,5.06a13.62,13.62,0,0,1-5.24,3.8A17.64,17.64,0,0,1,951.22,851.17Zm18.55-.66V821.23H979v29.28ZM979,834.43l-3.86-3a16.39,16.39,0,0,1,3.86-7.95,9.9,9.9,0,0,1,7.53-2.83,9.39,9.39,0,0,1,3.67.66,7.09,7.09,0,0,1,2.83,1.93l-5.48,6.93a4,4,0,0,0-1.5-1,5.55,5.55,0,0,0-2-.36,4.85,4.85,0,0,0-3.68,1.45A5.91,5.91,0,0,0,979,834.43Zm16.49,16.08V821.23h9.22v29.28Zm4.64-33.32a4.93,4.93,0,0,1-3.62-1.44,5.18,5.18,0,0,1-1.38-3.62,5,5,0,0,1,1.38-3.61,4.9,4.9,0,0,1,3.62-1.45,4.68,4.68,0,0,1,3.55,1.45,5,5,0,0,1,1.39,3.61,5.14,5.14,0,0,1-1.39,3.62A4.71,4.71,0,0,1,1000.12,817.19Zm25.17,34a17,17,0,0,1-8.2-2,15.54,15.54,0,0,1-5.72-5.55,14.82,14.82,0,0,1-2.11-7.83,14.51,14.51,0,0,1,2.11-7.77,15.13,15.13,0,0,1,5.72-5.42,16.29,16.29,0,0,1,8.2-2,16.66,16.66,0,0,1,8.19,2,14.91,14.91,0,0,1,5.72,5.48,14.51,14.51,0,0,1,2.11,7.77,14.82,14.82,0,0,1-2.11,7.83,15.47,15.47,0,0,1-5.72,5.55A16.77,16.77,0,0,1,1025.29,851.17Zm0-8.37a7,7,0,0,0,3.49-.84,5.93,5.93,0,0,0,2.29-2.47,7.92,7.92,0,0,0,.84-3.68,7.17,7.17,0,0,0-.84-3.55,5.87,5.87,0,0,0-2.35-2.41,6.27,6.27,0,0,0-3.43-.91,6.5,6.5,0,0,0-3.44.91,5.93,5.93,0,0,0-2.35,2.41,7.52,7.52,0,0,0-.84,3.61,7.78,7.78,0,0,0,.84,3.62,6.49,6.49,0,0,0,2.35,2.47A7,7,0,0,0,1025.29,842.8Zm33.08,8.31a14,14,0,0,1-7.41-2,14.39,14.39,0,0,1-5.06-5.43,17.84,17.84,0,0,1,0-15.66,14.28,14.28,0,0,1,5.06-5.42,13.89,13.89,0,0,1,7.41-2,12.57,12.57,0,0,1,5.43,1.14,10.63,10.63,0,0,1,4,3.2,7.88,7.88,0,0,1,1.81,4.58V841.9a8.74,8.74,0,0,1-1.75,4.7,11.73,11.73,0,0,1-4,3.31A12.42,12.42,0,0,1,1058.37,851.11Zm1.63-8.31a6.68,6.68,0,0,0,3.43-.84,6.49,6.49,0,0,0,2.29-2.47,7.45,7.45,0,0,0,.85-3.62,7.07,7.07,0,0,0-.85-3.55,5.81,5.81,0,0,0-2.29-2.47,6.14,6.14,0,0,0-3.37-.91,6.44,6.44,0,0,0-3.43.91,6.81,6.81,0,0,0-2.35,2.47,7.86,7.86,0,0,0,0,7.11,6.34,6.34,0,0,0,2.35,2.47A6.41,6.41,0,0,0,1060,842.8Zm15.24,7.71h-9v-7.89l1.38-7.11L1066,828.4V806.77h9.22Zm6.49,0V821.23H1091v29.28Zm4.64-33.32a4.91,4.91,0,0,1-3.61-1.44,5.14,5.14,0,0,1-1.39-3.62,5,5,0,0,1,1.39-3.61,4.88,4.88,0,0,1,3.61-1.45,4.7,4.7,0,0,1,3.56,1.45,5,5,0,0,1,1.38,3.61,5.18,5.18,0,0,1-1.38,3.62A4.73,4.73,0,0,1,1086.37,817.19Zm21.74,34a20.28,20.28,0,0,1-5.13-.66,20,20,0,0,1-4.63-1.87,15.93,15.93,0,0,1-3.62-2.89l5.24-5.3a10.64,10.64,0,0,0,3.44,2.47,11,11,0,0,0,4.33.84,5.07,5.07,0,0,0,2.47-.48,1.46,1.46,0,0,0,.91-1.32,1.73,1.73,0,0,0-1.09-1.63,10.33,10.33,0,0,0-2.65-1l-3.43-1a15.47,15.47,0,0,1-3.44-1.5,7.75,7.75,0,0,1-2.65-2.66,8.59,8.59,0,0,1-1-4.39,8.19,8.19,0,0,1,1.45-4.88,9.65,9.65,0,0,1,4.09-3.32,15,15,0,0,1,6.21-1.2,17.53,17.53,0,0,1,6.87,1.32,12.23,12.23,0,0,1,5.18,3.8l-5.24,5.3a7.76,7.76,0,0,0-3.14-2.29,9,9,0,0,0-3.31-.66,4.56,4.56,0,0,0-2.35.48,1.36,1.36,0,0,0-.78,1.27,1.62,1.62,0,0,0,1,1.44,13,13,0,0,0,2.65,1c1.09.28,2.23.62,3.44,1a15.4,15.4,0,0,1,3.43,1.63,7.92,7.92,0,0,1,2.65,2.77,8.54,8.54,0,0,1,1,4.46,8.15,8.15,0,0,1-3.25,6.8Q1113.59,851.23,1108.11,851.23Zm16.93-.72V821.23h9.21v29.28Zm18.73,0V833.4a4.31,4.31,0,0,0-1.38-3.43,4.6,4.6,0,0,0-3.32-1.27,5,5,0,0,0-2.47.6,4.46,4.46,0,0,0-1.74,1.57,4.84,4.84,0,0,0-.61,2.53l-3.55-1.57a11.21,11.21,0,0,1,1.51-6,9.94,9.94,0,0,1,4.09-3.86,12.26,12.26,0,0,1,5.85-1.38,10.86,10.86,0,0,1,5.48,1.38,10.28,10.28,0,0,1,3.91,3.86,11.45,11.45,0,0,1,1.45,5.9v18.74Zm18.74,0V833.4a4.28,4.28,0,0,0-1.39-3.43,4.56,4.56,0,0,0-3.31-1.27,5,5,0,0,0-2.47.6,4.49,4.49,0,0,0-1.75,1.57,4.94,4.94,0,0,0-.6,2.53l-5.3-.72a12.76,12.76,0,0,1,1.75-6.39,11.52,11.52,0,0,1,4.39-4.16,12.85,12.85,0,0,1,6.21-1.5,12,12,0,0,1,6,1.44,10.05,10.05,0,0,1,4.16,4,11.86,11.86,0,0,1,1.57,6.27v18.13Zm29.22.66a17,17,0,0,1-8.19-2,15.47,15.47,0,0,1-5.72-5.55,14.82,14.82,0,0,1-2.11-7.83,14.51,14.51,0,0,1,2.11-7.77,15.06,15.06,0,0,1,5.72-5.42,16.27,16.27,0,0,1,8.19-2,16.7,16.7,0,0,1,8.2,2,15,15,0,0,1,5.72,5.48,14.51,14.51,0,0,1,2.11,7.77,14.82,14.82,0,0,1-2.11,7.83,15.54,15.54,0,0,1-5.72,5.55A16.81,16.81,0,0,1,1191.73,851.17Zm0-8.37a7.08,7.08,0,0,0,3.5-.84,6.06,6.06,0,0,0,2.29-2.47,7.92,7.92,0,0,0,.84-3.68,7.17,7.17,0,0,0-.84-3.55,5.93,5.93,0,0,0-2.35-2.41,6.31,6.31,0,0,0-3.44-.91,6.47,6.47,0,0,0-3.43.91,5.81,5.81,0,0,0-2.35,2.41,7.52,7.52,0,0,0-.84,3.61,7.78,7.78,0,0,0,.84,3.62,6.34,6.34,0,0,0,2.35,2.47A6.92,6.92,0,0,0,1191.73,842.8Z" transform="translate(0 120.8)"/></g></g></svg>