<svg xmlns="http://www.w3.org/2000/svg" viewBox="0 0 133.79 135.91"><defs><style>.cls-1{fill:#0c6;}.cls-2{fill:#1d1d1b;}</style></defs><g id="Capa_2" data-name="Capa 2"><g id="Capa_1-2" data-name="Capa 1"><path class="cls-1" d="M69.72,64.58h11a21.36,21.36,0,0,1,21.34-21.29h.31v-11h-.31A32.34,32.34,0,0,0,69.72,64.58Z"/><path class="cls-2" d="M33.79,0H29.87a32.33,32.33,0,0,0,2.47,64.57c.49,0,1,0,1.45,0v-11c-.48,0-1,.07-1.45.07a21.34,21.34,0,1,1,0-42.67c.49,0,1,0,1.45.07Z"/><path class="cls-2" d="M31.3,134h3.93a32.33,32.33,0,0,0-2.47-64.57c-.49,0-1,0-1.46,0v11c.49,0,1-.07,1.46-.07a21.34,21.34,0,1,1,0,42.67c-.49,0-1,0-1.46-.07Z"/><path class="cls-2" d="M32.29,64.76v-11A21.37,21.37,0,0,1,11,32.42a3,3,0,0,1,0-.31H0c0,.1,0,.2,0,.31A32.34,32.34,0,0,0,32.29,64.76Z"/><path class="cls-1" d="M101.45,82.24a21.34,21.34,0,1,1-21.33,21.34,21.36,21.36,0,0,1,21.33-21.34m0-11a32.34,32.34,0,1,0,32.34,32.34,32.33,32.33,0,0,0-32.34-32.34Z"/></g></g></svg>