<svg xmlns="http://www.w3.org/2000/svg" xmlns:xlink="http://www.w3.org/1999/xlink" viewBox="0 0 2128.7 2540.21"><defs><style>.cls-1,.cls-4{fill:#c1f4d9;}.cls-2{fill:#0c6;}.cls-3{isolation:isolate;}.cls-4,.cls-5,.cls-6{mix-blend-mode:multiply;}.cls-5{fill:none;stroke:#c1f4d9;stroke-miterlimit:10;stroke-width:3px;}.cls-7{clip-path:url(#clip-path);}.cls-8{clip-path:url(#clip-path-2);}.cls-9{fill:#affc41;}.cls-10{fill:#1d1d1b;}</style><clipPath id="clip-path"><rect class="cls-1" y="1231.15" width="424" height="425.26"/></clipPath><clipPath id="clip-path-2"><rect class="cls-2" x="479.13" y="1229.27" width="424" height="425.26"/></clipPath></defs><g class="cls-3"><g id="Capa_2" data-name="Capa 2"><g id="Capa_1-2" data-name="Capa 1"><rect class="cls-1" x="0.49" y="809.55" width="72" height="72"/><rect class="cls-1" x="88.49" y="809.55" width="72" height="72"/><rect class="cls-1" x="0.49" y="897.55" width="72" height="72"/><rect class="cls-1" x="88.49" y="897.55" width="72" height="72"/><rect class="cls-1" x="176.49" y="809.55" width="72" height="72"/><rect class="cls-1" x="176.49" y="897.55" width="72" height="72"/><rect class="cls-1" x="0.49" y="985.82" width="72" height="72"/><rect class="cls-1" x="88.49" y="985.82" width="72" height="72"/><rect class="cls-1" x="176.49" y="985.82" width="72" height="72"/><rect class="cls-1" x="0.49" y="1074.1" width="72" height="72"/><rect class="cls-1" x="88.49" y="1074.1" width="72" height="72"/><rect class="cls-1" x="176.49" y="1074.1" width="72" height="72"/><rect class="cls-1" x="264.49" y="809.55" width="72" height="72"/><rect class="cls-1" x="352.49" y="809.55" width="72" height="72"/><rect class="cls-1" x="264.49" y="897.55" width="72" height="72"/><rect class="cls-1" x="352.49" y="897.55" width="72" height="72"/><rect class="cls-1" x="440.49" y="809.55" width="72" height="72"/><rect class="cls-1" x="440.49" y="897.55" width="72" height="72"/><rect class="cls-1" x="264.49" y="985.82" width="72" height="72"/><rect class="cls-1" x="352.49" y="985.82" width="72" height="72"/><rect class="cls-1" x="440.49" y="985.82" width="72" height="72"/><rect class="cls-1" x="264.49" y="1074.1" width="72" height="72"/><rect class="cls-1" x="352.49" y="1074.1" width="72" height="72"/><rect class="cls-1" x="440.49" y="1074.1" width="72" height="72"/><rect class="cls-1" x="528.49" y="809.55" width="72" height="72"/><rect class="cls-1" x="616.49" y="809.55" width="72" height="72"/><rect class="cls-1" x="528.49" y="897.55" width="72" height="72"/><rect class="cls-1" x="616.49" y="897.55" width="72" height="72"/><rect class="cls-1" x="704.49" y="809.55" width="72" height="72"/><rect class="cls-1" x="704.49" y="897.55" width="72" height="72"/><rect class="cls-1" x="528.49" y="985.82" width="72" height="72"/><rect class="cls-1" x="616.49" y="985.82" width="72" height="72"/><rect class="cls-1" x="704.49" y="985.82" width="72" height="72"/><rect class="cls-1" x="528.49" y="1074.1" width="72" height="72"/><rect class="cls-1" x="616.49" y="1074.1" width="72" height="72"/><rect class="cls-1" x="704.49" y="1074.1" width="72" height="72"/><rect class="cls-1" x="792.49" y="809.55" width="72" height="72"/><rect class="cls-1" x="880.49" y="809.55" width="72" height="72"/><rect class="cls-1" x="792.49" y="897.55" width="72" height="72"/><rect class="cls-1" x="880.49" y="897.55" width="72" height="72"/><rect class="cls-1" x="968.49" y="809.55" width="72" height="72"/><rect class="cls-1" x="968.49" y="897.55" width="72" height="72"/><rect class="cls-1" x="792.49" y="985.82" width="72" height="72"/><rect class="cls-1" x="880.49" y="985.82" width="72" height="72"/><rect class="cls-1" x="968.49" y="985.82" width="72" height="72"/><rect class="cls-1" x="792.49" y="1074.1" width="72" height="72"/><rect class="cls-1" x="880.49" y="1074.1" width="72" height="72"/><rect class="cls-1" x="968.49" y="1074.1" width="72" height="72"/><rect class="cls-1" y="566.55" width="72" height="72"/><rect class="cls-1" y="654.55" width="72" height="72"/><path class="cls-2" d="M362.67,89.5a79.22,79.22,0,0,0-79-75H202.76v160H362.67V102.2C362.67,98,362.89,93.73,362.67,89.5Z"/><path d="M3,221.41v-.65l.82-.8c2-1.89,2.89-2.9,2.91-4.08a1.39,1.39,0,0,0-1.55-1.52,2.66,2.66,0,0,0-1.66.66l-.33-.74a3.41,3.41,0,0,1,2.21-.8,2.2,2.2,0,0,1,2.38,2.27c0,1.44-1,2.6-2.68,4.19l-.63.57v0h3.5v.87Z"/><path d="M12.37,221.41v-2.12H8.75v-.7l3.48-5h1.14v4.84h1.09v.83H13.37v2.12Zm0-2.95v-2.6c0-.41,0-.82,0-1.22h0c-.24.45-.43.79-.64,1.15l-1.91,2.65v0Z"/><path d="M15.17,219.43a2.22,2.22,0,0,1,1.55-2.08v0a1.93,1.93,0,0,1-1.24-1.75,2.19,2.19,0,0,1,2.41-2.08,2,2,0,0,1,2.27,1.92,2,2,0,0,1-1.28,1.83v0a2.17,2.17,0,0,1,1.57,2,2.4,2.4,0,0,1-2.65,2.26C16.16,221.54,15.17,220.57,15.17,219.43Zm4.2-.05c0-.94-.66-1.4-1.72-1.7a1.7,1.7,0,0,0-1.4,1.61,1.45,1.45,0,0,0,1.56,1.49A1.41,1.41,0,0,0,19.37,219.38Zm-2.9-3.89c0,.78.58,1.2,1.48,1.44a1.53,1.53,0,0,0,1.19-1.42,1.21,1.21,0,0,0-1.32-1.27A1.24,1.24,0,0,0,16.47,215.49Z"/><path d="M22.25,215.61l.83,1.24.59,1h0c.19-.35.39-.65.58-1l.81-1.23h1.14l-2,2.8,2,3h-1.2l-.85-1.31c-.23-.33-.42-.65-.62-1h0c-.19.35-.39.66-.61,1l-.84,1.31H21l2.06-3-2-2.84Z"/><path d="M27,221.41v-.65l.83-.8c2-1.89,2.89-2.9,2.9-4.08a1.39,1.39,0,0,0-1.55-1.52,2.66,2.66,0,0,0-1.65.66l-.34-.74a3.41,3.41,0,0,1,2.21-.8,2.2,2.2,0,0,1,2.39,2.27c0,1.44-1.05,2.6-2.69,4.19l-.62.57v0H32v.87Z"/><path d="M36.4,221.41v-2.12H32.78v-.7l3.47-5h1.14v4.84h1.09v.83H37.39v2.12Zm0-2.95v-2.6c0-.41,0-.82,0-1.22h0c-.24.45-.43.79-.65,1.15l-1.91,2.65v0Z"/><path d="M39.2,219.43a2.21,2.21,0,0,1,1.54-2.08v0a1.93,1.93,0,0,1-1.23-1.75,2.18,2.18,0,0,1,2.41-2.08,2,2,0,0,1,2.26,1.92,2,2,0,0,1-1.28,1.83v0a2.17,2.17,0,0,1,1.57,2,2.4,2.4,0,0,1-2.65,2.26C40.18,221.54,39.2,220.57,39.2,219.43Zm4.19-.05c0-.94-.66-1.4-1.71-1.7a1.71,1.71,0,0,0-1.41,1.61,1.45,1.45,0,0,0,1.56,1.49A1.41,1.41,0,0,0,43.39,219.38Zm-2.9-3.89c0,.78.59,1.2,1.49,1.44a1.55,1.55,0,0,0,1.19-1.42,1.22,1.22,0,0,0-1.32-1.27A1.24,1.24,0,0,0,40.49,215.49Z"/><path d="M48.33,217.5c0-.74,0-1.34,0-1.89h.95l0,1h0a2.28,2.28,0,0,1,2.06-1.12c1.4,0,2.46,1.18,2.46,3,0,2.08-1.27,3.11-2.64,3.11a2,2,0,0,1-1.79-.91h0v3.16h-1Zm1,1.55a1.88,1.88,0,0,0,.05.43A1.63,1.63,0,0,0,51,220.72c1.12,0,1.76-.92,1.76-2.25,0-1.16-.61-2.16-1.72-2.16a1.7,1.7,0,0,0-1.6,1.31,2,2,0,0,0-.07.43Z"/><path d="M55.48,215.61l.83,1.24c.21.33.39.63.58,1h0c.19-.35.38-.65.58-1l.81-1.23h1.14l-2,2.8,2,3h-1.2l-.85-1.31c-.23-.33-.42-.65-.62-1h0c-.19.35-.39.66-.61,1l-.84,1.31H54.21l2.06-3-2-2.84Z"/><path d="M.54,544.41v-.65l.83-.8c2-1.9,2.89-2.91,2.9-4.08a1.4,1.4,0,0,0-1.55-1.53,2.66,2.66,0,0,0-1.65.66l-.34-.74a3.41,3.41,0,0,1,2.21-.79,2.2,2.2,0,0,1,2.39,2.27c0,1.43-1,2.6-2.69,4.18l-.62.58v0h3.5v.88Z"/><path d="M10,544.41v-2.13H6.34v-.69l3.47-5H11v4.85H12v.82H11v2.13Zm0-2.95v-2.61c0-.4,0-.81,0-1.22h0c-.24.46-.43.79-.65,1.15L7.4,541.43v0Z"/><path d="M12.76,542.43a2.22,2.22,0,0,1,1.54-2.09v0a1.92,1.92,0,0,1-1.23-1.75,2.18,2.18,0,0,1,2.41-2.07,2,2,0,0,1,2.26,1.92,2,2,0,0,1-1.28,1.82v0a2.15,2.15,0,0,1,1.57,2,2.4,2.4,0,0,1-2.65,2.27C13.74,544.54,12.76,543.57,12.76,542.43Zm4.19,0c0-1-.66-1.4-1.71-1.7a1.69,1.69,0,0,0-1.41,1.6,1.45,1.45,0,0,0,1.56,1.49A1.41,1.41,0,0,0,17,542.38Zm-2.9-3.9c0,.78.59,1.2,1.49,1.44a1.54,1.54,0,0,0,1.19-1.41,1.22,1.22,0,0,0-1.32-1.28A1.24,1.24,0,0,0,14.05,538.48Z"/><path d="M19.83,538.6l.83,1.25c.22.32.4.62.59.95h0c.19-.35.38-.65.57-1l.82-1.24h1.14l-2,2.81,2,3h-1.2l-.85-1.31c-.23-.34-.42-.66-.63-1h0c-.19.35-.4.66-.61,1l-.84,1.31H18.56l2.07-3-2-2.84Z"/><path d="M26.85,537.59h0l-1.36.74-.2-.81,1.7-.91h.9v7.8h-1Z"/><path d="M35.17,537.35a3.8,3.8,0,0,0-.79,0,3.17,3.17,0,0,0-2.71,2.77h0a2.38,2.38,0,0,1,4.24,1.62,2.61,2.61,0,0,1-2.59,2.75c-1.67,0-2.76-1.3-2.76-3.32a4.9,4.9,0,0,1,1.32-3.52,4.25,4.25,0,0,1,2.49-1.15,4.84,4.84,0,0,1,.77-.06Zm-.3,4.5a1.59,1.59,0,0,0-1.61-1.79,1.75,1.75,0,0,0-1.51,1,.93.93,0,0,0-.12.47c0,1.29.61,2.23,1.72,2.23C34.26,543.72,34.87,543,34.87,541.85Z"/><path d="M42.06,540.42c0,2.66-1,4.12-2.71,4.12-1.53,0-2.56-1.43-2.58-4s1.12-4,2.71-4S42.06,537.94,42.06,540.42Zm-4.24.12c0,2,.63,3.18,1.59,3.18S41,542.46,41,540.47s-.49-3.18-1.58-3.18C38.49,537.29,37.82,538.42,37.82,540.54Z"/><path d="M45.91,540.5c0-.75,0-1.35,0-1.9h1l0,1h0a2.28,2.28,0,0,1,2.06-1.13c1.41,0,2.46,1.19,2.46,2.95,0,2.09-1.27,3.12-2.64,3.12a2,2,0,0,1-1.78-.91h0v3.15h-1ZM47,542a3,3,0,0,0,0,.44,1.63,1.63,0,0,0,1.58,1.23c1.12,0,1.77-.91,1.77-2.24,0-1.17-.61-2.16-1.73-2.16A1.68,1.68,0,0,0,47,540.62a1.49,1.49,0,0,0-.08.43Z"/><path d="M53.06,538.6l.83,1.25c.21.32.39.62.59.95h0c.19-.35.39-.65.58-1l.81-1.24H57l-2,2.81,2,3H55.9l-.85-1.31c-.23-.34-.42-.66-.62-1h0c-.19.35-.39.66-.61,1L53,544.41H51.79l2.06-3-2-2.84Z"/><path d="M2.83,782.59h0l-1.36.74-.2-.81,1.7-.91h.9v7.8h-1Z"/><path d="M11.88,785.42c0,2.66-1,4.12-2.71,4.12-1.53,0-2.56-1.43-2.58-4s1.12-4,2.71-4S11.88,782.94,11.88,785.42Zm-4.24.12c0,2,.63,3.18,1.59,3.18s1.59-1.26,1.59-3.25-.49-3.18-1.58-3.18C8.31,782.29,7.64,783.42,7.64,785.54Z"/><path d="M13.1,788.2a3.57,3.57,0,0,0,1.73.49c1.36,0,1.77-.87,1.76-1.51,0-1.1-1-1.56-2-1.56H14v-.79h.59c.77,0,1.74-.4,1.74-1.32,0-.63-.4-1.18-1.37-1.18a2.89,2.89,0,0,0-1.56.52l-.27-.77a3.65,3.65,0,0,1,2-.6c1.54,0,2.23.91,2.23,1.86A1.93,1.93,0,0,1,16,785.17v0a2,2,0,0,1,1.73,2c0,1.25-1,2.34-2.84,2.34a4,4,0,0,1-2-.53Z"/><path d="M23.46,782.35a3.89,3.89,0,0,0-.8,0A3.18,3.18,0,0,0,20,785.17h0a2.37,2.37,0,0,1,4.23,1.62,2.61,2.61,0,0,1-2.59,2.75c-1.66,0-2.76-1.3-2.76-3.32a5,5,0,0,1,1.32-3.52,4.31,4.31,0,0,1,2.5-1.15,4.76,4.76,0,0,1,.77-.06Zm-.3,4.5a1.59,1.59,0,0,0-1.61-1.79A1.74,1.74,0,0,0,20,786a.93.93,0,0,0-.12.47c0,1.29.61,2.23,1.71,2.23C22.54,788.72,23.16,788,23.16,786.85Z"/><path d="M26,783.6l.83,1.25c.21.32.39.62.59.95h0c.19-.35.39-.65.58-1l.81-1.24H30l-2,2.81,2,3h-1.2L28,788.1c-.23-.34-.42-.66-.62-1h0c-.19.35-.39.66-.61,1l-.84,1.31H24.72l2.06-3-2-2.84Z"/><path d="M33.51,788.2a3.57,3.57,0,0,0,1.73.49c1.36,0,1.78-.87,1.76-1.51,0-1.1-1-1.56-2-1.56H34.4v-.79H35c.77,0,1.74-.4,1.74-1.32,0-.63-.4-1.18-1.37-1.18a2.89,2.89,0,0,0-1.56.52l-.27-.77a3.69,3.69,0,0,1,2-.6c1.53,0,2.23.91,2.23,1.86a1.93,1.93,0,0,1-1.44,1.83v0a2,2,0,0,1,1.74,2c0,1.25-1,2.34-2.85,2.34a4,4,0,0,1-2-.53Z"/><path d="M39.67,788.2a3.57,3.57,0,0,0,1.73.49c1.35,0,1.77-.87,1.76-1.51,0-1.1-1-1.56-2-1.56h-.59v-.79h.59c.76,0,1.73-.4,1.73-1.32,0-.63-.39-1.18-1.36-1.18a2.83,2.83,0,0,0-1.56.52l-.28-.77a3.71,3.71,0,0,1,2-.6c1.54,0,2.23.91,2.23,1.86a1.93,1.93,0,0,1-1.44,1.83v0a2,2,0,0,1,1.74,2c0,1.25-1,2.34-2.84,2.34a4,4,0,0,1-2-.53Z"/><path d="M50,782.35a3.83,3.83,0,0,0-.79,0,3.18,3.18,0,0,0-2.71,2.77h0a2.37,2.37,0,0,1,4.23,1.62,2.61,2.61,0,0,1-2.59,2.75c-1.67,0-2.76-1.3-2.76-3.32a4.9,4.9,0,0,1,1.32-3.52,4.28,4.28,0,0,1,2.5-1.15,4.73,4.73,0,0,1,.76-.06Zm-.3,4.5a1.58,1.58,0,0,0-1.6-1.79,1.73,1.73,0,0,0-1.51,1,.84.84,0,0,0-.12.47c0,1.29.61,2.23,1.71,2.23C49.11,788.72,49.72,788,49.72,786.85Z"/><path d="M54.61,785.5c0-.75,0-1.35,0-1.9h.95l.05,1h0a2.28,2.28,0,0,1,2.06-1.13c1.41,0,2.46,1.19,2.46,2.95,0,2.09-1.27,3.12-2.64,3.12a2,2,0,0,1-1.78-.91h0v3.15h-1Zm1,1.54a3,3,0,0,0,.05.44,1.63,1.63,0,0,0,1.58,1.23c1.12,0,1.77-.91,1.77-2.24,0-1.17-.61-2.16-1.73-2.16a1.68,1.68,0,0,0-1.59,1.31,1.49,1.49,0,0,0-.08.43Z"/><path d="M61.76,783.6l.83,1.25c.21.32.39.62.59.95h0c.19-.35.39-.65.58-1l.81-1.24h1.14l-2,2.81,2,3H64.6l-.85-1.31c-.23-.34-.42-.66-.62-1h0c-.19.35-.39.66-.61,1l-.84,1.31H60.49l2.06-3-2-2.84Z"/><path d="M3.8,1214.77v-2.12H.18v-.7l3.48-5H4.8v4.85H5.89v.83H4.8v2.12Zm0-3v-2.6c0-.41,0-.82,0-1.23h0c-.24.46-.43.79-.65,1.15l-1.9,2.65v0Z"/><path d="M6.7,1214.77v-.65l.82-.8c2-1.9,2.89-2.9,2.91-4.08a1.39,1.39,0,0,0-1.55-1.52,2.66,2.66,0,0,0-1.66.66l-.33-.75a3.43,3.43,0,0,1,2.2-.79,2.2,2.2,0,0,1,2.39,2.27c0,1.44-1,2.6-2.69,4.18l-.62.58v0h3.5v.88Z"/><path d="M16.11,1214.77v-2.12H12.49v-.7l3.48-5h1.14v4.85H18.2v.83H17.11v2.12Zm0-3v-2.6c0-.41,0-.82,0-1.23h0c-.24.46-.43.79-.64,1.15l-1.91,2.65v0Z"/><path d="M19.83,1209l.83,1.25c.22.33.4.63.59,1h0c.19-.35.38-.65.57-1l.82-1.24h1.14l-2,2.81,2,3h-1.2l-.85-1.31c-.23-.33-.42-.66-.63-1h0c-.19.35-.4.66-.61,1l-.84,1.31H18.56l2.07-3-2-2.85Z"/><path d="M27.83,1214.77v-2.12H24.2v-.7l3.48-5h1.14v4.85h1.09v.83H28.82v2.12Zm0-3v-2.6q0-.62,0-1.23h0c-.24.46-.44.79-.65,1.15l-1.91,2.65v0Z"/><path d="M30.72,1214.77v-.65l.83-.8c2-1.9,2.89-2.9,2.9-4.08a1.39,1.39,0,0,0-1.55-1.52,2.63,2.63,0,0,0-1.65.66l-.34-.75a3.46,3.46,0,0,1,2.21-.79,2.19,2.19,0,0,1,2.38,2.27c0,1.44-1,2.6-2.68,4.18l-.63.58v0H35.7v.88Z"/><path d="M40.14,1214.77v-2.12H36.51v-.7l3.48-5h1.14v4.85h1.09v.83H41.13v2.12Zm0-3v-2.6q0-.62,0-1.23h0c-.24.46-.43.79-.65,1.15l-1.91,2.65v0Z"/><path d="M48.45,1210.86c0-.74,0-1.34,0-1.9h.94l0,1h0a2.27,2.27,0,0,1,2.06-1.13c1.4,0,2.46,1.19,2.46,3,0,2.09-1.27,3.12-2.64,3.12a2.05,2.05,0,0,1-1.79-.91h0v3.15h-1Zm1,1.55a2,2,0,0,0,0,.43,1.62,1.62,0,0,0,1.58,1.23c1.11,0,1.76-.91,1.76-2.24,0-1.16-.61-2.16-1.73-2.16a1.68,1.68,0,0,0-1.59,1.31,1.55,1.55,0,0,0-.07.43Z"/><path d="M55.61,1209l.82,1.25c.22.33.4.63.59,1h0c.19-.35.38-.65.57-1l.82-1.24h1.14l-2,2.81,2,3h-1.2l-.85-1.31c-.23-.33-.42-.66-.63-1h0c-.19.35-.4.66-.61,1l-.84,1.31H54.33l2.07-3-2-2.85Z"/><path d="M5,1704.06a3.72,3.72,0,0,0-.79,0,3.17,3.17,0,0,0-2.71,2.78h0a2.3,2.3,0,0,1,1.89-.9,2.31,2.31,0,0,1,2.35,2.51,2.61,2.61,0,0,1-2.59,2.75c-1.67,0-2.76-1.29-2.76-3.32a4.9,4.9,0,0,1,1.32-3.52,4.25,4.25,0,0,1,2.49-1.15,6.42,6.42,0,0,1,.77-.06Zm-.3,4.49a1.58,1.58,0,0,0-1.61-1.78,1.73,1.73,0,0,0-1.51,1,.89.89,0,0,0-.12.46c0,1.29.61,2.23,1.72,2.23C4.08,1710.42,4.69,1709.67,4.69,1708.55Z"/><path d="M6.6,1709.13A2.24,2.24,0,0,1,8.15,1707l0,0a1.93,1.93,0,0,1-1.23-1.75,2.18,2.18,0,0,1,2.41-2.08,2,2,0,0,1,2.27,1.92,2,2,0,0,1-1.29,1.82v0a2.15,2.15,0,0,1,1.57,2,2.4,2.4,0,0,1-2.65,2.27C7.58,1711.24,6.6,1710.27,6.6,1709.13Zm4.2-.05c0-.95-.66-1.4-1.72-1.7a1.69,1.69,0,0,0-1.4,1.61,1.43,1.43,0,0,0,1.56,1.48A1.41,1.41,0,0,0,10.8,1709.08Zm-2.91-3.9c0,.78.59,1.2,1.49,1.44a1.53,1.53,0,0,0,1.19-1.41,1.21,1.21,0,0,0-1.32-1.27A1.24,1.24,0,0,0,7.89,1705.18Z"/><path d="M12.76,1709.13A2.23,2.23,0,0,1,14.3,1707v0a1.93,1.93,0,0,1-1.23-1.75,2.18,2.18,0,0,1,2.41-2.08,2,2,0,0,1,2.26,1.92,2,2,0,0,1-1.28,1.82v0a2.16,2.16,0,0,1,1.57,2,2.4,2.4,0,0,1-2.65,2.27C13.74,1711.24,12.76,1710.27,12.76,1709.13Zm4.19-.05c0-.95-.66-1.4-1.71-1.7a1.7,1.7,0,0,0-1.41,1.61,1.44,1.44,0,0,0,1.56,1.48A1.41,1.41,0,0,0,17,1709.08Zm-2.9-3.9c0,.78.59,1.2,1.49,1.44a1.53,1.53,0,0,0,1.19-1.41,1.21,1.21,0,0,0-1.32-1.27A1.24,1.24,0,0,0,14.05,1705.18Z"/><path d="M19.83,1705.3l.83,1.25c.22.33.4.62.59,1h0c.19-.35.38-.65.57-1l.82-1.24h1.14l-2,2.81,2,3h-1.2l-.85-1.31c-.23-.34-.42-.66-.63-1h0c-.19.35-.4.66-.61,1l-.84,1.31H18.56l2.07-3-2-2.85Z"/><path d="M24.81,1709.9a3.57,3.57,0,0,0,1.73.49c1.36,0,1.78-.86,1.77-1.51,0-1.09-1-1.56-2-1.56H25.7v-.79h.59c.77,0,1.74-.4,1.74-1.32,0-.63-.4-1.18-1.37-1.18a2.89,2.89,0,0,0-1.56.52l-.27-.77a3.69,3.69,0,0,1,2-.6c1.53,0,2.23.91,2.23,1.86a2,2,0,0,1-1.44,1.84v0a2,2,0,0,1,1.74,2c0,1.25-1,2.34-2.85,2.34a4,4,0,0,1-2-.53Z"/><path d="M31,1709.9a3.57,3.57,0,0,0,1.73.49c1.35,0,1.77-.86,1.76-1.51,0-1.09-1-1.56-2-1.56h-.59v-.79h.59c.76,0,1.74-.4,1.74-1.32,0-.63-.4-1.18-1.37-1.18a2.83,2.83,0,0,0-1.56.52l-.28-.77a3.71,3.71,0,0,1,2-.6c1.54,0,2.23.91,2.23,1.86a2,2,0,0,1-1.44,1.84v0a2,2,0,0,1,1.74,2c0,1.25-1,2.34-2.84,2.34a4,4,0,0,1-2-.53Z"/><path d="M41.32,1704.06a3.75,3.75,0,0,0-.79,0,3.18,3.18,0,0,0-2.71,2.78h0a2.37,2.37,0,0,1,4.23,1.61,2.61,2.61,0,0,1-2.59,2.75c-1.67,0-2.76-1.29-2.76-3.32a4.9,4.9,0,0,1,1.32-3.52,4.28,4.28,0,0,1,2.5-1.15,6.28,6.28,0,0,1,.76-.06Zm-.3,4.49a1.58,1.58,0,0,0-1.6-1.78,1.71,1.71,0,0,0-1.51,1,.81.81,0,0,0-.12.46c0,1.29.61,2.23,1.71,2.23C40.41,1710.42,41,1709.67,41,1708.55Z"/><path d="M48.45,1707.2c0-.74,0-1.34,0-1.9h.94l0,1h0a2.27,2.27,0,0,1,2.06-1.13c1.4,0,2.46,1.19,2.46,2.95,0,2.09-1.27,3.12-2.64,3.12a2.05,2.05,0,0,1-1.79-.91h0v3.15h-1Zm1,1.55a2,2,0,0,0,0,.43,1.62,1.62,0,0,0,1.58,1.23c1.11,0,1.76-.91,1.76-2.24,0-1.16-.61-2.16-1.73-2.16a1.68,1.68,0,0,0-1.59,1.31,1.55,1.55,0,0,0-.07.43Z"/><path d="M55.61,1705.3l.82,1.25c.22.33.4.62.59,1h0c.19-.35.38-.65.57-1l.82-1.24h1.14l-2,2.81,2,3h-1.2l-.85-1.31c-.23-.34-.42-.66-.63-1h0c-.19.35-.4.66-.61,1l-.84,1.31H54.33l2.07-3-2-2.85Z"/><path d="M14.34,2280.3h0L13,2281l-.21-.8,1.7-.92h.9v7.8h-1Z"/><path d="M22.66,2280.06a3.72,3.72,0,0,0-.79,0,3.17,3.17,0,0,0-2.71,2.78h0a2.38,2.38,0,0,1,4.24,1.62,2.6,2.6,0,0,1-2.59,2.74c-1.67,0-2.76-1.29-2.76-3.32a4.86,4.86,0,0,1,1.32-3.51,4.2,4.2,0,0,1,2.49-1.16,6.42,6.42,0,0,1,.77-.06Zm-.3,4.49a1.58,1.58,0,0,0-1.61-1.78,1.73,1.73,0,0,0-1.51,1,.89.89,0,0,0-.12.46c0,1.29.61,2.23,1.72,2.23C21.75,2286.42,22.36,2285.67,22.36,2284.55Z"/><path d="M24.27,2285.13a2.24,2.24,0,0,1,1.55-2.09l0,0a1.93,1.93,0,0,1-1.23-1.75,2.18,2.18,0,0,1,2.41-2.08,2,2,0,0,1,2.27,1.92,2,2,0,0,1-1.29,1.82v0a2.15,2.15,0,0,1,1.57,2,2.4,2.4,0,0,1-2.65,2.27C25.25,2287.24,24.27,2286.27,24.27,2285.13Zm4.2-.05c0-.95-.66-1.4-1.72-1.7a1.69,1.69,0,0,0-1.4,1.61,1.43,1.43,0,0,0,1.56,1.48A1.41,1.41,0,0,0,28.47,2285.08Zm-2.9-3.9c0,.78.58,1.2,1.48,1.44a1.53,1.53,0,0,0,1.19-1.41,1.21,1.21,0,0,0-1.32-1.27A1.23,1.23,0,0,0,25.57,2281.18Z"/><path d="M31.35,2281.3l.83,1.25c.21.33.39.62.58.95h0c.19-.35.38-.65.58-1l.81-1.24h1.14l-2,2.81,2,3h-1.2l-.85-1.31c-.23-.33-.42-.66-.62-1h0c-.19.35-.39.66-.61,1l-.84,1.31H30.08l2.06-3-2-2.85Z"/><path d="M36,2285.13a2.24,2.24,0,0,1,1.55-2.09v0a1.93,1.93,0,0,1-1.24-1.75,2.18,2.18,0,0,1,2.41-2.08A2,2,0,0,1,41,2281.1a2,2,0,0,1-1.28,1.82v0a2.16,2.16,0,0,1,1.57,2,2.4,2.4,0,0,1-2.65,2.27C37,2287.24,36,2286.27,36,2285.13Zm4.2-.05c0-.95-.66-1.4-1.72-1.7a1.69,1.69,0,0,0-1.4,1.61,1.44,1.44,0,0,0,1.56,1.48A1.41,1.41,0,0,0,40.18,2285.08Zm-2.9-3.9c0,.78.58,1.2,1.48,1.44a1.51,1.51,0,0,0,1.19-1.41,1.21,1.21,0,0,0-1.32-1.27A1.23,1.23,0,0,0,37.28,2281.18Z"/><path d="M47.41,2283.13c0,2.65-1,4.11-2.71,4.11-1.52,0-2.55-1.43-2.57-4s1.12-4.06,2.71-4.06S47.41,2280.64,47.41,2283.13Zm-4.23.12c0,2,.62,3.17,1.58,3.17s1.6-1.25,1.6-3.25-.49-3.17-1.58-3.17C43.85,2280,43.18,2281.12,43.18,2283.25Z"/><path d="M53.81,2283.2c0-.74,0-1.34-.05-1.9h1l0,1h0a2.3,2.3,0,0,1,2.07-1.13c1.4,0,2.46,1.19,2.46,2.95,0,2.09-1.28,3.12-2.64,3.12a2,2,0,0,1-1.79-.91h0v3.15h-1Zm1,1.55a2.86,2.86,0,0,0,0,.43,1.64,1.64,0,0,0,1.59,1.23c1.11,0,1.76-.91,1.76-2.24,0-1.16-.61-2.16-1.73-2.16a1.68,1.68,0,0,0-1.59,1.31,1.55,1.55,0,0,0-.07.43Z"/><path d="M61,2281.3l.83,1.25c.22.33.4.62.59.95h0c.19-.35.38-.65.57-1l.82-1.24H65l-2,2.81,2,3h-1.2L63,2285.8c-.23-.33-.42-.66-.63-1h0c-.19.35-.4.66-.61,1l-.84,1.31H59.69l2.07-3-2-2.85Z"/><path d="M308.34,2286.41a3.57,3.57,0,0,0,1.73.49c1.36,0,1.78-.86,1.76-1.51,0-1.09-1-1.56-2-1.56h-.59V2283h.59c.77,0,1.74-.4,1.74-1.32,0-.63-.4-1.18-1.37-1.18a2.89,2.89,0,0,0-1.56.52l-.27-.77a3.68,3.68,0,0,1,2-.6c1.54,0,2.24.91,2.24,1.86a2,2,0,0,1-1.44,1.84v0a2,2,0,0,1,1.74,2c0,1.25-1,2.34-2.85,2.34a3.86,3.86,0,0,1-2-.53Z"/><path d="M317.51,2287.62v-2.12h-3.62v-.7l3.48-5h1.14v4.85h1.09v.83h-1.09v2.12Zm0-2.95v-2.6c0-.41,0-.82,0-1.23h0c-.24.46-.43.8-.65,1.16l-1.9,2.65v0Z"/><path d="M323.67,2287.62v-2.12H320v-.7l3.48-5h1.14v4.85h1.09v.83h-1.09v2.12Zm0-2.95v-2.6q0-.62,0-1.23h0c-.24.46-.44.8-.65,1.16l-1.91,2.65v0Z"/><path d="M327.39,2281.82l.82,1.24c.22.33.4.63.59,1h0c.19-.35.38-.65.57-1l.82-1.23h1.14l-2,2.8,2,3h-1.2l-.85-1.31c-.23-.33-.42-.66-.63-1h0c-.19.34-.4.65-.61,1l-.84,1.31h-1.16l2.06-3-2-2.84Z"/><path d="M332,2285.64a2.24,2.24,0,0,1,1.55-2.09l0,0a1.93,1.93,0,0,1-1.23-1.75,2.18,2.18,0,0,1,2.41-2.08,2,2,0,0,1,2.27,1.92,2,2,0,0,1-1.29,1.82v0a2.15,2.15,0,0,1,1.57,2,2.4,2.4,0,0,1-2.65,2.26C333,2287.75,332,2286.78,332,2285.64Zm4.2,0c0-.94-.66-1.4-1.72-1.7a1.69,1.69,0,0,0-1.4,1.61,1.43,1.43,0,0,0,1.56,1.48A1.41,1.41,0,0,0,336.22,2285.59Zm-2.9-3.9c0,.78.58,1.2,1.48,1.44a1.53,1.53,0,0,0,1.19-1.41,1.21,1.21,0,0,0-1.32-1.27A1.23,1.23,0,0,0,333.32,2281.69Z"/><path d="M343.45,2283.64c0,2.65-1,4.11-2.71,4.11-1.52,0-2.55-1.42-2.58-4s1.13-4.06,2.71-4.06S343.45,2281.16,343.45,2283.64Zm-4.23.12c0,2,.62,3.18,1.58,3.18s1.6-1.26,1.6-3.25-.49-3.18-1.59-3.18C339.89,2280.51,339.22,2281.64,339.22,2283.76Z"/><path d="M349.85,2283.71c0-.74,0-1.34-.05-1.89h.95l.05,1h0a2.28,2.28,0,0,1,2.06-1.13c1.41,0,2.46,1.19,2.46,3,0,2.09-1.27,3.12-2.63,3.12a2,2,0,0,1-1.79-.91h0V2290h-1Zm1,1.55a2.82,2.82,0,0,0,.05.43,1.63,1.63,0,0,0,1.59,1.23c1.11,0,1.76-.91,1.76-2.24,0-1.16-.61-2.16-1.73-2.16a1.68,1.68,0,0,0-1.59,1.31,1.56,1.56,0,0,0-.08.43Z"/><path d="M357,2281.82l.83,1.24c.22.33.4.63.59,1h0c.2-.35.39-.65.58-1l.81-1.23H361l-2,2.8,2,3h-1.2l-.85-1.31c-.22-.33-.42-.66-.62-1h0c-.2.34-.4.65-.62,1l-.84,1.31h-1.16l2.06-3-2-2.84Z"/><path d="M6.27,2537.83v-2.12H2.65v-.7l3.48-5H7.27v4.84H8.36v.83H7.27v2.12Zm0-2.95v-2.6c0-.41,0-.82,0-1.22h0c-.24.45-.43.79-.64,1.15l-1.91,2.65v0Z"/><path d="M14.23,2530v.69l-3.4,7.1H9.74l3.38-6.89v0H9.31V2530Z"/><path d="M19.77,2530.78a3.83,3.83,0,0,0-.79,0,3.16,3.16,0,0,0-2.71,2.77h0a2.37,2.37,0,0,1,4.23,1.62A2.6,2.6,0,0,1,18,2538c-1.67,0-2.76-1.29-2.76-3.32a4.89,4.89,0,0,1,1.32-3.51A4.22,4.22,0,0,1,19,2530a4.93,4.93,0,0,1,.77-.06Zm-.3,4.5a1.58,1.58,0,0,0-1.61-1.79,1.75,1.75,0,0,0-1.51,1,.93.93,0,0,0-.12.47c0,1.28.62,2.23,1.72,2.23C18.86,2537.15,19.47,2536.39,19.47,2535.28Z"/><path d="M22.31,2532l.82,1.24c.22.33.4.63.59.95h0c.19-.35.38-.65.57-1l.82-1.23h1.14l-2,2.8,2,3h-1.2l-.85-1.31c-.23-.33-.42-.65-.63-1h0c-.19.35-.4.66-.61,1l-.84,1.31H21l2.07-3-2-2.84Z"/><path d="M26.94,2535.85a2.22,2.22,0,0,1,1.55-2.08l0,0a1.93,1.93,0,0,1-1.23-1.75,2.18,2.18,0,0,1,2.41-2.08,1.95,1.95,0,0,1,1,3.75v0a2.17,2.17,0,0,1,1.57,2,2.4,2.4,0,0,1-2.65,2.26C27.92,2538,26.94,2537,26.94,2535.85Zm4.2,0c0-.94-.66-1.4-1.72-1.7a1.7,1.7,0,0,0-1.4,1.61,1.44,1.44,0,0,0,1.56,1.49A1.42,1.42,0,0,0,31.14,2535.8Zm-2.91-3.89c0,.78.59,1.2,1.49,1.44a1.55,1.55,0,0,0,1.19-1.42,1.21,1.21,0,0,0-1.32-1.27A1.24,1.24,0,0,0,28.23,2531.91Z"/><path d="M38.37,2533.85c0,2.65-1,4.11-2.71,4.11-1.52,0-2.55-1.42-2.58-4s1.13-4.06,2.71-4.06S38.37,2531.37,38.37,2533.85Zm-4.23.12c0,2,.62,3.18,1.58,3.18s1.6-1.26,1.6-3.25-.5-3.18-1.59-3.18C34.81,2530.72,34.14,2531.85,34.14,2534Z"/><path d="M44.77,2533.92c0-.74,0-1.34-.05-1.89h1l0,1h0a2.29,2.29,0,0,1,2.06-1.12c1.41,0,2.46,1.18,2.46,2.95,0,2.08-1.27,3.11-2.64,3.11a2,2,0,0,1-1.78-.91h0v3.16h-1Zm1,1.55a2.68,2.68,0,0,0,0,.43,1.63,1.63,0,0,0,1.58,1.24c1.12,0,1.77-.92,1.77-2.25,0-1.16-.61-2.16-1.73-2.16a1.7,1.7,0,0,0-1.6,1.31,2,2,0,0,0-.07.43Z"/><path d="M51.92,2532l.83,1.24.59.95h0c.19-.35.39-.65.58-1l.81-1.23H55.9l-2,2.8,2,3h-1.2l-.85-1.31c-.23-.33-.42-.65-.62-1h0c-.19.35-.39.66-.61,1l-.84,1.31H50.65l2.06-3-2-2.84Z"/><rect class="cls-1" x="0.89" y="14.46" width="72" height="72"/><rect class="cls-1" x="88.89" y="14.46" width="72" height="72"/><rect class="cls-1" x="0.89" y="102.46" width="72" height="72"/><rect class="cls-1" x="88.89" y="102.46" width="72" height="72"/><path class="cls-4" d="M160.79,89.5a79.2,79.2,0,0,0-79-75H.89v160h159.9V102.2C160.79,98,161,93.73,160.79,89.5Z"/><line class="cls-5" x1="75.49" y1="1.06" x2="176.25" y2="101.82"/><rect class="cls-1" x="0.89" y="239.75" width="72" height="72"/><rect class="cls-1" x="88.89" y="239.75" width="72" height="72"/><rect class="cls-1" x="0.89" y="327.75" width="72" height="72"/><rect class="cls-1" x="88.89" y="327.75" width="72" height="72"/><rect class="cls-1" x="176.89" y="239.75" width="72" height="72"/><rect class="cls-1" x="176.89" y="327.75" width="72" height="72"/><rect class="cls-1" x="0.89" y="416.02" width="72" height="72"/><rect class="cls-1" x="88.89" y="416.02" width="72" height="72"/><rect class="cls-1" x="176.89" y="416.02" width="72" height="72"/><rect class="cls-4" x="0.89" y="239.75" width="248" height="248"/><rect class="cls-2" x="295.17" y="239.75" width="248" height="248"/><rect class="cls-1" x="88" y="566.55" width="72" height="72"/><rect class="cls-1" x="176" y="566.55" width="72" height="72"/><rect class="cls-1" x="88" y="654.55" width="72" height="72"/><rect class="cls-1" x="176" y="654.55" width="72" height="72"/><path class="cls-4" d="M247.9,641.59a79.19,79.19,0,0,0-79-75H0v160H247.9V654.28C247.9,650.06,248.12,645.81,247.9,641.59Z"/><line class="cls-5" x1="162.6" y1="553.14" x2="263.36" y2="653.9"/><path class="cls-2" d="M543.07,641.59a79.2,79.2,0,0,0-79-75H295.17v160h247.9V654.28C543.07,650.06,543.29,645.81,543.07,641.59Z"/><rect class="cls-4" x="0.94" y="809.19" width="1039.11" height="337.27"/><rect class="cls-1" x="0.49" y="1727.31" width="72" height="72"/><rect class="cls-1" x="88.49" y="1727.31" width="72" height="72"/><rect class="cls-1" x="0.49" y="1815.31" width="72" height="72"/><rect class="cls-1" x="88.49" y="1815.31" width="72" height="72"/><rect class="cls-1" x="176.49" y="1727.31" width="72" height="72"/><rect class="cls-1" x="176.49" y="1815.31" width="72" height="72"/><rect class="cls-1" x="0.49" y="1903.59" width="72" height="72"/><rect class="cls-1" x="88.49" y="1903.59" width="72" height="72"/><rect class="cls-1" x="176.49" y="1903.59" width="72" height="72"/><rect class="cls-1" x="0.49" y="1991.87" width="72" height="72"/><rect class="cls-1" x="88.49" y="1991.87" width="72" height="72"/><rect class="cls-1" x="176.49" y="1991.87" width="72" height="72"/><rect class="cls-1" x="264.49" y="1727.31" width="72" height="72"/><rect class="cls-1" x="352.49" y="1727.31" width="72" height="72"/><rect class="cls-1" x="264.49" y="1815.31" width="72" height="72"/><rect class="cls-1" x="352.49" y="1815.31" width="72" height="72"/><rect class="cls-1" x="440.49" y="1727.31" width="72" height="72"/><rect class="cls-1" x="440.49" y="1815.31" width="72" height="72"/><rect class="cls-1" x="264.49" y="1903.59" width="72" height="72"/><rect class="cls-1" x="352.49" y="1903.59" width="72" height="72"/><rect class="cls-1" x="440.49" y="1903.59" width="72" height="72"/><rect class="cls-1" x="264.49" y="1991.87" width="72" height="72"/><rect class="cls-1" x="352.49" y="1991.87" width="72" height="72"/><rect class="cls-1" x="440.49" y="1991.87" width="72" height="72"/><rect class="cls-1" x="528.49" y="1727.31" width="72" height="72"/><rect class="cls-1" x="616.49" y="1727.31" width="72" height="72"/><rect class="cls-1" x="528.49" y="1815.31" width="72" height="72"/><rect class="cls-1" x="616.49" y="1815.31" width="72" height="72"/><rect class="cls-1" x="528.49" y="1903.59" width="72" height="72"/><rect class="cls-1" x="616.49" y="1903.59" width="72" height="72"/><rect class="cls-1" x="528.49" y="1991.87" width="72" height="72"/><rect class="cls-1" x="616.49" y="1991.87" width="72" height="72"/><rect class="cls-4" x="0.94" y="1726.96" width="687.55" height="337.27"/><rect class="cls-2" x="783.01" y="1725.53" width="688" height="336"/><rect class="cls-2" x="1092.7" y="811.26" width="1036" height="336"/><rect class="cls-1" y="1231.75" width="72" height="72"/><rect class="cls-1" x="88" y="1231.75" width="72" height="72"/><rect class="cls-1" y="1319.75" width="72" height="72"/><rect class="cls-1" x="88" y="1319.75" width="72" height="72"/><rect class="cls-1" x="176" y="1231.75" width="72" height="72"/><rect class="cls-1" x="176" y="1319.75" width="72" height="72"/><rect class="cls-1" x="264" y="1231.75" width="72" height="72"/><rect class="cls-1" x="352" y="1231.75" width="72" height="72"/><rect class="cls-1" x="264" y="1319.75" width="72" height="72"/><rect class="cls-1" x="352" y="1319.75" width="72" height="72"/><rect class="cls-1" y="1407.78" width="72" height="72"/><rect class="cls-1" x="88" y="1407.78" width="72" height="72"/><rect class="cls-1" x="176" y="1407.78" width="72" height="72"/><rect class="cls-1" x="264" y="1407.78" width="72" height="72"/><rect class="cls-1" x="352" y="1407.78" width="72" height="72"/><rect class="cls-1" y="1495.81" width="72" height="72"/><rect class="cls-1" x="88" y="1495.81" width="72" height="72"/><rect class="cls-1" x="176" y="1495.81" width="72" height="72"/><rect class="cls-1" x="264" y="1495.81" width="72" height="72"/><rect class="cls-1" x="352" y="1495.81" width="72" height="72"/><rect class="cls-1" y="1583.85" width="72" height="72"/><rect class="cls-1" x="88" y="1583.85" width="72" height="72"/><rect class="cls-1" x="176" y="1583.85" width="72" height="72"/><rect class="cls-1" x="264" y="1583.85" width="72" height="72"/><rect class="cls-1" x="352" y="1583.85" width="72" height="72"/><g class="cls-6"><rect class="cls-1" y="1231.15" width="424" height="425.26"/><g class="cls-7"><rect class="cls-1" y="1231.15" width="423.97" height="425.29"/></g></g><rect class="cls-2" x="479.13" y="1229.27" width="424" height="425.26"/><g class="cls-8"><rect class="cls-2" x="479.13" y="1229.27" width="423.97" height="425.29"/></g><path class="cls-9" d="M98.51,2127.48H26.06a17,17,0,0,0,0,33.94h72.4a17,17,0,0,0,.05-33.94Z"/><path class="cls-10" d="M40.18,2149.39l-3.84-9.72h1.4l3.17,8.2h-.52l3.22-8.2H45l-3.89,9.72Z"/><path class="cls-10" d="M48,2149.55a3.34,3.34,0,0,1-1.77-.47,3.71,3.71,0,0,1-1.25-1.27,3.37,3.37,0,0,1-.46-1.78,3.56,3.56,0,0,1,.46-1.79,4.14,4.14,0,0,1,1.2-1.26,3.19,3.19,0,0,1,1.71-.47,3.11,3.11,0,0,1,1.61.42,2.87,2.87,0,0,1,1.09,1.15,3.51,3.51,0,0,1,.42,1.68v.32c0,.11,0,.21,0,.37H45.43v-1h4.88l-.47.42a2.49,2.49,0,0,0-.26-1.16,1.49,1.49,0,0,0-.67-.73,2.14,2.14,0,0,0-1-.27,2.73,2.73,0,0,0-1.14.27,2.17,2.17,0,0,0-.73.78,2.74,2.74,0,0,0-.26,1.21,2.68,2.68,0,0,0,.26,1.21,1.91,1.91,0,0,0,.78.79,2.22,2.22,0,0,0,1.19.26,2.25,2.25,0,0,0,1-.21,1.64,1.64,0,0,0,.78-.58l.78.84a3,3,0,0,1-1.14.85A2,2,0,0,1,48,2149.55Z"/><path class="cls-10" d="M52.39,2149.39v-6.62h1.25v6.67H52.39Zm1.25-3.78-.47-.21a3.55,3.55,0,0,1,.57-2.05,1.86,1.86,0,0,1,1.66-.74,2.35,2.35,0,0,1,.89.16,1.77,1.77,0,0,1,.72.58l-.83.84a1.23,1.23,0,0,0-.47-.32,1.88,1.88,0,0,0-.57-.1,1.54,1.54,0,0,0-1.14.47A2.51,2.51,0,0,0,53.64,2145.61Z"/><path class="cls-10" d="M60.44,2143.87v-1.15h4.47v1.15Zm1.61,5.52v-9.46H63.3v9.46Z"/><path class="cls-10" d="M69,2149.55a3.29,3.29,0,0,1-1.72-.47,3.59,3.59,0,0,1-1.24-1.27,3.53,3.53,0,0,1,0-3.52,3.65,3.65,0,0,1,1.24-1.26,3.29,3.29,0,0,1,1.72-.47,3.46,3.46,0,0,1,1.76.47,3.68,3.68,0,0,1,1.25,1.26,3.39,3.39,0,0,1,.47,1.74,3.51,3.51,0,0,1-.47,1.78,3.62,3.62,0,0,1-1.25,1.27A3.46,3.46,0,0,1,69,2149.55Zm0-1.21a2.21,2.21,0,0,0,1.14-.32,2.89,2.89,0,0,0,.78-.78,2.12,2.12,0,0,0,.26-1.16,3,3,0,0,0-.26-1.16,2.89,2.89,0,0,0-.78-.78,1.89,1.89,0,0,0-1.09-.27,2.34,2.34,0,0,0-1.09.27,2.89,2.89,0,0,0-.78.78,2.12,2.12,0,0,0-.26,1.16,2.68,2.68,0,0,0,.26,1.16,1.83,1.83,0,0,0,.78.78A1.63,1.63,0,0,0,69,2148.34Z"/><path class="cls-10" d="M76.54,2149.55a3.11,3.11,0,0,1-1.66-.47,3.33,3.33,0,0,1-1.14-1.27,3.9,3.9,0,0,1-.42-1.78,4.13,4.13,0,0,1,.42-1.79,3.3,3.3,0,0,1,1.14-1.26,2.91,2.91,0,0,1,1.66-.47,2.86,2.86,0,0,1,1.35.31,2.21,2.21,0,0,1,.94.9,2.61,2.61,0,0,1,.41,1.26v2a2.61,2.61,0,0,1-.41,1.26,3.09,3.09,0,0,1-.94.9A2,2,0,0,1,76.54,2149.55Zm.21-1.21a2,2,0,0,0,1.5-.63,2.37,2.37,0,0,0,.58-1.63,3.07,3.07,0,0,0-.26-1.21,1.57,1.57,0,0,0-.73-.79,2.2,2.2,0,0,0-2.18.06,2.17,2.17,0,0,0-.73.78,2.68,2.68,0,0,0-.26,1.16,2.91,2.91,0,0,0,.26,1.21,1.7,1.7,0,0,0,.78.79A2.1,2.1,0,0,0,76.75,2148.34Zm2,1v-1.79L79,2146l-.26-1.63v-5H80v10H78.77Z"/><path class="cls-10" d="M84.8,2149.55a3.29,3.29,0,0,1-1.72-.47,3.59,3.59,0,0,1-1.24-1.27,3.53,3.53,0,0,1,0-3.52,3.65,3.65,0,0,1,1.24-1.26,3.29,3.29,0,0,1,1.72-.47,3.46,3.46,0,0,1,1.76.47,3.68,3.68,0,0,1,1.25,1.26,3.39,3.39,0,0,1,.47,1.74,3.51,3.51,0,0,1-.47,1.78,3.62,3.62,0,0,1-1.25,1.27A3.33,3.33,0,0,1,84.8,2149.55Zm0-1.21a2.21,2.21,0,0,0,1.14-.32,2.89,2.89,0,0,0,.78-.78,2.12,2.12,0,0,0,.26-1.16,3,3,0,0,0-.26-1.16,2.89,2.89,0,0,0-.78-.78,1.89,1.89,0,0,0-1.09-.27,2.34,2.34,0,0,0-1.09.27,2.89,2.89,0,0,0-.78.78,2.12,2.12,0,0,0-.26,1.16,2.68,2.68,0,0,0,.26,1.16,1.83,1.83,0,0,0,.78.78A1.63,1.63,0,0,0,84.8,2148.34Z"/><rect class="cls-1" x="13.01" y="2189.57" width="36" height="36"/><rect class="cls-1" x="57.01" y="2189.57" width="36" height="36"/><rect class="cls-1" x="13.01" y="2233.57" width="36" height="36"/><rect class="cls-1" x="57.01" y="2233.57" width="36" height="36"/><rect class="cls-1" x="101.35" y="2189.57" width="36" height="36"/><rect class="cls-1" x="145.35" y="2189.57" width="36" height="36"/><rect class="cls-1" x="101.35" y="2233.57" width="36" height="36"/><rect class="cls-1" x="145.35" y="2233.57" width="36" height="36"/><rect class="cls-1" x="307.91" y="2185.7" width="36" height="36"/><rect class="cls-1" x="351.91" y="2185.7" width="36" height="36"/><rect class="cls-1" x="307.91" y="2229.7" width="36" height="36"/><rect class="cls-1" x="351.91" y="2229.7" width="36" height="36"/><rect class="cls-1" x="396.25" y="2185.7" width="36" height="36"/><rect class="cls-1" x="440.25" y="2185.7" width="36" height="36"/><rect class="cls-1" x="396.25" y="2229.7" width="36" height="36"/><rect class="cls-1" x="440.25" y="2229.7" width="36" height="36"/><rect class="cls-1" x="484.23" y="2185.7" width="36" height="36"/><rect class="cls-1" x="528.23" y="2185.7" width="36" height="36"/><rect class="cls-1" x="484.23" y="2229.7" width="36" height="36"/><rect class="cls-1" x="528.23" y="2229.7" width="36" height="36"/><rect class="cls-1" x="572.57" y="2185.7" width="36" height="36"/><rect class="cls-1" x="616.57" y="2185.7" width="36" height="36"/><rect class="cls-1" x="572.57" y="2229.7" width="36" height="36"/><rect class="cls-1" x="616.57" y="2229.7" width="36" height="36"/><rect class="cls-1" x="6.45" y="2342.97" width="36" height="36"/><rect class="cls-1" x="50.45" y="2342.97" width="36" height="36"/><rect class="cls-1" x="6.45" y="2386.97" width="36" height="36"/><rect class="cls-1" x="50.45" y="2386.97" width="36" height="36"/><rect class="cls-1" x="94.79" y="2342.97" width="36" height="36"/><rect class="cls-1" x="138.79" y="2342.97" width="36" height="36"/><rect class="cls-1" x="94.79" y="2386.97" width="36" height="36"/><rect class="cls-1" x="138.79" y="2386.97" width="36" height="36"/><rect class="cls-1" x="182.77" y="2342.97" width="36" height="36"/><rect class="cls-1" x="226.77" y="2342.97" width="36" height="36"/><rect class="cls-1" x="182.77" y="2386.97" width="36" height="36"/><rect class="cls-1" x="226.77" y="2386.97" width="36" height="36"/><rect class="cls-1" x="271.11" y="2342.97" width="36" height="36"/><rect class="cls-1" x="315.11" y="2342.97" width="36" height="36"/><rect class="cls-1" x="271.11" y="2386.97" width="36" height="36"/><rect class="cls-1" x="315.11" y="2386.97" width="36" height="36"/><rect class="cls-1" x="358.97" y="2342.97" width="36" height="36"/><rect class="cls-1" x="402.97" y="2342.97" width="36" height="36"/><rect class="cls-1" x="358.97" y="2386.97" width="36" height="36"/><rect class="cls-1" x="402.97" y="2386.97" width="36" height="36"/><rect class="cls-1" x="447.31" y="2342.97" width="36" height="36"/><rect class="cls-1" x="447.31" y="2386.97" width="36" height="36"/><rect class="cls-9" x="304.84" y="2129.17" width="344.66" height="36" rx="11.73"/><path class="cls-2" d="M6.33,2435.4H444.63A38.57,38.57,0,0,1,483.2,2474v41.43a0,0,0,0,1,0,0H6.33a0,0,0,0,1,0,0v-80A0,0,0,0,1,6.33,2435.4Z"/></g></g></g></svg>