<svg xmlns="http://www.w3.org/2000/svg" xmlns:xlink="http://www.w3.org/1999/xlink" viewBox="0 0 388 396.21"><defs><style>.cls-1{fill:none;}.cls-2{fill:#002c35;}.cls-3{fill:#fff;}.cls-4{clip-path:url(#clip-path);}.cls-5{clip-path:url(#clip-path-2);}.cls-6{clip-path:url(#clip-path-3);}.cls-7{clip-path:url(#clip-path-4);}.cls-8{clip-path:url(#clip-path-5);}.cls-9{clip-path:url(#clip-path-6);}.cls-10{clip-path:url(#clip-path-7);}.cls-11{clip-path:url(#clip-path-8);}.cls-12{clip-path:url(#clip-path-9);}.cls-13{clip-path:url(#clip-path-10);}.cls-14{clip-path:url(#clip-path-11);}.cls-15{clip-path:url(#clip-path-12);}.cls-16{clip-path:url(#clip-path-13);}</style><clipPath id="clip-path"><rect class="cls-1" x="134" y="58.21" width="16" height="20"/></clipPath><clipPath id="clip-path-2"><rect class="cls-1" x="11" y="119.71" width="14" height="21"/></clipPath><clipPath id="clip-path-3"><rect class="cls-1" x="131" y="119.21" width="22" height="22"/></clipPath><clipPath id="clip-path-4"><rect class="cls-1" x="9.5" y="180.71" width="17" height="23"/></clipPath><clipPath id="clip-path-5"><rect class="cls-1" x="67.5" y="180.71" width="25" height="23"/></clipPath><clipPath id="clip-path-6"><rect class="cls-1" x="68" y="121.71" width="24" height="21"/></clipPath><clipPath id="clip-path-7"><rect class="cls-1" x="9" y="245.71" width="18" height="17"/></clipPath><clipPath id="clip-path-8"><rect class="cls-1" x="130" y="246.21" width="24" height="16"/></clipPath><clipPath id="clip-path-9"><rect class="cls-1" x="68.5" y="306.21" width="23" height="20"/></clipPath><clipPath id="clip-path-10"><rect class="cls-1" x="70.5" y="371.21" width="19" height="14"/></clipPath><clipPath id="clip-path-11"><rect class="cls-1" x="233.5" y="64.21" width="25" height="22"/></clipPath><clipPath id="clip-path-12"><rect class="cls-1" x="233.5" y="125.71" width="25" height="23"/></clipPath><clipPath id="clip-path-13"><rect class="cls-1" x="296" y="126.71" width="24" height="21"/></clipPath></defs><g id="Capa_2" data-name="Capa 2"><g id="Capa_1-2" data-name="Capa 1"><path class="cls-2" d="M0,68.21a18,18,0,1,1,18,18A18,18,0,0,1,0,68.21Z"/><path class="cls-3" d="M19,56v-.11H14.88V56A12.15,12.15,0,0,0,26.09,68.21,12.12,12.12,0,0,0,14.88,80.39v.11H19v-.11a8,8,0,0,1,7.9-8v-8.3A8,8,0,0,1,19,56Z"/><path class="cls-3" d="M12.85,60.18H9.14V77h3.71Z"/><path class="cls-2" d="M62,68.21a18,18,0,1,1,18,18A18,18,0,0,1,62,68.21Z"/><path class="cls-3" d="M80,65.19a3,3,0,1,0,3,3A3,3,0,0,0,80,65.19Z"/><path class="cls-3" d="M91,65.19a3,3,0,1,0,3,3A3,3,0,0,0,91,65.19Z"/><path class="cls-3" d="M69,65.19a3,3,0,1,0,3,3A3,3,0,0,0,69,65.19Z"/><path class="cls-2" d="M124,68.21a18,18,0,1,1,18,18A18,18,0,0,1,124,68.21Z"/><g class="cls-4"><path class="cls-3" d="M134,61.18l2.72,2.46a8,8,0,0,1,10.49,0s0,.07.07.07L150,61.24s0-.06-.07-.06A12.15,12.15,0,0,0,134,61.18Z"/><path class="cls-3" d="M134,75.24l2.72-2.47a8,8,0,0,0,10.49,0s0-.06.07-.06L150,75.17s0,.07-.07.07A12.12,12.12,0,0,1,134,75.24Z"/><path class="cls-3" d="M142.05,64.34a3.87,3.87,0,1,0,4.25,3.85A4.09,4.09,0,0,0,142.05,64.34Z"/></g><path class="cls-2" d="M0,130.21a18,18,0,1,1,18,18A18,18,0,0,1,0,130.21Z"/><g class="cls-5"><path class="cls-3" d="M11.09,122.59,13.43,125a6.41,6.41,0,0,1,9.12,0s0,.07.06.07L25,122.65l0,0A9.73,9.73,0,0,0,11.09,122.59Z"/><path class="cls-3" d="M11,130.42l2.36,2.39a6.41,6.41,0,0,1,9.12,0s0,.06.07.06l2.36-2.39s0-.06-.06-.06A9.75,9.75,0,0,0,11,130.42Z"/><path class="cls-3" d="M25,138.26l-2.36,2.39a6.41,6.41,0,0,0-9.12,0s0,.06-.06.06l-2.37-2.39s0-.06.06-.06A9.73,9.73,0,0,1,25,138.26Z"/></g><path class="cls-2" d="M124,130.21a18,18,0,1,1,18,18A18,18,0,0,1,124,130.21Z"/><g class="cls-6"><path class="cls-3" d="M137.16,119.21a6.2,6.2,0,1,0,6.15,6.19A6.18,6.18,0,0,0,137.16,119.21Zm3.36,6.19a3.37,3.37,0,1,1-3.36-3.39A3.39,3.39,0,0,1,140.52,125.4Z"/><path class="cls-3" d="M144.31,130.49l-2,2,8.71,8.76,1.95-2Z"/></g><path class="cls-2" d="M0,192.21a18,18,0,1,1,18,18A18,18,0,0,1,0,192.21Z"/><g class="cls-7"><path class="cls-3" d="M17.79,180.71a6.16,6.16,0,0,0,0,12.31,6.16,6.16,0,0,0,0-12.31ZM21,186.86a3.3,3.3,0,0,1-3.21,3.37,3.37,3.37,0,0,1,0-6.73A3.27,3.27,0,0,1,21,186.86Z"/><path class="cls-3" d="M26.5,203.71v-1.08A8.69,8.69,0,0,0,18,194.38a8.71,8.71,0,0,0-8.53,8.91v.42h2.89c0-.14,0-.28,0-.42a5.75,5.75,0,0,1,5.6-5.88,5.75,5.75,0,0,1,5.61,5.88,2,2,0,0,1,0,.42Z"/></g><path class="cls-2" d="M62,192.21a18,18,0,1,1,18,18A18,18,0,0,1,62,192.21Z"/><g class="cls-8"><path class="cls-3" d="M80.26,186.1a6.09,6.09,0,1,0,6.39,6.08A6.25,6.25,0,0,0,80.26,186.1Zm3.5,6.08a3.5,3.5,0,1,1-3.5-3.32A3.42,3.42,0,0,1,83.76,192.18Z"/><path class="cls-3" d="M83.24,180.71v3a6,6,0,0,1,6.11,5.8v.08H92.5v-.08A9.05,9.05,0,0,0,83.24,180.71Z"/><path class="cls-3" d="M76.76,203.71v-3a6,6,0,0,1-6.11-5.8v-.09H67.5v.09A9.05,9.05,0,0,0,76.76,203.71Z"/></g><path class="cls-2" d="M62,130.21a18,18,0,1,1,18,18A18,18,0,0,1,62,130.21Z"/><g class="cls-9"><path class="cls-3" d="M73.79,132.72l-2.23,2.19,7.92,7.79,2.23-2.2Z"/><path class="cls-3" d="M90,123.72a7.12,7.12,0,0,0-9.93,0l2.23,2.21a3.89,3.89,0,0,1,5.46,0,3.74,3.74,0,0,1,0,5.36L90,133.5A6.85,6.85,0,0,0,90,123.72Z"/><path class="cls-3" d="M72.29,125.93a3.89,3.89,0,0,1,5.46,0L80,123.72a7.12,7.12,0,0,0-9.93,0,6.85,6.85,0,0,0,0,9.78l2.24-2.21A3.79,3.79,0,0,1,72.29,125.93Z"/></g><path class="cls-2" d="M124,192.21a18,18,0,1,1,18,18A18,18,0,0,1,124,192.21Z"/><path class="cls-3" d="M144.78,202.12a10.1,10.1,0,0,1,9.56-9.93,10,10,0,0,1-9.56-9.89v-.09h3.48v.09a6.63,6.63,0,0,0,6.74,6.54v6.7a6.67,6.67,0,0,0-6.74,6.54v.1h-3.48Z"/><path class="cls-3" d="M144.73,190.69h-14.1v3.07h14.1Z"/><path class="cls-2" d="M0,254.21a18,18,0,1,1,18,18A18,18,0,0,1,0,254.21Z"/><g class="cls-10"><path class="cls-3" d="M26.92,254.92A9.05,9.05,0,0,1,18,246.31a9.06,9.06,0,0,1-8.93,8.61H9v-3.14h.08A6,6,0,0,0,15,245.71h6a6,6,0,0,0,5.89,6.07H27v3.14Z"/><path class="cls-3" d="M18.13,256.35v2.88a3.44,3.44,0,0,1,3.37,3.48h2.79A6.27,6.27,0,0,0,18.13,256.35Z"/><path class="cls-3" d="M12,262.71h2.79a3.44,3.44,0,0,1,3.37-3.48v-2.88A6.27,6.27,0,0,0,12,262.71Z"/></g><path class="cls-2" d="M62,254.21a18,18,0,1,1,18,18A18,18,0,0,1,62,254.21Z"/><path class="cls-3" d="M77,245.39v-.08h-2.9v.08a8.64,8.64,0,0,0,8,8.64,8.55,8.55,0,0,0-8,8.6v.08H77v-.08a5.64,5.64,0,0,1,5.62-5.69v-5.85A5.67,5.67,0,0,1,77,245.39Z"/><path class="cls-3" d="M85.12,245.29v-.08h-2.9v.08a8.62,8.62,0,0,0,8,8.63,8.6,8.6,0,0,0-8,8.63v.08h2.9v-.08a5.65,5.65,0,0,1,5.62-5.69V251A5.66,5.66,0,0,1,85.12,245.29Z"/><path class="cls-3" d="M72.64,248.33H70v11.92h2.64Z"/><path class="cls-2" d="M124,254.21a18,18,0,1,1,18,18A18,18,0,0,1,124,254.21Z"/><g class="cls-11"><path class="cls-3" d="M130,254.22a8,8,0,0,0,8.11,7.94v-2.7a5.24,5.24,0,1,1,0-10.48v-2.7A8,8,0,0,0,130,254.22Z"/><path class="cls-3" d="M148.68,246.28v-.07h-2.76v.07a8.05,8.05,0,0,0,7.58,7.94,8,8,0,0,0-7.58,7.94v.07h2.76v-.07a5.28,5.28,0,0,1,5.34-5.24v-5.4A5.28,5.28,0,0,1,148.68,246.28Z"/><path class="cls-3" d="M142.8,251.22a3,3,0,1,0,3.07,3A3,3,0,0,0,142.8,251.22Z"/></g><path class="cls-2" d="M0,316.21a18,18,0,1,1,18,18A18,18,0,0,1,0,316.21Z"/><path class="cls-3" d="M26.67,327.21v-1a8.67,8.67,0,0,0-17.31.64v.41h3c0-.14,0-.27,0-.41a5.72,5.72,0,0,1,11.43,0,1.89,1.89,0,0,1,0,.41Z"/><path class="cls-3" d="M9.33,305.21v1a8.67,8.67,0,0,0,17.31-.64v-.4H23.69c0,.13,0,.27,0,.4a5.71,5.71,0,1,1-11.42,0,2.68,2.68,0,0,1,0-.4Z"/><path class="cls-3" d="M29,307.54H28a8.67,8.67,0,0,0,.65,17.31H29v-3l-.4,0a5.72,5.72,0,1,1,0-11.43,1.8,1.8,0,0,1,.4,0Z"/><path class="cls-3" d="M7,324.87H8.05a8.66,8.66,0,0,0-.65-17.3H7v2.95l.4,0a5.72,5.72,0,1,1,0,11.43,2.68,2.68,0,0,1-.4,0Z"/><path class="cls-2" d="M62,316.21a18,18,0,1,1,18,18A18,18,0,0,1,62,316.21Z"/><g class="cls-12"><path class="cls-3" d="M81.07,306.21v3.4a6.77,6.77,0,0,1,6.88,6.6v.09H91.5v-.09A10.24,10.24,0,0,0,81.07,306.21Z"/><path class="cls-3" d="M79.42,306.21H78.16a10,10,0,1,0,.77,20h.49v-3.41c-.16,0-.32,0-.49,0a6.62,6.62,0,1,1,0-13.22,2.63,2.63,0,0,1,.49,0Z"/></g><path class="cls-2" d="M124,316.21a18,18,0,1,1,18,18A18,18,0,0,1,124,316.21Z"/><path class="cls-3" d="M137.39,309.21a7,7,0,1,0,7.4,7A7.21,7.21,0,0,0,137.39,309.21Zm4.05,7a4.05,4.05,0,1,1-4.05-3.83A4,4,0,0,1,141.44,316.21Z"/><path class="cls-3" d="M146.61,309.21a7,7,0,1,0,7.39,7A7.22,7.22,0,0,0,146.61,309.21Zm4,7a4.05,4.05,0,1,1-4-3.83A4,4,0,0,1,150.65,316.21Z"/><path class="cls-2" d="M0,378.21a18,18,0,1,1,18,18A18,18,0,0,1,0,378.21Z"/><path class="cls-3" d="M30.18,377.3h.11v-4.08h-.11A12.14,12.14,0,0,0,18,384.42a12.12,12.12,0,0,0-12.18-11.2H5.71v4.08h.11a8,8,0,0,1,8,7.9h8.3A8,8,0,0,1,30.18,377.3Z"/><path class="cls-2" d="M62,378.21a18,18,0,1,1,18,18A18,18,0,0,1,62,378.21Z"/><g class="cls-13"><path class="cls-3" d="M73.79,371.21H70.5v14h3.29Z"/><path class="cls-3" d="M81.63,371.21H78.34v14h3.29Z"/><path class="cls-3" d="M89.5,371.21H86.21v14H89.5Z"/></g><path class="cls-2" d="M142,360.21h0a18,18,0,0,1,18,18h0a18,18,0,0,1-18,18h0a18,18,0,0,1-18-18h0A18,18,0,0,1,142,360.21Z"/><path class="cls-3" d="M152,371.89l-3.68-3.68L142,374.53l-6.32-6.32L132,371.89l6.32,6.32L132,384.53l3.68,3.68,6.32-6.32,6.32,6.32,3.68-3.68-6.32-6.32Z"/><path class="cls-2" d="M228,75.21a18,18,0,1,1,18,18A18,18,0,0,1,228,75.21Z"/><g class="cls-14"><path class="cls-3" d="M239.08,83.37l.79.75a9.53,9.53,0,0,0,12.43-.45,8.33,8.33,0,0,0,0-12.24c-.09-.08-.2-.18-.31-.26l-2.21,2.08a2.49,2.49,0,0,1,.31.27,5.51,5.51,0,0,1,0,8.08,6.3,6.3,0,0,1-8.55,0,2.6,2.6,0,0,1-.28-.29Z"/><path class="cls-3" d="M255.64,64.21a3.38,3.38,0,0,1-3.45,3.26v2.71a6.15,6.15,0,0,0,6.31-6Z"/><path class="cls-3" d="M245.36,75.69V72.75a5.9,5.9,0,0,1-6-5.7V67h-3.11v.09A8.93,8.93,0,0,0,245.36,75.69Z"/><path class="cls-3" d="M236.16,79.22l2.21-2.08a5.49,5.49,0,0,1,0-8.06s.06,0,.06,0l-2.21-2.09s-.06,0-.06,0A8.35,8.35,0,0,0,236.16,79.22Z"/></g><path class="cls-2" d="M228,137.21a18,18,0,1,1,18,18A18,18,0,0,1,228,137.21Z"/><g class="cls-15"><path class="cls-3" d="M254.69,142.24a3.56,3.56,0,0,1-3.55,3.54v2.93a6.48,6.48,0,0,0,6.49-6.47Z"/><path class="cls-3" d="M252,128.64a3.56,3.56,0,0,1,3.55,3.54h2.94a6.48,6.48,0,0,0-6.49-6.47Z"/><path class="cls-3" d="M237.31,142.24a3.56,3.56,0,0,0,3.55,3.54v2.93a6.48,6.48,0,0,1-6.49-6.47Z"/><path class="cls-3" d="M240,128.64a3.56,3.56,0,0,0-3.55,3.54H233.5a6.48,6.48,0,0,1,6.49-6.47Z"/><path class="cls-3" d="M246,130.75a6.47,6.47,0,1,0,6.5,6.47A6.5,6.5,0,0,0,246,130.75Zm3.56,6.47a3.56,3.56,0,1,1-3.56-3.54A3.56,3.56,0,0,1,249.57,137.22Z"/></g><path class="cls-2" d="M290,75.21a18,18,0,1,1,18,18A18,18,0,0,1,290,75.21Z"/><path class="cls-3" d="M307.62,65.55a5.21,5.21,0,0,1,5.13,5.25H317a9.5,9.5,0,0,0-9.38-9.59Z"/><path class="cls-3" d="M307.62,70h-4.2V89.21h4.2Z"/><path class="cls-3" d="M312.08,73.55H299v4.3h13.08Z"/><path class="cls-2" d="M290,137.21a18,18,0,1,1,18,18A18,18,0,0,1,290,137.21Z"/><g class="cls-16"><path class="cls-3" d="M296,137.21h3.69a7,7,0,0,1,7.14-6.93h.1v-3.57h-.1A10.68,10.68,0,0,0,296,137.21Z"/><path class="cls-3" d="M308.7,147.71H310a10.51,10.51,0,0,0-.84-21h-.5v3.57c.17,0,.34,0,.5,0a6.93,6.93,0,1,1,0,13.85,2.85,2.85,0,0,1-.5,0v3.64Z"/><path class="cls-3" d="M300.52,143.22a7.06,7.06,0,0,0-.53-3.7h-4a3.87,3.87,0,0,1,0,5.62l.13.13,2.25,2.18.13.13a4.18,4.18,0,0,1,5.67-.1v-3.8A7.33,7.33,0,0,0,300.52,143.22Z"/></g><path class="cls-2" d="M352,75.21a18,18,0,1,1,18,18A18,18,0,0,1,352,75.21Z"/><path class="cls-3" d="M365.39,72.88a7.17,7.17,0,1,0,7.4,7.17A7.3,7.3,0,0,0,365.39,72.88Zm4.05,7.17a4,4,0,1,1-4.05-3.92A4,4,0,0,1,369.44,80.05Z"/><path d="M1.63,17.21V.26H5.4v17ZM14,17.47a6.76,6.76,0,0,1-3.27-.79A6,6,0,0,1,8.4,14.5a5.93,5.93,0,0,1-.84-3.12A5.83,5.83,0,0,1,8.4,8.26a6.13,6.13,0,0,1,2.33-2.19A6.75,6.75,0,0,1,14,5.28a6.28,6.28,0,0,1,2.49.48,5.62,5.62,0,0,1,2,1.39L16.2,9.5a2.57,2.57,0,0,0-1-.67A3.28,3.28,0,0,0,14,8.62,2.8,2.8,0,0,0,12.6,9a2.46,2.46,0,0,0-1,1,2.88,2.88,0,0,0-.34,1.41,3,3,0,0,0,.34,1.44,2.66,2.66,0,0,0,1,1,2.75,2.75,0,0,0,1.4.36,3.16,3.16,0,0,0,1.27-.24,3.08,3.08,0,0,0,1-.72l2.33,2.35A6.32,6.32,0,0,1,16.54,17,6.65,6.65,0,0,1,14,17.47Zm11.6,0a6.76,6.76,0,0,1-3.27-.79A6.12,6.12,0,0,1,20,14.47a5.93,5.93,0,0,1-.84-3.12A5.78,5.78,0,0,1,20,8.26,5.92,5.92,0,0,1,22.3,6.1a6.46,6.46,0,0,1,3.27-.82,6.64,6.64,0,0,1,3.26.79,6,6,0,0,1,2.28,2.19A5.78,5.78,0,0,1,32,11.35a5.93,5.93,0,0,1-.84,3.12,6.12,6.12,0,0,1-2.28,2.21A6.64,6.64,0,0,1,25.57,17.47Zm0-3.33A2.83,2.83,0,0,0,27,13.8a2.39,2.39,0,0,0,.91-1,3.09,3.09,0,0,0,.34-1.47,2.78,2.78,0,0,0-.34-1.41,2.27,2.27,0,0,0-.93-1,2.54,2.54,0,0,0-1.37-.36A2.62,2.62,0,0,0,24.2,9a2.35,2.35,0,0,0-.94,1,3,3,0,0,0-.33,1.44,3.17,3.17,0,0,0,.33,1.44,2.6,2.6,0,0,0,.94,1A2.81,2.81,0,0,0,25.57,14.14Zm15.91,3.07V10.56a1.92,1.92,0,0,0-.57-1.46,1.86,1.86,0,0,0-1.42-.58,2.1,2.1,0,0,0-1.05.26,1.67,1.67,0,0,0-.72.72,2.06,2.06,0,0,0-.27,1.06L36,9.86a4.7,4.7,0,0,1,.6-2.4,4.11,4.11,0,0,1,1.65-1.58,5.13,5.13,0,0,1,2.43-.58A4.15,4.15,0,0,1,43,5.93a4.28,4.28,0,0,1,1.58,1.61,4.38,4.38,0,0,1,.58,2.2v7.47Zm-7.7,0V5.54h3.67V17.21Zm18,.29a7.83,7.83,0,0,1-2-.27,8,8,0,0,1-1.85-.74,6.68,6.68,0,0,1-1.44-1.15l2.09-2.12a4.22,4.22,0,0,0,1.37,1,4.44,4.44,0,0,0,1.73.33,2,2,0,0,0,1-.19.58.58,0,0,0,.36-.53.68.68,0,0,0-.43-.64,4,4,0,0,0-1.06-.41l-1.36-.41a5.76,5.76,0,0,1-1.37-.6,3.07,3.07,0,0,1-1.06-1.06A3.41,3.41,0,0,1,47.27,9,3.3,3.3,0,0,1,47.85,7a3.85,3.85,0,0,1,1.63-1.32A6,6,0,0,1,52,5.21a6.8,6.8,0,0,1,2.74.53,4.72,4.72,0,0,1,2.06,1.51L54.67,9.36a3.07,3.07,0,0,0-1.25-.91,3.54,3.54,0,0,0-1.32-.27,1.8,1.8,0,0,0-.94.2.53.53,0,0,0-.31.5.66.66,0,0,0,.41.58,5,5,0,0,0,1.05.38c.44.11.89.25,1.37.41a5.93,5.93,0,0,1,1.37.65A3.29,3.29,0,0,1,56.11,12a3.43,3.43,0,0,1,.4,1.78,3.26,3.26,0,0,1-1.29,2.71A5.44,5.44,0,0,1,51.76,17.5Z"/><path d="M233.51,10.22V7.44h3.58a2.38,2.38,0,0,0,1.73-.58,2,2,0,0,0,.62-1.56,2.06,2.06,0,0,0-.6-1.51,2.35,2.35,0,0,0-1.73-.6h-3.6V.26h4a6.48,6.48,0,0,1,3,.65,4.91,4.91,0,0,1,2,1.75,4.75,4.75,0,0,1,.72,2.6,4.74,4.74,0,0,1-.72,2.61,4.84,4.84,0,0,1-2,1.73,6.89,6.89,0,0,1-3.05.62Zm-2.88,7V.26h3.77v17Zm9.22,0-5.28-7.3L238,9l6.29,8.23Zm9-7V7.44h3.58a2.36,2.36,0,0,0,1.72-.58,2,2,0,0,0,.63-1.56,2.06,2.06,0,0,0-.6-1.51,2.35,2.35,0,0,0-1.73-.6h-3.6V.26h4a6.41,6.41,0,0,1,2.95.65,4.88,4.88,0,0,1,2,1.75,4.75,4.75,0,0,1,.72,2.6,4.74,4.74,0,0,1-.72,2.61,4.9,4.9,0,0,1-2,1.73,6.89,6.89,0,0,1-3.05.62Zm-2.88,7V.26h3.77v17Zm9.22,0-5.28-7.3L253.35,9l6.29,8.23Zm8.4.26a2.06,2.06,0,0,1-1.56-.65,2.3,2.3,0,0,1,0-3.14,2.1,2.1,0,0,1,1.56-.65,2,2,0,0,1,1.56.65,2.27,2.27,0,0,1,0,3.14A2,2,0,0,1,263.58,17.47Zm10.32,0a8.8,8.8,0,0,1-3.6-.67,8.6,8.6,0,0,1-2.74-2.09L270,12.29a6.61,6.61,0,0,0,1.8,1.46,5.09,5.09,0,0,0,2.33.51,3.3,3.3,0,0,0,1.85-.44,1.33,1.33,0,0,0,.67-1.2,1.49,1.49,0,0,0-.43-1.12,3.7,3.7,0,0,0-1.15-.75q-.7-.32-1.56-.6c-.56-.19-1.12-.41-1.68-.65a7.66,7.66,0,0,1-1.56-.93,4.5,4.5,0,0,1-1.13-1.42A4.75,4.75,0,0,1,268.72,5a4.76,4.76,0,0,1,.74-2.69A4.75,4.75,0,0,1,271.57.6a7.55,7.55,0,0,1,3.1-.6,8.32,8.32,0,0,1,3.24.62,6.74,6.74,0,0,1,2.45,1.71l-2.45,2.42a5.4,5.4,0,0,0-1.56-1.17,3.82,3.82,0,0,0-1.75-.39,2.73,2.73,0,0,0-1.56.39,1.16,1.16,0,0,0-.58,1,1.39,1.39,0,0,0,.43,1.06,4.17,4.17,0,0,0,1.13.67c.48.19,1,.38,1.56.58a15.37,15.37,0,0,1,1.7.67,6.2,6.2,0,0,1,1.54,1A4.2,4.2,0,0,1,280,10.08a5,5,0,0,1,.43,2.21,4.62,4.62,0,0,1-1.72,3.81A7.49,7.49,0,0,1,273.9,17.47Zm13.57,0a8.8,8.8,0,0,1-3.6-.67,8.6,8.6,0,0,1-2.74-2.09l2.45-2.42a6.61,6.61,0,0,0,1.8,1.46,5.09,5.09,0,0,0,2.33.51,3.3,3.3,0,0,0,1.85-.44,1.33,1.33,0,0,0,.67-1.2,1.49,1.49,0,0,0-.43-1.12,3.7,3.7,0,0,0-1.15-.75q-.7-.32-1.56-.6c-.56-.19-1.12-.41-1.68-.65a7.66,7.66,0,0,1-1.56-.93,4.5,4.5,0,0,1-1.13-1.42A4.75,4.75,0,0,1,282.29,5,4.76,4.76,0,0,1,283,2.3,4.75,4.75,0,0,1,285.14.6a7.55,7.55,0,0,1,3.1-.6,8.32,8.32,0,0,1,3.24.62,6.74,6.74,0,0,1,2.45,1.71l-2.45,2.42a5.4,5.4,0,0,0-1.56-1.17,3.82,3.82,0,0,0-1.75-.39,2.73,2.73,0,0,0-1.56.39,1.16,1.16,0,0,0-.58,1,1.39,1.39,0,0,0,.43,1.06,4.17,4.17,0,0,0,1.13.67c.48.19,1,.38,1.56.58a15.37,15.37,0,0,1,1.7.67,6.2,6.2,0,0,1,1.54,1,4.2,4.2,0,0,1,1.15,1.49,5,5,0,0,1,.43,2.21,4.62,4.62,0,0,1-1.72,3.81A7.49,7.49,0,0,1,287.47,17.47Z"/></g></g></svg>