<svg xmlns="http://www.w3.org/2000/svg" viewBox="0 0 134.3 70.88"><defs><style>.cls-1{fill:#0c6;}.cls-2{fill:#1d1d1b;}</style></defs><g id="Capa_2" data-name="Capa 2"><g id="Capa_1-2" data-name="Capa 1"><path class="cls-1" d="M69.72,32.34h11a21.36,21.36,0,0,1,21.34-21.29h.31V.05h-.31A32.34,32.34,0,0,0,69.72,32.34Z"/><path class="cls-2" d="M69.72,37.09V41a32.34,32.34,0,0,0,64.58-2.47c0-.48,0-1,0-1.45h-11c0,.48.08,1,.08,1.45a21.34,21.34,0,0,1-42.68,0c0-.49,0-1,.07-1.45Z"/><path class="cls-1" d="M32.34,11A21.37,21.37,0,0,1,53.68,32.34h11A32.34,32.34,0,0,0,0,32.33H11A21.36,21.36,0,0,1,32.34,11Z"/><path class="cls-2" d="M64.68,37.09h-11A21.35,21.35,0,0,1,32.34,58.38l-.31,0v11h.31A32.34,32.34,0,0,0,64.68,37.09Z"/></g></g></svg>