<svg xmlns="http://www.w3.org/2000/svg" xmlns:xlink="http://www.w3.org/1999/xlink" viewBox="0 0 406 403.21"><defs><style>.cls-1{fill:none;}.cls-2{fill:#002c35;}.cls-3{fill:#affc41;}.cls-4{clip-path:url(#clip-path);}.cls-5{clip-path:url(#clip-path-2);}.cls-6{clip-path:url(#clip-path-3);}.cls-7{clip-path:url(#clip-path-4);}.cls-8{clip-path:url(#clip-path-5);}.cls-9{clip-path:url(#clip-path-6);}.cls-10{clip-path:url(#clip-path-7);}.cls-11{clip-path:url(#clip-path-8);}.cls-12{clip-path:url(#clip-path-9);}.cls-13{clip-path:url(#clip-path-10);}.cls-14{clip-path:url(#clip-path-11);}.cls-15{clip-path:url(#clip-path-12);}.cls-16{clip-path:url(#clip-path-13);}</style><clipPath id="clip-path"><rect class="cls-1" x="143" y="54.21" width="16" height="20"/></clipPath><clipPath id="clip-path-2"><rect class="cls-1" x="20" y="115.71" width="14" height="21"/></clipPath><clipPath id="clip-path-3"><rect class="cls-1" x="140" y="115.21" width="22" height="22"/></clipPath><clipPath id="clip-path-4"><rect class="cls-1" x="18.5" y="176.71" width="17" height="23"/></clipPath><clipPath id="clip-path-5"><rect class="cls-1" x="76.5" y="176.71" width="25" height="23"/></clipPath><clipPath id="clip-path-6"><rect class="cls-1" x="77" y="117.71" width="24" height="21"/></clipPath><clipPath id="clip-path-7"><rect class="cls-1" x="18" y="241.71" width="18" height="17"/></clipPath><clipPath id="clip-path-8"><rect class="cls-1" x="139" y="242.21" width="24" height="16"/></clipPath><clipPath id="clip-path-9"><rect class="cls-1" x="77.5" y="302.21" width="23" height="20"/></clipPath><clipPath id="clip-path-10"><rect class="cls-1" x="79.5" y="367.21" width="19" height="14"/></clipPath><clipPath id="clip-path-11"><rect class="cls-1" x="242.5" y="60.21" width="25" height="22"/></clipPath><clipPath id="clip-path-12"><rect class="cls-1" x="242.5" y="121.71" width="25" height="23"/></clipPath><clipPath id="clip-path-13"><rect class="cls-1" x="305" y="122.71" width="24" height="21"/></clipPath></defs><g id="Capa_2" data-name="Capa 2"><g id="Capa_1-2" data-name="Capa 1"><rect class="cls-2" y="36.21" width="406" height="367"/><path class="cls-3" d="M28,52v-.11H23.89V52a12.14,12.14,0,0,0,11.2,12.18,12.11,12.11,0,0,0-11.2,12.18v.11H28v-.11a7.94,7.94,0,0,1,7.89-8v-8.3A7.94,7.94,0,0,1,28,52Z"/><path class="cls-3" d="M21.85,56.18H18.14V73h3.71Z"/><path class="cls-3" d="M89,61.19a3,3,0,1,0,3,3A3,3,0,0,0,89,61.19Z"/><path class="cls-3" d="M100,61.19a3,3,0,1,0,3,3A3,3,0,0,0,100,61.19Z"/><path class="cls-3" d="M78,61.19a3,3,0,1,0,3,3A3,3,0,0,0,78,61.19Z"/><g class="cls-4"><path class="cls-3" d="M143,57.18l2.72,2.46a8,8,0,0,1,10.49,0s0,.07.07.07L159,57.24s0-.06-.07-.06A12.15,12.15,0,0,0,143,57.18Z"/><path class="cls-3" d="M143,71.24l2.72-2.47a8,8,0,0,0,10.49,0s0-.06.07-.06L159,71.17s0,.07-.07.07A12.12,12.12,0,0,1,143,71.24Z"/><path class="cls-3" d="M151.05,60.34a3.87,3.87,0,1,0,4.25,3.85A4.09,4.09,0,0,0,151.05,60.34Z"/></g><g class="cls-5"><path class="cls-3" d="M20.09,118.59,22.42,121a6.42,6.42,0,0,1,9.13,0s0,.07.06.07L34,118.65l0,0A9.73,9.73,0,0,0,20.09,118.59Z"/><path class="cls-3" d="M20,126.42l2.36,2.39a6.41,6.41,0,0,1,9.12,0s0,.06.06.06l2.37-2.39s0-.06-.06-.06A9.75,9.75,0,0,0,20,126.42Z"/><path class="cls-3" d="M34,134.26l-2.36,2.39a6.41,6.41,0,0,0-9.12,0s0,.06-.06.06l-2.37-2.39s0-.06.06-.06A9.73,9.73,0,0,1,34,134.26Z"/></g><g class="cls-6"><path class="cls-3" d="M146.16,115.21a6.2,6.2,0,1,0,6.15,6.19A6.18,6.18,0,0,0,146.16,115.21Zm3.36,6.19a3.37,3.37,0,1,1-3.36-3.39A3.39,3.39,0,0,1,149.52,121.4Z"/><path class="cls-3" d="M153.31,126.49l-1.95,2,8.7,8.76,1.95-2Z"/></g><g class="cls-7"><path class="cls-3" d="M26.79,176.71a6.16,6.16,0,0,0,0,12.31,6.16,6.16,0,0,0,0-12.31ZM30,182.86a3.21,3.21,0,1,1-3.21-3.36A3.27,3.27,0,0,1,30,182.86Z"/><path class="cls-3" d="M35.5,199.71v-1.08A8.69,8.69,0,0,0,27,190.38a8.71,8.71,0,0,0-8.53,8.91v.42h2.9c0-.14,0-.28,0-.42a5.76,5.76,0,0,1,5.6-5.88,5.75,5.75,0,0,1,5.61,5.88,2,2,0,0,1,0,.42Z"/></g><g class="cls-8"><path class="cls-3" d="M89.26,182.1a6.09,6.09,0,1,0,6.39,6.08A6.25,6.25,0,0,0,89.26,182.1Zm3.5,6.08a3.5,3.5,0,1,1-3.5-3.32A3.42,3.42,0,0,1,92.76,188.18Z"/><path class="cls-3" d="M92.24,176.71v3a6,6,0,0,1,6.11,5.8v.08h3.15v-.08A9.05,9.05,0,0,0,92.24,176.71Z"/><path class="cls-3" d="M85.76,199.71v-3a6,6,0,0,1-6.11-5.8v-.09H76.5v.09A9.05,9.05,0,0,0,85.76,199.71Z"/></g><g class="cls-9"><path class="cls-3" d="M82.79,128.72l-2.23,2.19,7.92,7.79,2.23-2.2Z"/><path class="cls-3" d="M99,119.72a7.12,7.12,0,0,0-9.93,0l2.24,2.21a3.88,3.88,0,0,1,5.45,0,3.74,3.74,0,0,1,0,5.36L99,129.5A6.85,6.85,0,0,0,99,119.72Z"/><path class="cls-3" d="M81.29,121.93a3.88,3.88,0,0,1,5.45,0L89,119.72a7.12,7.12,0,0,0-9.93,0,6.85,6.85,0,0,0,0,9.78l2.24-2.21A3.79,3.79,0,0,1,81.29,121.93Z"/></g><path class="cls-3" d="M153.78,198.12a10.1,10.1,0,0,1,9.56-9.93,10,10,0,0,1-9.56-9.89v-.09h3.48v.09a6.63,6.63,0,0,0,6.74,6.54v6.7a6.67,6.67,0,0,0-6.74,6.54v.1h-3.48Z"/><path class="cls-3" d="M153.73,186.69h-14.1v3.07h14.1Z"/><g class="cls-10"><path class="cls-3" d="M35.92,250.92A9.05,9.05,0,0,1,27,242.31a9.06,9.06,0,0,1-8.93,8.61H18v-3.14h.08A6,6,0,0,0,24,241.71h6a6,6,0,0,0,5.89,6.07H36v3.14Z"/><path class="cls-3" d="M27.13,252.35v2.88a3.44,3.44,0,0,1,3.37,3.48h2.79A6.27,6.27,0,0,0,27.13,252.35Z"/><path class="cls-3" d="M21,258.71h2.79a3.44,3.44,0,0,1,3.38-3.48v-2.88A6.27,6.27,0,0,0,21,258.71Z"/></g><path class="cls-3" d="M86,241.39v-.08h-2.9v.08a8.64,8.64,0,0,0,8,8.64,8.55,8.55,0,0,0-8,8.6v.08H86v-.08a5.64,5.64,0,0,1,5.62-5.69v-5.85A5.67,5.67,0,0,1,86,241.39Z"/><path class="cls-3" d="M94.12,241.29v-.08h-2.9v.08a8.62,8.62,0,0,0,8,8.63,8.6,8.6,0,0,0-8,8.63v.08h2.9v-.08a5.65,5.65,0,0,1,5.62-5.69V247A5.66,5.66,0,0,1,94.12,241.29Z"/><path class="cls-3" d="M81.64,244.33H79v11.92h2.64Z"/><g class="cls-11"><path class="cls-3" d="M139,250.22a8,8,0,0,0,8.11,7.94v-2.7a5.24,5.24,0,1,1,0-10.48v-2.7A8,8,0,0,0,139,250.22Z"/><path class="cls-3" d="M157.68,242.28v-.07h-2.76v.07a8,8,0,0,0,7.58,7.94,8,8,0,0,0-7.58,7.94v.07h2.76v-.07a5.28,5.28,0,0,1,5.34-5.24v-5.4A5.28,5.28,0,0,1,157.68,242.28Z"/><path class="cls-3" d="M151.8,247.22a3,3,0,1,0,3.07,3A3,3,0,0,0,151.8,247.22Z"/></g><path class="cls-3" d="M35.67,323.21v-1a8.67,8.67,0,0,0-17.31.64v.41h2.95c0-.14,0-.27,0-.41a5.72,5.72,0,0,1,11.43,0,1.89,1.89,0,0,1,0,.41Z"/><path class="cls-3" d="M18.33,301.21v1a8.67,8.67,0,0,0,17.31-.64v-.4h-3c0,.13,0,.27,0,.4a5.72,5.72,0,1,1-11.43,0,1.8,1.8,0,0,1,0-.4Z"/><path class="cls-3" d="M38,303.54H37a8.67,8.67,0,0,0,.65,17.31H38v-3l-.4,0a5.72,5.72,0,1,1,0-11.43,1.8,1.8,0,0,1,.4,0Z"/><path class="cls-3" d="M16,320.87h1.05a8.66,8.66,0,0,0-.65-17.3H16v2.95l.4,0a5.72,5.72,0,1,1,0,11.43,2.68,2.68,0,0,1-.4,0Z"/><g class="cls-12"><path class="cls-3" d="M90.07,302.21v3.4a6.77,6.77,0,0,1,6.88,6.6v.09h3.55v-.09A10.24,10.24,0,0,0,90.07,302.21Z"/><path class="cls-3" d="M88.42,302.21H87.16a10,10,0,1,0,.77,20h.49v-3.41c-.16,0-.32,0-.49,0a6.62,6.62,0,1,1,0-13.22,2.63,2.63,0,0,1,.49,0Z"/></g><path class="cls-3" d="M146.39,305.21a7,7,0,1,0,7.39,7A7.21,7.21,0,0,0,146.39,305.21Zm4.05,7a4.05,4.05,0,1,1-4.05-3.83A4,4,0,0,1,150.44,312.21Z"/><path class="cls-3" d="M155.61,305.21a7,7,0,1,0,7.39,7A7.21,7.21,0,0,0,155.61,305.21Zm4,7a4.05,4.05,0,1,1-4-3.83A4,4,0,0,1,159.65,312.21Z"/><path class="cls-3" d="M39.18,373.3h.11v-4.08h-.11A12.14,12.14,0,0,0,27,380.42a12.12,12.12,0,0,0-12.18-11.2h-.11v4.08h.11a8,8,0,0,1,8,7.9h8.3A8,8,0,0,1,39.18,373.3Z"/><g class="cls-13"><path class="cls-3" d="M82.79,367.21H79.5v14h3.29Z"/><path class="cls-3" d="M90.63,367.21H87.34v14h3.29Z"/><path class="cls-3" d="M98.5,367.21H95.21v14H98.5Z"/></g><g class="cls-14"><path class="cls-3" d="M248.08,79.37l.79.75a9.53,9.53,0,0,0,12.43-.45,8.33,8.33,0,0,0,0-12.24,2.83,2.83,0,0,0-.31-.26l-2.21,2.08a2.49,2.49,0,0,1,.31.27,5.51,5.51,0,0,1,0,8.08,6.3,6.3,0,0,1-8.55,0,2.6,2.6,0,0,1-.28-.29Z"/><path class="cls-3" d="M264.64,60.21a3.38,3.38,0,0,1-3.45,3.26v2.71a6.15,6.15,0,0,0,6.31-6Z"/><path class="cls-3" d="M254.36,71.69V68.75a5.9,5.9,0,0,1-6-5.7V63h-3.11v.09A8.93,8.93,0,0,0,254.36,71.69Z"/><path class="cls-3" d="M245.16,75.22l2.21-2.08a5.49,5.49,0,0,1,0-8.06s.06,0,.06,0l-2.21-2.09s-.06,0-.06.05A8.35,8.35,0,0,0,245.16,75.22Z"/></g><g class="cls-15"><path class="cls-3" d="M263.69,138.24a3.56,3.56,0,0,1-3.55,3.54v2.93a6.48,6.48,0,0,0,6.49-6.47Z"/><path class="cls-3" d="M261,124.64a3.56,3.56,0,0,1,3.55,3.54h2.94a6.48,6.48,0,0,0-6.49-6.47Z"/><path class="cls-3" d="M246.31,138.24a3.56,3.56,0,0,0,3.55,3.54v2.93a6.48,6.48,0,0,1-6.49-6.47Z"/><path class="cls-3" d="M249,124.64a3.56,3.56,0,0,0-3.55,3.54H242.5a6.48,6.48,0,0,1,6.49-6.47Z"/><path class="cls-3" d="M255,126.75a6.47,6.47,0,1,0,6.49,6.47A6.49,6.49,0,0,0,255,126.75Zm3.55,6.47a3.56,3.56,0,1,1-3.55-3.54A3.56,3.56,0,0,1,258.57,133.22Z"/></g><path class="cls-3" d="M316.62,61.55a5.21,5.21,0,0,1,5.13,5.25H326a9.5,9.5,0,0,0-9.38-9.59Z"/><path class="cls-3" d="M316.62,66h-4.2V85.21h4.2Z"/><path class="cls-3" d="M321.08,69.55H308v4.3h13.08Z"/><g class="cls-16"><path class="cls-3" d="M305,133.21h3.69a7,7,0,0,1,7.14-6.93h.1v-3.57h-.1A10.68,10.68,0,0,0,305,133.21Z"/><path class="cls-3" d="M317.7,143.71H319a10.51,10.51,0,0,0-.84-21h-.5v3.57c.17,0,.34,0,.5,0a6.93,6.93,0,1,1,0,13.85,2.85,2.85,0,0,1-.5,0v3.64Z"/><path class="cls-3" d="M309.53,139.22a7.17,7.17,0,0,0-.54-3.7h-4a3.87,3.87,0,0,1,0,5.62l.13.13,2.25,2.18.13.13a4.18,4.18,0,0,1,5.67-.1v-3.8A7.31,7.31,0,0,0,309.53,139.22Z"/></g><path class="cls-3" d="M374.39,68.88a7.17,7.17,0,1,0,7.39,7.17A7.29,7.29,0,0,0,374.39,68.88Zm4.05,7.17a4,4,0,1,1-4.05-3.92A4,4,0,0,1,378.44,76.05Z"/><path class="cls-3" d="M381.78,61.21h-3.31V75.53h3.31Z"/><path class="cls-3" d="M391,65.13a4,4,0,0,1-4-3.92h-3.35A7.28,7.28,0,0,0,391,68.37Z"/><path class="cls-3" d="M161,368.7l-3.49-3.49-6,6-6-6L142,368.7l6,6-6,6,3.49,3.5,6-6,6,6,3.49-3.5-6-6Z"/><path d="M11.63,17.21V.26H15.4v17ZM24,17.47a6.76,6.76,0,0,1-3.27-.79,6,6,0,0,1-2.3-2.18,5.93,5.93,0,0,1-.84-3.12,5.83,5.83,0,0,1,.84-3.12,6.06,6.06,0,0,1,2.33-2.19A6.75,6.75,0,0,1,24,5.28a6.28,6.28,0,0,1,2.49.48,5.62,5.62,0,0,1,2,1.39L26.2,9.5a2.57,2.57,0,0,0-1-.67A3.28,3.28,0,0,0,24,8.62,2.8,2.8,0,0,0,22.6,9a2.46,2.46,0,0,0-1,1,2.78,2.78,0,0,0-.34,1.41,2.89,2.89,0,0,0,.34,1.44,2.66,2.66,0,0,0,1,1,2.75,2.75,0,0,0,1.4.36,3.2,3.2,0,0,0,1.27-.24,3.08,3.08,0,0,0,1-.72l2.33,2.35A6.25,6.25,0,0,1,26.53,17,6.56,6.56,0,0,1,24,17.47Zm11.6,0a6.76,6.76,0,0,1-3.27-.79A6.12,6.12,0,0,1,30,14.47a5.93,5.93,0,0,1-.84-3.12A5.78,5.78,0,0,1,30,8.26,5.92,5.92,0,0,1,32.3,6.1a6.46,6.46,0,0,1,3.27-.82,6.64,6.64,0,0,1,3.26.79,6,6,0,0,1,2.28,2.19A5.78,5.78,0,0,1,42,11.35a5.93,5.93,0,0,1-.84,3.12,6.12,6.12,0,0,1-2.28,2.21A6.64,6.64,0,0,1,35.57,17.47Zm0-3.33A2.83,2.83,0,0,0,37,13.8a2.39,2.39,0,0,0,.91-1,3.09,3.09,0,0,0,.34-1.47,2.78,2.78,0,0,0-.34-1.41,2.27,2.27,0,0,0-.93-1,2.54,2.54,0,0,0-1.37-.36A2.62,2.62,0,0,0,34.2,9a2.35,2.35,0,0,0-.94,1,3,3,0,0,0-.33,1.44,3.17,3.17,0,0,0,.33,1.44,2.6,2.6,0,0,0,.94,1A2.81,2.81,0,0,0,35.57,14.14Zm15.91,3.07V10.56a1.92,1.92,0,0,0-.57-1.46,1.86,1.86,0,0,0-1.42-.58,2.1,2.1,0,0,0-1.05.26,1.67,1.67,0,0,0-.72.72,2.06,2.06,0,0,0-.27,1.06L46,9.86a4.7,4.7,0,0,1,.6-2.4,4.11,4.11,0,0,1,1.65-1.58,5.13,5.13,0,0,1,2.43-.58A4.15,4.15,0,0,1,53,5.93a4.28,4.28,0,0,1,1.58,1.61,4.38,4.38,0,0,1,.58,2.2v7.47Zm-7.7,0V5.54h3.67V17.21Zm18,.29a7.94,7.94,0,0,1-2-.27,7.79,7.79,0,0,1-1.84-.74,7,7,0,0,1-1.45-1.15l2.09-2.12a4.22,4.22,0,0,0,1.37,1,4.44,4.44,0,0,0,1.73.33,2,2,0,0,0,1-.19.58.58,0,0,0,.36-.53.68.68,0,0,0-.43-.64,4,4,0,0,0-1.06-.41l-1.36-.41a5.76,5.76,0,0,1-1.37-.6,3.16,3.16,0,0,1-1.06-1.06A3.41,3.41,0,0,1,57.28,9,3.29,3.29,0,0,1,57.85,7a3.85,3.85,0,0,1,1.63-1.32A6,6,0,0,1,62,5.21a6.78,6.78,0,0,1,2.73.53,4.81,4.81,0,0,1,2.07,1.51L64.67,9.36a3.07,3.07,0,0,0-1.25-.91,3.54,3.54,0,0,0-1.32-.27,1.8,1.8,0,0,0-.94.2.55.55,0,0,0-.31.5.66.66,0,0,0,.41.58,4.9,4.9,0,0,0,1.06.38c.43.11.88.25,1.36.41a5.93,5.93,0,0,1,1.37.65A3.19,3.19,0,0,1,66.11,12a3.42,3.42,0,0,1,.41,1.78,3.27,3.27,0,0,1-1.3,2.71A5.44,5.44,0,0,1,61.76,17.5Z"/><path d="M243.51,10.22V7.44h3.58a2.38,2.38,0,0,0,1.73-.58,2,2,0,0,0,.62-1.56,2.06,2.06,0,0,0-.6-1.51,2.35,2.35,0,0,0-1.73-.6h-3.6V.26h4a6.48,6.48,0,0,1,3,.65,4.91,4.91,0,0,1,2,1.75,4.75,4.75,0,0,1,.72,2.6,4.74,4.74,0,0,1-.72,2.61,4.84,4.84,0,0,1-2,1.73,6.89,6.89,0,0,1-3.05.62Zm-2.88,7V.26h3.77v17Zm9.22,0-5.28-7.3L248,9l6.29,8.23Zm9-7V7.44h3.58a2.36,2.36,0,0,0,1.72-.58,2,2,0,0,0,.63-1.56,2.06,2.06,0,0,0-.6-1.51,2.35,2.35,0,0,0-1.73-.6h-3.6V.26h4a6.41,6.41,0,0,1,2.95.65,4.88,4.88,0,0,1,2,1.75,4.75,4.75,0,0,1,.72,2.6,4.74,4.74,0,0,1-.72,2.61,4.9,4.9,0,0,1-2,1.73,6.89,6.89,0,0,1-3.05.62Zm-2.88,7V.26h3.77v17Zm9.22,0-5.28-7.3L263.35,9l6.29,8.23Zm8.4.26a2.06,2.06,0,0,1-1.56-.65,2.3,2.3,0,0,1,0-3.14,2.1,2.1,0,0,1,1.56-.65,2,2,0,0,1,1.56.65,2.27,2.27,0,0,1,0,3.14A2,2,0,0,1,273.58,17.47Zm10.32,0a8.8,8.8,0,0,1-3.6-.67,8.6,8.6,0,0,1-2.74-2.09L280,12.29a6.61,6.61,0,0,0,1.8,1.46,5.09,5.09,0,0,0,2.33.51,3.3,3.3,0,0,0,1.85-.44,1.33,1.33,0,0,0,.67-1.2,1.49,1.49,0,0,0-.43-1.12,3.7,3.7,0,0,0-1.15-.75q-.7-.32-1.56-.6c-.56-.19-1.12-.41-1.68-.65a7.66,7.66,0,0,1-1.56-.93,4.5,4.5,0,0,1-1.13-1.42A4.75,4.75,0,0,1,278.72,5a4.76,4.76,0,0,1,.74-2.69A4.75,4.75,0,0,1,281.57.6a7.55,7.55,0,0,1,3.1-.6,8.32,8.32,0,0,1,3.24.62,6.74,6.74,0,0,1,2.45,1.71l-2.45,2.42a5.4,5.4,0,0,0-1.56-1.17,3.82,3.82,0,0,0-1.75-.39,2.73,2.73,0,0,0-1.56.39,1.16,1.16,0,0,0-.58,1,1.39,1.39,0,0,0,.43,1.06,4.17,4.17,0,0,0,1.13.67c.48.19,1,.38,1.56.58a15.37,15.37,0,0,1,1.7.67,6.2,6.2,0,0,1,1.54,1A4.2,4.2,0,0,1,290,10.08a5,5,0,0,1,.43,2.21,4.62,4.62,0,0,1-1.72,3.81A7.49,7.49,0,0,1,283.9,17.47Zm13.57,0a8.8,8.8,0,0,1-3.6-.67,8.6,8.6,0,0,1-2.74-2.09l2.45-2.42a6.61,6.61,0,0,0,1.8,1.46,5.09,5.09,0,0,0,2.33.51,3.3,3.3,0,0,0,1.85-.44,1.33,1.33,0,0,0,.67-1.2,1.49,1.49,0,0,0-.43-1.12,3.7,3.7,0,0,0-1.15-.75q-.7-.32-1.56-.6c-.56-.19-1.12-.41-1.68-.65a7.66,7.66,0,0,1-1.56-.93,4.5,4.5,0,0,1-1.13-1.42A4.75,4.75,0,0,1,292.29,5,4.76,4.76,0,0,1,293,2.3,4.75,4.75,0,0,1,295.14.6a7.55,7.55,0,0,1,3.1-.6,8.32,8.32,0,0,1,3.24.62,6.74,6.74,0,0,1,2.45,1.71l-2.45,2.42a5.4,5.4,0,0,0-1.56-1.17,3.82,3.82,0,0,0-1.75-.39,2.73,2.73,0,0,0-1.56.39,1.16,1.16,0,0,0-.58,1,1.39,1.39,0,0,0,.43,1.06,4.17,4.17,0,0,0,1.13.67c.48.19,1,.38,1.56.58a15.37,15.37,0,0,1,1.7.67,6.2,6.2,0,0,1,1.54,1,4.2,4.2,0,0,1,1.15,1.49,5,5,0,0,1,.43,2.21,4.62,4.62,0,0,1-1.72,3.81A7.49,7.49,0,0,1,297.47,17.47Z"/></g></g></svg>