<svg xmlns="http://www.w3.org/2000/svg" xmlns:xlink="http://www.w3.org/1999/xlink" viewBox="0 0 380.37 385.21"><defs><style>.cls-1{fill:none;}.cls-2{fill:#0c6;}.cls-3{clip-path:url(#clip-path);}.cls-4{clip-path:url(#clip-path-2);}.cls-5{clip-path:url(#clip-path-3);}.cls-6{clip-path:url(#clip-path-4);}.cls-7{clip-path:url(#clip-path-5);}.cls-8{clip-path:url(#clip-path-6);}.cls-9{clip-path:url(#clip-path-7);}.cls-10{clip-path:url(#clip-path-8);}.cls-11{clip-path:url(#clip-path-9);}.cls-12{clip-path:url(#clip-path-10);}.cls-13{clip-path:url(#clip-path-11);}.cls-14{clip-path:url(#clip-path-12);}.cls-15{clip-path:url(#clip-path-13);}</style><clipPath id="clip-path"><rect class="cls-1" x="132.37" y="58.21" width="16" height="20"/></clipPath><clipPath id="clip-path-2"><rect class="cls-1" x="9.37" y="119.71" width="14" height="21"/></clipPath><clipPath id="clip-path-3"><rect class="cls-1" x="129.37" y="119.21" width="22" height="22"/></clipPath><clipPath id="clip-path-4"><rect class="cls-1" x="7.87" y="180.71" width="17" height="23"/></clipPath><clipPath id="clip-path-5"><rect class="cls-1" x="65.87" y="180.71" width="25" height="23"/></clipPath><clipPath id="clip-path-6"><rect class="cls-1" x="66.37" y="121.71" width="24" height="21"/></clipPath><clipPath id="clip-path-7"><rect class="cls-1" x="7.37" y="245.71" width="18" height="17"/></clipPath><clipPath id="clip-path-8"><rect class="cls-1" x="128.37" y="246.21" width="24" height="16"/></clipPath><clipPath id="clip-path-9"><rect class="cls-1" x="66.87" y="306.21" width="23" height="20"/></clipPath><clipPath id="clip-path-10"><rect class="cls-1" x="68.87" y="371.21" width="19" height="14"/></clipPath><clipPath id="clip-path-11"><rect class="cls-1" x="231.87" y="64.21" width="25" height="22"/></clipPath><clipPath id="clip-path-12"><rect class="cls-1" x="231.87" y="125.71" width="25" height="23"/></clipPath><clipPath id="clip-path-13"><rect class="cls-1" x="294.37" y="126.71" width="24" height="21"/></clipPath></defs><g id="Capa_2" data-name="Capa 2"><g id="Capa_1-2" data-name="Capa 1"><path class="cls-2" d="M17.33,56v-.11H13.25V56a12.15,12.15,0,0,0,11.2,12.18,12.12,12.12,0,0,0-11.2,12.18v.11h4.08v-.11a8,8,0,0,1,7.9-8v-8.3A8,8,0,0,1,17.33,56Z"/><path class="cls-2" d="M11.21,60.18H7.51V77h3.7Z"/><path class="cls-2" d="M78.37,65.19a3,3,0,1,0,3,3A3,3,0,0,0,78.37,65.19Z"/><path class="cls-2" d="M89.38,65.19a3,3,0,1,0,3,3A3,3,0,0,0,89.38,65.19Z"/><path class="cls-2" d="M67.36,65.19a3,3,0,1,0,3,3A3,3,0,0,0,67.36,65.19Z"/><g class="cls-3"><path class="cls-2" d="M132.37,61.18l2.72,2.46a8,8,0,0,1,10.49,0s0,.07.07.07l2.72-2.47s0-.06-.07-.06A12.15,12.15,0,0,0,132.37,61.18Z"/><path class="cls-2" d="M132.37,75.24l2.72-2.47a8,8,0,0,0,10.49,0s0-.06.07-.06l2.72,2.46s0,.07-.07.07A12.12,12.12,0,0,1,132.37,75.24Z"/><path class="cls-2" d="M140.42,64.34a3.87,3.87,0,1,0,4.25,3.85A4.08,4.08,0,0,0,140.42,64.34Z"/></g><g class="cls-4"><path class="cls-2" d="M9.46,122.59,11.79,125a6.41,6.41,0,0,1,9.12,0s0,.07.07.07l2.36-2.39,0,0A9.73,9.73,0,0,0,9.46,122.59Z"/><path class="cls-2" d="M9.37,130.42l2.36,2.39a6.41,6.41,0,0,1,9.12,0s0,.06.06.06l2.37-2.39s0-.06-.06-.06A9.75,9.75,0,0,0,9.37,130.42Z"/><path class="cls-2" d="M23.37,138.26,21,140.65a6.42,6.42,0,0,0-9.13,0s0,.06-.06.06l-2.36-2.39s0-.06.06-.06A9.73,9.73,0,0,1,23.37,138.26Z"/></g><g class="cls-5"><path class="cls-2" d="M135.52,119.21a6.2,6.2,0,1,0,6.16,6.19A6.18,6.18,0,0,0,135.52,119.21Zm3.37,6.19a3.37,3.37,0,1,1-3.37-3.39A3.4,3.4,0,0,1,138.89,125.4Z"/><path class="cls-2" d="M142.68,130.49l-2,2,8.71,8.76,1.95-2Z"/></g><g class="cls-6"><path class="cls-2" d="M16.16,180.71a6.16,6.16,0,0,0,0,12.31,6.16,6.16,0,0,0,0-12.31Zm3.21,6.15a3.3,3.3,0,0,1-3.21,3.37,3.37,3.37,0,0,1,0-6.73A3.27,3.27,0,0,1,19.37,186.86Z"/><path class="cls-2" d="M24.87,203.71v-1.08a8.7,8.7,0,0,0-8.48-8.25,8.71,8.71,0,0,0-8.52,8.91v.42h2.89c0-.14,0-.28,0-.42a5.75,5.75,0,0,1,5.6-5.88A5.75,5.75,0,0,1,22,203.29a2,2,0,0,1,0,.42Z"/></g><g class="cls-7"><path class="cls-2" d="M78.63,186.1A6.09,6.09,0,1,0,85,192.18,6.25,6.25,0,0,0,78.63,186.1Zm3.49,6.08a3.5,3.5,0,1,1-3.49-3.32A3.42,3.42,0,0,1,82.12,192.18Z"/><path class="cls-2" d="M81.61,180.71v3a6,6,0,0,1,6.1,5.8v.08h3.16v-.08A9.05,9.05,0,0,0,81.61,180.71Z"/><path class="cls-2" d="M75.13,203.71v-3a6,6,0,0,1-6.11-5.8v-.09H65.87v.09A9.05,9.05,0,0,0,75.13,203.71Z"/></g><g class="cls-8"><path class="cls-2" d="M72.16,132.72l-2.23,2.19,7.92,7.79,2.23-2.2Z"/><path class="cls-2" d="M88.32,123.72a7.13,7.13,0,0,0-9.94,0l2.24,2.21a3.89,3.89,0,0,1,5.46,0,3.74,3.74,0,0,1,0,5.36l2.24,2.21A6.85,6.85,0,0,0,88.32,123.72Z"/><path class="cls-2" d="M70.66,125.93a3.88,3.88,0,0,1,5.45,0l2.24-2.21a7.12,7.12,0,0,0-9.93,0,6.83,6.83,0,0,0,0,9.78l2.24-2.21A3.79,3.79,0,0,1,70.66,125.93Z"/></g><path class="cls-2" d="M143.15,202.12a10.1,10.1,0,0,1,9.55-9.93,10,10,0,0,1-9.55-9.89v-.09h3.48v.09a6.63,6.63,0,0,0,6.74,6.54v6.7a6.67,6.67,0,0,0-6.74,6.54v.1h-3.48Z"/><path class="cls-2" d="M143.1,190.69H129v3.07H143.1Z"/><g class="cls-9"><path class="cls-2" d="M25.29,254.92a9.05,9.05,0,0,1-8.91-8.61,9.06,9.06,0,0,1-8.93,8.61H7.37v-3.14h.08a6,6,0,0,0,5.89-6.07h6a6,6,0,0,0,5.89,6.07h.08v3.14Z"/><path class="cls-2" d="M16.49,256.35v2.88a3.44,3.44,0,0,1,3.38,3.48h2.79A6.27,6.27,0,0,0,16.49,256.35Z"/><path class="cls-2" d="M10.33,262.71h2.79a3.44,3.44,0,0,1,3.37-3.48v-2.88A6.27,6.27,0,0,0,10.33,262.71Z"/></g><path class="cls-2" d="M75.36,245.39v-.08h-2.9v.08a8.64,8.64,0,0,0,8,8.64,8.55,8.55,0,0,0-8,8.6v.08h2.9v-.08A5.64,5.64,0,0,1,81,256.94v-5.85A5.67,5.67,0,0,1,75.36,245.39Z"/><path class="cls-2" d="M83.49,245.29v-.08h-2.9v.08a8.61,8.61,0,0,0,8,8.63,8.59,8.59,0,0,0-8,8.63v.08h2.9v-.08a5.64,5.64,0,0,1,5.62-5.69V251A5.66,5.66,0,0,1,83.49,245.29Z"/><path class="cls-2" d="M71,248.33H68.37v11.92H71Z"/><g class="cls-10"><path class="cls-2" d="M128.37,254.22a8,8,0,0,0,8.11,7.94v-2.7a5.24,5.24,0,1,1,0-10.48v-2.7A8,8,0,0,0,128.37,254.22Z"/><path class="cls-2" d="M147.05,246.28v-.07h-2.77v.07a8.05,8.05,0,0,0,7.59,7.94,8,8,0,0,0-7.59,7.94v.07h2.77v-.07a5.28,5.28,0,0,1,5.34-5.24v-5.4A5.28,5.28,0,0,1,147.05,246.28Z"/><path class="cls-2" d="M141.17,251.22a3,3,0,1,0,3.06,3A3,3,0,0,0,141.17,251.22Z"/></g><path class="cls-2" d="M25,327.21v-1a8.66,8.66,0,0,0-17.3.64v.41h2.95c0-.14,0-.27,0-.41a5.72,5.72,0,0,1,11.43,0,2.82,2.82,0,0,1,0,.41Z"/><path class="cls-2" d="M7.7,305.21v1A8.67,8.67,0,0,0,25,305.61v-.4h-3c0,.13,0,.27,0,.4a5.72,5.72,0,1,1-11.43,0,1.8,1.8,0,0,1,0-.4Z"/><path class="cls-2" d="M27.37,307.54H26.32A8.67,8.67,0,0,0,27,324.85h.41v-3l-.41,0a5.72,5.72,0,0,1,0-11.43,1.89,1.89,0,0,1,.41,0Z"/><path class="cls-2" d="M5.37,324.87h1a8.66,8.66,0,0,0-.64-17.3h-.4v2.95l.4,0a5.72,5.72,0,1,1,0,11.43,2.68,2.68,0,0,1-.4,0Z"/><g class="cls-11"><path class="cls-2" d="M79.43,306.21v3.4a6.78,6.78,0,0,1,6.89,6.6v.09h3.55v-.09A10.25,10.25,0,0,0,79.43,306.21Z"/><path class="cls-2" d="M77.79,306.21H76.53a10,10,0,1,0,.77,20h.49v-3.41l-.49,0a6.62,6.62,0,1,1,0-13.22,2.69,2.69,0,0,1,.49,0Z"/></g><path class="cls-2" d="M135.76,309.21a7,7,0,1,0,7.39,7A7.21,7.21,0,0,0,135.76,309.21Zm4,7a4,4,0,1,1-4-3.83A4,4,0,0,1,139.8,316.21Z"/><path class="cls-2" d="M145,309.21a7,7,0,1,0,7.39,7A7.22,7.22,0,0,0,145,309.21Zm4,7a4.05,4.05,0,1,1-4-3.83A4,4,0,0,1,149,316.21Z"/><path class="cls-2" d="M28.55,377.3h.11v-4.08h-.11a12.14,12.14,0,0,0-12.18,11.2,12.13,12.13,0,0,0-12.18-11.2H4.08v4.08h.11a8,8,0,0,1,8,7.9h8.3A8,8,0,0,1,28.55,377.3Z"/><g class="cls-12"><path class="cls-2" d="M72.16,371.21H68.87v14h3.29Z"/><path class="cls-2" d="M80,371.21H76.71v14H80Z"/><path class="cls-2" d="M87.87,371.21H84.58v14h3.29Z"/></g><path class="cls-2" d="M148.37,369.7l-3.5-3.49-6,6-6-6-3.49,3.49,6,6-6,6,3.49,3.5,6-6,6,6,3.5-3.5-6-6Z"/><g class="cls-13"><path class="cls-2" d="M237.45,83.37l.79.75a9.53,9.53,0,0,0,12.43-.45,8.33,8.33,0,0,0,0-12.24c-.09-.08-.2-.18-.31-.26l-2.21,2.08a2.49,2.49,0,0,1,.31.27,5.51,5.51,0,0,1,0,8.08,6.3,6.3,0,0,1-8.55,0,1.94,1.94,0,0,1-.28-.29Z"/><path class="cls-2" d="M254,64.21a3.38,3.38,0,0,1-3.46,3.26v2.71a6.16,6.16,0,0,0,6.32-6Z"/><path class="cls-2" d="M243.73,75.69V72.75a5.9,5.9,0,0,1-6-5.7V67h-3.11v.09A8.93,8.93,0,0,0,243.73,75.69Z"/><path class="cls-2" d="M234.53,79.22l2.21-2.08a5.49,5.49,0,0,1,0-8.06s0,0,0,0l-2.2-2.09s-.06,0-.06,0A8.35,8.35,0,0,0,234.53,79.22Z"/></g><g class="cls-14"><path class="cls-2" d="M253.06,142.24a3.57,3.57,0,0,1-3.55,3.54v2.93a6.49,6.49,0,0,0,6.49-6.47Z"/><path class="cls-2" d="M250.38,128.64a3.56,3.56,0,0,1,3.55,3.54h2.94a6.48,6.48,0,0,0-6.49-6.47Z"/><path class="cls-2" d="M235.68,142.24a3.56,3.56,0,0,0,3.55,3.54v2.93a6.48,6.48,0,0,1-6.49-6.47Z"/><path class="cls-2" d="M238.36,128.64a3.56,3.56,0,0,0-3.55,3.54h-2.94a6.48,6.48,0,0,1,6.49-6.47Z"/><path class="cls-2" d="M244.38,130.75a6.47,6.47,0,1,0,6.49,6.47A6.49,6.49,0,0,0,244.38,130.75Zm3.55,6.47a3.55,3.55,0,1,1-3.55-3.54A3.56,3.56,0,0,1,247.93,137.22Z"/></g><path class="cls-2" d="M306,65.55a5.21,5.21,0,0,1,5.13,5.25h4.25A9.5,9.5,0,0,0,306,61.21Z"/><path class="cls-2" d="M306,70h-4.21V89.21H306Z"/><path class="cls-2" d="M310.45,73.55H297.37v4.3h13.08Z"/><g class="cls-15"><path class="cls-2" d="M294.37,137.21h3.69a7,7,0,0,1,7.14-6.93h.1v-3.57h-.1A10.68,10.68,0,0,0,294.37,137.21Z"/><path class="cls-2" d="M307.07,147.71h1.31a10.51,10.51,0,0,0-.84-21H307v3.57c.17,0,.33,0,.5,0a6.93,6.93,0,1,1,0,13.85,2.8,2.8,0,0,1-.5,0v3.64Z"/><path class="cls-2" d="M298.89,143.22a7.06,7.06,0,0,0-.53-3.7h-4a3.87,3.87,0,0,1,0,5.62l.13.13,2.25,2.18.13.13a4.18,4.18,0,0,1,5.67-.1v-3.8A7.34,7.34,0,0,0,298.89,143.22Z"/></g><path class="cls-2" d="M363.76,72.88a7.17,7.17,0,1,0,7.39,7.17A7.29,7.29,0,0,0,363.76,72.88Zm4,7.17a4,4,0,1,1-4-3.92A4,4,0,0,1,367.8,80.05Z"/><path class="cls-2" d="M371.15,65.21h-3.31V79.53h3.31Z"/><path class="cls-2" d="M380.37,69.13a4,4,0,0,1-4.05-3.92H373a7.28,7.28,0,0,0,7.39,7.16Z"/><path d="M0,17.21V.26H3.77v17Zm12.34.26a6.76,6.76,0,0,1-3.27-.79,6,6,0,0,1-2.3-2.18,5.93,5.93,0,0,1-.84-3.12,5.83,5.83,0,0,1,.84-3.12A6.06,6.06,0,0,1,9.1,6.07a6.74,6.74,0,0,1,3.28-.79,6.3,6.3,0,0,1,2.5.48,5.62,5.62,0,0,1,2,1.39L14.57,9.5a2.57,2.57,0,0,0-1-.67,3.3,3.3,0,0,0-1.23-.21A2.76,2.76,0,0,0,11,9a2.46,2.46,0,0,0-1,1,2.78,2.78,0,0,0-.34,1.41A2.89,2.89,0,0,0,10,12.79a2.66,2.66,0,0,0,1,1,2.74,2.74,0,0,0,1.39.36,3.13,3.13,0,0,0,1.27-.24,3,3,0,0,0,1-.72L17,15.53A6.25,6.25,0,0,1,14.9,17,6.56,6.56,0,0,1,12.34,17.47Zm11.6,0a6.76,6.76,0,0,1-3.27-.79,6.12,6.12,0,0,1-2.28-2.21,5.93,5.93,0,0,1-.84-3.12,5.78,5.78,0,0,1,.84-3.09A5.92,5.92,0,0,1,20.67,6.1a6.46,6.46,0,0,1,3.27-.82,6.64,6.64,0,0,1,3.26.79,6,6,0,0,1,2.28,2.19,5.78,5.78,0,0,1,.84,3.09,5.93,5.93,0,0,1-.84,3.12,6.12,6.12,0,0,1-2.28,2.21A6.64,6.64,0,0,1,23.94,17.47Zm0-3.33a2.86,2.86,0,0,0,1.39-.34,2.39,2.39,0,0,0,.91-1,3.22,3.22,0,0,0,.34-1.47,2.88,2.88,0,0,0-.34-1.41,2.29,2.29,0,0,0-.94-1,2.51,2.51,0,0,0-1.36-.36A2.59,2.59,0,0,0,22.57,9a2.35,2.35,0,0,0-.94,1,3,3,0,0,0-.33,1.44,3.17,3.17,0,0,0,.33,1.44,2.6,2.6,0,0,0,.94,1A2.78,2.78,0,0,0,23.94,14.14Zm15.91,3.07V10.56a1.92,1.92,0,0,0-.57-1.46,1.86,1.86,0,0,0-1.42-.58,2.16,2.16,0,0,0-1.06.26,1.78,1.78,0,0,0-.72.72,2.16,2.16,0,0,0-.26,1.06l-1.42-.7a4.7,4.7,0,0,1,.6-2.4,4.14,4.14,0,0,1,1.66-1.58,5.12,5.12,0,0,1,2.42-.58,4.11,4.11,0,0,1,2.28.63A4.31,4.31,0,0,1,43,7.54a4.37,4.37,0,0,1,.57,2.2v7.47Zm-7.7,0V5.54h3.67V17.21Zm18,.29a8.16,8.16,0,0,1-3.89-1,6.68,6.68,0,0,1-1.44-1.15l2.09-2.12a4.22,4.22,0,0,0,1.37,1,4.44,4.44,0,0,0,1.73.33,2,2,0,0,0,1-.19.58.58,0,0,0,.36-.53.68.68,0,0,0-.43-.64,4,4,0,0,0-1.06-.41l-1.36-.41a5.76,5.76,0,0,1-1.37-.6,3.07,3.07,0,0,1-1.06-1.06A3.41,3.41,0,0,1,45.64,9,3.3,3.3,0,0,1,46.22,7a3.85,3.85,0,0,1,1.63-1.32,6,6,0,0,1,2.47-.48,6.8,6.8,0,0,1,2.74.53,4.72,4.72,0,0,1,2.06,1.51L53,9.36a3.07,3.07,0,0,0-1.25-.91,3.54,3.54,0,0,0-1.32-.27,1.8,1.8,0,0,0-.94.2.53.53,0,0,0-.31.5.66.66,0,0,0,.41.58,5,5,0,0,0,1,.38c.44.11.89.25,1.37.41a5.93,5.93,0,0,1,1.37.65A3.29,3.29,0,0,1,54.48,12a3.43,3.43,0,0,1,.4,1.78,3.26,3.26,0,0,1-1.29,2.71A5.44,5.44,0,0,1,50.13,17.5Z"/><path d="M231.88,10.22V7.44h3.58a2.36,2.36,0,0,0,1.72-.58,2,2,0,0,0,.63-1.56,2.06,2.06,0,0,0-.6-1.51,2.35,2.35,0,0,0-1.73-.6h-3.6V.26h4a6.41,6.41,0,0,1,3,.65,4.88,4.88,0,0,1,2,1.75,4.75,4.75,0,0,1,.72,2.6,4.74,4.74,0,0,1-.72,2.61,4.9,4.9,0,0,1-2,1.73,6.89,6.89,0,0,1-3.05.62Zm-2.88,7V.26h3.77v17Zm9.22,0-5.28-7.3L236.39,9l6.29,8.23Zm9-7V7.44h3.57a2.37,2.37,0,0,0,1.73-.58,2,2,0,0,0,.63-1.56,2.06,2.06,0,0,0-.6-1.51,2.35,2.35,0,0,0-1.73-.6h-3.6V.26h4a6.44,6.44,0,0,1,2.95.65,4.85,4.85,0,0,1,2,1.75,4.75,4.75,0,0,1,.72,2.6,4.74,4.74,0,0,1-.72,2.61,4.87,4.87,0,0,1-2,1.73,6.92,6.92,0,0,1-3,.62Zm-2.88,7V.26h3.77v17Zm9.21,0-5.28-7.3L251.72,9,258,17.21Zm8.41.26a2.06,2.06,0,0,1-1.56-.65,2.3,2.3,0,0,1,0-3.14A2.1,2.1,0,0,1,262,13a2,2,0,0,1,1.56.65,2.27,2.27,0,0,1,0,3.14A2,2,0,0,1,262,17.47Zm10.32,0a8.8,8.8,0,0,1-3.6-.67,8.49,8.49,0,0,1-2.74-2.09l2.45-2.42a6.33,6.33,0,0,0,1.8,1.46,5.09,5.09,0,0,0,2.33.51,3.33,3.33,0,0,0,1.85-.44,1.35,1.35,0,0,0,.67-1.2,1.53,1.53,0,0,0-.43-1.12,3.75,3.75,0,0,0-1.16-.75,15.06,15.06,0,0,0-1.56-.6c-.56-.19-1.12-.41-1.68-.65a7.66,7.66,0,0,1-1.56-.93,4.47,4.47,0,0,1-1.12-1.42A4.74,4.74,0,0,1,267.08,5a4.77,4.77,0,0,1,.75-2.69A4.69,4.69,0,0,1,269.94.6,7.55,7.55,0,0,1,273,0a8.32,8.32,0,0,1,3.24.62,6.71,6.71,0,0,1,2.44,1.71l-2.44,2.42a5.68,5.68,0,0,0-1.56-1.17A3.86,3.86,0,0,0,273,3.19a2.77,2.77,0,0,0-1.56.39,1.17,1.17,0,0,0-.57,1,1.39,1.39,0,0,0,.43,1.06,4,4,0,0,0,1.13.67c.48.19,1,.38,1.56.58a16.19,16.19,0,0,1,1.7.67,6.38,6.38,0,0,1,1.54,1,4.2,4.2,0,0,1,1.15,1.49,5,5,0,0,1,.43,2.21A4.6,4.6,0,0,1,277,16.1,7.44,7.44,0,0,1,272.27,17.47Zm13.57,0a8.8,8.8,0,0,1-3.6-.67,8.49,8.49,0,0,1-2.74-2.09L282,12.29a6.33,6.33,0,0,0,1.8,1.46,5.09,5.09,0,0,0,2.33.51,3.33,3.33,0,0,0,1.85-.44,1.35,1.35,0,0,0,.67-1.2,1.53,1.53,0,0,0-.43-1.12,3.75,3.75,0,0,0-1.16-.75,15.06,15.06,0,0,0-1.56-.6c-.56-.19-1.12-.41-1.68-.65a7.66,7.66,0,0,1-1.56-.93,4.47,4.47,0,0,1-1.12-1.42A4.74,4.74,0,0,1,280.65,5a4.77,4.77,0,0,1,.75-2.69A4.69,4.69,0,0,1,283.51.6a7.55,7.55,0,0,1,3.1-.6,8.32,8.32,0,0,1,3.24.62,6.71,6.71,0,0,1,2.44,1.71l-2.44,2.42a5.68,5.68,0,0,0-1.56-1.17,3.86,3.86,0,0,0-1.76-.39,2.77,2.77,0,0,0-1.56.39,1.17,1.17,0,0,0-.57,1,1.39,1.39,0,0,0,.43,1.06,4,4,0,0,0,1.13.67c.48.19,1,.38,1.56.58a16.19,16.19,0,0,1,1.7.67,6.38,6.38,0,0,1,1.54,1,4.2,4.2,0,0,1,1.15,1.49,5,5,0,0,1,.43,2.21,4.6,4.6,0,0,1-1.73,3.81A7.44,7.44,0,0,1,285.84,17.47Z"/></g></g></svg>