<svg xmlns="http://www.w3.org/2000/svg" xmlns:xlink="http://www.w3.org/1999/xlink" viewBox="0 0 1442 343"><defs><style>.cls-1{fill:none;}.cls-2{fill:#002c35;}.cls-3{fill:#0c6;}.cls-4{fill:#fff;}.cls-5{fill:#1dd3b0;}.cls-6{clip-path:url(#clip-path);}.cls-7{fill:#086375;}.cls-8{clip-path:url(#clip-path-2);}.cls-9{fill:#f7a278;}.cls-10{clip-path:url(#clip-path-3);}.cls-11{fill:#b2ff9e;}.cls-12{clip-path:url(#clip-path-4);}.cls-13{fill:#f2f2f2;}.cls-14{clip-path:url(#clip-path-5);}.cls-15{clip-path:url(#clip-path-6);}.cls-16{clip-path:url(#clip-path-7);}.cls-17{clip-path:url(#clip-path-8);}</style><clipPath id="clip-path"><rect class="cls-1" x="395.5" y="65" width="25" height="22"/></clipPath><clipPath id="clip-path-2"><rect class="cls-1" x="453" y="62" width="18" height="28"/></clipPath><clipPath id="clip-path-3"><rect class="cls-1" x="503.5" y="64.5" width="25" height="23"/></clipPath><clipPath id="clip-path-4"><rect class="cls-1" x="558" y="65.5" width="24" height="21"/></clipPath><clipPath id="clip-path-5"><rect class="cls-1" x="397.5" y="255" width="25" height="22"/></clipPath><clipPath id="clip-path-6"><rect class="cls-1" x="455" y="252" width="18" height="28"/></clipPath><clipPath id="clip-path-7"><rect class="cls-1" x="505.5" y="254.5" width="25" height="23"/></clipPath><clipPath id="clip-path-8"><rect class="cls-1" x="560" y="255.5" width="24" height="21"/></clipPath></defs><g id="Capa_2" data-name="Capa 2"><g id="Capa_1-2" data-name="Capa 1"><rect class="cls-2" width="1440" height="153"/><path class="cls-3" d="M91.69,77.05v4.73c4.72,0,8.6,4.12,8.6,9.14v.13h4.43v-.13C104.72,83.28,98.88,77.05,91.69,77.05Z"/><path class="cls-4" d="M89.64,77.05H88.06C81.33,77.57,76,83.58,76,90.88c0,7.69,5.85,13.87,13,13.87h.61V100c-.2,0-.41,0-.61,0-4.76,0-8.59-4.12-8.59-9.15A8.89,8.89,0,0,1,89,81.78a3.13,3.13,0,0,1,.61,0Z"/><path class="cls-3" d="M100.29,61.12a8.9,8.9,0,0,1-8.6,9.15V75c7.23,0,13-6.23,13-13.87s-5.84-13.87-13-13.87V52A8.9,8.9,0,0,1,100.29,61.12Z"/><path class="cls-4" d="M89.64,75V70.27A8.9,8.9,0,0,1,81,61.12V61H76.61v.13C76.61,68.76,82.46,75,89.64,75Z"/><path class="cls-4" d="M128.86,77.87a8.41,8.41,0,0,1-4.47-1.2,8.9,8.9,0,0,1-3.19-3.31,9.79,9.79,0,0,1,0-9.28,8.53,8.53,0,0,1,3.19-3.26,8.32,8.32,0,0,1,4.47-1.2,8.24,8.24,0,0,1,4.48,1.2,8.51,8.51,0,0,1,3.15,3.26,9.35,9.35,0,0,1,1.17,4.64,9.57,9.57,0,0,1-1.17,4.64,9,9,0,0,1-3.15,3.31A8.42,8.42,0,0,1,128.86,77.87Zm0-4.51a4.22,4.22,0,0,0,2.18-.6,3.69,3.69,0,0,0,1.45-1.63,5.58,5.58,0,0,0,.53-2.41,4.86,4.86,0,0,0-.53-2.36A4.06,4.06,0,0,0,131,64.77a3.87,3.87,0,0,0-2.14-.56,3.91,3.91,0,0,0-2.14.56,4.22,4.22,0,0,0-1.45,1.59,5.5,5.5,0,0,0-.52,2.36,5.2,5.2,0,0,0,.52,2.36,3.79,3.79,0,0,0,1.45,1.64A3.51,3.51,0,0,0,128.86,73.36Z"/><path class="cls-4" d="M140.6,77.48V60.05h4.6V77.52h-4.6Zm11,0v-10a3.47,3.47,0,0,0-.89-2.49,3,3,0,0,0-2.3-1,3.08,3.08,0,0,0-1.65.43,2.82,2.82,0,0,0-1.13,1.21,3.57,3.57,0,0,0-.41,1.8l-1.81-1a7.26,7.26,0,0,1,.85-3.56,6.12,6.12,0,0,1,2.29-2.41,6.27,6.27,0,0,1,3.35-.9,5.66,5.66,0,0,1,3.23.94,6.45,6.45,0,0,1,2.22,2.5,7.16,7.16,0,0,1,.81,3.3V77.48Z"/><path class="cls-4" d="M166.51,77.87a6.68,6.68,0,0,1-3.92-1.2,8.19,8.19,0,0,1-2.74-3.27,11.46,11.46,0,0,1,0-9.23,8.26,8.26,0,0,1,2.7-3.26,6.69,6.69,0,0,1,4-1.25,5.94,5.94,0,0,1,3.31.9A6.1,6.1,0,0,1,172,63a7.83,7.83,0,0,1,.85,3.43v4.81A8.37,8.37,0,0,1,172,74.6,5.67,5.67,0,0,1,169.9,77,6.46,6.46,0,0,1,166.51,77.87Zm1-4.6A3.63,3.63,0,0,0,170.46,72a4.89,4.89,0,0,0,1.09-3.31,5.73,5.73,0,0,0-.48-2.41,3.61,3.61,0,0,0-1.42-1.59,3.81,3.81,0,0,0-2.1-.55,3.75,3.75,0,0,0-2.05.55,3.83,3.83,0,0,0-1.41,1.64,5.46,5.46,0,0,0-.53,2.36,4.86,4.86,0,0,0,.53,2.36,3.75,3.75,0,0,0,1.41,1.63A3.52,3.52,0,0,0,167.55,73.27Zm3.76,4.21V72.8l.72-4.21-.72-4.25v-13h4.6V77.48Z"/><path class="cls-4" d="M186.72,77.87a7,7,0,0,1-4-1.2,8.39,8.39,0,0,1-2.83-3.27,10.76,10.76,0,0,1,0-9.27,8.35,8.35,0,0,1,2.83-3.27,7,7,0,0,1,4-1.2,6.29,6.29,0,0,1,3.11.77,6.37,6.37,0,0,1,2.22,2.06,6.28,6.28,0,0,1,.93,3V72a6.12,6.12,0,0,1-.93,3,5.58,5.58,0,0,1-2.22,2.06A5.64,5.64,0,0,1,186.72,77.87Zm.85-4.51a3.85,3.85,0,0,0,3-1.25,4.89,4.89,0,0,0,1.13-3.3,5,5,0,0,0-.52-2.36,3.9,3.9,0,0,0-1.41-1.64,4,4,0,0,0-2.14-.55,3.83,3.83,0,0,0-2.1.55,4.29,4.29,0,0,0-1.45,1.64,5.06,5.06,0,0,0-.52,2.36,5,5,0,0,0,.52,2.36,4.26,4.26,0,0,0,1.45,1.63A4.17,4.17,0,0,0,187.57,73.36Zm3.87,4.12V72.8l.73-4.21-.73-4.25V60.05H196V77.52h-4.56Z"/><path class="cls-4" d="M128.9,100.63a8.45,8.45,0,0,1-4.48-1.2,8.54,8.54,0,0,1-3.18-3.27,9.87,9.87,0,0,1,0-9.32,8.51,8.51,0,0,1,3.18-3.26,9,9,0,0,1,4.52-1.2,8.67,8.67,0,0,1,3.55.73,7.82,7.82,0,0,1,2.83,2.14l-2.95,3.18a4.43,4.43,0,0,0-1.49-1.16,4.53,4.53,0,0,0-1.9-.34,4.15,4.15,0,0,0-2.18.56,4,4,0,0,0-1.49,1.59,5.11,5.11,0,0,0-.52,2.4,5,5,0,0,0,.52,2.36,4.06,4.06,0,0,0,1.49,1.63,4.18,4.18,0,0,0,2.18.61,4.93,4.93,0,0,0,2-.39,3.76,3.76,0,0,0,1.53-1.2l2.95,3.17a9.31,9.31,0,0,1-2.87,2.19A8.3,8.3,0,0,1,128.9,100.63Z"/><path class="cls-4" d="M145.49,100.63a9,9,0,0,1-4.6-1.16,8,8,0,0,1-3.19-3.27,10.1,10.1,0,0,1,0-9.36,9.09,9.09,0,0,1,3.11-3.26,8.64,8.64,0,0,1,4.43-1.2,8,8,0,0,1,4.2,1.11,7.53,7.53,0,0,1,2.86,3.1,9.52,9.52,0,0,1,1.05,4.5,9,9,0,0,1-.08,1c0,.35-.12.73-.16,1.12H139.19V89.63l11.78,0L149,91.09a7.34,7.34,0,0,0-.49-2.57,3.44,3.44,0,0,0-1.29-1.59,4,4,0,0,0-2.1-.56,4,4,0,0,0-3.75,2.41,6.63,6.63,0,0,0-.52,2.66,6.31,6.31,0,0,0,.52,2.75A4,4,0,0,0,143,96a4.42,4.42,0,0,0,2.42.6,5.44,5.44,0,0,0,2.25-.43,4.44,4.44,0,0,0,1.74-1.33l2.66,2.83a7.2,7.2,0,0,1-2.86,2.28A8.94,8.94,0,0,1,145.49,100.63Z"/><path class="cls-4" d="M156.14,100.24V82.81h4.6v17.47h-4.6Zm4.6-9.62-1.82-1.33a9.5,9.5,0,0,1,1.86-5A5,5,0,0,1,165,82.42a4.79,4.79,0,0,1,2.14.43,4.94,4.94,0,0,1,1.7,1.33l-2.87,3.57a2,2,0,0,0-.85-.65,3.59,3.59,0,0,0-1.25-.21,3,3,0,0,0-2.22.9A3.86,3.86,0,0,0,160.74,90.62Z"/><path class="cls-4" d="M177.76,100.63a8.41,8.41,0,0,1-4.47-1.2,8.9,8.9,0,0,1-3.19-3.31,9.79,9.79,0,0,1,0-9.28,8.53,8.53,0,0,1,3.19-3.26,8.32,8.32,0,0,1,4.47-1.2,8.24,8.24,0,0,1,4.48,1.2,8.51,8.51,0,0,1,3.15,3.26,9.35,9.35,0,0,1,1.17,4.64,9.57,9.57,0,0,1-1.17,4.64,9,9,0,0,1-3.15,3.31A8.42,8.42,0,0,1,177.76,100.63Zm0-4.51a4.22,4.22,0,0,0,2.18-.6,3.78,3.78,0,0,0,1.46-1.63,5.73,5.73,0,0,0,.52-2.41,5,5,0,0,0-.52-2.36,4.16,4.16,0,0,0-1.46-1.59,4.35,4.35,0,0,0-4.27,0,4.16,4.16,0,0,0-1.46,1.59,5.5,5.5,0,0,0-.52,2.36,5.2,5.2,0,0,0,.52,2.36,3.67,3.67,0,0,0,1.46,1.63A3.4,3.4,0,0,0,177.76,96.12Z"/><path class="cls-5" d="M390,76a18,18,0,1,1,18,18A18,18,0,0,1,390,76Z"/><g class="cls-6"><path class="cls-4" d="M401.08,84.16l.79.75a9.52,9.52,0,0,0,12.43-.45,8.32,8.32,0,0,0,0-12.23A2.86,2.86,0,0,0,414,72l-2.21,2.09a3.56,3.56,0,0,1,.31.26,5.52,5.52,0,0,1,0,8.09,6.32,6.32,0,0,1-8.55,0c-.08-.08-.19-.19-.28-.3Z"/><path class="cls-4" d="M417.64,65a3.38,3.38,0,0,1-3.45,3.27V71a6.15,6.15,0,0,0,6.31-6Z"/><path class="cls-4" d="M407.37,76.48V73.54a5.9,5.9,0,0,1-6-5.7v-.08h-3.11v.08A8.94,8.94,0,0,0,407.37,76.48Z"/><path class="cls-4" d="M398.16,80l2.21-2.08a5.49,5.49,0,0,1,0-8.06s.06,0,.06-.05l-2.21-2.09s-.06,0-.06,0A8.35,8.35,0,0,0,398.16,80Z"/></g><path class="cls-7" d="M444,76a18,18,0,1,1,18,18A18,18,0,0,1,444,76Z"/><g class="cls-8"><path class="cls-4" d="M461.62,66.34a5.21,5.21,0,0,1,5.13,5.25H471A9.49,9.49,0,0,0,461.62,62Z"/><path class="cls-4" d="M461.62,70.82h-4.2V90h4.2Z"/><path class="cls-4" d="M466.08,74.34H453v4.31h13.08Z"/></g><path class="cls-9" d="M498,76a18,18,0,1,1,18,18A18,18,0,0,1,498,76Z"/><g class="cls-10"><path class="cls-4" d="M524.69,81a3.56,3.56,0,0,1-3.55,3.54V87.5A6.48,6.48,0,0,0,527.63,81Z"/><path class="cls-4" d="M522,67.43A3.56,3.56,0,0,1,525.56,71h2.94A6.48,6.48,0,0,0,522,64.5Z"/><path class="cls-4" d="M507.31,81a3.56,3.56,0,0,0,3.55,3.54V87.5A6.48,6.48,0,0,1,504.38,81Z"/><path class="cls-4" d="M510,67.43A3.56,3.56,0,0,0,506.44,71H503.5A6.48,6.48,0,0,1,510,64.5Z"/><path class="cls-4" d="M516,69.55A6.47,6.47,0,1,0,522.51,76,6.48,6.48,0,0,0,516,69.55ZM519.57,76A3.55,3.55,0,1,1,516,72.48,3.51,3.51,0,0,1,519.57,76Z"/></g><path class="cls-11" d="M552,76a18,18,0,1,1,18,18A18,18,0,0,1,552,76Z"/><g class="cls-12"><path class="cls-4" d="M558,76h3.69a7,7,0,0,1,7.14-6.92h.1V65.5h-.1A10.68,10.68,0,0,0,558,76Z"/><path class="cls-4" d="M570.71,86.5H572a10.51,10.51,0,0,0-.84-21h-.5v3.58c.17,0,.34,0,.5,0a6.93,6.93,0,1,1,0,13.85,2.85,2.85,0,0,1-.5,0V86.5Z"/><path class="cls-4" d="M562.53,82a7.06,7.06,0,0,0-.54-3.7h-4a3.87,3.87,0,0,1,0,5.62l.14.13,2.24,2.18.14.13a4.16,4.16,0,0,1,5.66-.1v-3.8A7.31,7.31,0,0,0,562.53,82Z"/></g><rect class="cls-1" x="782" y="46" width="124" height="53"/><path class="cls-13" d="M934.88,68.2a7.3,7.3,0,0,1-2.82-.54,6.92,6.92,0,0,1-3.72-3.84,7.56,7.56,0,0,1-.52-2.82,7.42,7.42,0,0,1,.52-2.8,6.84,6.84,0,0,1,1.48-2.3,7.41,7.41,0,0,1,8-1.54,7.28,7.28,0,0,1,2.2,1.52l-1.56,1.56a4.25,4.25,0,0,0-1.52-1.06,5.22,5.22,0,0,0-2.06-.38,4.87,4.87,0,0,0-1.9.36,4.45,4.45,0,0,0-1.5,1,4.75,4.75,0,0,0-1,1.58,6.17,6.17,0,0,0,0,4,5,5,0,0,0,1,1.6,4.54,4.54,0,0,0,1.5,1,4.87,4.87,0,0,0,1.9.36,5.5,5.5,0,0,0,2.16-.38,4.56,4.56,0,0,0,1.52-1.08l1.56,1.56a7,7,0,0,1-2.26,1.54A7.54,7.54,0,0,1,934.88,68.2Zm11.1,0a5,5,0,0,1-2.54-.66,5.2,5.2,0,0,1-1.82-1.82,5,5,0,0,1-.66-2.54,4.89,4.89,0,0,1,.66-2.52,5.09,5.09,0,0,1,1.82-1.78A4.9,4.9,0,0,1,946,58.2a5,5,0,0,1,2.56.66,4.86,4.86,0,0,1,1.8,1.8,4.81,4.81,0,0,1,.68,2.52,4.9,4.9,0,0,1-.68,2.54A4.89,4.89,0,0,1,946,68.2Zm0-2.12a2.8,2.8,0,0,0,1.44-.36,2.52,2.52,0,0,0,1-1,3.08,3.08,0,0,0,.36-1.5,3,3,0,0,0-.36-1.48,2.55,2.55,0,0,0-1-1,2.71,2.71,0,0,0-1.44-.38,2.82,2.82,0,0,0-1.44.38,2.62,2.62,0,0,0-1,1,3.2,3.2,0,0,0-.34,1.48,3.31,3.31,0,0,0,.34,1.5,2.73,2.73,0,0,0,1,1A2.9,2.9,0,0,0,946,66.08Zm12,2.12a4.05,4.05,0,0,1-2-.46,3.47,3.47,0,0,1-1.84-3.16V61.82a3.55,3.55,0,0,1,.5-1.86,3.49,3.49,0,0,1,1.36-1.28A3.9,3.9,0,0,1,958,58.2a4.19,4.19,0,0,1,2.34.68,4.58,4.58,0,0,1,1.66,1.8,5.19,5.19,0,0,1,.62,2.54,5.28,5.28,0,0,1-.62,2.54,4.59,4.59,0,0,1-1.66,1.78A4.26,4.26,0,0,1,958,68.2Zm-.36-2.08a2.68,2.68,0,0,0,1.4-.36,2.61,2.61,0,0,0,1-1,3.39,3.39,0,0,0,0-3,2.49,2.49,0,0,0-1-1,2.6,2.6,0,0,0-1.4-.38,2.69,2.69,0,0,0-1.42.38,2.49,2.49,0,0,0-1,1,3.57,3.57,0,0,0,0,3,2.61,2.61,0,0,0,1,1A2.78,2.78,0,0,0,957.63,66.12ZM952.85,72V58.4h2.2V61l-.38,2.34.38,2.32V72Zm14.37-3.9-4.1-9.7h2.42l2.8,7.12h-.7l3-7.12H973l-4.46,9.7ZM964.36,72l3-6.14,1.24,2.24L966.8,72Zm9.88-4V58.4h2.2V68Zm2.2-5.34-.76-.38a4.92,4.92,0,0,1,.8-2.94,2.82,2.82,0,0,1,2.46-1.14,3.21,3.21,0,0,1,1.3.26,3.18,3.18,0,0,1,1.08.84l-1.44,1.48a1.56,1.56,0,0,0-.58-.4,2.13,2.13,0,0,0-.74-.12,2.07,2.07,0,0,0-1.52.58A2.43,2.43,0,0,0,976.44,62.66Zm6,5.34V58.4h2.2V68Zm1.1-11.36a1.32,1.32,0,1,1,0-2.64,1.24,1.24,0,0,1,.94.38,1.41,1.41,0,0,1,0,1.88A1.24,1.24,0,0,1,983.5,56.64Zm7.57,15.56a6,6,0,0,1-2.66-.56,4.61,4.61,0,0,1-1.84-1.54L988,68.66a3.94,3.94,0,0,0,1.32,1.08,4,4,0,0,0,1.78.36,3,3,0,0,0,2.06-.68,2.28,2.28,0,0,0,.76-1.82V65.24l.38-2.12L993.93,61V58.4h2.2v9.2a4.34,4.34,0,0,1-2.42,4A5.7,5.7,0,0,1,991.07,72.2Zm-.1-4.4a4.48,4.48,0,0,1-2.32-.62A4.68,4.68,0,0,1,987,65.44a5.13,5.13,0,0,1-.58-2.46,5,5,0,0,1,.58-2.44,4.49,4.49,0,0,1,1.62-1.7A4.31,4.31,0,0,1,991,58.2a4.13,4.13,0,0,1,2,.46,3.37,3.37,0,0,1,1.34,1.28,3.58,3.58,0,0,1,.48,1.88v2.36a3.57,3.57,0,0,1-.5,1.88A3.37,3.37,0,0,1,993,67.34,4.08,4.08,0,0,1,991,67.8Zm.44-2.08a2.77,2.77,0,0,0,1.4-.34,2.31,2.31,0,0,0,.92-.94,2.89,2.89,0,0,0,.34-1.44,2.79,2.79,0,0,0-.34-1.42,2.3,2.3,0,0,0-.92-1,2.77,2.77,0,0,0-1.4-.34,2.87,2.87,0,0,0-1.42.34,2.48,2.48,0,0,0-.94,1,2.79,2.79,0,0,0-.34,1.42,2.87,2.87,0,0,0,.34,1.42,2.48,2.48,0,0,0,.94,1A2.87,2.87,0,0,0,991.41,65.72ZM1005.15,68V62.46a2.11,2.11,0,0,0-.62-1.58,2.09,2.09,0,0,0-1.56-.62,2.29,2.29,0,0,0-1.14.28,2.09,2.09,0,0,0-.78.78,2.35,2.35,0,0,0-.28,1.14l-.86-.48a3.85,3.85,0,0,1,.48-1.94,3.47,3.47,0,0,1,1.32-1.34,4,4,0,0,1,3.84,0,3.47,3.47,0,0,1,1.32,1.34,3.87,3.87,0,0,1,.48,2v6Zm-6.58,0V53.6h2.2V68Zm12.36,0V54.4h2.2V68Zm-2.3-7.6v-2h6.8v2Zm19.44,7.8a7.53,7.53,0,0,1-2.88-.54,6.87,6.87,0,0,1-3.74-3.84,7.83,7.83,0,0,1-.52-2.84,7.68,7.68,0,0,1,.52-2.82,7.13,7.13,0,0,1,1.46-2.28,6.87,6.87,0,0,1,2.26-1.52,7.4,7.4,0,0,1,2.86-.54,7.22,7.22,0,0,1,2.88.56,6.8,6.8,0,0,1,3.74,3.8,7.48,7.48,0,0,1,.52,2.82,7.62,7.62,0,0,1-.52,2.84,7,7,0,0,1-3.72,3.82A7.36,7.36,0,0,1,1028.07,68.2Zm0-.88a6.16,6.16,0,0,0,3.24-.84,5.83,5.83,0,0,0,2.18-2.28,6.44,6.44,0,0,0,.8-3.22,6.31,6.31,0,0,0-.8-3.18,5.84,5.84,0,0,0-2.18-2.26,6.63,6.63,0,0,0-6.46,0,5.79,5.79,0,0,0-2.18,2.24,6.54,6.54,0,0,0-.78,3.2,6.64,6.64,0,0,0,.78,3.22,5.94,5.94,0,0,0,5.4,3.12Zm.24-2.3a4.25,4.25,0,0,1-2.1-.52,4.11,4.11,0,0,1-1.46-1.44,4,4,0,0,1-.54-2.06,3.89,3.89,0,0,1,.54-2,3.93,3.93,0,0,1,1.48-1.44,4.16,4.16,0,0,1,2.1-.54,4,4,0,0,1,1.66.34,3.45,3.45,0,0,1,1.34,1l-1.28,1.3a1.91,1.91,0,0,0-.76-.56,2.49,2.49,0,0,0-1-.18,2.07,2.07,0,0,0-1.08.28,1.92,1.92,0,0,0-.76.76,2.34,2.34,0,0,0-.26,1.12,2.46,2.46,0,0,0,.26,1.14,2.13,2.13,0,0,0,.76.76,2.27,2.27,0,0,0,1.08.26,2.35,2.35,0,0,0,1-.2,2,2,0,0,0,.72-.56l1.28,1.3a3.63,3.63,0,0,1-1.36,1A4,4,0,0,1,1028.27,65Zm19,3.18a5.63,5.63,0,0,1-2.84-.72,5.45,5.45,0,0,1-2-2,5.63,5.63,0,0,1-.72-2.84V54h2.3v8.66a3.63,3.63,0,0,0,.42,1.78,3.28,3.28,0,0,0,1.18,1.16,3.42,3.42,0,0,0,1.66.4,3.32,3.32,0,0,0,1.66-.4,3.1,3.1,0,0,0,1.14-1.16,3.58,3.58,0,0,0,.42-1.76V54h2.3v8.7a5.53,5.53,0,0,1-.72,2.82,5.27,5.27,0,0,1-2,2A5.53,5.53,0,0,1,1047.22,68.2Zm14.69-.2V62.46a2.15,2.15,0,0,0-.62-1.58,2.09,2.09,0,0,0-1.56-.62,2.24,2.24,0,0,0-1.14.28,2.09,2.09,0,0,0-.78.78,2.24,2.24,0,0,0-.28,1.14l-.86-.48a3.85,3.85,0,0,1,.48-1.94,3.47,3.47,0,0,1,1.32-1.34,3.77,3.77,0,0,1,1.92-.5,3.41,3.41,0,0,1,1.92.56,3.83,3.83,0,0,1,1.32,1.42,3.62,3.62,0,0,1,.48,1.8v6Zm-6.58,0V58.4h2.2V68Zm11,0V58.4h2.2V68Zm1.1-11.36a1.27,1.27,0,0,1-.94-.38,1.41,1.41,0,0,1,0-1.88,1.27,1.27,0,0,1,.94-.38,1.26,1.26,0,0,1,.94.38,1.41,1.41,0,0,1,0,1.88A1.26,1.26,0,0,1,1067.47,56.64Zm8.7,11.56a4.08,4.08,0,0,1-2-.46,3.69,3.69,0,0,1-1.36-1.3,3.63,3.63,0,0,1-.48-1.86V61.82a3.47,3.47,0,0,1,1.86-3.14,3.93,3.93,0,0,1,1.94-.48,4.19,4.19,0,0,1,2.34.68,4.58,4.58,0,0,1,1.66,1.8,5.08,5.08,0,0,1,.62,2.54,5.16,5.16,0,0,1-.62,2.54,4.59,4.59,0,0,1-1.66,1.78A4.26,4.26,0,0,1,1076.17,68.2Zm-.36-2.08a2.65,2.65,0,0,0,1.4-.36,2.47,2.47,0,0,0,1-1,3.39,3.39,0,0,0,0-3,2.37,2.37,0,0,0-1-1,2.57,2.57,0,0,0-1.4-.38,2.72,2.72,0,0,0-1.42.38,2.49,2.49,0,0,0-1,1,3.57,3.57,0,0,0,0,3,2.61,2.61,0,0,0,1,1A2.8,2.8,0,0,0,1075.81,66.12ZM1071,72V58.4h2.2V61l-.38,2.34.38,2.32V72Zm11.61-4V58.4h2.2V68Zm2.2-5.34-.76-.38a4.92,4.92,0,0,1,.8-2.94,2.82,2.82,0,0,1,2.46-1.14,3.21,3.21,0,0,1,1.3.26,3.18,3.18,0,0,1,1.08.84l-1.44,1.48a1.56,1.56,0,0,0-.58-.4,2.13,2.13,0,0,0-.74-.12,2.07,2.07,0,0,0-1.52.58A2.43,2.43,0,0,0,1084.84,62.66ZM1095,68.2a5.25,5.25,0,0,1-2.6-.64,4.89,4.89,0,0,1-2.48-4.36,4.9,4.9,0,0,1,5-5,4.49,4.49,0,0,1,2.36.62,4.35,4.35,0,0,1,1.62,1.7,5,5,0,0,1,.6,2.46,4.38,4.38,0,0,1,0,.5c0,.16,0,.34-.08.54h-7.88v-1.8h6.74l-.82.72a3.71,3.71,0,0,0-.34-1.48,2.13,2.13,0,0,0-.86-.92,2.63,2.63,0,0,0-1.34-.32,2.85,2.85,0,0,0-1.46.36,2.37,2.37,0,0,0-1,1,3.21,3.21,0,0,0-.34,1.54,3.32,3.32,0,0,0,.36,1.58,2.6,2.6,0,0,0,1,1.06,3.11,3.11,0,0,0,1.52.36,3.58,3.58,0,0,0,1.36-.26,3,3,0,0,0,1.08-.76l1.4,1.42a4.53,4.53,0,0,1-1.7,1.24A5.45,5.45,0,0,1,1095,68.2Zm12-.2-2.76-4.06-.4-.36-3.72-5.18h2.66l2.46,3.56.38.34,4,5.7Zm-7.06,0,3.88-5.38,1.28,1.58-2.6,3.8Zm5.88-4.46L1104.5,62l2.4-3.58h2.54Zm5.27,6.8,1.36-2.54.74-.2a1.5,1.5,0,0,1-.28.4.49.49,0,0,1-.38.16,1.26,1.26,0,0,1-.86-.38,1.41,1.41,0,0,1-.38-1,1.49,1.49,0,0,1,.42-1.08,1.44,1.44,0,0,1,1.08-.46,1.38,1.38,0,0,1,1,.46,1.41,1.41,0,0,1,.46,1.08,2,2,0,0,1-.12.62,4.45,4.45,0,0,1-.38.88L1112.29,71Zm13.73-2.14a6.12,6.12,0,0,1-2.82-.6,6.59,6.59,0,0,1-2.08-1.76l1.56-1.56a4.55,4.55,0,0,0,1.38,1.32,4.05,4.05,0,0,0,2,.46,3.12,3.12,0,0,0,1.84-.48,1.51,1.51,0,0,0,.7-1.32,1.73,1.73,0,0,0-.36-1.14,2.76,2.76,0,0,0-1-.72,7.82,7.82,0,0,0-1.3-.52c-.46-.16-.94-.33-1.42-.52a6.93,6.93,0,0,1-1.3-.74,3.31,3.31,0,0,1-.94-1.14,3.89,3.89,0,0,1-.36-1.78,3.56,3.56,0,0,1,.6-2.1,4,4,0,0,1,1.66-1.34,5.65,5.65,0,0,1,2.32-.46,5.43,5.43,0,0,1,2.46.54,5.09,5.09,0,0,1,1.78,1.38L1128,57.28a4.08,4.08,0,0,0-1.26-1,3.05,3.05,0,0,0-1.48-.34,2.82,2.82,0,0,0-1.64.42,1.38,1.38,0,0,0-.58,1.18,1.5,1.5,0,0,0,.36,1,3.41,3.41,0,0,0,.94.66c.4.17.84.34,1.3.5s1,.34,1.42.54a5,5,0,0,1,1.3.78,3.36,3.36,0,0,1,1,1.2,4.22,4.22,0,0,1,.36,1.86,3.63,3.63,0,0,1-1.34,3A5.43,5.43,0,0,1,1124.8,68.2Zm8.6,0a1.43,1.43,0,0,1-1.06-.42,1.51,1.51,0,0,1-.4-1.06,1.46,1.46,0,0,1,.4-1.06,1.43,1.43,0,0,1,1.06-.42,1.39,1.39,0,0,1,1,.42,1.43,1.43,0,0,1,.42,1.06,1.48,1.48,0,0,1-.42,1.06A1.39,1.39,0,0,1,1133.4,68.2Zm3.38-.2,5.76-14h1.6l5.72,14h-2.48l-4.48-11.34h.84L1139.22,68Zm2.84-2.7v-2H1147v2Zm13.62,2.9a1.45,1.45,0,0,1-1.06-.42,1.55,1.55,0,0,1-.4-1.06,1.5,1.5,0,0,1,.4-1.06,1.45,1.45,0,0,1,1.06-.42,1.36,1.36,0,0,1,1,.42,1.43,1.43,0,0,1,.42,1.06,1.48,1.48,0,0,1-.42,1.06A1.36,1.36,0,0,1,1153.24,68.2Zm9.82,0a5.63,5.63,0,0,1-2.84-.72,5.45,5.45,0,0,1-2-2,5.63,5.63,0,0,1-.72-2.84V54h2.3v8.66a3.63,3.63,0,0,0,.42,1.78,3.28,3.28,0,0,0,1.18,1.16,3.42,3.42,0,0,0,1.66.4,3.32,3.32,0,0,0,1.66-.4,3.1,3.1,0,0,0,1.14-1.16,3.58,3.58,0,0,0,.42-1.76V54h2.3v8.7a5.53,5.53,0,0,1-.72,2.82,5.27,5.27,0,0,1-2,2A5.53,5.53,0,0,1,1163.06,68.2Zm9.79,0a1.43,1.43,0,0,1-1.06-.42,1.51,1.51,0,0,1-.4-1.06,1.46,1.46,0,0,1,.4-1.06,1.43,1.43,0,0,1,1.06-.42,1.37,1.37,0,0,1,1,.42,1.43,1.43,0,0,1,.42,1.06,1.48,1.48,0,0,1-.42,1.06A1.37,1.37,0,0,1,1172.85,68.2Zm4.12,2.14,1.36-2.54.74-.2a1.5,1.5,0,0,1-.28.4.49.49,0,0,1-.38.16,1.26,1.26,0,0,1-.86-.38,1.41,1.41,0,0,1-.38-1,1.49,1.49,0,0,1,.42-1.08,1.44,1.44,0,0,1,1.08-.46,1.38,1.38,0,0,1,1,.46,1.41,1.41,0,0,1,.46,1.08,2,2,0,0,1-.12.62,4.45,4.45,0,0,1-.38.88L1178.19,71Zm16.19-2.14a7.3,7.3,0,0,1-2.82-.54,6.92,6.92,0,0,1-3.72-3.84,7.76,7.76,0,0,1-.52-2.82,7.62,7.62,0,0,1,.52-2.8,6.84,6.84,0,0,1,1.48-2.3,7.41,7.41,0,0,1,8-1.54,7.28,7.28,0,0,1,2.2,1.52l-1.56,1.56a4.25,4.25,0,0,0-1.52-1.06,5.19,5.19,0,0,0-2.06-.38,4.91,4.91,0,0,0-1.9.36,4.45,4.45,0,0,0-1.5,1,4.75,4.75,0,0,0-1,1.58,6.17,6.17,0,0,0,0,4,5,5,0,0,0,1,1.6,4.54,4.54,0,0,0,1.5,1,4.91,4.91,0,0,0,1.9.36,5.46,5.46,0,0,0,2.16-.38,4.56,4.56,0,0,0,1.52-1.08l1.56,1.56a7,7,0,0,1-2.26,1.54A7.51,7.51,0,0,1,1193.16,68.2Zm6,.6,5.6-15.6h2.06l-5.6,15.6Zm13.37-.8V54h2.3V68Zm1.58-6V59.9h7.12V62Zm0-5.9V54h7.46v2.1Zm13.38,12.1a4.38,4.38,0,0,1-2.18-.54,4,4,0,0,1-1.48-1.48,4.61,4.61,0,0,1-.52-2.2V58.4h2.2v5.48a3.06,3.06,0,0,0,.22,1.2,1.74,1.74,0,0,0,.68.74,2.21,2.21,0,0,0,1.08.26,1.86,1.86,0,0,0,1.46-.56,2.36,2.36,0,0,0,.52-1.64V58.4h2.2V64a4.45,4.45,0,0,1-.54,2.22,3.71,3.71,0,0,1-1.46,1.48A4.37,4.37,0,0,1,1227.45,68.2Zm10.86,0a5.25,5.25,0,0,1-2.6-.64,4.89,4.89,0,0,1-2.48-4.36,4.9,4.9,0,0,1,5-5,4.49,4.49,0,0,1,2.36.62,4.35,4.35,0,0,1,1.62,1.7,5,5,0,0,1,.6,2.46,4.38,4.38,0,0,1,0,.5c0,.16,0,.34-.08.54h-7.88v-1.8h6.74l-.82.72a3.71,3.71,0,0,0-.34-1.48,2.13,2.13,0,0,0-.86-.92,2.63,2.63,0,0,0-1.34-.32,2.85,2.85,0,0,0-1.46.36,2.37,2.37,0,0,0-1,1,3.21,3.21,0,0,0-.34,1.54,3.32,3.32,0,0,0,.36,1.58,2.6,2.6,0,0,0,1,1.06,3.11,3.11,0,0,0,1.52.36,3.58,3.58,0,0,0,1.36-.26,3,3,0,0,0,1.08-.76l1.4,1.42a4.53,4.53,0,0,1-1.7,1.24A5.45,5.45,0,0,1,1238.31,68.2Zm6.22-.2V58.4h2.2V68Zm2.2-5.34-.76-.38a5,5,0,0,1,.8-2.94,2.84,2.84,0,0,1,2.46-1.14,3.21,3.21,0,0,1,1.3.26,3,3,0,0,1,1.08.84l-1.44,1.48a1.48,1.48,0,0,0-.58-.4,2.3,2.3,0,0,0-2.26.46A2.43,2.43,0,0,0,1246.73,62.66Zm7.42,5.34V54.4h2.2V68Zm-2.3-7.6v-2h6.8v2Zm12.59,7.8a5.25,5.25,0,0,1-2.6-.64,4.89,4.89,0,0,1-2.48-4.36,4.9,4.9,0,0,1,5-5,4.49,4.49,0,0,1,2.36.62,4.35,4.35,0,0,1,1.62,1.7,5,5,0,0,1,.6,2.46,2.89,2.89,0,0,1,0,.5,4.16,4.16,0,0,1-.08.54h-7.88v-1.8h6.74l-.82.72a3.71,3.71,0,0,0-.34-1.48,2.13,2.13,0,0,0-.86-.92,2.63,2.63,0,0,0-1.34-.32,2.85,2.85,0,0,0-1.46.36,2.49,2.49,0,0,0-1,1,3.21,3.21,0,0,0-.34,1.54,3.32,3.32,0,0,0,.36,1.58,2.6,2.6,0,0,0,1,1.06,3.13,3.13,0,0,0,1.52.36,3.54,3.54,0,0,0,1.36-.26,2.79,2.79,0,0,0,1.08-.76l1.4,1.42a4.46,4.46,0,0,1-1.7,1.24A5.42,5.42,0,0,1,1264.44,68.2Zm9.31-.2-4.38-9.6h2.44l3.34,7.82h-1.44l3.36-7.82h2.34L1275,68Zm11.08.2a5.25,5.25,0,0,1-2.6-.64,4.89,4.89,0,0,1-2.48-4.36,4.9,4.9,0,0,1,5-5,4.49,4.49,0,0,1,2.36.62,4.35,4.35,0,0,1,1.62,1.7,5,5,0,0,1,.6,2.46,2.89,2.89,0,0,1,0,.5,4.16,4.16,0,0,1-.08.54h-7.88v-1.8H1288l-.82.72a3.71,3.71,0,0,0-.34-1.48,2.13,2.13,0,0,0-.86-.92,2.63,2.63,0,0,0-1.34-.32,2.85,2.85,0,0,0-1.46.36,2.49,2.49,0,0,0-1,1,3.21,3.21,0,0,0-.34,1.54,3.32,3.32,0,0,0,.36,1.58,2.6,2.6,0,0,0,1,1.06,3.13,3.13,0,0,0,1.52.36,3.54,3.54,0,0,0,1.36-.26,2.79,2.79,0,0,0,1.08-.76l1.4,1.42a4.46,4.46,0,0,1-1.7,1.24A5.42,5.42,0,0,1,1284.83,68.2Zm12.8-.2V62.46a2.11,2.11,0,0,0-.62-1.58,2.09,2.09,0,0,0-1.56-.62,2.29,2.29,0,0,0-1.14.28,2.09,2.09,0,0,0-.78.78,2.35,2.35,0,0,0-.28,1.14l-.86-.48a3.85,3.85,0,0,1,.48-1.94,3.47,3.47,0,0,1,1.32-1.34,3.82,3.82,0,0,1,1.92-.5,3.41,3.41,0,0,1,1.92.56,3.83,3.83,0,0,1,1.32,1.42,3.62,3.62,0,0,1,.48,1.8v6Zm-6.58,0V58.4h2.2V68Zm12.36,0V54.4h2.2V68Zm-2.3-7.6v-2h6.8v2Zm12.34,7.8a4.38,4.38,0,0,1-2.18-.54,3.9,3.9,0,0,1-1.48-1.48,4.5,4.5,0,0,1-.52-2.2V58.4h2.2v5.48a2.89,2.89,0,0,0,.22,1.2,1.74,1.74,0,0,0,.68.74,2.21,2.21,0,0,0,1.08.26,1.86,1.86,0,0,0,1.46-.56,2.36,2.36,0,0,0,.52-1.64V58.4h2.2V64a4.45,4.45,0,0,1-.54,2.22,3.78,3.78,0,0,1-1.46,1.48A4.39,4.39,0,0,1,1313.45,68.2Zm6.39-.2V58.4h2.2V68Zm2.2-5.34-.76-.38a5,5,0,0,1,.8-2.94,2.84,2.84,0,0,1,2.46-1.14,3.18,3.18,0,0,1,1.3.26,3,3,0,0,1,1.08.84l-1.44,1.48a1.41,1.41,0,0,0-.58-.4,2.3,2.3,0,0,0-2.26.46A2.43,2.43,0,0,0,1322,62.66Zm9.67,5.54a4.4,4.4,0,0,1-2.36-.66,4.91,4.91,0,0,1-1.66-1.78,5.38,5.38,0,0,1-.6-2.54,5.29,5.29,0,0,1,.6-2.54,4.89,4.89,0,0,1,1.66-1.8,4.33,4.33,0,0,1,2.36-.68,3.82,3.82,0,0,1,1.94.48,3.47,3.47,0,0,1,1.86,3.14v2.76a3.46,3.46,0,0,1-.5,1.86,3.42,3.42,0,0,1-1.34,1.3A4,4,0,0,1,1331.71,68.2Zm.36-2.08a2.49,2.49,0,0,0,2-.82,3,3,0,0,0,.76-2.1,3.24,3.24,0,0,0-.34-1.52,2.37,2.37,0,0,0-1-1,2.62,2.62,0,0,0-1.42-.38,2.72,2.72,0,0,0-1.42.38,2.63,2.63,0,0,0-1,1,3.57,3.57,0,0,0,0,3,2.75,2.75,0,0,0,1,1A2.8,2.8,0,0,0,1332.07,66.12Zm2.58,1.88V65.42l.38-2.34-.38-2.32V58.4h2.2V68Zm10.75,0V54h2.26V68Zm-2.8-11.94V54h4.86v2.06Zm7.15,10.58,5.16-5.48a13.44,13.44,0,0,0,1-1.22,4.15,4.15,0,0,0,.58-1,2.78,2.78,0,0,0,.18-1,1.81,1.81,0,0,0-.62-1.46,2.21,2.21,0,0,0-1.54-.54,3.16,3.16,0,0,0-1.76.5,4.33,4.33,0,0,0-1.36,1.56l-1.6-1.32a5.81,5.81,0,0,1,2-2.14,5.23,5.23,0,0,1,2.78-.74,4.74,4.74,0,0,1,2.28.52,3.75,3.75,0,0,1,1.52,1.46,4.15,4.15,0,0,1,.54,2.14,5.16,5.16,0,0,1-.22,1.58,4.73,4.73,0,0,1-.7,1.38,16,16,0,0,1-1.38,1.6l-4,4.1Zm0,1.36V66.64l2-.7h7.52V68ZM932.42,98.2a6.12,6.12,0,0,1-2.82-.6,6.59,6.59,0,0,1-2.08-1.76l1.56-1.56a4.55,4.55,0,0,0,1.38,1.32,4,4,0,0,0,2,.46,3.12,3.12,0,0,0,1.84-.48,1.51,1.51,0,0,0,.7-1.32,1.73,1.73,0,0,0-.36-1.14,2.76,2.76,0,0,0-1-.72,7.82,7.82,0,0,0-1.3-.52c-.46-.16-.94-.33-1.42-.52a6.63,6.63,0,0,1-1.3-.74,3.31,3.31,0,0,1-.94-1.14,3.89,3.89,0,0,1-.36-1.78,3.56,3.56,0,0,1,.6-2.1,3.93,3.93,0,0,1,1.66-1.34A5.62,5.62,0,0,1,933,83.8a5.43,5.43,0,0,1,2.46.54,5.19,5.19,0,0,1,1.78,1.38l-1.56,1.56a4.08,4.08,0,0,0-1.26-1,3.08,3.08,0,0,0-1.48-.34,2.82,2.82,0,0,0-1.64.42,1.38,1.38,0,0,0-.58,1.18,1.5,1.5,0,0,0,.36,1,3.26,3.26,0,0,0,.94.66c.4.17.84.34,1.3.5s1,.34,1.42.54a5,5,0,0,1,1.3.78,3.36,3.36,0,0,1,1,1.2,4.22,4.22,0,0,1,.36,1.86,3.63,3.63,0,0,1-1.34,3A5.43,5.43,0,0,1,932.42,98.2Zm10.82,0a4.37,4.37,0,0,1-2.36-.66,4.74,4.74,0,0,1-1.66-1.78,5.38,5.38,0,0,1-.6-2.54,5.29,5.29,0,0,1,.6-2.54,4.73,4.73,0,0,1,1.66-1.8,4.31,4.31,0,0,1,2.36-.68,3.85,3.85,0,0,1,1.94.48A3.49,3.49,0,0,1,946.54,90a3.55,3.55,0,0,1,.5,1.86v2.76a3.55,3.55,0,0,1-.5,1.86,3.49,3.49,0,0,1-1.34,1.3A4.05,4.05,0,0,1,943.24,98.2Zm.36-2.08a2.5,2.5,0,0,0,2-.82,3,3,0,0,0,.76-2.1,3.24,3.24,0,0,0-.34-1.52,2.49,2.49,0,0,0-1-1,2.62,2.62,0,0,0-1.42-.38,2.69,2.69,0,0,0-1.42.38,2.63,2.63,0,0,0-1,1,3.57,3.57,0,0,0,0,3,2.53,2.53,0,0,0,2.38,1.4ZM946.18,98V95.42l.38-2.34-.38-2.32V88.4h2.2V98Zm11.22,0V92.46a2.15,2.15,0,0,0-.62-1.58,2.09,2.09,0,0,0-1.56-.62,2.24,2.24,0,0,0-1.14.28,2.09,2.09,0,0,0-.78.78,2.24,2.24,0,0,0-.28,1.14l-.86-.48a3.85,3.85,0,0,1,.48-1.94A3.47,3.47,0,0,1,954,88.7a3.77,3.77,0,0,1,1.92-.5,3.41,3.41,0,0,1,1.92.56,3.83,3.83,0,0,1,1.32,1.42,3.62,3.62,0,0,1,.48,1.8v6Zm-6.58,0V88.4H953V98Zm19.22.2a6.06,6.06,0,0,1-2.82-.6,6.48,6.48,0,0,1-2.08-1.76l1.56-1.56a4.55,4.55,0,0,0,1.38,1.32,4,4,0,0,0,2,.46,3.14,3.14,0,0,0,1.84-.48,1.51,1.51,0,0,0,.7-1.32,1.73,1.73,0,0,0-.36-1.14,2.76,2.76,0,0,0-1-.72,8.19,8.19,0,0,0-1.3-.52c-.47-.16-.94-.33-1.42-.52a6.63,6.63,0,0,1-1.3-.74,3.2,3.2,0,0,1-.94-1.14A3.89,3.89,0,0,1,966,87.7a3.56,3.56,0,0,1,.6-2.1,3.93,3.93,0,0,1,1.66-1.34,5.62,5.62,0,0,1,2.32-.46,5.43,5.43,0,0,1,2.46.54,5.19,5.19,0,0,1,1.78,1.38l-1.56,1.56a4.08,4.08,0,0,0-1.26-1,3.08,3.08,0,0,0-1.48-.34,2.82,2.82,0,0,0-1.64.42,1.36,1.36,0,0,0-.58,1.18,1.5,1.5,0,0,0,.36,1,3.26,3.26,0,0,0,.94.66c.4.17.83.34,1.3.5s1,.34,1.42.54a5.16,5.16,0,0,1,1.3.78,3.36,3.36,0,0,1,1,1.2,4.22,4.22,0,0,1,.36,1.86,3.66,3.66,0,0,1-1.34,3A5.43,5.43,0,0,1,970,98.2Zm11.25,0a5.24,5.24,0,0,1-2.59-.64,4.89,4.89,0,0,1-2.48-4.36,4.81,4.81,0,0,1,.66-2.54,4.86,4.86,0,0,1,4.29-2.46,4.47,4.47,0,0,1,2.36.62,4.3,4.3,0,0,1,1.63,1.7,5.09,5.09,0,0,1,.6,2.46,4.38,4.38,0,0,1,0,.5c0,.16-.05.34-.08.54h-7.88v-1.8h6.73l-.82.72a3.72,3.72,0,0,0-.33-1.48,2.09,2.09,0,0,0-.87-.92,2.59,2.59,0,0,0-1.33-.32,2.91,2.91,0,0,0-1.47.36,2.4,2.4,0,0,0-.95,1,3.21,3.21,0,0,0-.34,1.54,3.32,3.32,0,0,0,.35,1.58,2.63,2.63,0,0,0,1,1.06,3.11,3.11,0,0,0,1.52.36,3.58,3.58,0,0,0,1.36-.26,3,3,0,0,0,1.08-.76l1.39,1.42a4.38,4.38,0,0,1-1.7,1.24A5.38,5.38,0,0,1,981.29,98.2Zm11.37,0a4,4,0,0,1-2-.46,3.47,3.47,0,0,1-1.84-3.16V91.82a3.55,3.55,0,0,1,.5-1.86,3.49,3.49,0,0,1,1.36-1.28,3.9,3.9,0,0,1,1.94-.48,4.22,4.22,0,0,1,2.34.68,4.58,4.58,0,0,1,1.66,1.8,5.19,5.19,0,0,1,.62,2.54,5.28,5.28,0,0,1-.62,2.54A4.59,4.59,0,0,1,995,97.54,4.28,4.28,0,0,1,992.66,98.2Zm-.36-2.08a2.68,2.68,0,0,0,1.4-.36,2.61,2.61,0,0,0,1-1,3.39,3.39,0,0,0,0-3,2.49,2.49,0,0,0-1-1,2.6,2.6,0,0,0-1.4-.38,2.69,2.69,0,0,0-1.42.38,2.49,2.49,0,0,0-1,1,3.57,3.57,0,0,0,0,3,2.61,2.61,0,0,0,1,1A2.78,2.78,0,0,0,992.3,96.12ZM987.52,98V83.6h2.2v7.16l-.38,2.32.38,2.34V98Zm15.62.2a4.37,4.37,0,0,1-2.36-.66,4.82,4.82,0,0,1-1.66-1.78,5.38,5.38,0,0,1-.6-2.54,5.29,5.29,0,0,1,.6-2.54,4.81,4.81,0,0,1,1.66-1.8,4.31,4.31,0,0,1,2.36-.68,3.85,3.85,0,0,1,1.94.48,3.49,3.49,0,0,1,1.36,1.28,3.55,3.55,0,0,1,.5,1.86v2.76a3.55,3.55,0,0,1-.5,1.86,3.49,3.49,0,0,1-1.34,1.3A4.05,4.05,0,0,1,1003.14,98.2Zm.36-2.08a2.5,2.5,0,0,0,2-.82,3,3,0,0,0,.76-2.1,3.24,3.24,0,0,0-.34-1.52,2.49,2.49,0,0,0-1-1,2.62,2.62,0,0,0-1.42-.38,2.69,2.69,0,0,0-1.42.38,2.63,2.63,0,0,0-1,1,3.57,3.57,0,0,0,0,3,2.53,2.53,0,0,0,2.38,1.4Zm2.58,1.88V95.42l.38-2.34-.38-2.32V88.4h2.2V98Zm7.78.2a6.08,6.08,0,0,1-1.54-.2,6.17,6.17,0,0,1-1.36-.6,5,5,0,0,1-1.08-1l1.4-1.4a3.5,3.5,0,0,0,1.14.88,3.72,3.72,0,0,0,1.48.28A2.22,2.22,0,0,0,1015,96a.69.69,0,0,0,.38-.64.77.77,0,0,0-.36-.68,3.32,3.32,0,0,0-.94-.4l-1.2-.36a6.83,6.83,0,0,1-1.2-.48,2.7,2.7,0,0,1-.92-.86,2.49,2.49,0,0,1-.36-1.4,2.67,2.67,0,0,1,1.64-2.6,5.18,5.18,0,0,1,3.94.06,3.69,3.69,0,0,1,1.5,1.22l-1.4,1.4a2.72,2.72,0,0,0-1-.78,2.86,2.86,0,0,0-1.24-.26,2.17,2.17,0,0,0-1,.2.63.63,0,0,0-.36.58.69.69,0,0,0,.36.62,3.81,3.81,0,0,0,.92.38l1.2.36a4.59,4.59,0,0,1,1.2.52,2.56,2.56,0,0,1,.94.88,2.51,2.51,0,0,1,.36,1.42,2.73,2.73,0,0,1-1,2.22A4,4,0,0,1,1013.86,98.2Zm6.92-.2V84.4h2.2V98Zm-2.3-7.6v-2h6.8v2Zm8.41,7.6V88.4h2.2V98Zm1.1-11.36a1.32,1.32,0,1,1,0-2.64,1.24,1.24,0,0,1,.94.38,1.41,1.41,0,0,1,0,1.88A1.24,1.24,0,0,1,1028,86.64Zm7.59,11.56a4.4,4.4,0,0,1-2.36-.66,4.91,4.91,0,0,1-1.66-1.78,5.38,5.38,0,0,1-.6-2.54,5.29,5.29,0,0,1,.6-2.54,4.89,4.89,0,0,1,1.66-1.8,4.33,4.33,0,0,1,2.36-.68,3.82,3.82,0,0,1,1.94.48,3.47,3.47,0,0,1,1.86,3.14v2.76a3.46,3.46,0,0,1-.5,1.86,3.42,3.42,0,0,1-1.34,1.3A4,4,0,0,1,1035.58,98.2Zm.36-2.08a2.49,2.49,0,0,0,2-.82,3,3,0,0,0,.76-2.1,3.24,3.24,0,0,0-.34-1.52,2.37,2.37,0,0,0-1-1,2.62,2.62,0,0,0-1.42-.38,2.72,2.72,0,0,0-1.42.38,2.63,2.63,0,0,0-1,1,3.57,3.57,0,0,0,0,3,2.75,2.75,0,0,0,1,1A2.8,2.8,0,0,0,1035.94,96.12Zm2.58,1.88V95.42l.38-2.34-.38-2.32V88.4h2.2V98Zm-3.72-11-1-1,2.56-3.26,1.7,1.7Zm14.94,11V92.46a2.11,2.11,0,0,0-.62-1.58,2.09,2.09,0,0,0-1.56-.62,2.29,2.29,0,0,0-1.14.28,2.09,2.09,0,0,0-.78.78,2.35,2.35,0,0,0-.28,1.14l-.86-.48A3.85,3.85,0,0,1,1045,90a3.47,3.47,0,0,1,1.32-1.34,3.82,3.82,0,0,1,1.92-.5,3.41,3.41,0,0,1,1.92.56,3.83,3.83,0,0,1,1.32,1.42,3.62,3.62,0,0,1,.48,1.8v6Zm-6.58,0V88.4h2.2V98Zm19,.2a4.4,4.4,0,0,1-2.36-.66,4.91,4.91,0,0,1-1.66-1.78,5.38,5.38,0,0,1-.6-2.54,5.29,5.29,0,0,1,.6-2.54,4.89,4.89,0,0,1,1.66-1.8,4.33,4.33,0,0,1,2.36-.68,3.82,3.82,0,0,1,1.94.48,3.47,3.47,0,0,1,1.86,3.14v2.76a3.46,3.46,0,0,1-.5,1.86,3.42,3.42,0,0,1-1.34,1.3A4,4,0,0,1,1062.2,98.2Zm.36-2.08a2.7,2.7,0,0,0,1.42-.36,2.47,2.47,0,0,0,1-1,3.57,3.57,0,0,0,0-3,2.37,2.37,0,0,0-1-1,2.62,2.62,0,0,0-1.42-.38,2.72,2.72,0,0,0-1.42.38,2.63,2.63,0,0,0-1,1,3.57,3.57,0,0,0,0,3,2.75,2.75,0,0,0,1,1A2.8,2.8,0,0,0,1062.56,96.12Zm4.78,1.88h-2.2V95.42l.38-2.34-.38-2.32V83.6h2.2Zm6.9.2a5.27,5.27,0,0,1-2.6-.64,5.06,5.06,0,0,1-1.82-1.8,5,5,0,0,1-.66-2.56,4.9,4.9,0,0,1,5-5,4.47,4.47,0,0,1,2.36.62,4.21,4.21,0,0,1,1.62,1.7,5,5,0,0,1,.6,2.46,2.89,2.89,0,0,1,0,.5,4.16,4.16,0,0,1-.08.54h-7.88v-1.8h6.74l-.82.72a3.55,3.55,0,0,0-.34-1.48,2.07,2.07,0,0,0-.86-.92,2.61,2.61,0,0,0-1.34-.32,2.87,2.87,0,0,0-1.46.36,2.49,2.49,0,0,0-1,1,3.65,3.65,0,0,0,0,3.12,2.6,2.6,0,0,0,1,1.06,3.13,3.13,0,0,0,1.52.36,3.51,3.51,0,0,0,1.36-.26,2.79,2.79,0,0,0,1.08-.76l1.4,1.42a4.38,4.38,0,0,1-1.7,1.24A5.38,5.38,0,0,1,1074.24,98.2Zm10.23-.2V83.6h2.2V98Zm9,.2a5,5,0,0,1-2.54-.66,5.12,5.12,0,0,1-1.82-1.82,5,5,0,0,1-.66-2.54,4.89,4.89,0,0,1,.66-2.52,5,5,0,0,1,1.82-1.78,4.9,4.9,0,0,1,2.54-.68,5,5,0,0,1,2.56.66,4.86,4.86,0,0,1,1.8,1.8,4.81,4.81,0,0,1,.68,2.52,4.9,4.9,0,0,1-.68,2.54,4.89,4.89,0,0,1-4.36,2.48Zm0-2.12a2.8,2.8,0,0,0,1.44-.36,2.52,2.52,0,0,0,1-1,3.08,3.08,0,0,0,.36-1.5,3,3,0,0,0-.36-1.48,2.62,2.62,0,0,0-1-1,2.71,2.71,0,0,0-1.44-.38,2.82,2.82,0,0,0-1.44.38,2.62,2.62,0,0,0-1,1,3.08,3.08,0,0,0-.34,1.48,3.19,3.19,0,0,0,.34,1.5,2.73,2.73,0,0,0,1,1A2.9,2.9,0,0,0,1093.52,96.08Zm10,2.12a5.33,5.33,0,0,1-2.9-.8,5,5,0,0,1-1.08-1L1101,95a3.31,3.31,0,0,0,1.14.88,3.69,3.69,0,0,0,1.48.28,2.24,2.24,0,0,0,1.12-.22.71.71,0,0,0,.38-.64.77.77,0,0,0-.36-.68,3.32,3.32,0,0,0-.94-.4l-1.2-.36a6.83,6.83,0,0,1-1.2-.48,2.7,2.7,0,0,1-.92-.86,2.49,2.49,0,0,1-.36-1.4,2.89,2.89,0,0,1,.42-1.58,2.86,2.86,0,0,1,1.22-1,4.6,4.6,0,0,1,1.9-.36,4.71,4.71,0,0,1,2,.42,3.69,3.69,0,0,1,1.5,1.22l-1.4,1.4a2.72,2.72,0,0,0-1-.78,2.86,2.86,0,0,0-1.24-.26,2.17,2.17,0,0,0-1,.2.63.63,0,0,0-.36.58.69.69,0,0,0,.36.62,3.81,3.81,0,0,0,.92.38l1.2.36a4.59,4.59,0,0,1,1.2.52,2.56,2.56,0,0,1,.94.88,2.51,2.51,0,0,1,.36,1.42,2.76,2.76,0,0,1-1,2.22A4,4,0,0,1,1103.53,98.2Zm11.34-6.14v-1.9h3.54a2.33,2.33,0,0,0,1.64-.54,2,2,0,0,0,.6-1.54,2.07,2.07,0,0,0-.58-1.48,2.19,2.19,0,0,0-1.64-.6h-3.56V84h3.66a4.82,4.82,0,0,1,2.32.54A3.88,3.88,0,0,1,1123,88a4,4,0,0,1-.56,2.12,3.67,3.67,0,0,1-1.54,1.4,5.18,5.18,0,0,1-2.32.5ZM1113.29,98V84h2.3V98Zm7.68,0-4.9-6.08,2.14-.78,5.66,6.86Zm8.47.2a5.25,5.25,0,0,1-2.6-.64,4.89,4.89,0,0,1-2.48-4.36,4.9,4.9,0,0,1,5-5,4.49,4.49,0,0,1,2.36.62,4.35,4.35,0,0,1,1.62,1.7,5,5,0,0,1,.6,2.46,2.89,2.89,0,0,1,0,.5,4.16,4.16,0,0,1-.08.54h-7.88v-1.8h6.74l-.82.72a3.71,3.71,0,0,0-.34-1.48,2.13,2.13,0,0,0-.86-.92,2.63,2.63,0,0,0-1.34-.32,2.85,2.85,0,0,0-1.46.36,2.49,2.49,0,0,0-1,1,3.21,3.21,0,0,0-.34,1.54,3.32,3.32,0,0,0,.36,1.58,2.6,2.6,0,0,0,1,1.06,3.13,3.13,0,0,0,1.52.36,3.54,3.54,0,0,0,1.36-.26,2.79,2.79,0,0,0,1.08-.76l1.4,1.42a4.46,4.46,0,0,1-1.7,1.24A5.42,5.42,0,0,1,1129.44,98.2Zm9.17-.1-4.1-9.7h2.42l2.8,7.12h-.7l3-7.12h2.44L1140,98.1Zm-2.86,3.9,3-6.14L1140,98.1l-1.78,3.9Zm14.08-3.8a5.25,5.25,0,0,1-2.6-.64,4.89,4.89,0,0,1-2.48-4.36,4.9,4.9,0,0,1,5-5,4.49,4.49,0,0,1,2.36.62,4.35,4.35,0,0,1,1.62,1.7,5,5,0,0,1,.6,2.46,2.89,2.89,0,0,1,0,.5,4.16,4.16,0,0,1-.08.54h-7.88v-1.8H1153l-.82.72a3.71,3.71,0,0,0-.34-1.48,2.13,2.13,0,0,0-.86-.92,2.63,2.63,0,0,0-1.34-.32,2.85,2.85,0,0,0-1.46.36,2.49,2.49,0,0,0-1,1,3.21,3.21,0,0,0-.34,1.54,3.32,3.32,0,0,0,.36,1.58,2.6,2.6,0,0,0,1,1.06,3.13,3.13,0,0,0,1.52.36,3.54,3.54,0,0,0,1.36-.26,2.79,2.79,0,0,0,1.08-.76l1.4,1.42a4.46,4.46,0,0,1-1.7,1.24A5.42,5.42,0,0,1,1149.83,98.2Zm9.36,0a6.08,6.08,0,0,1-1.54-.2,6.17,6.17,0,0,1-1.36-.6,5,5,0,0,1-1.08-1l1.4-1.4a3.5,3.5,0,0,0,1.14.88,3.72,3.72,0,0,0,1.48.28,2.22,2.22,0,0,0,1.12-.22.69.69,0,0,0,.38-.64.77.77,0,0,0-.36-.68,3.32,3.32,0,0,0-.94-.4l-1.2-.36a6.83,6.83,0,0,1-1.2-.48,2.7,2.7,0,0,1-.92-.86,2.49,2.49,0,0,1-.36-1.4,2.67,2.67,0,0,1,1.64-2.6,5.18,5.18,0,0,1,3.94.06,3.69,3.69,0,0,1,1.5,1.22l-1.4,1.4a2.72,2.72,0,0,0-1-.78,2.86,2.86,0,0,0-1.24-.26,2.17,2.17,0,0,0-1,.2.63.63,0,0,0-.36.58.69.69,0,0,0,.36.62,3.81,3.81,0,0,0,.92.38l1.2.36a4.59,4.59,0,0,1,1.2.52,2.56,2.56,0,0,1,.94.88,2.51,2.51,0,0,1,.36,1.42,2.73,2.73,0,0,1-1,2.22A4,4,0,0,1,1159.19,98.2Zm5.46,2.14L1166,97.8l.74-.2a1.77,1.77,0,0,1-.28.4.52.52,0,0,1-.38.16,1.23,1.23,0,0,1-.86-.38,1.37,1.37,0,0,1-.38-1,1.49,1.49,0,0,1,.42-1.08,1.41,1.41,0,0,1,1.08-.46,1.39,1.39,0,0,1,1,.46,1.45,1.45,0,0,1,.46,1.08,2,2,0,0,1-.12.62,6.1,6.1,0,0,1-.38.88l-1.48,2.72Zm8.87-3.7,5.16-5.48a13.44,13.44,0,0,0,1-1.22,4.15,4.15,0,0,0,.58-1,2.78,2.78,0,0,0,.18-1,1.81,1.81,0,0,0-.62-1.46,2.21,2.21,0,0,0-1.54-.54,3.16,3.16,0,0,0-1.76.5A4.33,4.33,0,0,0,1175.2,88l-1.6-1.32a5.81,5.81,0,0,1,2-2.14,5.23,5.23,0,0,1,2.78-.74,4.74,4.74,0,0,1,2.28.52,3.75,3.75,0,0,1,1.52,1.46,4.15,4.15,0,0,1,.54,2.14,5.16,5.16,0,0,1-.22,1.58,4.73,4.73,0,0,1-.7,1.38,16,16,0,0,1-1.38,1.6l-4,4.1Zm0,1.36V96.64l2-.7H1183V98Zm15.74.2a5.58,5.58,0,0,1-2.5-.52,4.1,4.1,0,0,1-1.66-1.44,3.93,3.93,0,0,1-.58-2.12,4,4,0,0,1,.36-1.72A3.75,3.75,0,0,1,1186,91a4.53,4.53,0,0,1,1.7-.8l-.06.64a3.42,3.42,0,0,1-1.36-.72,3.35,3.35,0,0,1-.82-1.18,3.86,3.86,0,0,1,.24-3.38,3.69,3.69,0,0,1,1.48-1.34,4.59,4.59,0,0,1,2.12-.48,4.51,4.51,0,0,1,2.12.48,3.57,3.57,0,0,1,1.46,1.34,3.54,3.54,0,0,1,.54,2,3.63,3.63,0,0,1-.28,1.42,3.35,3.35,0,0,1-.82,1.18,3.22,3.22,0,0,1-1.36.72l-.06-.64a4.32,4.32,0,0,1,1.7.8,3.59,3.59,0,0,1,1.06,1.36,4.13,4.13,0,0,1-.2,3.84,4,4,0,0,1-1.66,1.44A5.58,5.58,0,0,1,1189.26,98.2Zm0-2.08a2.71,2.71,0,0,0,1.3-.3,2.17,2.17,0,0,0,.9-.82,2.09,2.09,0,0,0,.34-1.18,2,2,0,0,0-.34-1.18,2.17,2.17,0,0,0-.9-.82,2.71,2.71,0,0,0-1.3-.3,2.85,2.85,0,0,0-1.32.3,2.45,2.45,0,0,0-.9.82,2.17,2.17,0,0,0-.32,1.18A2.24,2.24,0,0,0,1187,95a2.45,2.45,0,0,0,.9.82A2.85,2.85,0,0,0,1189.26,96.12Zm0-6.4a1.92,1.92,0,0,0,2-2,1.89,1.89,0,0,0-.56-1.42,2,2,0,0,0-1.44-.56,2,2,0,0,0-1.44.56,1.89,1.89,0,0,0-.56,1.42,2,2,0,0,0,.56,1.44A2,2,0,0,0,1189.26,89.72Zm7.51,8.28,5.1-12.6h2.28l-5,12.6Zm-2-11.94V84h9.38v1.4l-1,.66ZM1211,98.2a5.1,5.1,0,0,1-2.9-.88A6.37,6.37,0,0,1,1206,94.8a8.71,8.71,0,0,1-.78-3.82,8.88,8.88,0,0,1,.76-3.8,6.23,6.23,0,0,1,2.08-2.5,5.19,5.19,0,0,1,5.78,0,6,6,0,0,1,2.06,2.5,9.74,9.74,0,0,1,0,7.64,6,6,0,0,1-2.06,2.5A4.89,4.89,0,0,1,1211,98.2Zm0-2.16a2.94,2.94,0,0,0,1.8-.56,3.52,3.52,0,0,0,1.18-1.68,7.66,7.66,0,0,0,.44-2.82,7.58,7.58,0,0,0-.44-2.8,3.37,3.37,0,0,0-1.2-1.66,2.93,2.93,0,0,0-1.78-.56,3,3,0,0,0-1.8.56,3.47,3.47,0,0,0-1.18,1.66,7.94,7.94,0,0,0-.42,2.8,8.14,8.14,0,0,0,.42,2.82,3.59,3.59,0,0,0,1.18,1.68A3,3,0,0,0,1210.92,96Zm11.49,2.16a6.33,6.33,0,0,1-2.54-.5,5.24,5.24,0,0,1-1.9-1.5l1.56-1.56a2.88,2.88,0,0,0,1.18,1,3.71,3.71,0,0,0,1.66.38,3.23,3.23,0,0,0,1.48-.32,2.32,2.32,0,0,0,1-.9,2.49,2.49,0,0,0,.36-1.34,2.46,2.46,0,0,0-.36-1.36,2.23,2.23,0,0,0-1-.86,3.53,3.53,0,0,0-1.56-.32,4.71,4.71,0,0,0-.74.06,3.26,3.26,0,0,0-.68.14l1-1.32a6,6,0,0,1,.88-.26,3.81,3.81,0,0,1,.92-.12,3.64,3.64,0,0,1,1.94.52,3.6,3.6,0,0,1,1.38,1.46,4.32,4.32,0,0,1,.52,2.18,4.34,4.34,0,0,1-2.42,4A5.76,5.76,0,0,1,1222.41,98.2Zm-1.58-7.06V89.78l3.74-4.36,2.76-.06-3.9,4.48Zm-2.16-5.08V84h8.66v1.36l-2,.7ZM1233.81,98V84h1.6l5.82,9.58h-1L1246,84h1.6V98h-2.3V88l.52.14-4.32,7.1h-1.6l-4.32-7.1.52-.14V98Zm20.56.2a4.37,4.37,0,0,1-2.36-.66,4.82,4.82,0,0,1-1.66-1.78,5.38,5.38,0,0,1-.6-2.54,5.29,5.29,0,0,1,.6-2.54,4.81,4.81,0,0,1,1.66-1.8,4.31,4.31,0,0,1,2.36-.68,3.85,3.85,0,0,1,1.94.48,3.49,3.49,0,0,1,1.36,1.28,3.55,3.55,0,0,1,.5,1.86v2.76a3.55,3.55,0,0,1-.5,1.86,3.49,3.49,0,0,1-1.34,1.3A4.05,4.05,0,0,1,1254.37,98.2Zm.36-2.08a2.5,2.5,0,0,0,2-.82,3,3,0,0,0,.76-2.1,3.24,3.24,0,0,0-.34-1.52,2.49,2.49,0,0,0-1-1,2.62,2.62,0,0,0-1.42-.38,2.69,2.69,0,0,0-1.42.38,2.63,2.63,0,0,0-1,1,3.57,3.57,0,0,0,0,3,2.53,2.53,0,0,0,2.38,1.4Zm2.58,1.88V95.42l.38-2.34-.38-2.32V88.4h2.2V98Zm8.66.2a4.4,4.4,0,0,1-2.36-.66,4.91,4.91,0,0,1-1.66-1.78,5.38,5.38,0,0,1-.6-2.54,5.29,5.29,0,0,1,.6-2.54,4.89,4.89,0,0,1,1.66-1.8,4.33,4.33,0,0,1,2.36-.68,3.82,3.82,0,0,1,1.94.48,3.47,3.47,0,0,1,1.86,3.14v2.76a3.46,3.46,0,0,1-.5,1.86,3.42,3.42,0,0,1-1.34,1.3A4,4,0,0,1,1266,98.2Zm.36-2.08a2.7,2.7,0,0,0,1.42-.36,2.47,2.47,0,0,0,1-1,3.57,3.57,0,0,0,0-3,2.37,2.37,0,0,0-1-1,2.62,2.62,0,0,0-1.42-.38,2.72,2.72,0,0,0-1.42.38,2.63,2.63,0,0,0-1,1,3.57,3.57,0,0,0,0,3,2.75,2.75,0,0,0,1,1A2.8,2.8,0,0,0,1266.33,96.12Zm4.78,1.88h-2.2V95.42l.38-2.34-.38-2.32V83.6h2.2Zm2.44,0V88.4h2.2V98Zm2.2-5.34-.76-.38a5,5,0,0,1,.8-2.94,2.84,2.84,0,0,1,2.46-1.14,3.18,3.18,0,0,1,1.3.26,3,3,0,0,1,1.08.84l-1.44,1.48a1.41,1.41,0,0,0-.58-.4,2.3,2.3,0,0,0-2.26.46A2.43,2.43,0,0,0,1275.75,92.66Zm6,5.34V88.4h2.2V98Zm1.1-11.36a1.29,1.29,0,0,1-.94-.38,1.41,1.41,0,0,1,0-1.88,1.29,1.29,0,0,1,.94-.38,1.24,1.24,0,0,1,.94.38,1.41,1.41,0,0,1,0,1.88A1.24,1.24,0,0,1,1282.82,86.64Zm7.59,11.56a4.35,4.35,0,0,1-2.36-.66,4.74,4.74,0,0,1-1.66-1.78,5.38,5.38,0,0,1-.6-2.54,5.29,5.29,0,0,1,.6-2.54,4.73,4.73,0,0,1,1.66-1.8,4.28,4.28,0,0,1,2.36-.68,3.85,3.85,0,0,1,1.94.48,3.47,3.47,0,0,1,1.86,3.14v2.76a3.55,3.55,0,0,1-.5,1.86,3.49,3.49,0,0,1-1.34,1.3A4.08,4.08,0,0,1,1290.41,98.2Zm.36-2.08a2.72,2.72,0,0,0,1.42-.36,2.61,2.61,0,0,0,1-1,3.57,3.57,0,0,0,0-3,2.49,2.49,0,0,0-1-1,2.7,2.7,0,0,0-3.8,1,3.57,3.57,0,0,0,0,3,2.53,2.53,0,0,0,2.38,1.4Zm4.78,1.88h-2.2V95.42l.38-2.34-.38-2.32V83.6h2.2Z"/><rect class="cls-13" x="2" y="190" width="1440" height="153"/><path class="cls-3" d="M93.69,267.05v4.73c4.72,0,8.6,4.12,8.6,9.14v.13h4.43v-.13C106.72,273.28,100.88,267.05,93.69,267.05Z"/><path class="cls-2" d="M91.64,267.05H90.06c-6.73.52-12.06,6.53-12.06,13.83,0,7.69,5.85,13.87,13,13.87h.61V290c-.2,0-.41,0-.61,0-4.76,0-8.59-4.12-8.59-9.15A8.89,8.89,0,0,1,91,271.78a3.13,3.13,0,0,1,.61,0Z"/><path class="cls-3" d="M102.29,251.12a8.9,8.9,0,0,1-8.6,9.15V265c7.23,0,13-6.23,13-13.87s-5.84-13.87-13-13.87V242A8.9,8.9,0,0,1,102.29,251.12Z"/><path class="cls-2" d="M91.64,265v-4.72a8.9,8.9,0,0,1-8.6-9.15V251H78.61v.13C78.61,258.76,84.46,265,91.64,265Z"/><path class="cls-2" d="M130.86,267.87a8.41,8.41,0,0,1-4.47-1.2,8.9,8.9,0,0,1-3.19-3.31,9.79,9.79,0,0,1,0-9.28,8.53,8.53,0,0,1,3.19-3.26,8.32,8.32,0,0,1,4.47-1.2,8.24,8.24,0,0,1,4.48,1.2,8.51,8.51,0,0,1,3.15,3.26,9.35,9.35,0,0,1,1.17,4.64,9.57,9.57,0,0,1-1.17,4.64,9,9,0,0,1-3.15,3.31A8.42,8.42,0,0,1,130.86,267.87Zm0-4.51a4.22,4.22,0,0,0,2.18-.6,3.69,3.69,0,0,0,1.45-1.63,5.58,5.58,0,0,0,.53-2.41,4.86,4.86,0,0,0-.53-2.36,4.06,4.06,0,0,0-1.45-1.59,3.87,3.87,0,0,0-2.14-.56,3.91,3.91,0,0,0-2.14.56,4.22,4.22,0,0,0-1.45,1.59,5.5,5.5,0,0,0-.52,2.36,5.2,5.2,0,0,0,.52,2.36,3.79,3.79,0,0,0,1.45,1.64A3.51,3.51,0,0,0,130.86,263.36Z"/><path class="cls-2" d="M142.6,267.48V250.05h4.6v17.47h-4.6Zm11,0v-10a3.47,3.47,0,0,0-.89-2.49,3,3,0,0,0-2.3-.95,3.08,3.08,0,0,0-1.65.43,2.82,2.82,0,0,0-1.13,1.21,3.57,3.57,0,0,0-.41,1.8l-1.81-1a7.26,7.26,0,0,1,.85-3.56,6.12,6.12,0,0,1,2.29-2.41,6.27,6.27,0,0,1,3.35-.9,5.66,5.66,0,0,1,3.23.94,6.45,6.45,0,0,1,2.22,2.5,7.16,7.16,0,0,1,.81,3.3v11.08Z"/><path class="cls-2" d="M168.51,267.87a6.68,6.68,0,0,1-3.92-1.2,8.19,8.19,0,0,1-2.74-3.27,11.46,11.46,0,0,1,0-9.23,8.26,8.26,0,0,1,2.7-3.26,6.69,6.69,0,0,1,4-1.25,5.94,5.94,0,0,1,3.31.9A6.1,6.1,0,0,1,174,253a7.83,7.83,0,0,1,.85,3.43v4.81a8.37,8.37,0,0,1-.81,3.39A5.67,5.67,0,0,1,171.9,267,6.46,6.46,0,0,1,168.51,267.87Zm1-4.6a3.63,3.63,0,0,0,2.91-1.28,4.89,4.89,0,0,0,1.09-3.31,5.73,5.73,0,0,0-.48-2.41,3.61,3.61,0,0,0-1.42-1.59,3.81,3.81,0,0,0-2.1-.55,3.75,3.75,0,0,0-2.05.55,3.83,3.83,0,0,0-1.41,1.64,5.46,5.46,0,0,0-.53,2.36,4.86,4.86,0,0,0,.53,2.36,3.75,3.75,0,0,0,1.41,1.63A3.52,3.52,0,0,0,169.55,263.27Zm3.76,4.21V262.8l.72-4.21-.72-4.25v-13h4.6v26.11Z"/><path class="cls-2" d="M188.72,267.87a7,7,0,0,1-4-1.2,8.39,8.39,0,0,1-2.83-3.27,10.76,10.76,0,0,1,0-9.27,8.35,8.35,0,0,1,2.83-3.27,7,7,0,0,1,4-1.2,6.29,6.29,0,0,1,3.11.77,6.37,6.37,0,0,1,2.22,2.06,6.28,6.28,0,0,1,.93,3V262a6.12,6.12,0,0,1-.93,3,5.58,5.58,0,0,1-2.22,2.06A5.64,5.64,0,0,1,188.72,267.87Zm.85-4.51a3.85,3.85,0,0,0,3-1.25,4.89,4.89,0,0,0,1.13-3.3,5,5,0,0,0-.52-2.36,3.9,3.9,0,0,0-1.41-1.64,4,4,0,0,0-2.14-.55,3.83,3.83,0,0,0-2.1.55,4.29,4.29,0,0,0-1.45,1.64,5.06,5.06,0,0,0-.52,2.36,5,5,0,0,0,.52,2.36,4.26,4.26,0,0,0,1.45,1.63A4.17,4.17,0,0,0,189.57,263.36Zm3.87,4.12V262.8l.73-4.21-.73-4.25v-4.29H198v17.47h-4.56Z"/><path class="cls-2" d="M130.9,290.63a8.66,8.66,0,0,1-7.66-4.47,9.87,9.87,0,0,1,0-9.32,8.51,8.51,0,0,1,3.18-3.26,9,9,0,0,1,4.52-1.2,8.67,8.67,0,0,1,3.55.73,7.82,7.82,0,0,1,2.83,2.14l-2.95,3.18a4.43,4.43,0,0,0-1.49-1.16,4.53,4.53,0,0,0-1.9-.34,4.15,4.15,0,0,0-2.18.56,4,4,0,0,0-1.49,1.59,5.11,5.11,0,0,0-.52,2.4,5,5,0,0,0,.52,2.36,4.06,4.06,0,0,0,1.49,1.63,4.18,4.18,0,0,0,2.18.61,4.93,4.93,0,0,0,2-.39,3.76,3.76,0,0,0,1.53-1.2l2.95,3.17a9.31,9.31,0,0,1-2.87,2.19A8.3,8.3,0,0,1,130.9,290.63Z"/><path class="cls-2" d="M147.49,290.63a9,9,0,0,1-4.6-1.16,8,8,0,0,1-3.19-3.27,10.1,10.1,0,0,1,0-9.36,9.09,9.09,0,0,1,3.11-3.26,8.64,8.64,0,0,1,4.43-1.2,8,8,0,0,1,4.2,1.11,7.53,7.53,0,0,1,2.86,3.1,9.52,9.52,0,0,1,1.05,4.5,9,9,0,0,1-.08,1c0,.35-.12.73-.16,1.12H141.19v-3.57l11.78,0-1.93,1.5a7.34,7.34,0,0,0-.49-2.57,3.44,3.44,0,0,0-1.29-1.59,4,4,0,0,0-2.1-.56,4,4,0,0,0-3.75,2.41,6.63,6.63,0,0,0-.52,2.66,6.31,6.31,0,0,0,.52,2.75A4,4,0,0,0,145,286a4.42,4.42,0,0,0,2.42.6,5.44,5.44,0,0,0,2.25-.43,4.44,4.44,0,0,0,1.74-1.33l2.66,2.83a7.2,7.2,0,0,1-2.86,2.28A8.94,8.94,0,0,1,147.49,290.63Z"/><path class="cls-2" d="M158.14,290.24V272.81h4.6v17.47h-4.6Zm4.6-9.62-1.82-1.33a9.5,9.5,0,0,1,1.86-5,5,5,0,0,1,4.19-1.85,4.79,4.79,0,0,1,2.14.43,4.94,4.94,0,0,1,1.7,1.33l-2.87,3.57a2,2,0,0,0-.85-.65,3.59,3.59,0,0,0-1.25-.21,3,3,0,0,0-2.22.9A3.86,3.86,0,0,0,162.74,280.62Z"/><path class="cls-2" d="M179.76,290.63a8.41,8.41,0,0,1-4.47-1.2,8.9,8.9,0,0,1-3.19-3.31,9.79,9.79,0,0,1,0-9.28,8.53,8.53,0,0,1,3.19-3.26,8.32,8.32,0,0,1,4.47-1.2,8.24,8.24,0,0,1,4.48,1.2,8.51,8.51,0,0,1,3.15,3.26,9.35,9.35,0,0,1,1.17,4.64,9.57,9.57,0,0,1-1.17,4.64,9,9,0,0,1-3.15,3.31A8.42,8.42,0,0,1,179.76,290.63Zm0-4.51a4.22,4.22,0,0,0,2.18-.6,3.78,3.78,0,0,0,1.46-1.63,5.73,5.73,0,0,0,.52-2.41,5,5,0,0,0-.52-2.36,4.16,4.16,0,0,0-1.46-1.59,4.35,4.35,0,0,0-4.27,0,4.16,4.16,0,0,0-1.46,1.59,5.5,5.5,0,0,0-.52,2.36,5.2,5.2,0,0,0,.52,2.36,3.67,3.67,0,0,0,1.46,1.63A3.4,3.4,0,0,0,179.76,286.12Z"/><path class="cls-5" d="M392,266a18,18,0,1,1,18,18A18,18,0,0,1,392,266Z"/><g class="cls-14"><path class="cls-4" d="M403.08,274.16l.79.75a9.52,9.52,0,0,0,12.43-.45,8.32,8.32,0,0,0,0-12.23A2.86,2.86,0,0,0,416,262l-2.21,2.09a3.56,3.56,0,0,1,.31.26,5.52,5.52,0,0,1,0,8.09,6.32,6.32,0,0,1-8.55,0c-.08-.08-.19-.19-.28-.3Z"/><path class="cls-4" d="M419.64,255a3.38,3.38,0,0,1-3.45,3.27V261a6.15,6.15,0,0,0,6.31-6Z"/><path class="cls-4" d="M409.37,266.48v-2.94a5.9,5.9,0,0,1-6-5.7v-.08h-3.11v.08A8.94,8.94,0,0,0,409.37,266.48Z"/><path class="cls-4" d="M400.16,270l2.21-2.08a5.49,5.49,0,0,1,0-8.06s.06,0,.06-.05l-2.21-2.09s-.06,0-.06,0A8.35,8.35,0,0,0,400.16,270Z"/></g><path class="cls-7" d="M446,266a18,18,0,1,1,18,18A18,18,0,0,1,446,266Z"/><g class="cls-15"><path class="cls-4" d="M463.62,256.34a5.21,5.21,0,0,1,5.13,5.25H473a9.49,9.49,0,0,0-9.38-9.59Z"/><path class="cls-4" d="M463.62,260.82h-4.2V280h4.2Z"/><path class="cls-4" d="M468.08,264.34H455v4.31h13.08Z"/></g><path class="cls-9" d="M500,266a18,18,0,1,1,18,18A18,18,0,0,1,500,266Z"/><g class="cls-16"><path class="cls-4" d="M526.69,271a3.56,3.56,0,0,1-3.55,3.54v2.93a6.48,6.48,0,0,0,6.49-6.47Z"/><path class="cls-4" d="M524,257.43a3.56,3.56,0,0,1,3.55,3.54h2.94A6.48,6.48,0,0,0,524,254.5Z"/><path class="cls-4" d="M509.31,271a3.56,3.56,0,0,0,3.55,3.54v2.93a6.48,6.48,0,0,1-6.48-6.47Z"/><path class="cls-4" d="M512,257.43a3.56,3.56,0,0,0-3.55,3.54H505.5A6.48,6.48,0,0,1,512,254.5Z"/><path class="cls-4" d="M518,259.55a6.47,6.47,0,1,0,6.49,6.46A6.48,6.48,0,0,0,518,259.55Zm3.55,6.46a3.55,3.55,0,1,1-3.55-3.53A3.51,3.51,0,0,1,521.57,266Z"/></g><path class="cls-3" d="M554,266a18,18,0,1,1,18,18A18,18,0,0,1,554,266Z"/><g class="cls-17"><path class="cls-4" d="M560,266h3.69a7,7,0,0,1,7.14-6.92h.1V255.5h-.1A10.68,10.68,0,0,0,560,266Z"/><path class="cls-4" d="M572.71,276.5H574a10.51,10.51,0,0,0-.84-21h-.5v3.58c.17,0,.34,0,.5,0a6.93,6.93,0,1,1,0,13.85,2.85,2.85,0,0,1-.5,0v3.64Z"/><path class="cls-4" d="M564.53,272a7.06,7.06,0,0,0-.54-3.7h-4a3.87,3.87,0,0,1,0,5.62l.14.13,2.24,2.18.14.13a4.16,4.16,0,0,1,5.66-.1v-3.8A7.31,7.31,0,0,0,564.53,272Z"/></g><rect class="cls-1" x="784" y="236" width="124" height="53"/><path class="cls-2" d="M936.88,258.2a7.3,7.3,0,0,1-2.82-.54,6.92,6.92,0,0,1-3.72-3.84,7.56,7.56,0,0,1-.52-2.82,7.42,7.42,0,0,1,.52-2.8,6.84,6.84,0,0,1,1.48-2.3,7.41,7.41,0,0,1,8-1.54,7.28,7.28,0,0,1,2.2,1.52l-1.56,1.56a4.25,4.25,0,0,0-1.52-1.06,5.22,5.22,0,0,0-2.06-.38,4.87,4.87,0,0,0-1.9.36,4.45,4.45,0,0,0-1.5,1,4.75,4.75,0,0,0-1,1.58,6.17,6.17,0,0,0,0,4,5,5,0,0,0,1,1.6,4.54,4.54,0,0,0,1.5,1,4.87,4.87,0,0,0,1.9.36,5.5,5.5,0,0,0,2.16-.38,4.56,4.56,0,0,0,1.52-1.08l1.56,1.56a7,7,0,0,1-2.26,1.54A7.54,7.54,0,0,1,936.88,258.2Zm11.1,0a5,5,0,0,1-2.54-.66,5.2,5.2,0,0,1-1.82-1.82,5,5,0,0,1-.66-2.54,4.89,4.89,0,0,1,.66-2.52,5.09,5.09,0,0,1,1.82-1.78,4.9,4.9,0,0,1,2.54-.68,5,5,0,0,1,2.56.66,4.86,4.86,0,0,1,1.8,1.8,4.81,4.81,0,0,1,.68,2.52,4.9,4.9,0,0,1-.68,2.54A4.89,4.89,0,0,1,948,258.2Zm0-2.12a2.8,2.8,0,0,0,1.44-.36,2.52,2.52,0,0,0,1-1,3.08,3.08,0,0,0,.36-1.5,3,3,0,0,0-.36-1.48,2.55,2.55,0,0,0-1-1,2.71,2.71,0,0,0-1.44-.38,2.82,2.82,0,0,0-1.44.38,2.62,2.62,0,0,0-1,1,3.2,3.2,0,0,0-.34,1.48,3.31,3.31,0,0,0,.34,1.5,2.73,2.73,0,0,0,1,1A2.9,2.9,0,0,0,948,256.08Zm12,2.12a4.05,4.05,0,0,1-2-.46,3.47,3.47,0,0,1-1.84-3.16v-2.76a3.55,3.55,0,0,1,.5-1.86,3.49,3.49,0,0,1,1.36-1.28,3.9,3.9,0,0,1,1.94-.48,4.19,4.19,0,0,1,2.34.68,4.58,4.58,0,0,1,1.66,1.8,5.19,5.19,0,0,1,.62,2.54,5.28,5.28,0,0,1-.62,2.54,4.59,4.59,0,0,1-1.66,1.78A4.26,4.26,0,0,1,960,258.2Zm-.36-2.08a2.68,2.68,0,0,0,1.4-.36,2.61,2.61,0,0,0,1-1,3.39,3.39,0,0,0,0-3,2.49,2.49,0,0,0-1-1,2.6,2.6,0,0,0-1.4-.38,2.69,2.69,0,0,0-1.42.38,2.49,2.49,0,0,0-1,1,3.57,3.57,0,0,0,0,3,2.61,2.61,0,0,0,1,1A2.78,2.78,0,0,0,959.63,256.12ZM954.85,262V248.4h2.2V251l-.38,2.34.38,2.32V262Zm14.37-3.9-4.1-9.7h2.42l2.8,7.12h-.7l3-7.12H975l-4.46,9.7Zm-2.86,3.9,3-6.14,1.24,2.24L968.8,262Zm9.88-4v-9.6h2.2V258Zm2.2-5.34-.76-.38a4.92,4.92,0,0,1,.8-2.94,2.82,2.82,0,0,1,2.46-1.14,3.21,3.21,0,0,1,1.3.26,3.18,3.18,0,0,1,1.08.84l-1.44,1.48a1.56,1.56,0,0,0-.58-.4,2.13,2.13,0,0,0-.74-.12,2.07,2.07,0,0,0-1.52.58A2.43,2.43,0,0,0,978.44,252.66Zm6,5.34v-9.6h2.2V258Zm1.1-11.36a1.32,1.32,0,1,1,0-2.64,1.24,1.24,0,0,1,.94.38,1.41,1.41,0,0,1,0,1.88A1.24,1.24,0,0,1,985.5,246.64Zm7.57,15.56a6,6,0,0,1-2.66-.56,4.61,4.61,0,0,1-1.84-1.54l1.44-1.44a3.94,3.94,0,0,0,1.32,1.08,4,4,0,0,0,1.78.36,3,3,0,0,0,2.06-.68,2.28,2.28,0,0,0,.76-1.82v-2.36l.38-2.12-.38-2.14V248.4h2.2v9.2a4.34,4.34,0,0,1-2.42,4A5.7,5.7,0,0,1,993.07,262.2Zm-.1-4.4a4.48,4.48,0,0,1-2.32-.62,4.68,4.68,0,0,1-1.62-1.74,5.13,5.13,0,0,1-.58-2.46,5,5,0,0,1,.58-2.44,4.49,4.49,0,0,1,1.62-1.7,4.31,4.31,0,0,1,2.32-.64,4.13,4.13,0,0,1,2,.46,3.37,3.37,0,0,1,1.34,1.28,3.58,3.58,0,0,1,.48,1.88v2.36a3.57,3.57,0,0,1-.5,1.88,3.37,3.37,0,0,1-1.34,1.28A4.08,4.08,0,0,1,993,257.8Zm.44-2.08a2.77,2.77,0,0,0,1.4-.34,2.31,2.31,0,0,0,.92-.94,2.89,2.89,0,0,0,.34-1.44,2.79,2.79,0,0,0-.34-1.42,2.3,2.3,0,0,0-.92-1,2.77,2.77,0,0,0-1.4-.34,2.87,2.87,0,0,0-1.42.34,2.48,2.48,0,0,0-.94,1,2.79,2.79,0,0,0-.34,1.42,2.87,2.87,0,0,0,.34,1.42,2.48,2.48,0,0,0,.94,1A2.87,2.87,0,0,0,993.41,255.72Zm13.74,2.28v-5.54a2.11,2.11,0,0,0-.62-1.58,2.09,2.09,0,0,0-1.56-.62,2.29,2.29,0,0,0-1.14.28,2.09,2.09,0,0,0-.78.78,2.35,2.35,0,0,0-.28,1.14l-.86-.48a3.85,3.85,0,0,1,.48-1.94,3.47,3.47,0,0,1,1.32-1.34,4,4,0,0,1,3.84,0,3.47,3.47,0,0,1,1.32,1.34,3.87,3.87,0,0,1,.48,2v6Zm-6.58,0V243.6h2.2V258Zm12.36,0V244.4h2.2V258Zm-2.3-7.6v-2h6.8v2Zm19.44,7.8a7.53,7.53,0,0,1-2.88-.54,6.87,6.87,0,0,1-3.74-3.84,7.83,7.83,0,0,1-.52-2.84,7.68,7.68,0,0,1,.52-2.82,7.13,7.13,0,0,1,1.46-2.28,6.87,6.87,0,0,1,2.26-1.52,7.4,7.4,0,0,1,2.86-.54,7.22,7.22,0,0,1,2.88.56,6.8,6.8,0,0,1,3.74,3.8,7.48,7.48,0,0,1,.52,2.82,7.62,7.62,0,0,1-.52,2.84,7,7,0,0,1-3.72,3.82A7.36,7.36,0,0,1,1030.07,258.2Zm0-.88a6.16,6.16,0,0,0,3.24-.84,5.83,5.83,0,0,0,2.18-2.28,6.44,6.44,0,0,0,.8-3.22,6.31,6.31,0,0,0-.8-3.18,5.84,5.84,0,0,0-2.18-2.26,6.63,6.63,0,0,0-6.46,0,5.79,5.79,0,0,0-2.18,2.24,6.54,6.54,0,0,0-.78,3.2,6.64,6.64,0,0,0,.78,3.22,5.94,5.94,0,0,0,5.4,3.12Zm.24-2.3a4.25,4.25,0,0,1-2.1-.52,4.11,4.11,0,0,1-1.46-1.44,4,4,0,0,1-.54-2.06,3.89,3.89,0,0,1,.54-2,3.93,3.93,0,0,1,1.48-1.44,4.16,4.16,0,0,1,2.1-.54,4,4,0,0,1,1.66.34,3.45,3.45,0,0,1,1.34,1l-1.28,1.3a1.91,1.91,0,0,0-.76-.56,2.49,2.49,0,0,0-1-.18,2.07,2.07,0,0,0-1.08.28,1.92,1.92,0,0,0-.76.76,2.34,2.34,0,0,0-.26,1.12,2.46,2.46,0,0,0,.26,1.14,2.13,2.13,0,0,0,.76.76,2.27,2.27,0,0,0,1.08.26,2.35,2.35,0,0,0,1-.2,2,2,0,0,0,.72-.56l1.28,1.3a3.63,3.63,0,0,1-1.36,1A4,4,0,0,1,1030.27,255Zm19,3.18a5.63,5.63,0,0,1-2.84-.72,5.45,5.45,0,0,1-2-2,5.63,5.63,0,0,1-.72-2.84V244h2.3v8.66a3.63,3.63,0,0,0,.42,1.78,3.28,3.28,0,0,0,1.18,1.16,3.42,3.42,0,0,0,1.66.4,3.32,3.32,0,0,0,1.66-.4,3.1,3.1,0,0,0,1.14-1.16,3.58,3.58,0,0,0,.42-1.76V244h2.3v8.7a5.53,5.53,0,0,1-.72,2.82,5.27,5.27,0,0,1-2,2A5.53,5.53,0,0,1,1049.22,258.2Zm14.69-.2v-5.54a2.15,2.15,0,0,0-.62-1.58,2.09,2.09,0,0,0-1.56-.62,2.24,2.24,0,0,0-1.14.28,2.09,2.09,0,0,0-.78.78,2.24,2.24,0,0,0-.28,1.14l-.86-.48a3.85,3.85,0,0,1,.48-1.94,3.47,3.47,0,0,1,1.32-1.34,3.77,3.77,0,0,1,1.92-.5,3.41,3.41,0,0,1,1.92.56,3.83,3.83,0,0,1,1.32,1.42,3.62,3.62,0,0,1,.48,1.8v6Zm-6.58,0v-9.6h2.2V258Zm11,0v-9.6h2.2V258Zm1.1-11.36a1.27,1.27,0,0,1-.94-.38,1.41,1.41,0,0,1,0-1.88,1.27,1.27,0,0,1,.94-.38,1.26,1.26,0,0,1,.94.38,1.41,1.41,0,0,1,0,1.88A1.26,1.26,0,0,1,1069.47,246.64Zm8.7,11.56a4.08,4.08,0,0,1-2-.46,3.69,3.69,0,0,1-1.36-1.3,3.63,3.63,0,0,1-.48-1.86v-2.76a3.47,3.47,0,0,1,1.86-3.14,3.93,3.93,0,0,1,1.94-.48,4.19,4.19,0,0,1,2.34.68,4.58,4.58,0,0,1,1.66,1.8,5.08,5.08,0,0,1,.62,2.54,5.16,5.16,0,0,1-.62,2.54,4.59,4.59,0,0,1-1.66,1.78A4.26,4.26,0,0,1,1078.17,258.2Zm-.36-2.08a2.65,2.65,0,0,0,1.4-.36,2.47,2.47,0,0,0,1-1,3.39,3.39,0,0,0,0-3,2.37,2.37,0,0,0-1-1,2.57,2.57,0,0,0-1.4-.38,2.72,2.72,0,0,0-1.42.38,2.49,2.49,0,0,0-1,1,3.57,3.57,0,0,0,0,3,2.61,2.61,0,0,0,1,1A2.8,2.8,0,0,0,1077.81,256.12ZM1073,262V248.4h2.2V251l-.38,2.34.38,2.32V262Zm11.61-4v-9.6h2.2V258Zm2.2-5.34-.76-.38a4.92,4.92,0,0,1,.8-2.94,2.82,2.82,0,0,1,2.46-1.14,3.21,3.21,0,0,1,1.3.26,3.18,3.18,0,0,1,1.08.84l-1.44,1.48a1.56,1.56,0,0,0-.58-.4,2.13,2.13,0,0,0-.74-.12,2.07,2.07,0,0,0-1.52.58A2.43,2.43,0,0,0,1086.84,252.66ZM1097,258.2a5.25,5.25,0,0,1-2.6-.64,4.89,4.89,0,0,1-2.48-4.36,4.9,4.9,0,0,1,5-5,4.49,4.49,0,0,1,2.36.62,4.35,4.35,0,0,1,1.62,1.7,5,5,0,0,1,.6,2.46,4.38,4.38,0,0,1,0,.5c0,.16,0,.34-.08.54h-7.88v-1.8h6.74l-.82.72a3.71,3.71,0,0,0-.34-1.48,2.13,2.13,0,0,0-.86-.92,2.63,2.63,0,0,0-1.34-.32,2.85,2.85,0,0,0-1.46.36,2.37,2.37,0,0,0-1,1,3.21,3.21,0,0,0-.34,1.54,3.32,3.32,0,0,0,.36,1.58,2.6,2.6,0,0,0,1,1.06,3.11,3.11,0,0,0,1.52.36,3.58,3.58,0,0,0,1.36-.26,3,3,0,0,0,1.08-.76l1.4,1.42a4.53,4.53,0,0,1-1.7,1.24A5.45,5.45,0,0,1,1097,258.2Zm12-.2-2.76-4.06-.4-.36-3.72-5.18h2.66l2.46,3.56.38.34,4,5.7Zm-7.06,0,3.88-5.38,1.28,1.58-2.6,3.8Zm5.88-4.46-1.3-1.56,2.4-3.58h2.54Zm5.27,6.8,1.36-2.54.74-.2a1.5,1.5,0,0,1-.28.4.49.49,0,0,1-.38.16,1.26,1.26,0,0,1-.86-.38,1.41,1.41,0,0,1-.38-1,1.49,1.49,0,0,1,.42-1.08,1.44,1.44,0,0,1,1.08-.46,1.38,1.38,0,0,1,1,.46,1.41,1.41,0,0,1,.46,1.08,2,2,0,0,1-.12.62,4.45,4.45,0,0,1-.38.88l-1.48,2.72Zm13.73-2.14a6.12,6.12,0,0,1-2.82-.6,6.59,6.59,0,0,1-2.08-1.76l1.56-1.56a4.55,4.55,0,0,0,1.38,1.32,4.05,4.05,0,0,0,2,.46,3.12,3.12,0,0,0,1.84-.48,1.51,1.51,0,0,0,.7-1.32,1.73,1.73,0,0,0-.36-1.14,2.76,2.76,0,0,0-1-.72,7.82,7.82,0,0,0-1.3-.52c-.46-.16-.94-.33-1.42-.52a6.93,6.93,0,0,1-1.3-.74,3.31,3.31,0,0,1-.94-1.14,3.89,3.89,0,0,1-.36-1.78,3.56,3.56,0,0,1,.6-2.1,4,4,0,0,1,1.66-1.34,5.65,5.65,0,0,1,2.32-.46,5.43,5.43,0,0,1,2.46.54,5.09,5.09,0,0,1,1.78,1.38l-1.56,1.56a4.08,4.08,0,0,0-1.26-1,3.05,3.05,0,0,0-1.48-.34,2.82,2.82,0,0,0-1.64.42,1.38,1.38,0,0,0-.58,1.18,1.5,1.5,0,0,0,.36,1,3.41,3.41,0,0,0,.94.66c.4.17.84.34,1.3.5s1,.34,1.42.54a5,5,0,0,1,1.3.78,3.36,3.36,0,0,1,1,1.2,4.22,4.22,0,0,1,.36,1.86,3.63,3.63,0,0,1-1.34,3A5.43,5.43,0,0,1,1126.8,258.2Zm8.6,0a1.43,1.43,0,0,1-1.06-.42,1.51,1.51,0,0,1-.4-1.06,1.46,1.46,0,0,1,.4-1.06,1.43,1.43,0,0,1,1.06-.42,1.39,1.39,0,0,1,1,.42,1.43,1.43,0,0,1,.42,1.06,1.48,1.48,0,0,1-.42,1.06A1.39,1.39,0,0,1,1135.4,258.2Zm3.38-.2,5.76-14h1.6l5.72,14h-2.48l-4.48-11.34h.84L1141.22,258Zm2.84-2.7v-2H1149v2Zm13.62,2.9a1.45,1.45,0,0,1-1.06-.42,1.55,1.55,0,0,1-.4-1.06,1.5,1.5,0,0,1,.4-1.06,1.45,1.45,0,0,1,1.06-.42,1.36,1.36,0,0,1,1,.42,1.43,1.43,0,0,1,.42,1.06,1.48,1.48,0,0,1-.42,1.06A1.36,1.36,0,0,1,1155.24,258.2Zm9.82,0a5.63,5.63,0,0,1-2.84-.72,5.45,5.45,0,0,1-2-2,5.63,5.63,0,0,1-.72-2.84V244h2.3v8.66a3.63,3.63,0,0,0,.42,1.78,3.28,3.28,0,0,0,1.18,1.16,3.42,3.42,0,0,0,1.66.4,3.32,3.32,0,0,0,1.66-.4,3.1,3.1,0,0,0,1.14-1.16,3.58,3.58,0,0,0,.42-1.76V244h2.3v8.7a5.53,5.53,0,0,1-.72,2.82,5.27,5.27,0,0,1-2,2A5.53,5.53,0,0,1,1165.06,258.2Zm9.79,0a1.43,1.43,0,0,1-1.06-.42,1.51,1.51,0,0,1-.4-1.06,1.46,1.46,0,0,1,.4-1.06,1.43,1.43,0,0,1,1.06-.42,1.37,1.37,0,0,1,1,.42,1.43,1.43,0,0,1,.42,1.06,1.48,1.48,0,0,1-.42,1.06A1.37,1.37,0,0,1,1174.85,258.2Zm4.12,2.14,1.36-2.54.74-.2a1.5,1.5,0,0,1-.28.4.49.49,0,0,1-.38.16,1.26,1.26,0,0,1-.86-.38,1.41,1.41,0,0,1-.38-1,1.49,1.49,0,0,1,.42-1.08,1.44,1.44,0,0,1,1.08-.46,1.38,1.38,0,0,1,1,.46,1.41,1.41,0,0,1,.46,1.08,2,2,0,0,1-.12.62,4.45,4.45,0,0,1-.38.88l-1.48,2.72Zm16.19-2.14a7.3,7.3,0,0,1-2.82-.54,6.92,6.92,0,0,1-3.72-3.84,7.76,7.76,0,0,1-.52-2.82,7.62,7.62,0,0,1,.52-2.8,6.84,6.84,0,0,1,1.48-2.3,7.41,7.41,0,0,1,8-1.54,7.28,7.28,0,0,1,2.2,1.52l-1.56,1.56a4.25,4.25,0,0,0-1.52-1.06,5.19,5.19,0,0,0-2.06-.38,4.91,4.91,0,0,0-1.9.36,4.45,4.45,0,0,0-1.5,1,4.75,4.75,0,0,0-1,1.58,6.17,6.17,0,0,0,0,4,5,5,0,0,0,1,1.6,4.54,4.54,0,0,0,1.5,1,4.91,4.91,0,0,0,1.9.36,5.46,5.46,0,0,0,2.16-.38,4.56,4.56,0,0,0,1.52-1.08l1.56,1.56a7,7,0,0,1-2.26,1.54A7.51,7.51,0,0,1,1195.16,258.2Zm6,.6,5.6-15.6h2.06l-5.6,15.6Zm13.37-.8V244h2.3v14Zm1.58-6v-2.1h7.12V252Zm0-5.9V244h7.46v2.1Zm13.38,12.1a4.38,4.38,0,0,1-2.18-.54,4,4,0,0,1-1.48-1.48,4.61,4.61,0,0,1-.52-2.2V248.4h2.2v5.48a3.06,3.06,0,0,0,.22,1.2,1.74,1.74,0,0,0,.68.74,2.21,2.21,0,0,0,1.08.26,1.86,1.86,0,0,0,1.46-.56,2.36,2.36,0,0,0,.52-1.64V248.4h2.2V254a4.45,4.45,0,0,1-.54,2.22,3.71,3.71,0,0,1-1.46,1.48A4.37,4.37,0,0,1,1229.45,258.2Zm10.86,0a5.25,5.25,0,0,1-2.6-.64,4.89,4.89,0,0,1-2.48-4.36,4.9,4.9,0,0,1,5-5,4.49,4.49,0,0,1,2.36.62,4.35,4.35,0,0,1,1.62,1.7,5,5,0,0,1,.6,2.46,4.38,4.38,0,0,1,0,.5c0,.16,0,.34-.08.54h-7.88v-1.8h6.74l-.82.72a3.71,3.71,0,0,0-.34-1.48,2.13,2.13,0,0,0-.86-.92,2.63,2.63,0,0,0-1.34-.32,2.85,2.85,0,0,0-1.46.36,2.37,2.37,0,0,0-1,1,3.21,3.21,0,0,0-.34,1.54,3.32,3.32,0,0,0,.36,1.58,2.6,2.6,0,0,0,1,1.06,3.11,3.11,0,0,0,1.52.36,3.58,3.58,0,0,0,1.36-.26,3,3,0,0,0,1.08-.76l1.4,1.42a4.53,4.53,0,0,1-1.7,1.24A5.45,5.45,0,0,1,1240.31,258.2Zm6.22-.2v-9.6h2.2V258Zm2.2-5.34-.76-.38a5,5,0,0,1,.8-2.94,2.84,2.84,0,0,1,2.46-1.14,3.21,3.21,0,0,1,1.3.26,3,3,0,0,1,1.08.84l-1.44,1.48a1.48,1.48,0,0,0-.58-.4,2.3,2.3,0,0,0-2.26.46A2.43,2.43,0,0,0,1248.73,252.66Zm7.42,5.34V244.4h2.2V258Zm-2.3-7.6v-2h6.8v2Zm12.59,7.8a5.25,5.25,0,0,1-2.6-.64,4.89,4.89,0,0,1-2.48-4.36,4.9,4.9,0,0,1,5-5,4.49,4.49,0,0,1,2.36.62,4.35,4.35,0,0,1,1.62,1.7,5,5,0,0,1,.6,2.46,2.89,2.89,0,0,1,0,.5,4.16,4.16,0,0,1-.08.54h-7.88v-1.8h6.74l-.82.72a3.71,3.71,0,0,0-.34-1.48,2.13,2.13,0,0,0-.86-.92,2.63,2.63,0,0,0-1.34-.32,2.85,2.85,0,0,0-1.46.36,2.49,2.49,0,0,0-1,1,3.21,3.21,0,0,0-.34,1.54,3.32,3.32,0,0,0,.36,1.58,2.6,2.6,0,0,0,1,1.06,3.13,3.13,0,0,0,1.52.36,3.54,3.54,0,0,0,1.36-.26,2.79,2.79,0,0,0,1.08-.76l1.4,1.42a4.46,4.46,0,0,1-1.7,1.24A5.42,5.42,0,0,1,1266.44,258.2Zm9.31-.2-4.38-9.6h2.44l3.34,7.82h-1.44l3.36-7.82h2.34L1277,258Zm11.08.2a5.25,5.25,0,0,1-2.6-.64,4.89,4.89,0,0,1-2.48-4.36,4.9,4.9,0,0,1,5-5,4.49,4.49,0,0,1,2.36.62,4.35,4.35,0,0,1,1.62,1.7,5,5,0,0,1,.6,2.46,2.89,2.89,0,0,1,0,.5,4.16,4.16,0,0,1-.08.54h-7.88v-1.8H1290l-.82.72a3.71,3.71,0,0,0-.34-1.48,2.13,2.13,0,0,0-.86-.92,2.63,2.63,0,0,0-1.34-.32,2.85,2.85,0,0,0-1.46.36,2.49,2.49,0,0,0-1,1,3.21,3.21,0,0,0-.34,1.54,3.32,3.32,0,0,0,.36,1.58,2.6,2.6,0,0,0,1,1.06,3.13,3.13,0,0,0,1.52.36,3.54,3.54,0,0,0,1.36-.26,2.79,2.79,0,0,0,1.08-.76l1.4,1.42a4.46,4.46,0,0,1-1.7,1.24A5.42,5.42,0,0,1,1286.83,258.2Zm12.8-.2v-5.54a2.11,2.11,0,0,0-.62-1.58,2.09,2.09,0,0,0-1.56-.62,2.29,2.29,0,0,0-1.14.28,2.09,2.09,0,0,0-.78.78,2.35,2.35,0,0,0-.28,1.14l-.86-.48a3.85,3.85,0,0,1,.48-1.94,3.47,3.47,0,0,1,1.32-1.34,3.82,3.82,0,0,1,1.92-.5,3.41,3.41,0,0,1,1.92.56,3.83,3.83,0,0,1,1.32,1.42,3.62,3.62,0,0,1,.48,1.8v6Zm-6.58,0v-9.6h2.2V258Zm12.36,0V244.4h2.2V258Zm-2.3-7.6v-2h6.8v2Zm12.34,7.8a4.38,4.38,0,0,1-2.18-.54,3.9,3.9,0,0,1-1.48-1.48,4.5,4.5,0,0,1-.52-2.2V248.4h2.2v5.48a2.89,2.89,0,0,0,.22,1.2,1.74,1.74,0,0,0,.68.74,2.21,2.21,0,0,0,1.08.26,1.86,1.86,0,0,0,1.46-.56,2.36,2.36,0,0,0,.52-1.64V248.4h2.2V254a4.45,4.45,0,0,1-.54,2.22,3.78,3.78,0,0,1-1.46,1.48A4.39,4.39,0,0,1,1315.45,258.2Zm6.39-.2v-9.6h2.2V258Zm2.2-5.34-.76-.38a5,5,0,0,1,.8-2.94,2.84,2.84,0,0,1,2.46-1.14,3.18,3.18,0,0,1,1.3.26,3,3,0,0,1,1.08.84l-1.44,1.48a1.41,1.41,0,0,0-.58-.4,2.3,2.3,0,0,0-2.26.46A2.43,2.43,0,0,0,1324,252.66Zm9.67,5.54a4.4,4.4,0,0,1-2.36-.66,4.91,4.91,0,0,1-1.66-1.78,5.38,5.38,0,0,1-.6-2.54,5.29,5.29,0,0,1,.6-2.54,4.89,4.89,0,0,1,1.66-1.8,4.33,4.33,0,0,1,2.36-.68,3.82,3.82,0,0,1,1.94.48,3.47,3.47,0,0,1,1.86,3.14v2.76a3.46,3.46,0,0,1-.5,1.86,3.42,3.42,0,0,1-1.34,1.3A4,4,0,0,1,1333.71,258.2Zm.36-2.08a2.49,2.49,0,0,0,2-.82,3,3,0,0,0,.76-2.1,3.24,3.24,0,0,0-.34-1.52,2.37,2.37,0,0,0-1-1,2.62,2.62,0,0,0-1.42-.38,2.72,2.72,0,0,0-1.42.38,2.63,2.63,0,0,0-1,1,3.57,3.57,0,0,0,0,3,2.75,2.75,0,0,0,1,1A2.8,2.8,0,0,0,1334.07,256.12Zm2.58,1.88v-2.58l.38-2.34-.38-2.32V248.4h2.2V258Zm10.75,0V244h2.26v14Zm-2.8-11.94V244h4.86v2.06Zm7.15,10.58,5.16-5.48a13.44,13.44,0,0,0,1-1.22,4.15,4.15,0,0,0,.58-1,2.78,2.78,0,0,0,.18-1,1.81,1.81,0,0,0-.62-1.46,2.21,2.21,0,0,0-1.54-.54,3.16,3.16,0,0,0-1.76.5,4.33,4.33,0,0,0-1.36,1.56l-1.6-1.32a5.81,5.81,0,0,1,2-2.14,5.23,5.23,0,0,1,2.78-.74,4.74,4.74,0,0,1,2.28.52,3.75,3.75,0,0,1,1.52,1.46,4.15,4.15,0,0,1,.54,2.14,5.16,5.16,0,0,1-.22,1.58,4.73,4.73,0,0,1-.7,1.38,16,16,0,0,1-1.38,1.6l-4,4.1Zm0,1.36v-1.36l2-.7h7.52V258ZM934.42,288.2a6.12,6.12,0,0,1-2.82-.6,6.59,6.59,0,0,1-2.08-1.76l1.56-1.56a4.55,4.55,0,0,0,1.38,1.32,4,4,0,0,0,2,.46,3.12,3.12,0,0,0,1.84-.48,1.51,1.51,0,0,0,.7-1.32,1.73,1.73,0,0,0-.36-1.14,2.76,2.76,0,0,0-1-.72,7.82,7.82,0,0,0-1.3-.52c-.46-.16-.94-.33-1.42-.52a6.63,6.63,0,0,1-1.3-.74,3.31,3.31,0,0,1-.94-1.14,3.89,3.89,0,0,1-.36-1.78,3.56,3.56,0,0,1,.6-2.1,3.93,3.93,0,0,1,1.66-1.34,5.62,5.62,0,0,1,2.32-.46,5.43,5.43,0,0,1,2.46.54,5.19,5.19,0,0,1,1.78,1.38l-1.56,1.56a4.08,4.08,0,0,0-1.26-1,3.08,3.08,0,0,0-1.48-.34,2.82,2.82,0,0,0-1.64.42,1.38,1.38,0,0,0-.58,1.18,1.5,1.5,0,0,0,.36,1,3.26,3.26,0,0,0,.94.66c.4.17.84.34,1.3.5s1,.34,1.42.54a5,5,0,0,1,1.3.78,3.36,3.36,0,0,1,1,1.2,4.22,4.22,0,0,1,.36,1.86,3.63,3.63,0,0,1-1.34,3A5.43,5.43,0,0,1,934.42,288.2Zm10.82,0a4.37,4.37,0,0,1-2.36-.66,4.74,4.74,0,0,1-1.66-1.78,5.38,5.38,0,0,1-.6-2.54,5.29,5.29,0,0,1,.6-2.54,4.73,4.73,0,0,1,1.66-1.8,4.31,4.31,0,0,1,2.36-.68,3.85,3.85,0,0,1,1.94.48,3.49,3.49,0,0,1,1.36,1.28,3.55,3.55,0,0,1,.5,1.86v2.76a3.55,3.55,0,0,1-.5,1.86,3.49,3.49,0,0,1-1.34,1.3A4.05,4.05,0,0,1,945.24,288.2Zm.36-2.08a2.5,2.5,0,0,0,2-.82,3,3,0,0,0,.76-2.1,3.24,3.24,0,0,0-.34-1.52,2.49,2.49,0,0,0-1-1,2.62,2.62,0,0,0-1.42-.38,2.69,2.69,0,0,0-1.42.38,2.63,2.63,0,0,0-1,1,3.57,3.57,0,0,0,0,3,2.53,2.53,0,0,0,2.38,1.4Zm2.58,1.88v-2.58l.38-2.34-.38-2.32V278.4h2.2V288Zm11.22,0v-5.54a2.15,2.15,0,0,0-.62-1.58,2.09,2.09,0,0,0-1.56-.62,2.24,2.24,0,0,0-1.14.28,2.09,2.09,0,0,0-.78.78,2.24,2.24,0,0,0-.28,1.14l-.86-.48a3.85,3.85,0,0,1,.48-1.94A3.47,3.47,0,0,1,956,278.7a3.77,3.77,0,0,1,1.92-.5,3.41,3.41,0,0,1,1.92.56,3.83,3.83,0,0,1,1.32,1.42,3.62,3.62,0,0,1,.48,1.8v6Zm-6.58,0v-9.6H955V288Zm19.22.2a6.06,6.06,0,0,1-2.82-.6,6.48,6.48,0,0,1-2.08-1.76l1.56-1.56a4.55,4.55,0,0,0,1.38,1.32,4,4,0,0,0,2,.46,3.14,3.14,0,0,0,1.84-.48,1.51,1.51,0,0,0,.7-1.32,1.73,1.73,0,0,0-.36-1.14,2.76,2.76,0,0,0-1-.72,8.19,8.19,0,0,0-1.3-.52c-.47-.16-.94-.33-1.42-.52a6.63,6.63,0,0,1-1.3-.74,3.2,3.2,0,0,1-.94-1.14,3.89,3.89,0,0,1-.36-1.78,3.56,3.56,0,0,1,.6-2.1,3.93,3.93,0,0,1,1.66-1.34,5.62,5.62,0,0,1,2.32-.46,5.43,5.43,0,0,1,2.46.54,5.19,5.19,0,0,1,1.78,1.38l-1.56,1.56a4.08,4.08,0,0,0-1.26-1,3.08,3.08,0,0,0-1.48-.34,2.82,2.82,0,0,0-1.64.42,1.36,1.36,0,0,0-.58,1.18,1.5,1.5,0,0,0,.36,1,3.26,3.26,0,0,0,.94.66c.4.17.83.34,1.3.5s1,.34,1.42.54a5.16,5.16,0,0,1,1.3.78,3.36,3.36,0,0,1,1,1.2,4.22,4.22,0,0,1,.36,1.86,3.66,3.66,0,0,1-1.34,3A5.43,5.43,0,0,1,972,288.2Zm11.25,0a5.24,5.24,0,0,1-2.59-.64,4.89,4.89,0,0,1-2.48-4.36,4.81,4.81,0,0,1,.66-2.54,4.86,4.86,0,0,1,4.29-2.46,4.47,4.47,0,0,1,2.36.62,4.3,4.3,0,0,1,1.63,1.7,5.09,5.09,0,0,1,.6,2.46,4.38,4.38,0,0,1,0,.5c0,.16-.05.34-.08.54h-7.88v-1.8h6.73l-.82.72a3.72,3.72,0,0,0-.33-1.48,2.09,2.09,0,0,0-.87-.92,2.59,2.59,0,0,0-1.33-.32,2.91,2.91,0,0,0-1.47.36,2.4,2.4,0,0,0-.95,1,3.21,3.21,0,0,0-.34,1.54,3.32,3.32,0,0,0,.35,1.58,2.63,2.63,0,0,0,1,1.06,3.11,3.11,0,0,0,1.52.36,3.58,3.58,0,0,0,1.36-.26,3,3,0,0,0,1.08-.76l1.39,1.42a4.38,4.38,0,0,1-1.7,1.24A5.38,5.38,0,0,1,983.29,288.2Zm11.37,0a4,4,0,0,1-2-.46,3.47,3.47,0,0,1-1.84-3.16v-2.76a3.55,3.55,0,0,1,.5-1.86,3.49,3.49,0,0,1,1.36-1.28,3.9,3.9,0,0,1,1.94-.48,4.22,4.22,0,0,1,2.34.68,4.58,4.58,0,0,1,1.66,1.8,5.19,5.19,0,0,1,.62,2.54,5.28,5.28,0,0,1-.62,2.54,4.59,4.59,0,0,1-1.66,1.78A4.28,4.28,0,0,1,994.66,288.2Zm-.36-2.08a2.68,2.68,0,0,0,1.4-.36,2.61,2.61,0,0,0,1-1,3.39,3.39,0,0,0,0-3,2.49,2.49,0,0,0-1-1,2.6,2.6,0,0,0-1.4-.38,2.69,2.69,0,0,0-1.42.38,2.49,2.49,0,0,0-1,1,3.57,3.57,0,0,0,0,3,2.61,2.61,0,0,0,1,1A2.78,2.78,0,0,0,994.3,286.12ZM989.52,288V273.6h2.2v7.16l-.38,2.32.38,2.34V288Zm15.62.2a4.37,4.37,0,0,1-2.36-.66,4.82,4.82,0,0,1-1.66-1.78,5.38,5.38,0,0,1-.6-2.54,5.29,5.29,0,0,1,.6-2.54,4.81,4.81,0,0,1,1.66-1.8,4.31,4.31,0,0,1,2.36-.68,3.85,3.85,0,0,1,1.94.48,3.49,3.49,0,0,1,1.36,1.28,3.55,3.55,0,0,1,.5,1.86v2.76a3.55,3.55,0,0,1-.5,1.86,3.49,3.49,0,0,1-1.34,1.3A4.05,4.05,0,0,1,1005.14,288.2Zm.36-2.08a2.5,2.5,0,0,0,2-.82,3,3,0,0,0,.76-2.1,3.24,3.24,0,0,0-.34-1.52,2.49,2.49,0,0,0-1-1,2.62,2.62,0,0,0-1.42-.38,2.69,2.69,0,0,0-1.42.38,2.63,2.63,0,0,0-1,1,3.57,3.57,0,0,0,0,3,2.53,2.53,0,0,0,2.38,1.4Zm2.58,1.88v-2.58l.38-2.34-.38-2.32V278.4h2.2V288Zm7.78.2a6.08,6.08,0,0,1-1.54-.2,6.17,6.17,0,0,1-1.36-.6,5,5,0,0,1-1.08-1l1.4-1.4a3.5,3.5,0,0,0,1.14.88,3.72,3.72,0,0,0,1.48.28A2.22,2.22,0,0,0,1017,286a.69.69,0,0,0,.38-.64.77.77,0,0,0-.36-.68,3.32,3.32,0,0,0-.94-.4l-1.2-.36a6.83,6.83,0,0,1-1.2-.48,2.7,2.7,0,0,1-.92-.86,2.49,2.49,0,0,1-.36-1.4,2.67,2.67,0,0,1,1.64-2.6,5.18,5.18,0,0,1,3.94.06,3.69,3.69,0,0,1,1.5,1.22l-1.4,1.4a2.72,2.72,0,0,0-1-.78,2.86,2.86,0,0,0-1.24-.26,2.17,2.17,0,0,0-1,.2.63.63,0,0,0-.36.58.69.69,0,0,0,.36.62,3.81,3.81,0,0,0,.92.38l1.2.36a4.59,4.59,0,0,1,1.2.52,2.56,2.56,0,0,1,.94.88,2.51,2.51,0,0,1,.36,1.42,2.73,2.73,0,0,1-1,2.22A4,4,0,0,1,1015.86,288.2Zm6.92-.2V274.4h2.2V288Zm-2.3-7.6v-2h6.8v2Zm8.41,7.6v-9.6h2.2V288Zm1.1-11.36a1.32,1.32,0,1,1,0-2.64,1.24,1.24,0,0,1,.94.38,1.41,1.41,0,0,1,0,1.88A1.24,1.24,0,0,1,1030,276.64Zm7.59,11.56a4.4,4.4,0,0,1-2.36-.66,4.91,4.91,0,0,1-1.66-1.78,5.38,5.38,0,0,1-.6-2.54,5.29,5.29,0,0,1,.6-2.54,4.89,4.89,0,0,1,1.66-1.8,4.33,4.33,0,0,1,2.36-.68,3.82,3.82,0,0,1,1.94.48,3.47,3.47,0,0,1,1.86,3.14v2.76a3.46,3.46,0,0,1-.5,1.86,3.42,3.42,0,0,1-1.34,1.3A4,4,0,0,1,1037.58,288.2Zm.36-2.08a2.49,2.49,0,0,0,2-.82,3,3,0,0,0,.76-2.1,3.24,3.24,0,0,0-.34-1.52,2.37,2.37,0,0,0-1-1,2.62,2.62,0,0,0-1.42-.38,2.72,2.72,0,0,0-1.42.38,2.63,2.63,0,0,0-1,1,3.57,3.57,0,0,0,0,3,2.75,2.75,0,0,0,1,1A2.8,2.8,0,0,0,1037.94,286.12Zm2.58,1.88v-2.58l.38-2.34-.38-2.32V278.4h2.2V288Zm-3.72-11-1-1,2.56-3.26,1.7,1.7Zm14.94,11v-5.54a2.11,2.11,0,0,0-.62-1.58,2.09,2.09,0,0,0-1.56-.62,2.29,2.29,0,0,0-1.14.28,2.09,2.09,0,0,0-.78.78,2.35,2.35,0,0,0-.28,1.14l-.86-.48A3.85,3.85,0,0,1,1047,280a3.47,3.47,0,0,1,1.32-1.34,3.82,3.82,0,0,1,1.92-.5,3.41,3.41,0,0,1,1.92.56,3.83,3.83,0,0,1,1.32,1.42,3.62,3.62,0,0,1,.48,1.8v6Zm-6.58,0v-9.6h2.2V288Zm19,.2a4.4,4.4,0,0,1-2.36-.66,4.91,4.91,0,0,1-1.66-1.78,5.38,5.38,0,0,1-.6-2.54,5.29,5.29,0,0,1,.6-2.54,4.89,4.89,0,0,1,1.66-1.8,4.33,4.33,0,0,1,2.36-.68,3.82,3.82,0,0,1,1.94.48,3.47,3.47,0,0,1,1.86,3.14v2.76a3.46,3.46,0,0,1-.5,1.86,3.42,3.42,0,0,1-1.34,1.3A4,4,0,0,1,1064.2,288.2Zm.36-2.08a2.7,2.7,0,0,0,1.42-.36,2.47,2.47,0,0,0,1-1,3.57,3.57,0,0,0,0-3,2.37,2.37,0,0,0-1-1,2.62,2.62,0,0,0-1.42-.38,2.72,2.72,0,0,0-1.42.38,2.63,2.63,0,0,0-1,1,3.57,3.57,0,0,0,0,3,2.75,2.75,0,0,0,1,1A2.8,2.8,0,0,0,1064.56,286.12Zm4.78,1.88h-2.2v-2.58l.38-2.34-.38-2.32V273.6h2.2Zm6.9.2a5.27,5.27,0,0,1-2.6-.64,5.06,5.06,0,0,1-1.82-1.8,5,5,0,0,1-.66-2.56,4.9,4.9,0,0,1,5-5,4.47,4.47,0,0,1,2.36.62,4.21,4.21,0,0,1,1.62,1.7,5,5,0,0,1,.6,2.46,2.89,2.89,0,0,1,0,.5,4.16,4.16,0,0,1-.08.54h-7.88v-1.8h6.74l-.82.72a3.55,3.55,0,0,0-.34-1.48,2.07,2.07,0,0,0-.86-.92,2.61,2.61,0,0,0-1.34-.32,2.87,2.87,0,0,0-1.46.36,2.49,2.49,0,0,0-1,1,3.65,3.65,0,0,0,0,3.12,2.6,2.6,0,0,0,1,1.06,3.13,3.13,0,0,0,1.52.36,3.51,3.51,0,0,0,1.36-.26,2.79,2.79,0,0,0,1.08-.76l1.4,1.42a4.38,4.38,0,0,1-1.7,1.24A5.38,5.38,0,0,1,1076.24,288.2Zm10.23-.2V273.6h2.2V288Zm9,.2a5,5,0,0,1-2.54-.66,5.12,5.12,0,0,1-1.82-1.82,5,5,0,0,1-.66-2.54,4.89,4.89,0,0,1,.66-2.52,5,5,0,0,1,1.82-1.78,4.9,4.9,0,0,1,2.54-.68,5,5,0,0,1,2.56.66,4.86,4.86,0,0,1,1.8,1.8,4.81,4.81,0,0,1,.68,2.52,4.9,4.9,0,0,1-.68,2.54,4.89,4.89,0,0,1-4.36,2.48Zm0-2.12a2.8,2.8,0,0,0,1.44-.36,2.52,2.52,0,0,0,1-1,3.08,3.08,0,0,0,.36-1.5,3,3,0,0,0-.36-1.48,2.62,2.62,0,0,0-1-1,2.71,2.71,0,0,0-1.44-.38,2.82,2.82,0,0,0-1.44.38,2.62,2.62,0,0,0-1,1,3.08,3.08,0,0,0-.34,1.48,3.19,3.19,0,0,0,.34,1.5,2.73,2.73,0,0,0,1,1A2.9,2.9,0,0,0,1095.52,286.08Zm10,2.12a5.33,5.33,0,0,1-2.9-.8,5,5,0,0,1-1.08-1l1.4-1.4a3.31,3.31,0,0,0,1.14.88,3.69,3.69,0,0,0,1.48.28,2.24,2.24,0,0,0,1.12-.22.71.71,0,0,0,.38-.64.77.77,0,0,0-.36-.68,3.32,3.32,0,0,0-.94-.4l-1.2-.36a6.83,6.83,0,0,1-1.2-.48,2.7,2.7,0,0,1-.92-.86,2.49,2.49,0,0,1-.36-1.4,2.89,2.89,0,0,1,.42-1.58,2.86,2.86,0,0,1,1.22-1,4.6,4.6,0,0,1,1.9-.36,4.71,4.71,0,0,1,2,.42,3.69,3.69,0,0,1,1.5,1.22l-1.4,1.4a2.72,2.72,0,0,0-1-.78,2.86,2.86,0,0,0-1.24-.26,2.17,2.17,0,0,0-1,.2.63.63,0,0,0-.36.58.69.69,0,0,0,.36.62,3.81,3.81,0,0,0,.92.38l1.2.36a4.59,4.59,0,0,1,1.2.52,2.56,2.56,0,0,1,.94.88,2.51,2.51,0,0,1,.36,1.42,2.76,2.76,0,0,1-1,2.22A4,4,0,0,1,1105.53,288.2Zm11.34-6.14v-1.9h3.54a2.33,2.33,0,0,0,1.64-.54,2,2,0,0,0,.6-1.54,2.07,2.07,0,0,0-.58-1.48,2.19,2.19,0,0,0-1.64-.6h-3.56v-2h3.66a4.82,4.82,0,0,1,2.32.54,3.88,3.88,0,0,1,2.1,3.5,4,4,0,0,1-.56,2.12,3.67,3.67,0,0,1-1.54,1.4,5.18,5.18,0,0,1-2.32.5Zm-1.58,5.94V274h2.3v14Zm7.68,0-4.9-6.08,2.14-.78,5.66,6.86Zm8.47.2a5.25,5.25,0,0,1-2.6-.64,4.89,4.89,0,0,1-2.48-4.36,4.9,4.9,0,0,1,5-5,4.49,4.49,0,0,1,2.36.62,4.35,4.35,0,0,1,1.62,1.7,5,5,0,0,1,.6,2.46,2.89,2.89,0,0,1,0,.5,4.16,4.16,0,0,1-.08.54h-7.88v-1.8h6.74l-.82.72a3.71,3.71,0,0,0-.34-1.48,2.13,2.13,0,0,0-.86-.92,2.63,2.63,0,0,0-1.34-.32,2.85,2.85,0,0,0-1.46.36,2.49,2.49,0,0,0-1,1,3.21,3.21,0,0,0-.34,1.54,3.32,3.32,0,0,0,.36,1.58,2.6,2.6,0,0,0,1,1.06,3.13,3.13,0,0,0,1.52.36,3.54,3.54,0,0,0,1.36-.26,2.79,2.79,0,0,0,1.08-.76l1.4,1.42a4.46,4.46,0,0,1-1.7,1.24A5.42,5.42,0,0,1,1131.44,288.2Zm9.17-.1-4.1-9.7h2.42l2.8,7.12h-.7l3-7.12h2.44l-4.46,9.7Zm-2.86,3.9,3-6.14,1.24,2.24-1.78,3.9Zm14.08-3.8a5.25,5.25,0,0,1-2.6-.64,4.89,4.89,0,0,1-2.48-4.36,4.9,4.9,0,0,1,5-5,4.49,4.49,0,0,1,2.36.62,4.35,4.35,0,0,1,1.62,1.7,5,5,0,0,1,.6,2.46,2.89,2.89,0,0,1,0,.5,4.16,4.16,0,0,1-.08.54h-7.88v-1.8H1155l-.82.72a3.71,3.71,0,0,0-.34-1.48,2.13,2.13,0,0,0-.86-.92,2.63,2.63,0,0,0-1.34-.32,2.85,2.85,0,0,0-1.46.36,2.49,2.49,0,0,0-1,1,3.21,3.21,0,0,0-.34,1.54,3.32,3.32,0,0,0,.36,1.58,2.6,2.6,0,0,0,1,1.06,3.13,3.13,0,0,0,1.52.36,3.54,3.54,0,0,0,1.36-.26,2.79,2.79,0,0,0,1.08-.76l1.4,1.42a4.46,4.46,0,0,1-1.7,1.24A5.42,5.42,0,0,1,1151.83,288.2Zm9.36,0a6.08,6.08,0,0,1-1.54-.2,6.17,6.17,0,0,1-1.36-.6,5,5,0,0,1-1.08-1l1.4-1.4a3.5,3.5,0,0,0,1.14.88,3.72,3.72,0,0,0,1.48.28,2.22,2.22,0,0,0,1.12-.22.69.69,0,0,0,.38-.64.77.77,0,0,0-.36-.68,3.32,3.32,0,0,0-.94-.4l-1.2-.36a6.83,6.83,0,0,1-1.2-.48,2.7,2.7,0,0,1-.92-.86,2.49,2.49,0,0,1-.36-1.4,2.67,2.67,0,0,1,1.64-2.6,5.18,5.18,0,0,1,3.94.06,3.69,3.69,0,0,1,1.5,1.22l-1.4,1.4a2.72,2.72,0,0,0-1-.78,2.86,2.86,0,0,0-1.24-.26,2.17,2.17,0,0,0-1,.2.63.63,0,0,0-.36.58.69.69,0,0,0,.36.62,3.81,3.81,0,0,0,.92.38l1.2.36a4.59,4.59,0,0,1,1.2.52,2.56,2.56,0,0,1,.94.88,2.51,2.51,0,0,1,.36,1.42,2.73,2.73,0,0,1-1,2.22A4,4,0,0,1,1161.19,288.2Zm5.46,2.14,1.36-2.54.74-.2a1.77,1.77,0,0,1-.28.4.52.52,0,0,1-.38.16,1.23,1.23,0,0,1-.86-.38,1.37,1.37,0,0,1-.38-1,1.49,1.49,0,0,1,.42-1.08,1.41,1.41,0,0,1,1.08-.46,1.39,1.39,0,0,1,1,.46,1.45,1.45,0,0,1,.46,1.08,2,2,0,0,1-.12.62,6.1,6.1,0,0,1-.38.88l-1.48,2.72Zm8.87-3.7,5.16-5.48a13.44,13.44,0,0,0,1-1.22,4.15,4.15,0,0,0,.58-1,2.78,2.78,0,0,0,.18-1,1.81,1.81,0,0,0-.62-1.46,2.21,2.21,0,0,0-1.54-.54,3.16,3.16,0,0,0-1.76.5,4.33,4.33,0,0,0-1.36,1.56l-1.6-1.32a5.81,5.81,0,0,1,2-2.14,5.23,5.23,0,0,1,2.78-.74,4.74,4.74,0,0,1,2.28.52,3.75,3.75,0,0,1,1.52,1.46,4.15,4.15,0,0,1,.54,2.14,5.16,5.16,0,0,1-.22,1.58,4.73,4.73,0,0,1-.7,1.38,16,16,0,0,1-1.38,1.6l-4,4.1Zm0,1.36v-1.36l2-.7H1185V288Zm15.74.2a5.58,5.58,0,0,1-2.5-.52,4.1,4.1,0,0,1-1.66-1.44,3.93,3.93,0,0,1-.58-2.12,4,4,0,0,1,.36-1.72A3.75,3.75,0,0,1,1188,281a4.53,4.53,0,0,1,1.7-.8l-.06.64a3.42,3.42,0,0,1-1.36-.72,3.35,3.35,0,0,1-.82-1.18,3.86,3.86,0,0,1,.24-3.38,3.69,3.69,0,0,1,1.48-1.34,4.59,4.59,0,0,1,2.12-.48,4.51,4.51,0,0,1,2.12.48,3.57,3.57,0,0,1,1.46,1.34,3.54,3.54,0,0,1,.54,2,3.63,3.63,0,0,1-.28,1.42,3.35,3.35,0,0,1-.82,1.18,3.22,3.22,0,0,1-1.36.72l-.06-.64a4.32,4.32,0,0,1,1.7.8,3.59,3.59,0,0,1,1.06,1.36,4.13,4.13,0,0,1-.2,3.84,4,4,0,0,1-1.66,1.44A5.58,5.58,0,0,1,1191.26,288.2Zm0-2.08a2.71,2.71,0,0,0,1.3-.3,2.17,2.17,0,0,0,.9-.82,2.09,2.09,0,0,0,.34-1.18,2,2,0,0,0-.34-1.18,2.17,2.17,0,0,0-.9-.82,2.71,2.71,0,0,0-1.3-.3,2.85,2.85,0,0,0-1.32.3,2.45,2.45,0,0,0-.9.82,2.17,2.17,0,0,0-.32,1.18A2.24,2.24,0,0,0,1189,285a2.45,2.45,0,0,0,.9.82A2.85,2.85,0,0,0,1191.26,286.12Zm0-6.4a1.92,1.92,0,0,0,2-2,1.89,1.89,0,0,0-.56-1.42,2,2,0,0,0-1.44-.56,2,2,0,0,0-1.44.56,1.89,1.89,0,0,0-.56,1.42,2,2,0,0,0,.56,1.44A2,2,0,0,0,1191.26,279.72Zm7.51,8.28,5.1-12.6h2.28l-5,12.6Zm-2-11.94V274h9.38v1.4l-1,.66ZM1213,288.2a5.1,5.1,0,0,1-2.9-.88,6.37,6.37,0,0,1-2.08-2.52,8.71,8.71,0,0,1-.78-3.82,8.88,8.88,0,0,1,.76-3.8,6.23,6.23,0,0,1,2.08-2.5,5.19,5.19,0,0,1,5.78,0,6,6,0,0,1,2.06,2.5,9.74,9.74,0,0,1,0,7.64,6,6,0,0,1-2.06,2.5A4.89,4.89,0,0,1,1213,288.2Zm0-2.16a2.94,2.94,0,0,0,1.8-.56,3.52,3.52,0,0,0,1.18-1.68,7.66,7.66,0,0,0,.44-2.82,7.58,7.58,0,0,0-.44-2.8,3.37,3.37,0,0,0-1.2-1.66,2.93,2.93,0,0,0-1.78-.56,3,3,0,0,0-1.8.56,3.47,3.47,0,0,0-1.18,1.66,7.94,7.94,0,0,0-.42,2.8,8.14,8.14,0,0,0,.42,2.82,3.59,3.59,0,0,0,1.18,1.68A3,3,0,0,0,1212.92,286Zm11.49,2.16a6.33,6.33,0,0,1-2.54-.5,5.24,5.24,0,0,1-1.9-1.5l1.56-1.56a2.88,2.88,0,0,0,1.18,1,3.71,3.71,0,0,0,1.66.38,3.23,3.23,0,0,0,1.48-.32,2.32,2.32,0,0,0,1-.9,2.49,2.49,0,0,0,.36-1.34,2.46,2.46,0,0,0-.36-1.36,2.23,2.23,0,0,0-1-.86,3.53,3.53,0,0,0-1.56-.32,4.71,4.71,0,0,0-.74.06,3.26,3.26,0,0,0-.68.14l1-1.32a6,6,0,0,1,.88-.26,3.81,3.81,0,0,1,.92-.12,3.64,3.64,0,0,1,1.94.52,3.6,3.6,0,0,1,1.38,1.46,4.32,4.32,0,0,1,.52,2.18,4.34,4.34,0,0,1-2.42,4A5.76,5.76,0,0,1,1224.41,288.2Zm-1.58-7.06v-1.36l3.74-4.36,2.76-.06-3.9,4.48Zm-2.16-5.08V274h8.66v1.36l-2,.7ZM1235.81,288V274h1.6l5.82,9.58h-1L1248,274h1.6v14h-2.3V278l.52.14-4.32,7.1h-1.6l-4.32-7.1.52-.14v10Zm20.56.2a4.37,4.37,0,0,1-2.36-.66,4.82,4.82,0,0,1-1.66-1.78,5.38,5.38,0,0,1-.6-2.54,5.29,5.29,0,0,1,.6-2.54,4.81,4.81,0,0,1,1.66-1.8,4.31,4.31,0,0,1,2.36-.68,3.85,3.85,0,0,1,1.94.48,3.49,3.49,0,0,1,1.36,1.28,3.55,3.55,0,0,1,.5,1.86v2.76a3.55,3.55,0,0,1-.5,1.86,3.49,3.49,0,0,1-1.34,1.3A4.05,4.05,0,0,1,1256.37,288.2Zm.36-2.08a2.5,2.5,0,0,0,2-.82,3,3,0,0,0,.76-2.1,3.24,3.24,0,0,0-.34-1.52,2.49,2.49,0,0,0-1-1,2.62,2.62,0,0,0-1.42-.38,2.69,2.69,0,0,0-1.42.38,2.63,2.63,0,0,0-1,1,3.57,3.57,0,0,0,0,3,2.53,2.53,0,0,0,2.38,1.4Zm2.58,1.88v-2.58l.38-2.34-.38-2.32V278.4h2.2V288Zm8.66.2a4.4,4.4,0,0,1-2.36-.66,4.91,4.91,0,0,1-1.66-1.78,5.38,5.38,0,0,1-.6-2.54,5.29,5.29,0,0,1,.6-2.54,4.89,4.89,0,0,1,1.66-1.8,4.33,4.33,0,0,1,2.36-.68,3.82,3.82,0,0,1,1.94.48,3.47,3.47,0,0,1,1.86,3.14v2.76a3.46,3.46,0,0,1-.5,1.86,3.42,3.42,0,0,1-1.34,1.3A4,4,0,0,1,1268,288.2Zm.36-2.08a2.7,2.7,0,0,0,1.42-.36,2.47,2.47,0,0,0,1-1,3.57,3.57,0,0,0,0-3,2.37,2.37,0,0,0-1-1,2.62,2.62,0,0,0-1.42-.38,2.72,2.72,0,0,0-1.42.38,2.63,2.63,0,0,0-1,1,3.57,3.57,0,0,0,0,3,2.75,2.75,0,0,0,1,1A2.8,2.8,0,0,0,1268.33,286.12Zm4.78,1.88h-2.2v-2.58l.38-2.34-.38-2.32V273.6h2.2Zm2.44,0v-9.6h2.2V288Zm2.2-5.34-.76-.38a5,5,0,0,1,.8-2.94,2.84,2.84,0,0,1,2.46-1.14,3.18,3.18,0,0,1,1.3.26,3,3,0,0,1,1.08.84l-1.44,1.48a1.41,1.41,0,0,0-.58-.4,2.3,2.3,0,0,0-2.26.46A2.43,2.43,0,0,0,1277.75,282.66Zm6,5.34v-9.6h2.2V288Zm1.1-11.36a1.29,1.29,0,0,1-.94-.38,1.41,1.41,0,0,1,0-1.88,1.29,1.29,0,0,1,.94-.38,1.24,1.24,0,0,1,.94.38,1.41,1.41,0,0,1,0,1.88A1.24,1.24,0,0,1,1284.82,276.64Zm7.59,11.56a4.35,4.35,0,0,1-2.36-.66,4.74,4.74,0,0,1-1.66-1.78,5.38,5.38,0,0,1-.6-2.54,5.29,5.29,0,0,1,.6-2.54,4.73,4.73,0,0,1,1.66-1.8,4.28,4.28,0,0,1,2.36-.68,3.85,3.85,0,0,1,1.94.48,3.47,3.47,0,0,1,1.86,3.14v2.76a3.55,3.55,0,0,1-.5,1.86,3.49,3.49,0,0,1-1.34,1.3A4.08,4.08,0,0,1,1292.41,288.2Zm.36-2.08a2.72,2.72,0,0,0,1.42-.36,2.61,2.61,0,0,0,1-1,3.57,3.57,0,0,0,0-3,2.49,2.49,0,0,0-1-1,2.7,2.7,0,0,0-3.8,1,3.57,3.57,0,0,0,0,3,2.53,2.53,0,0,0,2.38,1.4Zm4.78,1.88h-2.2v-2.58l.38-2.34-.38-2.32V273.6h2.2Z"/></g></g></svg>