<svg xmlns="http://www.w3.org/2000/svg" xmlns:xlink="http://www.w3.org/1999/xlink" viewBox="0 0 1440 533.23"><defs><style>.cls-1,.cls-5,.cls-8{fill:none;}.cls-2{fill:#002c35;}.cls-3{fill:#0c6;}.cls-4{fill:#fff;}.cls-5{stroke:#afe7a0;}.cls-5,.cls-8{stroke-width:4px;}.cls-6{clip-path:url(#clip-path);}.cls-7{fill:#f2f2f2;}.cls-8{stroke:#0c6;}.cls-9{clip-path:url(#clip-path-2);}.cls-10{clip-path:url(#clip-path-3);}.cls-11{fill:#cffd8d;}.cls-12{clip-path:url(#clip-path-4);}.cls-13{clip-path:url(#clip-path-5);}.cls-14{clip-path:url(#clip-path-6);}.cls-15{clip-path:url(#clip-path-7);}.cls-16{clip-path:url(#clip-path-8);}.cls-17{clip-path:url(#clip-path-9);}.cls-18{clip-path:url(#clip-path-10);}.cls-19{clip-path:url(#clip-path-11);}.cls-20{clip-path:url(#clip-path-12);}</style><clipPath id="clip-path"><rect class="cls-1" x="1343.48" y="81.23" width="17" height="23"/></clipPath><clipPath id="clip-path-2"><rect class="cls-1" x="1343.48" y="207.23" width="17" height="23"/></clipPath><clipPath id="clip-path-3"><rect class="cls-1" x="30.5" y="389.23" width="19" height="14"/></clipPath><clipPath id="clip-path-4"><rect class="cls-1" x="89" y="385.73" width="14" height="21"/></clipPath><clipPath id="clip-path-5"><rect class="cls-1" x="140" y="387.73" width="24" height="21"/></clipPath><clipPath id="clip-path-6"><rect class="cls-1" x="199" y="387.73" width="18" height="17"/></clipPath><clipPath id="clip-path-7"><rect class="cls-1" x="251.5" y="384.73" width="25" height="23"/></clipPath><clipPath id="clip-path-8"><rect class="cls-1" x="30.5" y="488.23" width="19" height="14"/></clipPath><clipPath id="clip-path-9"><rect class="cls-1" x="89" y="484.73" width="14" height="21"/></clipPath><clipPath id="clip-path-10"><rect class="cls-1" x="140" y="486.73" width="24" height="21"/></clipPath><clipPath id="clip-path-11"><rect class="cls-1" x="199" y="486.73" width="18" height="17"/></clipPath><clipPath id="clip-path-12"><rect class="cls-1" x="251.5" y="483.73" width="25" height="23"/></clipPath></defs><g id="Capa_2" data-name="Capa 2"><g id="Capa_1-2" data-name="Capa 1"><rect class="cls-2" y="53.23" width="1440" height="80"/><path class="cls-3" d="M93.85,93.57v3.78a7.35,7.35,0,0,1,7.31,7.32v.1h3.77v-.1A11.1,11.1,0,0,0,93.85,93.57Z"/><path class="cls-4" d="M92.11,93.57H90.77a11.1,11.1,0,0,0,.82,22.16h.52V112c-.18,0-.35,0-.52,0a7.32,7.32,0,0,1,0-14.64,2.32,2.32,0,0,1,.52,0Z"/><path class="cls-3" d="M101.16,80.83a7.33,7.33,0,0,1-7.31,7.32v3.77a11.1,11.1,0,0,0,0-22.19v3.78A7.32,7.32,0,0,1,101.16,80.83Z"/><path class="cls-4" d="M92.1,91.93V88.15a7.32,7.32,0,0,1-7.3-7.32v-.1H81v.1A11.11,11.11,0,0,0,92.1,91.93Z"/><path class="cls-4" d="M125.44,94.23a7.46,7.46,0,0,1-6.52-3.61,7.45,7.45,0,0,1,0-7.42,7,7,0,0,1,2.71-2.61,7.49,7.49,0,0,1,3.81-1,7.4,7.4,0,0,1,3.8,1,7,7,0,0,1,2.67,2.61,7.09,7.09,0,0,1,1,3.71,7.28,7.28,0,0,1-3.67,6.35A7.39,7.39,0,0,1,125.44,94.23Zm0-3.61a3.72,3.72,0,0,0,1.85-.48,3,3,0,0,0,1.23-1.31,4.22,4.22,0,0,0,.45-1.92,3.75,3.75,0,0,0-.45-1.89,3.41,3.41,0,0,0-1.23-1.27,3.91,3.91,0,0,0-3.64,0A3.41,3.41,0,0,0,122.42,85a4.09,4.09,0,0,0-.45,1.89,3.94,3.94,0,0,0,.45,1.89,3,3,0,0,0,1.23,1.3A3,3,0,0,0,125.44,90.62Z"/><path class="cls-4" d="M135.41,93.92V80h3.91V94h-3.91Zm9.33,0V86a2.67,2.67,0,0,0-.76-2A2.63,2.63,0,0,0,142,83.2a2.78,2.78,0,0,0-1.41.34,2.4,2.4,0,0,0-1,1,2.85,2.85,0,0,0-.34,1.45l-1.54-.79a5.56,5.56,0,0,1,.72-2.85,5,5,0,0,1,1.95-1.93,5.56,5.56,0,0,1,2.85-.72,4.94,4.94,0,0,1,2.74.76,5.23,5.23,0,0,1,1.89,2,5.46,5.46,0,0,1,.68,2.64v8.87Z"/><path class="cls-4" d="M157.42,94.23a5.82,5.82,0,0,1-3.32-1,6.5,6.5,0,0,1-2.33-2.61,8.62,8.62,0,0,1,0-7.38,6.75,6.75,0,0,1,2.29-2.61,5.9,5.9,0,0,1,3.36-1,5.24,5.24,0,0,1,2.81.72,5,5,0,0,1,1.86,1.93,6,6,0,0,1,.71,2.74V88.9a6.47,6.47,0,0,1-.68,2.72,4.67,4.67,0,0,1-1.82,1.92A5.74,5.74,0,0,1,157.42,94.23Zm.89-3.68a3.14,3.14,0,0,0,2.47-1,3.77,3.77,0,0,0,.93-2.65A4.34,4.34,0,0,0,161.3,85a2.9,2.9,0,0,0-1.2-1.27,3.38,3.38,0,0,0-1.79-.45,3.27,3.27,0,0,0-1.74.45,3.1,3.1,0,0,0-1.2,1.31,4.17,4.17,0,0,0-.45,1.88,3.72,3.72,0,0,0,.45,1.89,3.1,3.1,0,0,0,1.2,1.31A3.14,3.14,0,0,0,158.31,90.55Zm3.19,3.37V90.17l.62-3.36-.62-3.4V73h3.91V93.92Z"/><path class="cls-4" d="M174.6,94.23a6.18,6.18,0,0,1-3.43-1,6.73,6.73,0,0,1-2.4-2.61,8.18,8.18,0,0,1,0-7.42,6.71,6.71,0,0,1,2.4-2.61,6.16,6.16,0,0,1,3.43-1,5.59,5.59,0,0,1,2.64.62,5.1,5.1,0,0,1,1.88,1.65,4.76,4.76,0,0,1,.79,2.4v5.22a4.62,4.62,0,0,1-.79,2.37,4.51,4.51,0,0,1-1.88,1.65A5,5,0,0,1,174.6,94.23Zm.72-3.61a3.37,3.37,0,0,0,2.53-1,4.12,4.12,0,0,0,.52-4.53,3.17,3.17,0,0,0-1.2-1.31,3.48,3.48,0,0,0-1.82-.44,3.34,3.34,0,0,0-1.78.44,3.45,3.45,0,0,0-1.23,1.31,3.83,3.83,0,0,0-.45,1.89,3.75,3.75,0,0,0,.45,1.89,3.42,3.42,0,0,0,1.23,1.3A3.61,3.61,0,0,0,175.32,90.62Zm3.29,3.3V90.17l.62-3.36-.62-3.41V80h3.87V94h-3.87Z"/><path class="cls-4" d="M125.47,112.43a7.49,7.49,0,0,1-3.81-1,7.33,7.33,0,0,1-2.7-10.06,7,7,0,0,1,2.7-2.61,8,8,0,0,1,3.84-1,7.82,7.82,0,0,1,3,.59,6.65,6.65,0,0,1,2.4,1.71l-2.5,2.55a3.66,3.66,0,0,0-1.27-.93,4,4,0,0,0-1.61-.28,3.67,3.67,0,0,0-1.85.45,3.23,3.23,0,0,0-1.27,1.27,3.9,3.9,0,0,0-.45,1.93,3.75,3.75,0,0,0,.45,1.89,3.31,3.31,0,0,0,1.27,1.3,3.69,3.69,0,0,0,1.85.48,4.41,4.41,0,0,0,1.68-.31,3.18,3.18,0,0,0,1.3-1l2.5,2.54a8.07,8.07,0,0,1-2.43,1.76A7.52,7.52,0,0,1,125.47,112.43Z"/><path class="cls-4" d="M139.56,112.43a8.12,8.12,0,0,1-3.91-.92,6.74,6.74,0,0,1-2.71-2.61,7.68,7.68,0,0,1,0-7.49,7.34,7.34,0,0,1,2.64-2.61,7.66,7.66,0,0,1,3.77-1,7.09,7.09,0,0,1,3.57.9,6.21,6.21,0,0,1,2.43,2.47,7.31,7.31,0,0,1,.89,3.61,5.77,5.77,0,0,1-.07.79c0,.27-.1.58-.13.89h-11.8v-2.85l10,0-1.64,1.2a5.87,5.87,0,0,0-.41-2.06,3,3,0,0,0-1.1-1.28,3.85,3.85,0,0,0-3.7.07A3.41,3.41,0,0,0,136.1,103a5,5,0,0,0-.45,2.13,4.72,4.72,0,0,0,.45,2.2,3.3,3.3,0,0,0,1.33,1.41,4,4,0,0,0,2.06.48,4.9,4.9,0,0,0,1.92-.34,3.91,3.91,0,0,0,1.48-1.07l2.26,2.27a6.11,6.11,0,0,1-2.44,1.82A8,8,0,0,1,139.56,112.43Z"/><path class="cls-4" d="M148.61,112.12V98.18h3.91v14h-3.91Zm3.91-7.69L151,103.37a7.34,7.34,0,0,1,1.57-4,5,5,0,0,1,5.39-1.14,4.29,4.29,0,0,1,1.44,1.07l-2.44,2.85a1.76,1.76,0,0,0-.72-.52,3.36,3.36,0,0,0-1.06-.17,2.59,2.59,0,0,0-1.89.72A3,3,0,0,0,152.52,104.43Z"/><path class="cls-4" d="M167,112.43a7.42,7.42,0,0,1-6.52-3.6,7.45,7.45,0,0,1,0-7.42,7,7,0,0,1,2.71-2.61,7.4,7.4,0,0,1,3.81-1,7.29,7.29,0,0,1,3.8,1,6.93,6.93,0,0,1,2.68,2.61,7.15,7.15,0,0,1,1,3.71,7.23,7.23,0,0,1-3.67,6.35A7.48,7.48,0,0,1,167,112.43Zm0-3.6a3.83,3.83,0,0,0,1.85-.48,3,3,0,0,0,1.23-1.31,4.22,4.22,0,0,0,.45-1.92,3.75,3.75,0,0,0-.45-1.89,3.34,3.34,0,0,0-1.23-1.27,3.91,3.91,0,0,0-3.64,0,3.34,3.34,0,0,0-1.23,1.27,4.22,4.22,0,0,0-.45,1.89A4,4,0,0,0,164,107a3,3,0,0,0,1.23,1.3A3.07,3.07,0,0,0,167,108.83Z"/><path class="cls-4" d="M378.68,99.93a5.09,5.09,0,0,1-2.44-.59,4.43,4.43,0,0,1-2.36-4,4.36,4.36,0,0,1,.63-2.34,4.57,4.57,0,0,1,1.74-1.64,5.09,5.09,0,0,1,2.47-.59,4.72,4.72,0,0,1,1.87.36,4,4,0,0,1,1.53,1L380.36,94a2.08,2.08,0,0,0-.72-.5,2.4,2.4,0,0,0-.92-.16,2.06,2.06,0,0,0-1.06.27,1.91,1.91,0,0,0-.72.72,2.1,2.1,0,0,0-.25,1.06,2.21,2.21,0,0,0,.25,1.08,2,2,0,0,0,.74.74,2,2,0,0,0,1,.27,2.33,2.33,0,0,0,.95-.18,2.12,2.12,0,0,0,.74-.54l1.75,1.76a4.73,4.73,0,0,1-1.55,1.1A5,5,0,0,1,378.68,99.93Zm8.15,0a4,4,0,0,1-2.16-.59,4.42,4.42,0,0,1-1.5-1.62,5,5,0,0,1-.54-2.34,4.93,4.93,0,0,1,.54-2.34,4.27,4.27,0,0,1,1.5-1.62,3.94,3.94,0,0,1,2.16-.6,3.53,3.53,0,0,1,1.58.35,3,3,0,0,1,1.17.95,2.46,2.46,0,0,1,.5,1.37v3.78a2.52,2.52,0,0,1-.5,1.38,3,3,0,0,1-1.15.94A3.64,3.64,0,0,1,386.83,99.91Zm.56-2.48a1.85,1.85,0,0,0,1.42-.58,2.12,2.12,0,0,0,.54-1.49,2.33,2.33,0,0,0-.25-1.08,1.71,1.71,0,0,0-.69-.72,1.86,1.86,0,0,0-1-.27,1.94,1.94,0,0,0-1,.27,2,2,0,0,0-.71.72,2.33,2.33,0,0,0-.25,1.08,2.3,2.3,0,0,0,.25,1.06,1.94,1.94,0,0,0,.71.74A1.91,1.91,0,0,0,387.39,97.43Zm1.85,2.3V97.37l.41-2.12-.41-2.12V91h2.7v8.75Zm5.88,0V87.37h2.75V99.73Zm-2-6.41V91h6.71v2.34Zm12.07,6.61a5.4,5.4,0,0,1-2.54-.58A4.42,4.42,0,0,1,401,97.72a4.51,4.51,0,0,1-.63-2.36,4.44,4.44,0,0,1,.61-2.34,4.51,4.51,0,0,1,1.69-1.64,4.79,4.79,0,0,1,2.39-.59,4.59,4.59,0,0,1,2.29.55,4,4,0,0,1,1.55,1.55,4.68,4.68,0,0,1,.54,2.77,4,4,0,0,1-.09.6l-7.54,0V94.39l6.37,0-1.19.79a3.3,3.3,0,0,0-.23-1.24,1.58,1.58,0,0,0-.65-.76,1.86,1.86,0,0,0-1-.27A2,2,0,0,0,403.16,94a3.48,3.48,0,0,0,0,2.64,2.16,2.16,0,0,0,.79.85,2.53,2.53,0,0,0,1.22.29,3.05,3.05,0,0,0,1.17-.22,2.66,2.66,0,0,0,.92-.68l1.51,1.51a4.07,4.07,0,0,1-1.56,1.13A5.3,5.3,0,0,1,405.21,99.93Zm9.25,3.73a6,6,0,0,1-2.54-.51,4,4,0,0,1-1.71-1.38l1.69-1.7a3.31,3.31,0,0,0,1.05.85,3.27,3.27,0,0,0,1.42.29,2.33,2.33,0,0,0,1.6-.51,1.74,1.74,0,0,0,.6-1.42V97.05l.47-1.91-.42-1.91V91h2.7v8.23A4.17,4.17,0,0,1,417,103.1,5.45,5.45,0,0,1,414.46,103.66Zm-.13-4.2a4.05,4.05,0,0,1-2.14-.57,4.19,4.19,0,0,1-1.47-1.57,4.51,4.51,0,0,1-.54-2.2,4.44,4.44,0,0,1,.54-2.19,4,4,0,0,1,1.47-1.55,4.06,4.06,0,0,1,2.14-.58,3.63,3.63,0,0,1,1.61.35,2.7,2.7,0,0,1,1.15.93,2.5,2.5,0,0,1,.5,1.39V96.8a2.52,2.52,0,0,1-.5,1.38,3,3,0,0,1-1.15.94A3.69,3.69,0,0,1,414.33,99.46Zm.53-2.45a1.87,1.87,0,0,0,1-.25,1.62,1.62,0,0,0,.64-.66,2,2,0,0,0,.24-1,2,2,0,0,0-.24-1,1.55,1.55,0,0,0-.64-.68,2.09,2.09,0,0,0-2,0,1.75,1.75,0,0,0-.67.68,2.07,2.07,0,0,0-.23,1,2.12,2.12,0,0,0,.23,1,1.77,1.77,0,0,0,.65.68A1.94,1.94,0,0,0,414.86,97Zm10.62,2.92a5.13,5.13,0,0,1-2.45-.59,4.62,4.62,0,0,1-1.71-1.66,4.46,4.46,0,0,1-.63-2.34,4.34,4.34,0,0,1,.63-2.32A4.44,4.44,0,0,1,423,91.4a4.87,4.87,0,0,1,2.45-.61,4.92,4.92,0,0,1,2.44.59A4.59,4.59,0,0,1,429.64,93a4.43,4.43,0,0,1,.63,2.32,4.56,4.56,0,0,1-.63,2.34,4.72,4.72,0,0,1-1.72,1.66A5,5,0,0,1,425.48,99.93Zm0-2.5a2.19,2.19,0,0,0,1-.25,1.73,1.73,0,0,0,.68-.74,2.35,2.35,0,0,0,.26-1.1,2.11,2.11,0,0,0-.26-1.06,1.74,1.74,0,0,0-.7-.72,1.89,1.89,0,0,0-1-.27,2,2,0,0,0-1,.27,1.8,1.8,0,0,0-.7.72,2.21,2.21,0,0,0-.25,1.08,2.32,2.32,0,0,0,.25,1.08,1.92,1.92,0,0,0,.7.74A2.15,2.15,0,0,0,425.48,97.43Zm6.16,2.3V91h2.75v8.75Zm2.75-4.8-1.15-.9a4.92,4.92,0,0,1,1.15-2.38,3,3,0,0,1,2.25-.85,2.84,2.84,0,0,1,1.1.2,2.09,2.09,0,0,1,.84.58L437,93.65a1.21,1.21,0,0,0-.45-.31,1.71,1.71,0,0,0-.62-.11,1.43,1.43,0,0,0-1.09.44A1.72,1.72,0,0,0,434.39,94.93Zm5.24,4.8V91h2.76v8.75Zm.09-9.74-.9-1.31L441.69,86l1.51,2.12ZM448,99.91a4.07,4.07,0,0,1-2.16-.59,4.39,4.39,0,0,1-1.49-1.62,5,5,0,0,1-.54-2.34,4.93,4.93,0,0,1,.54-2.34,4.24,4.24,0,0,1,1.49-1.62,4,4,0,0,1,2.16-.6,3.57,3.57,0,0,1,1.59.35,2.92,2.92,0,0,1,1.16.95,2.47,2.47,0,0,1,.51,1.37v3.78a2.53,2.53,0,0,1-.51,1.38,2.89,2.89,0,0,1-1.15.94A3.64,3.64,0,0,1,448,99.91Zm.56-2.48a1.83,1.83,0,0,0,1.42-.58,2.12,2.12,0,0,0,.54-1.49,2.21,2.21,0,0,0-.25-1.08,1.75,1.75,0,0,0-.68-.72,1.88,1.88,0,0,0-1-.27,1.93,1.93,0,0,0-1.73,1,2.21,2.21,0,0,0-.25,1.08,2.18,2.18,0,0,0,.25,1.06,1.89,1.89,0,0,0,1.71,1Zm1.85,2.3V97.37l.42-2.12-.42-2.12V91h2.7v8.75Zm7.83.22a6,6,0,0,1-2.92-.76,4.93,4.93,0,0,1-1.08-.86l1.57-1.59a3,3,0,0,0,1,.74,3.19,3.19,0,0,0,1.29.25,1.5,1.5,0,0,0,.74-.14.45.45,0,0,0,.27-.4.52.52,0,0,0-.32-.48,3.43,3.43,0,0,0-.8-.31l-1-.3a4.73,4.73,0,0,1-1-.45,2.33,2.33,0,0,1-.79-.8,2.77,2.77,0,0,1,.13-2.77,2.82,2.82,0,0,1,1.22-1,4.42,4.42,0,0,1,1.85-.36,5.15,5.15,0,0,1,2.06.4A3.6,3.6,0,0,1,462,92.26l-1.56,1.59a2.27,2.27,0,0,0-.94-.69,2.69,2.69,0,0,0-1-.2,1.3,1.3,0,0,0-.7.15.39.39,0,0,0-.23.38.48.48,0,0,0,.3.43,4.14,4.14,0,0,0,.79.29c.33.08.67.18,1,.3a4.35,4.35,0,0,1,1,.49,2.36,2.36,0,0,1,.8.83,2.57,2.57,0,0,1,.3,1.33,2.43,2.43,0,0,1-1,2A4,4,0,0,1,458.22,100Z"/><path class="cls-4" d="M511.45,99.73V91h2.76v8.75Zm5.6,0V94.62a1.32,1.32,0,0,0-.41-1,1.4,1.4,0,0,0-1-.37,1.5,1.5,0,0,0-.74.18,1.22,1.22,0,0,0-.52.46,1.5,1.5,0,0,0-.18.76l-1.06-.47a3.36,3.36,0,0,1,.45-1.78,2.94,2.94,0,0,1,1.22-1.15,3.62,3.62,0,0,1,1.75-.42,3.17,3.17,0,0,1,1.63.42,2.94,2.94,0,0,1,1.17,1.15,3.4,3.4,0,0,1,.44,1.76v5.6Zm5.6,0V94.62a1.32,1.32,0,0,0-.41-1,1.4,1.4,0,0,0-1-.37,1.47,1.47,0,0,0-.74.18,1.22,1.22,0,0,0-.52.46,1.5,1.5,0,0,0-.18.76l-1.59-.22a3.88,3.88,0,0,1,.52-1.9,3.51,3.51,0,0,1,1.32-1.25,3.81,3.81,0,0,1,1.85-.45,3.56,3.56,0,0,1,1.78.44,3,3,0,0,1,1.25,1.2,3.58,3.58,0,0,1,.46,1.87v5.42Zm4.52,0V91h2.75v8.75Zm1.38-10a1.5,1.5,0,0,1-1.08-.43,1.56,1.56,0,0,1-.41-1.08,1.49,1.49,0,0,1,.41-1.08,1.47,1.47,0,0,1,1.08-.44,1.42,1.42,0,0,1,1.07.44,1.49,1.49,0,0,1,.41,1.08,1.56,1.56,0,0,1-.41,1.08A1.45,1.45,0,0,1,528.55,89.78Zm6.74,10V86.66H538V99.73Zm4.69,0V91h2.76v8.75Zm1.39-10a1.5,1.5,0,0,1-1.08-.43,1.52,1.52,0,0,1-.41-1.08,1.45,1.45,0,0,1,.41-1.08,1.47,1.47,0,0,1,1.08-.44,1.39,1.39,0,0,1,1.06.44,1.46,1.46,0,0,1,.42,1.08,1.53,1.53,0,0,1-.42,1.08A1.42,1.42,0,0,1,541.37,89.78ZM547.86,100a6.18,6.18,0,0,1-1.53-.2,6,6,0,0,1-1.38-.56,4.93,4.93,0,0,1-1.08-.86l1.56-1.59a3,3,0,0,0,1,.74,3.24,3.24,0,0,0,1.3.25,1.43,1.43,0,0,0,.73-.14.45.45,0,0,0,.27-.4.51.51,0,0,0-.32-.48,3.51,3.51,0,0,0-.79-.31l-1-.3a5,5,0,0,1-1-.45,2.42,2.42,0,0,1-.79-.8,2.57,2.57,0,0,1-.3-1.31,2.47,2.47,0,0,1,.43-1.46,2.94,2.94,0,0,1,1.22-1,4.47,4.47,0,0,1,1.86-.36,5.13,5.13,0,0,1,2,.4,3.63,3.63,0,0,1,1.55,1.13L550,93.85a2.21,2.21,0,0,0-.94-.69,2.69,2.69,0,0,0-1-.2,1.32,1.32,0,0,0-.7.15.41.41,0,0,0-.23.38.48.48,0,0,0,.3.43,4,4,0,0,0,.8.29q.48.12,1,.3a4.42,4.42,0,0,1,1,.49,2.33,2.33,0,0,1,.79.83,2.74,2.74,0,0,1-.66,3.36A4,4,0,0,1,547.86,100Zm6.3-.22V87.37h2.76V99.73Zm-2-6.41V91h6.72v2.34Zm11.41,6.59a4,4,0,0,1-2.16-.59,4.42,4.42,0,0,1-1.5-1.62,5.1,5.1,0,0,1-.53-2.34,5,5,0,0,1,.53-2.34,4.27,4.27,0,0,1,1.5-1.62,4,4,0,0,1,2.16-.6,3.5,3.5,0,0,1,1.58.35,3,3,0,0,1,1.17.95,2.55,2.55,0,0,1,.51,1.37v3.78a2.61,2.61,0,0,1-.51,1.38,3,3,0,0,1-1.15.94A3.64,3.64,0,0,1,563.59,99.91Zm.56-2.48a1.85,1.85,0,0,0,1.42-.58,2.12,2.12,0,0,0,.54-1.49,2.21,2.21,0,0,0-.25-1.08,1.71,1.71,0,0,0-.69-.72,1.84,1.84,0,0,0-1-.27,1.93,1.93,0,0,0-1.72,1,2.21,2.21,0,0,0-.26,1.08,2.19,2.19,0,0,0,.26,1.06,1.85,1.85,0,0,0,.7.74A1.93,1.93,0,0,0,564.15,97.43Zm1.85,2.3V97.37l.41-2.12L566,93.13V91h2.7v8.75Z"/><path class="cls-4" d="M623.18,99.91a4.17,4.17,0,0,1-2.21-.59,4.39,4.39,0,0,1-1.52-1.62,5,5,0,0,1-.54-2.34,4.93,4.93,0,0,1,.54-2.34A4.24,4.24,0,0,1,621,91.4a4.09,4.09,0,0,1,2.21-.6,3.7,3.7,0,0,1,1.62.35,3.15,3.15,0,0,1,1.21.95,2.43,2.43,0,0,1,.54,1.37v3.69a2.6,2.6,0,0,1-.53,1.4,3.43,3.43,0,0,1-1.2,1A3.69,3.69,0,0,1,623.18,99.91Zm.49-2.48a2.08,2.08,0,0,0,1-.25,2,2,0,0,0,.69-.74,2.33,2.33,0,0,0,.25-1.08,2.21,2.21,0,0,0-.25-1.06,1.76,1.76,0,0,0-.69-.74,1.86,1.86,0,0,0-1-.27,1.94,1.94,0,0,0-1,.27,2,2,0,0,0-.7.74,2.16,2.16,0,0,0-.26,1.06,2.19,2.19,0,0,0,.26,1.06,1.85,1.85,0,0,0,.7.74A1.91,1.91,0,0,0,623.67,97.43Zm4.55,2.3h-2.7V97.37l.41-2.12-.46-2.12V86.66h2.75Zm1.94,0V91h2.75v8.75Zm1.39-10a1.47,1.47,0,0,1-1.08-.43,1.53,1.53,0,0,1-.42-1.08,1.46,1.46,0,0,1,.42-1.08,1.44,1.44,0,0,1,1.08-.44,1.41,1.41,0,0,1,1.06.44,1.49,1.49,0,0,1,.41,1.08,1.56,1.56,0,0,1-.41,1.08A1.44,1.44,0,0,1,631.55,89.78Zm3.3,10V91h2.76v8.75Zm2.76-4.8-1.15-.9a4.83,4.83,0,0,1,1.15-2.38,3,3,0,0,1,2.25-.85,2.88,2.88,0,0,1,1.1.2,2.09,2.09,0,0,1,.84.58l-1.64,2.07a1.21,1.21,0,0,0-.45-.31,1.66,1.66,0,0,0-.61-.11,1.47,1.47,0,0,0-1.1.44A1.76,1.76,0,0,0,637.61,94.93Zm9,5a5.37,5.37,0,0,1-2.54-.58,4.45,4.45,0,0,1-1.73-1.63A4.54,4.54,0,0,1,644,91.38a4.73,4.73,0,0,1,2.39-.59,4.62,4.62,0,0,1,2.29.55,4,4,0,0,1,1.54,1.55,4.38,4.38,0,0,1,.58,2.27,3,3,0,0,1,0,.5,4,4,0,0,1-.09.6l-7.54,0V94.39l6.37,0-1.18.79a3.29,3.29,0,0,0-.24-1.24,1.53,1.53,0,0,0-.65-.76,1.8,1.8,0,0,0-1-.27,2.07,2.07,0,0,0-1.14.31,2,2,0,0,0-.73.83,3.42,3.42,0,0,0,0,2.64,2.26,2.26,0,0,0,.8.85,2.47,2.47,0,0,0,1.22.29,3.13,3.13,0,0,0,1.17-.22,2.75,2.75,0,0,0,.92-.68l1.51,1.51a4,4,0,0,1-1.57,1.13A5.25,5.25,0,0,1,646.61,99.93Zm9.77,0a5.13,5.13,0,0,1-2.45-.59,4.55,4.55,0,0,1-1.73-1.64,4.46,4.46,0,0,1-.63-2.34A4.36,4.36,0,0,1,652.2,93,4.67,4.67,0,0,1,654,91.38a5,5,0,0,1,2.47-.59,4.76,4.76,0,0,1,1.87.36,4.21,4.21,0,0,1,1.53,1L658.05,94a1.91,1.91,0,0,0-.72-.5,2.35,2.35,0,0,0-.91-.16,2.13,2.13,0,0,0-1.07.27,1.91,1.91,0,0,0-.72.72,2.21,2.21,0,0,0-.25,1.06,2.33,2.33,0,0,0,.25,1.08,2,2,0,0,0,.74.74,2.05,2.05,0,0,0,1,.27,2.37,2.37,0,0,0,1-.18,2.21,2.21,0,0,0,.74-.54l1.74,1.76a4.69,4.69,0,0,1-1.54,1.1A5,5,0,0,1,656.38,99.93Zm5.8-.2V87.37h2.75V99.73Zm-2-6.41V91h6.71v2.34Zm12,6.61a5.09,5.09,0,0,1-2.44-.59A4.62,4.62,0,0,1,668,97.68a4.46,4.46,0,0,1-.63-2.34A4.34,4.34,0,0,1,668,93a4.44,4.44,0,0,1,1.71-1.62,4.83,4.83,0,0,1,2.44-.61,4.94,4.94,0,0,1,2.45.59A4.49,4.49,0,0,1,676.32,93a4.34,4.34,0,0,1,.63,2.32,4.46,4.46,0,0,1-.63,2.34,4.62,4.62,0,0,1-1.71,1.66A5,5,0,0,1,672.16,99.93Zm0-2.5a2.2,2.2,0,0,0,1.05-.25,1.73,1.73,0,0,0,.68-.74,2.34,2.34,0,0,0,.25-1.1,2.1,2.1,0,0,0-.25-1.06,1.8,1.8,0,0,0-.7-.72,1.91,1.91,0,0,0-1-.27,1.94,1.94,0,0,0-1,.27,1.74,1.74,0,0,0-.7.72,2.21,2.21,0,0,0-.26,1.08,2.33,2.33,0,0,0,.26,1.08,1.85,1.85,0,0,0,.7.74A2.14,2.14,0,0,0,672.16,97.43Z"/><path class="cls-4" d="M732.23,99.73v-5a1.43,1.43,0,0,0-.43-1.1,1.4,1.4,0,0,0-1.06-.43,1.54,1.54,0,0,0-.79.19,1.28,1.28,0,0,0-.54.54,1.51,1.51,0,0,0-.2.8l-1.06-.53a3.54,3.54,0,0,1,.45-1.8,3,3,0,0,1,1.24-1.18,3.77,3.77,0,0,1,1.82-.44,3.31,3.31,0,0,1,2.89,1.68,3.23,3.23,0,0,1,.44,1.65v5.6Zm-5.78,0V91h2.76v8.75Zm14.52.2a5.13,5.13,0,0,1-2.45-.59,4.62,4.62,0,0,1-1.71-1.66,4.46,4.46,0,0,1-.63-2.34,4.34,4.34,0,0,1,.63-2.32,4.44,4.44,0,0,1,1.71-1.62,4.84,4.84,0,0,1,2.45-.61,4.9,4.9,0,0,1,2.44.59,4.45,4.45,0,0,1,2.35,4,4.51,4.51,0,0,1-2.35,4A5,5,0,0,1,741,99.93Zm0-2.5a2.19,2.19,0,0,0,1-.25,1.82,1.82,0,0,0,.69-.74,2.47,2.47,0,0,0,.25-1.1,2.21,2.21,0,0,0-.25-1.06,1.82,1.82,0,0,0-.71-.72,1.87,1.87,0,0,0-1-.27,2,2,0,0,0-1,.27,1.8,1.8,0,0,0-.7.72,2.21,2.21,0,0,0-.25,1.08,2.32,2.32,0,0,0,.25,1.08,1.92,1.92,0,0,0,.7.74A2.15,2.15,0,0,0,741,97.43Zm7.22,2.3V87.37H751V99.73Zm-2-6.41V91h6.72v2.34Zm7.93,6.41V91h2.75v8.75Zm1.39-10a1.47,1.47,0,0,1-1.08-.43,1.53,1.53,0,0,1-.42-1.08,1.46,1.46,0,0,1,.42-1.08,1.44,1.44,0,0,1,1.08-.44,1.41,1.41,0,0,1,1.06.44,1.49,1.49,0,0,1,.41,1.08,1.56,1.56,0,0,1-.41,1.08A1.44,1.44,0,0,1,755.53,89.78Zm7.53,10.15a5.16,5.16,0,0,1-2.45-.59,4.52,4.52,0,0,1-1.72-1.64,4.46,4.46,0,0,1-.63-2.34,4.36,4.36,0,0,1,.63-2.34,4.57,4.57,0,0,1,1.74-1.64,5.07,5.07,0,0,1,2.47-.59,4.72,4.72,0,0,1,1.87.36,4,4,0,0,1,1.53,1L764.74,94a2.08,2.08,0,0,0-.72-.5,2.4,2.4,0,0,0-.92-.16,2.06,2.06,0,0,0-1.06.27,1.91,1.91,0,0,0-.72.72,2.1,2.1,0,0,0-.25,1.06,2.21,2.21,0,0,0,.25,1.08,2,2,0,0,0,.73.74,2.11,2.11,0,0,0,1.05.27,2.33,2.33,0,0,0,.95-.18,2.12,2.12,0,0,0,.74-.54l1.75,1.76a4.73,4.73,0,0,1-1.55,1.1A5,5,0,0,1,763.06,99.93Zm4.7-.2V91h2.76v8.75Zm1.39-10a1.5,1.5,0,0,1-1.08-.43,1.52,1.52,0,0,1-.41-1.08,1.45,1.45,0,0,1,.41-1.08,1.47,1.47,0,0,1,1.08-.44,1.41,1.41,0,0,1,1.06.44,1.46,1.46,0,0,1,.42,1.08,1.53,1.53,0,0,1-.42,1.08A1.44,1.44,0,0,1,769.15,89.78Zm7,10.13a4.07,4.07,0,0,1-2.16-.59,4.39,4.39,0,0,1-1.49-1.62,5,5,0,0,1-.54-2.34,4.93,4.93,0,0,1,.54-2.34A4.24,4.24,0,0,1,774,91.4a4,4,0,0,1,2.16-.6,3.5,3.5,0,0,1,1.58.35,3,3,0,0,1,1.17.95,2.55,2.55,0,0,1,.51,1.37v3.78a2.61,2.61,0,0,1-.51,1.38,2.89,2.89,0,0,1-1.15.94A3.64,3.64,0,0,1,776.11,99.91Zm.56-2.48a1.83,1.83,0,0,0,1.42-.58,2.12,2.12,0,0,0,.54-1.49,2.21,2.21,0,0,0-.25-1.08,1.71,1.71,0,0,0-.69-.72,1.82,1.82,0,0,0-1-.27,1.93,1.93,0,0,0-1.73,1,2.21,2.21,0,0,0-.25,1.08,2.18,2.18,0,0,0,.25,1.06,1.89,1.89,0,0,0,1.71,1Zm1.85,2.3V97.37l.42-2.12-.42-2.12V91h2.7v8.75Zm7.83.22a6,6,0,0,1-2.92-.76,4.93,4.93,0,0,1-1.08-.86l1.57-1.59a3.11,3.11,0,0,0,1,.74,3.27,3.27,0,0,0,1.3.25,1.5,1.5,0,0,0,.74-.14.45.45,0,0,0,.27-.4.52.52,0,0,0-.33-.48,3.17,3.17,0,0,0-.79-.31l-1-.3a4.65,4.65,0,0,1-1-.45,2.33,2.33,0,0,1-.79-.8,2.47,2.47,0,0,1-.31-1.31,2.54,2.54,0,0,1,.43-1.46,2.91,2.91,0,0,1,1.23-1,4.39,4.39,0,0,1,1.85-.36,5.1,5.1,0,0,1,2,.4,3.58,3.58,0,0,1,1.55,1.13l-1.56,1.59a2.27,2.27,0,0,0-.94-.69,2.77,2.77,0,0,0-1-.2,1.3,1.3,0,0,0-.7.15.4.4,0,0,0-.24.38.5.5,0,0,0,.31.43,3.9,3.9,0,0,0,.79.29c.33.08.67.18,1,.3a4.35,4.35,0,0,1,1,.49,2.25,2.25,0,0,1,.79.83,2.47,2.47,0,0,1,.31,1.33,2.43,2.43,0,0,1-1,2A4,4,0,0,1,786.35,100Z"/><path class="cls-4" d="M842.64,100a6.06,6.06,0,0,1-1.53-.2,6.22,6.22,0,0,1-1.39-.56,4.93,4.93,0,0,1-1.08-.86l1.57-1.59a3,3,0,0,0,1,.74,3.19,3.19,0,0,0,1.29.25,1.47,1.47,0,0,0,.74-.14.45.45,0,0,0,.27-.4.52.52,0,0,0-.32-.48,3.43,3.43,0,0,0-.8-.31l-1-.3a5,5,0,0,1-1-.45,2.33,2.33,0,0,1-.79-.8,2.56,2.56,0,0,1-.31-1.31,2.47,2.47,0,0,1,.44-1.46,2.82,2.82,0,0,1,1.22-1,4.46,4.46,0,0,1,1.85-.36,5.15,5.15,0,0,1,2.06.4,3.6,3.6,0,0,1,1.54,1.13l-1.56,1.59a2.27,2.27,0,0,0-.94-.69,2.69,2.69,0,0,0-1-.2,1.32,1.32,0,0,0-.7.15.39.39,0,0,0-.23.38.48.48,0,0,0,.3.43,4.14,4.14,0,0,0,.79.29c.33.08.67.18,1,.3a4.62,4.62,0,0,1,1,.49,2.42,2.42,0,0,1,.79.83,2.57,2.57,0,0,1,.3,1.33,2.43,2.43,0,0,1-1,2A4,4,0,0,1,842.64,100Zm9.27,0a5.16,5.16,0,0,1-2.45-.59,4.62,4.62,0,0,1-1.71-1.66,4.46,4.46,0,0,1-.63-2.34,4.34,4.34,0,0,1,.63-2.32,4.44,4.44,0,0,1,1.71-1.62,4.87,4.87,0,0,1,2.45-.61,5,5,0,0,1,2.45.59A4.49,4.49,0,0,1,856.07,93a4.34,4.34,0,0,1,.63,2.32,4.46,4.46,0,0,1-.63,2.34,4.62,4.62,0,0,1-1.71,1.66A5.07,5.07,0,0,1,851.91,99.93Zm0-2.5a2.2,2.2,0,0,0,1.05-.25,1.8,1.8,0,0,0,.68-.74,2.34,2.34,0,0,0,.25-1.1,2.1,2.1,0,0,0-.25-1.06,1.8,1.8,0,0,0-.7-.72,2.08,2.08,0,0,0-2.05,0,1.82,1.82,0,0,0-.71.72,2.33,2.33,0,0,0-.25,1.08,2.45,2.45,0,0,0,.25,1.08,1.94,1.94,0,0,0,.71.74A2.11,2.11,0,0,0,851.91,97.43Zm11.2,2.48a3.63,3.63,0,0,1-1.62-.36,3.56,3.56,0,0,1-1.21-1,2.78,2.78,0,0,1-.54-1.4V93.47a2.58,2.58,0,0,1,.54-1.37,3.15,3.15,0,0,1,1.21-.95,3.77,3.77,0,0,1,1.62-.35A4.11,4.11,0,0,1,866.82,93a4.82,4.82,0,0,1,.56,2.34,4.88,4.88,0,0,1-.56,2.34,4.21,4.21,0,0,1-1.51,1.62A4.14,4.14,0,0,1,863.11,99.91Zm-.49-2.48a1.89,1.89,0,0,0,1.71-1,2.19,2.19,0,0,0,.26-1.06,2.21,2.21,0,0,0-.26-1.08,1.74,1.74,0,0,0-.7-.72,1.86,1.86,0,0,0-1-.27,1.94,1.94,0,0,0-1,.27,1.74,1.74,0,0,0-.7.72,2.5,2.5,0,0,0,0,2.16,2,2,0,0,0,.69.74A2.14,2.14,0,0,0,862.62,97.43Zm-4.55,2.3V86.66h2.75v6.47l-.45,2.12.42,2.12v2.36Zm10.71,0V91h2.75v8.75Zm2.75-4.8-1.15-.9a4.83,4.83,0,0,1,1.15-2.38,3,3,0,0,1,2.25-.85,2.84,2.84,0,0,1,1.1.2,2.09,2.09,0,0,1,.84.58l-1.63,2.07a1.21,1.21,0,0,0-.45-.31,1.71,1.71,0,0,0-.62-.11,1.47,1.47,0,0,0-1.1.44A1.76,1.76,0,0,0,871.53,94.93Zm9,5a5.4,5.4,0,0,1-2.54-.58,4.45,4.45,0,0,1-1.73-1.63,4.51,4.51,0,0,1-.63-2.36,4.45,4.45,0,0,1,.62-2.34,4.51,4.51,0,0,1,1.69-1.64,4.76,4.76,0,0,1,2.39-.59,4.59,4.59,0,0,1,2.29.55,4.12,4.12,0,0,1,1.55,1.55,4.68,4.68,0,0,1,.54,2.77q0,.25-.09.6l-7.55,0V94.39l6.38,0-1.19.79a3.11,3.11,0,0,0-.24-1.24,1.56,1.56,0,0,0-.64-.76,1.86,1.86,0,0,0-1-.27,2,2,0,0,0-1.13.31,1.93,1.93,0,0,0-.74.83,3.48,3.48,0,0,0,0,2.64,2.16,2.16,0,0,0,.79.85,2.5,2.5,0,0,0,1.22.29,3.13,3.13,0,0,0,1.17-.22,2.66,2.66,0,0,0,.92-.68l1.51,1.51a4.07,4.07,0,0,1-1.56,1.13A5.34,5.34,0,0,1,880.53,99.93Z"/><path class="cls-4" d="M1099.91,99.73V98.56h3.92a2.67,2.67,0,0,0,1.93-.68,2.47,2.47,0,0,0,.39-2.92,2.1,2.1,0,0,0-.88-.84,2.57,2.57,0,0,0-1.33-.33h-4V92.64h3.83a2.21,2.21,0,0,0,1.58-.54,2,2,0,0,0,.6-1.53,1.91,1.91,0,0,0-.63-1.53,2.52,2.52,0,0,0-1.69-.54h-3.69V87.35h3.72a4.33,4.33,0,0,1,2,.41,3,3,0,0,1,1.23,1.12,3.1,3.1,0,0,1,.41,1.58,3,3,0,0,1-.54,1.8,3.47,3.47,0,0,1-1.58,1.14l.12-.44a3.73,3.73,0,0,1,1.88,1.25,3.22,3.22,0,0,1,.68,2.05,3.29,3.29,0,0,1-1.87,3,4.84,4.84,0,0,1-2.18.45Zm-.85,0V87.35h1.31V99.73Zm14.29.18a3.45,3.45,0,0,1-3.11-1.78,4,4,0,0,1-.45-1.94V91.27h1.28v4.86a3.13,3.13,0,0,0,.27,1.35,2.09,2.09,0,0,0,.81.9,2.18,2.18,0,0,0,1.2.33A2.12,2.12,0,0,0,1115,98a2.68,2.68,0,0,0,.63-1.87V91.27h1.26v4.92a4.05,4.05,0,0,1-.45,1.94,3.25,3.25,0,0,1-1.26,1.31A3.57,3.57,0,0,1,1113.35,99.91Zm8.51,0a4.71,4.71,0,0,1-1.31-.18,4.56,4.56,0,0,1-1.16-.54,4.24,4.24,0,0,1-.88-.81l.81-.83a3.38,3.38,0,0,0,1.14.92,3.53,3.53,0,0,0,1.44.29,2.33,2.33,0,0,0,1.31-.32,1,1,0,0,0,.49-.9,1.08,1.08,0,0,0-.35-.85,2.47,2.47,0,0,0-.88-.49c-.35-.12-.72-.23-1.11-.34a8.14,8.14,0,0,1-1.14-.43,2.44,2.44,0,0,1-.88-.74,2.07,2.07,0,0,1-.32-1.22,2.17,2.17,0,0,1,.34-1.24,2.25,2.25,0,0,1,1-.83,3.59,3.59,0,0,1,1.56-.31,4.38,4.38,0,0,1,1.73.34,2.94,2.94,0,0,1,1.24,1l-.81.81a2.48,2.48,0,0,0-.95-.74,2.84,2.84,0,0,0-1.26-.27,2,2,0,0,0-1.24.33,1,1,0,0,0-.42.81,1,1,0,0,0,.34.77,3,3,0,0,0,.87.45l1.13.34a5.64,5.64,0,0,1,1.14.45,2.26,2.26,0,0,1,.86.76,2.11,2.11,0,0,1,.34,1.28,2.24,2.24,0,0,1-.83,1.82A3.39,3.39,0,0,1,1121.86,99.91Zm8.89,0a4.48,4.48,0,0,1-2.25-.57,4.44,4.44,0,0,1-1.58-1.61,4.39,4.39,0,0,1-.58-2.25,4.32,4.32,0,0,1,2.16-3.81,4.62,4.62,0,0,1,4-.22,4.1,4.1,0,0,1,1.41,1l-.83.85a2.79,2.79,0,0,0-1-.74,3.32,3.32,0,0,0-2.91.14,2.94,2.94,0,0,0-1.1,1.14,3.28,3.28,0,0,0-.4,1.63,3.48,3.48,0,0,0,.4,1.66,2.85,2.85,0,0,0,1.1,1.13,3.06,3.06,0,0,0,1.6.42,3.62,3.62,0,0,0,1.33-.25,3.08,3.08,0,0,0,1.05-.76l.84.85a3.93,3.93,0,0,1-1.44,1A4.39,4.39,0,0,1,1130.75,99.91Zm8.5,0a4.15,4.15,0,0,1-2.16-.57,4.43,4.43,0,0,1-1.51-1.59,4.57,4.57,0,0,1-.54-2.23,4.62,4.62,0,0,1,.54-2.25,4.17,4.17,0,0,1,1.51-1.58,4,4,0,0,1,2.14-.6,3.59,3.59,0,0,1,1.73.4,3,3,0,0,1,1.24,1.08,3.3,3.3,0,0,1,.6,1.6v2.65a3.46,3.46,0,0,1-.6,1.62,3.2,3.2,0,0,1-1.24,1.09A3.65,3.65,0,0,1,1139.25,99.91Zm.2-1.2a2.7,2.7,0,0,0,2.11-.89,3.28,3.28,0,0,0,.81-2.32,3.58,3.58,0,0,0-.38-1.67,2.65,2.65,0,0,0-1-1.14,2.82,2.82,0,0,0-1.53-.41,3.15,3.15,0,0,0-1.6.41,3.07,3.07,0,0,0-1.1,1.16,3.71,3.71,0,0,0,0,3.31,3.08,3.08,0,0,0,2.72,1.55Zm2.84,1V97.46l.26-2.08-.26-2V91.27h1.26v8.46Zm3.82,0V91.27h1.26v8.46Zm1.26-4.93-.52-.23a3.89,3.89,0,0,1,.77-2.54,2.91,2.91,0,0,1,4.29,0l-.83.88a1.79,1.79,0,0,0-.69-.49,2.31,2.31,0,0,0-.82-.14,2.1,2.1,0,0,0-1.59.65A2.57,2.57,0,0,0,1147.37,94.8Zm6.15,5.11a1,1,0,0,1-.73-.3,1,1,0,0,1-.29-.74.94.94,0,0,1,.29-.72,1,1,0,0,1,1.45,0,.94.94,0,0,1,.29.72,1,1,0,0,1-.29.74A1,1,0,0,1,1153.52,99.91Zm5.21,0a1,1,0,0,1-.74-.3,1.06,1.06,0,0,1-.29-.74,1,1,0,0,1,.29-.72,1,1,0,0,1,.74-.31.92.92,0,0,1,.72.31,1,1,0,0,1,.29.72,1.06,1.06,0,0,1-.29.74A1,1,0,0,1,1158.73,99.91Z"/><path class="cls-4" d="M1285.63,80.73a6.2,6.2,0,1,0,6.16,6.2A6.18,6.18,0,0,0,1285.63,80.73Zm3.37,6.2a3.37,3.37,0,1,1-3.37-3.39A3.4,3.4,0,0,1,1289,86.93Z"/><path class="cls-4" d="M1292.78,92l-2,2,8.71,8.76,2-2Z"/><rect class="cls-5" x="1078.48" y="71.73" width="236" height="42" rx="6"/><g class="cls-6"><path class="cls-4" d="M1351.77,81.23a6.17,6.17,0,1,0,5.87,6.16A6,6,0,0,0,1351.77,81.23Zm3.21,6.16a3.21,3.21,0,1,1-3.21-3.37A3.3,3.3,0,0,1,1355,87.39Z"/><path class="cls-4" d="M1360.48,104.23v-1.08a8.51,8.51,0,1,0-17,.67v.41h2.9c0-.14,0-.27,0-.41a5.61,5.61,0,1,1,11.21,0,2.82,2.82,0,0,1,0,.41Z"/></g><rect class="cls-7" y="179.23" width="1440" height="80"/><path class="cls-3" d="M93.85,219.57v3.78a7.35,7.35,0,0,1,7.31,7.32v.1h3.77v-.1A11.1,11.1,0,0,0,93.85,219.57Z"/><path class="cls-2" d="M92.11,219.57H90.77a11.1,11.1,0,0,0,.82,22.16h.52V238c-.18,0-.35,0-.52,0a7.32,7.32,0,0,1,0-14.64,2.32,2.32,0,0,1,.52,0Z"/><path class="cls-3" d="M101.16,206.83a7.33,7.33,0,0,1-7.31,7.32v3.77a11.1,11.1,0,0,0,0-22.19v3.78A7.32,7.32,0,0,1,101.16,206.83Z"/><path class="cls-2" d="M92.1,217.92v-3.77a7.32,7.32,0,0,1-7.3-7.32v-.1H81v.1A11.1,11.1,0,0,0,92.1,217.92Z"/><path class="cls-2" d="M125.44,220.23a7.4,7.4,0,0,1-6.52-3.61,7.45,7.45,0,0,1,0-7.42,7,7,0,0,1,2.71-2.61,7.49,7.49,0,0,1,3.81-1,7.4,7.4,0,0,1,3.8,1,7,7,0,0,1,2.67,2.61,7.06,7.06,0,0,1,1,3.71,7.24,7.24,0,0,1-1,3.71,7.37,7.37,0,0,1-2.67,2.65A7.48,7.48,0,0,1,125.44,220.23Zm0-3.61a3.72,3.72,0,0,0,1.85-.48,3,3,0,0,0,1.23-1.31,4.22,4.22,0,0,0,.45-1.92,3.75,3.75,0,0,0-.45-1.89,3.41,3.41,0,0,0-1.23-1.27,3.91,3.91,0,0,0-3.64,0,3.41,3.41,0,0,0-1.23,1.27,4.09,4.09,0,0,0-.45,1.89,3.91,3.91,0,0,0,.45,1.89,3,3,0,0,0,1.23,1.3A3,3,0,0,0,125.44,216.62Z"/><path class="cls-2" d="M135.41,219.92V206h3.91v14h-3.91Zm9.33,0v-8a2.67,2.67,0,0,0-.76-2,2.63,2.63,0,0,0-1.95-.75,2.78,2.78,0,0,0-1.41.34,2.4,2.4,0,0,0-1,1,2.85,2.85,0,0,0-.34,1.45l-1.54-.79a5.63,5.63,0,0,1,.72-2.86,5.06,5.06,0,0,1,1.95-1.92,5.56,5.56,0,0,1,2.85-.72,4.94,4.94,0,0,1,2.74.76,5.23,5.23,0,0,1,1.89,2,5.46,5.46,0,0,1,.68,2.64v8.87Z"/><path class="cls-2" d="M157.42,220.23a5.89,5.89,0,0,1-3.32-1,6.59,6.59,0,0,1-2.33-2.62,8.62,8.62,0,0,1,0-7.38,6.75,6.75,0,0,1,2.29-2.61,5.9,5.9,0,0,1,3.36-1,5.24,5.24,0,0,1,2.81.72,5,5,0,0,1,1.86,1.93,6,6,0,0,1,.71,2.74v3.85a6.47,6.47,0,0,1-.68,2.72,4.67,4.67,0,0,1-1.82,1.92A5.74,5.74,0,0,1,157.42,220.23Zm.89-3.68a3.14,3.14,0,0,0,2.47-1,3.77,3.77,0,0,0,.93-2.64,4.35,4.35,0,0,0-.41-1.93,3,3,0,0,0-1.2-1.27,3.38,3.38,0,0,0-1.79-.45,3.27,3.27,0,0,0-1.74.45,3.1,3.1,0,0,0-1.2,1.31,4.15,4.15,0,0,0-.45,1.89,3.69,3.69,0,0,0,.45,1.88,3.1,3.1,0,0,0,1.2,1.31A3.14,3.14,0,0,0,158.31,216.55Zm3.19,3.37v-3.75l.62-3.36-.62-3.4V199h3.91v20.89Z"/><path class="cls-2" d="M174.6,220.23a6.18,6.18,0,0,1-3.43-1,6.73,6.73,0,0,1-2.4-2.61,8.18,8.18,0,0,1,0-7.42,6.71,6.71,0,0,1,2.4-2.61,6.16,6.16,0,0,1,3.43-1,5.59,5.59,0,0,1,2.64.62,5.1,5.1,0,0,1,1.88,1.65,4.76,4.76,0,0,1,.79,2.4v5.22a4.62,4.62,0,0,1-.79,2.37,4.51,4.51,0,0,1-1.88,1.65A5,5,0,0,1,174.6,220.23Zm.72-3.61a3.37,3.37,0,0,0,2.53-1,4.12,4.12,0,0,0,.52-4.53,3.17,3.17,0,0,0-1.2-1.31,3.48,3.48,0,0,0-1.82-.44,3.34,3.34,0,0,0-1.78.44,3.45,3.45,0,0,0-1.23,1.31,3.83,3.83,0,0,0-.45,1.89,3.75,3.75,0,0,0,.45,1.89,3.42,3.42,0,0,0,1.23,1.3A3.61,3.61,0,0,0,175.32,216.62Zm3.29,3.3v-3.75l.62-3.36-.62-3.4V206h3.87v14h-3.87Z"/><path class="cls-2" d="M125.47,238.43a7.39,7.39,0,0,1-3.81-1,7.33,7.33,0,0,1-2.7-10.06,7,7,0,0,1,2.7-2.61,8,8,0,0,1,3.84-1,7.82,7.82,0,0,1,3,.59,6.65,6.65,0,0,1,2.4,1.71l-2.5,2.55a3.79,3.79,0,0,0-1.27-.93,4,4,0,0,0-1.61-.28,3.67,3.67,0,0,0-1.85.45,3.23,3.23,0,0,0-1.27,1.27,3.88,3.88,0,0,0-.45,1.93,3.75,3.75,0,0,0,.45,1.89,3.31,3.31,0,0,0,1.27,1.3,3.69,3.69,0,0,0,1.85.48,4.41,4.41,0,0,0,1.68-.31,3.18,3.18,0,0,0,1.3-1l2.5,2.54a8.07,8.07,0,0,1-2.43,1.76A7.52,7.52,0,0,1,125.47,238.43Z"/><path class="cls-2" d="M139.56,238.43a8,8,0,0,1-3.91-.92,6.74,6.74,0,0,1-2.71-2.61,7.68,7.68,0,0,1,0-7.49,7.34,7.34,0,0,1,2.64-2.61,7.66,7.66,0,0,1,3.77-1,7.09,7.09,0,0,1,3.57.9,6.21,6.21,0,0,1,2.43,2.47,7.34,7.34,0,0,1,.89,3.61,5.77,5.77,0,0,1-.07.79c0,.27-.1.58-.13.89h-11.8v-2.85l10,0-1.64,1.2a5.87,5.87,0,0,0-.41-2.06,3,3,0,0,0-1.1-1.28,3.85,3.85,0,0,0-3.7.07A3.41,3.41,0,0,0,136.1,229a5,5,0,0,0-.45,2.13,4.72,4.72,0,0,0,.45,2.2,3.3,3.3,0,0,0,1.33,1.41,4,4,0,0,0,2.06.48,4.9,4.9,0,0,0,1.92-.34,3.91,3.91,0,0,0,1.48-1.07l2.26,2.27a6.11,6.11,0,0,1-2.44,1.82A8,8,0,0,1,139.56,238.43Z"/><path class="cls-2" d="M148.61,238.13V224.18h3.91v14h-3.91Zm3.91-7.7L151,229.36a7.34,7.34,0,0,1,1.57-4,5,5,0,0,1,5.39-1.14,4.29,4.29,0,0,1,1.44,1.07l-2.44,2.85a1.76,1.76,0,0,0-.72-.52,3.36,3.36,0,0,0-1.06-.17,2.59,2.59,0,0,0-1.89.72A3,3,0,0,0,152.52,230.43Z"/><path class="cls-2" d="M167,238.43a7.42,7.42,0,0,1-6.52-3.6,7.45,7.45,0,0,1,0-7.42,7,7,0,0,1,2.71-2.61,7.4,7.4,0,0,1,3.81-1,7.29,7.29,0,0,1,3.8,1,6.93,6.93,0,0,1,2.68,2.61,7.15,7.15,0,0,1,1,3.71,7.29,7.29,0,0,1-7.47,7.31Zm0-3.6a3.72,3.72,0,0,0,1.85-.48,3,3,0,0,0,1.23-1.31,4.22,4.22,0,0,0,.45-1.92,3.72,3.72,0,0,0-.45-1.89,3.41,3.41,0,0,0-1.23-1.27,3.91,3.91,0,0,0-3.64,0,3.41,3.41,0,0,0-1.23,1.27,4.18,4.18,0,0,0-.45,1.89A4,4,0,0,0,164,233a3,3,0,0,0,1.23,1.3A3,3,0,0,0,167,234.83Z"/><path class="cls-2" d="M378.68,225.93a5.09,5.09,0,0,1-2.44-.59,4.43,4.43,0,0,1-2.36-4,4.36,4.36,0,0,1,.63-2.34,4.57,4.57,0,0,1,1.74-1.64,5.09,5.09,0,0,1,2.47-.59,4.72,4.72,0,0,1,1.87.36,4,4,0,0,1,1.53,1L380.36,220a2.08,2.08,0,0,0-.72-.5,2.4,2.4,0,0,0-.92-.16,2.06,2.06,0,0,0-1.06.27,1.91,1.91,0,0,0-.72.72,2.1,2.1,0,0,0-.25,1.06,2.21,2.21,0,0,0,.25,1.08,2,2,0,0,0,.74.74,2,2,0,0,0,1,.27,2.33,2.33,0,0,0,.95-.18,2.12,2.12,0,0,0,.74-.54l1.75,1.76a4.73,4.73,0,0,1-1.55,1.1A5,5,0,0,1,378.68,225.93Zm8.15,0a4,4,0,0,1-2.16-.59,4.42,4.42,0,0,1-1.5-1.62,5,5,0,0,1-.54-2.34,4.93,4.93,0,0,1,.54-2.34,4.27,4.27,0,0,1,1.5-1.62,3.94,3.94,0,0,1,2.16-.6,3.53,3.53,0,0,1,1.58.35,3,3,0,0,1,1.17.95,2.46,2.46,0,0,1,.5,1.37v3.78a2.52,2.52,0,0,1-.5,1.38,3,3,0,0,1-1.15.94A3.64,3.64,0,0,1,386.83,225.91Zm.56-2.48a1.85,1.85,0,0,0,1.42-.58,2.12,2.12,0,0,0,.54-1.49,2.33,2.33,0,0,0-.25-1.08,1.71,1.71,0,0,0-.69-.72,1.86,1.86,0,0,0-1-.27,1.94,1.94,0,0,0-1,.27,2,2,0,0,0-.71.72,2.33,2.33,0,0,0-.25,1.08,2.3,2.3,0,0,0,.25,1.06,1.94,1.94,0,0,0,.71.74A1.91,1.91,0,0,0,387.39,223.43Zm1.85,2.3v-2.36l.41-2.12-.41-2.12V217h2.7v8.75Zm5.88,0V213.37h2.75v12.36Zm-2-6.41V217h6.71v2.34Zm12.07,6.61a5.4,5.4,0,0,1-2.54-.58,4.42,4.42,0,0,1-1.72-1.63,4.51,4.51,0,0,1-.63-2.36,4.44,4.44,0,0,1,.61-2.34,4.51,4.51,0,0,1,1.69-1.64,4.79,4.79,0,0,1,2.39-.59,4.59,4.59,0,0,1,2.29.55,4,4,0,0,1,1.55,1.55,4.68,4.68,0,0,1,.54,2.77,4,4,0,0,1-.09.6l-7.54,0v-1.89l6.37,0-1.19.79a3.3,3.3,0,0,0-.23-1.24,1.58,1.58,0,0,0-.65-.76,1.86,1.86,0,0,0-1-.27,2,2,0,0,0-1.87,1.14,3.48,3.48,0,0,0,0,2.64,2.16,2.16,0,0,0,.79.85,2.53,2.53,0,0,0,1.22.29,3.05,3.05,0,0,0,1.17-.22,2.66,2.66,0,0,0,.92-.68l1.51,1.51a4.07,4.07,0,0,1-1.56,1.13A5.3,5.3,0,0,1,405.21,225.93Zm9.25,3.73a6,6,0,0,1-2.54-.51,4,4,0,0,1-1.71-1.38l1.69-1.7a3.31,3.31,0,0,0,1.05.85,3.27,3.27,0,0,0,1.42.29,2.33,2.33,0,0,0,1.6-.51,1.74,1.74,0,0,0,.6-1.42v-2.23l.47-1.91-.42-1.91V217h2.7v8.23A4.17,4.17,0,0,1,417,229.1,5.45,5.45,0,0,1,414.46,229.66Zm-.13-4.2a4.05,4.05,0,0,1-2.14-.57,4.19,4.19,0,0,1-1.47-1.57,4.51,4.51,0,0,1-.54-2.2,4.44,4.44,0,0,1,.54-2.19,4,4,0,0,1,1.47-1.55,4.06,4.06,0,0,1,2.14-.58,3.63,3.63,0,0,1,1.61.35,2.7,2.7,0,0,1,1.15.93,2.5,2.5,0,0,1,.5,1.39v3.33a2.52,2.52,0,0,1-.5,1.38,3,3,0,0,1-1.15.94A3.69,3.69,0,0,1,414.33,225.46Zm.53-2.45a1.87,1.87,0,0,0,1-.25,1.62,1.62,0,0,0,.64-.66,2,2,0,0,0,.24-1,2,2,0,0,0-.24-1,1.55,1.55,0,0,0-.64-.68,2.09,2.09,0,0,0-2,0,1.75,1.75,0,0,0-.67.68,2.07,2.07,0,0,0-.23,1,2.12,2.12,0,0,0,.23,1,1.77,1.77,0,0,0,.65.68A1.94,1.94,0,0,0,414.86,223Zm10.62,2.92a5.13,5.13,0,0,1-2.45-.59,4.62,4.62,0,0,1-1.71-1.66,4.46,4.46,0,0,1-.63-2.34,4.34,4.34,0,0,1,.63-2.32A4.44,4.44,0,0,1,423,217.4a4.87,4.87,0,0,1,2.45-.61,4.92,4.92,0,0,1,2.44.59,4.59,4.59,0,0,1,1.72,1.64,4.43,4.43,0,0,1,.63,2.32,4.56,4.56,0,0,1-.63,2.34,4.72,4.72,0,0,1-1.72,1.66A5,5,0,0,1,425.48,225.93Zm0-2.5a2.19,2.19,0,0,0,1-.25,1.73,1.73,0,0,0,.68-.74,2.35,2.35,0,0,0,.26-1.1,2.11,2.11,0,0,0-.26-1.06,1.74,1.74,0,0,0-.7-.72,1.89,1.89,0,0,0-1-.27,2,2,0,0,0-1,.27,1.8,1.8,0,0,0-.7.72,2.21,2.21,0,0,0-.25,1.08,2.32,2.32,0,0,0,.25,1.08,1.92,1.92,0,0,0,.7.74A2.15,2.15,0,0,0,425.48,223.43Zm6.16,2.3V217h2.75v8.75Zm2.75-4.8-1.15-.9a4.92,4.92,0,0,1,1.15-2.38,3,3,0,0,1,2.25-.85,2.84,2.84,0,0,1,1.1.2,2.09,2.09,0,0,1,.84.58L437,219.65a1.21,1.21,0,0,0-.45-.31,1.71,1.71,0,0,0-.62-.11,1.43,1.43,0,0,0-1.09.44A1.72,1.72,0,0,0,434.39,220.93Zm5.24,4.8V217h2.76v8.75Zm.09-9.74-.9-1.31,2.87-2.68,1.51,2.12Zm8.26,9.92a4.07,4.07,0,0,1-2.16-.59,4.39,4.39,0,0,1-1.49-1.62,5,5,0,0,1-.54-2.34,4.93,4.93,0,0,1,.54-2.34,4.24,4.24,0,0,1,1.49-1.62,4,4,0,0,1,2.16-.6,3.57,3.57,0,0,1,1.59.35,2.92,2.92,0,0,1,1.16.95,2.47,2.47,0,0,1,.51,1.37v3.78a2.53,2.53,0,0,1-.51,1.38,2.89,2.89,0,0,1-1.15.94A3.64,3.64,0,0,1,448,225.91Zm.56-2.48a1.83,1.83,0,0,0,1.42-.58,2.12,2.12,0,0,0,.54-1.49,2.21,2.21,0,0,0-.25-1.08,1.75,1.75,0,0,0-.68-.72,1.88,1.88,0,0,0-1-.27,1.93,1.93,0,0,0-1.73,1,2.21,2.21,0,0,0-.25,1.08,2.18,2.18,0,0,0,.25,1.06,1.89,1.89,0,0,0,1.71,1Zm1.85,2.3v-2.36l.42-2.12-.42-2.12V217h2.7v8.75Zm7.83.22a6,6,0,0,1-2.92-.76,4.93,4.93,0,0,1-1.08-.86l1.57-1.59a3,3,0,0,0,1,.74,3.19,3.19,0,0,0,1.29.25,1.5,1.5,0,0,0,.74-.14.45.45,0,0,0,.27-.4.52.52,0,0,0-.32-.48,3.43,3.43,0,0,0-.8-.31l-1-.3a4.73,4.73,0,0,1-1-.45,2.33,2.33,0,0,1-.79-.8,2.77,2.77,0,0,1,.13-2.77,2.82,2.82,0,0,1,1.22-1,4.42,4.42,0,0,1,1.85-.36,5.15,5.15,0,0,1,2.06.4,3.6,3.6,0,0,1,1.54,1.13l-1.56,1.59a2.27,2.27,0,0,0-.94-.69,2.69,2.69,0,0,0-1-.2,1.3,1.3,0,0,0-.7.15.39.39,0,0,0-.23.38.48.48,0,0,0,.3.43,4.14,4.14,0,0,0,.79.29c.33.08.67.18,1,.3a4.35,4.35,0,0,1,1,.49,2.36,2.36,0,0,1,.8.83,2.57,2.57,0,0,1,.3,1.33,2.43,2.43,0,0,1-1,2A4,4,0,0,1,458.22,226Z"/><path class="cls-2" d="M511.45,225.73V217h2.76v8.75Zm5.6,0v-5.11a1.32,1.32,0,0,0-.41-1,1.4,1.4,0,0,0-1-.37,1.5,1.5,0,0,0-.74.18,1.22,1.22,0,0,0-.52.46,1.5,1.5,0,0,0-.18.76l-1.06-.47a3.36,3.36,0,0,1,.45-1.78,2.94,2.94,0,0,1,1.22-1.15,3.62,3.62,0,0,1,1.75-.42,3.17,3.17,0,0,1,1.63.42,2.94,2.94,0,0,1,1.17,1.15,3.4,3.4,0,0,1,.44,1.76v5.6Zm5.6,0v-5.11a1.32,1.32,0,0,0-.41-1,1.4,1.4,0,0,0-1-.37,1.47,1.47,0,0,0-.74.18,1.22,1.22,0,0,0-.52.46,1.5,1.5,0,0,0-.18.76l-1.59-.22a3.88,3.88,0,0,1,.52-1.9,3.51,3.51,0,0,1,1.32-1.25,3.81,3.81,0,0,1,1.85-.45,3.56,3.56,0,0,1,1.78.44,3,3,0,0,1,1.25,1.2,3.58,3.58,0,0,1,.46,1.87v5.42Zm4.52,0V217h2.75v8.75Zm1.38-9.95a1.5,1.5,0,0,1-1.08-.43,1.56,1.56,0,0,1-.41-1.08,1.49,1.49,0,0,1,.41-1.08,1.47,1.47,0,0,1,1.08-.44,1.42,1.42,0,0,1,1.07.44,1.49,1.49,0,0,1,.41,1.08,1.56,1.56,0,0,1-.41,1.08A1.45,1.45,0,0,1,528.55,215.78Zm6.74,9.95V212.66H538v13.07Zm4.69,0V217h2.76v8.75Zm1.39-9.95a1.5,1.5,0,0,1-1.08-.43,1.52,1.52,0,0,1-.41-1.08,1.45,1.45,0,0,1,.41-1.08,1.47,1.47,0,0,1,1.08-.44,1.39,1.39,0,0,1,1.06.44,1.46,1.46,0,0,1,.42,1.08,1.53,1.53,0,0,1-.42,1.08A1.42,1.42,0,0,1,541.37,215.78ZM547.86,226a6.18,6.18,0,0,1-1.53-.2,6,6,0,0,1-1.38-.56,4.93,4.93,0,0,1-1.08-.86l1.56-1.59a3,3,0,0,0,1,.74,3.24,3.24,0,0,0,1.3.25,1.43,1.43,0,0,0,.73-.14.45.45,0,0,0,.27-.4.51.51,0,0,0-.32-.48,3.51,3.51,0,0,0-.79-.31l-1-.3a5,5,0,0,1-1-.45,2.42,2.42,0,0,1-.79-.8,2.57,2.57,0,0,1-.3-1.31,2.47,2.47,0,0,1,.43-1.46,2.94,2.94,0,0,1,1.22-1,4.47,4.47,0,0,1,1.86-.36,5.13,5.13,0,0,1,2,.4,3.63,3.63,0,0,1,1.55,1.13L550,219.85a2.21,2.21,0,0,0-.94-.69,2.69,2.69,0,0,0-1-.2,1.32,1.32,0,0,0-.7.15.41.41,0,0,0-.23.38.48.48,0,0,0,.3.43,4,4,0,0,0,.8.29q.48.12,1,.3a4.42,4.42,0,0,1,1,.49,2.33,2.33,0,0,1,.79.83,2.74,2.74,0,0,1-.66,3.36A4,4,0,0,1,547.86,226Zm6.3-.22V213.37h2.76v12.36Zm-2-6.41V217h6.72v2.34Zm11.41,6.59a4,4,0,0,1-2.16-.59,4.42,4.42,0,0,1-1.5-1.62,5.1,5.1,0,0,1-.53-2.34,5,5,0,0,1,.53-2.34,4.27,4.27,0,0,1,1.5-1.62,4,4,0,0,1,2.16-.6,3.5,3.5,0,0,1,1.58.35,3,3,0,0,1,1.17.95,2.55,2.55,0,0,1,.51,1.37v3.78a2.61,2.61,0,0,1-.51,1.38,3,3,0,0,1-1.15.94A3.64,3.64,0,0,1,563.59,225.91Zm.56-2.48a1.85,1.85,0,0,0,1.42-.58,2.12,2.12,0,0,0,.54-1.49,2.21,2.21,0,0,0-.25-1.08,1.71,1.71,0,0,0-.69-.72,1.84,1.84,0,0,0-1-.27,1.93,1.93,0,0,0-1.72,1,2.21,2.21,0,0,0-.26,1.08,2.19,2.19,0,0,0,.26,1.06,1.85,1.85,0,0,0,.7.74A1.93,1.93,0,0,0,564.15,223.43Zm1.85,2.3v-2.36l.41-2.12-.41-2.12V217h2.7v8.75Z"/><path class="cls-2" d="M623.18,225.91a4.17,4.17,0,0,1-2.21-.59,4.39,4.39,0,0,1-1.52-1.62,5,5,0,0,1-.54-2.34,4.93,4.93,0,0,1,.54-2.34A4.24,4.24,0,0,1,621,217.4a4.09,4.09,0,0,1,2.21-.6,3.7,3.7,0,0,1,1.62.35,3.15,3.15,0,0,1,1.21.95,2.43,2.43,0,0,1,.54,1.37v3.69a2.6,2.6,0,0,1-.53,1.4,3.43,3.43,0,0,1-1.2,1A3.69,3.69,0,0,1,623.18,225.91Zm.49-2.48a2.08,2.08,0,0,0,1-.25,2,2,0,0,0,.69-.74,2.33,2.33,0,0,0,.25-1.08,2.21,2.21,0,0,0-.25-1.06,1.76,1.76,0,0,0-.69-.74,1.86,1.86,0,0,0-1-.27,1.94,1.94,0,0,0-1,.27,2,2,0,0,0-.7.74,2.16,2.16,0,0,0-.26,1.06,2.19,2.19,0,0,0,.26,1.06,1.85,1.85,0,0,0,.7.74A1.91,1.91,0,0,0,623.67,223.43Zm4.55,2.3h-2.7v-2.36l.41-2.12-.46-2.12v-6.47h2.75Zm1.94,0V217h2.75v8.75Zm1.39-9.95a1.47,1.47,0,0,1-1.08-.43,1.53,1.53,0,0,1-.42-1.08,1.46,1.46,0,0,1,.42-1.08,1.44,1.44,0,0,1,1.08-.44,1.41,1.41,0,0,1,1.06.44,1.49,1.49,0,0,1,.41,1.08,1.56,1.56,0,0,1-.41,1.08A1.44,1.44,0,0,1,631.55,215.78Zm3.3,9.95V217h2.76v8.75Zm2.76-4.8-1.15-.9a4.83,4.83,0,0,1,1.15-2.38,3,3,0,0,1,2.25-.85,2.88,2.88,0,0,1,1.1.2,2.09,2.09,0,0,1,.84.58l-1.64,2.07a1.21,1.21,0,0,0-.45-.31,1.66,1.66,0,0,0-.61-.11,1.47,1.47,0,0,0-1.1.44A1.76,1.76,0,0,0,637.61,220.93Zm9,5a5.37,5.37,0,0,1-2.54-.58,4.45,4.45,0,0,1-1.73-1.63,4.54,4.54,0,0,1,1.68-6.34,4.73,4.73,0,0,1,2.39-.59,4.62,4.62,0,0,1,2.29.55,4,4,0,0,1,1.54,1.55,4.38,4.38,0,0,1,.58,2.27,3,3,0,0,1,0,.5,4,4,0,0,1-.09.6l-7.54,0v-1.89l6.37,0-1.18.79a3.29,3.29,0,0,0-.24-1.24,1.53,1.53,0,0,0-.65-.76,1.8,1.8,0,0,0-1-.27,2.07,2.07,0,0,0-1.14.31,2,2,0,0,0-.73.83,3.42,3.42,0,0,0,0,2.64,2.26,2.26,0,0,0,.8.85,2.47,2.47,0,0,0,1.22.29,3.13,3.13,0,0,0,1.17-.22,2.75,2.75,0,0,0,.92-.68l1.51,1.51a4,4,0,0,1-1.57,1.13A5.25,5.25,0,0,1,646.61,225.93Zm9.77,0a5.13,5.13,0,0,1-2.45-.59,4.55,4.55,0,0,1-1.73-1.64,4.46,4.46,0,0,1-.63-2.34,4.36,4.36,0,0,1,.63-2.34,4.67,4.67,0,0,1,1.75-1.64,5,5,0,0,1,2.47-.59,4.76,4.76,0,0,1,1.87.36,4.21,4.21,0,0,1,1.53,1L658.05,220a1.91,1.91,0,0,0-.72-.5,2.35,2.35,0,0,0-.91-.16,2.13,2.13,0,0,0-1.07.27,1.91,1.91,0,0,0-.72.72,2.21,2.21,0,0,0-.25,1.06,2.33,2.33,0,0,0,.25,1.08,2,2,0,0,0,.74.74,2.05,2.05,0,0,0,1,.27,2.37,2.37,0,0,0,1-.18,2.21,2.21,0,0,0,.74-.54l1.74,1.76a4.69,4.69,0,0,1-1.54,1.1A5,5,0,0,1,656.38,225.93Zm5.8-.2V213.37h2.75v12.36Zm-2-6.41V217h6.71v2.34Zm12,6.61a5.09,5.09,0,0,1-2.44-.59,4.62,4.62,0,0,1-1.71-1.66,4.46,4.46,0,0,1-.63-2.34A4.34,4.34,0,0,1,668,219a4.44,4.44,0,0,1,1.71-1.62,4.83,4.83,0,0,1,2.44-.61,4.94,4.94,0,0,1,2.45.59,4.49,4.49,0,0,1,1.71,1.64,4.34,4.34,0,0,1,.63,2.32,4.46,4.46,0,0,1-.63,2.34,4.62,4.62,0,0,1-1.71,1.66A5,5,0,0,1,672.16,225.93Zm0-2.5a2.2,2.2,0,0,0,1.05-.25,1.73,1.73,0,0,0,.68-.74,2.34,2.34,0,0,0,.25-1.1,2.1,2.1,0,0,0-.25-1.06,1.8,1.8,0,0,0-.7-.72,1.91,1.91,0,0,0-1-.27,1.94,1.94,0,0,0-1,.27,1.74,1.74,0,0,0-.7.72,2.21,2.21,0,0,0-.26,1.08,2.33,2.33,0,0,0,.26,1.08,1.85,1.85,0,0,0,.7.74A2.14,2.14,0,0,0,672.16,223.43Z"/><path class="cls-2" d="M732.23,225.73v-5a1.43,1.43,0,0,0-.43-1.1,1.4,1.4,0,0,0-1.06-.43,1.54,1.54,0,0,0-.79.19,1.28,1.28,0,0,0-.54.54,1.51,1.51,0,0,0-.2.8l-1.06-.53a3.54,3.54,0,0,1,.45-1.8,3,3,0,0,1,1.24-1.18,3.77,3.77,0,0,1,1.82-.44,3.31,3.31,0,0,1,2.89,1.68,3.23,3.23,0,0,1,.44,1.65v5.6Zm-5.78,0V217h2.76v8.75Zm14.52.2a5.13,5.13,0,0,1-2.45-.59,4.62,4.62,0,0,1-1.71-1.66,4.46,4.46,0,0,1-.63-2.34,4.34,4.34,0,0,1,.63-2.32,4.44,4.44,0,0,1,1.71-1.62,4.84,4.84,0,0,1,2.45-.61,4.9,4.9,0,0,1,2.44.59,4.45,4.45,0,0,1,2.35,4,4.51,4.51,0,0,1-2.35,4A5,5,0,0,1,741,225.93Zm0-2.5a2.19,2.19,0,0,0,1-.25,1.82,1.82,0,0,0,.69-.74,2.47,2.47,0,0,0,.25-1.1,2.21,2.21,0,0,0-.25-1.06,1.82,1.82,0,0,0-.71-.72,1.87,1.87,0,0,0-1-.27,2,2,0,0,0-1,.27,1.8,1.8,0,0,0-.7.72,2.21,2.21,0,0,0-.25,1.08,2.32,2.32,0,0,0,.25,1.08,1.92,1.92,0,0,0,.7.74A2.15,2.15,0,0,0,741,223.43Zm7.22,2.3V213.37H751v12.36Zm-2-6.41V217h6.72v2.34Zm7.93,6.41V217h2.75v8.75Zm1.39-9.95a1.47,1.47,0,0,1-1.08-.43,1.53,1.53,0,0,1-.42-1.08,1.46,1.46,0,0,1,.42-1.08,1.44,1.44,0,0,1,1.08-.44,1.41,1.41,0,0,1,1.06.44,1.49,1.49,0,0,1,.41,1.08,1.56,1.56,0,0,1-.41,1.08A1.44,1.44,0,0,1,755.53,215.78Zm7.53,10.15a5.16,5.16,0,0,1-2.45-.59,4.52,4.52,0,0,1-1.72-1.64,4.46,4.46,0,0,1-.63-2.34,4.36,4.36,0,0,1,.63-2.34,4.57,4.57,0,0,1,1.74-1.64,5.07,5.07,0,0,1,2.47-.59,4.72,4.72,0,0,1,1.87.36,4,4,0,0,1,1.53,1L764.74,220a2.08,2.08,0,0,0-.72-.5,2.4,2.4,0,0,0-.92-.16,2.06,2.06,0,0,0-1.06.27,1.91,1.91,0,0,0-.72.72,2.1,2.1,0,0,0-.25,1.06,2.21,2.21,0,0,0,.25,1.08,2,2,0,0,0,.73.74,2.11,2.11,0,0,0,1.05.27,2.33,2.33,0,0,0,.95-.18,2.12,2.12,0,0,0,.74-.54l1.75,1.76a4.73,4.73,0,0,1-1.55,1.1A5,5,0,0,1,763.06,225.93Zm4.7-.2V217h2.76v8.75Zm1.39-9.95a1.5,1.5,0,0,1-1.08-.43,1.52,1.52,0,0,1-.41-1.08,1.45,1.45,0,0,1,.41-1.08,1.47,1.47,0,0,1,1.08-.44,1.41,1.41,0,0,1,1.06.44,1.46,1.46,0,0,1,.42,1.08,1.53,1.53,0,0,1-.42,1.08A1.44,1.44,0,0,1,769.15,215.78Zm7,10.13a4.07,4.07,0,0,1-2.16-.59,4.39,4.39,0,0,1-1.49-1.62,5,5,0,0,1-.54-2.34,4.93,4.93,0,0,1,.54-2.34A4.24,4.24,0,0,1,774,217.4a4,4,0,0,1,2.16-.6,3.5,3.5,0,0,1,1.58.35,3,3,0,0,1,1.17.95,2.55,2.55,0,0,1,.51,1.37v3.78a2.61,2.61,0,0,1-.51,1.38,2.89,2.89,0,0,1-1.15.94A3.64,3.64,0,0,1,776.11,225.91Zm.56-2.48a1.83,1.83,0,0,0,1.42-.58,2.12,2.12,0,0,0,.54-1.49,2.21,2.21,0,0,0-.25-1.08,1.71,1.71,0,0,0-.69-.72,1.82,1.82,0,0,0-1-.27,1.93,1.93,0,0,0-1.73,1,2.21,2.21,0,0,0-.25,1.08,2.18,2.18,0,0,0,.25,1.06,1.89,1.89,0,0,0,1.71,1Zm1.85,2.3v-2.36l.42-2.12-.42-2.12V217h2.7v8.75Zm7.83.22a6,6,0,0,1-2.92-.76,4.93,4.93,0,0,1-1.08-.86l1.57-1.59a3.11,3.11,0,0,0,1,.74,3.27,3.27,0,0,0,1.3.25,1.5,1.5,0,0,0,.74-.14.45.45,0,0,0,.27-.4.52.52,0,0,0-.33-.48,3.17,3.17,0,0,0-.79-.31l-1-.3a4.65,4.65,0,0,1-1-.45,2.33,2.33,0,0,1-.79-.8,2.47,2.47,0,0,1-.31-1.31,2.54,2.54,0,0,1,.43-1.46,2.91,2.91,0,0,1,1.23-1,4.39,4.39,0,0,1,1.85-.36,5.1,5.1,0,0,1,2,.4,3.58,3.58,0,0,1,1.55,1.13l-1.56,1.59a2.27,2.27,0,0,0-.94-.69,2.77,2.77,0,0,0-1-.2,1.3,1.3,0,0,0-.7.15.4.4,0,0,0-.24.38.5.5,0,0,0,.31.43,3.9,3.9,0,0,0,.79.29c.33.08.67.18,1,.3a4.35,4.35,0,0,1,1,.49,2.25,2.25,0,0,1,.79.83,2.47,2.47,0,0,1,.31,1.33,2.43,2.43,0,0,1-1,2A4,4,0,0,1,786.35,226Z"/><path class="cls-2" d="M842.64,226a6.06,6.06,0,0,1-1.53-.2,6.22,6.22,0,0,1-1.39-.56,4.93,4.93,0,0,1-1.08-.86l1.57-1.59a3,3,0,0,0,1,.74,3.19,3.19,0,0,0,1.29.25,1.47,1.47,0,0,0,.74-.14.45.45,0,0,0,.27-.4.52.52,0,0,0-.32-.48,3.43,3.43,0,0,0-.8-.31l-1-.3a5,5,0,0,1-1-.45,2.33,2.33,0,0,1-.79-.8,2.56,2.56,0,0,1-.31-1.31,2.47,2.47,0,0,1,.44-1.46,2.82,2.82,0,0,1,1.22-1,4.46,4.46,0,0,1,1.85-.36,5.15,5.15,0,0,1,2.06.4,3.6,3.6,0,0,1,1.54,1.13l-1.56,1.59a2.27,2.27,0,0,0-.94-.69,2.69,2.69,0,0,0-1-.2,1.32,1.32,0,0,0-.7.15.39.39,0,0,0-.23.38.48.48,0,0,0,.3.43,4.14,4.14,0,0,0,.79.29c.33.08.67.18,1,.3a4.62,4.62,0,0,1,1,.49,2.42,2.42,0,0,1,.79.83,2.57,2.57,0,0,1,.3,1.33,2.43,2.43,0,0,1-1,2A4,4,0,0,1,842.64,226Zm9.27,0a5.16,5.16,0,0,1-2.45-.59,4.62,4.62,0,0,1-1.71-1.66,4.46,4.46,0,0,1-.63-2.34,4.34,4.34,0,0,1,.63-2.32,4.44,4.44,0,0,1,1.71-1.62,4.87,4.87,0,0,1,2.45-.61,5,5,0,0,1,2.45.59,4.49,4.49,0,0,1,1.71,1.64,4.34,4.34,0,0,1,.63,2.32,4.46,4.46,0,0,1-.63,2.34,4.62,4.62,0,0,1-1.71,1.66A5.07,5.07,0,0,1,851.91,225.93Zm0-2.5a2.2,2.2,0,0,0,1.05-.25,1.8,1.8,0,0,0,.68-.74,2.34,2.34,0,0,0,.25-1.1,2.1,2.1,0,0,0-.25-1.06,1.8,1.8,0,0,0-.7-.72,2.08,2.08,0,0,0-2.05,0,1.82,1.82,0,0,0-.71.72,2.33,2.33,0,0,0-.25,1.08,2.45,2.45,0,0,0,.25,1.08,1.94,1.94,0,0,0,.71.74A2.11,2.11,0,0,0,851.91,223.43Zm11.2,2.48a3.63,3.63,0,0,1-1.62-.36,3.56,3.56,0,0,1-1.21-1,2.78,2.78,0,0,1-.54-1.4v-3.69a2.58,2.58,0,0,1,.54-1.37,3.15,3.15,0,0,1,1.21-.95,3.77,3.77,0,0,1,1.62-.35,4.11,4.11,0,0,1,3.71,2.22,4.82,4.82,0,0,1,.56,2.34,4.88,4.88,0,0,1-.56,2.34,4.21,4.21,0,0,1-1.51,1.62A4.14,4.14,0,0,1,863.11,225.91Zm-.49-2.48a1.89,1.89,0,0,0,1.71-1,2.19,2.19,0,0,0,.26-1.06,2.21,2.21,0,0,0-.26-1.08,1.74,1.74,0,0,0-.7-.72,1.86,1.86,0,0,0-1-.27,1.94,1.94,0,0,0-1,.27,1.74,1.74,0,0,0-.7.72,2.5,2.5,0,0,0,0,2.16,2,2,0,0,0,.69.74A2.14,2.14,0,0,0,862.62,223.43Zm-4.55,2.3V212.66h2.75v6.47l-.45,2.12.42,2.12v2.36Zm10.71,0V217h2.75v8.75Zm2.75-4.8-1.15-.9a4.83,4.83,0,0,1,1.15-2.38,3,3,0,0,1,2.25-.85,2.84,2.84,0,0,1,1.1.2,2.09,2.09,0,0,1,.84.58l-1.63,2.07a1.21,1.21,0,0,0-.45-.31,1.71,1.71,0,0,0-.62-.11,1.47,1.47,0,0,0-1.1.44A1.76,1.76,0,0,0,871.53,220.93Zm9,5a5.4,5.4,0,0,1-2.54-.58,4.45,4.45,0,0,1-1.73-1.63,4.51,4.51,0,0,1-.63-2.36,4.45,4.45,0,0,1,.62-2.34,4.51,4.51,0,0,1,1.69-1.64,4.76,4.76,0,0,1,2.39-.59,4.59,4.59,0,0,1,2.29.55,4.12,4.12,0,0,1,1.55,1.55,4.68,4.68,0,0,1,.54,2.77q0,.26-.09.6l-7.55,0v-1.89l6.38,0-1.19.79a3.11,3.11,0,0,0-.24-1.24,1.56,1.56,0,0,0-.64-.76,1.86,1.86,0,0,0-1-.27,2,2,0,0,0-1.13.31,1.93,1.93,0,0,0-.74.83,3.48,3.48,0,0,0,0,2.64,2.16,2.16,0,0,0,.79.85,2.5,2.5,0,0,0,1.22.29,3.13,3.13,0,0,0,1.17-.22,2.66,2.66,0,0,0,.92-.68l1.51,1.51a4.07,4.07,0,0,1-1.56,1.13A5.34,5.34,0,0,1,880.53,225.93Z"/><path class="cls-2" d="M1099.91,225.73v-1.17h3.92a2.67,2.67,0,0,0,1.93-.68,2.47,2.47,0,0,0,.39-2.92,2.1,2.1,0,0,0-.88-.84,2.57,2.57,0,0,0-1.33-.33h-4v-1.15h3.83a2.21,2.21,0,0,0,1.58-.54,2,2,0,0,0,.6-1.53,1.91,1.91,0,0,0-.63-1.53,2.52,2.52,0,0,0-1.69-.54h-3.69v-1.15h3.72a4.33,4.33,0,0,1,2,.41,3,3,0,0,1,1.23,1.12,3.1,3.1,0,0,1,.41,1.58,3,3,0,0,1-.54,1.8,3.47,3.47,0,0,1-1.58,1.14l.12-.44a3.73,3.73,0,0,1,1.88,1.25,3.22,3.22,0,0,1,.68,2,3.29,3.29,0,0,1-1.87,3,4.84,4.84,0,0,1-2.18.45Zm-.85,0V213.35h1.31v12.38Zm14.29.18a3.45,3.45,0,0,1-3.11-1.78,4,4,0,0,1-.45-1.94v-4.92h1.28v4.86a3.13,3.13,0,0,0,.27,1.35,2.09,2.09,0,0,0,.81.9,2.18,2.18,0,0,0,1.2.33A2.12,2.12,0,0,0,1115,224a2.68,2.68,0,0,0,.63-1.87v-4.86h1.26v4.92a4.05,4.05,0,0,1-.45,1.94,3.25,3.25,0,0,1-1.26,1.31A3.57,3.57,0,0,1,1113.35,225.91Zm8.51,0a4.71,4.71,0,0,1-1.31-.18,4.56,4.56,0,0,1-1.16-.54,4.24,4.24,0,0,1-.88-.81l.81-.83a3.38,3.38,0,0,0,1.14.92,3.53,3.53,0,0,0,1.44.29,2.33,2.33,0,0,0,1.31-.32,1,1,0,0,0,.49-.9,1.08,1.08,0,0,0-.35-.85,2.47,2.47,0,0,0-.88-.49c-.35-.12-.72-.23-1.11-.34a8.14,8.14,0,0,1-1.14-.43,2.44,2.44,0,0,1-.88-.74,2.07,2.07,0,0,1-.32-1.22,2.17,2.17,0,0,1,.34-1.24,2.25,2.25,0,0,1,1-.83,3.59,3.59,0,0,1,1.56-.31,4.38,4.38,0,0,1,1.73.34,2.94,2.94,0,0,1,1.24,1l-.81.81a2.48,2.48,0,0,0-.95-.74,2.84,2.84,0,0,0-1.26-.27,2,2,0,0,0-1.24.33,1,1,0,0,0-.42.81,1,1,0,0,0,.34.77,3,3,0,0,0,.87.45l1.13.34a5.64,5.64,0,0,1,1.14.45,2.26,2.26,0,0,1,.86.76,2.11,2.11,0,0,1,.34,1.28,2.24,2.24,0,0,1-.83,1.82A3.39,3.39,0,0,1,1121.86,225.91Zm8.89,0a4.48,4.48,0,0,1-2.25-.57,4.44,4.44,0,0,1-1.58-1.61,4.39,4.39,0,0,1-.58-2.25,4.32,4.32,0,0,1,2.16-3.81,4.62,4.62,0,0,1,4-.22,4.1,4.1,0,0,1,1.41,1l-.83.85a2.79,2.79,0,0,0-1-.74,3.32,3.32,0,0,0-2.91.14,2.94,2.94,0,0,0-1.1,1.14,3.28,3.28,0,0,0-.4,1.63,3.48,3.48,0,0,0,.4,1.66,2.85,2.85,0,0,0,1.1,1.13,3.06,3.06,0,0,0,1.6.42,3.62,3.62,0,0,0,1.33-.25,3.08,3.08,0,0,0,1.05-.76l.84.85a3.93,3.93,0,0,1-1.44,1A4.39,4.39,0,0,1,1130.75,225.91Zm8.5,0a4.15,4.15,0,0,1-2.16-.57,4.43,4.43,0,0,1-1.51-1.59,4.57,4.57,0,0,1-.54-2.23,4.62,4.62,0,0,1,.54-2.25,4.17,4.17,0,0,1,1.51-1.58,4,4,0,0,1,2.14-.6,3.59,3.59,0,0,1,1.73.4,3,3,0,0,1,1.24,1.08,3.3,3.3,0,0,1,.6,1.6v2.65a3.46,3.46,0,0,1-.6,1.62,3.2,3.2,0,0,1-1.24,1.09A3.65,3.65,0,0,1,1139.25,225.91Zm.2-1.2a2.7,2.7,0,0,0,2.11-.89,3.28,3.28,0,0,0,.81-2.32,3.58,3.58,0,0,0-.38-1.67,2.65,2.65,0,0,0-1-1.14,2.82,2.82,0,0,0-1.53-.41,3.15,3.15,0,0,0-1.6.41,3.07,3.07,0,0,0-1.1,1.16,3.71,3.71,0,0,0,0,3.31,3.08,3.08,0,0,0,2.72,1.55Zm2.84,1v-2.27l.26-2.08-.26-2v-2.07h1.26v8.46Zm3.82,0v-8.46h1.26v8.46Zm1.26-4.93-.52-.23a3.89,3.89,0,0,1,.77-2.54,2.91,2.91,0,0,1,4.29,0l-.83.88a1.79,1.79,0,0,0-.69-.49,2.31,2.31,0,0,0-.82-.14,2.1,2.1,0,0,0-1.59.65A2.57,2.57,0,0,0,1147.37,220.8Zm6.15,5.11a1,1,0,0,1-.73-.3,1,1,0,0,1-.29-.74.94.94,0,0,1,.29-.72,1,1,0,0,1,1.45,0,.94.94,0,0,1,.29.72,1,1,0,0,1-.29.74A1,1,0,0,1,1153.52,225.91Zm5.21,0a1,1,0,0,1-.74-.3,1.06,1.06,0,0,1-.29-.74,1,1,0,0,1,.29-.72,1,1,0,0,1,.74-.31.92.92,0,0,1,.72.31,1,1,0,0,1,.29.72,1.06,1.06,0,0,1-.29.74A1,1,0,0,1,1158.73,225.91Z"/><path class="cls-2" d="M1285.63,206.73a6.2,6.2,0,1,0,6.16,6.2A6.18,6.18,0,0,0,1285.63,206.73Zm3.37,6.2a3.37,3.37,0,1,1-3.37-3.39A3.39,3.39,0,0,1,1289,212.93Z"/><path class="cls-2" d="M1292.78,218l-2,2,8.71,8.76,2-2Z"/><rect class="cls-8" x="1078.48" y="197.73" width="236" height="42" rx="6"/><g class="cls-9"><path class="cls-2" d="M1351.77,207.23a6.17,6.17,0,1,0,5.87,6.16A6,6,0,0,0,1351.77,207.23Zm3.21,6.16a3.21,3.21,0,1,1-3.21-3.37A3.3,3.3,0,0,1,1355,213.39Z"/><path class="cls-2" d="M1360.48,230.23v-1.07a8.51,8.51,0,1,0-17,.66v.41h2.9c0-.14,0-.27,0-.41a5.61,5.61,0,1,1,11.21,0,2.82,2.82,0,0,1,0,.41Z"/></g><rect class="cls-2" y="358.23" width="360" height="76"/><g class="cls-10"><path class="cls-11" d="M33.79,389.23H30.5v14h3.29Z"/><path class="cls-11" d="M41.63,389.23H38.34v14h3.29Z"/><path class="cls-11" d="M49.5,389.23H46.21v14H49.5Z"/></g><g class="cls-12"><path class="cls-11" d="M89.09,388.61,91.43,391a6.41,6.41,0,0,1,9.12,0s0,.06.06.06l2.36-2.39,0,0A9.73,9.73,0,0,0,89.09,388.61Z"/><path class="cls-11" d="M89,396.45l2.36,2.38a6.42,6.42,0,0,1,9.13,0s0,.06.05.06l2.37-2.38s0-.06-.06-.06A9.73,9.73,0,0,0,89,396.45Z"/><path class="cls-11" d="M103,404.28l-2.36,2.39a6.41,6.41,0,0,0-9.12,0s0,.06-.06.06l-2.37-2.39s0-.06.06-.06A9.75,9.75,0,0,1,103,404.28Z"/></g><g class="cls-13"><path class="cls-11" d="M145.79,398.74l-2.23,2.19,7.92,7.79,2.23-2.19Z"/><path class="cls-11" d="M162,389.75a7.1,7.1,0,0,0-9.93,0l2.24,2.2a3.88,3.88,0,0,1,5.45,0,3.73,3.73,0,0,1,0,5.37l2.24,2.2A6.83,6.83,0,0,0,162,389.75Z"/><path class="cls-11" d="M144.29,392a3.88,3.88,0,0,1,5.45,0l2.24-2.2a7.1,7.1,0,0,0-9.93,0,6.83,6.83,0,0,0,0,9.77l2.24-2.2A3.8,3.8,0,0,1,144.29,392Z"/></g><g class="cls-14"><path class="cls-11" d="M216.92,397a9.06,9.06,0,0,1-8.91-8.62,9.07,9.07,0,0,1-8.93,8.62H199v-3.14h.08a6,6,0,0,0,5.89-6.08h6a6,6,0,0,0,5.89,6.08H217V397Z"/><path class="cls-11" d="M208.13,398.37v2.88a3.44,3.44,0,0,1,3.37,3.48h2.79A6.27,6.27,0,0,0,208.13,398.37Z"/><path class="cls-11" d="M202,404.73h2.79a3.44,3.44,0,0,1,3.38-3.48v-2.88A6.27,6.27,0,0,0,202,404.73Z"/></g><g class="cls-15"><path class="cls-11" d="M264.26,390.13a6.08,6.08,0,1,0,6.39,6.07A6.25,6.25,0,0,0,264.26,390.13Zm3.5,6.07a3.5,3.5,0,1,1-3.5-3.32A3.43,3.43,0,0,1,267.76,396.2Z"/><path class="cls-11" d="M267.24,384.73v3a6,6,0,0,1,6.11,5.8v.09h3.15v-.09A9.05,9.05,0,0,0,267.24,384.73Z"/><path class="cls-11" d="M260.76,407.73v-3a6,6,0,0,1-6.11-5.8v-.08H251.5v.08A9.05,9.05,0,0,0,260.76,407.73Z"/></g><path class="cls-11" d="M320,393.21a3,3,0,1,0,3,3A3,3,0,0,0,320,393.21Z"/><path class="cls-11" d="M331,393.21a3,3,0,1,0,3,3A3,3,0,0,0,331,393.21Z"/><path class="cls-11" d="M309,393.21a3,3,0,1,0,3,3A3,3,0,0,0,309,393.21Z"/><rect class="cls-7" y="457.23" width="360" height="76"/><g class="cls-16"><path class="cls-3" d="M33.79,488.23H30.5v14h3.29Z"/><path class="cls-3" d="M41.63,488.23H38.34v14h3.29Z"/><path class="cls-3" d="M49.5,488.23H46.21v14H49.5Z"/></g><g class="cls-17"><path class="cls-3" d="M89.09,487.61,91.43,490a6.41,6.41,0,0,1,9.12,0s0,.06.06.06l2.36-2.39,0,0A9.73,9.73,0,0,0,89.09,487.61Z"/><path class="cls-3" d="M89,495.45l2.36,2.38a6.42,6.42,0,0,1,9.13,0s0,.06.05.06l2.37-2.38s0-.06-.06-.06A9.73,9.73,0,0,0,89,495.45Z"/><path class="cls-3" d="M103,503.28l-2.36,2.39a6.41,6.41,0,0,0-9.12,0s0,.06-.06.06l-2.37-2.39s0-.06.06-.06A9.75,9.75,0,0,1,103,503.28Z"/></g><g class="cls-18"><path class="cls-3" d="M145.79,497.74l-2.23,2.19,7.92,7.79,2.23-2.19Z"/><path class="cls-3" d="M162,488.75a7.1,7.1,0,0,0-9.93,0l2.24,2.2a3.88,3.88,0,0,1,5.45,0,3.73,3.73,0,0,1,0,5.37l2.24,2.2A6.83,6.83,0,0,0,162,488.75Z"/><path class="cls-3" d="M144.29,491a3.88,3.88,0,0,1,5.45,0l2.24-2.2a7.1,7.1,0,0,0-9.93,0,6.83,6.83,0,0,0,0,9.77l2.24-2.2A3.8,3.8,0,0,1,144.29,491Z"/></g><g class="cls-19"><path class="cls-3" d="M216.92,496a9.06,9.06,0,0,1-8.91-8.62,9.07,9.07,0,0,1-8.93,8.62H199v-3.14h.08a6,6,0,0,0,5.89-6.08h6a6,6,0,0,0,5.89,6.08H217V496Z"/><path class="cls-3" d="M208.13,497.37v2.88a3.44,3.44,0,0,1,3.37,3.48h2.79A6.27,6.27,0,0,0,208.13,497.37Z"/><path class="cls-3" d="M202,503.73h2.79a3.44,3.44,0,0,1,3.38-3.48v-2.88A6.27,6.27,0,0,0,202,503.73Z"/></g><g class="cls-20"><path class="cls-3" d="M264.26,489.13a6.08,6.08,0,1,0,6.39,6.07A6.25,6.25,0,0,0,264.26,489.13Zm3.5,6.07a3.5,3.5,0,1,1-3.5-3.32A3.43,3.43,0,0,1,267.76,495.2Z"/><path class="cls-3" d="M267.24,483.73v3a6,6,0,0,1,6.11,5.8v.09h3.15v-.09A9.05,9.05,0,0,0,267.24,483.73Z"/><path class="cls-3" d="M260.76,506.73v-3a6,6,0,0,1-6.11-5.8v-.08H251.5v.08A9.05,9.05,0,0,0,260.76,506.73Z"/></g><path class="cls-3" d="M320,492.21a3,3,0,1,0,3,3A3,3,0,0,0,320,492.21Z"/><path class="cls-3" d="M331,492.21a3,3,0,1,0,3,3A3,3,0,0,0,331,492.21Z"/><path class="cls-3" d="M309,492.21a3,3,0,1,0,3,3A3,3,0,0,0,309,492.21Z"/><path d="M5.57,23.23V18.82h5.6a7.68,7.68,0,0,0,3.58-.8,5.71,5.71,0,0,0,2.37-2.4A7.91,7.91,0,0,0,18,11.9a7.47,7.47,0,0,0-.86-3.68,5.79,5.79,0,0,0-2.37-2.36A7.17,7.17,0,0,0,11.17,5H5.41V.64h5.82a13,13,0,0,1,4.71.83,10.67,10.67,0,0,1,3.77,2.34,10.12,10.12,0,0,1,2.5,3.58,11.2,11.2,0,0,1,.89,4.55,11.32,11.32,0,0,1-.89,4.54,10.21,10.21,0,0,1-2.47,3.58A11.11,11.11,0,0,1,16,22.4a12.92,12.92,0,0,1-4.67.83Zm-3.39,0V.64h5V23.23Zm31.35.35a9.73,9.73,0,0,1-4.51-1,7.87,7.87,0,0,1-4.19-7.1,7.9,7.9,0,0,1,1.09-4.16,8.08,8.08,0,0,1,3-2.92,8.62,8.62,0,0,1,4.26-1.05,8.11,8.11,0,0,1,4.06,1A7.08,7.08,0,0,1,40,11.07a7.92,7.92,0,0,1,1,4A7.28,7.28,0,0,1,41,16a8.87,8.87,0,0,1-.16,1.06l-13.41,0V13.73l11.33,0L36.6,15.1a5.87,5.87,0,0,0-.41-2.2A2.79,2.79,0,0,0,35,11.55a3.28,3.28,0,0,0-1.83-.48,3.61,3.61,0,0,0-2,.55,3.42,3.42,0,0,0-1.31,1.47,5.47,5.47,0,0,0-.45,2.33,5.39,5.39,0,0,0,.48,2.37,3.87,3.87,0,0,0,1.41,1.51,4.41,4.41,0,0,0,2.17.51,5.32,5.32,0,0,0,2.08-.39,4.66,4.66,0,0,0,1.63-1.21L39.9,20.9a7.31,7.31,0,0,1-2.78,2A9.33,9.33,0,0,1,33.53,23.58Zm15.52,0a10.85,10.85,0,0,1-5.19-1.35,9.23,9.23,0,0,1-1.92-1.53l2.79-2.82a5.69,5.69,0,0,0,1.82,1.31,5.84,5.84,0,0,0,2.31.45,2.71,2.71,0,0,0,1.31-.26.77.77,0,0,0,.48-.7.91.91,0,0,0-.58-.86,5.25,5.25,0,0,0-1.41-.55l-1.82-.54A8,8,0,0,1,45,16a4,4,0,0,1-1.41-1.41,4.6,4.6,0,0,1-.55-2.34,4.4,4.4,0,0,1,.77-2.59A5.21,5.21,0,0,1,46,7.87a8,8,0,0,1,3.29-.64A9.24,9.24,0,0,1,53,7.94a6.38,6.38,0,0,1,2.75,2l-2.78,2.82a4.16,4.16,0,0,0-1.66-1.22,4.92,4.92,0,0,0-1.76-.35,2.43,2.43,0,0,0-1.25.26.72.72,0,0,0-.42.67.87.87,0,0,0,.55.77,6.72,6.72,0,0,0,1.4.51q.87.23,1.83.54a8.23,8.23,0,0,1,1.82.87,4.15,4.15,0,0,1,1.41,1.47,4.55,4.55,0,0,1,.54,2.37,4.33,4.33,0,0,1-1.72,3.61A7.21,7.21,0,0,1,49.05,23.62ZM68,23.23l-5.44-8.06L68,7.68h5.47L66.9,16.1l.16-2,6.69,9.15Zm-9.95,0V0h4.9V23.23Zm18.8,0v-22h4.9v22ZM73.32,11.84V7.68H85.26v4.16ZM94.59,23.58a9,9,0,0,1-4.35-1,8.27,8.27,0,0,1-3-3,7.84,7.84,0,0,1-1.12-4.16A7.67,7.67,0,0,1,87.2,11.3a8,8,0,0,1,3-2.88,8.62,8.62,0,0,1,4.35-1.09,8.92,8.92,0,0,1,4.35,1.05,8,8,0,0,1,3,2.92,7.67,7.67,0,0,1,1.12,4.12A7.84,7.84,0,0,1,102,19.58a8.2,8.2,0,0,1-3,3A8.92,8.92,0,0,1,94.59,23.58Zm0-4.44a3.77,3.77,0,0,0,1.86-.45,3.12,3.12,0,0,0,1.21-1.31,4.19,4.19,0,0,0,.45-2,3.76,3.76,0,0,0-.45-1.88,3.06,3.06,0,0,0-1.24-1.28,3.42,3.42,0,0,0-1.83-.48,3.46,3.46,0,0,0-1.82.48,3,3,0,0,0-1.25,1.28,4,4,0,0,0-.45,1.92,4.12,4.12,0,0,0,.45,1.92,3.35,3.35,0,0,0,1.25,1.31A3.64,3.64,0,0,0,94.59,19.14Zm19.91,4.41a6.73,6.73,0,0,1-2.88-.61,5.72,5.72,0,0,1-2.14-1.66,4.63,4.63,0,0,1-1-2.46V12.26a4.79,4.79,0,0,1,1-2.5A5.77,5.77,0,0,1,111.62,8a6.47,6.47,0,0,1,2.88-.64,7.3,7.3,0,0,1,6.59,3.94,8.56,8.56,0,0,1,1,4.16,8.61,8.61,0,0,1-1,4.16,7.26,7.26,0,0,1-6.59,3.93Zm-.89-4.41a3.38,3.38,0,0,0,3.07-1.8,4,4,0,0,0,.45-1.88,4.06,4.06,0,0,0-.45-1.92,3.09,3.09,0,0,0-1.25-1.28,3.3,3.3,0,0,0-1.79-.48,3.5,3.5,0,0,0-1.83.48,3.06,3.06,0,0,0-1.21,1.28,4,4,0,0,0-.45,1.92,4.1,4.1,0,0,0,.42,1.88,3.29,3.29,0,0,0,1.24,1.32A3.44,3.44,0,0,0,113.61,19.14Zm-8.07,10.65V7.68h4.9v4l-.8,3.78.73,3.77V29.79Z"/><path d="M6.18,320.23V297.64H9.76l8.9,13.86H16.83l8.87-13.86h3.61v22.59h-5V306.12l.89.22-5.79,9H16.06l-5.76-9,.87-.22v14.11Zm34.5.35a9,9,0,0,1-4.35-1.05,8.27,8.27,0,0,1-3-2.95,7.93,7.93,0,0,1-1.12-4.16,7.76,7.76,0,0,1,1.12-4.12,8,8,0,0,1,3-2.88,8.62,8.62,0,0,1,4.35-1.09A8.93,8.93,0,0,1,45,305.38a8,8,0,0,1,3,2.92,7.76,7.76,0,0,1,1.12,4.12,7.93,7.93,0,0,1-1.12,4.16,8.27,8.27,0,0,1-3,2.95A8.93,8.93,0,0,1,40.68,320.58Zm0-4.44a3.71,3.71,0,0,0,1.86-.45,3.21,3.21,0,0,0,1.22-1.31,4.19,4.19,0,0,0,.44-2,3.76,3.76,0,0,0-.44-1.88,3.09,3.09,0,0,0-1.25-1.28,3.37,3.37,0,0,0-1.83-.48,3.46,3.46,0,0,0-1.82.48,3.09,3.09,0,0,0-1.25,1.28,4,4,0,0,0-.45,1.92,4.12,4.12,0,0,0,.45,1.92,3.42,3.42,0,0,0,1.25,1.31A3.64,3.64,0,0,0,40.68,316.14Zm19.91,4.41a6.47,6.47,0,0,1-2.88-.64,6.18,6.18,0,0,1-2.14-1.76,4.93,4.93,0,0,1-1-2.49V309.1a4.63,4.63,0,0,1,1-2.44A5.6,5.6,0,0,1,57.71,305a6.73,6.73,0,0,1,2.88-.61,7.3,7.3,0,0,1,6.6,3.94,9.24,9.24,0,0,1,0,8.32,7.38,7.38,0,0,1-2.69,2.88A7.26,7.26,0,0,1,60.59,320.55Zm-.86-4.41a3.38,3.38,0,0,0,3-1.8,3.87,3.87,0,0,0,.45-1.88,4,4,0,0,0-.45-1.92,3,3,0,0,0-1.25-1.28,3.3,3.3,0,0,0-1.79-.48,3.46,3.46,0,0,0-1.82.48,3,3,0,0,0-1.25,1.28,4.18,4.18,0,0,0-.42,1.92,4,4,0,0,0,.45,1.92,3.42,3.42,0,0,0,1.22,1.31A3.64,3.64,0,0,0,59.73,316.14Zm-8.1,4.09V297h4.9v11.49l-.8,3.77.74,3.78v4.19Zm19,0V304.68h4.89v15.55Zm2.46-17.69a2.61,2.61,0,0,1-1.92-.77,2.75,2.75,0,0,1-.74-1.92,2.66,2.66,0,0,1,.74-1.92,2.61,2.61,0,0,1,1.92-.77,2.51,2.51,0,0,1,1.89.77,2.66,2.66,0,0,1,.73,1.92,2.74,2.74,0,0,1-.73,1.92A2.51,2.51,0,0,1,73.13,302.54ZM79,320.23V297h4.9v23.23Zm16,.35a9.73,9.73,0,0,1-4.51-1,8.23,8.23,0,0,1-3.1-11.26,8,8,0,0,1,3-2.92,8.56,8.56,0,0,1,4.25-1.05,8.18,8.18,0,0,1,4.07,1,7.13,7.13,0,0,1,2.75,2.75,7.92,7.92,0,0,1,1,4,7.28,7.28,0,0,1-.06.9,8.87,8.87,0,0,1-.16,1.06l-13.41,0v-3.36l11.33,0-2.11,1.4a6.06,6.06,0,0,0-.42-2.2,2.79,2.79,0,0,0-1.15-1.35,3.28,3.28,0,0,0-1.83-.48,3.61,3.61,0,0,0-2,.55,3.48,3.48,0,0,0-1.31,1.47,5.47,5.47,0,0,0-.45,2.33,5.39,5.39,0,0,0,.48,2.37,3.92,3.92,0,0,0,1.4,1.51,4.47,4.47,0,0,0,2.18.51,5.32,5.32,0,0,0,2.08-.39,4.66,4.66,0,0,0,1.63-1.21l2.69,2.69a7.31,7.31,0,0,1-2.78,2A9.33,9.33,0,0,1,95,320.58Z"/></g></g></svg>