<svg xmlns="http://www.w3.org/2000/svg" viewBox="0 0 134.55 134.1"><defs><style>.cls-1{fill:#1d1d1b;}.cls-2{fill:#0c6;}</style></defs><g id="Capa_2" data-name="Capa 2"><g id="Capa_1-2" data-name="Capa 1"><path class="cls-1" d="M102.21,80.43a21.34,21.34,0,1,1-21.34,21.33,21.36,21.36,0,0,1,21.34-21.33m0-11a32.34,32.34,0,1,0,32.34,32.33,32.33,32.33,0,0,0-32.34-32.33Z"/><path class="cls-2" d="M32.73,11A21.34,21.34,0,1,1,11.39,32.34,21.36,21.36,0,0,1,32.73,11m0-11A32.34,32.34,0,1,0,65.07,32.34,32.34,32.34,0,0,0,32.73,0Z"/><path class="cls-1" d="M134.5,64.68V60.75a32.34,32.34,0,0,0-64.58,2.47c0,.49,0,1,0,1.46H81c0-.49-.08-1-.08-1.46a21.34,21.34,0,1,1,42.68,0c0,.49,0,1-.07,1.46Z"/><path class="cls-2" d="M32.34,90.92A21.36,21.36,0,0,1,11,69.58H0a32.34,32.34,0,0,0,64.68,0h-11A21.37,21.37,0,0,1,32.34,90.92Z"/></g></g></svg>