<svg xmlns="http://www.w3.org/2000/svg" xmlns:xlink="http://www.w3.org/1999/xlink" viewBox="0 0 201 326.42"><defs><style>.cls-1{fill:none;}.cls-2{fill:#002c35;}.cls-3{fill:#1dd3b0;}.cls-4{clip-path:url(#clip-path);}.cls-5{fill:#fff;}.cls-6{fill:#f7a278;}.cls-7{clip-path:url(#clip-path-2);}.cls-8{fill:#086375;}.cls-9{fill:#0c6;}.cls-10{clip-path:url(#clip-path-3);}.cls-11{fill:#1d1e1b;}.cls-12{clip-path:url(#clip-path-4);}.cls-13{clip-path:url(#clip-path-5);}.cls-14{fill:#b2ff9e;}.cls-15{clip-path:url(#clip-path-6);}.cls-16{fill:#e7e7e7;}.cls-17{fill:#042127;}</style><clipPath id="clip-path"><rect class="cls-1" x="25.5" y="63.42" width="25" height="22"/></clipPath><clipPath id="clip-path-2"><rect class="cls-1" x="25.5" y="124.92" width="25" height="23"/></clipPath><clipPath id="clip-path-3"><rect class="cls-1" x="88" y="125.92" width="24" height="21"/></clipPath><clipPath id="clip-path-4"><rect class="cls-1" x="25.5" y="216.42" width="25" height="22"/></clipPath><clipPath id="clip-path-5"><rect class="cls-1" x="25.5" y="277.92" width="25" height="23"/></clipPath><clipPath id="clip-path-6"><rect class="cls-1" x="88" y="278.92" width="24" height="21"/></clipPath></defs><g id="Capa_2" data-name="Capa 2"><g id="Capa_1-2" data-name="Capa 1"><rect class="cls-2" y="190.42" width="201" height="136"/><path d="M22.51,10.44V7.66h3.58a2.43,2.43,0,0,0,1.73-.58,2,2,0,0,0,.62-1.56A2,2,0,0,0,27.84,4a2.35,2.35,0,0,0-1.73-.6h-3.6V.48h4a6.48,6.48,0,0,1,3,.65,4.84,4.84,0,0,1,2,1.75,4.72,4.72,0,0,1,.72,2.59,4.77,4.77,0,0,1-.72,2.62,4.91,4.91,0,0,1-2,1.73,7,7,0,0,1-3,.62Zm-2.88,7V.48H23.4V17.42Zm9.22,0-5.28-7.29L27,9.19l6.29,8.23Zm9-7V7.66h3.58a2.4,2.4,0,0,0,1.72-.58,2,2,0,0,0,.63-1.56A2,2,0,0,0,43.17,4a2.35,2.35,0,0,0-1.73-.6h-3.6V.48h4a6.41,6.41,0,0,1,3,.65,4.81,4.81,0,0,1,2,1.75,4.72,4.72,0,0,1,.72,2.59,4.77,4.77,0,0,1-.72,2.62,5,5,0,0,1-2,1.73,7,7,0,0,1-3,.62Zm-2.88,7V.48h3.77V17.42Zm9.22,0L38.9,10.13l3.45-.94,6.29,8.23Zm8.4.27A2.1,2.1,0,0,1,51,17a2.18,2.18,0,0,1-.62-1.56A2.15,2.15,0,0,1,51,13.9a2.06,2.06,0,0,1,1.56-.65,2,2,0,0,1,1.56.65,2.12,2.12,0,0,1,.63,1.58A2.15,2.15,0,0,1,54.14,17,2,2,0,0,1,52.58,17.69Zm10.32,0A9,9,0,0,1,59.3,17a8.74,8.74,0,0,1-2.74-2.09L59,12.5A6.47,6.47,0,0,0,60.81,14a5.22,5.22,0,0,0,2.33.5A3.31,3.31,0,0,0,65,14a1.35,1.35,0,0,0,.67-1.2,1.53,1.53,0,0,0-.43-1.13A3.68,3.68,0,0,0,64.08,11q-.7-.32-1.56-.6c-.56-.19-1.12-.41-1.68-.65a8.19,8.19,0,0,1-1.56-.94,4.35,4.35,0,0,1-1.13-1.41,4.81,4.81,0,0,1-.43-2.16,4.74,4.74,0,0,1,.74-2.69A4.75,4.75,0,0,1,60.57.82a7.55,7.55,0,0,1,3.1-.6,8.14,8.14,0,0,1,3.24.62,6.72,6.72,0,0,1,2.45,1.7L66.91,5a5.63,5.63,0,0,0-1.56-1.18,4,4,0,0,0-1.75-.38A2.81,2.81,0,0,0,62,3.79a1.16,1.16,0,0,0-.58,1.06,1.37,1.37,0,0,0,.43,1.05A4.18,4.18,0,0,0,63,6.58q.72.28,1.56.57a17.63,17.63,0,0,1,1.7.67,6.53,6.53,0,0,1,1.54,1A4.11,4.11,0,0,1,69,10.3a5,5,0,0,1,.43,2.2,4.64,4.64,0,0,1-1.72,3.82A7.55,7.55,0,0,1,62.9,17.69Zm13.57,0a9,9,0,0,1-3.6-.67,8.74,8.74,0,0,1-2.74-2.09l2.45-2.43A6.47,6.47,0,0,0,74.38,14a5.22,5.22,0,0,0,2.33.5A3.31,3.31,0,0,0,78.56,14a1.35,1.35,0,0,0,.67-1.2,1.53,1.53,0,0,0-.43-1.13A3.68,3.68,0,0,0,77.65,11q-.7-.32-1.56-.6c-.56-.19-1.12-.41-1.68-.65a8.19,8.19,0,0,1-1.56-.94,4.35,4.35,0,0,1-1.13-1.41,4.81,4.81,0,0,1-.43-2.16A4.74,4.74,0,0,1,72,2.52,4.75,4.75,0,0,1,74.14.82a7.55,7.55,0,0,1,3.1-.6,8.14,8.14,0,0,1,3.24.62,6.72,6.72,0,0,1,2.45,1.7L80.48,5a5.63,5.63,0,0,0-1.56-1.18,4,4,0,0,0-1.75-.38,2.81,2.81,0,0,0-1.56.38A1.16,1.16,0,0,0,75,4.85a1.37,1.37,0,0,0,.43,1.05,4.18,4.18,0,0,0,1.13.68q.72.28,1.56.57a17.63,17.63,0,0,1,1.7.67,6.53,6.53,0,0,1,1.54,1,4.11,4.11,0,0,1,1.15,1.49A5,5,0,0,1,83,12.5a4.64,4.64,0,0,1-1.72,3.82A7.55,7.55,0,0,1,76.47,17.69Zm18-.27V.48h3.77V17.42Zm2.88-6.64V7.54h8.48v3.24Zm0-7.06V.48h8.86V3.72Zm11,13.7V5.76H112V17.42Zm1.84-13.27a2,2,0,0,1-1.44-.57,2.09,2.09,0,0,1-.55-1.44A2,2,0,0,1,108.74.7a2,2,0,0,1,1.44-.58A1.86,1.86,0,0,1,111.6.7a2,2,0,0,1,.55,1.44,2,2,0,0,1-.55,1.44A1.89,1.89,0,0,1,110.18,4.15Zm4.41,13.27V0h3.67V17.42Zm6.26,0V0h3.67V17.42Z"/><path class="cls-3" d="M20,74.42a18,18,0,1,1,18,18A18,18,0,0,1,20,74.42Z"/><g class="cls-4"><path class="cls-5" d="M31.08,82.59l.79.75a9.54,9.54,0,0,0,12.43-.46,8.32,8.32,0,0,0,0-12.23c-.09-.08-.2-.19-.31-.27l-2.21,2.09a2.49,2.49,0,0,1,.31.27,5.51,5.51,0,0,1,0,8.08,6.32,6.32,0,0,1-8.55,0,3.9,3.9,0,0,1-.28-.29Z"/><path class="cls-5" d="M47.64,63.42a3.38,3.38,0,0,1-3.45,3.27v2.7a6.15,6.15,0,0,0,6.31-6Z"/><path class="cls-5" d="M37.36,74.91V72a5.9,5.9,0,0,1-6-5.7v-.08H28.22v.08A8.93,8.93,0,0,0,37.36,74.91Z"/><path class="cls-5" d="M28.16,78.44l2.21-2.09a5.48,5.48,0,0,1,0-8s.06,0,.06-.06l-2.21-2.09s-.06,0-.06.06A8.35,8.35,0,0,0,28.16,78.44Z"/></g><path class="cls-6" d="M20,136.42a18,18,0,1,1,18,18A18,18,0,0,1,20,136.42Z"/><g class="cls-7"><path class="cls-5" d="M46.69,141.46A3.55,3.55,0,0,1,43.14,145v2.93a6.48,6.48,0,0,0,6.49-6.46Z"/><path class="cls-5" d="M44,127.85a3.56,3.56,0,0,1,3.55,3.54H50.5A6.48,6.48,0,0,0,44,124.92Z"/><path class="cls-5" d="M29.31,141.46A3.55,3.55,0,0,0,32.86,145v2.93a6.48,6.48,0,0,1-6.49-6.46Z"/><path class="cls-5" d="M32,127.85a3.56,3.56,0,0,0-3.55,3.54H25.5A6.48,6.48,0,0,1,32,124.92Z"/><path class="cls-5" d="M38,130a6.47,6.47,0,1,0,6.49,6.47A6.48,6.48,0,0,0,38,130Zm3.56,6.47A3.56,3.56,0,1,1,38,132.9,3.53,3.53,0,0,1,41.57,136.44Z"/></g><path class="cls-8" d="M82,74.42a18,18,0,1,1,18,18A18,18,0,0,1,82,74.42Z"/><path class="cls-5" d="M99.62,64.77A5.21,5.21,0,0,1,104.75,70H109a9.51,9.51,0,0,0-9.38-9.6Z"/><path class="cls-5" d="M99.62,69.24h-4.2V88.42h4.2Z"/><path class="cls-5" d="M104.08,72.77H91v4.3h13.08Z"/><path class="cls-9" d="M82,136.42a18,18,0,1,1,18,18A18,18,0,0,1,82,136.42Z"/><g class="cls-10"><path class="cls-5" d="M88,136.42h3.69a7,7,0,0,1,7.14-6.92h.1v-3.58h-.1A10.69,10.69,0,0,0,88,136.42Z"/><path class="cls-5" d="M100.7,146.92H102a10.51,10.51,0,0,0-.84-21h-.5v3.58c.17,0,.34,0,.5,0a6.93,6.93,0,1,1,0,13.85,2.15,2.15,0,0,1-.5,0v3.64Z"/><path class="cls-5" d="M92.53,142.44a7.19,7.19,0,0,0-.54-3.71H88a3.89,3.89,0,0,1,0,5.63l.13.13,2.25,2.17.13.13a4.19,4.19,0,0,1,5.67-.09v-3.81A7.3,7.3,0,0,0,92.53,142.44Z"/></g><path class="cls-11" d="M144,74.42a18,18,0,1,1,18,18A18,18,0,0,1,144,74.42Z"/><path class="cls-5" d="M157.39,72.1a7.16,7.16,0,1,0,7.39,7.16A7.28,7.28,0,0,0,157.39,72.1Zm4.05,7.16a4,4,0,1,1-4.05-3.92A4,4,0,0,1,161.44,79.26Z"/><path class="cls-5" d="M164.78,64.42h-3.31V78.75h3.31Z"/><path class="cls-5" d="M174,68.34a4,4,0,0,1-4-3.92h-3.35A7.29,7.29,0,0,0,174,71.59Z"/><path class="cls-3" d="M20,227.42a18,18,0,1,1,18,18A18,18,0,0,1,20,227.42Z"/><g class="cls-12"><path class="cls-5" d="M31.08,235.59l.79.75a9.54,9.54,0,0,0,12.43-.46,8.32,8.32,0,0,0,0-12.23c-.09-.08-.2-.19-.31-.27l-2.21,2.09a2.49,2.49,0,0,1,.31.27,5.51,5.51,0,0,1,0,8.08,6.32,6.32,0,0,1-8.55,0,3.9,3.9,0,0,1-.28-.29Z"/><path class="cls-5" d="M47.64,216.42a3.38,3.38,0,0,1-3.45,3.27v2.7a6.15,6.15,0,0,0,6.31-6Z"/><path class="cls-5" d="M37.36,227.91V225a5.9,5.9,0,0,1-6-5.7v-.08H28.22v.08A8.94,8.94,0,0,0,37.36,227.91Z"/><path class="cls-5" d="M28.16,231.44l2.21-2.09a5.48,5.48,0,0,1,0-8s.06,0,.06-.06l-2.21-2.09s-.06,0-.06.06A8.35,8.35,0,0,0,28.16,231.44Z"/></g><path class="cls-6" d="M20,289.42a18,18,0,1,1,18,18A18,18,0,0,1,20,289.42Z"/><g class="cls-13"><path class="cls-5" d="M46.69,294.46A3.56,3.56,0,0,1,43.14,298v2.92a6.48,6.48,0,0,0,6.49-6.46Z"/><path class="cls-5" d="M44,280.85a3.56,3.56,0,0,1,3.55,3.54H50.5A6.48,6.48,0,0,0,44,277.92Z"/><path class="cls-5" d="M29.31,294.46A3.56,3.56,0,0,0,32.86,298v2.92a6.48,6.48,0,0,1-6.49-6.46Z"/><path class="cls-5" d="M32,280.85a3.56,3.56,0,0,0-3.55,3.54H25.5A6.48,6.48,0,0,1,32,277.92Z"/><path class="cls-5" d="M38,283a6.47,6.47,0,1,0,6.49,6.47A6.48,6.48,0,0,0,38,283Zm3.56,6.47A3.56,3.56,0,1,1,38,285.9,3.53,3.53,0,0,1,41.57,289.44Z"/></g><path class="cls-8" d="M82,227.42a18,18,0,1,1,18,18A18,18,0,0,1,82,227.42Z"/><path class="cls-5" d="M99.62,217.77a5.21,5.21,0,0,1,5.13,5.25H109a9.5,9.5,0,0,0-9.38-9.6Z"/><path class="cls-5" d="M99.62,222.24h-4.2v19.18h4.2Z"/><path class="cls-5" d="M104.08,225.77H91v4.3h13.08Z"/><path class="cls-14" d="M82,289.42a18,18,0,1,1,18,18A18,18,0,0,1,82,289.42Z"/><g class="cls-15"><path class="cls-2" d="M88,289.42h3.69a7,7,0,0,1,7.14-6.92h.1v-3.58h-.1A10.69,10.69,0,0,0,88,289.42Z"/><path class="cls-2" d="M100.7,299.92H102a10.51,10.51,0,0,0-.84-21h-.5v3.58c.17,0,.34,0,.5,0a6.93,6.93,0,1,1,0,13.85,2.15,2.15,0,0,1-.5,0v3.64Z"/><path class="cls-2" d="M92.53,295.44a7.19,7.19,0,0,0-.54-3.71H88a3.89,3.89,0,0,1,0,5.63l.13.13,2.25,2.17.13.13a4.19,4.19,0,0,1,5.67-.09v-3.81A7.41,7.41,0,0,0,92.53,295.44Z"/></g><path class="cls-16" d="M144,227.42a18,18,0,1,1,18,18A18,18,0,0,1,144,227.42Z"/><path class="cls-17" d="M157.39,225.1a7.16,7.16,0,1,0,7.39,7.16A7.28,7.28,0,0,0,157.39,225.1Zm4.05,7.16a4,4,0,1,1-4.05-3.92A4,4,0,0,1,161.44,232.26Z"/><path class="cls-17" d="M164.78,217.42h-3.31v14.33h3.31Z"/><path class="cls-17" d="M174,221.34a4,4,0,0,1-4-3.92h-3.35a7.29,7.29,0,0,0,7.39,7.17Z"/></g></g></svg>