<svg xmlns="http://www.w3.org/2000/svg" viewBox="0 0 917.41 132.66"><defs><style>.cls-1{fill:#042127;}</style></defs><g id="Capa_2" data-name="Capa 2"><g id="Capa_1-2" data-name="Capa 1"><path class="cls-1" d="M343.06,42.44a2.17,2.17,0,0,1,.69,1.72V54.35H350V44.16a2.55,2.55,0,0,1,.29-1.26,2.18,2.18,0,0,1,.86-.82,2.71,2.71,0,0,1,1.26-.29,2.35,2.35,0,0,1,1.7.65,2.19,2.19,0,0,1,.68,1.72V54.35h6.26V43.66a7.7,7.7,0,0,0-.93-3.89,6.12,6.12,0,0,0-2.52-2.52,7.76,7.76,0,0,0-3.67-.86,8.07,8.07,0,0,0-3.89.93,6.78,6.78,0,0,0-1.64,1.25,6.16,6.16,0,0,0-1.6-1.32,6.23,6.23,0,0,0-3.24-.86,7.53,7.53,0,0,0-3.6.83,6.51,6.51,0,0,0-1,.66V36.75H332.7v17.6H339V44.16a2.55,2.55,0,0,1,.29-1.26,2.18,2.18,0,0,1,.86-.82,2.55,2.55,0,0,1,1.26-.29A2.32,2.32,0,0,1,343.06,42.44Z"/><path class="cls-1" d="M413.45,6.7a3.16,3.16,0,0,0,2.38-.94,3.35,3.35,0,0,0,.93-2.41A3.31,3.31,0,0,0,415.83,1a3.08,3.08,0,0,0-2.38-1,3.12,3.12,0,0,0-2.34,1,3.31,3.31,0,0,0-.93,2.38,3.35,3.35,0,0,0,.93,2.41A3.21,3.21,0,0,0,413.45,6.7Z"/><path class="cls-1" d="M415.41,36.75V46.94A7.73,7.73,0,0,0,416.49,51a7.86,7.86,0,0,0,3,2.78,9.88,9.88,0,0,0,4.43,1,9.73,9.73,0,0,0,4.43-1,7.43,7.43,0,0,0,4.1-6.84V36.75h-6.26V46.94a2.32,2.32,0,0,1-.65,1.72,2.1,2.1,0,0,1-1.62.65,2.28,2.28,0,0,1-1.19-.29,2,2,0,0,1-.79-.82,2.66,2.66,0,0,1-.29-1.26V36.75Z"/><rect class="cls-1" x="435.04" y="0.11" width="6.26" height="26.24"/><path class="cls-1" d="M463.1,39.77a6.12,6.12,0,0,0-2.52-2.52,7.73,7.73,0,0,0-3.67-.86,8.07,8.07,0,0,0-3.89.93,7,7,0,0,0-1.64,1.25,6,6,0,0,0-1.6-1.32,6.23,6.23,0,0,0-3.24-.86,7,7,0,0,0-4.61,1.49V36.75h-6.26v17.6h6.26V44.16a2.55,2.55,0,0,1,.29-1.26,2.18,2.18,0,0,1,.86-.82,2.55,2.55,0,0,1,1.26-.29,2.35,2.35,0,0,1,1.7.65,2.19,2.19,0,0,1,.68,1.72V54.35H453V44.16a2.55,2.55,0,0,1,.29-1.26,2.21,2.21,0,0,1,.87-.82,2.66,2.66,0,0,1,1.26-.29,2.34,2.34,0,0,1,1.69.65,2.19,2.19,0,0,1,.68,1.72V54.35H464V43.66A7.7,7.7,0,0,0,463.1,39.77Z"/><path class="cls-1" d="M405.78,31.35a3.32,3.32,0,0,0,.94,2.41,3.42,3.42,0,0,0,4.71,0,3.32,3.32,0,0,0,.94-2.41,3.28,3.28,0,0,0-.94-2.38,3.34,3.34,0,0,0-4.71,0A3.28,3.28,0,0,0,405.78,31.35Z"/><path class="cls-1" d="M448.66,25.6a11.46,11.46,0,0,0,5.22,1.15,10.73,10.73,0,0,0,4.17-.76,8.23,8.23,0,0,0,3.17-2.23L458,20.48a5.11,5.11,0,0,1-1.8,1.34,5.71,5.71,0,0,1-2.27.43,4.59,4.59,0,0,1-2.31-.54,3.6,3.6,0,0,1-1.44-1.59,4.48,4.48,0,0,1-.21-.55l12.35-.06a6.86,6.86,0,0,0,.21-1.26,8.48,8.48,0,0,0,.07-1.11,8.66,8.66,0,0,0-1.18-4.54,8,8,0,0,0-3.24-3.13,9.46,9.46,0,0,0-4.72-1.15,9.9,9.9,0,0,0-4.93,1.22,8.91,8.91,0,0,0-3.42,3.28,8.8,8.8,0,0,0-1.26,4.71,8.92,8.92,0,0,0,1.29,4.79A9.19,9.19,0,0,0,448.66,25.6Zm2.77-12.21a3.65,3.65,0,0,1,2.05-.57,3.33,3.33,0,0,1,1.91.5,3.15,3.15,0,0,1,1.15,1.48,4,4,0,0,1,.22.67l-6.85.06a2.92,2.92,0,0,1,.19-.52A3.74,3.74,0,0,1,451.43,13.39Z"/><path class="cls-1" d="M380.57,51.76l-3.27-3.28a5.11,5.11,0,0,1-1.8,1.34,5.71,5.71,0,0,1-2.27.43,4.59,4.59,0,0,1-2.31-.54,3.6,3.6,0,0,1-1.44-1.59,4.48,4.48,0,0,1-.21-.55l12.35-.06a6.86,6.86,0,0,0,.21-1.26,8.48,8.48,0,0,0,.07-1.11,8.66,8.66,0,0,0-1.18-4.54,8,8,0,0,0-3.24-3.13,9.46,9.46,0,0,0-4.72-1.15,9.9,9.9,0,0,0-4.93,1.22,8.91,8.91,0,0,0-3.42,3.28,8.8,8.8,0,0,0-1.26,4.71,8.92,8.92,0,0,0,1.29,4.79A9.19,9.19,0,0,0,368,53.6a11.46,11.46,0,0,0,5.22,1.15A10.73,10.73,0,0,0,377.4,54,8.23,8.23,0,0,0,380.57,51.76Zm-9.79-10.37a3.65,3.65,0,0,1,2.05-.57,3.33,3.33,0,0,1,1.91.5,3.15,3.15,0,0,1,1.15,1.48,4,4,0,0,1,.22.67l-6.85.06a4,4,0,0,1,.19-.52A3.74,3.74,0,0,1,370.78,41.39Z"/><path class="cls-1" d="M396.15,53.33v1h6.16V28.11H396v9.47a6.47,6.47,0,0,0-1.11-.58,7.83,7.83,0,0,0-3.1-.61,8.47,8.47,0,0,0-4.54,1.19,8.09,8.09,0,0,0-3,3.24,10.9,10.9,0,0,0,0,9.46,8.31,8.31,0,0,0,7.56,4.43,6.95,6.95,0,0,0,4.32-1.38Zm-3.2-4.2a3.35,3.35,0,0,1-1.77-.47A3.21,3.21,0,0,1,390,47.4a3.94,3.94,0,0,1-.43-1.87,3.69,3.69,0,0,1,.43-1.8,3.52,3.52,0,0,1,1.22-1.29A3.41,3.41,0,0,1,393,42a3.35,3.35,0,0,1,3,1.73,4.11,4.11,0,0,1,0,3.74,3.25,3.25,0,0,1-1.18,1.26A3.58,3.58,0,0,1,393,49.13Z"/><polygon class="cls-1" points="428.95 1.48 422.68 1.48 422.68 8.75 418.8 8.75 418.8 13.97 422.68 13.97 422.68 26.35 428.95 26.35 428.95 13.97 432.83 13.97 432.83 8.75 428.95 8.75 428.95 1.48"/><rect class="cls-1" x="410.32" y="8.75" width="6.3" height="17.6"/><path class="cls-1" d="M367.26,22.28a8.28,8.28,0,0,0,7.55,4.43,7.33,7.33,0,0,0,3.1-.65,7,7,0,0,0,1.22-.73v1h6.16V.11H379V9.58A7,7,0,0,0,377.91,9a7.79,7.79,0,0,0-3.1-.61,8.44,8.44,0,0,0-4.53,1.19,8.09,8.09,0,0,0-3,3.24,10.05,10.05,0,0,0-1.09,4.75A10,10,0,0,0,367.26,22.28Zm5.68-6.55a3.55,3.55,0,0,1,1.23-1.29A3.36,3.36,0,0,1,376,14a3.2,3.2,0,0,1,1.76.47A3.14,3.14,0,0,1,379,15.7a3.73,3.73,0,0,1,.44,1.83,3.83,3.83,0,0,1-.47,1.91,3.35,3.35,0,0,1-1.19,1.26,3.53,3.53,0,0,1-1.8.43,3.29,3.29,0,0,1-1.76-.47,3.24,3.24,0,0,1-1.23-1.26,3.94,3.94,0,0,1-.43-1.87A3.69,3.69,0,0,1,372.94,15.73Z"/><polygon class="cls-1" points="398 26.35 404.27 26.35 404.27 13.97 408.15 13.97 408.15 8.75 404.27 8.75 404.27 1.48 398 1.48 398 8.75 394.12 8.75 394.12 13.97 398 13.97 398 26.35"/><rect class="cls-1" x="405.93" y="36.75" width="6.3" height="17.6"/><path class="cls-1" d="M323.27,20.84a4.09,4.09,0,0,1-1.72.33,3.68,3.68,0,0,1-1.84-.47,3.82,3.82,0,0,1-1.3-1.26,3.83,3.83,0,0,1-.46-1.91,3.73,3.73,0,0,1,.46-1.91,3.61,3.61,0,0,1,1.3-1.22,3.68,3.68,0,0,1,1.84-.47,4.22,4.22,0,0,1,1.62.29,3.32,3.32,0,0,1,1.26.79l4-4A9.68,9.68,0,0,0,325.29,9a9.84,9.84,0,0,0-3.74-.68,10.58,10.58,0,0,0-5.12,1.22,9.37,9.37,0,0,0-3.56,3.28,8.84,8.84,0,0,0-1.3,4.75,8.78,8.78,0,0,0,1.3,4.71,9,9,0,0,0,3.53,3.28,10.77,10.77,0,0,0,5.07,1.19,9.8,9.8,0,0,0,3.86-.72,10.17,10.17,0,0,0,3.2-2.16l-4-4A3.48,3.48,0,0,1,323.27,20.84Z"/><path class="cls-1" d="M358.3,16.78a3,3,0,0,1,.68-2.16,2.43,2.43,0,0,1,1.91-.76,2.81,2.81,0,0,1,1.15.22,1.83,1.83,0,0,1,.83.5l3.64-4.86a4,4,0,0,0-1.59-1,7.46,7.46,0,0,0-6.62,1.16V8.75H352v17.6h6.27Z"/><path class="cls-1" d="M333.33,25.52a8,8,0,0,0,4.35,1.19,7.29,7.29,0,0,0,3-.61,6.56,6.56,0,0,0,1.51-1v1.2h6.16V8.75h-6.16V9.93A5.89,5.89,0,0,0,340.71,9a7.29,7.29,0,0,0-3-.61,8,8,0,0,0-4.35,1.19,7.88,7.88,0,0,0-3,3.24,10.17,10.17,0,0,0-1.08,4.75,10.09,10.09,0,0,0,1.08,4.71A8.27,8.27,0,0,0,333.33,25.52Zm2.7-9.79a3.52,3.52,0,0,1,1.22-1.29,3.41,3.41,0,0,1,1.8-.47,3.35,3.35,0,0,1,3,1.73,3.72,3.72,0,0,1,.43,1.83,3.56,3.56,0,0,1-1,2.59,3.19,3.19,0,0,1-2.48,1,3.35,3.35,0,0,1-1.77-.47A3.21,3.21,0,0,1,336,19.4a3.94,3.94,0,0,1-.43-1.87A3.69,3.69,0,0,1,336,15.73Z"/><path class="cls-1" d="M338,74.68a3.74,3.74,0,0,1-1.51.27,3.39,3.39,0,0,1-1.33-.25,3.17,3.17,0,0,1-1.05-.72,3.31,3.31,0,0,1-.67-1.12,4.26,4.26,0,0,1,0-2.82,3.26,3.26,0,0,1,.67-1.11,3.06,3.06,0,0,1,1.05-.73,3.39,3.39,0,0,1,1.33-.25,3.56,3.56,0,0,1,1.44.27A2.9,2.9,0,0,1,339,69L340,67.87a5.13,5.13,0,0,0-1.54-1.07,5.4,5.4,0,0,0-4,0,4.87,4.87,0,0,0-2.61,2.69,5.54,5.54,0,0,0,0,3.93,5,5,0,0,0,1,1.61,4.89,4.89,0,0,0,1.57,1.08,5.12,5.12,0,0,0,2,.38,5.26,5.26,0,0,0,2.09-.39A4.83,4.83,0,0,0,340.11,75L339,73.93A3,3,0,0,1,338,74.68Z"/><path class="cls-1" d="M357.51,85.92a3.1,3.1,0,0,0-1.65-.43,3.44,3.44,0,0,0-3.47,3.5,3.48,3.48,0,0,0,.46,1.79A3.57,3.57,0,0,0,354.12,92a3.69,3.69,0,0,0,1.82.45,3.92,3.92,0,0,0,1.49-.29,3.3,3.3,0,0,0,1.19-.87l-1-1a2.07,2.07,0,0,1-.76.54,2.47,2.47,0,0,1-.95.18,2.24,2.24,0,0,1-1.06-.25,1.86,1.86,0,0,1-.72-.75,1.9,1.9,0,0,1-.18-.49h5a3.12,3.12,0,0,0,.06-.37,2.26,2.26,0,0,0,0-.35,3.52,3.52,0,0,0-.42-1.73A3.1,3.1,0,0,0,357.51,85.92Zm-3.37,2a1.65,1.65,0,0,1,.67-.71,2,2,0,0,1,1-.26,1.82,1.82,0,0,1,.94.23,1.49,1.49,0,0,1,.6.64,2.19,2.19,0,0,1,.17.53H354A2,2,0,0,1,354.14,87.87Z"/><path class="cls-1" d="M353.2,71.3l1-1a2.18,2.18,0,0,0-.76-.59,2.21,2.21,0,0,0-.91-.18,2,2,0,0,0-1.72.8l0,0v-.71h-1.54v6.72h1.54V72.61a1.69,1.69,0,0,1,.42-1.27,1.49,1.49,0,0,1,1.07-.41,1.42,1.42,0,0,1,.52.09A1,1,0,0,1,353.2,71.3Z"/><rect class="cls-1" x="331.78" y="88.05" width="4.75" height="1.46"/><polygon class="cls-1" points="346.08 88.66 342.37 82.55 341.25 82.55 341.25 92.35 342.86 92.35 342.86 86.08 345.52 90.45 346.64 90.45 349.3 86.08 349.3 92.35 350.91 92.35 350.91 82.55 349.79 82.55 346.08 88.66"/><path class="cls-1" d="M342.29,76a3.08,3.08,0,0,0,1.66.46,2.91,2.91,0,0,0,1.37-.32,2.8,2.8,0,0,0,.69-.59v.77h1.53V69.63H346v.78a2.51,2.51,0,0,0-.71-.58,2.6,2.6,0,0,0-1.35-.34,3,3,0,0,0-1.66.48,3.29,3.29,0,0,0-1.16,1.26,3.67,3.67,0,0,0-.42,1.77,3.74,3.74,0,0,0,.42,1.78A3.49,3.49,0,0,0,342.29,76Zm.24-4.1a1.87,1.87,0,0,1,.67-.72,1.84,1.84,0,0,1,1-.26,1.79,1.79,0,0,1,1,.26,1.67,1.67,0,0,1,.67.72A2.24,2.24,0,0,1,346.1,73a2.09,2.09,0,0,1-.53,1.47,1.77,1.77,0,0,1-1.37.57,1.93,1.93,0,0,1-1-.25,2,2,0,0,1-.67-.73,2.46,2.46,0,0,1,0-2.12Z"/><path class="cls-1" d="M388.12,85.8a2.74,2.74,0,0,0-1.32-.31,2.79,2.79,0,0,0-1.31.32,2.69,2.69,0,0,0-.92.82,2.2,2.2,0,0,0-.88-.83,2.57,2.57,0,0,0-3.22.55v-.72h-1.54v6.72h1.54v-4a1.41,1.41,0,0,1,.2-.76,1.29,1.29,0,0,1,.52-.49,1.66,1.66,0,0,1,.75-.17,1.5,1.5,0,0,1,1,.38,1.3,1.3,0,0,1,.42,1v4h1.54v-4a1.41,1.41,0,0,1,.2-.76,1.26,1.26,0,0,1,.53-.49,1.64,1.64,0,0,1,.74-.17,1.51,1.51,0,0,1,1,.38,1.3,1.3,0,0,1,.42,1v4h1.54V88a2.5,2.5,0,0,0-.35-1.34A2.38,2.38,0,0,0,388.12,85.8Z"/><polygon class="cls-1" points="423.86 85.63 422.09 85.63 420.66 87.76 419.19 85.63 417.33 85.63 419.68 88.91 417.2 92.35 418.99 92.35 420.57 90.04 422.14 92.35 423.99 92.35 421.55 88.9 423.86 85.63"/><path class="cls-1" d="M415.19,86a2.9,2.9,0,0,0-1.64-.48,2.66,2.66,0,0,0-1.35.34,2.34,2.34,0,0,0-.7.58v-.78H410v9.52h1.54V91.59a2.55,2.55,0,0,0,.68.58,2.91,2.91,0,0,0,1.37.32,3,3,0,0,0,1.64-.46,3.24,3.24,0,0,0,1.16-1.25,3.64,3.64,0,0,0,.44-1.78,3.57,3.57,0,0,0-.44-1.77A3.07,3.07,0,0,0,415.19,86ZM415,90.05a1.75,1.75,0,0,1-.67.73,1.83,1.83,0,0,1-1,.25,1.92,1.92,0,0,1-1-.25,1.75,1.75,0,0,1-.67-.73,2.46,2.46,0,0,1,0-2.12,1.67,1.67,0,0,1,.67-.72,1.83,1.83,0,0,1,1-.26,1.75,1.75,0,0,1,1,.26,1.67,1.67,0,0,1,.67.72,2.29,2.29,0,0,1,0,2.12Z"/><path class="cls-1" d="M431,69.92a3.12,3.12,0,0,0-1.65-.43,3.46,3.46,0,0,0-3.48,3.5A3.46,3.46,0,0,0,427.61,76a3.69,3.69,0,0,0,1.82.45,3.87,3.87,0,0,0,1.48-.29,3.14,3.14,0,0,0,1.19-.87l-1-1a2,2,0,0,1-.75.54,2.47,2.47,0,0,1-.95.18,2.28,2.28,0,0,1-1.07-.25,1.83,1.83,0,0,1-.71-.75,1.9,1.9,0,0,1-.18-.49h5a2.93,2.93,0,0,0,0-.37,2.26,2.26,0,0,0,0-.35,3.52,3.52,0,0,0-.42-1.73A3.08,3.08,0,0,0,431,69.92Zm-3.38,2a1.67,1.67,0,0,1,.68-.71,2,2,0,0,1,1-.26,1.84,1.84,0,0,1,.94.23,1.49,1.49,0,0,1,.6.64,2.19,2.19,0,0,1,.17.53h-3.56A2.72,2.72,0,0,1,427.62,71.87Z"/><path class="cls-1" d="M423.43,69.8a2.72,2.72,0,0,0-1.31-.31,2.67,2.67,0,0,0-2.24,1.14,2.24,2.24,0,0,0-.87-.83,2.62,2.62,0,0,0-1.29-.31,2.68,2.68,0,0,0-1.29.32,2.39,2.39,0,0,0-.64.54v-.72h-1.54v6.72h1.54v-4a1.38,1.38,0,0,1,.71-1.25,1.73,1.73,0,0,1,.76-.17,1.51,1.51,0,0,1,1,.38,1.3,1.3,0,0,1,.42,1v4h1.54v-4a1.41,1.41,0,0,1,.19-.76,1.32,1.32,0,0,1,.53-.49,1.69,1.69,0,0,1,.75-.17,1.49,1.49,0,0,1,1,.38,1.3,1.3,0,0,1,.42,1v4h1.54V72a2.5,2.5,0,0,0-.35-1.34A2.26,2.26,0,0,0,423.43,69.8Z"/><polygon class="cls-1" points="404.54 85.94 402.96 85.94 402.96 88.39 400.31 88.39 403.62 82.55 401.8 82.55 398.31 88.85 398.31 89.83 402.96 89.83 402.96 92.35 404.54 92.35 404.54 89.83 405.91 89.83 405.91 88.39 404.54 88.39 404.54 85.94"/><path class="cls-1" d="M361.16,76.35V66.27h-1.54v4.14a2.47,2.47,0,0,0-.7-.58,2.62,2.62,0,0,0-1.36-.34,3,3,0,0,0-1.65.48,3.29,3.29,0,0,0-1.16,1.26,3.67,3.67,0,0,0-.42,1.77,3.74,3.74,0,0,0,.42,1.78A3.49,3.49,0,0,0,355.91,76a3.07,3.07,0,0,0,1.65.46,3,3,0,0,0,1.38-.32,2.59,2.59,0,0,0,.68-.59v.77Zm-2.35-1.57a1.87,1.87,0,0,1-1,.25,1.93,1.93,0,0,1-1-.25,2,2,0,0,1-.67-.73,2.46,2.46,0,0,1,0-2.12,1.87,1.87,0,0,1,.67-.72,1.84,1.84,0,0,1,1-.26,1.79,1.79,0,0,1,1,.26,1.73,1.73,0,0,1,.67.72,2.46,2.46,0,0,1,0,2.12A1.82,1.82,0,0,1,358.81,74.78Z"/><path class="cls-1" d="M449.33,73.47a1.66,1.66,0,0,1-.36,1.14,1.28,1.28,0,0,1-1,.4,1.45,1.45,0,0,1-.76-.19,1.22,1.22,0,0,1-.47-.51,2,2,0,0,1-.16-.84V69.63H445v3.91a3.24,3.24,0,0,0,.36,1.54,2.85,2.85,0,0,0,1,1,3.33,3.33,0,0,0,3.05,0,2.68,2.68,0,0,0,1-1,3,3,0,0,0,.38-1.55V69.63h-1.54Z"/><path class="cls-1" d="M438.66,70.41a2.47,2.47,0,0,0-.7-.58,2.64,2.64,0,0,0-1.36-.34A3,3,0,0,0,435,70a3.21,3.21,0,0,0-1.16,1.26,3.67,3.67,0,0,0-.42,1.77,3.74,3.74,0,0,0,.42,1.78A3.4,3.4,0,0,0,435,76a3,3,0,0,0,1.65.46,2.91,2.91,0,0,0,1.37-.32,2.48,2.48,0,0,0,.69-.59v.77h1.54V66.27h-1.54Zm-.81,4.37a1.88,1.88,0,0,1-1,.25,1.92,1.92,0,0,1-1-.25,1.89,1.89,0,0,1-.67-.73,2.46,2.46,0,0,1,0-2.12,1.79,1.79,0,0,1,.67-.72,1.83,1.83,0,0,1,1-.26,1.8,1.8,0,0,1,1,.26,1.73,1.73,0,0,1,.67.72,2.46,2.46,0,0,1,0,2.12A1.82,1.82,0,0,1,437.85,74.78Z"/><polygon class="cls-1" points="399.6 71.03 399.6 69.63 397.99 69.63 397.99 66.83 396.45 66.83 396.45 69.63 394.84 69.63 394.84 71.03 396.45 71.03 396.45 76.35 397.99 76.35 397.99 71.03 399.6 71.03"/><path class="cls-1" d="M461.61,69.8a2.92,2.92,0,0,0-2.64,0,2.65,2.65,0,0,0-.91.82,2.2,2.2,0,0,0-.88-.83,2.78,2.78,0,0,0-2.57,0,2.43,2.43,0,0,0-.65.54v-.72h-1.54v6.72H454v-4a1.41,1.41,0,0,1,.2-.76,1.29,1.29,0,0,1,.52-.49,1.66,1.66,0,0,1,.75-.17,1.51,1.51,0,0,1,1,.38,1.3,1.3,0,0,1,.42,1v4h1.54v-4a1.41,1.41,0,0,1,.19-.76,1.28,1.28,0,0,1,.54-.49,1.64,1.64,0,0,1,.74-.17,1.49,1.49,0,0,1,1,.38,1.3,1.3,0,0,1,.42,1v4h1.54V72a2.41,2.41,0,0,0-.35-1.34A2.29,2.29,0,0,0,461.61,69.8Z"/><path class="cls-1" d="M442.69,66.55a.9.9,0,0,0-.66.27.92.92,0,0,0-.25.65,1,1,0,0,0,.25.66.9.9,0,0,0,.66.27.87.87,0,0,0,.66-.27.91.91,0,0,0,.25-.66.88.88,0,0,0-.25-.65A.87.87,0,0,0,442.69,66.55Z"/><rect class="cls-1" x="441.92" y="69.63" width="1.54" height="6.72"/><path class="cls-1" d="M408,74.87a2.47,2.47,0,0,1-.95.18A2.28,2.28,0,0,1,406,74.8a1.83,1.83,0,0,1-.71-.75,1.9,1.9,0,0,1-.18-.49h5a2.93,2.93,0,0,0,.05-.37,2.26,2.26,0,0,0,0-.35,3.52,3.52,0,0,0-.42-1.73,3.08,3.08,0,0,0-1.13-1.19,3.12,3.12,0,0,0-1.65-.43,3.46,3.46,0,0,0-3.48,3.5A3.46,3.46,0,0,0,405.27,76a3.69,3.69,0,0,0,1.82.45,3.87,3.87,0,0,0,1.48-.29,3.14,3.14,0,0,0,1.19-.87l-1-1A2,2,0,0,1,408,74.87Zm-2.75-3a1.67,1.67,0,0,1,.68-.71,2,2,0,0,1,1-.26,1.84,1.84,0,0,1,.94.23,1.49,1.49,0,0,1,.6.64,2.19,2.19,0,0,1,.17.53h-3.56A2.72,2.72,0,0,1,405.28,71.87Z"/><path class="cls-1" d="M375.85,89.47a1.61,1.61,0,0,1-.37,1.14,1.26,1.26,0,0,1-1,.4,1.45,1.45,0,0,1-.76-.19,1.22,1.22,0,0,1-.47-.51,2.17,2.17,0,0,1-.16-.84V85.63h-1.54v3.91a3.25,3.25,0,0,0,.37,1.54,2.83,2.83,0,0,0,1,1,3.1,3.1,0,0,0,1.53.38,3.14,3.14,0,0,0,1.53-.36,2.68,2.68,0,0,0,1-1,3.15,3.15,0,0,0,.38-1.55V85.63h-1.54Z"/><path class="cls-1" d="M369.21,82.55a.87.87,0,0,0-.66.27.88.88,0,0,0-.25.65.91.91,0,0,0,.25.66.87.87,0,0,0,.66.27.83.83,0,0,0,.65-.27.91.91,0,0,0,.26-.66.89.89,0,0,0-.26-.65A.83.83,0,0,0,369.21,82.55Z"/><path class="cls-1" d="M371.52,69.63v3.91a3.24,3.24,0,0,0,.36,1.54,2.85,2.85,0,0,0,1,1,3.33,3.33,0,0,0,3.05,0,2.68,2.68,0,0,0,1-1,3,3,0,0,0,.38-1.55V69.63h-1.54v3.84a1.66,1.66,0,0,1-.36,1.14,1.28,1.28,0,0,1-1,.4,1.45,1.45,0,0,1-.76-.19,1.22,1.22,0,0,1-.47-.51,2,2,0,0,1-.16-.84V69.63Z"/><path class="cls-1" d="M367.19,71a1.48,1.48,0,0,1,.71-.14,2,2,0,0,1,.87.18,2,2,0,0,1,.67.55l1-1a2.65,2.65,0,0,0-1.05-.86,3.38,3.38,0,0,0-1.43-.29,3.19,3.19,0,0,0-1.33.25,2,2,0,0,0-.85.72,2,2,0,0,0-.3,1.1,1.72,1.72,0,0,0,.26,1,1.84,1.84,0,0,0,.64.6,4.35,4.35,0,0,0,.84.34l.84.25a2.56,2.56,0,0,1,.66.28.53.53,0,0,1,.25.48.51.51,0,0,1-.27.45,1.61,1.61,0,0,1-.78.15,2.68,2.68,0,0,1-1-.2,2.31,2.31,0,0,1-.79-.61l-1,1a3.22,3.22,0,0,0,.75.67,3.87,3.87,0,0,0,1,.42,4.32,4.32,0,0,0,1.08.14,2.79,2.79,0,0,0,1.86-.57,1.93,1.93,0,0,0,.69-1.56,1.73,1.73,0,0,0-.25-1,1.87,1.87,0,0,0-.66-.62,3.13,3.13,0,0,0-.84-.36c-.29-.1-.57-.18-.84-.25a2.79,2.79,0,0,1-.64-.27.49.49,0,0,1-.26-.43A.45.45,0,0,1,367.19,71Z"/><path class="cls-1" d="M365.17,86.41a2.47,2.47,0,0,0-.7-.58,2.62,2.62,0,0,0-1.36-.34,3,3,0,0,0-1.65.48,3.29,3.29,0,0,0-1.16,1.26,3.67,3.67,0,0,0-.42,1.77,3.74,3.74,0,0,0,.42,1.78A3.49,3.49,0,0,0,361.46,92a3.07,3.07,0,0,0,1.65.46,3,3,0,0,0,1.38-.32,2.59,2.59,0,0,0,.68-.59v.77h1.54V82.27h-1.54Zm-.81,4.37a1.87,1.87,0,0,1-1,.25,1.93,1.93,0,0,1-1-.25,2,2,0,0,1-.67-.73,2.46,2.46,0,0,1,0-2.12,1.87,1.87,0,0,1,.67-.72,1.84,1.84,0,0,1,1-.26,1.79,1.79,0,0,1,1,.26,1.73,1.73,0,0,1,.67.72,2.46,2.46,0,0,1,0,2.12A1.82,1.82,0,0,1,364.36,90.78Z"/><rect class="cls-1" x="368.44" y="85.63" width="1.54" height="6.72"/><rect class="cls-1" x="392.16" y="69.63" width="1.54" height="6.72"/><path class="cls-1" d="M380.46,75.59a2.76,2.76,0,0,0,.69.58,2.91,2.91,0,0,0,1.37.32,3,3,0,0,0,1.64-.46,3.32,3.32,0,0,0,1.16-1.25,3.63,3.63,0,0,0,.43-1.78,3.57,3.57,0,0,0-.43-1.77A3.14,3.14,0,0,0,384.16,70a2.92,2.92,0,0,0-1.64-.48,2.69,2.69,0,0,0-1.36.34,2.47,2.47,0,0,0-.7.58V66.27h-1.54V76.35h1.54Zm.81-4.38a1.84,1.84,0,0,1,1-.26,1.77,1.77,0,0,1,1,.26,1.73,1.73,0,0,1,.67.72,2.37,2.37,0,0,1,0,2.12,1.82,1.82,0,0,1-.67.73,1.86,1.86,0,0,1-1,.25,1.93,1.93,0,0,1-1-.25,1.82,1.82,0,0,1-.67-.73,2.46,2.46,0,0,1,0-2.12A1.73,1.73,0,0,1,381.27,71.21Z"/><path class="cls-1" d="M392.93,68.4a.83.83,0,0,0,.65-.27.91.91,0,0,0,.26-.66.89.89,0,0,0-.26-.65.83.83,0,0,0-.65-.27.89.89,0,0,0-.91.92.91.91,0,0,0,.25.66A.88.88,0,0,0,392.93,68.4Z"/><polygon class="cls-1" points="395.27 82.55 393.31 82.55 393.31 83.99 395.27 83.99 395.27 92.35 396.85 92.35 396.85 82.55 396.71 82.55 395.27 82.55"/><rect class="cls-1" x="400.72" y="66.27" width="1.54" height="10.08"/><polygon class="cls-1" points="389.41 66.83 387.87 66.83 387.87 69.63 386.26 69.63 386.26 71.03 387.87 71.03 387.87 76.35 389.41 76.35 389.41 71.03 391.02 71.03 391.02 69.63 389.41 69.63 389.41 66.83"/><path class="cls-1" d="M80.43,32.19a12,12,0,0,0,10.92,6.39,10.85,10.85,0,0,0,4.47-.93,11.51,11.51,0,0,0,1.77-1.06v1.47h8.89V.16h-9V13.83A10.17,10.17,0,0,0,95.82,13a11.32,11.32,0,0,0-4.47-.88,12.38,12.38,0,0,0-6.56,1.71,11.88,11.88,0,0,0-4.36,4.68,14.73,14.73,0,0,0-1.56,6.87A14.6,14.6,0,0,0,80.43,32.19Zm8.21-9.47a5.14,5.14,0,0,1,1.77-1.87,5,5,0,0,1,2.6-.67,4.83,4.83,0,0,1,4.32,2.49A5.54,5.54,0,0,1,98,25.32a5.43,5.43,0,0,1-.68,2.76,4.75,4.75,0,0,1-1.71,1.82,5.13,5.13,0,0,1-2.6.62,4.91,4.91,0,0,1-2.55-.67A4.76,4.76,0,0,1,88.64,28,5.85,5.85,0,0,1,88,25.32,5.43,5.43,0,0,1,88.64,22.72Z"/><path class="cls-1" d="M216.36,18.2a11.51,11.51,0,0,0-4.68-4.52A13.64,13.64,0,0,0,204.87,12a14.35,14.35,0,0,0-7.12,1.77,12.91,12.91,0,0,0-4.94,4.73A12.71,12.71,0,0,0,191,25.32a12.84,12.84,0,0,0,1.87,6.92A13,13,0,0,0,198,37a16.42,16.42,0,0,0,7.54,1.67,15.7,15.7,0,0,0,6-1.1,11.92,11.92,0,0,0,4.58-3.22l-4.74-4.73a7.13,7.13,0,0,1-2.6,1.92,7.88,7.88,0,0,1-3.27.63,6.56,6.56,0,0,1-3.33-.78,5.21,5.21,0,0,1-2.08-2.29,7,7,0,0,1-.31-.8l17.83-.09a10.45,10.45,0,0,0,.32-1.82,12.76,12.76,0,0,0,.1-1.61A12.44,12.44,0,0,0,216.36,18.2ZM202,19.34a5.26,5.26,0,0,1,3-.83,4.81,4.81,0,0,1,2.75.73,4.62,4.62,0,0,1,1.67,2.13,8.49,8.49,0,0,1,.31,1l-9.9.09a6.09,6.09,0,0,1,.28-.75A5.44,5.44,0,0,1,202,19.34Z"/><path class="cls-1" d="M67.49,24.23a4.39,4.39,0,0,1,1-3.12A3.49,3.49,0,0,1,71.23,20a4.21,4.21,0,0,1,1.67.31,2.69,2.69,0,0,1,1.19.73l5.25-7a5.64,5.64,0,0,0-2.29-1.46,9.23,9.23,0,0,0-3.11-.46,9.49,9.49,0,0,0-6.45,2.14V12.64h-9V38.06h9Z"/><polygon class="cls-1" points="169.54 2.13 160.49 2.13 160.49 12.64 154.87 12.64 154.87 20.18 160.49 20.18 160.49 38.06 169.54 38.06 169.54 20.18 175.15 20.18 175.15 12.64 169.54 12.64 169.54 2.13"/><path class="cls-1" d="M44.88,60.51a15.75,15.75,0,0,0,0,13.67,11.9,11.9,0,0,0,4.32,4.68,11.58,11.58,0,0,0,6.29,1.72,10.6,10.6,0,0,0,4.37-.88A9.26,9.26,0,0,0,62,78.33v1.73h8.89V54.63H62v1.72A8.6,8.6,0,0,0,59.86,55a10.6,10.6,0,0,0-4.37-.89,11.69,11.69,0,0,0-10.61,6.4Zm8.22,4.21a5.12,5.12,0,0,1,1.76-1.87,5,5,0,0,1,2.6-.68,4.86,4.86,0,0,1,4.32,2.5,5.38,5.38,0,0,1,.62,2.65A5.13,5.13,0,0,1,61,71.06a4.67,4.67,0,0,1-3.59,1.46,5,5,0,0,1-2.55-.68A4.6,4.6,0,0,1,53.1,70a5.66,5.66,0,0,1-.63-2.7A5.29,5.29,0,0,1,53.1,64.72Z"/><rect class="cls-1" x="178.33" y="0.16" width="9.05" height="37.91"/><path class="cls-1" d="M147.16,9.67a4.55,4.55,0,0,0,3.43-1.35,4.84,4.84,0,0,0,1.35-3.48,4.78,4.78,0,0,0-1.35-3.44,4.84,4.84,0,0,0-6.81,0,4.79,4.79,0,0,0-1.36,3.44,4.85,4.85,0,0,0,1.36,3.48A4.57,4.57,0,0,0,147.16,9.67Z"/><path class="cls-1" d="M16.9,30.11a6.06,6.06,0,0,1-2.5.47,5.31,5.31,0,0,1-2.65-.68,5.52,5.52,0,0,1-1.87-1.82,5.54,5.54,0,0,1-.68-2.76,5.31,5.31,0,0,1,.68-2.75,5.11,5.11,0,0,1,1.87-1.77,5.31,5.31,0,0,1,2.65-.68,6,6,0,0,1,2.34.42,4.68,4.68,0,0,1,1.82,1.14L24.28,16a13.88,13.88,0,0,0-4.47-3,14.28,14.28,0,0,0-5.41-1A15.28,15.28,0,0,0,7,13.78a13.49,13.49,0,0,0-5.15,4.73A12.74,12.74,0,0,0,0,25.38a12.63,12.63,0,0,0,1.87,6.81A13.14,13.14,0,0,0,7,36.92a15.6,15.6,0,0,0,7.33,1.72,14.13,14.13,0,0,0,5.56-1,14.89,14.89,0,0,0,4.63-3.12l-5.77-5.72A5.31,5.31,0,0,1,16.9,30.11Z"/><rect class="cls-1" x="30.51" y="42.16" width="9.05" height="37.91"/><path class="cls-1" d="M98,60.25a12.81,12.81,0,0,0-1.56,6.34A13.15,13.15,0,0,0,98,73a12,12,0,0,0,4.27,4.52,12.17,12.17,0,0,0,6.29,1.61,11.09,11.09,0,0,0,4.37-.83,9.2,9.2,0,0,0,1.51-.85V78.6a4.58,4.58,0,0,1-1.62,3.8,6.29,6.29,0,0,1-4.26,1.35,8.05,8.05,0,0,1-3.8-.83,10.12,10.12,0,0,1-2.86-2.18l-5.46,5.4a11.72,11.72,0,0,0,5,4A18.27,18.27,0,0,0,109,91.6a16.15,16.15,0,0,0,7.43-1.66,12.29,12.29,0,0,0,5.15-4.63,12.6,12.6,0,0,0,1.92-7V54.63h-8.89v1.28A8.52,8.52,0,0,0,113,55a10.6,10.6,0,0,0-4.37-.89,11.92,11.92,0,0,0-6.29,1.67A12.06,12.06,0,0,0,98,60.25Zm8.17,4a4.28,4.28,0,0,1,1.61-1.71,4.66,4.66,0,0,1,2.5-.68,4.46,4.46,0,0,1,2.49.68,4.28,4.28,0,0,1,1.61,1.66,4.72,4.72,0,0,1,.58,2.34,4.89,4.89,0,0,1-.58,2.34,4.55,4.55,0,0,1-1.66,1.72,4.83,4.83,0,0,1-2.5.62,4.38,4.38,0,0,1-2.44-.67,4.81,4.81,0,0,1-1.61-1.72,4.89,4.89,0,0,1-.57-2.29A4.71,4.71,0,0,1,106.21,64.3Z"/><path class="cls-1" d="M152.22,76.32l-4.73-4.74a7.27,7.27,0,0,1-2.6,1.93,8.13,8.13,0,0,1-3.28.62,6.55,6.55,0,0,1-3.32-.78,5,5,0,0,1-2.08-2.29,5.11,5.11,0,0,1-.31-.8l17.83-.08a10.34,10.34,0,0,0,.31-1.82,12.81,12.81,0,0,0,.11-1.61,12.5,12.5,0,0,0-1.72-6.55,11.54,11.54,0,0,0-4.68-4.53A13.69,13.69,0,0,0,140.94,54a14.39,14.39,0,0,0-7.13,1.77,12.88,12.88,0,0,0-4.93,4.73,12.67,12.67,0,0,0-1.83,6.81,12.84,12.84,0,0,0,1.88,6.92A13,13,0,0,0,134.07,79a16.44,16.44,0,0,0,7.54,1.66,15.71,15.71,0,0,0,6-1.09A11.92,11.92,0,0,0,152.22,76.32Zm-14.14-15a5.25,5.25,0,0,1,3-.83,4.85,4.85,0,0,1,2.76.73,4.45,4.45,0,0,1,1.66,2.13,5.79,5.79,0,0,1,.31,1l-9.89.09q.12-.39.27-.75A5.34,5.34,0,0,1,138.08,61.34Z"/><path class="cls-1" d="M90.67,62.33a2.55,2.55,0,0,1,1.19.73l5.26-7a5.67,5.67,0,0,0-2.29-1.46,9.31,9.31,0,0,0-3.12-.47,9.53,9.53,0,0,0-6.45,2.15V54.63H76.21V80.06h9.05V66.23a4.36,4.36,0,0,1,1-3.12A3.51,3.51,0,0,1,89,62,4.18,4.18,0,0,1,90.67,62.33Z"/><rect class="cls-1" x="142.63" y="12.64" width="9.1" height="25.43"/><path class="cls-1" d="M31.42,36.87a11.7,11.7,0,0,0,6.29,1.71,10.56,10.56,0,0,0,4.37-.88,9.13,9.13,0,0,0,2.19-1.37v1.73h8.89V12.64H44.27v1.7A8.46,8.46,0,0,0,42.08,13a10.56,10.56,0,0,0-4.37-.88,11.7,11.7,0,0,0-6.29,1.71,11.48,11.48,0,0,0-4.31,4.68,14.73,14.73,0,0,0-1.56,6.87,14.6,14.6,0,0,0,1.56,6.81A12,12,0,0,0,31.42,36.87Zm3.9-14.15a5.14,5.14,0,0,1,1.77-1.87,5,5,0,0,1,2.6-.67A4.83,4.83,0,0,1,44,22.67a5.54,5.54,0,0,1,.62,2.65,5.2,5.2,0,0,1-1.4,3.75,4.68,4.68,0,0,1-3.59,1.45,4.91,4.91,0,0,1-2.55-.67A4.76,4.76,0,0,1,35.32,28a5.85,5.85,0,0,1-.62-2.71A5.43,5.43,0,0,1,35.32,22.72Z"/><polygon class="cls-1" points="124.84 38.06 133.89 38.06 133.89 20.18 139.5 20.18 139.5 12.64 133.89 12.64 133.89 2.13 124.84 2.13 124.84 12.64 119.22 12.64 119.22 20.18 124.84 20.18 124.84 38.06"/><path class="cls-1" d="M79.26,104.42v5a4,4,0,0,0,.47,2,3.4,3.4,0,0,0,1.33,1.33,3.85,3.85,0,0,0,2,.49,4,4,0,0,0,2-.47,3.42,3.42,0,0,0,1.31-1.33,4,4,0,0,0,.49-2v-5h-2v4.93a2.11,2.11,0,0,1-.47,1.48,1.69,1.69,0,0,1-1.31.5,2,2,0,0,1-1-.23,1.52,1.52,0,0,1-.61-.67,2.54,2.54,0,0,1-.2-1.08v-4.93Z"/><path class="cls-1" d="M107.62,100.8a1.08,1.08,0,0,0-.84-.34,1.15,1.15,0,0,0-.85.34,1.17,1.17,0,0,0-.32.85,1.15,1.15,0,0,0,1.17,1.19,1.09,1.09,0,0,0,.84-.35,1.15,1.15,0,0,0,.33-.84A1.18,1.18,0,0,0,107.62,100.8Z"/><rect class="cls-1" x="116.79" y="100.1" width="1.98" height="12.96"/><rect class="cls-1" x="105.79" y="104.42" width="1.98" height="8.64"/><path class="cls-1" d="M73.68,106.22a1.92,1.92,0,0,1,.92-.18,2.67,2.67,0,0,1,1.12.23,2.5,2.5,0,0,1,.86.71l1.26-1.26a3.27,3.27,0,0,0-1.35-1.1,4.68,4.68,0,0,0-3.55-.06,2.67,2.67,0,0,0-1.09.92,2.53,2.53,0,0,0-.38,1.42,2.26,2.26,0,0,0,.32,1.26,2.38,2.38,0,0,0,.83.78,6.23,6.23,0,0,0,1.08.43l1.08.32a3.24,3.24,0,0,1,.85.36.72.72,0,0,1,.32.62.62.62,0,0,1-.34.57,2.1,2.1,0,0,1-1,.2,3.32,3.32,0,0,1-1.33-.25,3.12,3.12,0,0,1-1-.79L71,111.66a4.43,4.43,0,0,0,1,.86,5,5,0,0,0,1.23.54,5.22,5.22,0,0,0,1.38.18,3.64,3.64,0,0,0,2.4-.74,2.46,2.46,0,0,0,.88-2,2.3,2.3,0,0,0-.32-1.27,2.41,2.41,0,0,0-.85-.8,4.29,4.29,0,0,0-1.08-.46l-1.08-.33a3.25,3.25,0,0,1-.83-.34.63.63,0,0,1-.32-.56A.57.57,0,0,1,73.68,106.22Z"/><path class="cls-1" d="M50.63,104.42v8.64h2v-4.81a2.16,2.16,0,0,1,.54-1.63,1.87,1.87,0,0,1,1.36-.53,1.92,1.92,0,0,1,.67.11,1.29,1.29,0,0,1,.52.36l1.3-1.33a2.83,2.83,0,0,0-1-.76,2.94,2.94,0,0,0-1.17-.23,2.54,2.54,0,0,0-2.22,1l0,.07v-.92Z"/><path class="cls-1" d="M31.62,112.75a6.43,6.43,0,0,0,2.54.49,6.85,6.85,0,0,0,2.68-.5,6.27,6.27,0,0,0,2-1.39l-1.4-1.4a4.15,4.15,0,0,1-1.37,1,4.88,4.88,0,0,1-1.94.34,4.45,4.45,0,0,1-1.71-.32A4.1,4.1,0,0,1,31.1,110a4.37,4.37,0,0,1-.87-1.44,5.67,5.67,0,0,1,0-3.64,4.18,4.18,0,0,1,.87-1.42,3.87,3.87,0,0,1,1.35-.94,4.45,4.45,0,0,1,1.71-.32,4.63,4.63,0,0,1,1.85.34,3.85,3.85,0,0,1,1.37,1l1.4-1.41a6.68,6.68,0,0,0-2-1.37,6.47,6.47,0,0,0-7.2,1.39,6.23,6.23,0,0,0-1.33,2.07,6.76,6.76,0,0,0-.47,2.52,6.91,6.91,0,0,0,.47,2.54,6.44,6.44,0,0,0,1.33,2.07A6.26,6.26,0,0,0,31.62,112.75Z"/><path class="cls-1" d="M153.05,104.24a2.55,2.55,0,0,0-2.22,1l0,.07v-.92h-2v8.64h2v-4.81a2.16,2.16,0,0,1,.54-1.63,1.88,1.88,0,0,1,1.37-.53,1.9,1.9,0,0,1,.66.11,1.29,1.29,0,0,1,.52.36l1.3-1.33a2.83,2.83,0,0,0-1-.76A2.94,2.94,0,0,0,153.05,104.24Z"/><path class="cls-1" d="M122.59,120.85a3.75,3.75,0,0,0-2.11-.61,3.48,3.48,0,0,0-1.74.43,3.17,3.17,0,0,0-.9.76v-1h-2v12.24h2v-4.57a3.15,3.15,0,0,0,.88.74,3.75,3.75,0,0,0,1.76.41,3.9,3.9,0,0,0,2.11-.59,4.06,4.06,0,0,0,1.49-1.61,4.94,4.94,0,0,0,0-4.57A4.08,4.08,0,0,0,122.59,120.85Zm-.31,5.26a2.27,2.27,0,0,1-.86.93,2.37,2.37,0,0,1-1.26.33,2.46,2.46,0,0,1-1.28-.33,2.27,2.27,0,0,1-.86-.93,3.18,3.18,0,0,1,0-2.74,2.25,2.25,0,0,1,.86-.92,2.47,2.47,0,0,1,1.28-.34,2.37,2.37,0,0,1,1.26.34,2.25,2.25,0,0,1,.86.92,3,3,0,0,1,0,2.74Z"/><path class="cls-1" d="M128.43,111.75l-1.26-1.28a2.51,2.51,0,0,1-1,.68,3,3,0,0,1-1.22.24,2.78,2.78,0,0,1-1.37-.33,2.31,2.31,0,0,1-.91-1,2.5,2.5,0,0,1-.24-.63h6.45c0-.18,0-.34.07-.49a3.4,3.4,0,0,0,0-.45,4.47,4.47,0,0,0-.54-2.21A3.84,3.84,0,0,0,127,104.8a4,4,0,0,0-2.12-.56,4.35,4.35,0,0,0-3.87,2.21,4.51,4.51,0,0,0,1.64,6.21,4.7,4.7,0,0,0,2.34.58,4.93,4.93,0,0,0,1.91-.38A4,4,0,0,0,128.43,111.75Zm-5.76-4.45a2.19,2.19,0,0,1,.86-.92,2.62,2.62,0,0,1,1.31-.32,2.26,2.26,0,0,1,1.21.29,1.8,1.8,0,0,1,.77.82,2.44,2.44,0,0,1,.23.69h-4.59A2.49,2.49,0,0,1,122.67,107.3Z"/><path class="cls-1" d="M109.2,122.8a3.47,3.47,0,0,0-.75-.45,2.49,2.49,0,0,0,.5-.35,2.88,2.88,0,0,0,.73-1.06,3.29,3.29,0,0,0,.26-1.28,3.3,3.3,0,0,0-1.8-3,4.46,4.46,0,0,0-3.82,0,3.36,3.36,0,0,0-1.55,4.25,3,3,0,0,0,.74,1.06,2.49,2.49,0,0,0,.5.35,4,4,0,0,0-.75.45,3.29,3.29,0,0,0-1,1.22,3.59,3.59,0,0,0-.33,1.55,3.38,3.38,0,0,0,2,3.2,5,5,0,0,0,2.25.47,5.11,5.11,0,0,0,2.25-.47,3.5,3.5,0,0,0,1.49-1.29,3.56,3.56,0,0,0,.52-1.91,3.46,3.46,0,0,0-.34-1.55A3.14,3.14,0,0,0,109.2,122.8Zm-4.27-4.27a1.78,1.78,0,0,1,1.3-.5,1.71,1.71,0,0,1,1.29.5,1.68,1.68,0,0,1,.51,1.28,1.74,1.74,0,0,1-1.8,1.8,1.79,1.79,0,0,1-1.3-.51,1.75,1.75,0,0,1-.5-1.29A1.71,1.71,0,0,1,104.93,118.53Zm3.28,7.83a2,2,0,0,1-.81.74,2.46,2.46,0,0,1-1.17.27,2.54,2.54,0,0,1-1.19-.27,2.14,2.14,0,0,1-.81-.74,2,2,0,0,1-.29-1.06,1.93,1.93,0,0,1,.29-1.06,2.07,2.07,0,0,1,.81-.74,2.54,2.54,0,0,1,1.19-.27,2.46,2.46,0,0,1,1.17.27,1.94,1.94,0,0,1,.81.74,1.86,1.86,0,0,1,.3,1.06A1.93,1.93,0,0,1,108.21,126.36Z"/><polygon class="cls-1" points="102.26 113.06 102.26 106.22 104.33 106.22 104.33 104.42 102.26 104.42 102.26 100.82 100.28 100.82 100.28 104.42 98.21 104.42 98.21 106.22 100.28 106.22 100.28 113.06 102.26 113.06"/><polygon class="cls-1" points="113.28 100.82 111.3 100.82 111.3 104.42 109.23 104.42 109.23 106.22 111.3 106.22 111.3 113.06 113.28 113.06 113.28 106.22 115.35 106.22 115.35 104.42 113.28 104.42 113.28 100.82"/><polygon class="cls-1" points="133.74 120.42 131.46 120.42 129.62 123.16 127.73 120.42 125.33 120.42 128.36 124.64 125.17 129.06 127.48 129.06 129.51 126.1 131.53 129.06 133.9 129.06 130.77 124.62 133.74 120.42"/><path class="cls-1" d="M172.27,104.8a4,4,0,0,0-2.13-.56,4.42,4.42,0,0,0-4.46,4.5,4.55,4.55,0,0,0,.59,2.3,4.47,4.47,0,0,0,1.64,1.62,4.72,4.72,0,0,0,2.34.58,4.93,4.93,0,0,0,1.91-.38,4,4,0,0,0,1.53-1.11l-1.26-1.28a2.48,2.48,0,0,1-1,.68,3.07,3.07,0,0,1-1.23.24,2.74,2.74,0,0,1-1.36-.33,2.28,2.28,0,0,1-.92-1,2.15,2.15,0,0,1-.23-.63h6.44c0-.18.06-.34.07-.49a3.42,3.42,0,0,0,0-.45,4.47,4.47,0,0,0-.54-2.21A3.91,3.91,0,0,0,172.27,104.8Zm-4.34,2.5a2.19,2.19,0,0,1,.86-.92,2.66,2.66,0,0,1,1.32-.32,2.22,2.22,0,0,1,1.2.29,1.88,1.88,0,0,1,.78.82,2.79,2.79,0,0,1,.22.69h-4.58A2.48,2.48,0,0,1,167.93,107.3Z"/><rect class="cls-1" x="179.46" y="107.53" width="6.1" height="1.88"/><rect class="cls-1" x="134.19" y="100.1" width="1.98" height="12.96"/><path class="cls-1" d="M144.64,105.43a3.17,3.17,0,0,0-.9-.76,3.44,3.44,0,0,0-1.75-.43,3.83,3.83,0,0,0-2.12.61,4.39,4.39,0,0,0-1.49,1.62,5.1,5.1,0,0,0,0,4.57,4.36,4.36,0,0,0,1.49,1.61,4,4,0,0,0,2.12.59,3.79,3.79,0,0,0,1.77-.41,3.37,3.37,0,0,0,.88-.75v1h2v-8.64h-2Zm-.56,5.2a2.26,2.26,0,0,1-1.76.74A2.46,2.46,0,0,1,141,111a2.41,2.41,0,0,1-.86-.93,3.18,3.18,0,0,1,0-2.74,2.38,2.38,0,0,1,.86-.92,2.47,2.47,0,0,1,1.28-.34,2.42,2.42,0,0,1,1.28.34,2.25,2.25,0,0,1,.86.92,2.88,2.88,0,0,1,.31,1.37A2.65,2.65,0,0,1,144.08,110.63Z"/><path class="cls-1" d="M162.06,105.38a3,3,0,0,0-.87-.73,3.78,3.78,0,0,0-1.79-.41,3.85,3.85,0,0,0-2.09.58,4,4,0,0,0-1.46,1.53,4.51,4.51,0,0,0-.52,2.19,4.66,4.66,0,0,0,.52,2.22,4.06,4.06,0,0,0,1.46,1.56,4,4,0,0,0,2.09.56,3.8,3.8,0,0,0,1.78-.41,3.15,3.15,0,0,0,.88-.74v1a2.08,2.08,0,0,1-.68,1.64,2.69,2.69,0,0,1-1.86.61,3.71,3.71,0,0,1-1.6-.32,3.53,3.53,0,0,1-1.19-1l-1.29,1.3a4.15,4.15,0,0,0,1.65,1.39,5.43,5.43,0,0,0,2.39.5,5.15,5.15,0,0,0,2.38-.52,4,4,0,0,0,1.6-1.46,3.92,3.92,0,0,0,.58-2.16v-8.28h-2Zm-1,5.32a2.45,2.45,0,0,1-1.26.31,2.55,2.55,0,0,1-1.28-.31,2.11,2.11,0,0,1-.84-.86,2.55,2.55,0,0,1-.31-1.28,2.5,2.5,0,0,1,.31-1.28,2.11,2.11,0,0,1,.84-.86,2.55,2.55,0,0,1,1.28-.31,2.45,2.45,0,0,1,1.26.31,2,2,0,0,1,.83.86,2.61,2.61,0,0,1,.31,1.28,2.74,2.74,0,0,1-.31,1.3A2,2,0,0,1,161.05,110.7Z"/><path class="cls-1" d="M72.92,125.35a2.15,2.15,0,0,1-.47,1.48,1.69,1.69,0,0,1-1.31.5,2,2,0,0,1-1-.23,1.65,1.65,0,0,1-.61-.67,2.7,2.7,0,0,1-.2-1.08v-4.93h-2v5a4.08,4.08,0,0,0,.47,2,3.54,3.54,0,0,0,1.33,1.33,3.89,3.89,0,0,0,2,.49,4,4,0,0,0,2-.47,3.42,3.42,0,0,0,1.31-1.33,4,4,0,0,0,.49-2v-5h-2Z"/><path class="cls-1" d="M64.38,116.46a1.15,1.15,0,0,0-.85.34,1.21,1.21,0,0,0-.32.85,1.19,1.19,0,0,0,.32.84,1.15,1.15,0,0,0,.85.35,1.12,1.12,0,0,0,.85-.35,1.19,1.19,0,0,0,.32-.84,1.21,1.21,0,0,0-.32-.85A1.12,1.12,0,0,0,64.38,116.46Z"/><rect class="cls-1" x="63.39" y="120.42" width="1.98" height="8.64"/><path class="cls-1" d="M59.19,121.43a3.17,3.17,0,0,0-.9-.76,3.4,3.4,0,0,0-1.74-.43,3.86,3.86,0,0,0-2.13.61,4.39,4.39,0,0,0-1.49,1.62,5.1,5.1,0,0,0,0,4.57,4.36,4.36,0,0,0,1.49,1.61,4,4,0,0,0,2.13.59,3.72,3.72,0,0,0,1.76-.41,3.07,3.07,0,0,0,.88-.75v1h2v-13h-2Zm-1,5.61a2.41,2.41,0,0,1-1.28.33,2.29,2.29,0,0,1-2.14-1.26,3.18,3.18,0,0,1,0-2.74,2.46,2.46,0,0,1,.86-.92,2.5,2.5,0,0,1,1.28-.34,2.42,2.42,0,0,1,1.28.34,2.25,2.25,0,0,1,.86.92,3.18,3.18,0,0,1,0,2.74A2.27,2.27,0,0,1,58.15,127Z"/><path class="cls-1" d="M49.34,120.8a4,4,0,0,0-2.12-.56,4.35,4.35,0,0,0-3.87,2.21A4.51,4.51,0,0,0,45,128.66a4.67,4.67,0,0,0,2.34.58,4.93,4.93,0,0,0,1.91-.38,4,4,0,0,0,1.53-1.11l-1.26-1.28a2.51,2.51,0,0,1-1,.68,3.05,3.05,0,0,1-1.22.24,2.78,2.78,0,0,1-1.37-.33,2.4,2.4,0,0,1-.92-1,2.93,2.93,0,0,1-.23-.63h6.44c0-.18.06-.34.08-.49a3.4,3.4,0,0,0,0-.45,4.47,4.47,0,0,0-.54-2.21A3.84,3.84,0,0,0,49.34,120.8ZM45,123.3a2.19,2.19,0,0,1,.86-.92,2.62,2.62,0,0,1,1.31-.32,2.26,2.26,0,0,1,1.21.29,1.85,1.85,0,0,1,.77.82,3.29,3.29,0,0,1,.23.69H44.8A2.49,2.49,0,0,1,45,123.3Z"/><path class="cls-1" d="M45.57,112.83a3.37,3.37,0,0,0,.88-.75v1h2v-8.64h-2v1a3.31,3.31,0,0,0-.9-.76,3.47,3.47,0,0,0-1.75-.43,3.81,3.81,0,0,0-2.12.61,4.31,4.31,0,0,0-1.49,1.62,5.1,5.1,0,0,0,0,4.57,4.28,4.28,0,0,0,1.49,1.61,4,4,0,0,0,2.12.59A3.79,3.79,0,0,0,45.57,112.83ZM42,110.11a3.28,3.28,0,0,1,0-2.74,2.37,2.37,0,0,1,2.15-1.26,2.38,2.38,0,0,1,1.27.34,2.27,2.27,0,0,1,.87.92,3,3,0,0,1,.3,1.37,2.64,2.64,0,0,1-.68,1.89,2.26,2.26,0,0,1-1.76.74,2.46,2.46,0,0,1-1.28-.33A2.52,2.52,0,0,1,42,110.11Z"/><path class="cls-1" d="M64,105.43a3.31,3.31,0,0,0-.9-.76,3.47,3.47,0,0,0-1.75-.43,3.81,3.81,0,0,0-2.12.61,4.34,4.34,0,0,0-1.5,1.62,5.1,5.1,0,0,0,0,4.57,4.31,4.31,0,0,0,1.5,1.61,4,4,0,0,0,2.12.59,3.72,3.72,0,0,0,1.76-.41,3.26,3.26,0,0,0,.89-.75v1h2v-13H64ZM62.91,111a2.39,2.39,0,0,1-1.28.33,2.43,2.43,0,0,1-1.27-.33,2.52,2.52,0,0,1-.87-.93,3.28,3.28,0,0,1,0-2.74,2.49,2.49,0,0,1,.87-.92,2.43,2.43,0,0,1,1.27-.34,2.39,2.39,0,0,1,1.28.34,2.34,2.34,0,0,1,.87.92,3.28,3.28,0,0,1,0,2.74A2.36,2.36,0,0,1,62.91,111Z"/><path class="cls-1" d="M97,111a5,5,0,0,0,0-4.57,4.18,4.18,0,0,0-1.5-1.62,3.72,3.72,0,0,0-2.1-.61,3.52,3.52,0,0,0-1.75.43,3.31,3.31,0,0,0-.9.76V100.1h-2v13h2v-1a3.15,3.15,0,0,0,.88.74,3.79,3.79,0,0,0,1.77.41,3.87,3.87,0,0,0,2.1-.59A4.15,4.15,0,0,0,97,111Zm-2.67,0a2.37,2.37,0,0,1-1.26.33,2.49,2.49,0,0,1-1.28-.33,2.27,2.27,0,0,1-.86-.93,3.28,3.28,0,0,1,0-2.74,2.25,2.25,0,0,1,.86-.92,2.5,2.5,0,0,1,1.28-.34,2.37,2.37,0,0,1,1.26.34,2.34,2.34,0,0,1,.87.92,3.09,3.09,0,0,1,0,2.74A2.36,2.36,0,0,1,94.33,111Z"/><path class="cls-1" d="M88.7,120.64a3.55,3.55,0,0,0-1.7-.4,3.61,3.61,0,0,0-1.69.41,3.47,3.47,0,0,0-1.17,1A3,3,0,0,0,83,120.64a3.58,3.58,0,0,0-3.31,0,3.09,3.09,0,0,0-.83.69v-.92h-2v8.64h2v-5.15a1.75,1.75,0,0,1,.25-1,1.62,1.62,0,0,1,.67-.63,2.16,2.16,0,0,1,1-.22,1.93,1.93,0,0,1,1.33.49,1.67,1.67,0,0,1,.54,1.33v5.15h2v-5.15a1.75,1.75,0,0,1,.25-1,1.61,1.61,0,0,1,.69-.63,2.11,2.11,0,0,1,1-.22,1.93,1.93,0,0,1,1.33.49,1.67,1.67,0,0,1,.54,1.33v5.15h2v-5.58a3.21,3.21,0,0,0-.45-1.73A3.05,3.05,0,0,0,88.7,120.64Z"/><polygon class="cls-1" points="34.64 124.31 29.87 116.46 28.43 116.46 28.43 129.06 30.5 129.06 30.5 120.99 33.92 126.61 35.36 126.61 38.78 120.99 38.78 129.06 40.85 129.06 40.85 116.46 39.41 116.46 34.64 124.31"/><polygon class="cls-1" points="97.89 116.46 95.37 116.46 95.37 118.31 97.89 118.31 97.89 129.06 99.92 129.06 99.92 116.46 99.74 116.46 97.89 116.46"/><path class="cls-1" d="M576.87,22.69a7.2,7.2,0,0,0,3.87,1,6.56,6.56,0,0,0,2.69-.54,5.25,5.25,0,0,0,1.34-.87v1.09h5.47V7.78h-5.47V8.85A5.19,5.19,0,0,0,583.43,8a6.56,6.56,0,0,0-2.69-.54,7.2,7.2,0,0,0-3.87,1,7.06,7.06,0,0,0-2.66,2.88,9.09,9.09,0,0,0-1,4.23,9,9,0,0,0,1,4.19A7.46,7.46,0,0,0,576.87,22.69Zm2.4-8.71A2.92,2.92,0,0,1,582,12.42a3,3,0,0,1,1.56.41A2.86,2.86,0,0,1,584.61,14a3.3,3.3,0,0,1,.39,1.63,3.19,3.19,0,0,1-.87,2.31,2.88,2.88,0,0,1-2.21.89,3,3,0,0,1-1.56-.41,2.86,2.86,0,0,1-1.09-1.12,3.51,3.51,0,0,1-.38-1.67A3.26,3.26,0,0,1,579.27,14Z"/><path class="cls-1" d="M606.76,49.42V40.37a2.24,2.24,0,0,1,.26-1.12,1.93,1.93,0,0,1,.76-.74,2.53,2.53,0,0,1,1.13-.25,2.13,2.13,0,0,1,1.5.57,2,2,0,0,1,.61,1.54v9.05h5.56v-9.5a6.77,6.77,0,0,0-.83-3.46,5.43,5.43,0,0,0-2.24-2.24,6.85,6.85,0,0,0-3.26-.76,7.11,7.11,0,0,0-3.46.83,6.09,6.09,0,0,0-1.46,1.1,5.38,5.38,0,0,0-1.42-1.17,5.49,5.49,0,0,0-2.88-.76,6.83,6.83,0,0,0-3.2.73,6,6,0,0,0-.89.59v-1h-5.57V49.42h5.57V40.37a2.24,2.24,0,0,1,.25-1.12,2,2,0,0,1,.77-.74,2.34,2.34,0,0,1,1.12-.25,2.09,2.09,0,0,1,1.5.57,2,2,0,0,1,.61,1.54v9.05Z"/><path class="cls-1" d="M567.93,18.53a3.76,3.76,0,0,1-1.53.29,3.26,3.26,0,0,1-1.64-.42,3.42,3.42,0,0,1-1.15-1.12,3.37,3.37,0,0,1-.41-1.7,3.23,3.23,0,0,1,.41-1.69,3.16,3.16,0,0,1,1.15-1.09,3.26,3.26,0,0,1,1.64-.42,3.74,3.74,0,0,1,1.44.26,3,3,0,0,1,1.12.7l3.52-3.52A8.44,8.44,0,0,0,569.72,8a8.88,8.88,0,0,0-3.32-.61,9.39,9.39,0,0,0-4.55,1.09,8.3,8.3,0,0,0-3.17,2.91,7.94,7.94,0,0,0-1.15,4.23,7.87,7.87,0,0,0,1.15,4.19,8.15,8.15,0,0,0,3.14,2.91,9.62,9.62,0,0,0,4.51,1.06,8.85,8.85,0,0,0,3.43-.64,9.14,9.14,0,0,0,2.84-1.92l-3.55-3.52A3.24,3.24,0,0,1,567.93,18.53Z"/><path class="cls-1" d="M599.06,14.91a2.68,2.68,0,0,1,.61-1.92,2.17,2.17,0,0,1,1.7-.67,2.54,2.54,0,0,1,1,.19,1.79,1.79,0,0,1,.74.45l3.23-4.32a3.59,3.59,0,0,0-1.41-.9A5.72,5.72,0,0,0,603,7.46a5.86,5.86,0,0,0-4,1.32v-1h-5.57V23.42h5.57Z"/><path class="cls-1" d="M579.41,49.49a11,11,0,0,0,2.85.38,7.87,7.87,0,0,0,4.8-1.34,4.46,4.46,0,0,0,1.79-3.71,4.71,4.71,0,0,0-.54-2.4,4.09,4.09,0,0,0-1.38-1.48,7.11,7.11,0,0,0-1.76-.89,12.38,12.38,0,0,0-1.76-.51,9.07,9.07,0,0,1-1.38-.48.78.78,0,0,1-.51-.68.61.61,0,0,1,.32-.54,1.93,1.93,0,0,1,1.06-.22,4.74,4.74,0,0,1,1.7.35,4.08,4.08,0,0,1,1.69,1.18l3.07-3.1a6.61,6.61,0,0,0-2.94-2,10.59,10.59,0,0,0-3.84-.7,8.25,8.25,0,0,0-3.46.67,5.41,5.41,0,0,0-2.3,1.79,4.35,4.35,0,0,0-.8,2.62,4.9,4.9,0,0,0,.51,2.37,3.9,3.9,0,0,0,1.41,1.44,9.36,9.36,0,0,0,1.79.83c.62.2,1.21.37,1.76.52a4.69,4.69,0,0,1,1.38.48.81.81,0,0,1,.54.76.6.6,0,0,1-.38.55,2.28,2.28,0,0,1-1.06.19,5.93,5.93,0,0,1-2.3-.45,5.32,5.32,0,0,1-1.83-1.25l-3,3.11a8.86,8.86,0,0,0,2,1.53A13.07,13.07,0,0,0,579.41,49.49Z"/><path class="cls-1" d="M607,19.81a7.69,7.69,0,0,0,2.72,2.88,7.58,7.58,0,0,0,4,1,6.72,6.72,0,0,0,2.76-.57,6.49,6.49,0,0,0,1.08-.66v.91h5.48V.1h-5.57V8.53a5.51,5.51,0,0,0-1-.53,7,7,0,0,0-2.76-.54,7.64,7.64,0,0,0-4,1A7.34,7.34,0,0,0,607,11.39a9.21,9.21,0,0,0-1,4.23A9.13,9.13,0,0,0,607,19.81ZM612.08,14a2.92,2.92,0,0,1,2.69-1.56,3,3,0,0,1,1.57.41A2.83,2.83,0,0,1,617.42,14a3.3,3.3,0,0,1,.39,1.63,3.37,3.37,0,0,1-.42,1.7,3,3,0,0,1-1,1.12,3.13,3.13,0,0,1-1.6.38,3,3,0,0,1-1.57-.41,2.93,2.93,0,0,1-1.09-1.12,3.63,3.63,0,0,1-.38-1.67A3.38,3.38,0,0,1,612.08,14Z"/><path class="cls-1" d="M648.09,6a2.81,2.81,0,0,0,2.11-.83A3,3,0,0,0,651,3,2.92,2.92,0,0,0,650.2.86a3,3,0,0,0-4.19,0A2.92,2.92,0,0,0,645.18,3,3,3,0,0,0,646,5.12,2.83,2.83,0,0,0,648.09,6Z"/><polygon class="cls-1" points="634.36 23.42 639.92 23.42 639.92 12.42 643.38 12.42 643.38 7.78 639.92 7.78 639.92 1.31 634.36 1.31 634.36 7.78 630.9 7.78 630.9 12.42 634.36 12.42 634.36 23.42"/><rect class="cls-1" x="645.31" y="7.78" width="5.6" height="15.65"/><rect class="cls-1" x="638.77" y="26.1" width="5.57" height="23.33"/><polygon class="cls-1" points="656.29 23.42 661.86 23.42 661.86 12.42 665.32 12.42 665.32 7.78 661.86 7.78 661.86 1.31 656.29 1.31 656.29 7.78 652.84 7.78 652.84 12.42 656.29 12.42 656.29 23.42"/><rect class="cls-1" x="647.62" y="26.1" width="5.57" height="23.33"/><path class="cls-1" d="M690.68,11.2a7,7,0,0,0-2.88-2.78,8.34,8.34,0,0,0-4.19-1,8.82,8.82,0,0,0-4.39,1.09,7.92,7.92,0,0,0-4.16,7.1,7.82,7.82,0,0,0,4.32,7.17,10,10,0,0,0,4.64,1,9.59,9.59,0,0,0,3.71-.68,7.23,7.23,0,0,0,2.82-2l-2.91-2.91a4.41,4.41,0,0,1-1.6,1.18,4.89,4.89,0,0,1-2,.39,4.06,4.06,0,0,1-2-.48,3.12,3.12,0,0,1-1.27-1.41,2.66,2.66,0,0,1-.16-.5l10.94-.05a6,6,0,0,0,.19-1.12,8.47,8.47,0,0,0,.06-1A7.71,7.71,0,0,0,690.68,11.2Zm-8.83.7a3.21,3.21,0,0,1,1.82-.51,3,3,0,0,1,1.7.45,2.83,2.83,0,0,1,1,1.31,3.51,3.51,0,0,1,.19.6l-6.06.05c.05-.15.08-.32.14-.46A3.38,3.38,0,0,1,681.85,11.9Z"/><path class="cls-1" d="M619.49,37.39a9.71,9.71,0,0,0,0,8.42,7.46,7.46,0,0,0,2.66,2.88A7.2,7.2,0,0,0,626,49.74a6.56,6.56,0,0,0,2.69-.54,5.25,5.25,0,0,0,1.34-.87v1.09h5.48V33.78h-5.48v1.07a5.19,5.19,0,0,0-1.34-.85,6.56,6.56,0,0,0-2.69-.54,7.2,7.2,0,0,0-3.87,1A7.06,7.06,0,0,0,619.49,37.39ZM624.55,40a2.92,2.92,0,0,1,2.69-1.56,3,3,0,0,1,1.57.41A2.9,2.9,0,0,1,629.89,40a3.3,3.3,0,0,1,.39,1.63,3.19,3.19,0,0,1-.87,2.31,2.88,2.88,0,0,1-2.2.89,3,3,0,0,1-1.57-.41,2.93,2.93,0,0,1-1.09-1.12,3.51,3.51,0,0,1-.38-1.67A3.26,3.26,0,0,1,624.55,40Z"/><rect class="cls-1" x="667.27" y="0.1" width="5.57" height="23.33"/><polygon class="cls-1" points="580.01 81.26 576.83 76.02 575.87 76.02 575.87 84.42 577.25 84.42 577.25 79.05 579.53 82.79 580.49 82.79 582.77 79.05 582.77 84.42 584.15 84.42 584.15 76.02 583.19 76.02 580.01 81.26"/><path class="cls-1" d="M578,68.22a4.5,4.5,0,0,0,1.69.32,4.36,4.36,0,0,0,1.79-.34,4.25,4.25,0,0,0,1.36-.92l-.94-.94A2.61,2.61,0,0,1,581,67a3.29,3.29,0,0,1-1.3.23,2.86,2.86,0,0,1-1.14-.22,2.61,2.61,0,0,1-.9-.61,2.88,2.88,0,0,1-.57-1,3.59,3.59,0,0,1,0-2.42,2.74,2.74,0,0,1,.57-.95,2.64,2.64,0,0,1,.9-.62,2.86,2.86,0,0,1,1.14-.22,3.12,3.12,0,0,1,1.24.23,2.56,2.56,0,0,1,.91.63l.94-.93a4.39,4.39,0,0,0-1.32-.91,4.2,4.2,0,0,0-1.77-.34,4.18,4.18,0,0,0-3,1.26,4,4,0,0,0-.89,1.38,4.44,4.44,0,0,0-.31,1.68,4.53,4.53,0,0,0,.31,1.69,4.2,4.2,0,0,0,.89,1.38A4.35,4.35,0,0,0,578,68.22Z"/><rect class="cls-1" x="627.44" y="62.66" width="1.32" height="5.76"/><path class="cls-1" d="M592,65.22a1.49,1.49,0,0,1,.36-1.1,1.28,1.28,0,0,1,.92-.34,1.23,1.23,0,0,1,.44.07,1,1,0,0,1,.35.24l.86-.89a1.8,1.8,0,0,0-1.43-.66,1.71,1.71,0,0,0-1.47.68l0,.05v-.61h-1.32v5.76H592Z"/><path class="cls-1" d="M628.66,60.25a.74.74,0,0,0-.56-.23.75.75,0,0,0-.78.79.82.82,0,0,0,.21.57.78.78,0,0,0,.57.22.73.73,0,0,0,.56-.22.78.78,0,0,0,.22-.57A.76.76,0,0,0,628.66,60.25Z"/><rect class="cls-1" x="634.77" y="59.78" width="1.32" height="8.64"/><path class="cls-1" d="M599.83,76a.77.77,0,0,0-.56.23.76.76,0,0,0-.22.56.78.78,0,0,0,.22.57.84.84,0,0,0,1.13,0,.82.82,0,0,0,.21-.57.79.79,0,0,0-.21-.56A.78.78,0,0,0,599.83,76Z"/><path class="cls-1" d="M642.53,67.54l-.84-.85a1.79,1.79,0,0,1-.65.46,2.16,2.16,0,0,1-.81.15,2,2,0,0,1-.92-.21,1.63,1.63,0,0,1-.61-.64,1.4,1.4,0,0,1-.15-.42h4.29a2.3,2.3,0,0,0,0-.32,1.62,1.62,0,0,0,0-.3,3.11,3.11,0,0,0-.35-1.48,2.65,2.65,0,0,0-2.39-1.39,2.89,2.89,0,0,0-1.51.4,3,3,0,0,0-1.47,2.6,3,3,0,0,0,.4,1.54,3,3,0,0,0,1.09,1.08,3.37,3.37,0,0,0,2.83.13A2.71,2.71,0,0,0,642.53,67.54Zm-3.84-3a1.48,1.48,0,0,1,.58-.61,1.63,1.63,0,0,1,.87-.22,1.67,1.67,0,0,1,.81.19,1.32,1.32,0,0,1,.51.56,1.7,1.7,0,0,1,.15.45h-3.05A1.63,1.63,0,0,1,638.69,64.58Z"/><polygon class="cls-1" points="645.99 78.66 644.47 78.66 643.24 80.49 641.98 78.66 640.39 78.66 642.4 81.47 640.28 84.42 641.82 84.42 643.17 82.44 644.52 84.42 646.1 84.42 644.01 81.46 645.99 78.66"/><path class="cls-1" d="M647.67,63.86a1.27,1.27,0,0,1,.61-.12,1.65,1.65,0,0,1,.75.16,1.75,1.75,0,0,1,.57.46l.84-.84a2.28,2.28,0,0,0-.9-.73,2.77,2.77,0,0,0-1.22-.25,2.67,2.67,0,0,0-1.14.22,1.63,1.63,0,0,0-.73.61,1.7,1.7,0,0,0-.25.95,1.54,1.54,0,0,0,.21.84,1.78,1.78,0,0,0,.55.51,4,4,0,0,0,.72.29c.26.07.5.14.72.22a1.78,1.78,0,0,1,.57.24.45.45,0,0,1,.21.4.42.42,0,0,1-.23.39,1.32,1.32,0,0,1-.67.13,2.31,2.31,0,0,1-.89-.17,2,2,0,0,1-.68-.53l-.84.84a2.76,2.76,0,0,0,.65.58,3.7,3.7,0,0,0,.81.36,3.59,3.59,0,0,0,.93.12,2.38,2.38,0,0,0,1.59-.49,1.62,1.62,0,0,0,.59-1.33,1.42,1.42,0,0,0-.78-1.38,2.92,2.92,0,0,0-.72-.32c-.24-.08-.49-.15-.72-.21a2.39,2.39,0,0,1-.55-.23.42.42,0,0,1-.22-.37A.39.39,0,0,1,647.67,63.86Z"/><polygon class="cls-1" points="632.43 60.26 631.12 60.26 631.12 62.66 629.74 62.66 629.74 63.86 631.12 63.86 631.12 68.42 632.43 68.42 632.43 63.86 633.82 63.86 633.82 62.66 632.43 62.66 632.43 60.26"/><path class="cls-1" d="M638.56,79a2.55,2.55,0,0,0-1.4-.41,2.36,2.36,0,0,0-1.17.29,2.25,2.25,0,0,0-.6.5v-.67h-1.32v8.16h1.32v-3a2.14,2.14,0,0,0,.59.49,2.37,2.37,0,0,0,1.18.28,2.54,2.54,0,0,0,1.4-.4,2.91,2.91,0,0,0,1-1.06,3.26,3.26,0,0,0,.37-1.53,3.17,3.17,0,0,0-.37-1.52A2.82,2.82,0,0,0,638.56,79Zm-.21,3.5a1.51,1.51,0,0,1-.57.63,1.64,1.64,0,0,1-.84.21,1.67,1.67,0,0,1-.85-.21,1.6,1.6,0,0,1-.58-.63,2.17,2.17,0,0,1,0-1.82,1.43,1.43,0,0,1,.58-.61,1.51,1.51,0,0,1,.85-.23,1.47,1.47,0,0,1,.84.23,1.35,1.35,0,0,1,.57.61,2,2,0,0,1,0,1.82Z"/><rect class="cls-1" x="668.83" y="59.78" width="1.32" height="8.64"/><rect class="cls-1" x="676.81" y="64.74" width="4.07" height="1.24"/><rect class="cls-1" x="671.62" y="59.78" width="1.32" height="8.64"/><path class="cls-1" d="M628.93,81.11a11.06,11.06,0,0,0,.83-1,2.82,2.82,0,0,0,.42-.83,3.12,3.12,0,0,0,.13-.95,2.53,2.53,0,0,0-.32-1.28,2.27,2.27,0,0,0-.91-.88,2.88,2.88,0,0,0-1.37-.31,3.18,3.18,0,0,0-1.67.44,3.51,3.51,0,0,0-1.21,1.29l1,.79a2.73,2.73,0,0,1,.81-.94,1.9,1.9,0,0,1,1.06-.3,1.3,1.3,0,0,1,.92.33,1.08,1.08,0,0,1,.38.87,1.71,1.71,0,0,1-.11.59,2.42,2.42,0,0,1-.35.61c-.16.22-.37.46-.62.74l-3.1,3.28v.82h5.7V83.18h-3.55Z"/><path class="cls-1" d="M666,63.33a2.25,2.25,0,0,0-.6-.5,2.29,2.29,0,0,0-1.16-.29,2.61,2.61,0,0,0-1.42.41,2.87,2.87,0,0,0-1,1.08,3.16,3.16,0,0,0-.36,1.52,3.26,3.26,0,0,0,.36,1.53,3,3,0,0,0,1,1.06,2.61,2.61,0,0,0,1.42.4,2.42,2.42,0,0,0,1.18-.28,2,2,0,0,0,.58-.5v.66h1.32V62.66H666Zm-.37,3.47a1.49,1.49,0,0,1-1.17.49,1.74,1.74,0,0,1-.86-.21,1.65,1.65,0,0,1-.57-.63,2.08,2.08,0,0,1,0-1.82,1.47,1.47,0,0,1,.57-.61,1.56,1.56,0,0,1,.86-.23,1.51,1.51,0,0,1,.85.23,1.35,1.35,0,0,1,.57.61,1.91,1.91,0,0,1,.21.91A1.76,1.76,0,0,1,665.67,66.8Z"/><path class="cls-1" d="M659.4,62.8a2.43,2.43,0,0,0-1.12-.26,2.28,2.28,0,0,0-1.13.28,2.12,2.12,0,0,0-.79.7,2.07,2.07,0,0,0-.75-.72,2.35,2.35,0,0,0-1.1-.26,2.18,2.18,0,0,0-1.11.28,2.21,2.21,0,0,0-.55.46v-.62h-1.32v5.76h1.32V65a1.21,1.21,0,0,1,.17-.65,1.18,1.18,0,0,1,.44-.42,1.41,1.41,0,0,1,.65-.14,1.27,1.27,0,0,1,.89.32,1.11,1.11,0,0,1,.36.89v3.43h1.32V65a1.21,1.21,0,0,1,.17-.65,1.14,1.14,0,0,1,.45-.42,1.39,1.39,0,0,1,.64-.14,1.27,1.27,0,0,1,.89.32,1.11,1.11,0,0,1,.36.89v3.43h1.32V64.7a2.12,2.12,0,0,0-.3-1.15A2.09,2.09,0,0,0,659.4,62.8Z"/><path class="cls-1" d="M589.81,78.91a2.66,2.66,0,0,0-1.42-.37,2.95,2.95,0,0,0-3,3,2.9,2.9,0,0,0,1.49,2.62,3.2,3.2,0,0,0,1.55.38,3.25,3.25,0,0,0,1.28-.25,2.71,2.71,0,0,0,1-.75l-.84-.85a1.88,1.88,0,0,1-.65.46,2.18,2.18,0,0,1-.82.15,1.94,1.94,0,0,1-.91-.21,1.57,1.57,0,0,1-.61-.64,1.75,1.75,0,0,1-.16-.42h4.3c0-.12,0-.23,0-.32s0-.21,0-.3a3,3,0,0,0-.36-1.48A2.64,2.64,0,0,0,589.81,78.91Zm-2.89,1.67a1.4,1.4,0,0,1,.57-.61,1.67,1.67,0,0,1,.88-.22,1.6,1.6,0,0,1,.8.19,1.28,1.28,0,0,1,.52.56,2.16,2.16,0,0,1,.15.45h-3.06A2.35,2.35,0,0,1,586.92,80.58Z"/><path class="cls-1" d="M609.75,62.66V66a2.74,2.74,0,0,0,.31,1.32,2.53,2.53,0,0,0,.89.89,2.88,2.88,0,0,0,2.62,0,2.32,2.32,0,0,0,.87-.89,2.62,2.62,0,0,0,.33-1.33V62.66h-1.32V66a1.46,1.46,0,0,1-.31,1,1.12,1.12,0,0,1-.88.34,1.23,1.23,0,0,1-.65-.16,1,1,0,0,1-.41-.44,1.93,1.93,0,0,1-.13-.72V62.66Z"/><polygon class="cls-1" points="625.09 68.42 625.09 63.86 626.47 63.86 626.47 62.66 625.09 62.66 625.09 60.26 623.77 60.26 623.77 62.66 622.39 62.66 622.39 63.86 623.77 63.86 623.77 68.42 625.09 68.42"/><path class="cls-1" d="M599.55,63.33a2.25,2.25,0,0,0-.6-.5,2.29,2.29,0,0,0-1.16-.29,2.59,2.59,0,0,0-1.42.41,2.82,2.82,0,0,0-1,1.08,3.28,3.28,0,0,0-.36,1.52,3.38,3.38,0,0,0,.36,1.53,2.91,2.91,0,0,0,1,1.06,2.58,2.58,0,0,0,1.42.4,2.36,2.36,0,0,0,1.17-.28,1.92,1.92,0,0,0,.59-.5v.66h1.32V59.78h-1.32Zm-.7,3.75a1.62,1.62,0,0,1-.85.21,1.7,1.7,0,0,1-.85-.21,1.65,1.65,0,0,1-.57-.63,2.08,2.08,0,0,1,0-1.82,1.47,1.47,0,0,1,.57-.61,1.53,1.53,0,0,1,.85-.23,1.46,1.46,0,0,1,.85.23,1.43,1.43,0,0,1,.58.61,2.08,2.08,0,0,1,0,1.82A1.6,1.6,0,0,1,598.85,67.08Z"/><path class="cls-1" d="M587.29,68.26a2,2,0,0,0,.59-.5v.66h1.32V62.66h-1.32v.67a2.25,2.25,0,0,0-.6-.5,2.32,2.32,0,0,0-1.16-.29,2.59,2.59,0,0,0-1.42.41,2.82,2.82,0,0,0-1,1.08,3.16,3.16,0,0,0-.36,1.52,3.26,3.26,0,0,0,.36,1.53,2.91,2.91,0,0,0,1,1.06,2.58,2.58,0,0,0,1.42.4A2.36,2.36,0,0,0,587.29,68.26Zm-2.39-1.81a2.17,2.17,0,0,1,0-1.82,1.55,1.55,0,0,1,.58-.61,1.53,1.53,0,0,1,.85-.23,1.48,1.48,0,0,1,.85.23,1.43,1.43,0,0,1,.58.61,2,2,0,0,1,.2.91,1.8,1.8,0,0,1-.45,1.26,1.51,1.51,0,0,1-1.18.49,1.7,1.7,0,0,1-.85-.21A1.76,1.76,0,0,1,584.9,66.45Z"/><path class="cls-1" d="M596.38,79.33a2.42,2.42,0,0,0-.6-.5,2.36,2.36,0,0,0-1.17-.29,2.56,2.56,0,0,0-1.41.41,2.82,2.82,0,0,0-1,1.08,3.16,3.16,0,0,0-.36,1.52,3.26,3.26,0,0,0,.36,1.53,2.91,2.91,0,0,0,1,1.06,2.55,2.55,0,0,0,1.41.4,2.42,2.42,0,0,0,1.18-.28,2.18,2.18,0,0,0,.59-.5v.66h1.32V75.78h-1.32Zm-.7,3.75a1.65,1.65,0,0,1-.85.21,1.5,1.5,0,0,1-1.43-.84,2.17,2.17,0,0,1,0-1.82A1.49,1.49,0,0,1,594,80a1.51,1.51,0,0,1,.85-.23,1.48,1.48,0,0,1,.85.23,1.43,1.43,0,0,1,.58.61,2.17,2.17,0,0,1,0,1.82A1.6,1.6,0,0,1,595.68,83.08Z"/><rect class="cls-1" x="599.17" y="78.66" width="1.32" height="5.76"/><polygon class="cls-1" points="622.17 76.02 620.49 76.02 620.49 77.26 622.17 77.26 622.17 84.42 623.53 84.42 623.53 76.02 623.41 76.02 622.17 76.02"/><path class="cls-1" d="M621.58,67.08a3.15,3.15,0,0,0,.37-1.53,3.06,3.06,0,0,0-.37-1.52,2.67,2.67,0,0,0-1-1.08,2.5,2.5,0,0,0-1.4-.41,2.42,2.42,0,0,0-1.17.29,2.25,2.25,0,0,0-.6.5V59.78h-1.32v8.64h1.32v-.65a2.14,2.14,0,0,0,.59.49,2.42,2.42,0,0,0,1.18.28,2.49,2.49,0,0,0,1.4-.4A2.75,2.75,0,0,0,621.58,67.08Zm-1.78,0a1.64,1.64,0,0,1-.84.21,1.7,1.7,0,0,1-.85-.21,1.6,1.6,0,0,1-.58-.63,2.17,2.17,0,0,1,0-1.82,1.43,1.43,0,0,1,.58-.61,1.53,1.53,0,0,1,.85-.23,1.47,1.47,0,0,1,.84.23,1.43,1.43,0,0,1,.58.61,2.08,2.08,0,0,1,0,1.82A1.6,1.6,0,0,1,619.8,67.08Z"/><path class="cls-1" d="M606,63.86a1.31,1.31,0,0,1,.62-.12,1.61,1.61,0,0,1,.74.16,1.69,1.69,0,0,1,.58.46l.84-.84a2.28,2.28,0,0,0-.9-.73,2.79,2.79,0,0,0-1.23-.25,2.67,2.67,0,0,0-1.14.22,1.68,1.68,0,0,0-.73.61,1.7,1.7,0,0,0-.25.95,1.54,1.54,0,0,0,.21.84,1.71,1.71,0,0,0,.56.51,3.74,3.74,0,0,0,.72.29l.72.22a1.72,1.72,0,0,1,.56.24.46.46,0,0,1,.22.4.43.43,0,0,1-.23.39,1.35,1.35,0,0,1-.67.13,2.28,2.28,0,0,1-.89-.17,1.82,1.82,0,0,1-.68-.53l-.85.84a3,3,0,0,0,.65.58,3.58,3.58,0,0,0,.82.36,3.46,3.46,0,0,0,.92.12,2.41,2.41,0,0,0,1.6-.49,1.65,1.65,0,0,0,.59-1.33,1.56,1.56,0,0,0-.22-.86,1.47,1.47,0,0,0-.56-.52,3.3,3.3,0,0,0-.72-.32l-.72-.21a2.49,2.49,0,0,1-.56-.23.42.42,0,0,1-.21-.37A.38.38,0,0,1,606,63.86Z"/><path class="cls-1" d="M605.52,82a1.41,1.41,0,0,1-.31,1,1.09,1.09,0,0,1-.87.34,1.23,1.23,0,0,1-.65-.16,1,1,0,0,1-.41-.44,1.75,1.75,0,0,1-.13-.72V78.66h-1.32V82a2.74,2.74,0,0,0,.31,1.32,2.45,2.45,0,0,0,.89.89,2.67,2.67,0,0,0,1.31.32,2.6,2.6,0,0,0,1.3-.31,2.28,2.28,0,0,0,.88-.89,2.62,2.62,0,0,0,.33-1.33V78.66h-1.33Z"/><path class="cls-1" d="M616,78.8a2.43,2.43,0,0,0-1.12-.26,2.28,2.28,0,0,0-1.13.28,2.12,2.12,0,0,0-.79.7,2.07,2.07,0,0,0-.75-.72,2.35,2.35,0,0,0-1.1-.26,2.18,2.18,0,0,0-1.11.28,2.21,2.21,0,0,0-.55.46v-.62h-1.32v5.76h1.32V81a1.21,1.21,0,0,1,.17-.65,1.18,1.18,0,0,1,.44-.42,1.41,1.41,0,0,1,.65-.14,1.27,1.27,0,0,1,.89.32A1.11,1.11,0,0,1,612,81v3.43h1.32V81a1.21,1.21,0,0,1,.17-.65,1.14,1.14,0,0,1,.45-.42,1.39,1.39,0,0,1,.64-.14,1.27,1.27,0,0,1,.89.32,1.11,1.11,0,0,1,.36.89v3.43h1.32V80.7a2.12,2.12,0,0,0-.3-1.15A2.09,2.09,0,0,0,616,78.8Z"/><rect class="cls-1" x="851.08" y="5.83" width="4.2" height="11.74"/><path class="cls-1" d="M808.09,26.31a6.32,6.32,0,0,0-3.14-.77,6.69,6.69,0,0,0-3.29.82,6,6,0,0,0-2.28,2.18,5.91,5.91,0,0,0-.84,3.15,5.85,5.85,0,0,0,3.24,5.37,7.49,7.49,0,0,0,3.48.77,7.33,7.33,0,0,0,2.78-.5,5.52,5.52,0,0,0,2.12-1.49L808,33.66a3.27,3.27,0,0,1-1.2.88,3.54,3.54,0,0,1-1.51.29,3,3,0,0,1-1.53-.36,2.41,2.41,0,0,1-1-1c0-.12-.07-.25-.11-.37l8.2,0a5.37,5.37,0,0,0,.15-.84,6.51,6.51,0,0,0,0-.75,5.74,5.74,0,0,0-.79-3A5.3,5.3,0,0,0,808.09,26.31Zm-4.46,2.62a2.37,2.37,0,0,1,1.37-.39,2.29,2.29,0,0,1,1.27.34,2.13,2.13,0,0,1,.77,1c.05.13.09.3.13.45l-4.53,0a1.91,1.91,0,0,1,.1-.34A2.39,2.39,0,0,1,803.63,28.93Z"/><path class="cls-1" d="M876.64,17.06a7.49,7.49,0,0,0,3.48.77,7.33,7.33,0,0,0,2.78-.5A5.52,5.52,0,0,0,885,15.84l-2.19-2.18a3.27,3.27,0,0,1-1.2.88,3.54,3.54,0,0,1-1.51.29,3.05,3.05,0,0,1-1.54-.36,2.45,2.45,0,0,1-1-1.05c0-.12-.07-.25-.11-.37l8.2,0a5.37,5.37,0,0,0,.15-.84,6.51,6.51,0,0,0,0-.75,5.74,5.74,0,0,0-.79-3A5.3,5.3,0,0,0,883,6.31a6.32,6.32,0,0,0-3.14-.77,6.69,6.69,0,0,0-3.29.82,6,6,0,0,0-2.28,2.18,5.91,5.91,0,0,0-.84,3.15,5.85,5.85,0,0,0,3.24,5.37Zm1.85-8.13a2.37,2.37,0,0,1,1.37-.39,2.29,2.29,0,0,1,1.27.34,2.13,2.13,0,0,1,.77,1c.05.13.08.3.12.45l-4.52,0a1.91,1.91,0,0,1,.1-.34A2.39,2.39,0,0,1,878.49,8.93Z"/><polygon class="cls-1" points="826.91 20.98 826.91 25.83 824.32 25.83 824.32 29.31 826.91 29.31 826.91 37.57 831.09 37.57 831.09 29.31 833.68 29.31 833.68 25.83 831.09 25.83 831.09 20.98 826.91 20.98"/><rect class="cls-1" x="906.6" y="20.07" width="4.18" height="17.5"/><rect class="cls-1" x="913.24" y="20.07" width="4.17" height="17.5"/><path class="cls-1" d="M900.06,26.64a3.8,3.8,0,0,0-1-.64,4.93,4.93,0,0,0-2-.41,5.37,5.37,0,0,0-4.89,2.95,7.2,7.2,0,0,0,0,6.32,5.53,5.53,0,0,0,2,2.16,5.41,5.41,0,0,0,2.9.79,4.93,4.93,0,0,0,2-.41,4.1,4.1,0,0,0,1-.65v.82h4.11V25.83h-4.11Zm-2.13,7.45a2.36,2.36,0,0,1-1.18-.31,2.18,2.18,0,0,1-.81-.84,2.59,2.59,0,0,1-.29-1.25,2.37,2.37,0,0,1,.29-1.2,2.43,2.43,0,0,1,.81-.87,2.38,2.38,0,0,1,1.2-.31,2.28,2.28,0,0,1,1.18.31,2.18,2.18,0,0,1,.81.84,2.46,2.46,0,0,1,.29,1.23,2.37,2.37,0,0,1-.65,1.73A2.15,2.15,0,0,1,897.93,34.09Z"/><rect class="cls-1" x="867.56" y="0.07" width="4.18" height="17.5"/><path class="cls-1" d="M788.47,17a7.14,7.14,0,0,0,3.38.79,6.51,6.51,0,0,0,2.57-.48,6.84,6.84,0,0,0,2.14-1.44l-2.67-2.64a2.58,2.58,0,0,1-.84.63,2.85,2.85,0,0,1-1.15.21,2.38,2.38,0,0,1-1.22-.31,2.59,2.59,0,0,1-.87-.84,2.52,2.52,0,0,1-.31-1.27,2.42,2.42,0,0,1,.31-1.27,2.28,2.28,0,0,1,.87-.82,2.38,2.38,0,0,1,1.22-.31,2.71,2.71,0,0,1,1.08.19,2.18,2.18,0,0,1,.84.53l2.64-2.64A6.24,6.24,0,0,0,794.4,6a6.74,6.74,0,0,0-2.5-.46,7.13,7.13,0,0,0-3.41.82,6.3,6.3,0,0,0-2.37,2.18,5.87,5.87,0,0,0-.87,3.17,5.83,5.83,0,0,0,.87,3.15A6.1,6.1,0,0,0,788.47,17Z"/><path class="cls-1" d="M799.75,17a5.47,5.47,0,0,0,2.91.79,4.85,4.85,0,0,0,2-.41,4,4,0,0,0,1-.65v.82h4.11V5.83h-4.11v.81a3.7,3.7,0,0,0-1-.64,4.85,4.85,0,0,0-2-.41,5.37,5.37,0,0,0-4.9,2.95,6.82,6.82,0,0,0-.72,3.17,6.77,6.77,0,0,0,.72,3.15A5.6,5.6,0,0,0,799.75,17Zm1.8-6.53a2.19,2.19,0,0,1,2-1.18,2.28,2.28,0,0,1,1.18.31,2.18,2.18,0,0,1,.81.84,2.57,2.57,0,0,1,.29,1.23,2.41,2.41,0,0,1-.65,1.73,2.17,2.17,0,0,1-1.65.67,2.33,2.33,0,0,1-1.18-.31,2.28,2.28,0,0,1-.82-.84,2.7,2.7,0,0,1-.28-1.25A2.47,2.47,0,0,1,801.55,10.49Z"/><path class="cls-1" d="M890,37.57V30.44a5,5,0,0,0-.62-2.59,4,4,0,0,0-1.68-1.68,5.07,5.07,0,0,0-2.45-.58,5.31,5.31,0,0,0-2.59.63,1.11,1.11,0,0,1-2.16,0,4.06,4.06,0,0,0-2.16-.58,5.18,5.18,0,0,0-2.4.55,4.36,4.36,0,0,0-.67.45v-.76h-4.18V37.57h4.18V30.78a1.63,1.63,0,0,1,.19-.84,1.49,1.49,0,0,1,.58-.56,1.86,1.86,0,0,1,.84-.19,1.6,1.6,0,0,1,1.12.43,1.47,1.47,0,0,1,.46,1.16v6.79h4.18V30.78a1.63,1.63,0,0,1,.19-.84,1.46,1.46,0,0,1,.57-.56,2,2,0,0,1,.84-.19,1.6,1.6,0,0,1,1.13.43,1.47,1.47,0,0,1,.46,1.16v6.79Z"/><polygon class="cls-1" points="859.32 17.57 863.5 17.57 863.5 9.31 866.09 9.31 866.09 5.83 863.5 5.83 863.5 0.98 859.32 0.98 859.32 5.83 856.73 5.83 856.73 9.31 859.32 9.31 859.32 17.57"/><polygon class="cls-1" points="842.87 17.57 847.05 17.57 847.05 9.31 849.64 9.31 849.64 5.83 847.05 5.83 847.05 0.98 842.87 0.98 842.87 5.83 840.28 5.83 840.28 9.31 842.87 9.31 842.87 17.57"/><path class="cls-1" d="M853.17,4.46a2.06,2.06,0,0,0,1.58-.62,2.22,2.22,0,0,0,.63-1.61,2.18,2.18,0,0,0-.63-1.58A2.05,2.05,0,0,0,853.17,0a2.1,2.1,0,0,0-1.56.65A2.17,2.17,0,0,0,851,2.23a2.21,2.21,0,0,0,.62,1.61A2.11,2.11,0,0,0,853.17,4.46Z"/><path class="cls-1" d="M816.4,11.18a2,2,0,0,1,.46-1.44,1.63,1.63,0,0,1,1.27-.5,2.07,2.07,0,0,1,.77.14,1.29,1.29,0,0,1,.55.34l2.42-3.24a2.63,2.63,0,0,0-1-.67,4.11,4.11,0,0,0-1.44-.22,4.41,4.41,0,0,0-3,1V5.83h-4.18V17.57h4.18Z"/><path class="cls-1" d="M845.29,28.54a7.29,7.29,0,0,0,0,6.32,5.55,5.55,0,0,0,2,2.16,5.41,5.41,0,0,0,2.9.79,4.93,4.93,0,0,0,2-.41,4.1,4.1,0,0,0,1-.65v.82h4.11V25.83h-4.11v.81a3.8,3.8,0,0,0-1-.64,4.93,4.93,0,0,0-2-.41,5.4,5.4,0,0,0-4.9,2.95Zm3.8,1.95a2.34,2.34,0,0,1,.81-.87,2.38,2.38,0,0,1,1.2-.31,2.28,2.28,0,0,1,1.18.31,2.18,2.18,0,0,1,.81.84,2.46,2.46,0,0,1,.29,1.23,2.37,2.37,0,0,1-.65,1.73,2.15,2.15,0,0,1-1.65.67,2.36,2.36,0,0,1-1.18-.31,2.18,2.18,0,0,1-.81-.84,2.59,2.59,0,0,1-.29-1.25A2.37,2.37,0,0,1,849.09,30.49Z"/><path class="cls-1" d="M839.32,31.18a2,2,0,0,1,.46-1.44,1.63,1.63,0,0,1,1.27-.5,2.07,2.07,0,0,1,.77.14,1.29,1.29,0,0,1,.55.34l2.42-3.24a2.63,2.63,0,0,0-1-.67,4.11,4.11,0,0,0-1.44-.22,4.41,4.41,0,0,0-3,1v-.75h-4.17V37.57h4.17Z"/><path class="cls-1" d="M830.22,6.39a5.17,5.17,0,0,0-.74-.39,5.27,5.27,0,0,0-2.07-.41,5.74,5.74,0,0,0-3,.79,5.61,5.61,0,0,0-2,2.16,6.82,6.82,0,0,0-.72,3.17,6.77,6.77,0,0,0,.72,3.15,5.53,5.53,0,0,0,5,2.95,5.11,5.11,0,0,0,2.07-.43,4.76,4.76,0,0,0,.81-.5v.69h4.11V.07h-4.18Zm-.86,7.41a2.42,2.42,0,0,1-1.2.29,2.33,2.33,0,0,1-1.18-.31,2.28,2.28,0,0,1-.82-.84,2.7,2.7,0,0,1-.28-1.25,2.47,2.47,0,0,1,.28-1.2,2.19,2.19,0,0,1,2-1.18,2.28,2.28,0,0,1,1.18.31,2.18,2.18,0,0,1,.81.84,2.57,2.57,0,0,1,.29,1.23,2.52,2.52,0,0,1-.31,1.27A2.28,2.28,0,0,1,829.36,13.8Z"/><polygon class="cls-1" points="815.61 37.57 817.62 34.34 819.49 37.57 824.29 37.57 820.21 31.51 824.05 25.83 819.59 25.83 817.88 28.7 816.21 25.83 811.38 25.83 815.3 31.59 811.14 37.57 815.61 37.57"/><path class="cls-1" d="M861.87,26a4,4,0,0,0-1.73,1.34,3.31,3.31,0,0,0-.6,2,3.68,3.68,0,0,0,.38,1.77A2.89,2.89,0,0,0,861,32.14a7.1,7.1,0,0,0,1.34.63l1.32.38a4.06,4.06,0,0,1,1,.36.61.61,0,0,1,.41.58.45.45,0,0,1-.29.41,1.77,1.77,0,0,1-.79.14,4.45,4.45,0,0,1-1.73-.34,4,4,0,0,1-1.36-.93l-2.28,2.33a6.67,6.67,0,0,0,1.51,1.15,10.6,10.6,0,0,0,1.94.77,8.22,8.22,0,0,0,2.14.28,5.89,5.89,0,0,0,3.6-1,3.35,3.35,0,0,0,1.34-2.79,3.48,3.48,0,0,0-.41-1.8,3,3,0,0,0-1-1.1,5.13,5.13,0,0,0-1.32-.67,12.18,12.18,0,0,0-1.32-.39,6.07,6.07,0,0,1-1-.36c-.26-.13-.38-.29-.38-.5a.45.45,0,0,1,.24-.41,1.42,1.42,0,0,1,.79-.17A3.54,3.54,0,0,1,866,29a3,3,0,0,1,1.27.88l2.31-2.32A5.05,5.05,0,0,0,867.34,26a8,8,0,0,0-2.88-.53A6.11,6.11,0,0,0,861.87,26Z"/><path class="cls-1" d="M787.35,54.4a3.62,3.62,0,0,0,1.41.27,3.67,3.67,0,0,0,1.49-.28,3.71,3.71,0,0,0,1.13-.77l-.78-.78a2.33,2.33,0,0,1-.76.54,2.82,2.82,0,0,1-1.08.19,2.44,2.44,0,0,1-1-.18,2.17,2.17,0,0,1-.75-.51,2.41,2.41,0,0,1-.48-.8,3.09,3.09,0,0,1,0-2,2.18,2.18,0,0,1,.48-.79,2.07,2.07,0,0,1,.75-.52,2.44,2.44,0,0,1,1-.18,2.53,2.53,0,0,1,1,.19,2,2,0,0,1,.76.53l.78-.78a3.8,3.8,0,0,0-1.1-.76,3.6,3.6,0,0,0-4,.77,3.3,3.3,0,0,0-.74,1.15,3.79,3.79,0,0,0-.26,1.4,3.88,3.88,0,0,0,.26,1.41,3.6,3.6,0,0,0,.74,1.15A3.5,3.5,0,0,0,787.35,54.4Z"/><path class="cls-1" d="M797.2,66a2.21,2.21,0,0,0-1.18-.31,2.47,2.47,0,0,0-1.26.33,2.4,2.4,0,0,0-.89.9,2.45,2.45,0,0,0-.33,1.27,2.52,2.52,0,0,0,.33,1.28,2.46,2.46,0,0,0,.91.9,2.66,2.66,0,0,0,1.3.32,2.75,2.75,0,0,0,1.06-.21,2.36,2.36,0,0,0,.85-.62l-.7-.71a1.47,1.47,0,0,1-.54.38,1.72,1.72,0,0,1-.68.13,1.55,1.55,0,0,1-.76-.18,1.3,1.3,0,0,1-.51-.53,1.48,1.48,0,0,1-.13-.35h3.58c0-.1,0-.19,0-.27a2.29,2.29,0,0,0,0-.25,2.49,2.49,0,0,0-.3-1.23A2.28,2.28,0,0,0,797.2,66Zm-2.41,1.39a1.18,1.18,0,0,1,.48-.51,1.41,1.41,0,0,1,.73-.18,1.28,1.28,0,0,1,.67.16,1.12,1.12,0,0,1,.43.46,1.89,1.89,0,0,1,.12.38h-2.54A1,1,0,0,1,794.79,67.37Z"/><polygon class="cls-1" points="789.03 67.93 786.38 63.57 785.58 63.57 785.58 70.57 786.73 70.57 786.73 66.08 788.63 69.21 789.43 69.21 791.33 66.08 791.33 70.57 792.48 70.57 792.48 63.57 791.68 63.57 789.03 67.93"/><path class="cls-1" d="M810.72,50.77a1,1,0,0,1,.51-.1,1.38,1.38,0,0,1,.62.13,1.36,1.36,0,0,1,.48.39l.7-.7a1.77,1.77,0,0,0-.75-.61,2.59,2.59,0,0,0-2,0,1.46,1.46,0,0,0-.61.51,1.43,1.43,0,0,0-.21.79,1.23,1.23,0,0,0,.18.7,1.35,1.35,0,0,0,.46.43,3.13,3.13,0,0,0,.6.24l.6.18a1.58,1.58,0,0,1,.47.2.38.38,0,0,1,.18.34.35.35,0,0,1-.19.32,1.18,1.18,0,0,1-.56.11,2,2,0,0,1-.74-.14,1.82,1.82,0,0,1-.57-.44l-.7.7a2.27,2.27,0,0,0,.54.48,2.6,2.6,0,0,0,.68.3,3.25,3.25,0,0,0,.77.1,2,2,0,0,0,1.33-.41,1.37,1.37,0,0,0,.49-1.11,1.22,1.22,0,0,0-.65-1.15,2.27,2.27,0,0,0-.6-.26l-.6-.18a2.28,2.28,0,0,1-.46-.19.36.36,0,0,1-.18-.31A.31.31,0,0,1,810.72,50.77Z"/><path class="cls-1" d="M813.82,49.77v2.79a2.21,2.21,0,0,0,.26,1.1,2,2,0,0,0,.74.74,2.18,2.18,0,0,0,1.09.27,2.28,2.28,0,0,0,1.09-.26,2,2,0,0,0,.73-.74,2.23,2.23,0,0,0,.27-1.11V49.77h-1.1v2.74a1.22,1.22,0,0,1-.26.82.92.92,0,0,1-.73.28,1.13,1.13,0,0,1-.54-.13.87.87,0,0,1-.34-.37,1.4,1.4,0,0,1-.11-.6V49.77Z"/><path class="cls-1" d="M797.91,49.77v4.8H799V51.9a1.2,1.2,0,0,1,.3-.91,1,1,0,0,1,.76-.29,1.06,1.06,0,0,1,.37.06.8.8,0,0,1,.29.2l.72-.74a1.47,1.47,0,0,0-.54-.42,1.51,1.51,0,0,0-.65-.13,1.41,1.41,0,0,0-1.23.57s0,0,0,0v-.51Z"/><path class="cls-1" d="M795.1,54.44a1.82,1.82,0,0,0,.49-.42v.55h1.1v-4.8h-1.1v.56a1.56,1.56,0,0,0-.5-.42,1.91,1.91,0,0,0-1-.24,2.11,2.11,0,0,0-1.18.34,2.4,2.4,0,0,0-.83.9,2.65,2.65,0,0,0-.3,1.27,2.67,2.67,0,0,0,.3,1.27,2.45,2.45,0,0,0,.83.89,2.19,2.19,0,0,0,1.18.33A2.08,2.08,0,0,0,795.1,54.44Zm-2-1.51a1.78,1.78,0,0,1,0-1.52,1.31,1.31,0,0,1,1.19-.7,1.28,1.28,0,0,1,.71.19,1.18,1.18,0,0,1,.48.51,1.67,1.67,0,0,1,.17.76,1.52,1.52,0,0,1-.38,1,1.27,1.27,0,0,1-1,.41,1.39,1.39,0,0,1-.71-.18A1.42,1.42,0,0,1,793.11,52.93Z"/><polygon class="cls-1" points="856.27 47.77 855.17 47.77 855.17 49.77 854.02 49.77 854.02 50.77 855.17 50.77 855.17 54.57 856.27 54.57 856.27 50.77 857.42 50.77 857.42 49.77 856.27 49.77 856.27 47.77"/><path class="cls-1" d="M860.57,49.67a1.43,1.43,0,0,0-1.23.57s0,0,0,0v-.51h-1.1v4.8h1.1V51.9a1.2,1.2,0,0,1,.3-.91,1.15,1.15,0,0,1,1.13-.23.72.72,0,0,1,.29.2l.72-.74a1.33,1.33,0,0,0-.54-.42A1.51,1.51,0,0,0,860.57,49.67Z"/><polygon class="cls-1" points="853.81 49.77 852.54 49.77 851.52 51.29 850.47 49.77 849.14 49.77 850.82 52.11 849.05 54.57 850.33 54.57 851.46 52.92 852.58 54.57 853.9 54.57 852.16 52.1 853.81 49.77"/><path class="cls-1" d="M839,66a2,2,0,0,0-1.17-.34,2,2,0,0,0-1,.24,1.81,1.81,0,0,0-.5.42v-.56h-1.09v6.8h1.09V70a2,2,0,0,0,.49.42,2.22,2.22,0,0,0,2.15-.1,2.29,2.29,0,0,0,.83-.89,2.57,2.57,0,0,0,.31-1.27,2.54,2.54,0,0,0-.31-1.27A2.25,2.25,0,0,0,839,66Zm-.17,2.92a1.27,1.27,0,0,1-.48.52,1.33,1.33,0,0,1-.7.18,1.27,1.27,0,0,1-1.19-.7,1.78,1.78,0,0,1,0-1.52,1.31,1.31,0,0,1,1.19-.7,1.25,1.25,0,0,1,.7.19,1.18,1.18,0,0,1,.48.51,1.61,1.61,0,0,1,0,1.52Z"/><path class="cls-1" d="M840.43,53.13a1.43,1.43,0,0,1-.54.38,1.83,1.83,0,0,1-.68.13,1.58,1.58,0,0,1-.76-.18,1.37,1.37,0,0,1-.51-.53,1.48,1.48,0,0,1-.13-.35h3.58a1.47,1.47,0,0,0,0-.27,1.1,1.1,0,0,0,0-.25,2.49,2.49,0,0,0-.3-1.23,2.14,2.14,0,0,0-.81-.85,2.19,2.19,0,0,0-1.18-.31A2.43,2.43,0,0,0,837,50.9a2.43,2.43,0,0,0-.33,1.27,2.44,2.44,0,0,0,1.24,2.18,2.79,2.79,0,0,0,2.36.11,2.2,2.2,0,0,0,.85-.62Zm-2.5-1.76a1.31,1.31,0,0,1,.48-.51,1.44,1.44,0,0,1,.73-.18,1.26,1.26,0,0,1,.67.16,1,1,0,0,1,.43.46,1.42,1.42,0,0,1,.13.38h-2.55A1.42,1.42,0,0,1,837.93,51.37Z"/><path class="cls-1" d="M865.63,50.33a1.56,1.56,0,0,0-.5-.42,1.94,1.94,0,0,0-1-.24A2.11,2.11,0,0,0,863,50a2.32,2.32,0,0,0-.83.9,2.65,2.65,0,0,0-.3,1.27,2.67,2.67,0,0,0,.3,1.27,2.37,2.37,0,0,0,.83.89,2.19,2.19,0,0,0,1.18.33,2.11,2.11,0,0,0,1-.23,1.82,1.82,0,0,0,.49-.42v.55h1.1v-4.8h-1.1Zm-.31,2.89a1.28,1.28,0,0,1-1,.41,1.36,1.36,0,0,1-.71-.18,1.42,1.42,0,0,1-.48-.52,1.78,1.78,0,0,1,0-1.52,1.31,1.31,0,0,1,.48-.51,1.42,1.42,0,0,1,1.42,0,1.24,1.24,0,0,1,.48.51,1.67,1.67,0,0,1,.17.76A1.52,1.52,0,0,1,865.32,53.22Z"/><path class="cls-1" d="M847.69,50a2.21,2.21,0,0,0-1.18-.31,2.47,2.47,0,0,0-1.26.33,2.4,2.4,0,0,0-.89.9,2.43,2.43,0,0,0-.33,1.27,2.52,2.52,0,0,0,.33,1.28,2.46,2.46,0,0,0,.91.9,2.66,2.66,0,0,0,1.3.32,2.75,2.75,0,0,0,1.06-.21,2.36,2.36,0,0,0,.85-.62l-.7-.71a1.6,1.6,0,0,1-.54.38,1.91,1.91,0,0,1-.68.13,1.55,1.55,0,0,1-.76-.18,1.37,1.37,0,0,1-.51-.53,1.48,1.48,0,0,1-.13-.35h3.58c0-.1,0-.19,0-.27a2.29,2.29,0,0,0,0-.25,2.49,2.49,0,0,0-.3-1.23A2.28,2.28,0,0,0,847.69,50Zm-2.41,1.39a1.18,1.18,0,0,1,.48-.51,1.41,1.41,0,0,1,.73-.18,1.28,1.28,0,0,1,.67.16,1.07,1.07,0,0,1,.43.46,1.89,1.89,0,0,1,.12.38h-2.55A1.43,1.43,0,0,1,845.28,51.37Z"/><polygon class="cls-1" points="845.16 65.77 843.89 65.77 842.87 67.29 841.82 65.77 840.49 65.77 842.17 68.11 840.4 70.57 841.68 70.57 842.81 68.92 843.93 70.57 845.25 70.57 843.51 68.1 845.16 65.77"/><path class="cls-1" d="M802.67,66.33a1.56,1.56,0,0,0-.5-.42,1.91,1.91,0,0,0-1-.24A2.11,2.11,0,0,0,800,66a2.4,2.4,0,0,0-.83.9,2.65,2.65,0,0,0-.3,1.27,2.67,2.67,0,0,0,.3,1.27,2.45,2.45,0,0,0,.83.89,2.19,2.19,0,0,0,1.18.33,2.08,2.08,0,0,0,1-.23,1.82,1.82,0,0,0,.49-.42v.55h1.1v-7.2h-1.1Zm-.58,3.12a1.36,1.36,0,0,1-.71.18,1.39,1.39,0,0,1-.71-.18,1.42,1.42,0,0,1-.48-.52,1.78,1.78,0,0,1,0-1.52,1.31,1.31,0,0,1,1.19-.7,1.28,1.28,0,0,1,.71.19,1.18,1.18,0,0,1,.48.51,1.78,1.78,0,0,1,0,1.52A1.27,1.27,0,0,1,802.09,69.45Z"/><rect class="cls-1" x="888.98" y="47.37" width="1.1" height="7.2"/><rect class="cls-1" x="893.31" y="51.5" width="3.39" height="1.04"/><path class="cls-1" d="M869,50.77a1,1,0,0,1,.51-.1,1.38,1.38,0,0,1,.62.13,1.36,1.36,0,0,1,.48.39l.7-.7a1.77,1.77,0,0,0-.75-.61,2.59,2.59,0,0,0-2,0,1.46,1.46,0,0,0-.61.51,1.43,1.43,0,0,0-.21.79,1.23,1.23,0,0,0,.18.7,1.35,1.35,0,0,0,.46.43,3.13,3.13,0,0,0,.6.24l.6.18a1.58,1.58,0,0,1,.47.2.38.38,0,0,1,.18.34.35.35,0,0,1-.19.32,1.18,1.18,0,0,1-.56.11,2,2,0,0,1-.74-.14,1.82,1.82,0,0,1-.57-.44l-.7.7a2.27,2.27,0,0,0,.54.48,2.6,2.6,0,0,0,.68.3,3.25,3.25,0,0,0,.77.1,2,2,0,0,0,1.33-.41,1.37,1.37,0,0,0,.49-1.11,1.22,1.22,0,0,0-.65-1.15,2.27,2.27,0,0,0-.6-.26l-.6-.18a2.28,2.28,0,0,1-.46-.19.36.36,0,0,1-.18-.31A.31.31,0,0,1,869,50.77Z"/><path class="cls-1" d="M884.34,50.33a1.56,1.56,0,0,0-.5-.42,1.91,1.91,0,0,0-1-.24,2.11,2.11,0,0,0-1.18.34,2.4,2.4,0,0,0-.83.9,2.65,2.65,0,0,0-.3,1.27,2.67,2.67,0,0,0,.3,1.27,2.45,2.45,0,0,0,.83.89,2.19,2.19,0,0,0,1.18.33,2.08,2.08,0,0,0,1-.23,1.82,1.82,0,0,0,.49-.42v.55h1.1v-4.8h-1.1ZM884,53.22a1.27,1.27,0,0,1-1,.41,1.39,1.39,0,0,1-.71-.18,1.42,1.42,0,0,1-.48-.52,1.78,1.78,0,0,1,0-1.52,1.31,1.31,0,0,1,1.19-.7,1.28,1.28,0,0,1,.71.19,1.18,1.18,0,0,1,.48.51,1.67,1.67,0,0,1,.17.76A1.52,1.52,0,0,1,884,53.22Z"/><path class="cls-1" d="M878.81,49.89a2.08,2.08,0,0,0-1.88,0,1.84,1.84,0,0,0-.66.58,1.67,1.67,0,0,0-.62-.59,1.9,1.9,0,0,0-.92-.22,1.87,1.87,0,0,0-.92.23,1.56,1.56,0,0,0-.46.38v-.51h-1.1v4.8h1.1V51.71a.93.93,0,0,1,.14-.54.89.89,0,0,1,.37-.35,1.19,1.19,0,0,1,.54-.12,1.07,1.07,0,0,1,.74.27.92.92,0,0,1,.3.74v2.86h1.1V51.71a1,1,0,0,1,.52-.89,1.15,1.15,0,0,1,.53-.12,1.07,1.07,0,0,1,.74.27.92.92,0,0,1,.3.74v2.86h1.1v-3.1a1.8,1.8,0,0,0-.25-1A1.74,1.74,0,0,0,878.81,49.89Z"/><rect class="cls-1" x="886.66" y="47.37" width="1.1" height="7.2"/><path class="cls-1" d="M810.29,68.51a1.16,1.16,0,0,1-.26.82.91.91,0,0,1-.73.28,1.08,1.08,0,0,1-.54-.13.94.94,0,0,1-.34-.37,1.57,1.57,0,0,1-.11-.6V65.77h-1.1v2.79a2.32,2.32,0,0,0,.26,1.1,2,2,0,0,0,.74.74,2.37,2.37,0,0,0,2.18,0,1.86,1.86,0,0,0,.73-.74,2.23,2.23,0,0,0,.27-1.11V65.77h-1.1Z"/><path class="cls-1" d="M805.32,50.33a1.67,1.67,0,0,0-.5-.42,1.94,1.94,0,0,0-1-.24,2.09,2.09,0,0,0-1.18.34,2.32,2.32,0,0,0-.83.9,2.65,2.65,0,0,0-.3,1.27,2.67,2.67,0,0,0,.3,1.27,2.37,2.37,0,0,0,.83.89,2.16,2.16,0,0,0,1.18.33,2.11,2.11,0,0,0,1-.23,2,2,0,0,0,.49-.42v.55h1.1v-7.2h-1.1Zm-.58,3.12a1.49,1.49,0,0,1-1.42,0,1.42,1.42,0,0,1-.48-.52,1.78,1.78,0,0,1,0-1.52,1.31,1.31,0,0,1,.48-.51,1.42,1.42,0,0,1,1.42,0,1.31,1.31,0,0,1,.48.51,1.78,1.78,0,0,1,0,1.52A1.42,1.42,0,0,1,804.74,53.45Z"/><path class="cls-1" d="M819.06,65.89a2,2,0,0,0-.94-.22,2,2,0,0,0-.94.23,1.81,1.81,0,0,0-.65.58,1.62,1.62,0,0,0-.63-.59,2,2,0,0,0-1.84,0,1.7,1.7,0,0,0-.46.38v-.51h-1.1v4.8h1.1V67.71a1,1,0,0,1,.14-.54,1,1,0,0,1,.37-.35,1.19,1.19,0,0,1,.54-.12,1.07,1.07,0,0,1,.74.27.92.92,0,0,1,.3.74v2.86h1.1V67.71a1,1,0,0,1,.14-.54.92.92,0,0,1,.38-.35,1.18,1.18,0,0,1,.53-.12,1.07,1.07,0,0,1,.74.27.92.92,0,0,1,.3.74v2.86H820v-3.1a1.76,1.76,0,0,0-.25-1A1.74,1.74,0,0,0,819.06,65.89Z"/><path class="cls-1" d="M823.67,53.45a2.57,2.57,0,0,0,.31-1.27,2.54,2.54,0,0,0-.31-1.27,2.32,2.32,0,0,0-.83-.9,2.08,2.08,0,0,0-1.17-.34,2,2,0,0,0-1,.24,1.56,1.56,0,0,0-.5.42v-3h-1.1v7.2h1.1V54a1.79,1.79,0,0,0,.49.42,2.08,2.08,0,0,0,1,.23,2.15,2.15,0,0,0,1.17-.33A2.37,2.37,0,0,0,823.67,53.45Zm-1.48,0a1.33,1.33,0,0,1-.7.18,1.41,1.41,0,0,1-.71-.18,1.34,1.34,0,0,1-.48-.52,1.78,1.78,0,0,1,0-1.52,1.24,1.24,0,0,1,.48-.51,1.33,1.33,0,0,1,.71-.19,1.25,1.25,0,0,1,.7.19,1.18,1.18,0,0,1,.48.51,1.69,1.69,0,0,1,0,1.52A1.27,1.27,0,0,1,822.19,53.45Z"/><rect class="cls-1" x="805" y="65.77" width="1.1" height="4.8"/><rect class="cls-1" x="834.67" y="47.37" width="1.1" height="7.2"/><path class="cls-1" d="M805.55,63.57a.63.63,0,0,0-.47.19.7.7,0,0,0,0,.94.63.63,0,0,0,.47.19.61.61,0,0,0,.47-.19.7.7,0,0,0,0-.94A.61.61,0,0,0,805.55,63.57Z"/><polygon class="cls-1" points="826.6 54.57 826.6 50.77 827.75 50.77 827.75 49.77 826.6 49.77 826.6 47.77 825.5 47.77 825.5 49.77 824.35 49.77 824.35 50.77 825.5 50.77 825.5 54.57 826.6 54.57"/><path class="cls-1" d="M830.78,63.91a2.55,2.55,0,0,0-1.45-.44,2.52,2.52,0,0,0-1.44.44,3.08,3.08,0,0,0-1,1.25,4.44,4.44,0,0,0-.38,1.9,4.37,4.37,0,0,0,.39,1.91,3.18,3.18,0,0,0,1,1.26,2.58,2.58,0,0,0,1.45.44,2.49,2.49,0,0,0,1.43-.44,3,3,0,0,0,1-1.25,4.37,4.37,0,0,0,.39-1.91,4.31,4.31,0,0,0-.39-1.91A3,3,0,0,0,830.78,63.91Zm0,4.56a1.85,1.85,0,0,1-.59.84,1.44,1.44,0,0,1-.9.28,1.48,1.48,0,0,1-.9-.28,1.85,1.85,0,0,1-.59-.84,4,4,0,0,1-.21-1.41,4,4,0,0,1,.21-1.4,1.76,1.76,0,0,1,.59-.83,1.48,1.48,0,0,1,.9-.28,1.43,1.43,0,0,1,.89.28,1.71,1.71,0,0,1,.6.83,4.6,4.6,0,0,1,0,2.81Z"/><polygon class="cls-1" points="824.16 63.57 822.76 63.57 822.76 64.6 824.16 64.6 824.16 70.57 825.29 70.57 825.29 63.57 825.2 63.57 824.16 63.57"/><polygon class="cls-1" points="832.72 47.77 831.62 47.77 831.62 49.77 830.47 49.77 830.47 50.77 831.62 50.77 831.62 54.57 832.72 54.57 832.72 50.77 833.87 50.77 833.87 49.77 832.72 49.77 832.72 47.77"/><rect class="cls-1" x="828.55" y="49.77" width="1.1" height="4.8"/><path class="cls-1" d="M829.57,47.76a.6.6,0,0,0-.47-.19.63.63,0,0,0-.65.66.66.66,0,0,0,.18.47.64.64,0,0,0,.47.19.6.6,0,0,0,.47-.19.66.66,0,0,0,.18-.47A.64.64,0,0,0,829.57,47.76Z"/></g></g></svg>