<svg xmlns="http://www.w3.org/2000/svg" viewBox="0 0 134.4 134.1"><defs><style>.cls-1{opacity:0.31;}.cls-2,.cls-3{fill:#1d1d1b;}.cls-2{opacity:0.42;}</style></defs><g id="Capa_2" data-name="Capa 2"><g id="Capa_1-2" data-name="Capa 1"><g class="cls-1"><rect class="cls-2" width="64.67" height="64.67"/><rect class="cls-2" x="69.72" width="64.67" height="64.67"/><rect class="cls-2" y="69.43" width="64.67" height="64.67"/><rect class="cls-2" x="69.72" y="69.43" width="64.67" height="64.67"/></g><path class="cls-3" d="M58.5,106.43v-11A21.37,21.37,0,0,1,37.21,74.09c0-.1,0-.21,0-.31h-11c0,.1,0,.21,0,.31A32.34,32.34,0,0,0,58.5,106.43Z"/><path class="cls-3" d="M25.54,60h11A21.35,21.35,0,0,1,57.87,38.67l.32,0v-11h-.32A32.33,32.33,0,0,0,25.54,60Z"/><path class="cls-3" d="M75.9,106.43v-11A21.37,21.37,0,0,0,97.19,74.09c0-.1,0-.21,0-.31h11c0,.1,0,.21,0,.31A32.34,32.34,0,0,1,75.9,106.43Z"/><path class="cls-3" d="M108.86,60h-11A21.37,21.37,0,0,0,76.52,38.67l-.31,0v-11h.31A32.34,32.34,0,0,1,108.86,60Z"/></g></g></svg>