<svg xmlns="http://www.w3.org/2000/svg" viewBox="0 0 471.64 476.84"><defs><style>.cls-1{fill:#042127;}.cls-2{fill:#afe7a0;}</style></defs><g id="Capa_2" data-name="Capa 2"><g id="Capa_1-2" data-name="Capa 1"><path class="cls-1" d="M8.84,29V1.2h6.28V29ZM0,6.28V.8H24V6.28Zm31.86,23.2a12.14,12.14,0,0,1-5.64-1.28,9.82,9.82,0,0,1-3.84-3.64A10,10,0,0,1,21,19.32a9.91,9.91,0,0,1,1.36-5.2,10,10,0,0,1,3.76-3.64,10.71,10.71,0,0,1,5.32-1.32A10.14,10.14,0,0,1,36.5,10.4a8.89,8.89,0,0,1,3.44,3.44,9.89,9.89,0,0,1,1.28,5A9.07,9.07,0,0,1,41.14,20a10.16,10.16,0,0,1-.2,1.32l-16.76,0v-4.2l14.16,0L35.7,18.88a7.33,7.33,0,0,0-.52-2.76,3.42,3.42,0,0,0-1.44-1.68,4.07,4.07,0,0,0-2.28-.6,4.66,4.66,0,0,0-2.52.68,4.46,4.46,0,0,0-1.64,1.84,6.91,6.91,0,0,0-.56,2.92,6.74,6.74,0,0,0,.6,3,4.76,4.76,0,0,0,1.76,1.88,5.5,5.5,0,0,0,2.72.64,6.73,6.73,0,0,0,2.6-.48,6,6,0,0,0,2-1.52l3.36,3.36a9.07,9.07,0,0,1-3.48,2.52A11.64,11.64,0,0,1,31.86,29.48ZM55.7,29,51,21.48l-1.32-.84-7.64-11h7.16l4.36,7.08,1.28.8L62.78,29Zm-14,0,8-11.32,3.48,3.92L48.38,29ZM54.82,20.6l-3.48-3.92,4.4-7.08h6.64ZM67.36,29V1.56h6.12V29ZM63,14.8V9.6H77.88v5.2ZM93.56,29V24.16h6.64a3.83,3.83,0,0,0,2.88-1.08,3.68,3.68,0,0,0,1-2.64,3.8,3.8,0,0,0-.48-1.92,3.46,3.46,0,0,0-1.36-1.32,4.16,4.16,0,0,0-2.08-.48H93.56V12h6.12a3.92,3.92,0,0,0,2.52-.76,2.94,2.94,0,0,0,1-2.4,2.78,2.78,0,0,0-1-2.32,3.82,3.82,0,0,0-2.52-.8H93.56V.8h7.32a9.68,9.68,0,0,1,4.6,1,7,7,0,0,1,3.92,6.4,6.22,6.22,0,0,1-1.68,4.4,9.11,9.11,0,0,1-5,2.48l.16-2.12a9.65,9.65,0,0,1,5.48,2.76,7.21,7.21,0,0,1,2,5.12A7.73,7.73,0,0,1,105.92,28,11.19,11.19,0,0,1,100.8,29Zm-4.8,0V.8H95V29Zm34.42.44a11.26,11.26,0,0,1-5.44-1.32,10.25,10.25,0,0,1-3.8-3.68,9.91,9.91,0,0,1-1.4-5.2,9.69,9.69,0,0,1,1.4-5.16,10,10,0,0,1,3.8-3.6,10.8,10.8,0,0,1,5.44-1.36,11.09,11.09,0,0,1,5.44,1.32,9.92,9.92,0,0,1,3.8,3.64,9.69,9.69,0,0,1,1.4,5.16,9.91,9.91,0,0,1-1.4,5.2,10.25,10.25,0,0,1-3.8,3.68A11.09,11.09,0,0,1,123.18,29.48Zm0-5.56a4.71,4.71,0,0,0,2.32-.56A3.94,3.94,0,0,0,127,21.72a5.25,5.25,0,0,0,.56-2.44,4.79,4.79,0,0,0-.56-2.36,3.88,3.88,0,0,0-1.56-1.6,4.21,4.21,0,0,0-2.28-.6,4.36,4.36,0,0,0-2.28.6,3.88,3.88,0,0,0-1.56,1.6,5,5,0,0,0-.56,2.4,5.18,5.18,0,0,0,.56,2.4,4.17,4.17,0,0,0,1.56,1.64A4.64,4.64,0,0,0,123.18,23.92ZM136.87,29V0H143V29Zm18.71.4a9.24,9.24,0,0,1-4.92-1.32,9.4,9.4,0,0,1-3.36-3.6,11,11,0,0,1-1.2-5.2,11,11,0,0,1,1.2-5.2,9.4,9.4,0,0,1,3.36-3.6,9.24,9.24,0,0,1,4.92-1.32,8.26,8.26,0,0,1,3.6.76,7.11,7.11,0,0,1,2.68,2.12,5.26,5.26,0,0,1,1.2,3v8.2a5.82,5.82,0,0,1-1.16,3.12,7.83,7.83,0,0,1-2.68,2.2A8.27,8.27,0,0,1,155.58,29.44Zm1.08-5.52a4.48,4.48,0,0,0,2.28-.56,4.37,4.37,0,0,0,1.52-1.64,5,5,0,0,0,.56-2.4,4.79,4.79,0,0,0-.56-2.36,4,4,0,0,0-1.52-1.64,4.15,4.15,0,0,0-2.24-.6,4.31,4.31,0,0,0-2.28.6A4.64,4.64,0,0,0,152.86,17a4.81,4.81,0,0,0-.56,2.36,4.81,4.81,0,0,0,.56,2.36,4.17,4.17,0,0,0,1.56,1.64A4.24,4.24,0,0,0,156.66,23.92ZM166.78,29h-6V23.8l.92-4.72-1-4.72V0h6.12Zm10.6-9.8L186.66.8h6.84L184,19.24Zm0,3.52V19.24l2.08-1.8H200v5.32ZM190.7,29V11.56h6.16V29Zm23.58.44a10.83,10.83,0,0,1-6.16-1.84,12.69,12.69,0,0,1-4.36-5.12,17.76,17.76,0,0,1-1.56-7.64,17.33,17.33,0,0,1,1.56-7.6A12.14,12.14,0,0,1,208,2.2a11.3,11.3,0,0,1,12.36,0,12.21,12.21,0,0,1,4.28,5.08,17.32,17.32,0,0,1,1.6,7.64,17.32,17.32,0,0,1-1.6,7.64,12.52,12.52,0,0,1-4.28,5.12A10.74,10.74,0,0,1,214.28,29.48Zm0-5.56a4.77,4.77,0,0,0,3-1,6.49,6.49,0,0,0,2-3,15,15,0,0,0,.72-5,14.77,14.77,0,0,0-.72-5,6.25,6.25,0,0,0-2-3,4.74,4.74,0,0,0-3.08-1,4.87,4.87,0,0,0-3,1,6.18,6.18,0,0,0-2,3,15.39,15.39,0,0,0-.68,5,15.39,15.39,0,0,0,.68,5,6.41,6.41,0,0,0,2,3A4.86,4.86,0,0,0,214.24,23.92Zm26.68,5.52a8.39,8.39,0,0,1-3.6-.76,7.23,7.23,0,0,1-2.68-2.08,5.92,5.92,0,0,1-1.2-3.08v-8.2a6.12,6.12,0,0,1,1.2-3.12,7.22,7.22,0,0,1,2.68-2.2,8.12,8.12,0,0,1,3.6-.8,9.1,9.1,0,0,1,8.24,4.92,10.66,10.66,0,0,1,1.24,5.2,10.66,10.66,0,0,1-1.24,5.2,9.1,9.1,0,0,1-8.24,4.92Zm-1.12-5.52a4.21,4.21,0,0,0,2.28-.6,4.17,4.17,0,0,0,1.56-1.64,4.93,4.93,0,0,0,.56-2.36,5,5,0,0,0-.56-2.4,3.88,3.88,0,0,0-1.56-1.6,4.15,4.15,0,0,0-2.24-.6,4.36,4.36,0,0,0-2.28.6,4,4,0,0,0-1.52,1.6,5,5,0,0,0-.56,2.4,5.15,5.15,0,0,0,.52,2.36,4.17,4.17,0,0,0,1.56,1.64A4.27,4.27,0,0,0,239.8,23.92ZM229.72,37.24V9.6h6.12v5l-1,4.72.92,4.72v13.2ZM265,29l-4.68-7.56L259,20.64l-7.64-11h7.16l4.36,7.08,1.28.8L272.12,29Zm-14,0,8-11.32,3.48,3.92L257.72,29Zm13.12-8.44-3.48-3.92,4.4-7.08h6.64Zm17.9.92V16.16h14.16v5.36Zm19,7.52V.8h4.48L316.7,18.12h-2.28L325.5.8H330V29h-6.28V11.4l1.12.28L317.62,23h-4.16l-7.2-11.28,1.08-.28V29Zm43.14.44a11.23,11.23,0,0,1-5.44-1.32,10.25,10.25,0,0,1-3.8-3.68,9.82,9.82,0,0,1-1.4-5.2,9.6,9.6,0,0,1,1.4-5.16,10,10,0,0,1,3.8-3.6,10.8,10.8,0,0,1,5.44-1.36,11.12,11.12,0,0,1,5.44,1.32,10,10,0,0,1,3.8,3.64,9.69,9.69,0,0,1,1.4,5.16,9.91,9.91,0,0,1-1.4,5.2,10.32,10.32,0,0,1-3.8,3.68A11.12,11.12,0,0,1,344.24,29.48Zm0-5.56a4.71,4.71,0,0,0,2.32-.56,4,4,0,0,0,1.52-1.64,5.25,5.25,0,0,0,.56-2.44,4.79,4.79,0,0,0-.56-2.36,4,4,0,0,0-1.56-1.6,4.21,4.21,0,0,0-2.28-.6,4.31,4.31,0,0,0-2.28.6,3.88,3.88,0,0,0-1.56,1.6,4.89,4.89,0,0,0-.56,2.4,5.06,5.06,0,0,0,.56,2.4A4.17,4.17,0,0,0,342,23.36,4.59,4.59,0,0,0,344.24,23.92Zm24.88,5.52a8.19,8.19,0,0,1-3.6-.8,7.83,7.83,0,0,1-2.68-2.2,6.12,6.12,0,0,1-1.2-3.12v-8.2a5.69,5.69,0,0,1,1.2-3A7.11,7.11,0,0,1,365.52,10a8.45,8.45,0,0,1,3.6-.76,9.1,9.1,0,0,1,8.24,4.92,10.66,10.66,0,0,1,1.24,5.2,10.66,10.66,0,0,1-1.24,5.2,9.1,9.1,0,0,1-8.24,4.92ZM368,23.92a4.12,4.12,0,0,0,2.24-.6,4.17,4.17,0,0,0,1.56-1.64,4.81,4.81,0,0,0,.56-2.36,4.89,4.89,0,0,0-.56-2.4,3.88,3.88,0,0,0-1.56-1.6,4.12,4.12,0,0,0-2.24-.6,4.36,4.36,0,0,0-2.28.6,4,4,0,0,0-1.56,1.6,5.37,5.37,0,0,0-.52,2.4,5,5,0,0,0,.56,2.4,4.37,4.37,0,0,0,1.52,1.64A4.64,4.64,0,0,0,368,23.92ZM357.92,29V0H364V14.36l-1,4.72L364,23.8V29Zm23.79,0V9.6h6.12V29Zm3.08-22.12a3.26,3.26,0,0,1-2.4-1,3.45,3.45,0,0,1-.92-2.4,3.35,3.35,0,0,1,.92-2.4,3.26,3.26,0,0,1,2.4-1,3.12,3.12,0,0,1,2.36,1,3.3,3.3,0,0,1,.92,2.4,3.4,3.4,0,0,1-.92,2.4A3.12,3.12,0,0,1,384.79,6.92ZM392.14,29V0h6.12V29Zm20,.44a12.14,12.14,0,0,1-5.64-1.28,9.82,9.82,0,0,1-3.84-3.64,10,10,0,0,1-1.4-5.24,9.91,9.91,0,0,1,1.36-5.2,10,10,0,0,1,3.76-3.64,10.71,10.71,0,0,1,5.32-1.32,10.14,10.14,0,0,1,5.08,1.24,8.89,8.89,0,0,1,3.44,3.44,9.89,9.89,0,0,1,1.28,5,9.07,9.07,0,0,1-.08,1.12,10.16,10.16,0,0,1-.2,1.32l-16.76,0v-4.2l14.16,0L416,18.88a7.33,7.33,0,0,0-.52-2.76,3.42,3.42,0,0,0-1.44-1.68,4.07,4.07,0,0,0-2.28-.6,4.66,4.66,0,0,0-2.52.68,4.46,4.46,0,0,0-1.64,1.84,6.91,6.91,0,0,0-.56,2.92,6.74,6.74,0,0,0,.6,3,4.76,4.76,0,0,0,1.76,1.88,5.5,5.5,0,0,0,2.72.64,6.73,6.73,0,0,0,2.6-.48,6,6,0,0,0,2-1.52l3.36,3.36a9.07,9.07,0,0,1-3.48,2.52A11.64,11.64,0,0,1,412.17,29.48ZM432.66,29V.8h6.28V29Zm17.48,0V.8h6.32V29Zm-13.72-11.8V11.8h15.8v5.44Zm29,11.8V.8h6.24V29ZM460,6.12V.8h11.28V6.12Z"/><path class="cls-1" d="M7.07,136.27V114h5v22.27ZM0,118.06v-4.38H19.17v4.38Zm25.49,18.56a9.77,9.77,0,0,1-4.52-1,8.08,8.08,0,0,1-.09-14.18,8.62,8.62,0,0,1,4.25-1.06,8.05,8.05,0,0,1,4.07,1A7.06,7.06,0,0,1,32,124.11a7.86,7.86,0,0,1,1,4,7.28,7.28,0,0,1-.06.9,7.1,7.1,0,0,1-.16,1.05l-13.41,0v-3.36l11.33,0-2.11,1.41a5.72,5.72,0,0,0-.42-2.21A2.72,2.72,0,0,0,27,124.59a3.27,3.27,0,0,0-1.82-.48,3.74,3.74,0,0,0-2,.54,3.55,3.55,0,0,0-1.31,1.47,5.49,5.49,0,0,0-.45,2.34,5.39,5.39,0,0,0,.48,2.37,3.78,3.78,0,0,0,1.41,1.5,4.43,4.43,0,0,0,2.17.51,5.28,5.28,0,0,0,2.08-.38,4.73,4.73,0,0,0,1.64-1.22l2.68,2.69a7.16,7.16,0,0,1-2.78,2A9.28,9.28,0,0,1,25.49,136.62Zm19.07-.35-3.74-6.05-1.06-.67-6.11-8.83h5.73l3.49,5.66,1,.64,6.34,9.25Zm-11.2,0,6.37-9.06,2.79,3.14-3.81,5.92Zm10.5-6.75-2.78-3.14,3.52-5.66h5.31Zm10,6.75v-22h4.9v22Zm-3.52-11.39v-4.16H62.31v4.16Zm24.47,11.39v-3.91h5.32a3,3,0,0,0,2.3-.86,2.91,2.91,0,0,0,.83-2.11,3.11,3.11,0,0,0-.38-1.54,2.69,2.69,0,0,0-1.09-1,3.26,3.26,0,0,0-1.66-.39H74.84V122.6h4.9a3.21,3.21,0,0,0,2-.6,2.37,2.37,0,0,0,.76-1.92,2.22,2.22,0,0,0-.76-1.86,3.06,3.06,0,0,0-2-.64h-4.9v-3.9H80.7a7.67,7.67,0,0,1,3.68.8,5.58,5.58,0,0,1,3.14,5.12,5,5,0,0,1-1.35,3.52,7.25,7.25,0,0,1-4,2l.13-1.7a7.82,7.82,0,0,1,4.39,2.21,5.78,5.78,0,0,1,1.56,4.1,6.13,6.13,0,0,1-3.55,5.69,8.86,8.86,0,0,1-4.09.87Zm-3.84,0V113.68h5v22.59Zm27.54.35a8.92,8.92,0,0,1-4.35-1.06,8.17,8.17,0,0,1-3-2.94A8,8,0,0,1,90,128.46a7.8,7.8,0,0,1,1.12-4.13,8.17,8.17,0,0,1,3-2.88,8.72,8.72,0,0,1,4.35-1.09,8.93,8.93,0,0,1,4.36,1.06,7.94,7.94,0,0,1,3,2.91,7.8,7.8,0,0,1,1.12,4.13,8,8,0,0,1-1.12,4.16,8.17,8.17,0,0,1-3,2.94A8.82,8.82,0,0,1,98.54,136.62Zm0-4.45a3.71,3.71,0,0,0,1.86-.45,3.15,3.15,0,0,0,1.22-1.31,4.15,4.15,0,0,0,.45-1.95,3.78,3.78,0,0,0-.45-1.89,3.21,3.21,0,0,0-1.25-1.28,3.37,3.37,0,0,0-1.83-.48,3.46,3.46,0,0,0-1.82.48,3.21,3.21,0,0,0-1.25,1.28,4,4,0,0,0-.45,1.92,4.06,4.06,0,0,0,.45,1.92,3.35,3.35,0,0,0,1.25,1.31A3.64,3.64,0,0,0,98.54,132.17Zm10.95,4.1V113h4.9v23.23Zm15,.32a7.32,7.32,0,0,1-3.93-1.06,7.54,7.54,0,0,1-2.69-2.88,9.49,9.49,0,0,1,0-8.32,7.69,7.69,0,0,1,2.69-2.88,7.41,7.41,0,0,1,3.93-1,6.68,6.68,0,0,1,2.88.6,5.65,5.65,0,0,1,2.15,1.7,4.27,4.27,0,0,1,1,2.43v6.56a4.75,4.75,0,0,1-.93,2.5,6.33,6.33,0,0,1-2.15,1.76A6.61,6.61,0,0,1,124.46,136.59Zm.87-4.42a3.53,3.53,0,0,0,1.82-.45,3.43,3.43,0,0,0,1.22-1.31,4.06,4.06,0,0,0,.44-1.92,3.94,3.94,0,0,0-.44-1.89,3.21,3.21,0,0,0-1.22-1.31,3.3,3.3,0,0,0-1.79-.48,3.52,3.52,0,0,0-1.83.48,3.72,3.72,0,0,0-1.24,1.31,4.19,4.19,0,0,0,0,3.78,3.33,3.33,0,0,0,1.24,1.31A3.46,3.46,0,0,0,125.33,132.17Zm8.09,4.1h-4.8v-4.19l.74-3.78-.83-3.78V113h4.89Zm15.91.35a11.26,11.26,0,0,1-4.29-.8,8.94,8.94,0,0,1-3.29-2.37l3.23-3.23a4.38,4.38,0,0,0,1.76,1.47,6,6,0,0,0,2.49.55,4.63,4.63,0,0,0,2.05-.42,3.18,3.18,0,0,0,1.35-1.18,3.25,3.25,0,0,0,.51-1.83,3.12,3.12,0,0,0-1.95-3,5.43,5.43,0,0,0-2.24-.42,8.25,8.25,0,0,0-1.28.1,4.36,4.36,0,0,0-1.09.22l2.21-2.78c.59-.18,1.16-.31,1.69-.42a6.81,6.81,0,0,1,1.54-.19,5.8,5.8,0,0,1,3.1.83,5.63,5.63,0,0,1,2.18,2.3A7.73,7.73,0,0,1,157,133a7.27,7.27,0,0,1-3.07,2.69A10.34,10.34,0,0,1,149.33,136.62Zm-2.75-10.88V123l5.5-6.47,5.63,0L152,123Zm-3.43-7.81v-4.25h14.56v2.78l-3.93,1.47Zm16.73,15.52,8.67-9a11.92,11.92,0,0,0,1.28-1.47,5.74,5.74,0,0,0,.7-1.25,3.46,3.46,0,0,0,.23-1.21,2.53,2.53,0,0,0-.87-2,3.12,3.12,0,0,0-2.2-.77,4.2,4.2,0,0,0-2.44.74,7.18,7.18,0,0,0-2,2.33l-3.36-2.91a8.91,8.91,0,0,1,3.42-3.42,9.68,9.68,0,0,1,4.77-1.16,8.71,8.71,0,0,1,4,.87,6.16,6.16,0,0,1,2.66,2.46,7.17,7.17,0,0,1,1,3.75,8.33,8.33,0,0,1-.36,2.49,8,8,0,0,1-1.15,2.24,17.81,17.81,0,0,1-2.08,2.4l-6,6Zm0,2.82v-2.82l4.25-1.47h12v4.29Zm28,.32A6.85,6.85,0,0,1,185,136a5.83,5.83,0,0,1-2.14-1.66,4.63,4.63,0,0,1-1-2.47v-6.56a4.73,4.73,0,0,1,1-2.49A5.67,5.67,0,0,1,185,121a6.44,6.44,0,0,1,2.88-.64,7.26,7.26,0,0,1,6.59,3.93,9.15,9.15,0,0,1,0,8.32,7.3,7.3,0,0,1-6.59,3.94Zm-.9-4.42a3.37,3.37,0,0,0,1.83-.48,3.42,3.42,0,0,0,1.25-1.31,3.91,3.91,0,0,0,.44-1.89,4,4,0,0,0-.44-1.92,3.21,3.21,0,0,0-1.25-1.28,3.3,3.3,0,0,0-1.79-.48,3.5,3.5,0,0,0-1.83.48,3.25,3.25,0,0,0-1.21,1.28,4,4,0,0,0-.45,1.92,4.14,4.14,0,0,0,.42,1.89,3.33,3.33,0,0,0,1.24,1.31A3.43,3.43,0,0,0,187,132.17Zm-8.06,10.66V120.72h4.9v4l-.8,3.77.73,3.78v10.56Zm28.26-6.56-3.75-6.05-1-.67-6.11-8.83H202l3.49,5.66,1,.64,6.33,9.25Zm-11.2,0,6.37-9.06,2.78,3.14-3.81,5.92Zm10.49-6.75-2.78-3.14,3.52-5.66h5.31Zm14.33.73V126H232.1v4.29Zm15.23,6V113.68h3.58l8.89,13.85h-1.82l8.87-13.85h3.61v22.59h-5V122.16l.89.22-5.79,9h-3.33l-5.76-9,.87-.22v14.11Zm34.5.35a8.92,8.92,0,0,1-4.35-1.06,8.17,8.17,0,0,1-3-2.94,8,8,0,0,1-1.12-4.16,7.8,7.8,0,0,1,1.12-4.13,8.17,8.17,0,0,1,3-2.88,8.72,8.72,0,0,1,4.35-1.09,9,9,0,0,1,4.36,1.06,7.94,7.94,0,0,1,3,2.91,7.8,7.8,0,0,1,1.12,4.13,8,8,0,0,1-1.12,4.16,8.17,8.17,0,0,1-3,2.94A8.85,8.85,0,0,1,270.51,136.62Zm0-4.45a3.71,3.71,0,0,0,1.86-.45,3.15,3.15,0,0,0,1.22-1.31,4.27,4.27,0,0,0,.44-1.95,3.88,3.88,0,0,0-.44-1.89,3.21,3.21,0,0,0-1.25-1.28,3.37,3.37,0,0,0-1.83-.48,3.46,3.46,0,0,0-1.82.48,3.21,3.21,0,0,0-1.25,1.28,4,4,0,0,0-.45,1.92,4.06,4.06,0,0,0,.45,1.92,3.35,3.35,0,0,0,1.25,1.31A3.64,3.64,0,0,0,270.51,132.17Zm19.91,4.42a6.61,6.61,0,0,1-2.88-.64,6.29,6.29,0,0,1-2.14-1.76,4.79,4.79,0,0,1-1-2.5v-6.56a4.41,4.41,0,0,1,1-2.43,5.62,5.62,0,0,1,2.14-1.7,6.88,6.88,0,0,1,2.88-.6,7.23,7.23,0,0,1,6.59,3.93,9.15,9.15,0,0,1,0,8.32,7.27,7.27,0,0,1-6.59,3.94Zm-.86-4.42a3.3,3.3,0,0,0,1.79-.48,3.42,3.42,0,0,0,1.25-1.31,3.91,3.91,0,0,0,.45-1.89,4,4,0,0,0-.45-1.92,3.21,3.21,0,0,0-1.25-1.28,3.3,3.3,0,0,0-1.79-.48,3.52,3.52,0,0,0-1.83.48,3.18,3.18,0,0,0-1.24,1.28,4.24,4.24,0,0,0-.42,1.92,4,4,0,0,0,.45,1.92,3.4,3.4,0,0,0,1.21,1.31A3.7,3.7,0,0,0,289.56,132.17Zm-8.1,4.1V113h4.9v11.48l-.8,3.78.73,3.78v4.19Zm19,0V120.72h4.9v15.55Zm2.47-17.7a2.57,2.57,0,0,1-1.92-.77,2.73,2.73,0,0,1-.74-1.92A2.7,2.7,0,0,1,301,114a2.6,2.6,0,0,1,1.92-.76,2.5,2.5,0,0,1,1.89.76,2.69,2.69,0,0,1,.73,1.92,2.72,2.72,0,0,1-.73,1.92A2.47,2.47,0,0,1,303,118.57Zm5.88,17.7V113h4.89v23.23Zm16,.35a9.73,9.73,0,0,1-4.51-1,8.09,8.09,0,0,1-.1-14.18,8.63,8.63,0,0,1,4.26-1.06,8,8,0,0,1,4.06,1,7.08,7.08,0,0,1,2.76,2.75,7.86,7.86,0,0,1,1,4,7.28,7.28,0,0,1-.06.9c0,.29-.08.65-.16,1.05l-13.41,0v-3.36l11.33,0-2.12,1.41a5.92,5.92,0,0,0-.41-2.21,2.77,2.77,0,0,0-1.15-1.34,3.28,3.28,0,0,0-1.83-.48,3.68,3.68,0,0,0-2,.54,3.5,3.5,0,0,0-1.32,1.47,5.49,5.49,0,0,0-.44,2.34,5.39,5.39,0,0,0,.48,2.37,3.82,3.82,0,0,0,1.4,1.5,4.47,4.47,0,0,0,2.18.51,5.32,5.32,0,0,0,2.08-.38,4.69,4.69,0,0,0,1.63-1.22l2.69,2.69a7.31,7.31,0,0,1-2.78,2A9.33,9.33,0,0,1,324.86,136.62Zm16.39-.35V113.68h5v22.59Zm14,0V113.68h5.05v22.59Zm-11-9.44v-4.35H356.9v4.35Zm19,6.62,8.67-9a11.12,11.12,0,0,0,1.28-1.47,5.82,5.82,0,0,0,.71-1.25,3.44,3.44,0,0,0,.22-1.21,2.56,2.56,0,0,0-.86-2,3.15,3.15,0,0,0-2.21-.77,4.15,4.15,0,0,0-2.43.74,7.08,7.08,0,0,0-2.05,2.33l-3.36-2.91a9,9,0,0,1,3.42-3.42,9.68,9.68,0,0,1,4.77-1.16,8.71,8.71,0,0,1,4,.87,6.1,6.1,0,0,1,2.66,2.46,7.17,7.17,0,0,1,1,3.75,8.66,8.66,0,0,1-.35,2.49,8.23,8.23,0,0,1-1.15,2.24,19.37,19.37,0,0,1-2.08,2.4l-6,6Zm0,2.82v-2.82l4.26-1.47h12v4.29Z"/><path class="cls-1" d="M6.19,239V219.46h4.39V239ZM0,223v-3.84H16.77V223Zm22.3,16.24a8.48,8.48,0,0,1-3.95-.9,6.92,6.92,0,0,1-2.69-2.54,7,7,0,0,1-1-3.67,6.89,6.89,0,0,1,1-3.64A7,7,0,0,1,18.27,226,7.44,7.44,0,0,1,22,225a7.11,7.11,0,0,1,3.56.86A6.2,6.2,0,0,1,28,228.31a7,7,0,0,1,.89,3.53,7.43,7.43,0,0,1-.05.78,8.48,8.48,0,0,1-.14.93l-11.74,0v-2.94l9.92,0L25,231.84a5,5,0,0,0-.37-1.93,2.39,2.39,0,0,0-1-1.18,2.87,2.87,0,0,0-1.6-.42,3.2,3.2,0,0,0-1.76.48,3.08,3.08,0,0,0-1.15,1.29,4.82,4.82,0,0,0-.39,2,4.72,4.72,0,0,0,.42,2.07,3.4,3.4,0,0,0,1.23,1.32,3.84,3.84,0,0,0,1.9.45,4.8,4.8,0,0,0,1.82-.34,4.2,4.2,0,0,0,1.43-1.06l2.35,2.35a6.34,6.34,0,0,1-2.43,1.76A8.24,8.24,0,0,1,22.3,239.26ZM39,239l-3.27-5.29-.93-.59-5.34-7.73h5l3,5,.9.56L44,239Zm-9.8,0L34.77,231l2.43,2.74L33.87,239ZM38.38,233l-2.44-2.74,3.08-5h4.65ZM47.15,239V219.72h4.29V239Zm-3.08-10v-3.64H54.52V229Zm24,10.28a10.29,10.29,0,0,1-4.2-.78,10.15,10.15,0,0,1-3.2-2.44l2.86-2.83a7.32,7.32,0,0,0,2.1,1.71,6,6,0,0,0,2.72.59A3.82,3.82,0,0,0,70.5,235a1.58,1.58,0,0,0,.79-1.4,1.75,1.75,0,0,0-.51-1.31,4.09,4.09,0,0,0-1.34-.87,19.37,19.37,0,0,0-1.82-.7c-.66-.22-1.31-.48-2-.76a9.24,9.24,0,0,1-1.82-1.09,5.35,5.35,0,0,1-1.32-1.65,5.68,5.68,0,0,1-.5-2.52,5.58,5.58,0,0,1,.87-3.14,5.45,5.45,0,0,1,2.46-2,8.71,8.71,0,0,1,3.61-.7,9.65,9.65,0,0,1,3.78.72,7.85,7.85,0,0,1,2.86,2l-2.86,2.83a6.49,6.49,0,0,0-1.82-1.37,4.5,4.5,0,0,0-2-.45,3.22,3.22,0,0,0-1.82.45,1.36,1.36,0,0,0-.67,1.23,1.61,1.61,0,0,0,.5,1.23,4.71,4.71,0,0,0,1.32.79c.56.22,1.16.44,1.82.67a18.48,18.48,0,0,1,2,.78,7.55,7.55,0,0,1,1.8,1.15,4.89,4.89,0,0,1,1.34,1.74,5.77,5.77,0,0,1,.5,2.57,5.4,5.4,0,0,1-2,4.45A8.73,8.73,0,0,1,68.07,239.26Zm16.63,0a8.45,8.45,0,0,1-4-.9,6.92,6.92,0,0,1-2.69-2.54,7,7,0,0,1-1-3.67,6.89,6.89,0,0,1,1-3.64A7,7,0,0,1,80.67,226a7.44,7.44,0,0,1,3.72-.92,7.11,7.11,0,0,1,3.56.86,6.27,6.27,0,0,1,2.41,2.41,7,7,0,0,1,.89,3.53,7.43,7.43,0,0,1,0,.78,8.48,8.48,0,0,1-.14.93l-11.74,0v-2.94l9.92,0-1.85,1.23a5,5,0,0,0-.37-1.93,2.39,2.39,0,0,0-1-1.18,2.89,2.89,0,0,0-1.6-.42,3.2,3.2,0,0,0-1.76.48,3.08,3.08,0,0,0-1.15,1.29,4.82,4.82,0,0,0-.39,2,4.72,4.72,0,0,0,.42,2.07,3.26,3.26,0,0,0,1.23,1.32,3.84,3.84,0,0,0,1.9.45,4.8,4.8,0,0,0,1.82-.34,4.2,4.2,0,0,0,1.43-1.06l2.35,2.35a6.34,6.34,0,0,1-2.43,1.76A8.24,8.24,0,0,1,84.7,239.26Zm8.62-.31V225.34H97.6V239Zm8.71,0V231a2,2,0,0,0-.65-1.6,2.14,2.14,0,0,0-1.54-.58,2.3,2.3,0,0,0-1.15.28,2.08,2.08,0,0,0-.81.72A2.37,2.37,0,0,0,97.6,231L96,230.27a5.18,5.18,0,0,1,.7-2.77,4.68,4.68,0,0,1,1.9-1.79,5.69,5.69,0,0,1,2.72-.65,5,5,0,0,1,2.55.65,4.81,4.81,0,0,1,1.82,1.79,5.3,5.3,0,0,1,.67,2.74V239Zm8.7,0V231a2,2,0,0,0-.64-1.6,2.14,2.14,0,0,0-1.54-.58,2.3,2.3,0,0,0-1.15.28,2.08,2.08,0,0,0-.81.72,2.27,2.27,0,0,0-.28,1.18l-2.46-.34a5.8,5.8,0,0,1,.81-3,5.34,5.34,0,0,1,2-1.94,6,6,0,0,1,2.89-.7,5.57,5.57,0,0,1,2.77.68,4.58,4.58,0,0,1,1.93,1.87,5.47,5.47,0,0,1,.73,2.91V239Zm7,0V225.34h4.29V239Zm2.16-15.48a2.32,2.32,0,0,1-1.68-.67,2.4,2.4,0,0,1-.64-1.68,2.26,2.26,0,0,1,2.32-2.36,2.19,2.19,0,0,1,1.65.68,2.31,2.31,0,0,1,.65,1.68,2.41,2.41,0,0,1-.65,1.68A2.22,2.22,0,0,1,119.92,223.47Zm13,15.76a5.67,5.67,0,0,1-2.51-.56,5.29,5.29,0,0,1-1.88-1.54,4.16,4.16,0,0,1-.84-2.18v-5.74a3.88,3.88,0,0,1,.84-2.13,4.76,4.76,0,0,1,1.88-1.48,5.8,5.8,0,0,1,2.51-.54,6.38,6.38,0,0,1,5.77,3.45,8,8,0,0,1,0,7.28,6.35,6.35,0,0,1-5.77,3.44Zm-.75-3.86a2.9,2.9,0,0,0,1.57-.42,3,3,0,0,0,1.09-1.15,3.75,3.75,0,0,0,0-3.33,2.74,2.74,0,0,0-1.09-1.12,2.9,2.9,0,0,0-1.57-.42,3.06,3.06,0,0,0-1.6.42,2.74,2.74,0,0,0-1.09,1.12,3.71,3.71,0,0,0-.36,1.68,3.53,3.53,0,0,0,.39,1.68,3,3,0,0,0,1.06,1.15A3.24,3.24,0,0,0,132.15,235.37ZM125.07,239V218.62h4.28v10.06l-.7,3.3.64,3.3V239Zm23.2.31a8,8,0,0,1-3.81-.92,7.24,7.24,0,0,1-2.66-2.58,6.94,6.94,0,0,1-1-3.64,6.79,6.79,0,0,1,1-3.61,6.93,6.93,0,0,1,2.66-2.52,7.54,7.54,0,0,1,3.81-1,7.73,7.73,0,0,1,3.81.92,7,7,0,0,1,2.66,2.55,6.79,6.79,0,0,1,1,3.61,6.94,6.94,0,0,1-1,3.64,7.31,7.31,0,0,1-2.66,2.58A7.84,7.84,0,0,1,148.27,239.26Zm0-3.89a3.24,3.24,0,0,0,1.62-.39,2.82,2.82,0,0,0,1.07-1.15,3.71,3.71,0,0,0,.39-1.71,3.3,3.3,0,0,0-.39-1.65,2.74,2.74,0,0,0-1.09-1.12,3,3,0,0,0-1.6-.42,3.06,3.06,0,0,0-1.6.42,2.74,2.74,0,0,0-1.09,1.12,3.47,3.47,0,0,0-.39,1.68,3.64,3.64,0,0,0,.39,1.68,3,3,0,0,0,1.09,1.15A3.24,3.24,0,0,0,148.27,235.37Zm9.58,3.58V218.62h4.28V239Zm12.68.28a5.73,5.73,0,0,1-3.22-.92,6.55,6.55,0,0,1-2.19-2.55,8.23,8.23,0,0,1-.78-3.61,8.08,8.08,0,0,1,.78-3.59,6.19,6.19,0,0,1,2.19-2.54,5.53,5.53,0,0,1,3.22-1,5.26,5.26,0,0,1,2.8.7,4.51,4.51,0,0,1,1.71,1.88,6.4,6.4,0,0,1,.69,2.69V234a6.93,6.93,0,0,1-.67,2.69,4.6,4.6,0,0,1-1.71,1.87A5.17,5.17,0,0,1,170.53,239.23Zm1.09-4a2.74,2.74,0,0,0,2.16-.9,3.33,3.33,0,0,0,.81-2.32,3.59,3.59,0,0,0-.37-1.68,2.73,2.73,0,0,0-1-1.15,3.09,3.09,0,0,0-3.11,0,3.13,3.13,0,0,0-1,1.15,3.71,3.71,0,0,0-.36,1.68,3.77,3.77,0,0,0,.36,1.68,3.18,3.18,0,0,0,1,1.14A3,3,0,0,0,171.62,235.26Zm2.77,3.69v-3.67L175,232l-.65-3.3V218.62h4.23V239Zm11.74-2.46,7.59-7.84a10.63,10.63,0,0,0,1.12-1.29,5.68,5.68,0,0,0,.62-1.09,3.1,3.1,0,0,0,.19-1.07,2.24,2.24,0,0,0-.75-1.79,2.74,2.74,0,0,0-1.94-.67,3.68,3.68,0,0,0-2.12.64,6.43,6.43,0,0,0-1.8,2.05l-2.94-2.55a8.07,8.07,0,0,1,3-3,8.46,8.46,0,0,1,4.17-1,7.75,7.75,0,0,1,3.53.75,5.39,5.39,0,0,1,2.32,2.16,6.22,6.22,0,0,1,.84,3.27,7.63,7.63,0,0,1-.3,2.19,7.47,7.47,0,0,1-1,2,18,18,0,0,1-1.82,2.1l-5.27,5.23Zm0,2.46v-2.46l3.73-1.29h10.5V239Zm23,.31a8.49,8.49,0,0,1-3.72-.76,6.07,6.07,0,0,1-2.47-2.07,5.37,5.37,0,0,1-.86-3,5.68,5.68,0,0,1,.53-2.52,5.22,5.22,0,0,1,1.54-1.88,5.91,5.91,0,0,1,2.32-1l-.08.9a4.48,4.48,0,0,1-1.91-.92,4.79,4.79,0,0,1-1.2-1.68,5.19,5.19,0,0,1-.42-2.05,5,5,0,0,1,.78-2.77,5.56,5.56,0,0,1,2.24-1.93,7.28,7.28,0,0,1,3.25-.7,7.13,7.13,0,0,1,3.25.7,5.28,5.28,0,0,1,2.21,1.93,4.85,4.85,0,0,1,.81,2.77,5.19,5.19,0,0,1-.42,2.05,4.48,4.48,0,0,1-1.17,1.68,4.43,4.43,0,0,1-1.91.92l-.11-.9a5.76,5.76,0,0,1,2.33,1,5,5,0,0,1,1.54,1.88,5.83,5.83,0,0,1,.53,2.52,5.3,5.3,0,0,1-.87,3,5.85,5.85,0,0,1-2.46,2.07A8.45,8.45,0,0,1,209.13,239.26Zm0-3.75a3.12,3.12,0,0,0,1.49-.34,2.62,2.62,0,0,0,1-1,2.44,2.44,0,0,0,.4-1.37,2.35,2.35,0,0,0-.4-1.37,2.41,2.41,0,0,0-1-.95,2.92,2.92,0,0,0-1.49-.37,2.88,2.88,0,0,0-1.48.37,2.44,2.44,0,0,0-1,.95,2.57,2.57,0,0,0-.36,1.37,2.67,2.67,0,0,0,.36,1.37,2.64,2.64,0,0,0,1,1A3.08,3.08,0,0,0,209.13,235.51Zm0-8.57a2.16,2.16,0,0,0,2.24-2.21,2.19,2.19,0,0,0-2.24-2.24,2.21,2.21,0,0,0-1.59.61,2.12,2.12,0,0,0-.65,1.6,2.2,2.2,0,0,0,2.24,2.24Zm17.21,12.29a6,6,0,0,1-2.52-.53,5.08,5.08,0,0,1-1.88-1.46,4.17,4.17,0,0,1-.84-2.15v-5.74a4.37,4.37,0,0,1,.84-2.19,5.17,5.17,0,0,1,1.88-1.54,5.68,5.68,0,0,1,2.52-.56,6.38,6.38,0,0,1,5.77,3.45,8,8,0,0,1,0,7.28,6.48,6.48,0,0,1-2.35,2.52A6.39,6.39,0,0,1,226.34,239.23Zm-.76-3.86a3.07,3.07,0,0,0,1.57-.39,2.94,2.94,0,0,0,1.09-1.15,3.53,3.53,0,0,0,.4-1.68,3.48,3.48,0,0,0-.4-1.68,2.68,2.68,0,0,0-1.09-1.12,2.9,2.9,0,0,0-1.57-.42,3,3,0,0,0-1.59.42,2.75,2.75,0,0,0-1.07,1.12,3.47,3.47,0,0,0-.39,1.68,3.58,3.58,0,0,0,.37,1.65A3,3,0,0,0,224,235,3.1,3.1,0,0,0,225.58,235.37Zm-7.08,9.32V225.34h4.28v3.5l-.7,3.31.65,3.3v9.24ZM243.22,239,240,233.66l-.93-.59-5.34-7.73h5l3.05,5,.9.56,5.54,8.09Zm-9.8,0L239,231l2.43,2.74L238.1,239Zm9.19-5.91-2.44-2.74,3.08-5h4.65Zm12.53.65v-3.75h9.91v3.75ZM268.46,239V219.18h3.14l7.79,12.13h-1.6l7.76-12.13h3.16V239h-4.4V226.6l.79.2L280,234.7h-2.91l-5-7.9.75-.2V239Zm30.2.31a8,8,0,0,1-3.81-.92,7.31,7.31,0,0,1-2.66-2.58,6.94,6.94,0,0,1-1-3.64,6.79,6.79,0,0,1,1-3.61,7,7,0,0,1,2.66-2.52,7.54,7.54,0,0,1,3.81-1,7.73,7.73,0,0,1,3.81.92,6.94,6.94,0,0,1,2.66,2.55,6.79,6.79,0,0,1,1,3.61,6.94,6.94,0,0,1-1,3.64,7.24,7.24,0,0,1-2.66,2.58A7.84,7.84,0,0,1,298.66,239.26Zm0-3.89a3.24,3.24,0,0,0,1.62-.39,2.76,2.76,0,0,0,1.07-1.15,3.71,3.71,0,0,0,.39-1.71,3.3,3.3,0,0,0-.39-1.65,2.74,2.74,0,0,0-1.09-1.12,3,3,0,0,0-1.6-.42,3.06,3.06,0,0,0-1.6.42,2.74,2.74,0,0,0-1.09,1.12,3.47,3.47,0,0,0-.39,1.68,3.64,3.64,0,0,0,.39,1.68,3,3,0,0,0,1.09,1.15A3.24,3.24,0,0,0,298.66,235.37Zm17.42,3.86a5.74,5.74,0,0,1-2.52-.56,5.47,5.47,0,0,1-1.88-1.54,4.34,4.34,0,0,1-.84-2.18v-5.74a4,4,0,0,1,.84-2.13,4.91,4.91,0,0,1,1.88-1.48,5.88,5.88,0,0,1,2.52-.54,6.38,6.38,0,0,1,5.77,3.45,8,8,0,0,1,0,7.28,6.35,6.35,0,0,1-5.77,3.44Zm-.75-3.86a2.87,2.87,0,0,0,1.56-.42,3,3,0,0,0,1.1-1.15,3.75,3.75,0,0,0,0-3.33,2.76,2.76,0,0,0-1.1-1.12,2.87,2.87,0,0,0-1.56-.42,3.06,3.06,0,0,0-1.6.42,2.68,2.68,0,0,0-1.09,1.12,3.59,3.59,0,0,0-.37,1.68,3.42,3.42,0,0,0,.4,1.68,3,3,0,0,0,1.06,1.15A3.24,3.24,0,0,0,315.33,235.37ZM308.24,239V218.62h4.28v10.06l-.69,3.3.64,3.3V239Zm16.65,0V225.34h4.29V239Zm2.16-15.48a2.32,2.32,0,0,1-1.68-.67,2.4,2.4,0,0,1-.64-1.68,2.26,2.26,0,0,1,2.32-2.36,2.19,2.19,0,0,1,1.65.68,2.3,2.3,0,0,1,.64,1.68,2.4,2.4,0,0,1-.64,1.68A2.22,2.22,0,0,1,327.05,223.47ZM332.19,239V218.62h4.29V239Zm14,.31a8.41,8.41,0,0,1-3.94-.9,6.85,6.85,0,0,1-2.69-2.54,7.07,7.07,0,0,1,2.6-9.86,7.48,7.48,0,0,1,3.73-.92,7.07,7.07,0,0,1,3.55.86,6.2,6.2,0,0,1,2.41,2.41,6.87,6.87,0,0,1,.9,3.53,5.54,5.54,0,0,1-.06.78,6.59,6.59,0,0,1-.14.93l-11.73,0v-2.94l9.91,0-1.85,1.23a5.19,5.19,0,0,0-.36-1.93,2.36,2.36,0,0,0-1-1.18,2.87,2.87,0,0,0-1.6-.42,3.2,3.2,0,0,0-1.76.48,3.15,3.15,0,0,0-1.15,1.29,4.82,4.82,0,0,0-.39,2,4.72,4.72,0,0,0,.42,2.07,3.4,3.4,0,0,0,1.23,1.32,3.88,3.88,0,0,0,1.91.45,4.8,4.8,0,0,0,1.82-.34,4.17,4.17,0,0,0,1.42-1.06l2.36,2.35a6.45,6.45,0,0,1-2.44,1.76A8.21,8.21,0,0,1,346.21,239.26Zm14.35-.31V219.18H365V239Zm12.24,0V219.18h4.42V239Zm-9.61-8.26v-3.81h11.06v3.81Zm23,8.57a9.74,9.74,0,0,1-3.75-.7,7.94,7.94,0,0,1-2.88-2.07l2.82-2.83a4,4,0,0,0,1.54,1.29,5.29,5.29,0,0,0,2.19.47,4.11,4.11,0,0,0,1.79-.36,2.78,2.78,0,0,0,1.18-1,2.85,2.85,0,0,0,.44-1.59,2.73,2.73,0,0,0-1.7-2.61,4.86,4.86,0,0,0-2-.36,8.81,8.81,0,0,0-1.12.08,4.48,4.48,0,0,0-1,.2l1.94-2.44c.52-.15,1-.27,1.48-.36a6.07,6.07,0,0,1,1.34-.17,5.11,5.11,0,0,1,2.72.73,5,5,0,0,1,1.9,2,6.08,6.08,0,0,1,.73,3.08,6.2,6.2,0,0,1-1,3.47,6.31,6.31,0,0,1-2.69,2.35A9,9,0,0,1,386.19,239.26Zm-2.41-9.52V227.3l4.82-5.65,4.93,0-5,5.71Zm-3-6.83v-3.73h12.74v2.44l-3.45,1.29Z"/><path class="cls-2" d="M0,81.38V64.58H2.76v16.8Zm13.93,0V74.73a2.56,2.56,0,0,0-.74-1.9,2.5,2.5,0,0,0-1.87-.74,2.7,2.7,0,0,0-1.37.34,2.4,2.4,0,0,0-.94.93,2.8,2.8,0,0,0-.33,1.37l-1-.58a4.61,4.61,0,0,1,.57-2.32,4.1,4.1,0,0,1,1.59-1.61,4.46,4.46,0,0,1,2.3-.6,4,4,0,0,1,2.3.67A4.63,4.63,0,0,1,16,72a4.42,4.42,0,0,1,.57,2.16v7.23ZM6,81.38V69.86H8.68V81.38Zm14.83,0V65.06h2.64V81.38Zm-2.76-9.12v-2.4h8.16v2.4Zm15.1,9.36a6.38,6.38,0,0,1-3.12-.77,5.9,5.9,0,0,1-3-5.23,5.87,5.87,0,0,1,6-6,5.4,5.4,0,0,1,2.83.74,5.21,5.21,0,0,1,1.94,2,6,6,0,0,1,.72,2.95,3,3,0,0,1-.05.6,4.2,4.2,0,0,1-.09.65H29V74.44h8.09l-1,.87a4.53,4.53,0,0,0-.41-1.78,2.55,2.55,0,0,0-1-1.1A3.1,3.1,0,0,0,33,72a3.49,3.49,0,0,0-1.75.43,3,3,0,0,0-1.16,1.23,4.42,4.42,0,0,0,0,3.74,3.05,3.05,0,0,0,1.22,1.27,3.75,3.75,0,0,0,1.83.44,4.16,4.16,0,0,0,1.63-.32,3.3,3.3,0,0,0,1.29-.91l1.68,1.71a5.37,5.37,0,0,1-2,1.48A6.4,6.4,0,0,1,33.21,81.62Zm7.47-.24V69.86h2.64V81.38ZM43.32,75l-.91-.46a5.91,5.91,0,0,1,1-3.52,3.37,3.37,0,0,1,3-1.37,3.71,3.71,0,0,1,1.56.31,3.77,3.77,0,0,1,1.3,1l-1.73,1.77a1.91,1.91,0,0,0-.7-.48,2.64,2.64,0,0,0-.89-.14,2.5,2.5,0,0,0-1.82.7A2.91,2.91,0,0,0,43.32,75Zm7.13,6.41V64.1h2.64V81.38Zm5.6,0V69.86h2.64V81.38Zm1.32-13.63a1.54,1.54,0,0,1-1.12-.46,1.57,1.57,0,0,1-.44-1.13A1.59,1.59,0,0,1,56.25,65a1.53,1.53,0,0,1,1.12-.45A1.49,1.49,0,0,1,58.5,65a1.58,1.58,0,0,1,.43,1.13,1.56,1.56,0,0,1-.43,1.13A1.5,1.5,0,0,1,57.37,67.75ZM69.55,81.38V74.73a2.6,2.6,0,0,0-.74-1.9,2.52,2.52,0,0,0-1.87-.74,2.68,2.68,0,0,0-1.37.34,2.4,2.4,0,0,0-.94.93,2.8,2.8,0,0,0-.33,1.37l-1-.58a4.62,4.62,0,0,1,.58-2.32,4.08,4.08,0,0,1,1.58-1.61,4.52,4.52,0,0,1,2.31-.6,4,4,0,0,1,2.3.67A4.72,4.72,0,0,1,71.62,72a4.42,4.42,0,0,1,.57,2.16v7.23Zm-7.89,0V69.86H64.3V81.38Zm18.57.24a6.33,6.33,0,0,1-3.12-.77,5.85,5.85,0,0,1-3-5.23,5.87,5.87,0,0,1,6-6,5.38,5.38,0,0,1,2.83.74,5.24,5.24,0,0,1,2,2,6,6,0,0,1,.72,2.95,4,4,0,0,1,0,.6,6.11,6.11,0,0,1-.1.65H76V74.44h8.09l-1,.87a4.37,4.37,0,0,0-.41-1.78,2.5,2.5,0,0,0-1-1.1A3.07,3.07,0,0,0,80,72a3.52,3.52,0,0,0-1.75.43,3,3,0,0,0-1.15,1.23,3.92,3.92,0,0,0-.41,1.85,4.05,4.05,0,0,0,.43,1.89,3.07,3.07,0,0,0,1.23,1.27,3.71,3.71,0,0,0,1.82.44,4.12,4.12,0,0,0,1.63-.32,3.26,3.26,0,0,0,1.3-.91l1.68,1.71a5.37,5.37,0,0,1-2,1.48A6.44,6.44,0,0,1,80.23,81.62Zm12.29,0a5.29,5.29,0,0,1-2.83-.79,5.8,5.8,0,0,1-2-2.14,6.82,6.82,0,0,1,0-6.1,5.78,5.78,0,0,1,2-2.16,5.14,5.14,0,0,1,2.83-.81,4.68,4.68,0,0,1,2.33.57A4.18,4.18,0,0,1,97.08,74v3.31a4.22,4.22,0,0,1-.6,2.24,4.31,4.31,0,0,1-1.61,1.56A5,5,0,0,1,92.52,81.62Zm.43-2.5a3,3,0,0,0,2.35-1,3.57,3.57,0,0,0,.92-2.52,4,4,0,0,0-.41-1.83,3,3,0,0,0-1.16-1.22,3.13,3.13,0,0,0-1.7-.46,3.2,3.2,0,0,0-1.7.46,3.24,3.24,0,0,0-1.16,1.22,4,4,0,0,0-.4,1.83,3.93,3.93,0,0,0,.4,1.82,3.33,3.33,0,0,0,1.16,1.25A3.28,3.28,0,0,0,93,79.12Zm3.1,2.26v-3.1l.45-2.81-.45-2.78V69.86h2.64V81.38Zm10.39.24a5.32,5.32,0,0,1-2.83-.79,5.78,5.78,0,0,1-2-2.14,6.82,6.82,0,0,1,0-6.1,5.76,5.76,0,0,1,2-2.16,5.16,5.16,0,0,1,2.83-.81,4.65,4.65,0,0,1,2.33.57,4.17,4.17,0,0,1,1.63,1.54A4.21,4.21,0,0,1,111,74v3.31a4.28,4.28,0,0,1-2.21,3.8A5,5,0,0,1,106.44,81.62Zm.43-2.5a3.06,3.06,0,0,0,2.36-1,3.61,3.61,0,0,0,.91-2.52,4,4,0,0,0-.41-1.83,3,3,0,0,0-1.15-1.22,3.16,3.16,0,0,0-1.71-.46,3.2,3.2,0,0,0-1.7.46A3.15,3.15,0,0,0,104,73.79a4,4,0,0,0-.41,1.83,3.94,3.94,0,0,0,.41,1.82,3.23,3.23,0,0,0,1.15,1.25A3.28,3.28,0,0,0,106.87,79.12Zm3.1,2.26v-3.1l.46-2.81L110,72.69V64.1h2.64V81.38Zm10.85.24a6.05,6.05,0,0,1-3-.79,6.26,6.26,0,0,1-2.18-2.19,6,6,0,0,1-.8-3,5.83,5.83,0,0,1,.8-3,6,6,0,0,1,2.18-2.14,5.87,5.87,0,0,1,3-.81,6,6,0,0,1,3.07.79,5.89,5.89,0,0,1,2.16,2.16,5.75,5.75,0,0,1,.82,3,5.88,5.88,0,0,1-.82,3,5.85,5.85,0,0,1-5.23,3Zm0-2.55a3.39,3.39,0,0,0,1.73-.43,3,3,0,0,0,1.17-1.25,3.63,3.63,0,0,0,.43-1.8,3.52,3.52,0,0,0-.43-1.77,3.26,3.26,0,0,0-2.9-1.66,3.27,3.27,0,0,0-1.73.46,3.16,3.16,0,0,0-1.18,1.2,3.73,3.73,0,0,0-.4,1.77,3.85,3.85,0,0,0,.4,1.8,3.23,3.23,0,0,0,1.18,1.25A3.44,3.44,0,0,0,120.82,79.07Zm17.49,2.55a7.51,7.51,0,0,1-3.05-.6,6.25,6.25,0,0,1-2.28-1.8l1.87-1.87a3.55,3.55,0,0,0,1.42,1.22,4.44,4.44,0,0,0,2,.46,3.73,3.73,0,0,0,1.77-.39,2.75,2.75,0,0,0,1.16-1.08,3.27,3.27,0,0,0,0-3.24,2.65,2.65,0,0,0-1.2-1,4.15,4.15,0,0,0-1.88-.38,5.39,5.39,0,0,0-.88.07,3.7,3.7,0,0,0-.82.17l1.22-1.59a7.22,7.22,0,0,1,1.06-.31,4.39,4.39,0,0,1,1.11-.14,4.43,4.43,0,0,1,4,2.37,5.81,5.81,0,0,1-.15,5.5,5.2,5.2,0,0,1-2.13,1.94A6.88,6.88,0,0,1,138.31,81.62Zm-1.9-8.47V71.51l4.49-5.23,3.31-.07-4.68,5.38Zm-2.59-6.1V64.58h10.39v1.63l-2.38.84Zm18.29,14.57A5.83,5.83,0,0,1,147,78.74a5.75,5.75,0,0,1-.77-2.93,8.25,8.25,0,0,1,1.61-4.66l4.58-6.57h3.19l-4.89,6.89-1,.6a3.29,3.29,0,0,1,.6-.94,2.46,2.46,0,0,1,1-.62,4.6,4.6,0,0,1,1.54-.22,5.29,5.29,0,0,1,4.56,2.59,5.41,5.41,0,0,1,.72,2.83,5.75,5.75,0,0,1-.79,3,5.94,5.94,0,0,1-5.16,2.93Zm0-2.59a3.08,3.08,0,0,0,1.63-.44,3,3,0,0,0,1.13-1.17,3.39,3.39,0,0,0,.43-1.71,3.28,3.28,0,0,0-.43-1.68,2.91,2.91,0,0,0-1.13-1.15,3.15,3.15,0,0,0-4.39,1.18,3.31,3.31,0,0,0-.41,1.65,3.6,3.6,0,0,0,.41,1.71,3,3,0,0,0,1.13,1.17A3.08,3.08,0,0,0,152.11,79Zm14.36,2.59a5,5,0,0,1-2.35-.55,4.44,4.44,0,0,1-1.63-1.56,4.3,4.3,0,0,1-.58-2.24V74a4.18,4.18,0,0,1,2.23-3.77,4.76,4.76,0,0,1,2.33-.57,5,5,0,0,1,2.81.81,5.53,5.53,0,0,1,2,2.16,6.58,6.58,0,0,1,0,6.1,5.54,5.54,0,0,1-2,2.14A5.2,5.2,0,0,1,166.47,81.62Zm-.43-2.5a3.18,3.18,0,0,0,1.68-.43,3,3,0,0,0,1.15-1.25,3.71,3.71,0,0,0,.43-1.82,3.75,3.75,0,0,0-.43-1.83,2.94,2.94,0,0,0-1.15-1.22,3.11,3.11,0,0,0-1.68-.46,3.2,3.2,0,0,0-1.7.46,3,3,0,0,0-1.16,1.22,4,4,0,0,0-.4,1.83,3.93,3.93,0,0,0,.4,1.82,3.11,3.11,0,0,0,1.16,1.25A3.28,3.28,0,0,0,166,79.12Zm-5.74,7.06V69.86h2.64V73l-.45,2.81.45,2.79v7.63Zm20.89-4.8-3.31-4.87-.48-.44-4.46-6.21h3.19l3,4.27.46.41,4.82,6.84Zm-8.47,0,4.66-6.46,1.53,1.9-3.12,4.56ZM179.78,76l-1.56-1.88,2.88-4.29h3.05Zm6.33,8.16,1.63-3,.89-.24a2,2,0,0,1-.34.48.61.61,0,0,1-.45.19,1.49,1.49,0,0,1-1-.46,1.69,1.69,0,0,1-.45-1.2,1.81,1.81,0,0,1,.5-1.29,1.74,1.74,0,0,1,1.3-.55,1.66,1.66,0,0,1,1.25.55,1.7,1.7,0,0,1,.55,1.29,2.36,2.36,0,0,1-.15.75,6.52,6.52,0,0,1-.45,1L187.57,85Zm11.46-2.81V69.86h2.64V81.38Zm1.32-13.63a1.52,1.52,0,0,1-1.56-1.59,1.58,1.58,0,0,1,.43-1.13,1.55,1.55,0,0,1,1.13-.45A1.51,1.51,0,0,1,200,65a1.58,1.58,0,0,1,.43,1.13,1.56,1.56,0,0,1-.43,1.13A1.51,1.51,0,0,1,198.89,67.75Zm12.18,13.63V74.73a2.57,2.57,0,0,0-.75-1.9,2.5,2.5,0,0,0-1.87-.74,2.7,2.7,0,0,0-1.37.34,2.31,2.31,0,0,0-.93.93,2.7,2.7,0,0,0-.34,1.37l-1-.58a4.52,4.52,0,0,1,.58-2.32,4.08,4.08,0,0,1,1.58-1.61,4.49,4.49,0,0,1,2.3-.6,4,4,0,0,1,2.31.67,4.61,4.61,0,0,1,1.58,1.7,4.32,4.32,0,0,1,.58,2.16v7.23Zm-7.9,0V69.86h2.64V81.38Zm14.83,0V65.06h2.64V81.38Zm-2.76-9.12v-2.4h8.16v2.4Zm15.1,9.36a6.38,6.38,0,0,1-3.12-.77,5.87,5.87,0,0,1-3-5.23,5.87,5.87,0,0,1,5.95-6,5.38,5.38,0,0,1,2.83.74,5.31,5.31,0,0,1,1.95,2,6,6,0,0,1,.72,2.95,4,4,0,0,1,0,.6,6.11,6.11,0,0,1-.1.65H226.1V74.44h8.08l-1,.87a4.37,4.37,0,0,0-.41-1.78,2.5,2.5,0,0,0-1-1.1,3.07,3.07,0,0,0-1.61-.39,3.52,3.52,0,0,0-1.75.43,2.91,2.91,0,0,0-1.15,1.23,4.37,4.37,0,0,0,0,3.74,3.07,3.07,0,0,0,1.23,1.27,3.69,3.69,0,0,0,1.82.44,4.12,4.12,0,0,0,1.63-.32,3.33,3.33,0,0,0,1.3-.91l1.68,1.71a5.37,5.37,0,0,1-2,1.48A6.45,6.45,0,0,1,230.34,81.62Zm7.47-.24V69.86h2.64V81.38ZM240.45,75l-.91-.46a5.91,5.91,0,0,1,1-3.52,3.38,3.38,0,0,1,2.95-1.37,3.71,3.71,0,0,1,1.56.31,3.68,3.68,0,0,1,1.3,1l-1.73,1.77a1.91,1.91,0,0,0-.7-.48,2.62,2.62,0,0,0-.88-.14,2.5,2.5,0,0,0-1.83.7A2.91,2.91,0,0,0,240.45,75Zm7.13,6.41V64.1h2.64V81.38Zm10.93.24a6.38,6.38,0,0,1-3.12-.77,6.1,6.1,0,0,1-2.18-2.16,6,6,0,0,1-.79-3.07,5.87,5.87,0,0,1,6-6,5.38,5.38,0,0,1,2.83.74,5.24,5.24,0,0,1,1.95,2,6,6,0,0,1,.72,2.95,4,4,0,0,1-.05.6,6.11,6.11,0,0,1-.1.65h-9.45V74.44h8.08l-1,.87a4.37,4.37,0,0,0-.41-1.78,2.5,2.5,0,0,0-1-1.1,3.07,3.07,0,0,0-1.61-.39,3.52,3.52,0,0,0-1.75.43,2.91,2.91,0,0,0-1.15,1.23,3.92,3.92,0,0,0-.41,1.85,4.05,4.05,0,0,0,.43,1.89,3.07,3.07,0,0,0,1.23,1.27,3.71,3.71,0,0,0,1.82.44,4.12,4.12,0,0,0,1.63-.32,3.26,3.26,0,0,0,1.3-.91l1.68,1.71a5.37,5.37,0,0,1-2,1.48A6.45,6.45,0,0,1,258.51,81.62Zm8.92-.24V65.06h2.64V81.38Zm-2.76-9.12v-2.4h8.16v2.4Zm10.08,9.12V69.86h2.64V81.38ZM277.39,75l-.91-.46a5.91,5.91,0,0,1,1-3.52,3.37,3.37,0,0,1,2.95-1.37,3.52,3.52,0,0,1,2.86,1.32l-1.73,1.77a1.91,1.91,0,0,0-.7-.48,2.64,2.64,0,0,0-.89-.14,2.5,2.5,0,0,0-1.82.7A2.91,2.91,0,0,0,277.39,75ZM289,81.62a5.33,5.33,0,0,1-2.84-.79,5.86,5.86,0,0,1-2-2.14,6.82,6.82,0,0,1,0-6.1,5.84,5.84,0,0,1,2-2.16,5.17,5.17,0,0,1,2.84-.81,4.61,4.61,0,0,1,2.32.57A4.17,4.17,0,0,1,293,71.73a4.21,4.21,0,0,1,.6,2.23v3.31a4.3,4.3,0,0,1-2.2,3.8A5,5,0,0,1,289,81.62Zm.43-2.5a3,3,0,0,0,2.35-1,3.56,3.56,0,0,0,.91-2.52,4,4,0,0,0-.41-1.83,2.94,2.94,0,0,0-1.15-1.22,3.15,3.15,0,0,0-1.7-.46,3.26,3.26,0,0,0-1.71.46,3.22,3.22,0,0,0-1.15,1.22,4,4,0,0,0-.41,1.83,3.94,3.94,0,0,0,.41,1.82,3.31,3.31,0,0,0,1.15,1.25A3.34,3.34,0,0,0,289.43,79.12Zm3.09,2.26v-3.1l.46-2.81-.46-2.78V69.86h2.64V81.38Zm10.4.24a5.35,5.35,0,0,1-2.84-.79,5.86,5.86,0,0,1-2-2.14,6.82,6.82,0,0,1,0-6.1,5.84,5.84,0,0,1,2-2.16,5.19,5.19,0,0,1,2.84-.81,4.68,4.68,0,0,1,2.33.57A4.18,4.18,0,0,1,307.48,74v3.31a4.22,4.22,0,0,1-.6,2.24,4.31,4.31,0,0,1-1.61,1.56A5,5,0,0,1,302.92,81.62Zm.43-2.5a3,3,0,0,0,2.35-1,3.56,3.56,0,0,0,.91-2.52,3.86,3.86,0,0,0-.41-1.83,2.94,2.94,0,0,0-1.15-1.22,3.13,3.13,0,0,0-1.7-.46,3.26,3.26,0,0,0-1.71.46,3.3,3.3,0,0,0-1.15,1.22,4,4,0,0,0-.41,1.83,3.94,3.94,0,0,0,.41,1.82,3.39,3.39,0,0,0,1.15,1.25A3.34,3.34,0,0,0,303.35,79.12Zm3.1,2.26v-3.1l.45-2.81-.45-2.78V64.1h2.63V81.38Zm10.84.24a6,6,0,0,1-3-.79,6.29,6.29,0,0,1-2.19-2.19,6.05,6.05,0,0,1-.79-3,5.92,5.92,0,0,1,.79-3,6.07,6.07,0,0,1,2.19-2.14,5.84,5.84,0,0,1,3-.81,6,6,0,0,1,3.08.79,5.89,5.89,0,0,1,2.16,2.16,5.74,5.74,0,0,1,.81,3,5.87,5.87,0,0,1-.81,3,5.85,5.85,0,0,1-5.24,3Zm0-2.55a3.34,3.34,0,0,0,1.73-.43,3,3,0,0,0,1.18-1.25,3.63,3.63,0,0,0,.43-1.8,3.52,3.52,0,0,0-.43-1.77,3.29,3.29,0,0,0-2.91-1.66,3.26,3.26,0,0,0-1.72.46,3.16,3.16,0,0,0-1.18,1.2,3.73,3.73,0,0,0-.41,1.77,3.85,3.85,0,0,0,.41,1.8,3.23,3.23,0,0,0,1.18,1.25A3.43,3.43,0,0,0,317.29,79.07Zm11.48,2.31,6.92-16.8h1.92l6.86,16.8h-3l-5.38-13.61h1L331.7,81.38Zm3.41-3.24v-2.4h8.91v2.4Zm18.64,3.48A5.3,5.3,0,0,1,348.2,81a4.66,4.66,0,0,1-1.77-1.78,5.37,5.37,0,0,1-.63-2.64V69.86h2.65v6.57a3.5,3.5,0,0,0,.26,1.44,2.06,2.06,0,0,0,.81.89,2.58,2.58,0,0,0,1.3.31,2.21,2.21,0,0,0,1.75-.67,2.83,2.83,0,0,0,.63-2V69.86h2.64v6.69a5.39,5.39,0,0,1-.65,2.67A4.58,4.58,0,0,1,353.44,81,5.29,5.29,0,0,1,350.82,81.62Zm9.42-.24V65.06h2.64V81.38Zm-2.76-9.12v-2.4h8.16v2.4Zm15,9.36a6,6,0,0,1-3-.79,6.29,6.29,0,0,1-2.19-2.19,6,6,0,0,1-.79-3,5.82,5.82,0,0,1,.79-3,6.07,6.07,0,0,1,2.19-2.14,5.84,5.84,0,0,1,3-.81,6,6,0,0,1,3.08.79,5.89,5.89,0,0,1,2.16,2.16,5.74,5.74,0,0,1,.81,3,5.87,5.87,0,0,1-.81,3,5.85,5.85,0,0,1-5.24,3Zm0-2.55a3.34,3.34,0,0,0,1.73-.43,3,3,0,0,0,1.18-1.25,3.63,3.63,0,0,0,.43-1.8,3.52,3.52,0,0,0-.43-1.77,3.29,3.29,0,0,0-2.91-1.66,3.23,3.23,0,0,0-1.72.46,3.16,3.16,0,0,0-1.18,1.2,3.73,3.73,0,0,0-.41,1.77,3.85,3.85,0,0,0,.41,1.8,3.23,3.23,0,0,0,1.18,1.25A3.41,3.41,0,0,0,372.51,79.07Z"/><path class="cls-2" d="M0,187v-16.8H2.76V187Zm13.93,0v-6.65a2.56,2.56,0,0,0-.74-1.9,2.5,2.5,0,0,0-1.87-.74A2.8,2.8,0,0,0,10,178,2.5,2.5,0,0,0,9,179a2.8,2.8,0,0,0-.33,1.37l-1-.58a4.68,4.68,0,0,1,.57-2.33,4.14,4.14,0,0,1,1.59-1.6,4.46,4.46,0,0,1,2.3-.6,4,4,0,0,1,2.3.67,4.63,4.63,0,0,1,1.59,1.7,4.42,4.42,0,0,1,.57,2.16V187ZM6,187V175.45H8.68V187Zm14.83,0V170.65h2.64V187Zm-2.76-9.12v-2.4h8.16v2.4Zm15.1,9.36a6.38,6.38,0,0,1-3.12-.77,5.9,5.9,0,0,1-3-5.23,5.87,5.87,0,0,1,6-6,5.31,5.31,0,0,1,2.83.74,5.21,5.21,0,0,1,1.94,2,6,6,0,0,1,.72,2.95,3.17,3.17,0,0,1-.05.6,4.37,4.37,0,0,1-.09.65H29V180h8.09l-1,.86a4.52,4.52,0,0,0-.41-1.77,2.64,2.64,0,0,0-1-1.11,3.2,3.2,0,0,0-1.61-.38,3.39,3.39,0,0,0-1.75.43,3,3,0,0,0-1.16,1.23,3.88,3.88,0,0,0-.4,1.84,4,4,0,0,0,.43,1.9,3.11,3.11,0,0,0,1.22,1.27,3.75,3.75,0,0,0,1.83.43,4.15,4.15,0,0,0,1.63-.31,3.4,3.4,0,0,0,1.29-.91l1.68,1.7a5.29,5.29,0,0,1-2,1.49A6.4,6.4,0,0,1,33.21,187.21Zm7.47-.24V175.45h2.64V187Zm2.64-6.41-.91-.46a6,6,0,0,1,1-3.53,3.39,3.39,0,0,1,3-1.36,3.71,3.71,0,0,1,1.56.31,3.77,3.77,0,0,1,1.3,1l-1.73,1.77a1.91,1.91,0,0,0-.7-.48,2.64,2.64,0,0,0-.89-.14,2.53,2.53,0,0,0-1.82.69A3,3,0,0,0,43.32,180.56ZM50.45,187V169.69h2.64V187Zm5.6,0V175.45h2.64V187Zm1.32-13.64a1.53,1.53,0,0,1-1.12-.45,1.67,1.67,0,0,1,0-2.26,1.53,1.53,0,0,1,1.12-.45,1.49,1.49,0,0,1,1.13.45,1.7,1.7,0,0,1,0,2.26A1.49,1.49,0,0,1,57.37,173.33ZM69.55,187v-6.65a2.6,2.6,0,0,0-.74-1.9,2.52,2.52,0,0,0-1.87-.74,2.78,2.78,0,0,0-1.37.33,2.5,2.5,0,0,0-.94.94,2.8,2.8,0,0,0-.33,1.37l-1-.58a4.68,4.68,0,0,1,.58-2.33,4.12,4.12,0,0,1,1.58-1.6,4.52,4.52,0,0,1,2.31-.6,4,4,0,0,1,2.3.67,4.72,4.72,0,0,1,1.59,1.7,4.42,4.42,0,0,1,.57,2.16V187Zm-7.89,0V175.45H64.3V187Zm18.57.24a6.33,6.33,0,0,1-3.12-.77,5.85,5.85,0,0,1-3-5.23,5.85,5.85,0,0,1,.79-3.05,5.84,5.84,0,0,1,5.16-2.95A5.27,5.27,0,0,1,84.86,178a6,6,0,0,1,.72,2.95,4.28,4.28,0,0,1,0,.6,6.52,6.52,0,0,1-.1.65H76V180h8.09l-1,.86a4.36,4.36,0,0,0-.41-1.77,2.57,2.57,0,0,0-1-1.11,3.17,3.17,0,0,0-1.61-.38,3.41,3.41,0,0,0-1.75.43,3,3,0,0,0-1.15,1.23,3.88,3.88,0,0,0-.41,1.84,4.09,4.09,0,0,0,.43,1.9,3.13,3.13,0,0,0,1.23,1.27,3.71,3.71,0,0,0,1.82.43,4.12,4.12,0,0,0,1.63-.31,3.36,3.36,0,0,0,1.3-.91l1.68,1.7a5.29,5.29,0,0,1-2,1.49A6.44,6.44,0,0,1,80.23,187.21Zm12.29,0a5.21,5.21,0,0,1-2.83-.8,5.77,5.77,0,0,1-2-2.13,6.45,6.45,0,0,1-.72-3.05,6.36,6.36,0,0,1,.72-3,5.78,5.78,0,0,1,2-2.16,5.14,5.14,0,0,1,2.83-.81,4.68,4.68,0,0,1,2.33.57,4.23,4.23,0,0,1,1.63,1.54,4.18,4.18,0,0,1,.6,2.23v3.31a4.28,4.28,0,0,1-2.21,3.79A4.89,4.89,0,0,1,92.52,187.21Zm.43-2.5a3,3,0,0,0,2.35-1,3.57,3.57,0,0,0,.92-2.52,4,4,0,0,0-.41-1.83,3,3,0,0,0-1.16-1.22,3,3,0,0,0-1.7-.46,3.12,3.12,0,0,0-1.7.46,3.17,3.17,0,0,0-1.16,1.22,4.36,4.36,0,0,0,0,3.65,3.41,3.41,0,0,0,1.16,1.25A3.28,3.28,0,0,0,93,184.71Zm3.1,2.26v-3.1l.45-2.81-.45-2.78v-2.83h2.64V187Zm10.39.24a5.24,5.24,0,0,1-2.83-.8,5.75,5.75,0,0,1-2-2.13,6.45,6.45,0,0,1-.72-3.05,6.36,6.36,0,0,1,.72-3,5.76,5.76,0,0,1,2-2.16,5.16,5.16,0,0,1,2.83-.81,4.65,4.65,0,0,1,2.33.57,4.18,4.18,0,0,1,2.23,3.77v3.31a4.18,4.18,0,0,1-.6,2.23,4.1,4.1,0,0,1-1.61,1.56A4.86,4.86,0,0,1,106.44,187.21Zm.43-2.5a3.06,3.06,0,0,0,2.36-1,3.61,3.61,0,0,0,.91-2.52,4,4,0,0,0-.41-1.83,3,3,0,0,0-1.15-1.22,3.08,3.08,0,0,0-1.71-.46,3.12,3.12,0,0,0-1.7.46,3.08,3.08,0,0,0-1.15,1.22,4.27,4.27,0,0,0,0,3.65,3,3,0,0,0,2.85,1.68ZM110,187v-3.1l.46-2.81-.46-2.78v-8.59h2.64V187Zm10.85.24a6,6,0,0,1-3-.8,6.15,6.15,0,0,1-2.18-2.18,6,6,0,0,1-.8-3,5.8,5.8,0,0,1,.8-3,6,6,0,0,1,2.18-2.14,5.87,5.87,0,0,1,3-.81,6,6,0,0,1,3.07.79,5.89,5.89,0,0,1,2.16,2.16,5.72,5.72,0,0,1,.82,3,5.88,5.88,0,0,1-.82,3,5.9,5.9,0,0,1-5.23,3Zm0-2.55a3.39,3.39,0,0,0,1.73-.43,3,3,0,0,0,1.17-1.25,3.69,3.69,0,0,0,.43-1.8,3.52,3.52,0,0,0-.43-1.77,3.07,3.07,0,0,0-1.17-1.2,3.22,3.22,0,0,0-1.73-.46,3.27,3.27,0,0,0-1.73.46,3,3,0,0,0-1.18,1.2,3.73,3.73,0,0,0-.4,1.77,3.91,3.91,0,0,0,.4,1.8,3.23,3.23,0,0,0,1.18,1.25A3.44,3.44,0,0,0,120.82,184.66Zm12.26.67,6.19-6.57a18.74,18.74,0,0,0,1.25-1.47,5.31,5.31,0,0,0,.69-1.22,3.21,3.21,0,0,0,.22-1.18,2.16,2.16,0,0,0-.75-1.75,2.66,2.66,0,0,0-1.85-.65,3.75,3.75,0,0,0-2.11.6,5.29,5.29,0,0,0-1.63,1.88l-1.92-1.59a7,7,0,0,1,2.43-2.57,6.2,6.2,0,0,1,3.33-.88,5.74,5.74,0,0,1,2.74.62,4.51,4.51,0,0,1,1.82,1.75,5,5,0,0,1,.65,2.57,6.56,6.56,0,0,1-.26,1.9,5.41,5.41,0,0,1-.85,1.65,19.22,19.22,0,0,1-1.65,1.92l-4.75,4.92Zm0,1.64v-1.64l2.37-.84h9V187Zm18.88.24a6.7,6.7,0,0,1-3-.63,4.81,4.81,0,0,1-2.25-6.33,4.57,4.57,0,0,1,1.29-1.64,5.66,5.66,0,0,1,2-1l-.07.77a3.74,3.74,0,0,1-2.61-2.28,4.3,4.3,0,0,1-.34-1.7,4.41,4.41,0,0,1,.62-2.35,4.47,4.47,0,0,1,1.78-1.61,5.87,5.87,0,0,1,5.09,0,4.38,4.38,0,0,1,2.4,4,4.3,4.3,0,0,1-.34,1.7,3.89,3.89,0,0,1-1,1.42,3.75,3.75,0,0,1-1.63.86l-.08-.77a5.36,5.36,0,0,1,2,1,4.31,4.31,0,0,1,1.27,1.64,4.55,4.55,0,0,1,.46,2.06,4.77,4.77,0,0,1-.69,2.54,4.65,4.65,0,0,1-2,1.73A6.7,6.7,0,0,1,152,187.21Zm0-2.5a3.24,3.24,0,0,0,1.56-.36,2.64,2.64,0,0,0,1.08-1A2.49,2.49,0,0,0,155,182a2.42,2.42,0,0,0-.41-1.42,2.64,2.64,0,0,0-1.08-1,3.24,3.24,0,0,0-1.56-.36,3.38,3.38,0,0,0-1.58.36,2.92,2.92,0,0,0-1.08,1,2.56,2.56,0,0,0-.39,1.42,2.63,2.63,0,0,0,.39,1.42,2.92,2.92,0,0,0,1.08,1A3.38,3.38,0,0,0,152,184.71Zm0-7.68a2.3,2.3,0,0,0,2.4-2.4,2.24,2.24,0,0,0-.67-1.7,2.34,2.34,0,0,0-1.73-.68,2.36,2.36,0,0,0-1.72.68,2.25,2.25,0,0,0-.68,1.7A2.31,2.31,0,0,0,152,177Zm14.21,10.18a4.86,4.86,0,0,1-2.35-.56,4.13,4.13,0,0,1-2.21-3.79v-3.31a4.18,4.18,0,0,1,2.23-3.77,4.73,4.73,0,0,1,2.33-.57,5,5,0,0,1,2.8.81,5.55,5.55,0,0,1,2,2.16,6.26,6.26,0,0,1,.74,3,6.34,6.34,0,0,1-.74,3.05,5.54,5.54,0,0,1-2,2.13A5.09,5.09,0,0,1,166.17,187.21Zm-.43-2.5a3,3,0,0,0,2.83-1.68,4.09,4.09,0,0,0,0-3.65,2.91,2.91,0,0,0-1.16-1.22,3,3,0,0,0-1.67-.46,3.17,3.17,0,0,0-1.71.46,2.88,2.88,0,0,0-1.15,1.22,4.27,4.27,0,0,0,0,3.65,3.08,3.08,0,0,0,1.15,1.25A3.34,3.34,0,0,0,165.74,184.71ZM160,191.77V175.45h2.64v3.09l-.46,2.81.46,2.78v7.64Zm20.89-4.8-3.31-4.88-.48-.43-4.47-6.21h3.2l2.95,4.27.45.41,4.83,6.84Zm-8.47,0,4.65-6.46,1.54,1.9L175.49,187Zm7.05-5.36-1.56-1.87,2.88-4.29h3.05Zm6.33,8.16,1.64-3,.88-.24a1.7,1.7,0,0,1-.33.48.66.66,0,0,1-.46.19,1.45,1.45,0,0,1-1-.46,1.69,1.69,0,0,1-.46-1.2,1.78,1.78,0,0,1,.51-1.29,1.71,1.71,0,0,1,1.29-.56,1.67,1.67,0,0,1,1.25.56,1.7,1.7,0,0,1,.55,1.29,2.32,2.32,0,0,1-.14.75,5.89,5.89,0,0,1-.46,1.05l-1.77,3.27Zm11.47-2.8V175.45h2.64V187Zm1.32-13.64a1.54,1.54,0,0,1-1.13-.45,1.7,1.7,0,0,1,0-2.26,1.54,1.54,0,0,1,1.13-.45,1.47,1.47,0,0,1,1.12.45,1.67,1.67,0,0,1,0,2.26A1.47,1.47,0,0,1,198.59,173.33ZM210.76,187v-6.65a2.56,2.56,0,0,0-.74-1.9,2.52,2.52,0,0,0-1.87-.74,2.78,2.78,0,0,0-1.37.33,2.5,2.5,0,0,0-.94.94,2.8,2.8,0,0,0-.33,1.37l-1-.58a4.68,4.68,0,0,1,.58-2.33,4.19,4.19,0,0,1,1.58-1.6,4.52,4.52,0,0,1,2.31-.6,4,4,0,0,1,2.3.67,4.72,4.72,0,0,1,1.59,1.7,4.42,4.42,0,0,1,.57,2.16V187Zm-7.89,0V175.45h2.64V187Zm14.83,0V170.65h2.64V187Zm-2.76-9.12v-2.4h8.16v2.4Zm15.1,9.36a6.38,6.38,0,0,1-3.12-.77,5.9,5.9,0,0,1-3-5.23,5.87,5.87,0,0,1,5.95-6,5.32,5.32,0,0,1,2.84.74,5.21,5.21,0,0,1,1.94,2,6,6,0,0,1,.72,2.95,3.17,3.17,0,0,1,0,.6,4.37,4.37,0,0,1-.09.65h-9.46V180h8.09l-1,.86a4.36,4.36,0,0,0-.4-1.77,2.64,2.64,0,0,0-1-1.11,3.2,3.2,0,0,0-1.61-.38,3.36,3.36,0,0,0-1.75.43,3,3,0,0,0-1.16,1.23,3.88,3.88,0,0,0-.41,1.84A4,4,0,0,0,227,183a3,3,0,0,0,1.22,1.27,3.75,3.75,0,0,0,1.83.43,4.15,4.15,0,0,0,1.63-.31,3.4,3.4,0,0,0,1.29-.91l1.68,1.7a5.29,5.29,0,0,1-2,1.49A6.4,6.4,0,0,1,230,187.21Zm7.47-.24V175.45h2.64V187Zm2.64-6.41-.91-.46a6,6,0,0,1,.95-3.53,3.41,3.41,0,0,1,3-1.36,3.78,3.78,0,0,1,1.56.31,3.74,3.74,0,0,1,1.29,1l-1.73,1.77a1.88,1.88,0,0,0-.69-.48,2.68,2.68,0,0,0-.89-.14,2.53,2.53,0,0,0-1.82.69A3,3,0,0,0,240.15,180.56Zm7.13,6.41V169.69h2.64V187Zm10.93.24a6.38,6.38,0,0,1-3.12-.77,5.9,5.9,0,0,1-3-5.23,5.86,5.86,0,0,1,.8-3.05,5.81,5.81,0,0,1,5.16-2.95,5.31,5.31,0,0,1,2.83.74,5.21,5.21,0,0,1,1.94,2,6,6,0,0,1,.72,2.95,3.17,3.17,0,0,1-.05.6,4.37,4.37,0,0,1-.09.65H254V180h8.09l-1,.86a4.36,4.36,0,0,0-.41-1.77,2.64,2.64,0,0,0-1-1.11,3.17,3.17,0,0,0-1.61-.38,3.39,3.39,0,0,0-1.75.43,3,3,0,0,0-1.16,1.23,3.88,3.88,0,0,0-.4,1.84,4,4,0,0,0,.43,1.9,3.11,3.11,0,0,0,1.22,1.27,3.75,3.75,0,0,0,1.83.43,4.15,4.15,0,0,0,1.63-.31,3.4,3.4,0,0,0,1.29-.91l1.68,1.7a5.33,5.33,0,0,1-2,1.49A6.49,6.49,0,0,1,258.21,187.21Zm8.92-.24V170.65h2.64V187Zm-2.76-9.12v-2.4h8.16v2.4ZM274.45,187V175.45h2.63V187Zm2.63-6.41-.91-.46a6,6,0,0,1,1-3.53,3.4,3.4,0,0,1,2.95-1.36,3.71,3.71,0,0,1,1.56.31,3.68,3.68,0,0,1,1.3,1l-1.73,1.77a1.88,1.88,0,0,0-.69-.48,2.68,2.68,0,0,0-.89-.14,2.55,2.55,0,0,0-1.83.69A3,3,0,0,0,277.08,180.56Zm11.61,6.65a5.24,5.24,0,0,1-2.83-.8,5.75,5.75,0,0,1-2-2.13,6.45,6.45,0,0,1-.72-3.05,6.36,6.36,0,0,1,.72-3,5.76,5.76,0,0,1,2-2.16,5.16,5.16,0,0,1,2.83-.81,4.65,4.65,0,0,1,2.33.57,4.18,4.18,0,0,1,2.23,3.77v3.31a4.18,4.18,0,0,1-.6,2.23,4.1,4.1,0,0,1-1.61,1.56A4.89,4.89,0,0,1,288.69,187.21Zm.43-2.5a3.06,3.06,0,0,0,2.36-1,3.61,3.61,0,0,0,.91-2.52,4,4,0,0,0-.41-1.83,3,3,0,0,0-1.15-1.22,3.08,3.08,0,0,0-1.71-.46,3.14,3.14,0,0,0-1.7.46,3.08,3.08,0,0,0-1.15,1.22,4.27,4.27,0,0,0,0,3.65,3,3,0,0,0,2.85,1.68Zm3.1,2.26v-3.1l.45-2.81-.45-2.78v-2.83h2.64V187Zm10.39.24a5.24,5.24,0,0,1-2.83-.8,5.75,5.75,0,0,1-2-2.13,6.45,6.45,0,0,1-.72-3.05,6.36,6.36,0,0,1,.72-3,5.76,5.76,0,0,1,2-2.16,5.16,5.16,0,0,1,2.83-.81,4.65,4.65,0,0,1,2.33.57,4.18,4.18,0,0,1,2.23,3.77v3.31a4.18,4.18,0,0,1-.6,2.23,4.1,4.1,0,0,1-1.61,1.56A4.86,4.86,0,0,1,302.61,187.21Zm.43-2.5a3.06,3.06,0,0,0,2.36-1,3.61,3.61,0,0,0,.91-2.52,4,4,0,0,0-.41-1.83,3,3,0,0,0-1.15-1.22,3.08,3.08,0,0,0-1.71-.46,3.16,3.16,0,0,0-2.85,1.68,4.27,4.27,0,0,0,0,3.65,3.38,3.38,0,0,0,1.15,1.25A3.31,3.31,0,0,0,303,184.71Zm3.1,2.26v-3.1l.46-2.81-.46-2.78v-8.59h2.64V187Zm10.85.24a6,6,0,0,1-3.05-.8,6.15,6.15,0,0,1-2.18-2.18,6,6,0,0,1-.79-3,5.79,5.79,0,0,1,.79-3,6,6,0,0,1,2.18-2.14,5.87,5.87,0,0,1,3.05-.81,6,6,0,0,1,3.07.79,5.89,5.89,0,0,1,2.16,2.16,5.63,5.63,0,0,1,.82,3,5.79,5.79,0,0,1-.82,3,5.9,5.9,0,0,1-5.23,3Zm0-2.55a3.37,3.37,0,0,0,1.73-.43,3,3,0,0,0,1.17-1.25,3.69,3.69,0,0,0,.44-1.8,3.52,3.52,0,0,0-.44-1.77,3,3,0,0,0-1.17-1.2,3.2,3.2,0,0,0-1.73-.46,3.27,3.27,0,0,0-1.73.46,3,3,0,0,0-1.17,1.2,3.62,3.62,0,0,0-.41,1.77,3.79,3.79,0,0,0,.41,1.8,3.2,3.2,0,0,0,1.17,1.25A3.44,3.44,0,0,0,317,184.66ZM328.47,187l6.91-16.8h1.92l6.87,16.8h-3l-5.37-13.61h1L331.4,187Zm3.41-3.24v-2.4h8.9v2.4Zm18.64,3.48a5.27,5.27,0,0,1-2.62-.65,4.83,4.83,0,0,1-1.78-1.78,5.53,5.53,0,0,1-.62-2.64v-6.69h2.64V182a3.67,3.67,0,0,0,.26,1.44,2.14,2.14,0,0,0,.82.89,2.58,2.58,0,0,0,1.3.31,2.23,2.23,0,0,0,1.75-.67,2.87,2.87,0,0,0,.62-2v-6.57h2.64v6.69a5.28,5.28,0,0,1-.65,2.67,4.51,4.51,0,0,1-1.75,1.77A5.25,5.25,0,0,1,350.52,187.21Zm9.42-.24V170.65h2.64V187Zm-2.76-9.12v-2.4h8.16v2.4Zm15,9.36a6,6,0,0,1-3-.8,6.15,6.15,0,0,1-2.18-2.18,6,6,0,0,1-.79-3,5.79,5.79,0,0,1,.79-3,6,6,0,0,1,2.18-2.14,5.87,5.87,0,0,1,3-.81,6,6,0,0,1,3.07.79,5.89,5.89,0,0,1,2.16,2.16,5.72,5.72,0,0,1,.82,3,5.88,5.88,0,0,1-.82,3,5.9,5.9,0,0,1-5.23,3Zm0-2.55a3.39,3.39,0,0,0,1.73-.43,3,3,0,0,0,1.17-1.25,3.69,3.69,0,0,0,.43-1.8,3.52,3.52,0,0,0-.43-1.77,3.07,3.07,0,0,0-1.17-1.2,3.22,3.22,0,0,0-1.73-.46,3.27,3.27,0,0,0-1.73.46,3,3,0,0,0-1.18,1.2,3.73,3.73,0,0,0-.4,1.77,3.91,3.91,0,0,0,.4,1.8,3.23,3.23,0,0,0,1.18,1.25A3.44,3.44,0,0,0,372.21,184.66Z"/><path class="cls-2" d="M0,288.83V272H2.76v16.8Zm13.93,0v-6.65a2.56,2.56,0,0,0-.74-1.9,2.5,2.5,0,0,0-1.87-.74,2.7,2.7,0,0,0-1.37.34,2.4,2.4,0,0,0-.94.93,2.8,2.8,0,0,0-.33,1.37l-1-.58a4.61,4.61,0,0,1,.57-2.32,4.1,4.1,0,0,1,1.59-1.61,4.46,4.46,0,0,1,2.3-.6,4,4,0,0,1,2.3.67,4.63,4.63,0,0,1,1.59,1.7,4.42,4.42,0,0,1,.57,2.16v7.23Zm-7.89,0V277.31H8.68v11.52Zm14.83,0V272.51h2.64v16.32Zm-2.76-9.12v-2.4h8.16v2.4Zm15.1,9.36a6.38,6.38,0,0,1-3.12-.77,5.9,5.9,0,0,1-3-5.23,5.87,5.87,0,0,1,6-6,5.4,5.4,0,0,1,2.83.74,5.21,5.21,0,0,1,1.94,2,6,6,0,0,1,.72,2.95,3,3,0,0,1-.05.6,4.2,4.2,0,0,1-.09.65H29v-2.16h8.09l-1,.87a4.53,4.53,0,0,0-.41-1.78,2.55,2.55,0,0,0-1-1.1,3.1,3.1,0,0,0-1.61-.39,3.49,3.49,0,0,0-1.75.43,3,3,0,0,0-1.16,1.23,4.42,4.42,0,0,0,0,3.74,3.05,3.05,0,0,0,1.22,1.27,3.75,3.75,0,0,0,1.83.44,4.16,4.16,0,0,0,1.63-.32,3.3,3.3,0,0,0,1.29-.91l1.68,1.71a5.37,5.37,0,0,1-2,1.48A6.4,6.4,0,0,1,33.21,289.07Zm7.47-.24V277.31h2.64v11.52Zm2.64-6.41-.91-.46a5.91,5.91,0,0,1,1-3.52,3.37,3.37,0,0,1,3-1.37,3.71,3.71,0,0,1,1.56.31,3.77,3.77,0,0,1,1.3,1l-1.73,1.77a1.91,1.91,0,0,0-.7-.48,2.64,2.64,0,0,0-.89-.14,2.5,2.5,0,0,0-1.82.7A2.91,2.91,0,0,0,43.32,282.42Zm7.13,6.41V271.55h2.64v17.28Zm5.6,0V277.31h2.64v11.52Zm1.32-13.63a1.54,1.54,0,0,1-1.12-.46,1.57,1.57,0,0,1-.44-1.13,1.59,1.59,0,0,1,.44-1.13,1.53,1.53,0,0,1,1.12-.45,1.49,1.49,0,0,1,1.13.45,1.58,1.58,0,0,1,.43,1.13,1.56,1.56,0,0,1-.43,1.13A1.5,1.5,0,0,1,57.37,275.2Zm12.18,13.63v-6.65a2.6,2.6,0,0,0-.74-1.9,2.52,2.52,0,0,0-1.87-.74,2.68,2.68,0,0,0-1.37.34,2.4,2.4,0,0,0-.94.93,2.8,2.8,0,0,0-.33,1.37l-1-.58a4.62,4.62,0,0,1,.58-2.32,4.08,4.08,0,0,1,1.58-1.61,4.52,4.52,0,0,1,2.31-.6,4,4,0,0,1,2.3.67,4.72,4.72,0,0,1,1.59,1.7,4.42,4.42,0,0,1,.57,2.16v7.23Zm-7.89,0V277.31H64.3v11.52Zm18.57.24a6.33,6.33,0,0,1-3.12-.77,5.85,5.85,0,0,1-3-5.23,5.87,5.87,0,0,1,6-6,5.38,5.38,0,0,1,2.83.74,5.24,5.24,0,0,1,2,2,6,6,0,0,1,.72,2.95,4,4,0,0,1,0,.6,6.11,6.11,0,0,1-.1.65H76v-2.16h8.09l-1,.87a4.37,4.37,0,0,0-.41-1.78,2.5,2.5,0,0,0-1-1.1,3.07,3.07,0,0,0-1.61-.39,3.52,3.52,0,0,0-1.75.43,3,3,0,0,0-1.15,1.23,3.92,3.92,0,0,0-.41,1.85,4.05,4.05,0,0,0,.43,1.89,3.07,3.07,0,0,0,1.23,1.27,3.71,3.71,0,0,0,1.82.44,4.12,4.12,0,0,0,1.63-.32,3.26,3.26,0,0,0,1.3-.91l1.68,1.71a5.37,5.37,0,0,1-2,1.48A6.44,6.44,0,0,1,80.23,289.07Zm12.29,0a5.29,5.29,0,0,1-2.83-.79,5.8,5.8,0,0,1-2-2.14,6.82,6.82,0,0,1,0-6.1,5.78,5.78,0,0,1,2-2.16,5.14,5.14,0,0,1,2.83-.81,4.68,4.68,0,0,1,2.33.57,4.18,4.18,0,0,1,2.23,3.77v3.31a4.22,4.22,0,0,1-.6,2.24,4.31,4.31,0,0,1-1.61,1.56A5,5,0,0,1,92.52,289.07Zm.43-2.5a3,3,0,0,0,2.35-1,3.56,3.56,0,0,0,.91-2.52,4,4,0,0,0-.4-1.83A3,3,0,0,0,94.65,280a3.13,3.13,0,0,0-1.7-.46,3.2,3.2,0,0,0-1.7.46,3.24,3.24,0,0,0-1.16,1.22,4,4,0,0,0-.4,1.83,3.93,3.93,0,0,0,.4,1.82,3.33,3.33,0,0,0,1.16,1.25A3.28,3.28,0,0,0,93,286.57Zm3.1,2.26v-3.1l.45-2.81-.45-2.78v-2.83h2.64v11.52Zm10.39.24a5.32,5.32,0,0,1-2.83-.79,5.78,5.78,0,0,1-2-2.14,6.82,6.82,0,0,1,0-6.1,5.76,5.76,0,0,1,2-2.16,5.16,5.16,0,0,1,2.83-.81,4.65,4.65,0,0,1,2.33.57,4.17,4.17,0,0,1,1.63,1.54,4.21,4.21,0,0,1,.6,2.23v3.31a4.28,4.28,0,0,1-2.21,3.8A5,5,0,0,1,106.44,289.07Zm.43-2.5a3.06,3.06,0,0,0,2.36-1,3.61,3.61,0,0,0,.91-2.52,4,4,0,0,0-.41-1.83,3,3,0,0,0-1.15-1.22,3.16,3.16,0,0,0-1.71-.46,3.2,3.2,0,0,0-1.7.46,3.15,3.15,0,0,0-1.15,1.22,4,4,0,0,0-.41,1.83,3.94,3.94,0,0,0,.41,1.82,3.23,3.23,0,0,0,1.15,1.25A3.28,3.28,0,0,0,106.87,286.57Zm3.1,2.26v-3.1l.46-2.81-.46-2.78v-8.59h2.64v17.28Zm10.85.24a6.05,6.05,0,0,1-3-.79,6.26,6.26,0,0,1-2.18-2.19,6,6,0,0,1-.8-3,5.83,5.83,0,0,1,.8-3,6,6,0,0,1,2.18-2.14,5.87,5.87,0,0,1,3-.81,6,6,0,0,1,3.07.79,5.89,5.89,0,0,1,2.16,2.16,5.75,5.75,0,0,1,.82,3,5.88,5.88,0,0,1-.82,3,5.85,5.85,0,0,1-5.23,3Zm0-2.55a3.39,3.39,0,0,0,1.73-.43,3,3,0,0,0,1.17-1.25,3.63,3.63,0,0,0,.43-1.8,3.52,3.52,0,0,0-.43-1.77,3.26,3.26,0,0,0-2.9-1.66,3.27,3.27,0,0,0-1.73.46,3.16,3.16,0,0,0-1.18,1.2,3.73,3.73,0,0,0-.4,1.77,3.85,3.85,0,0,0,.4,1.8,3.23,3.23,0,0,0,1.18,1.25A3.44,3.44,0,0,0,120.82,286.52Zm12.26.68,6.19-6.58a18.78,18.78,0,0,0,1.25-1.46,5.35,5.35,0,0,0,.69-1.23,3.15,3.15,0,0,0,.22-1.17,2.16,2.16,0,0,0-.75-1.76,2.65,2.65,0,0,0-1.85-.64,3.75,3.75,0,0,0-2.11.6,5.25,5.25,0,0,0-1.63,1.87l-1.92-1.59a6.91,6.91,0,0,1,2.43-2.56,6.12,6.12,0,0,1,3.33-.89,5.86,5.86,0,0,1,2.74.62,4.51,4.51,0,0,1,1.82,1.75,5,5,0,0,1,.65,2.57,6.51,6.51,0,0,1-.26,1.9,5.41,5.41,0,0,1-.85,1.65,19.22,19.22,0,0,1-1.65,1.92l-4.75,4.92Zm0,1.63V287.2l2.37-.84h9v2.47Zm13-6,6-10.8h3.13L149,282.83Zm0,1.68v-1.68l1.18-.79h11.85v2.47Zm8,4.32v-11h2.71v11Zm13.36.24a5,5,0,0,1-2.36-.55A4.52,4.52,0,0,1,163.4,287a4.39,4.39,0,0,1-.57-2.24v-3.31a4.21,4.21,0,0,1,.6-2.23,4.17,4.17,0,0,1,1.63-1.54,4.73,4.73,0,0,1,2.33-.57,5,5,0,0,1,2.8.81,5.55,5.55,0,0,1,2,2.16,6.66,6.66,0,0,1,0,6.1,5.57,5.57,0,0,1-2,2.14A5.16,5.16,0,0,1,167.39,289.07Zm-.44-2.5a3.18,3.18,0,0,0,1.68-.43,3.11,3.11,0,0,0,1.16-1.25,3.82,3.82,0,0,0,.43-1.82,3.86,3.86,0,0,0-.43-1.83,3,3,0,0,0-1.16-1.22,3.11,3.11,0,0,0-1.68-.46,3.23,3.23,0,0,0-1.7.46,2.94,2.94,0,0,0-1.15,1.22,4,4,0,0,0-.41,1.83,3.94,3.94,0,0,0,.41,1.82,3,3,0,0,0,1.15,1.25A3.31,3.31,0,0,0,167,286.57Zm-5.73,7.06V277.31h2.64v3.09l-.46,2.81.46,2.79v7.63Zm20.89-4.8L178.8,284l-.48-.44-4.47-6.21H177l3,4.27.45.41,4.83,6.84Zm-8.47,0,4.65-6.46,1.54,1.9-3.12,4.56Zm7.05-5.35-1.56-1.88,2.88-4.29h3.05Zm6.33,8.16,1.64-3.05.88-.24a1.93,1.93,0,0,1-.33.48.62.62,0,0,1-.46.19,1.45,1.45,0,0,1-1-.46,1.65,1.65,0,0,1-.46-1.2,1.78,1.78,0,0,1,.51-1.29,1.7,1.7,0,0,1,1.29-.55,1.66,1.66,0,0,1,1.25.55,1.7,1.7,0,0,1,.55,1.29,2.32,2.32,0,0,1-.14.75,5.89,5.89,0,0,1-.46,1.05l-1.77,3.27Zm11.46-2.81V277.31h2.64v11.52Zm1.32-13.63a1.54,1.54,0,0,1-1.12-.46,1.57,1.57,0,0,1-.44-1.13,1.59,1.59,0,0,1,.44-1.13,1.53,1.53,0,0,1,1.12-.45,1.49,1.49,0,0,1,1.13.45,1.58,1.58,0,0,1,.43,1.13,1.56,1.56,0,0,1-.43,1.13A1.5,1.5,0,0,1,199.8,275.2ZM212,288.83v-6.65a2.6,2.6,0,0,0-.74-1.9,2.52,2.52,0,0,0-1.88-.74,2.67,2.67,0,0,0-1.36.34,2.34,2.34,0,0,0-.94.93,2.81,2.81,0,0,0-.34,1.37l-1-.58a4.52,4.52,0,0,1,.58-2.32,4.08,4.08,0,0,1,1.58-1.61,4.52,4.52,0,0,1,2.31-.6,4,4,0,0,1,2.3.67,4.72,4.72,0,0,1,1.59,1.7,4.42,4.42,0,0,1,.57,2.16v7.23Zm-7.9,0V277.31h2.64v11.52Zm14.83,0V272.51h2.64v16.32Zm-2.75-9.12v-2.4h8.16v2.4Zm15.1,9.36a6.38,6.38,0,0,1-3.12-.77,5.85,5.85,0,0,1-3-5.23A6,6,0,0,1,226,280a5.84,5.84,0,0,1,5.16-2.95,5.42,5.42,0,0,1,2.84.74,5.21,5.21,0,0,1,1.94,2,6,6,0,0,1,.72,2.95,4,4,0,0,1-.05.6,5.91,5.91,0,0,1-.09.65H227v-2.16h8.09l-1,.87a4.37,4.37,0,0,0-.4-1.78,2.52,2.52,0,0,0-1-1.1,3,3,0,0,0-1.6-.39,3.53,3.53,0,0,0-1.76.43,3,3,0,0,0-1.15,1.23,4.33,4.33,0,0,0,0,3.74,3,3,0,0,0,1.22,1.27,3.74,3.74,0,0,0,1.82.44,4.17,4.17,0,0,0,1.64-.32,3.3,3.3,0,0,0,1.29-.91l1.68,1.71a5.37,5.37,0,0,1-2,1.48A6.44,6.44,0,0,1,231.26,289.07Zm7.47-.24V277.31h2.64v11.52Zm2.64-6.41-.92-.46a5.91,5.91,0,0,1,1-3.52,3.39,3.39,0,0,1,3-1.37,3.78,3.78,0,0,1,1.56.31,3.74,3.74,0,0,1,1.29,1l-1.73,1.77a1.88,1.88,0,0,0-.69-.48,2.68,2.68,0,0,0-.89-.14,2.48,2.48,0,0,0-1.82.7A2.91,2.91,0,0,0,241.37,282.42Zm7.13,6.41V271.55h2.64v17.28Zm10.93.24a6.38,6.38,0,0,1-3.12-.77,5.9,5.9,0,0,1-3-5.23,5.87,5.87,0,0,1,6-6,5.4,5.4,0,0,1,2.83.74,5.21,5.21,0,0,1,1.94,2,6,6,0,0,1,.72,2.95,3,3,0,0,1,0,.6,4.2,4.2,0,0,1-.09.65h-9.46v-2.16h8.09l-1,.87a4.53,4.53,0,0,0-.41-1.78,2.55,2.55,0,0,0-1-1.1,3.1,3.1,0,0,0-1.61-.39,3.49,3.49,0,0,0-1.75.43,3,3,0,0,0-1.16,1.23,4.42,4.42,0,0,0,0,3.74,3.05,3.05,0,0,0,1.22,1.27,3.75,3.75,0,0,0,1.83.44,4.16,4.16,0,0,0,1.63-.32,3.3,3.3,0,0,0,1.29-.91l1.68,1.71a5.37,5.37,0,0,1-2,1.48A6.4,6.4,0,0,1,259.43,289.07Zm8.92-.24V272.51H271v16.32Zm-2.77-9.12v-2.4h8.17v2.4Zm10.08,9.12V277.31h2.64v11.52Zm2.64-6.41-.91-.46a5.91,5.91,0,0,1,1-3.52,3.38,3.38,0,0,1,2.95-1.37,3.71,3.71,0,0,1,1.56.31,3.68,3.68,0,0,1,1.3,1l-1.73,1.77a1.91,1.91,0,0,0-.7-.48,2.62,2.62,0,0,0-.88-.14,2.5,2.5,0,0,0-1.83.7A2.91,2.91,0,0,0,278.3,282.42Zm11.61,6.65a5.29,5.29,0,0,1-2.83-.79,5.88,5.88,0,0,1-2-2.14,6.82,6.82,0,0,1,0-6.1,5.87,5.87,0,0,1,2-2.16,5.14,5.14,0,0,1,2.83-.81,4.65,4.65,0,0,1,2.33.57,4.18,4.18,0,0,1,2.23,3.77v3.31a4.22,4.22,0,0,1-.6,2.24,4.31,4.31,0,0,1-1.61,1.56A5,5,0,0,1,289.91,289.07Zm.43-2.5a3,3,0,0,0,2.35-1,3.56,3.56,0,0,0,.91-2.52,4,4,0,0,0-.4-1.83A3,3,0,0,0,292,280a3.11,3.11,0,0,0-1.7-.46,3.2,3.2,0,0,0-1.7.46,3.24,3.24,0,0,0-1.16,1.22,4,4,0,0,0-.4,1.83,3.93,3.93,0,0,0,.4,1.82,3.33,3.33,0,0,0,1.16,1.25A3.28,3.28,0,0,0,290.34,286.57Zm3.1,2.26v-3.1l.45-2.81-.45-2.78v-2.83h2.64v11.52Zm10.39.24a5.32,5.32,0,0,1-2.83-.79,5.78,5.78,0,0,1-2-2.14,6.82,6.82,0,0,1,0-6.1,5.76,5.76,0,0,1,2-2.16,5.16,5.16,0,0,1,2.83-.81,4.65,4.65,0,0,1,2.33.57,4.17,4.17,0,0,1,1.63,1.54,4.21,4.21,0,0,1,.6,2.23v3.31a4.28,4.28,0,0,1-2.21,3.8A5,5,0,0,1,303.83,289.07Zm.43-2.5a3,3,0,0,0,2.35-1,3.57,3.57,0,0,0,.92-2.52,4,4,0,0,0-.41-1.83A3,3,0,0,0,306,280a3.16,3.16,0,0,0-1.71-.46,3.16,3.16,0,0,0-2.85,1.68,4,4,0,0,0-.41,1.83,3.94,3.94,0,0,0,.41,1.82,3,3,0,0,0,2.85,1.68Zm3.1,2.26v-3.1l.46-2.81-.46-2.78v-8.59H310v17.28Zm10.85.24a6.05,6.05,0,0,1-3-.79,6.26,6.26,0,0,1-2.18-2.19,6,6,0,0,1-.79-3,5.82,5.82,0,0,1,.79-3,6,6,0,0,1,2.18-2.14,5.87,5.87,0,0,1,3-.81,6,6,0,0,1,3.07.79,5.89,5.89,0,0,1,2.16,2.16,5.75,5.75,0,0,1,.82,3,5.88,5.88,0,0,1-.82,3,5.85,5.85,0,0,1-5.23,3Zm0-2.55a3.39,3.39,0,0,0,1.73-.43,3,3,0,0,0,1.17-1.25,3.63,3.63,0,0,0,.43-1.8,3.52,3.52,0,0,0-.43-1.77,3.26,3.26,0,0,0-2.9-1.66,3.27,3.27,0,0,0-1.73.46,3.16,3.16,0,0,0-1.18,1.2,3.73,3.73,0,0,0-.4,1.77,3.85,3.85,0,0,0,.4,1.8,3.23,3.23,0,0,0,1.18,1.25A3.44,3.44,0,0,0,318.21,286.52Zm11.48,2.31L336.6,272h1.92l6.87,16.8h-3L337,275.22h1l-5.42,13.61Zm3.41-3.24v-2.4H342v2.4Zm18.63,3.48a5.26,5.26,0,0,1-2.61-.65,4.68,4.68,0,0,1-1.78-1.78,5.48,5.48,0,0,1-.62-2.64v-6.69h2.64v6.57a3.67,3.67,0,0,0,.26,1.44,2.14,2.14,0,0,0,.82.89,2.57,2.57,0,0,0,1.29.31,2.23,2.23,0,0,0,1.76-.67,2.87,2.87,0,0,0,.62-2v-6.57h2.64V284a5.28,5.28,0,0,1-.65,2.67,4.51,4.51,0,0,1-1.75,1.77A5.26,5.26,0,0,1,351.73,289.07Zm9.43-.24V272.51h2.64v16.32Zm-2.76-9.12v-2.4h8.16v2.4Zm15,9.36a6.05,6.05,0,0,1-3.05-.79,6.26,6.26,0,0,1-2.18-2.19,6,6,0,0,1-.8-3,5.83,5.83,0,0,1,.8-3,6,6,0,0,1,2.18-2.14,5.87,5.87,0,0,1,3.05-.81,6,6,0,0,1,3.07.79,5.89,5.89,0,0,1,2.16,2.16,5.75,5.75,0,0,1,.82,3,5.88,5.88,0,0,1-.82,3,5.85,5.85,0,0,1-5.23,3Zm0-2.55a3.39,3.39,0,0,0,1.73-.43,3,3,0,0,0,1.17-1.25,3.63,3.63,0,0,0,.43-1.8,3.52,3.52,0,0,0-.43-1.77,3.26,3.26,0,0,0-2.9-1.66,3.27,3.27,0,0,0-1.73.46,3.16,3.16,0,0,0-1.18,1.2,3.73,3.73,0,0,0-.4,1.77,3.85,3.85,0,0,0,.4,1.8,3.23,3.23,0,0,0,1.18,1.25A3.44,3.44,0,0,0,373.43,286.52Z"/><path class="cls-2" d="M0,383.22v-16.8H2.76v16.8Zm13.93,0v-6.64a2.56,2.56,0,0,0-.74-1.9,2.46,2.46,0,0,0-1.87-.74,2.8,2.8,0,0,0-1.37.33,2.5,2.5,0,0,0-.94.94,2.78,2.78,0,0,0-.33,1.37l-1-.58a4.65,4.65,0,0,1,.57-2.33,4.17,4.17,0,0,1,1.59-1.61,4.46,4.46,0,0,1,2.3-.6,4,4,0,0,1,2.3.68,4.63,4.63,0,0,1,1.59,1.7,4.42,4.42,0,0,1,.57,2.16v7.22Zm-7.89,0V371.7H8.68v11.52Zm14.83,0V366.9h2.64v16.32Zm-2.76-9.12v-2.4h8.16v2.4Zm15.1,9.36a6.38,6.38,0,0,1-3.12-.76,5.9,5.9,0,0,1-3-5.24,5.85,5.85,0,0,1,.8-3A5.74,5.74,0,0,1,30,372.26a5.91,5.91,0,0,1,3-.8,5.32,5.32,0,0,1,2.83.75,5.08,5.08,0,0,1,1.94,2,6,6,0,0,1,.72,2.95,3.17,3.17,0,0,1-.05.6,4.37,4.37,0,0,1-.09.65H29v-2.16h8.09l-1,.86a4.52,4.52,0,0,0-.41-1.77,2.64,2.64,0,0,0-1-1.11,3.2,3.2,0,0,0-1.61-.38,3.39,3.39,0,0,0-1.75.43,3,3,0,0,0-1.16,1.22,4,4,0,0,0-.4,1.85,4,4,0,0,0,.43,1.9,3.11,3.11,0,0,0,1.22,1.27,3.75,3.75,0,0,0,1.83.43,4.15,4.15,0,0,0,1.63-.31,3.4,3.4,0,0,0,1.29-.91l1.68,1.7a5.39,5.39,0,0,1-2,1.49A6.4,6.4,0,0,1,33.21,383.46Zm7.47-.24V371.7h2.64v11.52Zm2.64-6.4-.91-.46a6,6,0,0,1,1-3.53,3.4,3.4,0,0,1,3-1.37,3.6,3.6,0,0,1,2.86,1.32l-1.73,1.78a1.91,1.91,0,0,0-.7-.48,2.41,2.41,0,0,0-.89-.14,2.53,2.53,0,0,0-1.82.69A2.93,2.93,0,0,0,43.32,376.82Zm7.13,6.4V365.94h2.64v17.28Zm5.6,0V371.7h2.64v11.52Zm1.32-13.63a1.53,1.53,0,0,1-1.12-.45,1.59,1.59,0,0,1-.44-1.13,1.57,1.57,0,0,1,.44-1.13,1.54,1.54,0,0,1,1.12-.46,1.5,1.5,0,0,1,1.13.46,1.56,1.56,0,0,1,.43,1.13,1.58,1.58,0,0,1-.43,1.13A1.49,1.49,0,0,1,57.37,369.59Zm12.18,13.63v-6.64a2.6,2.6,0,0,0-.74-1.9,2.48,2.48,0,0,0-1.87-.74,2.78,2.78,0,0,0-1.37.33,2.5,2.5,0,0,0-.94.94,2.78,2.78,0,0,0-.33,1.37l-1-.58a4.65,4.65,0,0,1,.58-2.33,4.14,4.14,0,0,1,1.58-1.61,4.52,4.52,0,0,1,2.31-.6,4,4,0,0,1,2.3.68,4.72,4.72,0,0,1,1.59,1.7,4.42,4.42,0,0,1,.57,2.16v7.22Zm-7.89,0V371.7H64.3v11.52Zm18.57.24a6.32,6.32,0,0,1-3.12-.76,5.85,5.85,0,0,1-3-5.24,5.84,5.84,0,0,1,.79-3,5.76,5.76,0,0,1,2.14-2.16,5.9,5.9,0,0,1,3-.8,5.29,5.29,0,0,1,2.83.75,5.11,5.11,0,0,1,2,2,6,6,0,0,1,.72,2.95,4.28,4.28,0,0,1,0,.6,6.52,6.52,0,0,1-.1.65H76v-2.16h8.09l-1,.86a4.36,4.36,0,0,0-.41-1.77,2.57,2.57,0,0,0-1-1.11,3.17,3.17,0,0,0-1.61-.38,3.41,3.41,0,0,0-1.75.43,3,3,0,0,0-1.15,1.22,4,4,0,0,0-.41,1.85,4.12,4.12,0,0,0,.43,1.9,3.13,3.13,0,0,0,1.23,1.27,3.71,3.71,0,0,0,1.82.43,4.12,4.12,0,0,0,1.63-.31,3.36,3.36,0,0,0,1.3-.91l1.68,1.7a5.39,5.39,0,0,1-2,1.49A6.43,6.43,0,0,1,80.23,383.46Zm12.29,0a5.2,5.2,0,0,1-2.83-.79,5.85,5.85,0,0,1-2-2.13,6.47,6.47,0,0,1-.72-3.05,6.36,6.36,0,0,1,.72-3.05,5.78,5.78,0,0,1,2-2.16,5.15,5.15,0,0,1,2.83-.82,4.68,4.68,0,0,1,2.33.58,4.23,4.23,0,0,1,1.63,1.54,4.18,4.18,0,0,1,.6,2.23v3.31a4.28,4.28,0,0,1-2.21,3.79A4.88,4.88,0,0,1,92.52,383.46ZM93,381a3,3,0,0,0,2.35-1,3.53,3.53,0,0,0,.91-2.52,4,4,0,0,0-.4-1.82,2.91,2.91,0,0,0-1.16-1.22A3,3,0,0,0,93,374a3.19,3.19,0,0,0-2.86,1.68,4.36,4.36,0,0,0,0,3.65A3,3,0,0,0,93,381Zm3.1,2.25v-3.09l.45-2.81-.45-2.78V371.7h2.64v11.52Zm10.39.24a5.23,5.23,0,0,1-2.83-.79,5.82,5.82,0,0,1-2-2.13,6.47,6.47,0,0,1-.72-3.05,6.36,6.36,0,0,1,.72-3.05,5.76,5.76,0,0,1,2-2.16,5.17,5.17,0,0,1,2.83-.82,4.65,4.65,0,0,1,2.33.58,4.18,4.18,0,0,1,2.23,3.77v3.31a4.18,4.18,0,0,1-.6,2.23,4.1,4.1,0,0,1-1.61,1.56A4.85,4.85,0,0,1,106.44,383.46Zm.43-2.49a3,3,0,0,0,2.36-1,3.57,3.57,0,0,0,.91-2.52,4,4,0,0,0-.41-1.82,2.89,2.89,0,0,0-1.15-1.22,3.08,3.08,0,0,0-1.71-.46,3.12,3.12,0,0,0-1.7.46,3,3,0,0,0-1.15,1.22,4.27,4.27,0,0,0,0,3.65,3.3,3.3,0,0,0,1.15,1.25A3.38,3.38,0,0,0,106.87,381Zm3.1,2.25v-3.09l.46-2.81-.46-2.78v-8.6h2.64v17.28Zm10.85.24a6,6,0,0,1-3-.79,6.15,6.15,0,0,1-2.18-2.18,6,6,0,0,1-.8-3.05,5.8,5.8,0,0,1,.8-3,6,6,0,0,1,2.18-2.14,5.88,5.88,0,0,1,3-.82,6,6,0,0,1,3.07.8,6,6,0,0,1,3,5.18,5.88,5.88,0,0,1-.82,3.05,5.87,5.87,0,0,1-5.23,3Zm0-2.54a3.39,3.39,0,0,0,1.73-.43,3.06,3.06,0,0,0,1.17-1.25,3.69,3.69,0,0,0,.43-1.8,3.58,3.58,0,0,0-.43-1.78,3.21,3.21,0,0,0-1.17-1.2,3.31,3.31,0,0,0-1.73-.45,3.36,3.36,0,0,0-1.73.45,3.16,3.16,0,0,0-1.18,1.2,3.8,3.8,0,0,0-.4,1.78,3.91,3.91,0,0,0,.4,1.8,3.3,3.3,0,0,0,1.18,1.25A3.44,3.44,0,0,0,120.82,380.92Zm12.26.67,6.19-6.57c.51-.55.92-1,1.25-1.47a5.31,5.31,0,0,0,.69-1.22,3.24,3.24,0,0,0,.22-1.18,2.16,2.16,0,0,0-.75-1.75,2.66,2.66,0,0,0-1.85-.65,3.75,3.75,0,0,0-2.11.6,5.34,5.34,0,0,0-1.63,1.87l-1.92-1.58a6.94,6.94,0,0,1,2.43-2.57,6.21,6.21,0,0,1,3.33-.89,5.74,5.74,0,0,1,2.74.63,4.45,4.45,0,0,1,1.82,1.75,5,5,0,0,1,.65,2.57,6.49,6.49,0,0,1-.26,1.89,5.35,5.35,0,0,1-.85,1.66,21.77,21.77,0,0,1-1.65,1.92l-4.75,4.92Zm0,1.63v-1.63l2.37-.84h9v2.47Zm13-1.63,6.19-6.57a18.41,18.41,0,0,0,1.25-1.47,5,5,0,0,0,.69-1.22,3.24,3.24,0,0,0,.22-1.18,2.18,2.18,0,0,0-.74-1.75,2.68,2.68,0,0,0-1.85-.65,3.75,3.75,0,0,0-2.11.6,5.25,5.25,0,0,0-1.63,1.87l-1.92-1.58a6.92,6.92,0,0,1,2.42-2.57,6.23,6.23,0,0,1,3.33-.89,5.69,5.69,0,0,1,2.74.63,4.39,4.39,0,0,1,1.82,1.75,4.91,4.91,0,0,1,.65,2.57,6.49,6.49,0,0,1-.26,1.89,5.53,5.53,0,0,1-.84,1.66,20.5,20.5,0,0,1-1.66,1.92l-4.75,4.92Zm0,1.63v-1.63l2.38-.84h9v2.47Zm19.94.24a4.88,4.88,0,0,1-2.35-.55,4.18,4.18,0,0,1-2.21-3.79v-3.31a4.18,4.18,0,0,1,.6-2.23,4.23,4.23,0,0,1,1.63-1.54,4.76,4.76,0,0,1,2.33-.58,5.06,5.06,0,0,1,2.81.82,5.53,5.53,0,0,1,2,2.16,6.16,6.16,0,0,1,.75,3.05,6.26,6.26,0,0,1-.75,3.05,5.58,5.58,0,0,1-2,2.13A5.11,5.11,0,0,1,166,383.46Zm-.43-2.49a3.28,3.28,0,0,0,1.68-.43,3.08,3.08,0,0,0,1.15-1.25,4.09,4.09,0,0,0,0-3.65,2.83,2.83,0,0,0-1.15-1.22,3,3,0,0,0-1.68-.46,3.12,3.12,0,0,0-1.7.46,2.83,2.83,0,0,0-1.15,1.22,4.27,4.27,0,0,0,0,3.65,3.08,3.08,0,0,0,1.15,1.25A3.38,3.38,0,0,0,165.57,381Zm-5.74,7V371.7h2.64v3.1l-.45,2.81.45,2.78V388Zm20.89-4.8-3.31-4.87-.48-.43-4.46-6.22h3.19l3,4.28.46.4,4.82,6.84Zm-8.47,0,4.66-6.45,1.53,1.89-3.11,4.56Zm7.06-5.35L177.75,376l2.88-4.3h3.05Zm6.33,8.16,1.63-3,.89-.24a1.64,1.64,0,0,1-.34.48.61.61,0,0,1-.45.2,1.49,1.49,0,0,1-1-.46,1.65,1.65,0,0,1-.46-1.2,1.85,1.85,0,0,1,.5-1.3,1.78,1.78,0,0,1,1.3-.55,1.7,1.7,0,0,1,1.25.55,1.74,1.74,0,0,1,.55,1.3,2.5,2.5,0,0,1-.14.74,6.39,6.39,0,0,1-.46,1.06l-1.78,3.26Zm11.46-2.81V371.7h2.64v11.52Zm1.32-13.63a1.55,1.55,0,0,1-1.13-.45,1.62,1.62,0,0,1-.43-1.13,1.6,1.6,0,0,1,.43-1.13,1.56,1.56,0,0,1,1.13-.46,1.5,1.5,0,0,1,1.13.46A1.56,1.56,0,0,1,200,368a1.58,1.58,0,0,1-.43,1.13A1.49,1.49,0,0,1,198.42,369.59Zm12.18,13.63v-6.64a2.6,2.6,0,0,0-.74-1.9,2.49,2.49,0,0,0-1.88-.74,2.83,2.83,0,0,0-1.37.33,2.47,2.47,0,0,0-.93.94,2.78,2.78,0,0,0-.34,1.37l-1-.58a4.55,4.55,0,0,1,.58-2.33,4.14,4.14,0,0,1,1.58-1.61,4.51,4.51,0,0,1,2.3-.6,4,4,0,0,1,2.31.68,4.61,4.61,0,0,1,1.58,1.7,4.32,4.32,0,0,1,.58,2.16v7.22Zm-7.9,0V371.7h2.64v11.52Zm14.83,0V366.9h2.64v16.32Zm-2.76-9.12v-2.4h8.16v2.4Zm15.11,9.36a6.39,6.39,0,0,1-3.13-.76,5.87,5.87,0,0,1-3-5.24,5.84,5.84,0,0,1,.79-3,5.76,5.76,0,0,1,2.14-2.16,5.9,5.9,0,0,1,3-.8,5.29,5.29,0,0,1,2.83.75,5.18,5.18,0,0,1,1.95,2,6,6,0,0,1,.72,2.95,4.28,4.28,0,0,1,0,.6,6.52,6.52,0,0,1-.1.65h-9.45v-2.16h8.09l-1,.86a4.36,4.36,0,0,0-.41-1.77,2.57,2.57,0,0,0-1-1.11,3.17,3.17,0,0,0-1.61-.38,3.41,3.41,0,0,0-1.75.43,3,3,0,0,0-1.15,1.22,4,4,0,0,0-.41,1.85,4.12,4.12,0,0,0,.43,1.9,3.13,3.13,0,0,0,1.23,1.27,3.68,3.68,0,0,0,1.82.43,4.12,4.12,0,0,0,1.63-.31,3.36,3.36,0,0,0,1.3-.91l1.68,1.7a5.39,5.39,0,0,1-2,1.49A6.43,6.43,0,0,1,229.88,383.46Zm7.46-.24V371.7H240v11.52Zm2.64-6.4-.91-.46a6,6,0,0,1,1-3.53,3.41,3.41,0,0,1,2.95-1.37,3.72,3.72,0,0,1,1.56.32,3.64,3.64,0,0,1,1.3,1l-1.73,1.78a1.91,1.91,0,0,0-.7-.48,2.39,2.39,0,0,0-.88-.14,2.54,2.54,0,0,0-1.83.69A2.93,2.93,0,0,0,240,376.82Zm7.14,6.4V365.94h2.64v17.28Zm10.93.24a6.32,6.32,0,0,1-3.12-.76,5.85,5.85,0,0,1-3-5.24,5.94,5.94,0,0,1,.79-3,5.76,5.76,0,0,1,2.14-2.16,5.9,5.9,0,0,1,3-.8,5.27,5.27,0,0,1,2.83.75,5,5,0,0,1,1.95,2,6,6,0,0,1,.72,2.95,4.28,4.28,0,0,1,0,.6c0,.19-.05.41-.09.65H253.8v-2.16h8.09l-1,.86a4.53,4.53,0,0,0-.4-1.77,2.6,2.6,0,0,0-1-1.11,3.14,3.14,0,0,0-1.61-.38,3.41,3.41,0,0,0-1.75.43,3,3,0,0,0-1.15,1.22,4,4,0,0,0-.41,1.85,4.12,4.12,0,0,0,.43,1.9,3.13,3.13,0,0,0,1.23,1.27A3.71,3.71,0,0,0,258,381a4.2,4.2,0,0,0,1.64-.31,3.4,3.4,0,0,0,1.29-.91l1.68,1.7a5.39,5.39,0,0,1-2,1.49A6.43,6.43,0,0,1,258.05,383.46Zm8.91-.24V366.9h2.64v16.32Zm-2.76-9.12v-2.4h8.16v2.4Zm10.08,9.12V371.7h2.64v11.52Zm2.64-6.4-.91-.46a6,6,0,0,1,1-3.53,3.41,3.41,0,0,1,2.95-1.37,3.72,3.72,0,0,1,1.56.32,3.64,3.64,0,0,1,1.3,1l-1.73,1.78a1.91,1.91,0,0,0-.7-.48,2.39,2.39,0,0,0-.88-.14,2.54,2.54,0,0,0-1.83.69A2.93,2.93,0,0,0,276.92,376.82Zm11.61,6.64a5.2,5.2,0,0,1-2.83-.79,5.85,5.85,0,0,1-2-2.13,6.47,6.47,0,0,1-.72-3.05,6.36,6.36,0,0,1,.72-3.05,5.78,5.78,0,0,1,2-2.16,5.15,5.15,0,0,1,2.83-.82,4.62,4.62,0,0,1,2.32.58,4.17,4.17,0,0,1,2.24,3.77v3.31a4.28,4.28,0,0,1-2.21,3.79A4.88,4.88,0,0,1,288.53,383.46ZM289,381a3,3,0,0,0,2.35-1,3.53,3.53,0,0,0,.91-2.52,4,4,0,0,0-.4-1.82,2.91,2.91,0,0,0-1.16-1.22A3.07,3.07,0,0,0,289,374a3.12,3.12,0,0,0-1.7.46,3,3,0,0,0-1.16,1.22,4.36,4.36,0,0,0,0,3.65,3.33,3.33,0,0,0,1.16,1.25A3.38,3.38,0,0,0,289,381Zm3.09,2.25v-3.09l.46-2.81-.46-2.78V371.7h2.65v11.52Zm10.4.24a5.2,5.2,0,0,1-2.83-.79,5.85,5.85,0,0,1-2-2.13,6.47,6.47,0,0,1-.72-3.05,6.36,6.36,0,0,1,.72-3.05,5.78,5.78,0,0,1,2-2.16,5.15,5.15,0,0,1,2.83-.82,4.68,4.68,0,0,1,2.33.58,4.23,4.23,0,0,1,1.63,1.54,4.18,4.18,0,0,1,.6,2.23v3.31a4.28,4.28,0,0,1-2.21,3.79A4.88,4.88,0,0,1,302.45,383.46Zm.43-2.49a3,3,0,0,0,2.35-1,3.53,3.53,0,0,0,.91-2.52,4,4,0,0,0-.4-1.82,2.91,2.91,0,0,0-1.16-1.22,3,3,0,0,0-1.7-.46,3.19,3.19,0,0,0-2.86,1.68,4.36,4.36,0,0,0,0,3.65,3,3,0,0,0,2.86,1.68Zm3.1,2.25v-3.09l.45-2.81-.45-2.78v-8.6h2.64v17.28Zm10.85.24a6,6,0,0,1-3.05-.79,6.26,6.26,0,0,1-2.19-2.18,6.05,6.05,0,0,1-.79-3.05,5.89,5.89,0,0,1,.79-3,6.15,6.15,0,0,1,2.19-2.14,5.88,5.88,0,0,1,3.05-.82,6,6,0,0,1,3.07.8,6,6,0,0,1,3,5.18,5.87,5.87,0,0,1-.81,3.05,5.87,5.87,0,0,1-5.23,3Zm0-2.54a3.33,3.33,0,0,0,1.72-.43,3,3,0,0,0,1.18-1.25,3.69,3.69,0,0,0,.43-1.8,3.58,3.58,0,0,0-.43-1.78,3.16,3.16,0,0,0-1.18-1.2,3.24,3.24,0,0,0-1.72-.45,3.36,3.36,0,0,0-1.73.45,3.16,3.16,0,0,0-1.18,1.2,3.8,3.8,0,0,0-.41,1.78,3.91,3.91,0,0,0,.41,1.8,3.3,3.3,0,0,0,1.18,1.25A3.44,3.44,0,0,0,316.83,380.92Zm11.48,2.3,6.91-16.8h1.92l6.86,16.8h-3l-5.38-13.6h1l-5.43,13.6Zm3.41-3.24v-2.4h8.9V380Zm18.63,3.48a5.23,5.23,0,0,1-2.61-.64A4.75,4.75,0,0,1,346,381a5.42,5.42,0,0,1-.62-2.64v-6.7H348v6.58a3.5,3.5,0,0,0,.26,1.44,2.08,2.08,0,0,0,.82.89,2.54,2.54,0,0,0,1.29.31,2.21,2.21,0,0,0,1.75-.67,2.84,2.84,0,0,0,.63-2V371.7h2.64v6.7a5.32,5.32,0,0,1-.65,2.66,4.54,4.54,0,0,1-1.75,1.78A5.29,5.29,0,0,1,350.35,383.46Zm9.42-.24V366.9h2.65v16.32ZM357,374.1v-2.4h8.16v2.4Zm15,9.36a5.92,5.92,0,0,1-3-.79,6.18,6.18,0,0,1-2.19-2.18,6.05,6.05,0,0,1-.79-3.05,5.89,5.89,0,0,1,.79-3,6.07,6.07,0,0,1,2.19-2.14,5.84,5.84,0,0,1,3-.82,6,6,0,0,1,3.08.8,6,6,0,0,1,3,5.18,5.87,5.87,0,0,1-.81,3.05,5.87,5.87,0,0,1-5.24,3Zm0-2.54a3.34,3.34,0,0,0,1.73-.43,3,3,0,0,0,1.18-1.25,3.69,3.69,0,0,0,.43-1.8,3.58,3.58,0,0,0-.43-1.78,3.16,3.16,0,0,0-1.18-1.2A3.26,3.26,0,0,0,372,374a3.35,3.35,0,0,0-1.72.45,3.16,3.16,0,0,0-1.18,1.2,3.8,3.8,0,0,0-.41,1.78,3.91,3.91,0,0,0,.41,1.8,3.3,3.3,0,0,0,1.18,1.25A3.43,3.43,0,0,0,372,380.92Z"/><path class="cls-2" d="M0,472v-16.8H2.76V472Zm13.93,0v-6.65a2.52,2.52,0,0,0-.74-1.89,2.47,2.47,0,0,0-1.87-.75,2.7,2.7,0,0,0-1.37.34A2.4,2.4,0,0,0,9,464a2.8,2.8,0,0,0-.33,1.37l-1-.57a4.65,4.65,0,0,1,.57-2.33,4.1,4.1,0,0,1,1.59-1.61,4.46,4.46,0,0,1,2.3-.6,4,4,0,0,1,2.3.67A4.58,4.58,0,0,1,16,462.66a4.36,4.36,0,0,1,.57,2.16V472ZM6,472V460.52H8.68V472Zm14.83,0V455.72h2.64V472Zm-2.76-9.12v-2.4h8.16v2.4Zm15.1,9.36a6.38,6.38,0,0,1-3.12-.77,5.9,5.9,0,0,1-3-5.23,5.87,5.87,0,0,1,6-6,5.4,5.4,0,0,1,2.83.74,5.21,5.21,0,0,1,1.94,2,6,6,0,0,1,.72,3,3.17,3.17,0,0,1-.05.6,4.25,4.25,0,0,1-.09.64H29V465.1h8.09l-1,.87a4.53,4.53,0,0,0-.41-1.78,2.55,2.55,0,0,0-1-1.1A3.1,3.1,0,0,0,33,462.7a3.39,3.39,0,0,0-1.75.44,2.91,2.91,0,0,0-1.16,1.22,4.42,4.42,0,0,0,0,3.74,3.14,3.14,0,0,0,1.22,1.28,3.86,3.86,0,0,0,1.83.43,4.34,4.34,0,0,0,1.63-.31,3.43,3.43,0,0,0,1.29-.92l1.68,1.71a5.5,5.5,0,0,1-2,1.49A6.57,6.57,0,0,1,33.21,472.28Zm7.47-.24V460.52h2.64V472Zm2.64-6.41-.91-.45a5.92,5.92,0,0,1,1-3.53,3.4,3.4,0,0,1,3-1.37,3.71,3.71,0,0,1,1.56.31,3.89,3.89,0,0,1,1.3,1l-1.73,1.78a1.7,1.7,0,0,0-.7-.48,2.4,2.4,0,0,0-.89-.15,2.5,2.5,0,0,0-1.82.7A2.91,2.91,0,0,0,43.32,465.63ZM50.45,472V454.76h2.64V472Zm5.6,0V460.52h2.64V472Zm1.32-13.63a1.5,1.5,0,0,1-1.12-.46,1.66,1.66,0,0,1,0-2.25,1.5,1.5,0,0,1,1.12-.46,1.46,1.46,0,0,1,1.13.46,1.69,1.69,0,0,1,0,2.25A1.46,1.46,0,0,1,57.37,458.41ZM69.55,472v-6.65a2.56,2.56,0,0,0-.74-1.89,2.49,2.49,0,0,0-1.87-.75,2.68,2.68,0,0,0-1.37.34,2.4,2.4,0,0,0-.94.93,2.8,2.8,0,0,0-.33,1.37l-1-.57a4.65,4.65,0,0,1,.58-2.33,4.08,4.08,0,0,1,1.58-1.61,4.52,4.52,0,0,1,2.31-.6A4,4,0,0,1,70,461a4.67,4.67,0,0,1,1.59,1.71,4.36,4.36,0,0,1,.57,2.16V472Zm-7.89,0V460.52H64.3V472Zm18.57.24a6.33,6.33,0,0,1-3.12-.77,6,6,0,0,1-2.19-2.16,6,6,0,0,1-.79-3.07,5.87,5.87,0,0,1,6-6,5.38,5.38,0,0,1,2.83.74,5.24,5.24,0,0,1,2,2,6,6,0,0,1,.72,3,4.28,4.28,0,0,1,0,.6,6.36,6.36,0,0,1-.1.64H76V465.1h8.09l-1,.87a4.37,4.37,0,0,0-.41-1.78,2.5,2.5,0,0,0-1-1.1A3.07,3.07,0,0,0,80,462.7a3.42,3.42,0,0,0-1.75.44,2.89,2.89,0,0,0-1.15,1.22,3.92,3.92,0,0,0-.41,1.85,4.05,4.05,0,0,0,.43,1.89,3.16,3.16,0,0,0,1.23,1.28,3.82,3.82,0,0,0,1.82.43,4.3,4.3,0,0,0,1.63-.31,3.38,3.38,0,0,0,1.3-.92l1.68,1.71a5.5,5.5,0,0,1-2,1.49A6.61,6.61,0,0,1,80.23,472.28Zm12.29,0a5.2,5.2,0,0,1-2.83-.79,5.8,5.8,0,0,1-2-2.14A6.45,6.45,0,0,1,87,466.3a6.32,6.32,0,0,1,.72-3,5.64,5.64,0,0,1,2-2.16,5.06,5.06,0,0,1,2.83-.82,4.58,4.58,0,0,1,2.33.58,4.15,4.15,0,0,1,2.23,3.76v3.32a4.21,4.21,0,0,1-.6,2.23,4.31,4.31,0,0,1-1.61,1.56A4.88,4.88,0,0,1,92.52,472.28Zm.43-2.5a3,3,0,0,0,2.35-1,3.57,3.57,0,0,0,.92-2.52,3.91,3.91,0,0,0-.41-1.82,3,3,0,0,0-1.16-1.23,3.13,3.13,0,0,0-1.7-.45,3.14,3.14,0,0,0-2.86,1.68,4.34,4.34,0,0,0,0,3.64,3.33,3.33,0,0,0,1.16,1.25A3.28,3.28,0,0,0,93,469.78Zm3.1,2.26v-3.1l.45-2.8-.45-2.79v-2.83h2.64V472Zm10.39.24a5.23,5.23,0,0,1-2.83-.79,5.78,5.78,0,0,1-2-2.14,6.45,6.45,0,0,1-.72-3.05,6.32,6.32,0,0,1,.72-3,5.61,5.61,0,0,1,2-2.16,5.09,5.09,0,0,1,2.83-.82,4.55,4.55,0,0,1,2.33.58,4.14,4.14,0,0,1,1.63,1.53,4.21,4.21,0,0,1,.6,2.23v3.32a4.28,4.28,0,0,1-2.21,3.79A4.85,4.85,0,0,1,106.44,472.28Zm.43-2.5a3,3,0,0,0,2.36-1,3.61,3.61,0,0,0,.91-2.52,3.91,3.91,0,0,0-.41-1.82,3,3,0,0,0-1.15-1.23,3.16,3.16,0,0,0-1.71-.45,3.2,3.2,0,0,0-1.7.45,3.11,3.11,0,0,0-1.15,1.23,4.24,4.24,0,0,0,0,3.64,3.23,3.23,0,0,0,1.15,1.25A3.28,3.28,0,0,0,106.87,469.78ZM110,472v-3.1l.46-2.8-.46-2.79v-8.59h2.64V472Zm10.85.24a6,6,0,0,1-3-.79,6.18,6.18,0,0,1-2.18-2.19,5.92,5.92,0,0,1-.8-3,5.86,5.86,0,0,1,.8-3,6,6,0,0,1,2.18-2.13,5.79,5.79,0,0,1,3-.82,6,6,0,0,1,3.07.79,5.89,5.89,0,0,1,2.16,2.16,5.78,5.78,0,0,1,.82,3,5.84,5.84,0,0,1-.82,3,5.85,5.85,0,0,1-5.23,3Zm0-2.54a3.4,3.4,0,0,0,1.73-.44,3,3,0,0,0,1.17-1.24,3.69,3.69,0,0,0,.43-1.8,3.53,3.53,0,0,0-.43-1.78,3.21,3.21,0,0,0-1.17-1.2,3.31,3.31,0,0,0-1.73-.46,3.36,3.36,0,0,0-1.73.46,3.16,3.16,0,0,0-1.18,1.2,3.74,3.74,0,0,0-.4,1.78,3.91,3.91,0,0,0,.4,1.8,3.27,3.27,0,0,0,1.18,1.24A3.45,3.45,0,0,0,120.82,469.74Zm15.57,2.3v-16.8h2.71V472ZM133,457.71v-2.47h5.83v2.47Zm14.65,14.57a5.83,5.83,0,0,1-5.16-2.88,5.75,5.75,0,0,1-.77-2.93,8.22,8.22,0,0,1,1.61-4.65l4.58-6.58h3.19l-4.89,6.89-1,.6a3.29,3.29,0,0,1,.6-.94,2.46,2.46,0,0,1,1-.62,4.6,4.6,0,0,1,1.54-.22,5,5,0,0,1,2.64.7,5.12,5.12,0,0,1,1.92,1.89,5.42,5.42,0,0,1,.72,2.84,5.72,5.72,0,0,1-.79,3,5.91,5.91,0,0,1-2.16,2.14A5.8,5.8,0,0,1,147.68,472.28Zm0-2.59a3.17,3.17,0,0,0,1.63-.43,3.05,3.05,0,0,0,1.13-1.18,3.38,3.38,0,0,0,.43-1.7,3.23,3.23,0,0,0-.43-1.68,2.93,2.93,0,0,0-1.13-1.16,3.3,3.3,0,0,0-3.26,0,3.05,3.05,0,0,0-1.13,1.18,3.32,3.32,0,0,0-.41,1.66,3.59,3.59,0,0,0,.41,1.7,3.05,3.05,0,0,0,1.13,1.18A3.17,3.17,0,0,0,147.68,469.69ZM162,472.28a4.88,4.88,0,0,1-2.35-.55,4.44,4.44,0,0,1-1.63-1.56,4.29,4.29,0,0,1-.58-2.23v-3.32a4.15,4.15,0,0,1,2.23-3.76,4.66,4.66,0,0,1,2.33-.58,5,5,0,0,1,2.81.82,5.39,5.39,0,0,1,2,2.16,6.12,6.12,0,0,1,.75,3,6.24,6.24,0,0,1-.75,3.05,5.54,5.54,0,0,1-2,2.14A5.11,5.11,0,0,1,162,472.28Zm-.43-2.5a3.18,3.18,0,0,0,1.68-.43,3,3,0,0,0,1.15-1.25,4.07,4.07,0,0,0,0-3.64,2.91,2.91,0,0,0-1.15-1.23,3.1,3.1,0,0,0-1.68-.45,3.2,3.2,0,0,0-1.7.45,3,3,0,0,0-1.16,1.23,4.34,4.34,0,0,0,0,3.64,3.11,3.11,0,0,0,1.16,1.25A3.28,3.28,0,0,0,161.61,469.78Zm-5.74,7.06V460.52h2.64v3.1l-.45,2.8.45,2.79v7.63Zm20.89-4.8-3.31-4.87-.48-.43-4.46-6.22h3.19l3,4.27.46.41,4.82,6.84Zm-8.47,0,4.66-6.46,1.53,1.9L171.36,472Zm7.06-5.35-1.56-1.87,2.88-4.3h3.05Zm6.33,8.16,1.63-3.05.89-.24a2,2,0,0,1-.34.48.6.6,0,0,1-.45.19,1.46,1.46,0,0,1-1-.45,1.65,1.65,0,0,1-.46-1.2,1.82,1.82,0,0,1,.5-1.3,1.72,1.72,0,0,1,1.3-.55,1.68,1.68,0,0,1,1.25.55,1.74,1.74,0,0,1,.55,1.3,2.62,2.62,0,0,1-.14.74,7.2,7.2,0,0,1-.46,1.06l-1.78,3.26ZM193.14,472V460.52h2.64V472Zm1.32-13.63a1.52,1.52,0,0,1-1.13-.46,1.69,1.69,0,0,1,0-2.25,1.52,1.52,0,0,1,1.13-.46,1.48,1.48,0,0,1,1.13.46,1.69,1.69,0,0,1,0,2.25A1.48,1.48,0,0,1,194.46,458.41ZM206.64,472v-6.65a2.53,2.53,0,0,0-.75-1.89,2.47,2.47,0,0,0-1.87-.75,2.7,2.7,0,0,0-1.37.34,2.31,2.31,0,0,0-.93.93,2.7,2.7,0,0,0-.34,1.37l-1-.57a4.55,4.55,0,0,1,.58-2.33,4.08,4.08,0,0,1,1.58-1.61,4.51,4.51,0,0,1,2.3-.6,4,4,0,0,1,2.31.67,4.56,4.56,0,0,1,1.58,1.71,4.27,4.27,0,0,1,.58,2.16V472Zm-7.9,0V460.52h2.64V472Zm14.83,0V455.72h2.64V472Zm-2.76-9.12v-2.4H219v2.4Zm15.1,9.36a6.38,6.38,0,0,1-3.12-.77,5.87,5.87,0,0,1-3-5.23,5.87,5.87,0,0,1,6-6,5.38,5.38,0,0,1,2.83.74,5.31,5.31,0,0,1,2,2,6,6,0,0,1,.72,3,4.28,4.28,0,0,1-.05.6,6.36,6.36,0,0,1-.1.64h-9.45V465.1h8.08l-1,.87a4.37,4.37,0,0,0-.41-1.78,2.5,2.5,0,0,0-1-1.1,3.07,3.07,0,0,0-1.61-.39,3.42,3.42,0,0,0-1.75.44,2.83,2.83,0,0,0-1.15,1.22,4.37,4.37,0,0,0,0,3.74,3.16,3.16,0,0,0,1.23,1.28,3.79,3.79,0,0,0,1.82.43,4.3,4.3,0,0,0,1.63-.31,3.46,3.46,0,0,0,1.3-.92l1.68,1.71a5.5,5.5,0,0,1-2,1.49A6.62,6.62,0,0,1,225.91,472.28Zm7.47-.24V460.52H236V472Zm2.64-6.41-.91-.45a5.92,5.92,0,0,1,1-3.53,3.41,3.41,0,0,1,3-1.37,3.71,3.71,0,0,1,1.56.31,3.8,3.8,0,0,1,1.3,1l-1.73,1.78a1.7,1.7,0,0,0-.7-.48,2.39,2.39,0,0,0-.88-.15,2.5,2.5,0,0,0-1.83.7A2.91,2.91,0,0,0,236,465.63Zm7.14,6.41V454.76h2.64V472Zm10.93.24a6.33,6.33,0,0,1-3.12-.77,6,6,0,0,1-2.19-2.16,6,6,0,0,1-.79-3.07,5.87,5.87,0,0,1,5.95-6,5.38,5.38,0,0,1,2.83.74,5.24,5.24,0,0,1,2,2,6,6,0,0,1,.72,3,4.28,4.28,0,0,1-.05.6,6.36,6.36,0,0,1-.1.64h-9.45V465.1h8.09l-1,.87a4.37,4.37,0,0,0-.41-1.78,2.5,2.5,0,0,0-1-1.1,3.07,3.07,0,0,0-1.61-.39,3.42,3.42,0,0,0-1.75.44,2.89,2.89,0,0,0-1.15,1.22,3.92,3.92,0,0,0-.41,1.85,4.05,4.05,0,0,0,.43,1.89,3.16,3.16,0,0,0,1.23,1.28,3.82,3.82,0,0,0,1.82.43,4.3,4.3,0,0,0,1.63-.31,3.38,3.38,0,0,0,1.3-.92l1.68,1.71a5.5,5.5,0,0,1-2,1.49A6.61,6.61,0,0,1,254.09,472.28ZM263,472V455.72h2.64V472Zm-2.76-9.12v-2.4h8.16v2.4ZM270.32,472V460.52H273V472Zm2.64-6.41-.91-.45a5.92,5.92,0,0,1,1-3.53,3.4,3.4,0,0,1,2.95-1.37,3.71,3.71,0,0,1,1.56.31,3.89,3.89,0,0,1,1.3,1l-1.73,1.78a1.7,1.7,0,0,0-.7-.48,2.4,2.4,0,0,0-.89-.15,2.5,2.5,0,0,0-1.82.7A2.91,2.91,0,0,0,273,465.63Zm11.61,6.65a5.26,5.26,0,0,1-2.84-.79,5.86,5.86,0,0,1-2-2.14,6.45,6.45,0,0,1-.72-3.05,6.32,6.32,0,0,1,.72-3,5.69,5.69,0,0,1,2-2.16,5.12,5.12,0,0,1,2.84-.82,4.52,4.52,0,0,1,2.32.58,4.14,4.14,0,0,1,2.24,3.76v3.32a4.21,4.21,0,0,1-.6,2.23,4.31,4.31,0,0,1-1.61,1.56A4.88,4.88,0,0,1,284.57,472.28Zm.43-2.5a3,3,0,0,0,2.35-1,3.56,3.56,0,0,0,.91-2.52,3.79,3.79,0,0,0-.41-1.82,2.91,2.91,0,0,0-1.15-1.23,3.15,3.15,0,0,0-1.7-.45,3.26,3.26,0,0,0-1.71.45,3.18,3.18,0,0,0-1.15,1.23,4.24,4.24,0,0,0,0,3.64,3.31,3.31,0,0,0,1.15,1.25A3.34,3.34,0,0,0,285,469.78Zm3.09,2.26v-3.1l.46-2.8-.46-2.79v-2.83h2.64V472Zm10.4.24a5.2,5.2,0,0,1-2.83-.79,5.8,5.8,0,0,1-2-2.14,6.45,6.45,0,0,1-.72-3.05,6.32,6.32,0,0,1,.72-3,5.64,5.64,0,0,1,2-2.16,5.06,5.06,0,0,1,2.83-.82,4.58,4.58,0,0,1,2.33.58,4.15,4.15,0,0,1,2.23,3.76v3.32a4.21,4.21,0,0,1-.6,2.23,4.31,4.31,0,0,1-1.61,1.56A4.88,4.88,0,0,1,298.49,472.28Zm.43-2.5a3,3,0,0,0,2.35-1,3.56,3.56,0,0,0,.91-2.52,3.79,3.79,0,0,0-.41-1.82,2.91,2.91,0,0,0-1.15-1.23,3.15,3.15,0,0,0-1.7-.45,3.2,3.2,0,0,0-1.7.45,3.13,3.13,0,0,0-1.16,1.23,4.34,4.34,0,0,0,0,3.64,3,3,0,0,0,2.86,1.68ZM302,472v-3.1l.46-2.8-.46-2.79v-8.59h2.65V472Zm10.85.24a5.94,5.94,0,0,1-3-.79,6.29,6.29,0,0,1-2.19-2.19,5.92,5.92,0,0,1-.79-3,5.86,5.86,0,0,1,.79-3,6.12,6.12,0,0,1,2.19-2.13,5.78,5.78,0,0,1,3-.82,6,6,0,0,1,3.08.79,5.89,5.89,0,0,1,2.16,2.16,5.77,5.77,0,0,1,.81,3,5.84,5.84,0,0,1-.81,3,5.85,5.85,0,0,1-5.24,3Zm0-2.54a3.34,3.34,0,0,0,1.73-.44,3.06,3.06,0,0,0,1.18-1.24,3.69,3.69,0,0,0,.43-1.8,3.53,3.53,0,0,0-.43-1.78,3.16,3.16,0,0,0-1.18-1.2,3.26,3.26,0,0,0-1.73-.46,3.35,3.35,0,0,0-1.72.46,3.16,3.16,0,0,0-1.18,1.2,3.74,3.74,0,0,0-.41,1.78,3.91,3.91,0,0,0,.41,1.8,3.27,3.27,0,0,0,1.18,1.24A3.44,3.44,0,0,0,312.86,469.74Zm11.49,2.3,6.91-16.8h1.92L340,472h-3l-5.38-13.61h1L327.27,472Zm3.4-3.24v-2.4h8.91v2.4Zm18.64,3.48a5.3,5.3,0,0,1-2.62-.65,4.7,4.7,0,0,1-1.77-1.77,5.42,5.42,0,0,1-.62-2.64v-6.7H344v6.58a3.49,3.49,0,0,0,.27,1.44,2,2,0,0,0,.82.88,2.52,2.52,0,0,0,1.29.32,2.22,2.22,0,0,0,1.75-.68,2.82,2.82,0,0,0,.63-2v-6.58h2.64v6.7a5.37,5.37,0,0,1-.65,2.66,4.67,4.67,0,0,1-1.75,1.78A5.4,5.4,0,0,1,346.39,472.28Zm9.42-.24V455.72h2.64V472Zm-2.76-9.12v-2.4h8.16v2.4Zm15,9.36a5.92,5.92,0,0,1-3-.79,6.21,6.21,0,0,1-2.19-2.19,5.92,5.92,0,0,1-.79-3,5.86,5.86,0,0,1,.79-3A6,6,0,0,1,365,461.1a5.75,5.75,0,0,1,3-.82,6,6,0,0,1,3.08.79,5.89,5.89,0,0,1,2.16,2.16,5.77,5.77,0,0,1,.81,3,5.84,5.84,0,0,1-.81,3,5.85,5.85,0,0,1-5.24,3Zm0-2.54a3.34,3.34,0,0,0,1.73-.44,3.06,3.06,0,0,0,1.18-1.24,3.69,3.69,0,0,0,.43-1.8,3.53,3.53,0,0,0-.43-1.78,3.16,3.16,0,0,0-1.18-1.2,3.26,3.26,0,0,0-1.73-.46,3.33,3.33,0,0,0-1.72.46,3.16,3.16,0,0,0-1.18,1.2,3.74,3.74,0,0,0-.41,1.78,3.91,3.91,0,0,0,.41,1.8,3.27,3.27,0,0,0,1.18,1.24A3.41,3.41,0,0,0,368.08,469.74Z"/><path class="cls-1" d="M3.19,425v-9.52H4.8V425ZM0,416.63v-1.47H8v1.47Zm10.57,8.47a3.69,3.69,0,0,1-1.82-.45,3.34,3.34,0,0,1-1.27-1.26,3.55,3.55,0,0,1,1.24-4.83,3.56,3.56,0,0,1,1.77-.46,3.13,3.13,0,0,1,1.65.44,2.94,2.94,0,0,1,1.13,1.19,3.45,3.45,0,0,1,.42,1.72c0,.11,0,.23,0,.35a3.26,3.26,0,0,1-.06.38H8.09v-1.26h4.72l-.57.5a2.61,2.61,0,0,0-.24-1,1.49,1.49,0,0,0-.6-.64,1.82,1.82,0,0,0-.94-.22,2,2,0,0,0-1,.25,1.64,1.64,0,0,0-.67.71,2.27,2.27,0,0,0-.24,1.08,2.33,2.33,0,0,0,.25,1.11,1.94,1.94,0,0,0,.71.74,2.2,2.2,0,0,0,1.07.25,2.47,2.47,0,0,0,.95-.18,2,2,0,0,0,.76-.53l1,1a3.3,3.3,0,0,1-1.19.87A4,4,0,0,1,10.57,425.1ZM19,425l-1.93-2.84-.28-.25-2.6-3.63H16l1.72,2.49L18,421l2.81,4Zm-4.94,0,2.72-3.76.89,1.1L15.84,425Zm4.12-3.12-.91-1.09,1.68-2.51h1.77ZM22.62,425v-9.52h1.54V425ZM21,419.64v-1.4h4.76v1.4ZM29.9,425v-9.8H31l4.08,6.71h-.73l4.07-6.71h1.12V425H38v-7l.37.1-3,5H34.17l-3-5,.36-.1v7Zm14.7.14a3.69,3.69,0,0,1-1.82-.45,3.34,3.34,0,0,1-1.27-1.26,3.62,3.62,0,0,1,0-3.57,3.41,3.41,0,0,1,1.24-1.26,3.54,3.54,0,0,1,1.77-.46,3.13,3.13,0,0,1,1.65.44,3,3,0,0,1,1.13,1.19,3.45,3.45,0,0,1,.42,1.72,2.16,2.16,0,0,1,0,.35,1.89,1.89,0,0,1,0,.38H42.12v-1.26h4.72l-.57.5a2.61,2.61,0,0,0-.24-1,1.49,1.49,0,0,0-.6-.64,1.84,1.84,0,0,0-.94-.22,2,2,0,0,0-1,.25,1.72,1.72,0,0,0-.68.71,2.39,2.39,0,0,0-.23,1.08,2.33,2.33,0,0,0,.25,1.11,1.87,1.87,0,0,0,.71.74,2.2,2.2,0,0,0,1.07.25,2.47,2.47,0,0,0,.95-.18,1.93,1.93,0,0,0,.75-.53l1,1a3.14,3.14,0,0,1-1.19.87A3.87,3.87,0,0,1,44.6,425.1Zm7.17,0a3,3,0,0,1-1.65-.46A3.33,3.33,0,0,1,49,423.39a3.73,3.73,0,0,1-.42-1.77,3.69,3.69,0,0,1,.42-1.78,3.36,3.36,0,0,1,1.16-1.26,3,3,0,0,1,1.65-.48,2.64,2.64,0,0,1,1.36.34,2.4,2.4,0,0,1,.95.89,2.52,2.52,0,0,1,.35,1.31v1.93a2.48,2.48,0,0,1-.35,1.3,2.42,2.42,0,0,1-.94.91A2.8,2.8,0,0,1,51.77,425.1Zm.25-1.45a1.88,1.88,0,0,0,1-.26,1.79,1.79,0,0,0,.67-.72,2.31,2.31,0,0,0,.24-1.07,2.27,2.27,0,0,0-.24-1.06,1.73,1.73,0,0,0-.67-.72,1.88,1.88,0,0,0-1-.26,1.92,1.92,0,0,0-1,.26,1.87,1.87,0,0,0-.67.72,2.27,2.27,0,0,0-.24,1.06,2.31,2.31,0,0,0,.24,1.07,1.8,1.8,0,0,0,1.66,1ZM55.37,425H53.83v-1.8l.27-1.64-.27-1.63v-5h1.54Zm1.72,0v-6.72h1.54V425Zm.77-7.95a.9.9,0,0,1-.66-.27.92.92,0,0,1-.25-.65,1,1,0,0,1,.25-.66.9.9,0,0,1,.66-.27.87.87,0,0,1,.66.27.92.92,0,0,1,.25.66.88.88,0,0,1-.25.65A.87.87,0,0,1,57.86,417Zm5.26,8.09a3,3,0,0,1-1.53-.38,2.68,2.68,0,0,1-1-1,3.11,3.11,0,0,1-.37-1.54v-3.91h1.54v3.84a1.94,1.94,0,0,0,.16.84,1.25,1.25,0,0,0,.47.52,1.55,1.55,0,0,0,.76.18,1.29,1.29,0,0,0,1-.39,1.69,1.69,0,0,0,.36-1.15v-3.84H66v3.91a3.12,3.12,0,0,1-.37,1.55,2.71,2.71,0,0,1-1,1A3.08,3.08,0,0,1,63.12,425.1Zm4.47-.14v-6.72h1.54V425Zm4.47,0v-4a1.31,1.31,0,0,0-.42-1,1.51,1.51,0,0,0-1-.38,1.66,1.66,0,0,0-.75.17,1.29,1.29,0,0,0-.52.49,1.41,1.41,0,0,0-.2.76l-.6-.34a2.51,2.51,0,0,1,.34-1.33,2.31,2.31,0,0,1,.91-.87,2.61,2.61,0,0,1,1.28-.32,2.73,2.73,0,0,1,1.29.31,2.38,2.38,0,0,1,.91.87,2.5,2.5,0,0,1,.34,1.34V425Zm4.46,0v-4a1.31,1.31,0,0,0-.42-1,1.49,1.49,0,0,0-1-.38,1.64,1.64,0,0,0-.74.17,1.28,1.28,0,0,0-.54.49,1.41,1.41,0,0,0-.19.76l-.87-.34a2.88,2.88,0,0,1,.45-1.33,2.67,2.67,0,0,1,1-.87,2.83,2.83,0,0,1,1.32-.32,2.89,2.89,0,0,1,1.32.31,2.39,2.39,0,0,1,1.28,2.21V425Zm7.4,0v-9.8h1.59V425Zm-2-8.36v-1.44h3.41v1.44Zm5,4.86,3.48-6.3h1.82l-3.57,6.3Zm0,1v-1l.68-.46h6.92v1.44ZM91.62,425v-6.41H93.2V425Zm7.79.14a2.8,2.8,0,0,1-1.37-.32,2.62,2.62,0,0,1-1-.91,2.56,2.56,0,0,1-.33-1.3v-1.93a2.52,2.52,0,0,1,.35-1.31,2.4,2.4,0,0,1,1-.89,2.67,2.67,0,0,1,1.36-.34,2.92,2.92,0,0,1,1.64.48,3.28,3.28,0,0,1,1.16,1.26,3.58,3.58,0,0,1,.43,1.78,3.62,3.62,0,0,1-.43,1.77,3.25,3.25,0,0,1-1.16,1.25A3,3,0,0,1,99.41,425.1Zm-.25-1.45a1.86,1.86,0,0,0,1-.26,1.79,1.79,0,0,0,.67-.72,2.2,2.2,0,0,0,.25-1.07,2.16,2.16,0,0,0-.25-1.06,1.73,1.73,0,0,0-.67-.72,1.86,1.86,0,0,0-1-.26,1.93,1.93,0,0,0-1,.26,1.73,1.73,0,0,0-.67.72,2.27,2.27,0,0,0-.24,1.06,2.31,2.31,0,0,0,.24,1.07,1.79,1.79,0,0,0,.67.72A1.93,1.93,0,0,0,99.16,423.65Zm-3.35,4.11v-9.52h1.54v1.81l-.27,1.64.27,1.62v4.45ZM108,425l-1.93-2.84-.28-.25-2.61-3.63H105l1.72,2.49.27.24,2.81,4Zm-5,0,2.72-3.76.9,1.1L104.85,425Zm4.12-3.12-.91-1.09,1.68-2.51h1.78Zm6.5.28v-1.46h4.74v1.46Zm6.66,2.84v-9.8h1.12l4.07,6.71h-.72l4.07-6.71H130V425h-1.61v-7l.36.1-3,5H124.6l-3-5,.36-.1v7Zm14.65.14a3.44,3.44,0,0,1-1.77-.46,3.7,3.7,0,0,1-1.28-1.27,3.5,3.5,0,0,1-.46-1.78,3.44,3.44,0,0,1,.46-1.77,3.62,3.62,0,0,1,1.28-1.24,3.36,3.36,0,0,1,1.77-.48,3.62,3.62,0,0,1,1.8.46,3.48,3.48,0,0,1,1.73,3,3.51,3.51,0,0,1-.47,1.78,3.57,3.57,0,0,1-1.26,1.27A3.52,3.52,0,0,1,135,425.1Zm0-1.48a2,2,0,0,0,1-.25,1.8,1.8,0,0,0,.69-.73,2.14,2.14,0,0,0,.25-1.05,2.08,2.08,0,0,0-.25-1,1.86,1.86,0,0,0-.69-.7,2.07,2.07,0,0,0-2,0,1.86,1.86,0,0,0-.69.7,2.19,2.19,0,0,0-.24,1,2.26,2.26,0,0,0,.24,1.05,1.94,1.94,0,0,0,.69.73A2.06,2.06,0,0,0,135,423.62Zm8.41,1.48a2.8,2.8,0,0,1-1.37-.32,2.52,2.52,0,0,1-1-.91,2.47,2.47,0,0,1-.34-1.3v-1.93a2.52,2.52,0,0,1,.35-1.31,2.46,2.46,0,0,1,.95-.89,2.69,2.69,0,0,1,1.36-.34,2.92,2.92,0,0,1,1.64.48,3.28,3.28,0,0,1,1.16,1.26,3.58,3.58,0,0,1,.43,1.78,3.62,3.62,0,0,1-.43,1.77,3.25,3.25,0,0,1-1.16,1.25A3,3,0,0,1,143.39,425.1Zm-.25-1.45a1.86,1.86,0,0,0,1-.26,1.79,1.79,0,0,0,.67-.72,2.2,2.2,0,0,0,.25-1.07,2.16,2.16,0,0,0-.25-1.06,1.73,1.73,0,0,0-.67-.72,1.86,1.86,0,0,0-1-.26,1.9,1.9,0,0,0-1,.26,1.75,1.75,0,0,0-.68.72,2.4,2.4,0,0,0-.24,1.06,2.44,2.44,0,0,0,.24,1.07,1.81,1.81,0,0,0,.68.72A1.9,1.9,0,0,0,143.14,423.65ZM139.79,425V414.88h1.54v5l-.26,1.63.26,1.64V425Zm8.14,0v-6.72h1.54V425Zm.77-7.95a.9.9,0,0,1-.66-.27.88.88,0,0,1-.25-.65.92.92,0,0,1,.25-.66.9.9,0,0,1,.66-.27.87.87,0,0,1,.66.27,1,1,0,0,1,.25.66.92.92,0,0,1-.25.65A.87.87,0,0,1,148.7,417Zm2.5,7.95V414.88h1.54V425Zm6.37.14a3.69,3.69,0,0,1-1.82-.45,3.34,3.34,0,0,1-1.27-1.26,3.55,3.55,0,0,1,1.24-4.83,3.56,3.56,0,0,1,1.77-.46,3.13,3.13,0,0,1,1.65.44,3,3,0,0,1,1.13,1.19,3.45,3.45,0,0,1,.42,1.72c0,.11,0,.23,0,.35a3.26,3.26,0,0,1-.06.38h-5.52v-1.26h4.72l-.57.5a2.61,2.61,0,0,0-.24-1,1.49,1.49,0,0,0-.6-.64,1.82,1.82,0,0,0-.94-.22,2,2,0,0,0-1,.25,1.64,1.64,0,0,0-.67.71,2.27,2.27,0,0,0-.24,1.08,2.33,2.33,0,0,0,.25,1.11,1.94,1.94,0,0,0,.71.74,2.2,2.2,0,0,0,1.07.25,2.47,2.47,0,0,0,.95-.18,2,2,0,0,0,.76-.53l1,1a3.3,3.3,0,0,1-1.19.87A4,4,0,0,1,157.57,425.1Zm8.48-4.3v-1.33h2.47a1.62,1.62,0,0,0,1.15-.37,1.4,1.4,0,0,0,.42-1.08,1.44,1.44,0,0,0-.4-1,1.53,1.53,0,0,0-1.15-.42h-2.49v-1.4h2.56a3.34,3.34,0,0,1,1.62.38,2.58,2.58,0,0,1,1.08,1,2.68,2.68,0,0,1,.39,1.44,2.75,2.75,0,0,1-.39,1.48,2.51,2.51,0,0,1-1.08,1,3.45,3.45,0,0,1-1.62.35ZM164.94,425v-9.8h1.61V425Zm5.38,0-3.43-4.25,1.49-.55,4,4.8Zm5.93.14a3.67,3.67,0,0,1-1.82-.45,3.58,3.58,0,0,1-1.28-4.83,3.41,3.41,0,0,1,3-1.72,3.14,3.14,0,0,1,1.66.44,3,3,0,0,1,1.13,1.19,3.45,3.45,0,0,1,.42,1.72,2.16,2.16,0,0,1,0,.35c0,.11,0,.24-.05.38h-5.52v-1.26h4.72l-.58.5a2.46,2.46,0,0,0-.23-1,1.45,1.45,0,0,0-.61-.64,1.79,1.79,0,0,0-.94-.22,2,2,0,0,0-1,.25,1.7,1.7,0,0,0-.67.71,2.27,2.27,0,0,0-.24,1.08,2.33,2.33,0,0,0,.26,1.11,1.81,1.81,0,0,0,.71.74,2.16,2.16,0,0,0,1.06.25,2.4,2.4,0,0,0,1-.18,2,2,0,0,0,.76-.53l1,1a3.22,3.22,0,0,1-1.19.87A3.9,3.9,0,0,1,176.25,425.1Zm7.15,2.8a4.21,4.21,0,0,1-1.86-.39,3.23,3.23,0,0,1-1.29-1.08l1-1a2.67,2.67,0,0,0,.93.76,2.77,2.77,0,0,0,1.24.25,2.1,2.1,0,0,0,1.44-.47,1.6,1.6,0,0,0,.54-1.28V423l.26-1.48-.26-1.5v-1.81H187v6.44a3.05,3.05,0,0,1-1.7,2.82A4,4,0,0,1,183.4,427.9Zm-.07-3.08a3.12,3.12,0,0,1-1.62-.43,3.24,3.24,0,0,1-1.13-1.22,3.64,3.64,0,0,1-.41-1.72,3.54,3.54,0,0,1,.41-1.71,3.15,3.15,0,0,1,1.13-1.19,3,3,0,0,1,1.62-.45,3,3,0,0,1,1.4.32,2.4,2.4,0,0,1,.94.9,2.45,2.45,0,0,1,.34,1.32v1.65a2.49,2.49,0,0,1-.35,1.31,2.33,2.33,0,0,1-.94.9A2.83,2.83,0,0,1,183.33,424.82Zm.31-1.45a2,2,0,0,0,1-.24,1.65,1.65,0,0,0,.65-.66,2,2,0,0,0,.23-1,2,2,0,0,0-.23-1,1.61,1.61,0,0,0-.65-.67,2,2,0,0,0-1-.24,2,2,0,0,0-1,.24,1.7,1.7,0,0,0-.66.67,2,2,0,0,0-.24,1,2,2,0,0,0,.24,1,1.7,1.7,0,0,0,.66.67A2,2,0,0,0,183.64,423.37Zm7.78,1.73a3,3,0,0,1-1.53-.38,2.71,2.71,0,0,1-1-1,3.21,3.21,0,0,1-.36-1.54v-3.91H190v3.84a2.1,2.1,0,0,0,.15.84,1.21,1.21,0,0,0,.48.52,1.5,1.5,0,0,0,.76.18,1.32,1.32,0,0,0,1-.39,1.69,1.69,0,0,0,.36-1.15v-3.84h1.54v3.91a3.12,3.12,0,0,1-.38,1.55,2.62,2.62,0,0,1-1,1A3.13,3.13,0,0,1,191.42,425.1Zm4.47-.14V414.88h1.54V425Zm6.07.14a3,3,0,0,1-1.65-.46,3.35,3.35,0,0,1-1.17-1.25,3.73,3.73,0,0,1-.42-1.77,3.69,3.69,0,0,1,.42-1.78,3.38,3.38,0,0,1,1.17-1.26,3,3,0,0,1,1.65-.48,2.67,2.67,0,0,1,1.36.34,2.46,2.46,0,0,1,1,.89,2.52,2.52,0,0,1,.35,1.31v1.93a2.49,2.49,0,0,1-1.29,2.21A2.8,2.8,0,0,1,202,425.1Zm.25-1.45a1.73,1.73,0,0,0,1.37-.58,2,2,0,0,0,.53-1.47,2.27,2.27,0,0,0-.24-1.06,1.67,1.67,0,0,0-.67-.72,1.87,1.87,0,0,0-1-.26,2,2,0,0,0-1,.26,1.87,1.87,0,0,0-.67.72,2.27,2.27,0,0,0-.23,1.06,2.31,2.31,0,0,0,.23,1.07,1.94,1.94,0,0,0,.67.72A2,2,0,0,0,202.21,423.65ZM204,425v-1.8l.27-1.64-.27-1.63v-1.65h1.55V425Zm3.25,0v-6.72h1.54V425Zm1.54-3.74-.53-.26a3.49,3.49,0,0,1,.56-2.06,2,2,0,0,1,1.72-.8,2.21,2.21,0,0,1,.91.18,2.31,2.31,0,0,1,.76.59l-1,1a1,1,0,0,0-.4-.28,1.42,1.42,0,0,0-.52-.09,1.49,1.49,0,0,0-1.07.41A1.71,1.71,0,0,0,208.8,421.22ZM219,425.1a4.25,4.25,0,0,1-2-.42,4.55,4.55,0,0,1-1.46-1.23l1.1-1.09a3.1,3.1,0,0,0,1,.92,2.8,2.8,0,0,0,1.43.32,2.24,2.24,0,0,0,1.29-.33,1.08,1.08,0,0,0,.49-.93,1.24,1.24,0,0,0-.25-.79,1.87,1.87,0,0,0-.68-.51,5.08,5.08,0,0,0-.91-.36c-.32-.11-.65-.23-1-.37a4.74,4.74,0,0,1-.91-.51,2.36,2.36,0,0,1-.66-.8,2.7,2.7,0,0,1-.25-1.25,2.5,2.5,0,0,1,.42-1.47,2.83,2.83,0,0,1,1.16-.94,4.09,4.09,0,0,1,1.63-.32,3.85,3.85,0,0,1,1.72.38,3.46,3.46,0,0,1,1.24,1l-1.09,1.09a2.8,2.8,0,0,0-.88-.7,2.16,2.16,0,0,0-1-.24,2,2,0,0,0-1.14.29,1,1,0,0,0-.41.83,1,1,0,0,0,.25.73,2.21,2.21,0,0,0,.66.46c.28.12.58.24.91.35s.67.24,1,.38a3.59,3.59,0,0,1,.91.54,2.45,2.45,0,0,1,.68.84,3.12,3.12,0,0,1,.25,1.31,2.54,2.54,0,0,1-.94,2.08A3.77,3.77,0,0,1,219,425.1Zm4.84-.14v-6.72h1.54V425Zm4.47,0v-4a1.31,1.31,0,0,0-.42-1,1.51,1.51,0,0,0-1-.38,1.66,1.66,0,0,0-.75.17,1.29,1.29,0,0,0-.52.49,1.41,1.41,0,0,0-.2.76l-.6-.34a2.51,2.51,0,0,1,.34-1.33,2.31,2.31,0,0,1,.91-.87,2.61,2.61,0,0,1,1.28-.32,2.73,2.73,0,0,1,1.29.31,2.31,2.31,0,0,1,.91.87,2.5,2.5,0,0,1,.34,1.34V425Zm4.47,0v-4a1.31,1.31,0,0,0-.42-1,1.53,1.53,0,0,0-1-.38,1.64,1.64,0,0,0-.74.17,1.34,1.34,0,0,0-.54.49,1.5,1.5,0,0,0-.19.76l-.87-.34a2.88,2.88,0,0,1,.45-1.33,2.67,2.67,0,0,1,1-.87,2.92,2.92,0,0,1,2.64,0,2.53,2.53,0,0,1,.94.87,2.5,2.5,0,0,1,.34,1.34V425Zm5.94.14a3.08,3.08,0,0,1-1.66-.46,3.41,3.41,0,0,1-1.16-1.25,3.73,3.73,0,0,1-.42-1.77,3.69,3.69,0,0,1,.42-1.78,3.44,3.44,0,0,1,1.16-1.26,3,3,0,0,1,1.66-.48,2.6,2.6,0,0,1,1.35.34,2.42,2.42,0,0,1,1,.89,2.52,2.52,0,0,1,.35,1.31v1.93a2.49,2.49,0,0,1-1.29,2.21A2.8,2.8,0,0,1,238.67,425.1Zm.25-1.45a1.73,1.73,0,0,0,1.37-.58,2,2,0,0,0,.53-1.47,2.27,2.27,0,0,0-.24-1.06,1.67,1.67,0,0,0-.67-.72,1.87,1.87,0,0,0-1-.26,1.93,1.93,0,0,0-1,.26,1.87,1.87,0,0,0-.67.72,2.27,2.27,0,0,0-.24,1.06,2.31,2.31,0,0,0,.24,1.07,1.8,1.8,0,0,0,1.67,1Zm1.8,1.31v-1.8l.27-1.64-.27-1.63v-1.65h1.54V425Zm3.25,0V414.88h1.54V425Zm3.26,0V414.88h1.54V425Z"/><path class="cls-1" d="M4.56,334.89v-13.6h2.3v13.6ZM0,323v-2.1H11.42V323Zm15.1,12.1a5.38,5.38,0,0,1-2.6-.64A4.89,4.89,0,0,1,10,330.09a4.88,4.88,0,0,1,.66-2.54,4.86,4.86,0,0,1,4.3-2.46,4.38,4.38,0,0,1,2.36.62,4.21,4.21,0,0,1,1.62,1.7,5,5,0,0,1,.6,2.46,3,3,0,0,1,0,.5,4.16,4.16,0,0,1-.08.54H11.56v-1.8H18.3l-.82.72a3.55,3.55,0,0,0-.34-1.48,2.07,2.07,0,0,0-.86-.92,2.51,2.51,0,0,0-1.34-.32,2.87,2.87,0,0,0-1.46.36,2.49,2.49,0,0,0-1,1,3.3,3.3,0,0,0-.34,1.54,3.35,3.35,0,0,0,.36,1.58,2.67,2.67,0,0,0,1,1.06,3.13,3.13,0,0,0,1.52.36,3.51,3.51,0,0,0,1.36-.26,2.9,2.9,0,0,0,1.08-.76l1.4,1.42a4.48,4.48,0,0,1-1.7,1.24A5.38,5.38,0,0,1,15.1,335.09Zm12-.2-2.76-4.06-.4-.36-3.72-5.18h2.66l2.46,3.56.38.34,4,5.7Zm-7.06,0L24,329.51l1.28,1.58-2.6,3.8ZM26,330.43l-1.3-1.56,2.4-3.58h2.54Zm6.37,4.46v-13.6h2.2v13.6Zm-2.3-7.6v-2h6.8v2Zm12.7,7.6v-14h1.6l5.82,9.58h-1l5.82-9.58h1.6v14h-2.3v-10l.52.14-4.32,7.1h-1.6l-4.32-7.1.52-.14v10Zm21,.2a5.36,5.36,0,0,1-2.6-.64,4.89,4.89,0,0,1-2.48-4.36,5,5,0,0,1,2.44-4.34,4.94,4.94,0,0,1,2.52-.66,4.4,4.4,0,0,1,2.36.62,4.35,4.35,0,0,1,1.62,1.7,5,5,0,0,1,.6,2.46,4.57,4.57,0,0,1,0,.5c0,.16,0,.34-.08.54H60.18v-1.8h6.74l-.82.72a3.71,3.71,0,0,0-.34-1.48,2.13,2.13,0,0,0-.86-.92,2.53,2.53,0,0,0-1.34-.32,2.85,2.85,0,0,0-1.46.36,2.37,2.37,0,0,0-1,1A3.19,3.19,0,0,0,60.8,330a3.35,3.35,0,0,0,.36,1.58,2.67,2.67,0,0,0,1,1.06,3.11,3.11,0,0,0,1.52.36,3.58,3.58,0,0,0,1.36-.26,3.07,3.07,0,0,0,1.08-.76l1.4,1.42a4.64,4.64,0,0,1-1.7,1.24A5.45,5.45,0,0,1,63.72,335.09Zm10.24,0a4.37,4.37,0,0,1-2.36-.66,4.9,4.9,0,0,1-1.66-1.78,5.38,5.38,0,0,1-.6-2.54,5.27,5.27,0,0,1,.6-2.54,4.81,4.81,0,0,1,1.66-1.8,4.23,4.23,0,0,1,2.36-.68,3.85,3.85,0,0,1,1.94.48,3.42,3.42,0,0,1,1.36,1.28,3.5,3.5,0,0,1,.5,1.86v2.76a3.57,3.57,0,0,1-1.84,3.16A4.17,4.17,0,0,1,74,335.09Zm.36-2.08a2.7,2.7,0,0,0,1.42-.36,2.67,2.67,0,0,0,1-1,3.57,3.57,0,0,0,0-3,2.49,2.49,0,0,0-1-1,2.53,2.53,0,0,0-1.42-.38,2.62,2.62,0,0,0-2.38,1.4,3.57,3.57,0,0,0,0,3,2.83,2.83,0,0,0,1,1A2.78,2.78,0,0,0,74.32,333Zm4.78,1.88H76.9v-2.58l.38-2.34-.38-2.32v-7.16h2.2Zm2.46,0v-9.6h2.2v9.6Zm1.1-11.36a1.29,1.29,0,0,1-.94-.38,1.33,1.33,0,0,1-.36-.94,1.3,1.3,0,0,1,.36-.94,1.25,1.25,0,0,1,.94-.38,1.21,1.21,0,0,1,.94.38,1.3,1.3,0,0,1,.36.94,1.33,1.33,0,0,1-.36.94A1.24,1.24,0,0,1,82.66,323.53Zm7.51,11.56a4.35,4.35,0,0,1-2.18-.54,4,4,0,0,1-1.48-1.48,4.53,4.53,0,0,1-.52-2.2v-5.58h2.2v5.48a3,3,0,0,0,.22,1.2,1.74,1.74,0,0,0,.68.74,2.16,2.16,0,0,0,1.08.26,1.88,1.88,0,0,0,1.46-.56,2.42,2.42,0,0,0,.52-1.64v-5.48h2.2v5.58a4.45,4.45,0,0,1-.54,2.22,3.91,3.91,0,0,1-1.46,1.48A4.53,4.53,0,0,1,90.17,335.09Zm6.39-.2v-9.6h2.2v9.6Zm6.38,0v-5.72a1.84,1.84,0,0,0-.6-1.48,2.13,2.13,0,0,0-1.48-.54,2.38,2.38,0,0,0-1.08.24,1.84,1.84,0,0,0-.74.7,1.93,1.93,0,0,0-.28,1.08l-.86-.48a3.6,3.6,0,0,1,.48-1.9,3.23,3.23,0,0,1,1.3-1.24,3.67,3.67,0,0,1,1.84-.46,3.76,3.76,0,0,1,1.84.44,3.23,3.23,0,0,1,1.3,1.24,3.65,3.65,0,0,1,.48,1.92v6.2Zm6.38,0v-5.72a1.84,1.84,0,0,0-.6-1.48,2.13,2.13,0,0,0-1.48-.54,2.33,2.33,0,0,0-1.06.24,1.83,1.83,0,0,0-.76.7,1.93,1.93,0,0,0-.28,1.08l-1.24-.48a4,4,0,0,1,.64-1.9,3.65,3.65,0,0,1,1.38-1.24,3.88,3.88,0,0,1,1.88-.46,3.92,3.92,0,0,1,1.88.44,3.33,3.33,0,0,1,1.34,1.24,3.56,3.56,0,0,1,.5,1.92v6.2Zm7.81-1.36,5.16-5.48a15,15,0,0,0,1-1.22,4.15,4.15,0,0,0,.58-1,2.78,2.78,0,0,0,.18-1,1.8,1.8,0,0,0-.62-1.46,2.21,2.21,0,0,0-1.54-.54,3.08,3.08,0,0,0-1.76.5,4.33,4.33,0,0,0-1.36,1.56l-1.6-1.32a5.81,5.81,0,0,1,2-2.14,5.14,5.14,0,0,1,2.78-.74,4.74,4.74,0,0,1,2.28.52,3.69,3.69,0,0,1,1.52,1.46,4.12,4.12,0,0,1,.54,2.14,5.2,5.2,0,0,1-.22,1.58,4.73,4.73,0,0,1-.7,1.38,17.16,17.16,0,0,1-1.38,1.6l-4,4.1Zm0,1.36v-1.36l2-.7h7.52v2.06Zm16.84.2a5.18,5.18,0,0,1-2.9-.88,6.29,6.29,0,0,1-2.08-2.52,9.81,9.81,0,0,1,0-7.62,6.09,6.09,0,0,1,2.08-2.5,5.19,5.19,0,0,1,5.78,0,6,6,0,0,1,2.06,2.5,8.62,8.62,0,0,1,.78,3.82,8.74,8.74,0,0,1-.78,3.82,6,6,0,0,1-2.06,2.5A5,5,0,0,1,134,335.09Zm0-2.16a3,3,0,0,0,1.8-.56,3.62,3.62,0,0,0,1.18-1.68,7.87,7.87,0,0,0,.44-2.82,7.76,7.76,0,0,0-.44-2.8,3.37,3.37,0,0,0-1.2-1.66,2.88,2.88,0,0,0-1.78-.56,3,3,0,0,0-1.8.56,3.41,3.41,0,0,0-1.18,1.66,7.9,7.9,0,0,0-.42,2.8,8.14,8.14,0,0,0,.42,2.82,3.62,3.62,0,0,0,1.18,1.68A3,3,0,0,0,133.93,332.93Zm12.93,2.16a4.14,4.14,0,0,1-2-.46,3.47,3.47,0,0,1-1.84-3.16v-2.76a3.41,3.41,0,0,1,.5-1.86,3.36,3.36,0,0,1,1.36-1.28,3.9,3.9,0,0,1,1.94-.48,4.16,4.16,0,0,1,2.34.68,4.65,4.65,0,0,1,1.66,1.8,5.16,5.16,0,0,1,.62,2.54,5.28,5.28,0,0,1-.62,2.54,4.74,4.74,0,0,1-1.66,1.78A4.31,4.31,0,0,1,146.86,335.09ZM146.5,333a2.53,2.53,0,0,0,2.36-1.4,3.39,3.39,0,0,0,0-3,2.62,2.62,0,0,0-2.36-1.4,2.58,2.58,0,0,0-1.42.38,2.37,2.37,0,0,0-1,1,3.57,3.57,0,0,0,0,3,2.53,2.53,0,0,0,1,1A2.75,2.75,0,0,0,146.5,333Zm-4.78,5.88v-13.6h2.2v2.58l-.38,2.34.38,2.32v6.36Zm17.4-4-2.75-4.06-.4-.36-3.72-5.18h2.65l2.47,3.56.38.34,4,5.7Zm-7.06,0,3.89-5.38,1.28,1.58-2.61,3.8Zm5.89-4.46-1.31-1.56,2.4-3.58h2.55Zm9.27.4v-2.08H174v2.08Zm9.22,4.06v-9.6h2.2v9.6Zm6.38,0v-5.72a1.84,1.84,0,0,0-.6-1.48,2.13,2.13,0,0,0-1.48-.54,2.38,2.38,0,0,0-1.08.24,1.91,1.91,0,0,0-.74.7,2,2,0,0,0-.28,1.08l-.86-.48a3.6,3.6,0,0,1,.48-1.9,3.3,3.3,0,0,1,1.3-1.24,3.67,3.67,0,0,1,1.84-.46,3.74,3.74,0,0,1,1.84.44,3.23,3.23,0,0,1,1.3,1.24,3.65,3.65,0,0,1,.48,1.92v6.2Zm6.38,0v-5.72a1.84,1.84,0,0,0-.6-1.48,2.13,2.13,0,0,0-1.48-.54,2.36,2.36,0,0,0-1.06.24,1.83,1.83,0,0,0-.76.7,2,2,0,0,0-.28,1.08l-1.24-.48a4,4,0,0,1,.64-1.9,3.65,3.65,0,0,1,1.38-1.24,4.15,4.15,0,0,1,3.76,0,3.33,3.33,0,0,1,1.34,1.24,3.48,3.48,0,0,1,.5,1.92v6.2Zm8.87.2a5,5,0,0,1-2.54-.66,5.2,5.2,0,0,1-1.82-1.82,5,5,0,0,1-.66-2.54,4.84,4.84,0,0,1,.66-2.52,5,5,0,0,1,1.82-1.78,4.81,4.81,0,0,1,2.54-.68,5,5,0,0,1,2.56.66,4.86,4.86,0,0,1,1.8,1.8,4.76,4.76,0,0,1,.68,2.52,4.9,4.9,0,0,1-.68,2.54,5.06,5.06,0,0,1-1.8,1.82A5,5,0,0,1,198.07,335.09Zm0-2.12a2.8,2.8,0,0,0,1.44-.36,2.58,2.58,0,0,0,1-1,3.08,3.08,0,0,0,.36-1.5,3,3,0,0,0-.36-1.48,2.72,2.72,0,0,0-2.42-1.38,2.72,2.72,0,0,0-1.44.38,2.62,2.62,0,0,0-1,1,3.05,3.05,0,0,0-.34,1.48,3.19,3.19,0,0,0,.34,1.5,2.8,2.8,0,0,0,1,1A2.9,2.9,0,0,0,198.07,333Zm12,2.12a4.17,4.17,0,0,1-2-.46,3.69,3.69,0,0,1-1.36-1.3,3.63,3.63,0,0,1-.48-1.86v-2.76a3.5,3.5,0,0,1,.5-1.86,3.42,3.42,0,0,1,1.36-1.28,3.9,3.9,0,0,1,1.94-.48,4.11,4.11,0,0,1,2.34.68,4.58,4.58,0,0,1,1.66,1.8,5.16,5.16,0,0,1,.62,2.54,5.28,5.28,0,0,1-.62,2.54,4.66,4.66,0,0,1-1.66,1.78A4.26,4.26,0,0,1,210.08,335.09Zm-.36-2.08a2.53,2.53,0,0,0,2.36-1.4,3.39,3.39,0,0,0,0-3,2.62,2.62,0,0,0-2.36-1.4,2.6,2.6,0,0,0-1.42.38,2.49,2.49,0,0,0-1,1,3.57,3.57,0,0,0,0,3,2.67,2.67,0,0,0,1,1A2.78,2.78,0,0,0,209.72,333Zm-4.78,1.88v-14.4h2.2v7.16l-.38,2.32.38,2.34v2.58Zm11.62,0v-9.6h2.2v9.6Zm1.1-11.36a1.29,1.29,0,0,1-.94-.38,1.33,1.33,0,0,1-.36-.94,1.3,1.3,0,0,1,.36-.94,1.25,1.25,0,0,1,.94-.38,1.21,1.21,0,0,1,.94.38,1.3,1.3,0,0,1,.36.94,1.33,1.33,0,0,1-.36.94A1.24,1.24,0,0,1,217.66,323.53Zm3.57,11.36v-14.4h2.2v14.4Zm9.11.2a5.36,5.36,0,0,1-2.6-.64,4.89,4.89,0,0,1-2.48-4.36,5,5,0,0,1,2.44-4.34,4.94,4.94,0,0,1,2.52-.66,4.4,4.4,0,0,1,2.36.62,4.35,4.35,0,0,1,1.62,1.7,5,5,0,0,1,.6,2.46,4.57,4.57,0,0,1,0,.5c0,.16,0,.34-.08.54H226.8v-1.8h6.74l-.82.72a3.71,3.71,0,0,0-.34-1.48,2.13,2.13,0,0,0-.86-.92,2.53,2.53,0,0,0-1.34-.32,2.85,2.85,0,0,0-1.46.36,2.37,2.37,0,0,0-1,1,3.19,3.19,0,0,0-.34,1.54,3.35,3.35,0,0,0,.36,1.58,2.67,2.67,0,0,0,1,1.06,3.11,3.11,0,0,0,1.52.36,3.58,3.58,0,0,0,1.36-.26,3.07,3.07,0,0,0,1.08-.76l1.4,1.42a4.64,4.64,0,0,1-1.7,1.24A5.45,5.45,0,0,1,230.34,335.09Zm12.1-6.14v-1.9H246a2.3,2.3,0,0,0,1.64-.54,2.23,2.23,0,0,0,0-3,2.16,2.16,0,0,0-1.64-.6h-3.56v-2h3.66a4.79,4.79,0,0,1,2.32.54,3.64,3.64,0,0,1,1.54,1.44,3.75,3.75,0,0,1,.56,2.06,3.88,3.88,0,0,1-.56,2.12,3.68,3.68,0,0,1-1.54,1.4,5.15,5.15,0,0,1-2.32.5Zm-1.58,5.94v-14h2.3v14Zm7.68,0-4.9-6.08,2.14-.78,5.66,6.86Zm8.48.2a5.36,5.36,0,0,1-2.6-.64,4.89,4.89,0,0,1-2.48-4.36,5,5,0,0,1,2.44-4.34,4.94,4.94,0,0,1,2.52-.66,4.4,4.4,0,0,1,2.36.62,4.35,4.35,0,0,1,1.62,1.7,5,5,0,0,1,.6,2.46,4.57,4.57,0,0,1,0,.5c0,.16,0,.34-.08.54h-7.88v-1.8h6.74l-.82.72a3.71,3.71,0,0,0-.34-1.48,2.13,2.13,0,0,0-.86-.92,2.53,2.53,0,0,0-1.34-.32,2.85,2.85,0,0,0-1.46.36,2.37,2.37,0,0,0-1,1,3.19,3.19,0,0,0-.34,1.54,3.35,3.35,0,0,0,.36,1.58,2.67,2.67,0,0,0,1,1.06A3.11,3.11,0,0,0,257,333a3.58,3.58,0,0,0,1.36-.26,3.07,3.07,0,0,0,1.08-.76l1.4,1.42a4.64,4.64,0,0,1-1.7,1.24A5.45,5.45,0,0,1,257,335.09Zm10.22,4a6,6,0,0,1-2.66-.56,4.69,4.69,0,0,1-1.84-1.54l1.44-1.44a3.94,3.94,0,0,0,1.32,1.08,4,4,0,0,0,1.78.36,3,3,0,0,0,2.06-.68,2.28,2.28,0,0,0,.76-1.82v-2.36l.38-2.12-.38-2.14v-2.58h2.2v9.2a4.34,4.34,0,0,1-2.42,4A5.83,5.83,0,0,1,267.24,339.09Zm-.1-4.4a4.48,4.48,0,0,1-2.32-.62,4.68,4.68,0,0,1-1.62-1.74,5.19,5.19,0,0,1-.58-2.46,5,5,0,0,1,.58-2.44,4.49,4.49,0,0,1,1.62-1.7,4.31,4.31,0,0,1,2.32-.64,4.13,4.13,0,0,1,2,.46,3.3,3.3,0,0,1,1.34,1.28,3.58,3.58,0,0,1,.48,1.88v2.36a3.59,3.59,0,0,1-.5,1.88,3.44,3.44,0,0,1-1.34,1.28A4.19,4.19,0,0,1,267.14,334.69Zm.44-2.08a2.87,2.87,0,0,0,1.4-.34,2.31,2.31,0,0,0,.92-.94,3,3,0,0,0,.34-1.44,2.79,2.79,0,0,0-.34-1.42,2.19,2.19,0,0,0-.92-1,2.77,2.77,0,0,0-1.4-.34,2.87,2.87,0,0,0-1.42.34,2.35,2.35,0,0,0-.94,1,2.79,2.79,0,0,0-.34,1.42,2.9,2.9,0,0,0,.34,1.42,2.48,2.48,0,0,0,.94,1A3,3,0,0,0,267.58,332.61Zm11.1,2.48a4.38,4.38,0,0,1-2.18-.54,4,4,0,0,1-1.48-1.48,4.64,4.64,0,0,1-.52-2.2v-5.58h2.2v5.48a3.13,3.13,0,0,0,.22,1.2,1.8,1.8,0,0,0,.68.74,2.21,2.21,0,0,0,1.08.26,1.86,1.86,0,0,0,1.46-.56,2.37,2.37,0,0,0,.52-1.64v-5.48h2.2v5.58a4.45,4.45,0,0,1-.54,2.22,3.78,3.78,0,0,1-1.46,1.48A4.48,4.48,0,0,1,278.68,335.09Zm6.4-.2v-14.4h2.2v14.4Zm8.66.2a4.4,4.4,0,0,1-2.36-.66,5,5,0,0,1-1.66-1.78,5.38,5.38,0,0,1-.6-2.54,5.27,5.27,0,0,1,.6-2.54,4.89,4.89,0,0,1,1.66-1.8,4.25,4.25,0,0,1,2.36-.68,3.82,3.82,0,0,1,1.94.48,3.36,3.36,0,0,1,1.36,1.28,3.41,3.41,0,0,1,.5,1.86v2.76a3.57,3.57,0,0,1-1.84,3.16A4.14,4.14,0,0,1,293.74,335.09Zm.36-2.08a2.52,2.52,0,0,0,2-.82,3,3,0,0,0,.76-2.1,3.21,3.21,0,0,0-.34-1.52,2.37,2.37,0,0,0-1-1,2.53,2.53,0,0,0-1.42-.38,2.62,2.62,0,0,0-2.38,1.4,3.57,3.57,0,0,0,0,3,2.83,2.83,0,0,0,1,1A2.8,2.8,0,0,0,294.1,333Zm2.58,1.88v-2.58l.38-2.34-.38-2.32v-2.36h2.2v9.6Zm4.65,0v-9.6h2.2v9.6Zm2.2-5.34-.76-.38a4.88,4.88,0,0,1,.8-2.94,2.82,2.82,0,0,1,2.46-1.14,3.05,3.05,0,0,1,1.3.26,3.18,3.18,0,0,1,1.08.84L307,327.67a1.56,1.56,0,0,0-.58-.4,2.13,2.13,0,0,0-.74-.12,2.07,2.07,0,0,0-1.52.58A2.42,2.42,0,0,0,303.53,329.55Zm10.6,5.34v-14h2.3v14Zm1.58,0v-2.1H323v2.1Zm12.8.2a4.37,4.37,0,0,1-2.36-.66,4.9,4.9,0,0,1-1.66-1.78,5.38,5.38,0,0,1-.6-2.54,5.27,5.27,0,0,1,.6-2.54,4.81,4.81,0,0,1,1.66-1.8,4.23,4.23,0,0,1,2.36-.68,3.85,3.85,0,0,1,1.94.48,3.42,3.42,0,0,1,1.36,1.28,3.5,3.5,0,0,1,.5,1.86v2.76a3.57,3.57,0,0,1-1.84,3.16A4.17,4.17,0,0,1,328.51,335.09Zm.36-2.08a2.53,2.53,0,0,0,2-.82,3,3,0,0,0,.76-2.1,3.21,3.21,0,0,0-.34-1.52,2.49,2.49,0,0,0-1-1,2.53,2.53,0,0,0-1.42-.38,2.62,2.62,0,0,0-2.38,1.4,3.57,3.57,0,0,0,0,3,2.83,2.83,0,0,0,1,1A2.78,2.78,0,0,0,328.87,333Zm2.58,1.88v-2.58l.38-2.34-.38-2.32v-2.36h2.2v9.6Zm4.64,0v-9.6h2.2v9.6Zm2.2-5.34-.76-.38a4.94,4.94,0,0,1,.8-2.94,2.84,2.84,0,0,1,2.46-1.14,3.05,3.05,0,0,1,1.3.26,3,3,0,0,1,1.08.84l-1.44,1.48a1.41,1.41,0,0,0-.58-.4,2.3,2.3,0,0,0-2.26.46A2.42,2.42,0,0,0,338.29,329.55Zm9.65,9.54a6,6,0,0,1-2.66-.56,4.69,4.69,0,0,1-1.84-1.54l1.44-1.44a3.94,3.94,0,0,0,1.32,1.08A4.07,4.07,0,0,0,348,337a3,3,0,0,0,2.06-.68,2.28,2.28,0,0,0,.76-1.82v-2.36l.38-2.12-.38-2.14v-2.58H353v9.2a4.34,4.34,0,0,1-2.42,4A5.83,5.83,0,0,1,347.94,339.09Zm-.1-4.4a4.5,4.5,0,0,1-2.32-.62,4.68,4.68,0,0,1-1.62-1.74,5.31,5.31,0,0,1-.58-2.46,5.14,5.14,0,0,1,.58-2.44,4.49,4.49,0,0,1,1.62-1.7,4.33,4.33,0,0,1,2.32-.64,4.13,4.13,0,0,1,2,.46,3.24,3.24,0,0,1,1.34,1.28,3.58,3.58,0,0,1,.48,1.88v2.36a3.5,3.5,0,0,1-.5,1.88,3.37,3.37,0,0,1-1.34,1.28A4.19,4.19,0,0,1,347.84,334.69Zm.44-2.08a2.84,2.84,0,0,0,1.4-.34,2.31,2.31,0,0,0,.92-.94,3,3,0,0,0,.34-1.44,2.79,2.79,0,0,0-.34-1.42,2.19,2.19,0,0,0-.92-1,2.74,2.74,0,0,0-1.4-.34,2.9,2.9,0,0,0-1.42.34,2.35,2.35,0,0,0-.94,1,2.9,2.9,0,0,0-.34,1.42,3,3,0,0,0,.34,1.42,2.48,2.48,0,0,0,.94,1A3,3,0,0,0,348.28,332.61Zm11.63,2.48a5.36,5.36,0,0,1-2.6-.64,4.89,4.89,0,0,1-2.48-4.36,5,5,0,0,1,2.44-4.34,4.94,4.94,0,0,1,2.52-.66,4.4,4.4,0,0,1,2.36.62,4.35,4.35,0,0,1,1.62,1.7,5,5,0,0,1,.6,2.46,4.57,4.57,0,0,1,0,.5c0,.16,0,.34-.08.54h-7.88v-1.8h6.74l-.82.72a3.71,3.71,0,0,0-.34-1.48,2.13,2.13,0,0,0-.86-.92,2.53,2.53,0,0,0-1.34-.32,2.85,2.85,0,0,0-1.46.36,2.37,2.37,0,0,0-1,1A3.19,3.19,0,0,0,357,330a3.35,3.35,0,0,0,.36,1.58,2.67,2.67,0,0,0,1,1.06,3.11,3.11,0,0,0,1.52.36,3.58,3.58,0,0,0,1.36-.26,3.07,3.07,0,0,0,1.08-.76l1.4,1.42a4.64,4.64,0,0,1-1.7,1.24A5.45,5.45,0,0,1,359.91,335.09Z"/></g></g></svg>