<svg xmlns="http://www.w3.org/2000/svg" viewBox="0 0 748.41 151.69"><defs><style>.cls-1{fill:#1dd3b0;}.cls-2{fill:#f7a278;}.cls-3{fill:#affc41;}</style></defs><g id="Capa_2" data-name="Capa 2"><g id="Capa_1-2" data-name="Capa 1"><path class="cls-1" d="M174.9,86H35.45a32.34,32.34,0,0,0,0,64.67H174.9a32.34,32.34,0,1,0,0-64.67Z"/><path class="cls-1" d="M134.4,32.34A32.33,32.33,0,0,0,105,.14V0H32.34a32.34,32.34,0,0,0,0,64.68c1,0,1.94-.06,2.9-.14H99.16c1,.08,1.92.14,2.9.14s1.94-.06,2.9-.14h0A32.34,32.34,0,0,0,134.4,32.34Z"/><path d="M31.87,41.4V23h2.32v9.14l-.44,3,.44,3v3.3Zm6.44.25a5.42,5.42,0,0,1-2.51-.57A4.65,4.65,0,0,1,34,39.47a4.7,4.7,0,0,1-.75-2.35V33.45A4.65,4.65,0,0,1,34,31.09a4.88,4.88,0,0,1,1.8-1.6,5.44,5.44,0,0,1,2.49-.58,5.62,5.62,0,0,1,3,.85,6,6,0,0,1,2.12,2.29,6.76,6.76,0,0,1,.78,3.25,6.69,6.69,0,0,1-.78,3.24,5.89,5.89,0,0,1-2.12,2.28A5.6,5.6,0,0,1,38.31,41.65Zm-.39-2.18a3.78,3.78,0,0,0,2-.54,3.88,3.88,0,0,0,1.39-1.48,4.77,4.77,0,0,0,0-4.33A3.88,3.88,0,0,0,40,31.64a4,4,0,0,0-4,0,3.73,3.73,0,0,0-1.36,1.48,4.61,4.61,0,0,0-.49,2.18,4.69,4.69,0,0,0,.48,2.15,3.6,3.6,0,0,0,1.36,1.48A3.79,3.79,0,0,0,37.92,39.47Z"/><path d="M51.92,41.6A5.49,5.49,0,0,1,49.21,41a4.67,4.67,0,0,1-1.87-1.87,5.63,5.63,0,0,1-.67-2.8V29.17H49v7a4.06,4.06,0,0,0,.34,1.74,2.52,2.52,0,0,0,1,1.12,3.07,3.07,0,0,0,1.57.39,2.72,2.72,0,0,0,2.14-.87,3.46,3.46,0,0,0,.77-2.38v-7h2.32v7.11a5.74,5.74,0,0,1-.67,2.8A4.71,4.71,0,0,1,54.62,41,5.45,5.45,0,0,1,51.92,41.6Z"/><path d="M59.26,31.28V29.17H74.88v2.11Zm3,10.12V24.05h2.32V41.4Zm7.28,0V24.05h2.32V41.4Z"/><path d="M82.45,41.65a6.26,6.26,0,0,1-3.22-.84,6.42,6.42,0,0,1-2.29-2.31,6.28,6.28,0,0,1-.85-3.25A6.11,6.11,0,0,1,76.94,32a6.5,6.5,0,0,1,2.29-2.28,6.27,6.27,0,0,1,3.22-.85A6.35,6.35,0,0,1,88,32a6.27,6.27,0,0,1,.85,3.22,6.31,6.31,0,0,1-6.41,6.4Zm0-2.23a4,4,0,0,0,2.08-.54A3.88,3.88,0,0,0,86,37.4a4.46,4.46,0,0,0,.51-2.15,4.18,4.18,0,0,0-.52-2.11,3.85,3.85,0,0,0-3.49-2,3.94,3.94,0,0,0-2,.53A3.69,3.69,0,0,0,79,33.14a4.28,4.28,0,0,0-.52,2.11A4.47,4.47,0,0,0,79,37.4a3.81,3.81,0,0,0,1.42,1.48A3.85,3.85,0,0,0,82.45,39.42Z"/><path d="M91.56,41.4V29.17h2.32V41.4Zm8.65,0V34.27A3.12,3.12,0,0,0,99.33,32a3,3,0,0,0-2.26-.9,3.21,3.21,0,0,0-1.65.41,2.92,2.92,0,0,0-1.13,1.13,3.21,3.21,0,0,0-.41,1.65l-1-.54a4.9,4.9,0,0,1,.62-2.47,4.61,4.61,0,0,1,1.73-1.72,4.93,4.93,0,0,1,2.49-.63,4.43,4.43,0,0,1,2.46.7,5.06,5.06,0,0,1,1.69,1.81,4.89,4.89,0,0,1,.62,2.39V41.4Z"/><path d="M69.85,127.39V109h2.31v9.13l-.43,3,.43,3v3.29Zm6.43.26a5.36,5.36,0,0,1-2.51-.58A4.63,4.63,0,0,1,72,125.46a4.72,4.72,0,0,1-.74-2.34v-3.68a4.52,4.52,0,0,1,.76-2.35,4.72,4.72,0,0,1,1.8-1.6,5.27,5.27,0,0,1,2.48-.58,5.54,5.54,0,0,1,3,.85,6,6,0,0,1,2.12,2.29,7.22,7.22,0,0,1,0,6.49,5.8,5.8,0,0,1-2.12,2.27A5.62,5.62,0,0,1,76.28,127.65Zm-.38-2.19a3.78,3.78,0,0,0,2-.54,3.89,3.89,0,0,0,1.39-1.48,4.75,4.75,0,0,0,0-4.32,3.89,3.89,0,0,0-1.39-1.48,3.78,3.78,0,0,0-2-.54,3.7,3.7,0,0,0-3.38,2,5.15,5.15,0,0,0,0,4.32,3.56,3.56,0,0,0,1.37,1.48A3.79,3.79,0,0,0,75.9,125.46Z"/><path d="M89.9,127.6a5.56,5.56,0,0,1-2.72-.66,4.56,4.56,0,0,1-1.86-1.86,5.67,5.67,0,0,1-.67-2.81v-7.1H87v7a4.06,4.06,0,0,0,.35,1.74,2.47,2.47,0,0,0,1,1.12,3.15,3.15,0,0,0,1.57.38,2.71,2.71,0,0,0,2.13-.86,3.41,3.41,0,0,0,.78-2.38v-7h2.31v7.1a5.67,5.67,0,0,1-.67,2.81,4.6,4.6,0,0,1-1.85,1.86A5.45,5.45,0,0,1,89.9,127.6Z"/><path d="M97.23,117.28v-2.11h15.63v2.11Zm3,10.11V110.05h2.31v17.34Zm7.28,0V110.05h2.32v17.34Z"/><path d="M120.43,127.65a6.17,6.17,0,0,1-3.22-.85,6.24,6.24,0,0,1-2.29-2.3,6.32,6.32,0,0,1-.85-3.26,6.1,6.1,0,0,1,.85-3.2,6.41,6.41,0,0,1,2.29-2.28,6.17,6.17,0,0,1,3.22-.85,6.37,6.37,0,0,1,3.25.84A6.07,6.07,0,0,1,126,118a6.16,6.16,0,0,1,.85,3.21,6.32,6.32,0,0,1-.85,3.26,6.19,6.19,0,0,1-2.3,2.3A6.28,6.28,0,0,1,120.43,127.65Zm0-2.24a4,4,0,0,0,2.08-.54,3.89,3.89,0,0,0,1.42-1.48,4.44,4.44,0,0,0,.51-2.15,4.21,4.21,0,0,0-.53-2.11,3.85,3.85,0,0,0-1.41-1.45,4.25,4.25,0,0,0-4.11,0,3.71,3.71,0,0,0-1.41,1.45,4.21,4.21,0,0,0-.52,2.11,4.33,4.33,0,0,0,.52,2.15,3.79,3.79,0,0,0,1.41,1.48A3.89,3.89,0,0,0,120.43,125.41Z"/><path d="M129.54,127.39V115.17h2.31v12.22Zm8.65,0v-7.13a3.18,3.18,0,0,0-.88-2.29,3,3,0,0,0-2.26-.9,3.31,3.31,0,0,0-1.65.41,3,3,0,0,0-1.13,1.14,3.2,3.2,0,0,0-.42,1.64l-.95-.54a4.92,4.92,0,0,1,.62-2.47,4.56,4.56,0,0,1,1.72-1.71,5,5,0,0,1,2.5-.63,4.35,4.35,0,0,1,2.46.7,5,5,0,0,1,1.68,1.81,4.78,4.78,0,0,1,.62,2.38v7.59Z"/><path class="cls-2" d="M452.46,86H313a32.34,32.34,0,1,0,0,64.67H452.46a32.34,32.34,0,0,0,0-64.67Z"/><path class="cls-2" d="M412,32.34A32.33,32.33,0,0,0,382.53.14V0H309.89a32.34,32.34,0,0,0,0,64.68c1,0,1.95-.06,2.9-.14h63.93c.95.08,1.92.14,2.9.14s1.94-.06,2.9-.14h0A32.34,32.34,0,0,0,412,32.34Z"/><path d="M309.43,41.4V23h2.31v9.14l-.43,3,.43,3v3.3Zm6.43.25a5.48,5.48,0,0,1-2.51-.57,4.62,4.62,0,0,1-2.53-4V33.45a4.56,4.56,0,0,1,.76-2.36,4.72,4.72,0,0,1,1.8-1.6,5.39,5.39,0,0,1,2.48-.58,5.63,5.63,0,0,1,3,.85A6,6,0,0,1,321,32.05a7.22,7.22,0,0,1,0,6.49,5.89,5.89,0,0,1-2.12,2.28A5.61,5.61,0,0,1,315.86,41.65Zm-.38-2.18a3.78,3.78,0,0,0,2-.54,4,4,0,0,0,1.39-1.48,4.77,4.77,0,0,0,0-4.33,4,4,0,0,0-1.39-1.48,3.78,3.78,0,0,0-2-.54,3.73,3.73,0,0,0-2,.54,3.83,3.83,0,0,0-1.37,1.48,4.73,4.73,0,0,0-.48,2.18,4.82,4.82,0,0,0,.47,2.15,3.62,3.62,0,0,0,1.37,1.48A3.79,3.79,0,0,0,315.48,39.47Z"/><path d="M329.48,41.6a5.55,5.55,0,0,1-2.72-.65,4.59,4.59,0,0,1-1.86-1.87,5.63,5.63,0,0,1-.67-2.8V29.17h2.31v7a4.06,4.06,0,0,0,.35,1.74,2.47,2.47,0,0,0,1,1.12,3,3,0,0,0,1.57.39,2.69,2.69,0,0,0,2.13-.87,3.41,3.41,0,0,0,.78-2.38v-7h2.31v7.11a5.63,5.63,0,0,1-.67,2.8A4.63,4.63,0,0,1,332.18,41,5.45,5.45,0,0,1,329.48,41.6Z"/><path d="M336.81,31.28V29.17h15.63v2.11Zm3,10.12V24.05h2.31V41.4Zm7.28,0V24.05h2.32V41.4Z"/><path d="M360,41.65a6.26,6.26,0,0,1-3.22-.84,6.37,6.37,0,0,1-3.14-5.56A6.11,6.11,0,0,1,354.5,32a6.41,6.41,0,0,1,2.29-2.28,6.27,6.27,0,0,1,3.22-.85,6.37,6.37,0,0,1,3.25.84,6.25,6.25,0,0,1,3.15,5.5,6.35,6.35,0,0,1-3.15,5.56A6.37,6.37,0,0,1,360,41.65Zm0-2.23a3.85,3.85,0,0,0,3.5-2,4.46,4.46,0,0,0,.51-2.15,4.18,4.18,0,0,0-.53-2.11,3.88,3.88,0,0,0-1.41-1.46,4.25,4.25,0,0,0-4.11,0,3.74,3.74,0,0,0-1.41,1.46,4.18,4.18,0,0,0-.52,2.11,4.36,4.36,0,0,0,.52,2.15,3.82,3.82,0,0,0,3.45,2Z"/><path d="M369.12,41.4V29.17h2.31V41.4Zm8.65,0V34.27a3.16,3.16,0,0,0-.88-2.29,3,3,0,0,0-2.26-.9,3.21,3.21,0,0,0-1.65.41,2.92,2.92,0,0,0-1.13,1.13,3.21,3.21,0,0,0-.42,1.65l-.95-.54a4.9,4.9,0,0,1,.62-2.47,4.65,4.65,0,0,1,1.72-1.72,5,5,0,0,1,2.5-.63,4.43,4.43,0,0,1,2.46.7,5,5,0,0,1,1.68,1.81,4.79,4.79,0,0,1,.62,2.39V41.4Z"/><path d="M347.41,127.39V109h2.31v9.13l-.44,3,.44,3v3.29Zm6.43.26a5.34,5.34,0,0,1-2.51-.58,4.56,4.56,0,0,1-1.79-1.61,4.72,4.72,0,0,1-.74-2.34v-3.68a4.52,4.52,0,0,1,.76-2.35,4.72,4.72,0,0,1,1.8-1.6,5.24,5.24,0,0,1,2.48-.58,5.51,5.51,0,0,1,3,.85,6,6,0,0,1,2.13,2.29,7.22,7.22,0,0,1,0,6.49,5.82,5.82,0,0,1-2.13,2.27A5.58,5.58,0,0,1,353.84,127.65Zm-.39-2.19a3.81,3.81,0,0,0,2-.54,4,4,0,0,0,1.39-1.48,4.83,4.83,0,0,0,0-4.32,4,4,0,0,0-1.39-1.48,3.81,3.81,0,0,0-2-.54,3.7,3.7,0,0,0-3.37,2,4.72,4.72,0,0,0-.49,2.17,4.63,4.63,0,0,0,.48,2.15,3.6,3.6,0,0,0,1.36,1.48A3.84,3.84,0,0,0,353.45,125.46Z"/><path d="M367.45,127.6a5.52,5.52,0,0,1-2.71-.66,4.65,4.65,0,0,1-1.87-1.86,5.78,5.78,0,0,1-.67-2.81v-7.1h2.32v7a4.06,4.06,0,0,0,.35,1.74,2.47,2.47,0,0,0,1,1.12,3.11,3.11,0,0,0,1.56.38,2.72,2.72,0,0,0,2.14-.86,3.41,3.41,0,0,0,.77-2.38v-7h2.32v7.1a5.67,5.67,0,0,1-.67,2.81,4.66,4.66,0,0,1-1.85,1.86A5.47,5.47,0,0,1,367.45,127.6Z"/><path d="M374.79,117.28v-2.11h15.63v2.11Zm3,10.11V110.05h2.32v17.34Zm7.29,0V110.05h2.31v17.34Z"/><path d="M398,127.65a6.16,6.16,0,0,1-3.21-.85,6.26,6.26,0,0,1-2.3-2.3,6.42,6.42,0,0,1-.85-3.26,6.2,6.2,0,0,1,.85-3.2,6.44,6.44,0,0,1,2.3-2.28,6.16,6.16,0,0,1,3.21-.85,6.41,6.41,0,0,1,3.26.84,6.07,6.07,0,0,1,2.3,2.28,6.16,6.16,0,0,1,.85,3.21,6.32,6.32,0,0,1-.85,3.26,6.19,6.19,0,0,1-2.3,2.3A6.32,6.32,0,0,1,398,127.65Zm0-2.24a4,4,0,0,0,2.09-.54,3.79,3.79,0,0,0,1.41-1.48,4.33,4.33,0,0,0,.52-2.15,4.21,4.21,0,0,0-.53-2.11,3.8,3.8,0,0,0-1.42-1.45,4.23,4.23,0,0,0-4.1,0,3.8,3.8,0,0,0-1.42,1.45,4.31,4.31,0,0,0-.51,2.11,4.44,4.44,0,0,0,.51,2.15,3.85,3.85,0,0,0,3.45,2Z"/><path d="M407.1,127.39V115.17h2.31v12.22Zm8.64,0v-7.13a3.17,3.17,0,0,0-.87-2.29,3,3,0,0,0-2.27-.9,3.3,3.3,0,0,0-1.64.41,3.12,3.12,0,0,0-1.14,1.14,3.3,3.3,0,0,0-.41,1.64l-1-.54a4.92,4.92,0,0,1,.62-2.47,4.49,4.49,0,0,1,1.72-1.71,5,5,0,0,1,2.5-.63,4.4,4.4,0,0,1,2.46.7,5,5,0,0,1,1.68,1.81,4.89,4.89,0,0,1,.62,2.38v7.59Z"/><path class="cls-3" d="M716.07,87H576.63a32.34,32.34,0,1,0,0,64.67H716.07a32.34,32.34,0,1,0,0-64.67Z"/><path class="cls-3" d="M675.57,33.36a32.33,32.33,0,0,0-29.42-32.2V1H573.51a32.34,32.34,0,0,0,0,64.68c1,0,2,0,2.9-.14h63.93c.95.09,1.92.14,2.9.14s1.94,0,2.89-.14h0A32.34,32.34,0,0,0,675.57,33.36Z"/><path d="M573.05,42.42V24h2.31v9.14l-.44,3,.44,3v3.3Zm6.43.26A5.46,5.46,0,0,1,577,42.1a4.62,4.62,0,0,1-2.53-4V34.47a4.56,4.56,0,0,1,.76-2.36,4.72,4.72,0,0,1,1.8-1.6,5.36,5.36,0,0,1,2.48-.58,5.51,5.51,0,0,1,3,.86,5.88,5.88,0,0,1,2.13,2.29,7.2,7.2,0,0,1,0,6.48,5.92,5.92,0,0,1-2.13,2.28A5.58,5.58,0,0,1,579.48,42.68Zm-.39-2.19a3.81,3.81,0,0,0,2-.54,4,4,0,0,0,1.39-1.48,4.85,4.85,0,0,0,0-4.33,4,4,0,0,0-1.39-1.48,3.81,3.81,0,0,0-2-.54,3.7,3.7,0,0,0-3.37,2,4.76,4.76,0,0,0-.49,2.18,4.66,4.66,0,0,0,.48,2.15A3.66,3.66,0,0,0,577.07,40,3.84,3.84,0,0,0,579.09,40.49Z"/><path d="M593.1,42.62a5.53,5.53,0,0,1-2.72-.65,4.59,4.59,0,0,1-1.86-1.87,5.64,5.64,0,0,1-.68-2.8V30.19h2.32v7a4.06,4.06,0,0,0,.35,1.74,2.47,2.47,0,0,0,1,1.12,3,3,0,0,0,1.57.39,2.69,2.69,0,0,0,2.13-.87,3.39,3.39,0,0,0,.77-2.38v-7h2.32V37.3a5.63,5.63,0,0,1-.67,2.8A4.63,4.63,0,0,1,595.8,42,5.45,5.45,0,0,1,593.1,42.62Z"/><path d="M600.43,32.3V30.19h15.63V32.3Zm3,10.12V25.07h2.32V42.42Zm7.29,0V25.07H613V42.42Z"/><path d="M623.62,42.68a6.26,6.26,0,0,1-3.21-.85,6.35,6.35,0,0,1-3.15-5.56,6.23,6.23,0,0,1,.85-3.21,6.34,6.34,0,0,1,2.3-2.27,6.17,6.17,0,0,1,3.21-.86,6.41,6.41,0,0,1,3.26.84,6.25,6.25,0,0,1,3.15,5.5,6.35,6.35,0,0,1-3.15,5.56A6.42,6.42,0,0,1,623.62,42.68Zm0-2.24a4,4,0,0,0,2.09-.54,3.86,3.86,0,0,0,1.41-1.48,4.36,4.36,0,0,0,.52-2.15,4.18,4.18,0,0,0-.53-2.11,3.88,3.88,0,0,0-1.41-1.46,4,4,0,0,0-2.08-.53,4,4,0,0,0-2,.53,3.83,3.83,0,0,0-1.42,1.46,4.28,4.28,0,0,0-.51,2.11,4.46,4.46,0,0,0,.51,2.15,4,4,0,0,0,1.42,1.48A3.88,3.88,0,0,0,623.62,40.44Z"/><path d="M632.74,42.42V30.19h2.31V42.42Zm8.64,0V35.29a3.15,3.15,0,0,0-.87-2.29,3,3,0,0,0-2.27-.9,3.2,3.2,0,0,0-1.64.41,3,3,0,0,0-1.14,1.13,3.31,3.31,0,0,0-.41,1.65l-.95-.54a4.9,4.9,0,0,1,.62-2.47,4.49,4.49,0,0,1,1.72-1.71,5,5,0,0,1,2.5-.64,4.48,4.48,0,0,1,2.46.7,5,5,0,0,1,1.68,1.82,4.86,4.86,0,0,1,.62,2.38v7.59Z"/><path d="M611,128.42V110h2.32v9.13l-.44,3,.44,3v3.3Zm6.44.25a5.31,5.31,0,0,1-2.51-.58,4.61,4.61,0,0,1-1.79-1.6,4.8,4.8,0,0,1-.75-2.35v-3.68a4.75,4.75,0,0,1,.76-2.35,4.88,4.88,0,0,1,1.8-1.6,5.44,5.44,0,0,1,2.49-.58,5.53,5.53,0,0,1,3,.85,6.1,6.1,0,0,1,2.13,2.29,7.22,7.22,0,0,1,0,6.49,6,6,0,0,1-2.13,2.28A5.69,5.69,0,0,1,617.46,128.67Zm-.39-2.18a3.76,3.76,0,0,0,2-.55,3.86,3.86,0,0,0,1.38-1.48,4.75,4.75,0,0,0,0-4.32,3.73,3.73,0,0,0-3.42-2,3.78,3.78,0,0,0-2,.54,3.74,3.74,0,0,0-1.36,1.48,5.05,5.05,0,0,0,0,4.32,3.54,3.54,0,0,0,1.36,1.48A3.73,3.73,0,0,0,617.07,126.49Z"/><path d="M631.07,128.62a5.52,5.52,0,0,1-2.71-.66,4.59,4.59,0,0,1-1.87-1.86,5.78,5.78,0,0,1-.67-2.81v-7.1h2.32v7a3.92,3.92,0,0,0,.35,1.74,2.5,2.5,0,0,0,1,1.12,3.07,3.07,0,0,0,1.57.38,2.7,2.7,0,0,0,2.14-.86,3.46,3.46,0,0,0,.77-2.38v-7h2.32v7.1a5.78,5.78,0,0,1-.67,2.81,4.6,4.6,0,0,1-1.85,1.86A5.49,5.49,0,0,1,631.07,128.62Z"/><path d="M638.41,118.3v-2.11H654v2.11Zm3,10.12V111.07h2.32v17.35Zm7.28,0V111.07H651v17.35Z"/><path d="M661.6,128.67a6.2,6.2,0,0,1-3.22-.85,6.31,6.31,0,0,1-2.29-2.3,6.42,6.42,0,0,1-.85-3.26,6.2,6.2,0,0,1,.85-3.2,6.5,6.5,0,0,1,2.29-2.28,6.2,6.2,0,0,1,3.22-.85,6.41,6.41,0,0,1,3.26.84,6.29,6.29,0,0,1,2.3,2.28,6.16,6.16,0,0,1,.85,3.21,6.32,6.32,0,0,1-6.41,6.41Zm0-2.24a4,4,0,0,0,2.08-.54,3.74,3.74,0,0,0,1.42-1.48,4.41,4.41,0,0,0,.51-2.15,4.21,4.21,0,0,0-.52-2.11,4.09,4.09,0,0,0-5.52-1.45,3.73,3.73,0,0,0-1.42,1.45,4.31,4.31,0,0,0-.51,2.11,4.41,4.41,0,0,0,.51,2.15,3.74,3.74,0,0,0,1.42,1.48A3.85,3.85,0,0,0,661.6,126.43Z"/><path d="M670.71,128.42V116.19H673v12.23Zm8.65,0v-7.14a3.19,3.19,0,0,0-.87-2.29,3,3,0,0,0-2.27-.9,3.21,3.21,0,0,0-1.65.42,3,3,0,0,0-1.13,1.13,3.3,3.3,0,0,0-.41,1.64l-.95-.54a4.92,4.92,0,0,1,.61-2.47,4.58,4.58,0,0,1,1.73-1.71,5,5,0,0,1,2.5-.63,4.34,4.34,0,0,1,2.45.7,5,5,0,0,1,2.31,4.19v7.6Z"/></g></g></svg>