<svg xmlns="http://www.w3.org/2000/svg" viewBox="0 0 538.35 58.42"><defs><style>.cls-1{fill:#26bea1;}</style></defs><g id="Capa_2" data-name="Capa 2"><g id="Capa_1-2" data-name="Capa 1"><path class="cls-1" d="M0,54.84V3.58H14.4V54.84Z"/><polygon class="cls-1" points="535.76 34.76 538.28 2.43 522.8 2.43 525.32 34.76 535.76 34.76"/><path class="cls-1" d="M536.16,42.39a7.38,7.38,0,0,0-5.58-2.31A7.49,7.49,0,0,0,525,42.39a7.84,7.84,0,0,0-2.23,5.69A7.75,7.75,0,0,0,525,53.69,7.49,7.49,0,0,0,530.58,56a7.38,7.38,0,0,0,5.58-2.31,7.84,7.84,0,0,0,2.19-5.61A7.93,7.93,0,0,0,536.16,42.39Z"/><path class="cls-1" d="M486.5,11a1.74,1.74,0,0,1,1.74,1.74V45.68a1.74,1.74,0,0,1-1.74,1.74H50.63a1.74,1.74,0,0,1-1.74-1.74V12.74A1.74,1.74,0,0,1,50.63,11H486.5m0-11H50.63A12.74,12.74,0,0,0,37.89,12.74V45.68A12.74,12.74,0,0,0,50.63,58.42H486.5a12.74,12.74,0,0,0,12.74-12.74V12.74A12.74,12.74,0,0,0,486.5,0Z"/></g></g></svg>