<svg xmlns="http://www.w3.org/2000/svg" xmlns:xlink="http://www.w3.org/1999/xlink" viewBox="0 0 1904.54 648.26"><defs><style>.cls-1{fill:none;}.cls-2{isolation:isolate;}.cls-3{clip-path:url(#clip-path);}.cls-4,.cls-8{fill:#1dd3b0;}.cls-4,.cls-7{opacity:0.3;}.cls-5{fill:#1d1d1b;}.cls-6{fill:#0c6;}.cls-12,.cls-7{mix-blend-mode:multiply;}.cls-9{clip-path:url(#clip-path-2);}.cls-10{fill:#086375;}.cls-11{fill:#fff;}.cls-12{opacity:0.73;}.cls-13{clip-path:url(#clip-path-3);}.cls-14{fill:#f7a278;}.cls-15{fill:#f7b497;}.cls-16{clip-path:url(#clip-path-4);}.cls-17{fill:#affc41;}.cls-18{fill:#caf487;}</style><clipPath id="clip-path" transform="translate(-2.39 11)"><rect class="cls-1" width="362.1" height="564.58"/></clipPath><clipPath id="clip-path-2" transform="translate(-2.39 11)"><rect class="cls-1" x="506.56" width="362.1" height="564.58"/></clipPath><clipPath id="clip-path-3" transform="translate(-2.39 11)"><rect class="cls-1" x="1519.69" y="3.69" width="362.1" height="564.58"/></clipPath><clipPath id="clip-path-4" transform="translate(-2.39 11)"><rect class="cls-1" x="1013.13" width="362.1" height="564.58"/></clipPath></defs><g class="cls-2"><g id="Capa_2" data-name="Capa 2"><g id="Capa_1-2" data-name="Capa 1"><g class="cls-3"><rect class="cls-4" y="12" width="362.1" height="564.58"/><polygon class="cls-5" points="51.09 162.95 58.19 173.19 66.02 173.19 73.11 163.02 73.11 183.47 85.23 183.47 85.23 139.92 76.36 139.92 62.13 160.83 47.85 139.92 38.98 139.92 38.98 183.47 51.09 183.47 51.09 162.95"/><path class="cls-5" d="M106.54,165.13H121.9l2.42,7.34H137l-16.39-43.55H108.17L91.59,172.47h12.48Zm3.22-9.54,4.56-13.51,4.44,13.51Z" transform="translate(-2.39 11)"/><path class="cls-5" d="M158.75,162.65a7.51,7.51,0,0,1-3.79.77,13.42,13.42,0,0,1-5.63-1.2,18.15,18.15,0,0,1-5-3.45l-7.65,7.64a21.91,21.91,0,0,0,7.62,5.17A26.44,26.44,0,0,0,154,173.2q8.63,0,13.37-3.64t4.74-10.3a13.15,13.15,0,0,0-1.1-5.63,11.8,11.8,0,0,0-2.91-3.89,17.53,17.53,0,0,0-3.94-2.56,39.47,39.47,0,0,0-4.32-1.75c-1.44-.49-2.77-1-4-1.4a11.9,11.9,0,0,1-2.91-1.5,2.55,2.55,0,0,1-1.1-2.11,2,2,0,0,1,1.13-1.84,6.39,6.39,0,0,1,3-.61,10.3,10.3,0,0,1,4.41.95,15.16,15.16,0,0,1,4,2.9l7.71-7.64a18.2,18.2,0,0,0-6.94-4.44,25.86,25.86,0,0,0-9.09-1.56,21.21,21.21,0,0,0-8.62,1.62,12.39,12.39,0,0,0-7.71,12,12.39,12.39,0,0,0,1.1,5.48A11.36,11.36,0,0,0,143.8,151a19.79,19.79,0,0,0,3.94,2.54,37.74,37.74,0,0,0,4.32,1.77c1.44.49,2.77,1,4,1.44a11.24,11.24,0,0,1,2.91,1.59,2.76,2.76,0,0,1,1.1,2.23A2.35,2.35,0,0,1,158.75,162.65Z" transform="translate(-2.39 11)"/><path class="cls-5" d="M94.33,224.9a27.6,27.6,0,0,0,9.36-1.53,22.19,22.19,0,0,0,7.46-4.4,19.79,19.79,0,0,0,4.93-6.89,23.94,23.94,0,0,0,0-17.92,19.85,19.85,0,0,0-4.93-6.88,21.88,21.88,0,0,0-7.49-4.4,28,28,0,0,0-9.45-1.53H75.86V224.9H94.33Zm-.12-33.15a12.87,12.87,0,0,1,5.9,1.25,9,9,0,0,1,3.86,3.76,13.06,13.06,0,0,1,1.37,6.3,13.67,13.67,0,0,1-1.34,6.36,8.66,8.66,0,0,1-3.86,3.83,13.19,13.19,0,0,1-5.93,1.25H88.09V191.75Z" transform="translate(-2.39 11)"/><polygon class="cls-5" points="153.35 202.5 153.35 192.35 132.68 192.35 130.35 192.35 120.44 192.35 120.44 235.9 130.35 235.9 132.68 235.9 153.72 235.9 153.72 225.75 132.68 225.75 132.68 218.65 151.46 218.65 151.46 208.74 132.68 208.74 132.68 202.5 153.35 202.5"/><path class="cls-5" d="M67.49,260.81a6.77,6.77,0,0,1-.85,3.52,5.75,5.75,0,0,1-2.36,2.2,7.49,7.49,0,0,1-3.45.77,7.74,7.74,0,0,1-3.46-.77,5.94,5.94,0,0,1-2.48-2.23,6.58,6.58,0,0,1-.92-3.55v-27H41.74v25.87a18.82,18.82,0,0,0,2.39,9.54,16.91,16.91,0,0,0,6.66,6.52,20.52,20.52,0,0,0,10,2.35,20.34,20.34,0,0,0,10-2.35,16.81,16.81,0,0,0,6.6-6.49,18.84,18.84,0,0,0,2.36-9.51V233.78H67.49Z" transform="translate(-2.39 11)"/><polygon class="cls-5" points="110.73 267.84 92.38 244.78 83.82 244.78 83.82 288.33 96.05 288.33 96.05 266.04 113.79 288.33 122.97 288.33 122.97 244.78 110.73 244.78 110.73 267.84"/><path class="cls-5" d="M175.85,246.53a21.43,21.43,0,0,0-4.92-7.19,22.54,22.54,0,0,0-7.5-4.74,27.42,27.42,0,0,0-18.9,0,22.6,22.6,0,0,0-7.49,4.74,21.51,21.51,0,0,0-4.92,7.16,23.78,23.78,0,0,0,0,18,21.41,21.41,0,0,0,5,7.22,23.18,23.18,0,0,0,7.52,4.77,26.94,26.94,0,0,0,18.81,0,22.22,22.22,0,0,0,7.47-4.77,21.65,21.65,0,0,0,4.92-7.22,24.09,24.09,0,0,0,0-18Zm-12.08,15.26a9.75,9.75,0,0,1-3.85,4.16,11.55,11.55,0,0,1-5.94,1.47,12.31,12.31,0,0,1-4.62-.83,9.8,9.8,0,0,1-3.51-2.38,10.43,10.43,0,0,1-2.24-3.76,15.06,15.06,0,0,1-.76-5,13.73,13.73,0,0,1,1.35-6.27,9.6,9.6,0,0,1,3.85-4.1,11.81,11.81,0,0,1,5.93-1.43,12.27,12.27,0,0,1,4.62.82,9.78,9.78,0,0,1,3.52,2.39,10.37,10.37,0,0,1,2.23,3.73,14.58,14.58,0,0,1,.76,4.86A13.86,13.86,0,0,1,163.77,261.79Z" transform="translate(-2.39 11)"/><polygon class="cls-5" points="130.8 124.4 117.11 124.4 107.67 136.29 117.9 136.29 130.8 124.4"/><path d="M192.72,231a7.26,7.26,0,0,0,3.54.88,7,7,0,0,0,2.83-.56,6.94,6.94,0,0,0,2.27-1.63L199,227.33a3.22,3.22,0,0,1-1.2.88,3.89,3.89,0,0,1-1.55.29,3.25,3.25,0,0,1-1.71-.44,3,3,0,0,1-1.16-1.2,3.53,3.53,0,0,1-.42-1.74,3.63,3.63,0,0,1,.42-1.78,2.79,2.79,0,0,1,1.16-1.17,3.44,3.44,0,0,1,1.71-.42,4,4,0,0,1,1.5.27,3,3,0,0,1,1.19.85l2.32-2.35a6.19,6.19,0,0,0-2.21-1.58,7,7,0,0,0-2.8-.55,7.21,7.21,0,0,0-3.57.88,6.6,6.6,0,0,0-2.5,2.42,6.83,6.83,0,0,0,0,6.88A6.68,6.68,0,0,0,192.72,231Z" transform="translate(-2.39 11)"/><path d="M205.68,231a7.39,7.39,0,0,0,7.07,0,6.6,6.6,0,0,0,3.39-5.85,6.48,6.48,0,0,0-.92-3.45,6.72,6.72,0,0,0-2.48-2.4,7.48,7.48,0,0,0-7.06,0,6.78,6.78,0,0,0-2.49,2.41,6.36,6.36,0,0,0-.92,3.43,6.49,6.49,0,0,0,.92,3.41A6.63,6.63,0,0,0,205.68,231Zm.7-7.62a2.89,2.89,0,0,1,1.13-1.17,3.34,3.34,0,0,1,1.69-.43,3.29,3.29,0,0,1,1.69.42,2.92,2.92,0,0,1,1.14,1.17,3.47,3.47,0,0,1,.43,1.75,3.67,3.67,0,0,1-.4,1.77,3,3,0,0,1-1.15,1.2,3.23,3.23,0,0,1-1.71.44,3.16,3.16,0,0,1-1.69-.44,2.87,2.87,0,0,1-1.13-1.21,4,4,0,0,1,0-3.5Z" transform="translate(-2.39 11)"/><path d="M222.09,224.18a2.69,2.69,0,0,1,.32-1.32,2.24,2.24,0,0,1,.9-.88,2.73,2.73,0,0,1,1.29-.31,2.42,2.42,0,0,1,2.51,2.54v7.36h3.63v-8.19a4.86,4.86,0,0,0-.64-2.44,5.09,5.09,0,0,0-1.76-1.84,4.67,4.67,0,0,0-2.54-.71,5.32,5.32,0,0,0-2.64.65,5.42,5.42,0,0,0-1.07.82v-1.2h-3.62v12.91h3.62Z" transform="translate(-2.39 11)"/><path d="M195.05,240.56a4.86,4.86,0,0,1,1.84-1.27,6.52,6.52,0,0,1,2.39-.43,6.64,6.64,0,0,1,2.56.47,5.19,5.19,0,0,1,1.89,1.3l2.51-2.51a9.74,9.74,0,0,0-3-2,10.12,10.12,0,0,0-3.95-.72,9.92,9.92,0,0,0-3.87.74,9.37,9.37,0,0,0-3.07,2,9.26,9.26,0,0,0-2,3.08,9.87,9.87,0,0,0-.74,3.81,9.77,9.77,0,0,0,.74,3.79,9.49,9.49,0,0,0,5.13,5.16,9.93,9.93,0,0,0,3.85.73,10.25,10.25,0,0,0,4-.73,9.54,9.54,0,0,0,3.06-2l-2.51-2.53a5.61,5.61,0,0,1-1.91,1.33,6.72,6.72,0,0,1-2.68.48,6.09,6.09,0,0,1-2.36-.45,5.36,5.36,0,0,1-1.86-1.27,5.77,5.77,0,0,1-1.2-2,7.3,7.3,0,0,1-.43-2.53,6.82,6.82,0,0,1,.45-2.53A6.24,6.24,0,0,1,195.05,240.56Z" transform="translate(-2.39 11)"/><path d="M217.4,253.24v1.21H221V241.53H217.4v1.23a4.53,4.53,0,0,0-1.26-.93,5.2,5.2,0,0,0-2.45-.56,5.69,5.69,0,0,0-3.16.89,6.32,6.32,0,0,0-2.22,2.42,7.65,7.65,0,0,0,0,6.85,6.22,6.22,0,0,0,2.22,2.41,5.85,5.85,0,0,0,3.16.88,5.42,5.42,0,0,0,2.48-.56A4.77,4.77,0,0,0,217.4,253.24ZM212.73,251a3,3,0,0,1-1.14-1.2,4,4,0,0,1,0-3.52,3,3,0,0,1,1.14-1.2,3.12,3.12,0,0,1,1.65-.43,3.18,3.18,0,0,1,1.68.43,2.83,2.83,0,0,1,1.12,1.2,3.74,3.74,0,0,1,.4,1.76,3.43,3.43,0,0,1-.88,2.46,3.37,3.37,0,0,1-4,.5Z" transform="translate(-2.39 11)"/><path d="M232.78,241.57a4.43,4.43,0,0,0-1.69-.3,4.11,4.11,0,0,0-3.3,1.36h0v-1.11h-3.63v12.92h3.63v-7.13a2.86,2.86,0,0,1,.68-2.09,2.38,2.38,0,0,1,1.75-.68,2.6,2.6,0,0,1,1,.16,1.68,1.68,0,0,1,.68.48l2.24-2.64A3.62,3.62,0,0,0,232.78,241.57Z" transform="translate(-2.39 11)"/><rect x="233.05" y="246.13" width="3.63" height="19.32"/><path d="M254.33,251.41a6.68,6.68,0,0,0-2.49-9.26,7,7,0,0,0-3.54-.88,6.94,6.94,0,0,0-6,3.29,6.5,6.5,0,0,0-.92,3.43,6.59,6.59,0,0,0,.92,3.42,6.8,6.8,0,0,0,2.5,2.44,7.47,7.47,0,0,0,7.07,0A6.6,6.6,0,0,0,254.33,251.41Zm-3.17-1.67a3,3,0,0,1-1.15,1.2,3.35,3.35,0,0,1-1.71.44,3.25,3.25,0,0,1-1.69-.44,3,3,0,0,1-1.14-1.21,3.84,3.84,0,0,1-.4-1.74,3.78,3.78,0,0,1,.4-1.76,2.92,2.92,0,0,1,1.14-1.17,3.24,3.24,0,0,1,1.69-.43A3.37,3.37,0,0,1,250,245a3,3,0,0,1,1.15,1.18,3.43,3.43,0,0,1,.43,1.74A3.74,3.74,0,0,1,251.16,249.74Z" transform="translate(-2.39 11)"/><path d="M265.52,247.48a7.24,7.24,0,0,0-1.56-.7c-.55-.17-1.06-.32-1.55-.44a4.55,4.55,0,0,1-1.2-.47.81.81,0,0,1-.47-.71.74.74,0,0,1,.39-.68,2.34,2.34,0,0,1,1.16-.22,3.85,3.85,0,0,1,1.57.33,3.72,3.72,0,0,1,1.34,1l2.13-2.17a5.19,5.19,0,0,0-2.15-1.68,7.53,7.53,0,0,0-2.95-.56,6.39,6.39,0,0,0-2.65.51,4,4,0,0,0-1.75,1.43,3.71,3.71,0,0,0-.61,2.12,3.66,3.66,0,0,0,.46,1.95,3.1,3.1,0,0,0,1.22,1.14,8.9,8.9,0,0,0,1.56.66c.54.17,1.06.32,1.55.45a4.51,4.51,0,0,1,1.2.5.9.9,0,0,1,.47.8.78.78,0,0,1-.43.7,2.52,2.52,0,0,1-1.26.26,4.65,4.65,0,0,1-1.93-.39,4.55,4.55,0,0,1-1.54-1.13l-2.13,2.16a6.09,6.09,0,0,0,1.55,1.28,7.37,7.37,0,0,0,2,.81,8.19,8.19,0,0,0,2.15.28,5.85,5.85,0,0,0,3.73-1.1,3.63,3.63,0,0,0,1.39-3,3.69,3.69,0,0,0-.45-1.94A3.75,3.75,0,0,0,265.52,247.48Z" transform="translate(-2.39 11)"/><path d="M196.69,258.54l-7.56,18.79H193l1.32-3.47H202l1.3,3.47h4l-7.47-18.79Zm-1.15,12.19,2.68-7,2.62,7Z" transform="translate(-2.39 11)"/><rect x="207.05" y="269.01" width="3.63" height="19.32"/><path d="M219.79,267.36a2.32,2.32,0,0,1,1.16-.23,3.85,3.85,0,0,1,1.57.33,4,4,0,0,1,1.34,1l2.13-2.16a5,5,0,0,0-2.15-1.68,7.53,7.53,0,0,0-3-.56,6.39,6.39,0,0,0-2.65.51,3.94,3.94,0,0,0-1.75,1.42,3.74,3.74,0,0,0-.61,2.12,3.61,3.61,0,0,0,.46,1.95,3.2,3.2,0,0,0,1.22,1.15,7.91,7.91,0,0,0,1.56.65c.54.17,1.06.33,1.55.46a4.52,4.52,0,0,1,1.2.49.91.91,0,0,1,.46.8.78.78,0,0,1-.42.71,2.53,2.53,0,0,1-1.26.25,4.82,4.82,0,0,1-1.93-.38,4.58,4.58,0,0,1-1.54-1.14l-2.13,2.16a6.13,6.13,0,0,0,1.55,1.29,7.93,7.93,0,0,0,2,.81,8.19,8.19,0,0,0,2.15.28,5.8,5.8,0,0,0,3.73-1.11,3.63,3.63,0,0,0,1.39-3,3.75,3.75,0,0,0-.45-1.95,3.62,3.62,0,0,0-1.2-1.2,7.14,7.14,0,0,0-1.57-.71c-.54-.17-1.05-.31-1.54-.44a4.56,4.56,0,0,1-1.2-.46.82.82,0,0,1-.47-.71A.74.74,0,0,1,219.79,267.36Z" transform="translate(-2.39 11)"/><rect x="225.87" y="275.41" width="3.63" height="12.92"/><path d="M230.07,258.3a1.87,1.87,0,0,0-1.42.6,2,2,0,0,0-.58,1.45,2,2,0,0,0,.58,1.46,1.87,1.87,0,0,0,1.42.6,1.91,1.91,0,0,0,1.47-.6,2,2,0,0,0,.56-1.46,2,2,0,0,0-.56-1.45A1.91,1.91,0,0,0,230.07,258.3Z" transform="translate(-2.39 11)"/><path d="M244.94,264.85a4.67,4.67,0,0,0-2.54-.71,5.23,5.23,0,0,0-2.64.66,5,5,0,0,0-1.07.81v-1.2h-3.63v12.92h3.63v-7.4a2.74,2.74,0,0,1,.32-1.32,2.31,2.31,0,0,1,.9-.88,2.73,2.73,0,0,1,1.29-.31,2.47,2.47,0,0,1,1.8.7,2.43,2.43,0,0,1,.71,1.84v7.37h3.63v-8.2a4.86,4.86,0,0,0-.64-2.44A5.09,5.09,0,0,0,244.94,264.85Z" transform="translate(-2.39 11)"/><path d="M259.35,265.64a4.72,4.72,0,0,0-1.25-.94,5.37,5.37,0,0,0-2.46-.56,5.72,5.72,0,0,0-3.16.9,6.37,6.37,0,0,0-2.22,2.41,7.22,7.22,0,0,0-.81,3.44,7.14,7.14,0,0,0,.81,3.42,6.34,6.34,0,0,0,2.22,2.4,5.79,5.79,0,0,0,3.16.88,5.27,5.27,0,0,0,2.48-.56,4.52,4.52,0,0,0,1.23-.91v1.21h3.58V264.41h-3.58Zm-.69,7.68a3.06,3.06,0,0,1-2.35.94,3.17,3.17,0,0,1-1.63-.43,3,3,0,0,1-1.13-1.2,3.9,3.9,0,0,1,0-3.52,3,3,0,0,1,1.13-1.21,3.23,3.23,0,0,1,1.66-.42,3.27,3.27,0,0,1,1.68.42,3,3,0,0,1,1.12,1.21,3.84,3.84,0,0,1,.4,1.76A3.45,3.45,0,0,1,258.66,273.32Z" transform="translate(-2.39 11)"/><path class="cls-6" d="M89.2,310.64v3.72a7.22,7.22,0,0,1,7.2,7.21s0,.07,0,.1h3.72v-.1A10.93,10.93,0,0,0,89.2,310.64Z" transform="translate(-2.39 11)"/><path class="cls-5" d="M87.49,310.64H86.16A10.93,10.93,0,0,0,87,332.46h.49v-3.73l-.49,0a7.21,7.21,0,1,1,0-14.42l.49,0Z" transform="translate(-2.39 11)"/><path class="cls-6" d="M96.4,298.12a7.21,7.21,0,0,1-7.21,7.2V309h0a10.93,10.93,0,0,0,0-21.85h0v3.72A7.21,7.21,0,0,1,96.4,298.12Z" transform="translate(-2.39 11)"/><path class="cls-5" d="M87.49,309v-3.72a7.22,7.22,0,0,1-7.2-7.21s0-.07,0-.1H76.58v.1A10.93,10.93,0,0,0,87.49,309Z" transform="translate(-2.39 11)"/><path d="M122,307.91a7.35,7.35,0,0,1-3.74-1,7.14,7.14,0,0,1-2.66-2.6,7.25,7.25,0,0,1,0-7.28,7.32,7.32,0,0,1,2.66-2.55,7.91,7.91,0,0,1,7.5,0,7,7,0,0,1,2.64,2.55,6.87,6.87,0,0,1,1,3.66,7.06,7.06,0,0,1-3.6,6.23A7.48,7.48,0,0,1,122,307.91Zm0-3.57a3.55,3.55,0,0,0,1.82-.47,3.13,3.13,0,0,0,1.22-1.28,4.05,4.05,0,0,0,.43-1.89,3.77,3.77,0,0,0-.46-1.86,3.16,3.16,0,0,0-1.22-1.24,3.47,3.47,0,0,0-1.79-.44,3.54,3.54,0,0,0-1.8.45,3.16,3.16,0,0,0-1.21,1.25,3.94,3.94,0,0,0-.42,1.87,4,4,0,0,0,.42,1.85,3.27,3.27,0,0,0,1.21,1.29A3.45,3.45,0,0,0,122,304.34Z" transform="translate(-2.39 11)"/><path d="M131.86,307.6V293.86h3.86V307.6Zm9.2,0v-7.83a2.61,2.61,0,0,0-.75-2,2.66,2.66,0,0,0-1.92-.74,2.87,2.87,0,0,0-1.38.33,2.36,2.36,0,0,0-.95.93,2.83,2.83,0,0,0-.34,1.41l-1.5-.77a5.31,5.31,0,0,1,.71-2.79,5,5,0,0,1,1.93-1.9,5.5,5.5,0,0,1,2.81-.7,4.93,4.93,0,0,1,2.69.75,5.51,5.51,0,0,1,1.88,2,5.23,5.23,0,0,1,.68,2.6v8.71Z" transform="translate(-2.39 11)"/><path d="M153.55,307.88a6,6,0,0,1-3.28-.93,6.42,6.42,0,0,1-2.29-2.57,8.42,8.42,0,0,1,0-7.25,6.79,6.79,0,0,1,2.27-2.59,5.88,5.88,0,0,1,3.32-1,5.24,5.24,0,0,1,2.78.7,4.84,4.84,0,0,1,1.82,1.88,6,6,0,0,1,.71,2.7v3.77a6.13,6.13,0,0,1-.68,2.67,4.74,4.74,0,0,1-1.8,1.89A5.57,5.57,0,0,1,153.55,307.88Zm.88-3.6a3.14,3.14,0,0,0,2.44-1,3.75,3.75,0,0,0,.9-2.59,4.16,4.16,0,0,0-.41-1.91,2.83,2.83,0,0,0-1.18-1.26,3.47,3.47,0,0,0-1.75-.44,3.28,3.28,0,0,0-1.74.46,3.11,3.11,0,0,0-1.19,1.27,4.4,4.4,0,0,0,0,3.75,3.25,3.25,0,0,0,1.18,1.28A3.33,3.33,0,0,0,154.43,304.28Zm3.15,3.32v-3.69l.62-3.32-.62-3.35V287.05h3.83V307.6Z" transform="translate(-2.39 11)"/><path d="M170.49,307.88a6.26,6.26,0,0,1-3.37-.93,6.75,6.75,0,0,1-2.35-2.56,8.07,8.07,0,0,1,0-7.29,6.78,6.78,0,0,1,2.35-2.57,6.19,6.19,0,0,1,3.37-.95,5.64,5.64,0,0,1,2.61.6,4.9,4.9,0,0,1,1.86,1.63,4.77,4.77,0,0,1,.78,2.37v5.13a4.71,4.71,0,0,1-2.61,4A5.7,5.7,0,0,1,170.49,307.88Zm.71-3.54a3.23,3.23,0,0,0,2.49-1,3.62,3.62,0,0,0,.94-2.61,4.05,4.05,0,0,0-.42-1.87,3.16,3.16,0,0,0-1.2-1.28,3.44,3.44,0,0,0-1.78-.45,3.39,3.39,0,0,0-1.76.45,3.18,3.18,0,0,0-1.21,1.28,3.94,3.94,0,0,0-.44,1.87,4,4,0,0,0,.44,1.88,3.26,3.26,0,0,0,2.94,1.73Zm3.23,3.26v-3.69l.63-3.32-.63-3.35v-3.38h3.81V307.6Z" transform="translate(-2.39 11)"/><path d="M122,325.82a7.58,7.58,0,0,1-3.76-.94,7.2,7.2,0,0,1-2.67-9.89,7.09,7.09,0,0,1,2.67-2.57,7.74,7.74,0,0,1,3.79-.93,7.47,7.47,0,0,1,3,.58,6.7,6.7,0,0,1,2.36,1.69l-2.47,2.5a3.05,3.05,0,0,0-1.27-.91,4.3,4.3,0,0,0-1.6-.29,3.74,3.74,0,0,0-1.82.44,3.08,3.08,0,0,0-1.23,1.25,3.83,3.83,0,0,0-.44,1.89,3.76,3.76,0,0,0,.44,1.86,3.29,3.29,0,0,0,1.23,1.28,3.54,3.54,0,0,0,1.82.46,4.18,4.18,0,0,0,1.65-.31A3.43,3.43,0,0,0,125,321l2.47,2.5a7,7,0,0,1-2.41,1.73A7.39,7.39,0,0,1,122,325.82Z" transform="translate(-2.39 11)"/><path d="M136,325.82a8,8,0,0,1-3.86-.92,6.94,6.94,0,0,1-3.66-6.23,7.09,7.09,0,0,1,.95-3.69,6.9,6.9,0,0,1,2.61-2.56,7.45,7.45,0,0,1,3.7-.93,6.83,6.83,0,0,1,3.51.88,6.41,6.41,0,0,1,2.4,2.42,7.09,7.09,0,0,1,.88,3.54,5.06,5.06,0,0,1-.06.76c0,.27-.09.56-.14.88H130.67v-2.81l9.88,0-1.62,1.2a5.25,5.25,0,0,0-.41-2.05,2.8,2.8,0,0,0-1.1-1.25,3.38,3.38,0,0,0-1.75-.42,3.55,3.55,0,0,0-1.89.5,3.29,3.29,0,0,0-1.24,1.37,4.86,4.86,0,0,0-.42,2.1,4.77,4.77,0,0,0,.45,2.17,3.14,3.14,0,0,0,1.32,1.38,4.12,4.12,0,0,0,2,.48,4.93,4.93,0,0,0,1.89-.35,4.16,4.16,0,0,0,1.46-1l2.21,2.22a5.88,5.88,0,0,1-2.41,1.78A8.07,8.07,0,0,1,136,325.82Z" transform="translate(-2.39 11)"/><path d="M144.86,325.51V311.77h3.86v13.74Zm3.86-7.58-1.53-1.05a7.4,7.4,0,0,1,1.54-3.95,4.39,4.39,0,0,1,3.51-1.44,4.78,4.78,0,0,1,1.8.32,4,4,0,0,1,1.41,1l-2.39,2.81a1.7,1.7,0,0,0-.72-.51,2.73,2.73,0,0,0-1-.17,2.55,2.55,0,0,0-1.86.72A3.05,3.05,0,0,0,148.72,317.93Z" transform="translate(-2.39 11)"/><path d="M163,325.82a7.52,7.52,0,0,1-3.75-.95,7.11,7.11,0,0,1-2.65-2.6,7,7,0,0,1-1-3.63,6.9,6.9,0,0,1,1-3.65,7.13,7.13,0,0,1,2.65-2.55,7.42,7.42,0,0,1,3.75-.95,7.57,7.57,0,0,1,3.76.93,7.13,7.13,0,0,1,2.64,2.56,7.17,7.17,0,0,1-2.63,9.89A7.51,7.51,0,0,1,163,325.82Zm0-3.58a3.51,3.51,0,0,0,1.81-.46A3.29,3.29,0,0,0,166,320.5a4.05,4.05,0,0,0,.42-1.89,3.77,3.77,0,0,0-.45-1.86,3.33,3.33,0,0,0-1.22-1.25,3.57,3.57,0,0,0-1.79-.44,3.44,3.44,0,0,0-1.8.46,3,3,0,0,0-1.21,1.25,3.91,3.91,0,0,0-.43,1.87,4,4,0,0,0,.43,1.84,3.16,3.16,0,0,0,1.21,1.3A3.44,3.44,0,0,0,163,322.24Z" transform="translate(-2.39 11)"/><g class="cls-7"><path class="cls-8" d="M380.38,47.81A12.41,12.41,0,0,1,368,60.21v6.4h0A18.8,18.8,0,0,0,368,29h0v6.39A12.42,12.42,0,0,1,380.38,47.81Z" transform="translate(-2.39 11)"/><path class="cls-8" d="M355.38,7.79a12.42,12.42,0,0,0,12.4,12.4v6.39h0a18.79,18.79,0,1,1,0-37.58h0v6.39A12.42,12.42,0,0,0,355.38,7.79Z" transform="translate(-2.39 11)"/><path class="cls-8" d="M380.48,128.26a12.41,12.41,0,0,1-12.4,12.4v6.39h0a18.79,18.79,0,1,0,0-37.58h0v6.39A12.42,12.42,0,0,1,380.48,128.26Z" transform="translate(-2.39 11)"/><path class="cls-8" d="M355.48,88.24a12.42,12.42,0,0,0,12.4,12.4V107h0a18.79,18.79,0,0,1,0-37.58h0v6.39A12.42,12.42,0,0,0,355.48,88.24Z" transform="translate(-2.39 11)"/><path class="cls-8" d="M380.53,209a12.42,12.42,0,0,1-12.4,12.4v6.39h0a18.79,18.79,0,1,0,0-37.58h0v6.39A12.41,12.41,0,0,1,380.53,209Z" transform="translate(-2.39 11)"/><path class="cls-8" d="M355.53,169a12.41,12.41,0,0,0,12.4,12.4v6.39h0a18.79,18.79,0,0,1,0-37.58h0v6.39A12.42,12.42,0,0,0,355.53,169Z" transform="translate(-2.39 11)"/><path class="cls-8" d="M380.63,289.47a12.42,12.42,0,0,1-12.4,12.4v6.39h0a18.8,18.8,0,0,0,0-37.59h0v6.4A12.41,12.41,0,0,1,380.63,289.47Z" transform="translate(-2.39 11)"/><path class="cls-8" d="M355.63,249.44a12.41,12.41,0,0,0,12.4,12.4v6.39h0a18.79,18.79,0,1,1,0-37.58h0V237A12.41,12.41,0,0,0,355.63,249.44Z" transform="translate(-2.39 11)"/><path class="cls-8" d="M380.61,371.11a12.42,12.42,0,0,1-12.4,12.4v6.39h0a18.79,18.79,0,1,0,0-37.58h0v6.39A12.42,12.42,0,0,1,380.61,371.11Z" transform="translate(-2.39 11)"/><path class="cls-8" d="M355.61,331.08a12.41,12.41,0,0,0,12.4,12.4v6.4h0a18.8,18.8,0,0,1,0-37.59h0v6.4A12.41,12.41,0,0,0,355.61,331.08Z" transform="translate(-2.39 11)"/><path class="cls-8" d="M380.71,451.56a12.42,12.42,0,0,1-12.4,12.4v6.39h0a18.79,18.79,0,0,0,0-37.58h0v6.39A12.42,12.42,0,0,1,380.71,451.56Z" transform="translate(-2.39 11)"/><path class="cls-8" d="M355.71,411.53a12.41,12.41,0,0,0,12.4,12.4v6.4h0a18.8,18.8,0,0,1,0-37.59h0v6.39A12.42,12.42,0,0,0,355.71,411.53Z" transform="translate(-2.39 11)"/><path class="cls-8" d="M380.76,532.31a12.42,12.42,0,0,1-12.4,12.4v6.39h0a18.79,18.79,0,0,0,0-37.58h0v6.39A12.42,12.42,0,0,1,380.76,532.31Z" transform="translate(-2.39 11)"/><path class="cls-8" d="M355.76,492.29a12.42,12.42,0,0,0,12.4,12.4v6.39h0a18.79,18.79,0,0,1,0-37.58h0v6.39A12.41,12.41,0,0,0,355.76,492.29Z" transform="translate(-2.39 11)"/><path class="cls-8" d="M380.86,612.76a12.42,12.42,0,0,1-12.4,12.4v6.39h0a18.79,18.79,0,1,0,0-37.58h0v6.39A12.42,12.42,0,0,1,380.86,612.76Z" transform="translate(-2.39 11)"/><path class="cls-8" d="M355.86,572.74a12.42,12.42,0,0,0,12.4,12.4v6.39h0a18.8,18.8,0,0,1,0-37.59h0v6.4A12.41,12.41,0,0,0,355.86,572.74Z" transform="translate(-2.39 11)"/></g><g class="cls-7"><path class="cls-8" d="M332.44,49.83A12.41,12.41,0,0,1,320,62.23v6.39h0a18.79,18.79,0,0,0,0-37.58h0v6.39A12.41,12.41,0,0,1,332.44,49.83Z" transform="translate(-2.39 11)"/><path class="cls-8" d="M307.44,9.81a12.42,12.42,0,0,0,12.4,12.4V28.6h0a18.79,18.79,0,1,1,0-37.58h0v6.39A12.42,12.42,0,0,0,307.44,9.81Z" transform="translate(-2.39 11)"/><path class="cls-8" d="M332.54,130.28a12.41,12.41,0,0,1-12.4,12.4v6.39h0a18.79,18.79,0,1,0,0-37.58h0v6.39A12.41,12.41,0,0,1,332.54,130.28Z" transform="translate(-2.39 11)"/><path class="cls-8" d="M307.54,90.26a12.42,12.42,0,0,0,12.4,12.4v6.39h0a18.8,18.8,0,0,1,0-37.59h0v6.4A12.42,12.42,0,0,0,307.54,90.26Z" transform="translate(-2.39 11)"/><path class="cls-8" d="M332.59,211a12.41,12.41,0,0,1-12.4,12.4v6.4h0a18.8,18.8,0,0,0,0-37.59h0v6.39A12.42,12.42,0,0,1,332.59,211Z" transform="translate(-2.39 11)"/><path class="cls-8" d="M307.59,171a12.42,12.42,0,0,0,12.4,12.4v6.39h0a18.79,18.79,0,0,1,0-37.58h0v6.39A12.42,12.42,0,0,0,307.59,171Z" transform="translate(-2.39 11)"/><path class="cls-8" d="M332.69,291.48a12.41,12.41,0,0,1-12.4,12.4v6.4h0a18.8,18.8,0,0,0,0-37.59h0v6.39A12.42,12.42,0,0,1,332.69,291.48Z" transform="translate(-2.39 11)"/><path class="cls-8" d="M307.69,251.46a12.42,12.42,0,0,0,12.4,12.4v6.39h0a18.79,18.79,0,1,1,0-37.58h0v6.39A12.42,12.42,0,0,0,307.69,251.46Z" transform="translate(-2.39 11)"/><path class="cls-8" d="M332.67,373.13a12.42,12.42,0,0,1-12.4,12.4v6.39h0a18.79,18.79,0,0,0,0-37.58h0v6.39A12.41,12.41,0,0,1,332.67,373.13Z" transform="translate(-2.39 11)"/><path class="cls-8" d="M307.67,333.1a12.41,12.41,0,0,0,12.4,12.4v6.39h0a18.79,18.79,0,0,1,0-37.58h0v6.39A12.42,12.42,0,0,0,307.67,333.1Z" transform="translate(-2.39 11)"/><path class="cls-8" d="M332.77,453.58a12.42,12.42,0,0,1-12.4,12.4v6.39h0a18.8,18.8,0,0,0,0-37.59h0v6.4A12.41,12.41,0,0,1,332.77,453.58Z" transform="translate(-2.39 11)"/><path class="cls-8" d="M307.77,413.55a12.41,12.41,0,0,0,12.4,12.4v6.39h0a18.79,18.79,0,0,1,0-37.58h0v6.39A12.41,12.41,0,0,0,307.77,413.55Z" transform="translate(-2.39 11)"/><path class="cls-8" d="M332.82,534.33a12.41,12.41,0,0,1-12.4,12.4v6.39h0a18.79,18.79,0,0,0,0-37.58h0v6.39A12.41,12.41,0,0,1,332.82,534.33Z" transform="translate(-2.39 11)"/><path class="cls-8" d="M307.82,494.3a12.41,12.41,0,0,0,12.4,12.4v6.4h0a18.8,18.8,0,0,1,0-37.59h0v6.4A12.41,12.41,0,0,0,307.82,494.3Z" transform="translate(-2.39 11)"/><path class="cls-8" d="M332.92,614.78a12.42,12.42,0,0,1-12.4,12.4v6.39h0a18.79,18.79,0,0,0,0-37.58h0v6.39A12.42,12.42,0,0,1,332.92,614.78Z" transform="translate(-2.39 11)"/><path class="cls-8" d="M307.92,574.75a12.41,12.41,0,0,0,12.4,12.4v6.4h0a18.8,18.8,0,0,1,0-37.59h0v6.39A12.42,12.42,0,0,0,307.92,574.75Z" transform="translate(-2.39 11)"/></g><g class="cls-7"><path class="cls-8" d="M284.51,47.81a12.41,12.41,0,0,1-12.4,12.4v6.4h0a18.8,18.8,0,0,0,0-37.59h0v6.39A12.42,12.42,0,0,1,284.51,47.81Z" transform="translate(-2.39 11)"/><path class="cls-8" d="M259.51,7.79a12.41,12.41,0,0,0,12.4,12.4v6.39h0a18.79,18.79,0,0,1,0-37.58h0v6.39A12.41,12.41,0,0,0,259.51,7.79Z" transform="translate(-2.39 11)"/><path class="cls-8" d="M284.61,128.26a12.41,12.41,0,0,1-12.4,12.4v6.39h0a18.79,18.79,0,1,0,0-37.58h0v6.39A12.42,12.42,0,0,1,284.61,128.26Z" transform="translate(-2.39 11)"/><path class="cls-8" d="M259.61,88.24a12.41,12.41,0,0,0,12.4,12.4V107h0a18.79,18.79,0,1,1,0-37.58h0v6.39A12.41,12.41,0,0,0,259.61,88.24Z" transform="translate(-2.39 11)"/><path class="cls-8" d="M284.66,209a12.42,12.42,0,0,1-12.4,12.4v6.39h0a18.8,18.8,0,0,0,0-37.59h0v6.4A12.41,12.41,0,0,1,284.66,209Z" transform="translate(-2.39 11)"/><path class="cls-8" d="M259.66,169a12.41,12.41,0,0,0,12.4,12.4v6.39h0a18.79,18.79,0,1,1,0-37.58h0v6.39A12.42,12.42,0,0,0,259.66,169Z" transform="translate(-2.39 11)"/><path class="cls-8" d="M284.76,289.47a12.42,12.42,0,0,1-12.4,12.4v6.39h0a18.8,18.8,0,0,0,0-37.59h0v6.4A12.41,12.41,0,0,1,284.76,289.47Z" transform="translate(-2.39 11)"/><path class="cls-8" d="M259.76,249.44a12.41,12.41,0,0,0,12.4,12.4v6.39h0a18.79,18.79,0,0,1,0-37.58h0V237A12.41,12.41,0,0,0,259.76,249.44Z" transform="translate(-2.39 11)"/><path class="cls-8" d="M284.73,371.11a12.41,12.41,0,0,1-12.4,12.4v6.39h0a18.79,18.79,0,1,0,0-37.58h0v6.39A12.41,12.41,0,0,1,284.73,371.11Z" transform="translate(-2.39 11)"/><path class="cls-8" d="M259.74,331.08a12.41,12.41,0,0,0,12.39,12.4v6.4h0a18.8,18.8,0,0,1,0-37.59h0v6.4A12.41,12.41,0,0,0,259.74,331.08Z" transform="translate(-2.39 11)"/><path class="cls-8" d="M284.83,451.56a12.41,12.41,0,0,1-12.4,12.4v6.39h0a18.79,18.79,0,0,0,0-37.58h0v6.39A12.41,12.41,0,0,1,284.83,451.56Z" transform="translate(-2.39 11)"/><path class="cls-8" d="M259.83,411.53a12.42,12.42,0,0,0,12.4,12.4v6.4h0a18.8,18.8,0,0,1,0-37.59h0v6.39A12.42,12.42,0,0,0,259.83,411.53Z" transform="translate(-2.39 11)"/><path class="cls-8" d="M284.88,532.31a12.41,12.41,0,0,1-12.4,12.4v6.39h0a18.79,18.79,0,0,0,0-37.58h0v6.39A12.41,12.41,0,0,1,284.88,532.31Z" transform="translate(-2.39 11)"/><path class="cls-8" d="M259.88,492.29a12.42,12.42,0,0,0,12.4,12.4v6.39h0a18.79,18.79,0,1,1,0-37.58h0v6.39A12.42,12.42,0,0,0,259.88,492.29Z" transform="translate(-2.39 11)"/><path class="cls-8" d="M285,612.76a12.41,12.41,0,0,1-12.4,12.4v6.39h0a18.79,18.79,0,1,0,0-37.58h0v6.39A12.41,12.41,0,0,1,285,612.76Z" transform="translate(-2.39 11)"/><path class="cls-8" d="M260,572.74a12.42,12.42,0,0,0,12.4,12.4v6.39h0a18.8,18.8,0,0,1,0-37.59h0v6.4A12.42,12.42,0,0,0,260,572.74Z" transform="translate(-2.39 11)"/></g></g><g class="cls-9"><rect class="cls-10" x="506.56" y="12" width="362.1" height="564.58"/><polygon class="cls-11" points="557.66 162.95 564.75 173.19 572.58 173.19 579.68 163.02 579.68 183.47 591.79 183.47 591.79 139.92 582.92 139.92 568.69 160.83 554.41 139.92 545.55 139.92 545.55 183.47 557.66 183.47 557.66 162.95"/><path class="cls-11" d="M613.11,165.13h15.35l2.42,7.34H643.6l-16.39-43.55H614.73l-16.58,43.55h12.48Zm3.22-9.54,4.55-13.51,4.45,13.51Z" transform="translate(-2.39 11)"/><path class="cls-11" d="M665.32,162.65a7.55,7.55,0,0,1-3.8.77,13.38,13.38,0,0,1-5.62-1.2,18,18,0,0,1-5-3.45l-7.64,7.64a21.79,21.79,0,0,0,7.61,5.17,26.45,26.45,0,0,0,9.7,1.62q8.63,0,13.36-3.64t4.74-10.3a13.15,13.15,0,0,0-1.1-5.63,11.53,11.53,0,0,0-2.91-3.89,17.31,17.31,0,0,0-3.94-2.56,40.14,40.14,0,0,0-4.31-1.75c-1.45-.49-2.78-1-4-1.4a11.63,11.63,0,0,1-2.9-1.5,2.53,2.53,0,0,1-1.11-2.11,2,2,0,0,1,1.14-1.84,6.32,6.32,0,0,1,3-.61,10.27,10.27,0,0,1,4.41.95,15.36,15.36,0,0,1,4,2.9l7.7-7.64a18.2,18.2,0,0,0-6.94-4.44,25.81,25.81,0,0,0-9.08-1.56,21.23,21.23,0,0,0-8.63,1.62,12.39,12.39,0,0,0-7.71,12,12.25,12.25,0,0,0,1.11,5.48,11.2,11.2,0,0,0,2.9,3.73,19.58,19.58,0,0,0,3.95,2.54,36.88,36.88,0,0,0,4.31,1.77c1.45.49,2.77,1,4,1.44a10.92,10.92,0,0,1,2.91,1.59,2.76,2.76,0,0,1,1.1,2.23A2.36,2.36,0,0,1,665.32,162.65Z" transform="translate(-2.39 11)"/><path class="cls-11" d="M600.89,224.9a27.6,27.6,0,0,0,9.36-1.53,22.14,22.14,0,0,0,7.47-4.4,19.77,19.77,0,0,0,4.92-6.89,23.94,23.94,0,0,0,0-17.92,19.82,19.82,0,0,0-4.92-6.88,21.92,21.92,0,0,0-7.5-4.4,28,28,0,0,0-9.45-1.53H582.42V224.9h18.47Zm-.12-33.15a12.84,12.84,0,0,1,5.9,1.25,8.92,8.92,0,0,1,3.86,3.76,12.94,12.94,0,0,1,1.38,6.3,13.54,13.54,0,0,1-1.35,6.36,8.64,8.64,0,0,1-3.85,3.83,13.24,13.24,0,0,1-5.94,1.25h-6.11V191.75Z" transform="translate(-2.39 11)"/><polygon class="cls-11" points="659.92 202.5 659.92 192.35 639.24 192.35 636.92 192.35 627.01 192.35 627.01 235.9 636.92 235.9 639.24 235.9 660.28 235.9 660.28 225.75 639.24 225.75 639.24 218.65 658.02 218.65 658.02 208.74 639.24 208.74 639.24 202.5 659.92 202.5"/><path class="cls-11" d="M574.05,260.81a6.77,6.77,0,0,1-.85,3.52,5.69,5.69,0,0,1-2.36,2.2,7.49,7.49,0,0,1-3.45.77,7.74,7.74,0,0,1-3.46-.77,6,6,0,0,1-2.48-2.23,6.58,6.58,0,0,1-.91-3.55v-27H548.3v25.87a18.82,18.82,0,0,0,2.39,9.54,16.87,16.87,0,0,0,6.67,6.52,22.52,22.52,0,0,0,20,0,16.81,16.81,0,0,0,6.6-6.49,18.84,18.84,0,0,0,2.36-9.51V233.78h-12.3Z" transform="translate(-2.39 11)"/><polygon class="cls-11" points="617.29 267.84 598.94 244.78 590.38 244.78 590.38 288.33 602.61 288.33 602.61 266.04 620.35 288.33 629.53 288.33 629.53 244.78 617.29 244.78 617.29 267.84"/><path class="cls-11" d="M682.41,246.53a21.43,21.43,0,0,0-4.92-7.19A22.6,22.6,0,0,0,670,234.6a27.45,27.45,0,0,0-18.91,0,22.6,22.6,0,0,0-7.49,4.74,21.51,21.51,0,0,0-4.92,7.16,23.78,23.78,0,0,0,0,18,21.41,21.41,0,0,0,5,7.22,23.12,23.12,0,0,0,7.53,4.77,26.94,26.94,0,0,0,18.81,0,22.27,22.27,0,0,0,7.46-4.77,21.65,21.65,0,0,0,4.92-7.22,24,24,0,0,0,0-18Zm-12.08,15.26a9.75,9.75,0,0,1-3.85,4.16,11.52,11.52,0,0,1-5.93,1.47,12.23,12.23,0,0,1-4.62-.83,9.76,9.76,0,0,1-3.52-2.38,10.41,10.41,0,0,1-2.23-3.76,15.06,15.06,0,0,1-.77-5,13.73,13.73,0,0,1,1.35-6.27,9.66,9.66,0,0,1,3.85-4.1,11.82,11.82,0,0,1,5.94-1.43,12.22,12.22,0,0,1,4.61.82,9.78,9.78,0,0,1,3.52,2.39,10.37,10.37,0,0,1,2.23,3.73,14.57,14.57,0,0,1,.77,4.86A13.86,13.86,0,0,1,670.33,261.79Z" transform="translate(-2.39 11)"/><polygon class="cls-11" points="637.37 124.4 623.68 124.4 614.23 136.29 624.46 136.29 637.37 124.4"/><path class="cls-11" d="M699.29,231a7.22,7.22,0,0,0,3.53.88,7,7,0,0,0,2.83-.56,6.84,6.84,0,0,0,2.27-1.63l-2.32-2.35a3.22,3.22,0,0,1-1.2.88,3.89,3.89,0,0,1-1.55.29,3.25,3.25,0,0,1-1.71-.44,3,3,0,0,1-1.16-1.2,3.52,3.52,0,0,1-.41-1.74,3.63,3.63,0,0,1,.41-1.78,2.84,2.84,0,0,1,1.16-1.17,3.44,3.44,0,0,1,1.71-.42,4.1,4.1,0,0,1,1.51.27,3.08,3.08,0,0,1,1.19.85l2.32-2.35a6.23,6.23,0,0,0-2.22-1.58,7,7,0,0,0-2.8-.55,7.17,7.17,0,0,0-3.56.88,6.56,6.56,0,0,0-2.51,2.42,6.89,6.89,0,0,0,0,6.88A6.63,6.63,0,0,0,699.29,231Z" transform="translate(-2.39 11)"/><path class="cls-11" d="M712.24,231a7.41,7.41,0,0,0,7.08,0,6.6,6.6,0,0,0,2.48-2.44,6.67,6.67,0,0,0,.91-3.41,6.57,6.57,0,0,0-.92-3.45,6.82,6.82,0,0,0-2.49-2.4,7.48,7.48,0,0,0-7.06,0,6.78,6.78,0,0,0-2.49,2.41,6.45,6.45,0,0,0-.92,3.43,6.67,6.67,0,0,0,3.41,5.85Zm.7-7.62a2.89,2.89,0,0,1,1.13-1.17,3.38,3.38,0,0,1,1.7-.43,3.27,3.27,0,0,1,1.68.42,3,3,0,0,1,1.15,1.17,3.57,3.57,0,0,1,.42,1.75,3.67,3.67,0,0,1-.4,1.77,2.93,2.93,0,0,1-1.14,1.2,3.25,3.25,0,0,1-1.71.44,3.19,3.19,0,0,1-1.7-.44,2.87,2.87,0,0,1-1.13-1.21,4,4,0,0,1,0-3.5Z" transform="translate(-2.39 11)"/><path class="cls-11" d="M728.66,224.18a2.58,2.58,0,0,1,.32-1.32,2.16,2.16,0,0,1,.89-.88,2.77,2.77,0,0,1,1.3-.31,2.4,2.4,0,0,1,2.5,2.54v7.36h3.63v-8.19a4.86,4.86,0,0,0-.64-2.44,5,5,0,0,0-1.76-1.84,4.66,4.66,0,0,0-2.53-.71,5.34,5.34,0,0,0-2.65.65,5.08,5.08,0,0,0-1.06.82v-1.2H725v12.91h3.63Z" transform="translate(-2.39 11)"/><path class="cls-11" d="M701.61,240.56a4.94,4.94,0,0,1,1.84-1.27,6.56,6.56,0,0,1,2.39-.43,6.64,6.64,0,0,1,2.56.47,5.32,5.32,0,0,1,1.9,1.3l2.5-2.51a9.63,9.63,0,0,0-3-2,10.12,10.12,0,0,0-3.95-.72,9.92,9.92,0,0,0-3.87.74,9.3,9.3,0,0,0-5.11,5.12,9.87,9.87,0,0,0-.74,3.81,9.77,9.77,0,0,0,.74,3.79,9.64,9.64,0,0,0,2,3.09A9.33,9.33,0,0,0,702,254a9.84,9.84,0,0,0,3.84.73,10.33,10.33,0,0,0,4-.73,9.61,9.61,0,0,0,3-2l-2.51-2.53a5.61,5.61,0,0,1-1.91,1.33,6.69,6.69,0,0,1-2.68.48,6.09,6.09,0,0,1-2.36-.45,5.23,5.23,0,0,1-1.85-1.27,5.64,5.64,0,0,1-1.21-2,7.3,7.3,0,0,1-.42-2.53,6.82,6.82,0,0,1,.44-2.53A6.24,6.24,0,0,1,701.61,240.56Z" transform="translate(-2.39 11)"/><path class="cls-11" d="M724,253.24v1.21h3.58V241.53H724v1.23a4.63,4.63,0,0,0-1.25-.93,5.24,5.24,0,0,0-2.46-.56,5.71,5.71,0,0,0-3.16.89,6.4,6.4,0,0,0-2.22,2.42,7.65,7.65,0,0,0,0,6.85,6.3,6.3,0,0,0,2.22,2.41,5.87,5.87,0,0,0,3.16.88,5.39,5.39,0,0,0,2.48-.56A4.77,4.77,0,0,0,724,253.24ZM719.29,251a2.91,2.91,0,0,1-1.13-1.2,3.9,3.9,0,0,1,0-3.52,2.91,2.91,0,0,1,1.13-1.2,3.12,3.12,0,0,1,1.65-.43,3.19,3.19,0,0,1,1.69.43,2.89,2.89,0,0,1,1.12,1.2,3.87,3.87,0,0,1,.4,1.76,3.48,3.48,0,0,1-.88,2.46,3.38,3.38,0,0,1-4,.5Z" transform="translate(-2.39 11)"/><path class="cls-11" d="M739.35,241.57a4.49,4.49,0,0,0-1.7-.3,4.07,4.07,0,0,0-3.29,1.36h0v-1.11h-3.63v12.92h3.63v-7.13a2.86,2.86,0,0,1,.68-2.09,2.4,2.4,0,0,1,1.75-.68,2.6,2.6,0,0,1,1,.16,1.72,1.72,0,0,1,.69.48l2.24-2.64A3.62,3.62,0,0,0,739.35,241.57Z" transform="translate(-2.39 11)"/><rect class="cls-11" x="739.61" y="246.13" width="3.63" height="19.32"/><path class="cls-11" d="M760.9,251.41a6.67,6.67,0,0,0,.9-3.42,6.44,6.44,0,0,0-.92-3.44,6.57,6.57,0,0,0-2.48-2.4,7.48,7.48,0,0,0-7.06,0,6.83,6.83,0,0,0-2.49,2.4,6.41,6.41,0,0,0-.92,3.43,6.5,6.5,0,0,0,.92,3.42,6.7,6.7,0,0,0,2.49,2.44,7.47,7.47,0,0,0,7.07,0A6.7,6.7,0,0,0,760.9,251.41Zm-3.18-1.67a3,3,0,0,1-1.15,1.2,3.5,3.5,0,0,1-3.4,0,2.93,2.93,0,0,1-1.13-1.21,3.72,3.72,0,0,1-.4-1.74,3.66,3.66,0,0,1,.4-1.76,2.83,2.83,0,0,1,1.13-1.17,3.26,3.26,0,0,1,1.7-.43,3.37,3.37,0,0,1,1.68.41,3,3,0,0,1,1.14,1.18,3.43,3.43,0,0,1,.43,1.74A3.74,3.74,0,0,1,757.72,249.74Z" transform="translate(-2.39 11)"/><path class="cls-11" d="M772.08,247.48a7.24,7.24,0,0,0-1.56-.7c-.55-.17-1.06-.32-1.55-.44a4.55,4.55,0,0,1-1.2-.47.83.83,0,0,1-.47-.71.74.74,0,0,1,.39-.68,2.36,2.36,0,0,1,1.16-.22,3.81,3.81,0,0,1,1.57.33,3.64,3.64,0,0,1,1.34,1l2.13-2.17a5.16,5.16,0,0,0-2.14-1.68,7.6,7.6,0,0,0-3-.56,6.44,6.44,0,0,0-2.66.51,4,4,0,0,0-1.75,1.43,3.71,3.71,0,0,0-.61,2.12,3.57,3.57,0,0,0,.47,1.95,3.08,3.08,0,0,0,1.21,1.14A8.9,8.9,0,0,0,767,249c.54.17,1.06.32,1.55.45a4.51,4.51,0,0,1,1.2.5.9.9,0,0,1,.47.8.78.78,0,0,1-.43.7,2.45,2.45,0,0,1-1.25.26,4.67,4.67,0,0,1-1.94-.39,4.42,4.42,0,0,1-1.53-1.13L763,252.37a6.09,6.09,0,0,0,1.55,1.28,7.37,7.37,0,0,0,2,.81,8.19,8.19,0,0,0,2.15.28,5.88,5.88,0,0,0,3.74-1.1,4.12,4.12,0,0,0,.93-4.95A3.56,3.56,0,0,0,772.08,247.48Z" transform="translate(-2.39 11)"/><path class="cls-11" d="M703.25,258.54l-7.55,18.79h3.89l1.32-3.47h7.66l1.3,3.47h4l-7.48-18.79Zm-1.15,12.19,2.68-7,2.63,7Z" transform="translate(-2.39 11)"/><rect class="cls-11" x="713.62" y="269.01" width="3.63" height="19.32"/><path class="cls-11" d="M726.35,267.36a2.35,2.35,0,0,1,1.16-.23,3.81,3.81,0,0,1,1.57.33,3.86,3.86,0,0,1,1.34,1l2.13-2.16a5,5,0,0,0-2.15-1.68,7.52,7.52,0,0,0-2.94-.56,6.44,6.44,0,0,0-2.66.51,3.94,3.94,0,0,0-1.75,1.42,3.74,3.74,0,0,0-.61,2.12,3.52,3.52,0,0,0,.47,1.95,3.18,3.18,0,0,0,1.21,1.15,8.16,8.16,0,0,0,1.56.65c.54.17,1.06.33,1.55.46a4.52,4.52,0,0,1,1.2.49.92.92,0,0,1,.47.8.79.79,0,0,1-.43.71,2.49,2.49,0,0,1-1.25.25,4.83,4.83,0,0,1-1.94-.38,4.45,4.45,0,0,1-1.53-1.14l-2.14,2.16a6.13,6.13,0,0,0,1.55,1.29,8.09,8.09,0,0,0,2,.81,8.19,8.19,0,0,0,2.15.28,5.84,5.84,0,0,0,3.74-1.11,3.65,3.65,0,0,0,1.38-3,3.75,3.75,0,0,0-.45-1.95,3.45,3.45,0,0,0-1.2-1.2,7.28,7.28,0,0,0-1.56-.71c-.55-.17-1.06-.31-1.55-.44a4.56,4.56,0,0,1-1.2-.46A.84.84,0,0,1,726,268,.74.74,0,0,1,726.35,267.36Z" transform="translate(-2.39 11)"/><rect class="cls-11" x="732.43" y="275.41" width="3.63" height="12.92"/><path class="cls-11" d="M736.64,258.3a1.89,1.89,0,0,0-1.43.6,2,2,0,0,0-.58,1.45,2.06,2.06,0,0,0,.58,1.46,2,2,0,0,0,2.89,0,2,2,0,0,0,.56-1.46,2,2,0,0,0-.56-1.45A1.9,1.9,0,0,0,736.64,258.3Z" transform="translate(-2.39 11)"/><path class="cls-11" d="M751.5,264.85a4.66,4.66,0,0,0-2.53-.71,5.24,5.24,0,0,0-2.65.66,4.73,4.73,0,0,0-1.06.81v-1.2h-3.63v12.92h3.63v-7.4a2.63,2.63,0,0,1,.32-1.32,2.22,2.22,0,0,1,.89-.88,2.77,2.77,0,0,1,1.3-.31,2.49,2.49,0,0,1,1.8.7,2.46,2.46,0,0,1,.7,1.84v7.37h3.63v-8.2a4.86,4.86,0,0,0-.64-2.44A5,5,0,0,0,751.5,264.85Z" transform="translate(-2.39 11)"/><path class="cls-11" d="M765.91,265.64a4.72,4.72,0,0,0-1.25-.94,5.37,5.37,0,0,0-2.46-.56,5.74,5.74,0,0,0-3.16.9,6.34,6.34,0,0,0-2.21,2.41,7.11,7.11,0,0,0-.82,3.44,7,7,0,0,0,.82,3.42,6.32,6.32,0,0,0,2.21,2.4,5.81,5.81,0,0,0,3.16.88,5.31,5.31,0,0,0,2.49-.56,4.47,4.47,0,0,0,1.22-.91v1.21h3.58V264.41h-3.58Zm-.69,7.68a3.06,3.06,0,0,1-2.35.94,3.2,3.2,0,0,1-1.63-.43,3,3,0,0,1-1.13-1.2,4,4,0,0,1,0-3.52,3,3,0,0,1,1.13-1.21,3.53,3.53,0,0,1,3.34,0,3,3,0,0,1,1.12,1.21,3.71,3.71,0,0,1,.4,1.76A3.41,3.41,0,0,1,765.22,273.32Z" transform="translate(-2.39 11)"/><path class="cls-6" d="M595.76,310.64v3.72a7.22,7.22,0,0,1,7.2,7.21s0,.07,0,.1h3.72s0-.07,0-.1A10.94,10.94,0,0,0,595.76,310.64Z" transform="translate(-2.39 11)"/><path class="cls-11" d="M594.05,310.64h-1.33a10.93,10.93,0,0,0,.84,21.82h.49v-3.73l-.49,0a7.21,7.21,0,1,1,0-14.42c.17,0,.33,0,.49,0Z" transform="translate(-2.39 11)"/><path class="cls-6" d="M603,298.12a7.22,7.22,0,0,1-7.21,7.2V309h0a10.93,10.93,0,0,0,0-21.85h0v3.72A7.22,7.22,0,0,1,603,298.12Z" transform="translate(-2.39 11)"/><path class="cls-11" d="M594.05,309v-3.72a7.21,7.21,0,0,1-7.19-7.21V298h-3.72v.1A10.93,10.93,0,0,0,594.05,309Z" transform="translate(-2.39 11)"/><path class="cls-11" d="M628.58,307.91a7.39,7.39,0,0,1-3.75-1,7.14,7.14,0,0,1-2.66-2.6,7.31,7.31,0,0,1,0-7.28,7.32,7.32,0,0,1,2.66-2.55,7.93,7.93,0,0,1,7.51,0,7.17,7.17,0,0,1,2.64,2.55,7,7,0,0,1,1,3.66,7,7,0,0,1-1,3.63,6.94,6.94,0,0,1-2.64,2.6A7.44,7.44,0,0,1,628.58,307.91Zm0-3.57a3.51,3.51,0,0,0,1.81-.47,3.13,3.13,0,0,0,1.22-1.28,3.93,3.93,0,0,0,.43-1.89,3.67,3.67,0,0,0-.46-1.86,3.16,3.16,0,0,0-1.22-1.24,3.43,3.43,0,0,0-1.78-.44,3.55,3.55,0,0,0-1.81.45,3.07,3.07,0,0,0-1.2,1.25,3.83,3.83,0,0,0-.43,1.87,3.91,3.91,0,0,0,.43,1.85,3.18,3.18,0,0,0,1.2,1.29A3.46,3.46,0,0,0,628.58,304.34Z" transform="translate(-2.39 11)"/><path class="cls-11" d="M638.42,307.6V293.86h3.86V307.6Zm9.2,0v-7.83a2.56,2.56,0,0,0-2.67-2.7,2.87,2.87,0,0,0-1.38.33,2.36,2.36,0,0,0-1,.93,2.94,2.94,0,0,0-.34,1.41l-1.5-.77a5.41,5.41,0,0,1,.71-2.79,5,5,0,0,1,1.93-1.9,5.5,5.5,0,0,1,2.81-.7,4.93,4.93,0,0,1,2.69.75,5.51,5.51,0,0,1,1.88,2,5.23,5.23,0,0,1,.68,2.6v8.71Z" transform="translate(-2.39 11)"/><path class="cls-11" d="M660.11,307.88a6,6,0,0,1-3.28-.93,6.42,6.42,0,0,1-2.29-2.57,8.42,8.42,0,0,1,0-7.25,6.73,6.73,0,0,1,2.28-2.59,5.85,5.85,0,0,1,3.32-1,5.29,5.29,0,0,1,2.78.7,4.88,4.88,0,0,1,1.81,1.88,5.89,5.89,0,0,1,.71,2.7v3.77a6,6,0,0,1-.68,2.67,4.68,4.68,0,0,1-1.8,1.89A5.57,5.57,0,0,1,660.11,307.88Zm.88-3.6a3.14,3.14,0,0,0,2.44-1,3.75,3.75,0,0,0,.91-2.59,4.16,4.16,0,0,0-.42-1.91,2.86,2.86,0,0,0-1.17-1.26,3.51,3.51,0,0,0-1.76-.44,3.24,3.24,0,0,0-1.73.46,3.07,3.07,0,0,0-1.2,1.27,4.4,4.4,0,0,0,0,3.75,3.25,3.25,0,0,0,1.18,1.28A3.33,3.33,0,0,0,661,304.28Zm3.15,3.32v-3.69l.62-3.32-.62-3.35V287.05H668V307.6Z" transform="translate(-2.39 11)"/><path class="cls-11" d="M677.05,307.88a6.2,6.2,0,0,1-3.36-.93,6.7,6.7,0,0,1-2.36-2.56,8.15,8.15,0,0,1,0-7.29,6.73,6.73,0,0,1,2.36-2.57,6.13,6.13,0,0,1,3.36-.95,5.64,5.64,0,0,1,2.61.6,4.71,4.71,0,0,1,2.64,4v5.13a4.71,4.71,0,0,1-2.61,4A5.7,5.7,0,0,1,677.05,307.88Zm.71-3.54a3.26,3.26,0,0,0,2.5-1,3.66,3.66,0,0,0,.93-2.61,4.05,4.05,0,0,0-.42-1.87,3.13,3.13,0,0,0-1.19-1.28,3.47,3.47,0,0,0-1.79-.45,3.39,3.39,0,0,0-1.76.45,3.25,3.25,0,0,0-1.21,1.28,3.94,3.94,0,0,0-.44,1.87,4,4,0,0,0,.44,1.88,3.26,3.26,0,0,0,2.94,1.73ZM681,307.6v-3.69l.63-3.32-.63-3.35v-3.38h3.81V307.6Z" transform="translate(-2.39 11)"/><path class="cls-11" d="M628.6,325.82a7.58,7.58,0,0,1-3.76-.94,7.08,7.08,0,0,1-2.67-2.57,7.39,7.39,0,0,1,0-7.32,7.16,7.16,0,0,1,2.67-2.57,7.74,7.74,0,0,1,3.79-.93,7.47,7.47,0,0,1,3,.58,6.7,6.7,0,0,1,2.36,1.69l-2.47,2.5a3.09,3.09,0,0,0-1.26-.91,4.39,4.39,0,0,0-1.61-.29,3.67,3.67,0,0,0-1.81.44,3,3,0,0,0-1.24,1.25,3.94,3.94,0,0,0-.44,1.89,3.87,3.87,0,0,0,.44,1.86,3.24,3.24,0,0,0,1.24,1.28,3.48,3.48,0,0,0,1.81.46,4.15,4.15,0,0,0,1.65-.31,3.46,3.46,0,0,0,1.28-.94l2.46,2.5a7,7,0,0,1-2.41,1.73A7.39,7.39,0,0,1,628.6,325.82Z" transform="translate(-2.39 11)"/><path class="cls-11" d="M642.51,325.82a8,8,0,0,1-3.86-.92,6.94,6.94,0,0,1-3.66-6.23,7.19,7.19,0,0,1,1-3.69,7,7,0,0,1,2.61-2.56,7.46,7.46,0,0,1,3.71-.93,6.82,6.82,0,0,1,3.5.88,6.41,6.41,0,0,1,2.4,2.42,7.09,7.09,0,0,1,.88,3.54,5.06,5.06,0,0,1-.06.76c0,.27-.08.56-.14.88H637.23v-2.81l9.88,0-1.62,1.2a5.25,5.25,0,0,0-.41-2.05A2.85,2.85,0,0,0,644,315a3.42,3.42,0,0,0-1.76-.42,3.55,3.55,0,0,0-1.89.5,3.2,3.2,0,0,0-1.23,1.37,4.71,4.71,0,0,0-.43,2.1,4.77,4.77,0,0,0,.45,2.17,3.26,3.26,0,0,0,1.32,1.38,4.14,4.14,0,0,0,2,.48,4.93,4.93,0,0,0,1.89-.35,4.16,4.16,0,0,0,1.46-1l2.21,2.22a5.88,5.88,0,0,1-2.41,1.78A8,8,0,0,1,642.51,325.82Z" transform="translate(-2.39 11)"/><path class="cls-11" d="M651.42,325.51V311.77h3.86v13.74Zm3.86-7.58-1.53-1.05a7.32,7.32,0,0,1,1.55-3.95,4.36,4.36,0,0,1,3.5-1.44,4.78,4.78,0,0,1,1.8.32,4,4,0,0,1,1.41,1l-2.39,2.81a1.64,1.64,0,0,0-.72-.51,2.71,2.71,0,0,0-1-.17,2.52,2.52,0,0,0-1.86.72A3,3,0,0,0,655.28,317.93Z" transform="translate(-2.39 11)"/><path class="cls-11" d="M669.53,325.82a7.52,7.52,0,0,1-3.75-.95,7.18,7.18,0,0,1-2.65-2.6,7,7,0,0,1-1-3.63,6.9,6.9,0,0,1,1-3.65,7.21,7.21,0,0,1,2.65-2.55,7.42,7.42,0,0,1,3.75-.95,7.57,7.57,0,0,1,3.76.93,7.13,7.13,0,0,1,2.64,2.56,7.17,7.17,0,0,1-2.63,9.89A7.51,7.51,0,0,1,669.53,325.82Zm0-3.58a3.54,3.54,0,0,0,1.82-.46,3.26,3.26,0,0,0,1.22-1.28,4.05,4.05,0,0,0,.42-1.89,3.77,3.77,0,0,0-.45-1.86,3.26,3.26,0,0,0-1.22-1.25,3.57,3.57,0,0,0-1.79-.44,3.44,3.44,0,0,0-1.8.46,3.16,3.16,0,0,0-1.21,1.25,3.91,3.91,0,0,0-.42,1.87,4,4,0,0,0,.42,1.84,3.3,3.3,0,0,0,1.21,1.3A3.44,3.44,0,0,0,669.53,322.24Z" transform="translate(-2.39 11)"/><g class="cls-12"><path class="cls-10" d="M886.94,47.81a12.41,12.41,0,0,1-12.4,12.4v6.4h0a18.8,18.8,0,0,0,0-37.59h0v6.39A12.42,12.42,0,0,1,886.94,47.81Z" transform="translate(-2.39 11)"/><path class="cls-10" d="M862,7.79a12.41,12.41,0,0,0,12.39,12.4v6.39h0a18.79,18.79,0,0,1,0-37.58h0v6.39A12.41,12.41,0,0,0,862,7.79Z" transform="translate(-2.39 11)"/><path class="cls-10" d="M887,128.26a12.41,12.41,0,0,1-12.4,12.4v6.39h0a18.79,18.79,0,1,0,0-37.58h0v6.39A12.42,12.42,0,0,1,887,128.26Z" transform="translate(-2.39 11)"/><path class="cls-10" d="M862.05,88.24a12.41,12.41,0,0,0,12.39,12.4V107h0a18.79,18.79,0,0,1,0-37.58h0v6.39A12.41,12.41,0,0,0,862.05,88.24Z" transform="translate(-2.39 11)"/><path class="cls-10" d="M887.09,209a12.42,12.42,0,0,1-12.4,12.4v6.39h0a18.79,18.79,0,0,0,0-37.58h0v6.39A12.41,12.41,0,0,1,887.09,209Z" transform="translate(-2.39 11)"/><path class="cls-10" d="M862.1,169a12.41,12.41,0,0,0,12.39,12.4v6.39h0a18.79,18.79,0,1,1,0-37.58h0v6.39A12.41,12.41,0,0,0,862.1,169Z" transform="translate(-2.39 11)"/><path class="cls-10" d="M887.19,289.47a12.42,12.42,0,0,1-12.4,12.4v6.39h0a18.8,18.8,0,0,0,0-37.59h0v6.4A12.41,12.41,0,0,1,887.19,289.47Z" transform="translate(-2.39 11)"/><path class="cls-10" d="M862.2,249.44a12.41,12.41,0,0,0,12.39,12.4v6.39h0a18.79,18.79,0,0,1,0-37.58h0V237A12.41,12.41,0,0,0,862.2,249.44Z" transform="translate(-2.39 11)"/><path class="cls-10" d="M887.17,371.11a12.41,12.41,0,0,1-12.4,12.4v6.39h0a18.79,18.79,0,0,0,0-37.58h0v6.39A12.41,12.41,0,0,1,887.17,371.11Z" transform="translate(-2.39 11)"/><path class="cls-10" d="M862.17,331.08a12.41,12.41,0,0,0,12.4,12.4v6.4h0a18.8,18.8,0,0,1,0-37.59h0v6.4A12.41,12.41,0,0,0,862.17,331.08Z" transform="translate(-2.39 11)"/><path class="cls-10" d="M887.27,451.56a12.41,12.41,0,0,1-12.4,12.4v6.39h0a18.79,18.79,0,0,0,0-37.58h0v6.39A12.41,12.41,0,0,1,887.27,451.56Z" transform="translate(-2.39 11)"/><path class="cls-10" d="M862.27,411.53a12.41,12.41,0,0,0,12.4,12.4v6.4h0a18.8,18.8,0,0,1,0-37.59h0v6.39A12.42,12.42,0,0,0,862.27,411.53Z" transform="translate(-2.39 11)"/><path class="cls-10" d="M887.32,532.31a12.41,12.41,0,0,1-12.4,12.4v6.39h0a18.79,18.79,0,1,0,0-37.58h0v6.39A12.41,12.41,0,0,1,887.32,532.31Z" transform="translate(-2.39 11)"/><path class="cls-10" d="M862.32,492.29a12.42,12.42,0,0,0,12.4,12.4v6.39h0a18.79,18.79,0,0,1,0-37.58h0v6.39A12.41,12.41,0,0,0,862.32,492.29Z" transform="translate(-2.39 11)"/><path class="cls-10" d="M887.42,612.76a12.41,12.41,0,0,1-12.4,12.4v6.39h0A18.79,18.79,0,0,0,875,594h0v6.39A12.41,12.41,0,0,1,887.42,612.76Z" transform="translate(-2.39 11)"/><path class="cls-10" d="M862.42,572.74a12.42,12.42,0,0,0,12.4,12.4v6.39h0a18.8,18.8,0,0,1,0-37.59h0v6.4A12.41,12.41,0,0,0,862.42,572.74Z" transform="translate(-2.39 11)"/></g><g class="cls-12"><path class="cls-10" d="M839,49.83a12.42,12.42,0,0,1-12.4,12.4v6.39h0a18.79,18.79,0,0,0,0-37.58h0v6.39A12.42,12.42,0,0,1,839,49.83Z" transform="translate(-2.39 11)"/><path class="cls-10" d="M814,9.81a12.42,12.42,0,0,0,12.4,12.4V28.6h0a18.79,18.79,0,1,1,0-37.58h0v6.39A12.41,12.41,0,0,0,814,9.81Z" transform="translate(-2.39 11)"/><path class="cls-10" d="M839.11,130.28a12.42,12.42,0,0,1-12.4,12.4v6.39h0a18.79,18.79,0,0,0,0-37.58h0v6.39A12.42,12.42,0,0,1,839.11,130.28Z" transform="translate(-2.39 11)"/><path class="cls-10" d="M814.11,90.26a12.42,12.42,0,0,0,12.4,12.4v6.39h0a18.8,18.8,0,0,1,0-37.59h0v6.4A12.41,12.41,0,0,0,814.11,90.26Z" transform="translate(-2.39 11)"/><path class="cls-10" d="M839.16,211a12.42,12.42,0,0,1-12.4,12.4v6.4h0a18.8,18.8,0,0,0,0-37.59h0v6.39A12.42,12.42,0,0,1,839.16,211Z" transform="translate(-2.39 11)"/><path class="cls-10" d="M814.16,171a12.41,12.41,0,0,0,12.4,12.4v6.39h0a18.79,18.79,0,1,1,0-37.58h0v6.39A12.41,12.41,0,0,0,814.16,171Z" transform="translate(-2.39 11)"/><path class="cls-10" d="M839.26,291.48a12.42,12.42,0,0,1-12.4,12.4v6.4h0a18.8,18.8,0,0,0,0-37.59h0v6.39A12.42,12.42,0,0,1,839.26,291.48Z" transform="translate(-2.39 11)"/><path class="cls-10" d="M814.26,251.46a12.41,12.41,0,0,0,12.4,12.4v6.39h0a18.79,18.79,0,1,1,0-37.58h0v6.39A12.41,12.41,0,0,0,814.26,251.46Z" transform="translate(-2.39 11)"/><path class="cls-10" d="M839.23,373.13a12.42,12.42,0,0,1-12.4,12.4v6.39h0a18.79,18.79,0,0,0,0-37.58h0v6.39A12.41,12.41,0,0,1,839.23,373.13Z" transform="translate(-2.39 11)"/><path class="cls-10" d="M814.23,333.1a12.41,12.41,0,0,0,12.4,12.4v6.39h0a18.79,18.79,0,1,1,0-37.58h0v6.39A12.42,12.42,0,0,0,814.23,333.1Z" transform="translate(-2.39 11)"/><path class="cls-10" d="M839.33,453.58a12.42,12.42,0,0,1-12.4,12.4v6.39h0a18.8,18.8,0,0,0,0-37.59h0v6.4A12.41,12.41,0,0,1,839.33,453.58Z" transform="translate(-2.39 11)"/><path class="cls-10" d="M814.33,413.55a12.41,12.41,0,0,0,12.4,12.4v6.39h0a18.79,18.79,0,1,1,0-37.58h0v6.39A12.41,12.41,0,0,0,814.33,413.55Z" transform="translate(-2.39 11)"/><path class="cls-10" d="M839.38,534.33a12.41,12.41,0,0,1-12.4,12.4v6.39h0a18.79,18.79,0,0,0,0-37.58h0v6.39A12.41,12.41,0,0,1,839.38,534.33Z" transform="translate(-2.39 11)"/><path class="cls-10" d="M814.38,494.3a12.41,12.41,0,0,0,12.4,12.4v6.4h0a18.8,18.8,0,0,1,0-37.59h0v6.4A12.41,12.41,0,0,0,814.38,494.3Z" transform="translate(-2.39 11)"/><path class="cls-10" d="M839.48,614.78a12.41,12.41,0,0,1-12.4,12.4v6.39h0a18.79,18.79,0,0,0,0-37.58h0v6.39A12.41,12.41,0,0,1,839.48,614.78Z" transform="translate(-2.39 11)"/><path class="cls-10" d="M814.48,574.75a12.41,12.41,0,0,0,12.4,12.4v6.4h0a18.8,18.8,0,0,1,0-37.59h0v6.39A12.42,12.42,0,0,0,814.48,574.75Z" transform="translate(-2.39 11)"/></g><g class="cls-12"><path class="cls-10" d="M791.07,47.81a12.41,12.41,0,0,1-12.4,12.4v6.4h0a18.8,18.8,0,0,0,0-37.59h0v6.39A12.42,12.42,0,0,1,791.07,47.81Z" transform="translate(-2.39 11)"/><path class="cls-10" d="M766.07,7.79a12.42,12.42,0,0,0,12.4,12.4v6.39h0a18.79,18.79,0,0,1,0-37.58h0v6.39A12.42,12.42,0,0,0,766.07,7.79Z" transform="translate(-2.39 11)"/><path class="cls-10" d="M791.17,128.26a12.41,12.41,0,0,1-12.4,12.4v6.39h0a18.79,18.79,0,0,0,0-37.58h0v6.39A12.42,12.42,0,0,1,791.17,128.26Z" transform="translate(-2.39 11)"/><path class="cls-10" d="M766.17,88.24a12.42,12.42,0,0,0,12.4,12.4V107h0a18.79,18.79,0,0,1,0-37.58h0v6.39A12.42,12.42,0,0,0,766.17,88.24Z" transform="translate(-2.39 11)"/><path class="cls-10" d="M791.22,209a12.42,12.42,0,0,1-12.4,12.4v6.39h0a18.8,18.8,0,0,0,0-37.59h0v6.4A12.41,12.41,0,0,1,791.22,209Z" transform="translate(-2.39 11)"/><path class="cls-10" d="M766.22,169a12.42,12.42,0,0,0,12.4,12.4v6.39h0a18.79,18.79,0,1,1,0-37.58h0v6.39A12.42,12.42,0,0,0,766.22,169Z" transform="translate(-2.39 11)"/><path class="cls-10" d="M791.32,289.47a12.42,12.42,0,0,1-12.4,12.4v6.39h0a18.8,18.8,0,0,0,0-37.59h0v6.4A12.41,12.41,0,0,1,791.32,289.47Z" transform="translate(-2.39 11)"/><path class="cls-10" d="M791.3,371.11a12.42,12.42,0,0,1-12.4,12.4v6.39h0a18.79,18.79,0,1,0,0-37.58h0v6.39A12.42,12.42,0,0,1,791.3,371.11Z" transform="translate(-2.39 11)"/><path class="cls-10" d="M766.3,331.08a12.41,12.41,0,0,0,12.4,12.4v6.4h0a18.8,18.8,0,0,1,0-37.59h0v6.4A12.41,12.41,0,0,0,766.3,331.08Z" transform="translate(-2.39 11)"/><path class="cls-10" d="M791.4,451.56A12.42,12.42,0,0,1,779,464v6.39h0a18.79,18.79,0,0,0,0-37.58h0v6.39A12.42,12.42,0,0,1,791.4,451.56Z" transform="translate(-2.39 11)"/><path class="cls-10" d="M766.4,411.53a12.41,12.41,0,0,0,12.4,12.4v6.4h0a18.8,18.8,0,0,1,0-37.59h0v6.39A12.42,12.42,0,0,0,766.4,411.53Z" transform="translate(-2.39 11)"/><path class="cls-10" d="M791.45,532.31a12.42,12.42,0,0,1-12.4,12.4v6.39h0a18.79,18.79,0,1,0,0-37.58h0v6.39A12.42,12.42,0,0,1,791.45,532.31Z" transform="translate(-2.39 11)"/><path class="cls-10" d="M766.45,492.29a12.42,12.42,0,0,0,12.4,12.4v6.39h0a18.79,18.79,0,0,1,0-37.58h0v6.39A12.41,12.41,0,0,0,766.45,492.29Z" transform="translate(-2.39 11)"/><path class="cls-10" d="M791.55,612.76a12.42,12.42,0,0,1-12.4,12.4v6.39h0a18.79,18.79,0,1,0,0-37.58h0v6.39A12.42,12.42,0,0,1,791.55,612.76Z" transform="translate(-2.39 11)"/><path class="cls-10" d="M766.55,572.74a12.42,12.42,0,0,0,12.4,12.4v6.39h0a18.8,18.8,0,0,1,0-37.59h0v6.4A12.41,12.41,0,0,0,766.55,572.74Z" transform="translate(-2.39 11)"/></g></g><g class="cls-13"><rect class="cls-5" x="1519.69" y="15.69" width="362.1" height="564.58"/><polygon class="cls-14" points="1570.78 166.63 1577.88 176.88 1585.71 176.88 1592.8 166.7 1592.8 187.16 1604.91 187.16 1604.91 143.6 1596.04 143.6 1581.82 164.51 1567.54 143.6 1558.67 143.6 1558.67 187.16 1570.78 187.16 1570.78 166.63"/><path class="cls-14" d="M1626.23,168.81h15.36l2.41,7.34h12.73l-16.4-43.55h-12.47l-16.58,43.55h12.48Zm3.22-9.54,4.56-13.51,4.44,13.51Z" transform="translate(-2.39 11)"/><path class="cls-14" d="M1678.44,166.34a7.52,7.52,0,0,1-3.79.76,13.54,13.54,0,0,1-5.63-1.19,18.41,18.41,0,0,1-5-3.46l-7.65,7.65a22,22,0,0,0,7.62,5.17,26.44,26.44,0,0,0,9.69,1.62q8.63,0,13.37-3.64t4.74-10.31a13.15,13.15,0,0,0-1.1-5.63,11.86,11.86,0,0,0-2.91-3.88,17.08,17.08,0,0,0-4-2.57,40.46,40.46,0,0,0-4.31-1.74c-1.45-.49-2.77-1-4-1.41a11.72,11.72,0,0,1-2.91-1.5,2.53,2.53,0,0,1-1.1-2.11,2,2,0,0,1,1.13-1.83,6.39,6.39,0,0,1,3-.61,10.22,10.22,0,0,1,4.4.94,15.25,15.25,0,0,1,4,2.91l7.71-7.65a18.37,18.37,0,0,0-6.94-4.43,25.9,25.9,0,0,0-9.09-1.56,21.18,21.18,0,0,0-8.62,1.62,12.39,12.39,0,0,0-7.71,12,12.31,12.31,0,0,0,1.1,5.47,11.1,11.1,0,0,0,2.91,3.73,19.09,19.09,0,0,0,3.94,2.54,36.65,36.65,0,0,0,4.31,1.78c1.45.49,2.78,1,4,1.43a11.24,11.24,0,0,1,2.91,1.59,2.78,2.78,0,0,1,1.1,2.24A2.36,2.36,0,0,1,1678.44,166.34Z" transform="translate(-2.39 11)"/><path class="cls-14" d="M1614,228.58a27.68,27.68,0,0,0,9.36-1.52,22,22,0,0,0,7.46-4.41,19.73,19.73,0,0,0,4.92-6.88,23.81,23.81,0,0,0,0-17.92,19.73,19.73,0,0,0-4.92-6.88,22,22,0,0,0-7.49-4.41,28.13,28.13,0,0,0-9.45-1.53h-18.35v43.55H1614Zm-.12-33.15a13,13,0,0,1,5.9,1.25,8.92,8.92,0,0,1,3.85,3.77,12.94,12.94,0,0,1,1.38,6.3,13.54,13.54,0,0,1-1.35,6.36,8.57,8.57,0,0,1-3.85,3.82,13.06,13.06,0,0,1-5.93,1.26h-6.12V195.43Z" transform="translate(-2.39 11)"/><polygon class="cls-14" points="1673.04 206.19 1673.04 196.03 1652.37 196.03 1650.04 196.03 1640.13 196.03 1640.13 239.59 1650.04 239.59 1652.37 239.59 1673.41 239.59 1673.41 229.43 1652.37 229.43 1652.37 222.34 1671.14 222.34 1671.14 212.43 1652.37 212.43 1652.37 206.19 1673.04 206.19"/><path class="cls-14" d="M1587.18,264.5a6.78,6.78,0,0,1-.86,3.52,5.73,5.73,0,0,1-2.35,2.2,7.5,7.5,0,0,1-3.46.76,7.73,7.73,0,0,1-3.45-.76,6,6,0,0,1-2.48-2.24,6.54,6.54,0,0,1-.92-3.54v-27h-12.23v25.88a18.82,18.82,0,0,0,2.38,9.54,17,17,0,0,0,6.67,6.51,22.43,22.43,0,0,0,20,0,16.82,16.82,0,0,0,6.61-6.48,18.84,18.84,0,0,0,2.36-9.51V237.46h-12.3Z" transform="translate(-2.39 11)"/><polygon class="cls-14" points="1630.42 271.52 1612.07 248.46 1603.51 248.46 1603.51 292.02 1615.74 292.02 1615.74 269.73 1633.48 292.02 1642.65 292.02 1642.65 248.46 1630.42 248.46 1630.42 271.52"/><path class="cls-14" d="M1695.54,250.22a21.35,21.35,0,0,0-4.93-7.19,22.34,22.34,0,0,0-7.49-4.74,27.42,27.42,0,0,0-18.9,0,22.34,22.34,0,0,0-7.49,4.74,21.58,21.58,0,0,0-4.93,7.16,23.9,23.9,0,0,0,0,18,21.68,21.68,0,0,0,5,7.22,23.18,23.18,0,0,0,7.52,4.77,26.94,26.94,0,0,0,18.81,0,22.17,22.17,0,0,0,7.46-4.77,21.78,21.78,0,0,0,4.93-7.22,24.09,24.09,0,0,0,0-18Zm-12.08,15.26a9.77,9.77,0,0,1-3.86,4.16,11.61,11.61,0,0,1-5.93,1.46,12.31,12.31,0,0,1-4.62-.82,9.87,9.87,0,0,1-3.52-2.39,10.47,10.47,0,0,1-2.23-3.76,15,15,0,0,1-.76-4.95,13.8,13.8,0,0,1,1.34-6.27,9.57,9.57,0,0,1,3.86-4.1,11.71,11.71,0,0,1,5.93-1.44,12.31,12.31,0,0,1,4.62.83,9.84,9.84,0,0,1,3.52,2.38,10.6,10.6,0,0,1,2.23,3.73,14.6,14.6,0,0,1,.76,4.87A14.05,14.05,0,0,1,1683.46,265.48Z" transform="translate(-2.39 11)"/><polygon class="cls-14" points="1650.49 128.09 1636.8 128.09 1627.35 139.98 1637.59 139.98 1650.49 128.09"/><path class="cls-14" d="M1712.41,234.67a7.15,7.15,0,0,0,3.54.88,6.91,6.91,0,0,0,2.83-.56,6.66,6.66,0,0,0,2.27-1.63l-2.33-2.34a3.17,3.17,0,0,1-1.2.88,4,4,0,0,1-1.54.29,3.3,3.3,0,0,1-1.71-.44,3,3,0,0,1-1.16-1.2,3.9,3.9,0,0,1,0-3.52,2.87,2.87,0,0,1,1.16-1.18,3.49,3.49,0,0,1,1.71-.41,4.22,4.22,0,0,1,1.5.26,3,3,0,0,1,1.19.86l2.32-2.35a6.34,6.34,0,0,0-2.21-1.59,7.61,7.61,0,0,0-6.37.34,6.68,6.68,0,0,0,0,11.71Z" transform="translate(-2.39 11)"/><path class="cls-14" d="M1725.37,234.66a7.47,7.47,0,0,0,7.07,0,6.66,6.66,0,0,0,3.39-5.86,6.57,6.57,0,0,0-3.4-5.84,7,7,0,0,0-3.54-.88,6.94,6.94,0,0,0-6,3.29,6.5,6.5,0,0,0-.92,3.43,6.59,6.59,0,0,0,.92,3.42A6.8,6.8,0,0,0,1725.37,234.66Zm.69-7.62a2.92,2.92,0,0,1,1.14-1.17,3.24,3.24,0,0,1,1.69-.43,3.37,3.37,0,0,1,1.68.41,3,3,0,0,1,1.15,1.18,3.43,3.43,0,0,1,.43,1.74,3.86,3.86,0,0,1-.4,1.78,3,3,0,0,1-1.15,1.2,3.35,3.35,0,0,1-1.71.44,3.25,3.25,0,0,1-1.69-.44,3,3,0,0,1-1.14-1.21,3.84,3.84,0,0,1-.4-1.74A3.78,3.78,0,0,1,1726.06,227Z" transform="translate(-2.39 11)"/><path class="cls-14" d="M1741.78,227.87a2.69,2.69,0,0,1,.32-1.32,2.2,2.2,0,0,1,.9-.89,2.73,2.73,0,0,1,1.29-.3,2.4,2.4,0,0,1,2.51,2.53v7.37h3.63v-8.19a4.87,4.87,0,0,0-.64-2.45,5.25,5.25,0,0,0-1.76-1.84,4.69,4.69,0,0,0-2.54-.7,5.19,5.19,0,0,0-2.64.65,5.07,5.07,0,0,0-1.07.82v-1.21h-3.63v12.92h3.63Z" transform="translate(-2.39 11)"/><path class="cls-14" d="M1714.73,244.24a4.77,4.77,0,0,1,1.85-1.26,6.3,6.3,0,0,1,2.38-.43,6.69,6.69,0,0,1,2.57.47,5.48,5.48,0,0,1,1.89,1.29l2.51-2.51a9.64,9.64,0,0,0-3-2,10.9,10.9,0,0,0-7.82,0,9.45,9.45,0,0,0-3.07,2.05,9.31,9.31,0,0,0-2,3.08,10.23,10.23,0,0,0,0,7.59,9.71,9.71,0,0,0,2.06,3.1,9.39,9.39,0,0,0,3.08,2.07,10.1,10.1,0,0,0,3.84.73,10.45,10.45,0,0,0,4-.73,9.82,9.82,0,0,0,3.06-2l-2.51-2.54a5.74,5.74,0,0,1-1.91,1.34,6.72,6.72,0,0,1-2.68.48,6.05,6.05,0,0,1-2.36-.45,5.43,5.43,0,0,1-3.06-3.23,7.13,7.13,0,0,1-.43-2.54,7,7,0,0,1,.44-2.52A6.55,6.55,0,0,1,1714.73,244.24Z" transform="translate(-2.39 11)"/><path class="cls-14" d="M1737.09,256.93v1.21h3.57V245.22h-3.57v1.23a4.77,4.77,0,0,0-1.26-.94,5.35,5.35,0,0,0-2.45-.56,5.75,5.75,0,0,0-3.17.9,6.34,6.34,0,0,0-2.21,2.41,7.58,7.58,0,0,0,0,6.86,6.32,6.32,0,0,0,2.21,2.4,5.82,5.82,0,0,0,3.17.88,5.3,5.3,0,0,0,2.48-.56A4.68,4.68,0,0,0,1737.09,256.93Zm-4.67-2.29a3.06,3.06,0,0,1-1.14-1.2,4,4,0,0,1,0-3.52,3,3,0,0,1,1.14-1.21,3.21,3.21,0,0,1,1.65-.42,3.27,3.27,0,0,1,1.68.42,2.91,2.91,0,0,1,1.12,1.21,3.71,3.71,0,0,1,.4,1.76,3.41,3.41,0,0,1-.88,2.45,3.06,3.06,0,0,1-2.35.94A3.16,3.16,0,0,1,1732.42,254.64Z" transform="translate(-2.39 11)"/><path class="cls-14" d="M1752.47,245.26a4.25,4.25,0,0,0-1.69-.31,4.08,4.08,0,0,0-3.3,1.36v-1.09h-3.63v12.92h3.63V251a2.85,2.85,0,0,1,.68-2.1,2.37,2.37,0,0,1,1.75-.68,2.86,2.86,0,0,1,1,.16,1.68,1.68,0,0,1,.68.48l2.24-2.64A3.59,3.59,0,0,0,1752.47,245.26Z" transform="translate(-2.39 11)"/><rect class="cls-14" x="1752.74" y="249.81" width="3.63" height="19.32"/><path class="cls-14" d="M1774,255.09a6.89,6.89,0,0,0,0-6.86,6.8,6.8,0,0,0-2.48-2.4A7,7,0,0,0,1768,245a7,7,0,0,0-3.52.9,6.78,6.78,0,0,0-2.5,2.4,6.47,6.47,0,0,0-.92,3.43,6.58,6.58,0,0,0,.92,3.41,6.75,6.75,0,0,0,2.5,2.45,7.47,7.47,0,0,0,7.07,0A6.56,6.56,0,0,0,1774,255.09Zm-3.17-1.67a3,3,0,0,1-1.15,1.21,3.35,3.35,0,0,1-1.71.44,3.22,3.22,0,0,1-1.69-.44,3,3,0,0,1-1.14-1.22,3.65,3.65,0,0,1-.4-1.73,3.6,3.6,0,0,1,.4-1.76,3,3,0,0,1,1.14-1.18,3.32,3.32,0,0,1,1.69-.43,3.27,3.27,0,0,1,1.68.42,3,3,0,0,1,1.15,1.17,3.57,3.57,0,0,1,.43,1.75A3.79,3.79,0,0,1,1770.85,253.42Z" transform="translate(-2.39 11)"/><path class="cls-14" d="M1785.2,251.17a6.87,6.87,0,0,0-1.56-.71c-.54-.17-1.06-.31-1.54-.44a4.79,4.79,0,0,1-1.21-.46.83.83,0,0,1-.46-.71.75.75,0,0,1,.38-.68,2.37,2.37,0,0,1,1.16-.23,3.67,3.67,0,0,1,2.91,1.36l2.14-2.16a5,5,0,0,0-2.15-1.68,7.35,7.35,0,0,0-2.95-.56,6.56,6.56,0,0,0-2.65.5,4,4,0,0,0-1.75,1.43,3.74,3.74,0,0,0-.62,2.12,3.63,3.63,0,0,0,.47,2,3.2,3.2,0,0,0,1.22,1.15,7.66,7.66,0,0,0,1.56.65l1.54.46a4.75,4.75,0,0,1,1.21.49.9.9,0,0,1,.46.8.78.78,0,0,1-.42.71,2.53,2.53,0,0,1-1.26.25,4.78,4.78,0,0,1-1.93-.38,4.58,4.58,0,0,1-1.54-1.14l-2.13,2.16a5.84,5.84,0,0,0,1.54,1.28,7.8,7.8,0,0,0,2,.82,8.17,8.17,0,0,0,2.14.28,5.81,5.81,0,0,0,3.74-1.11,3.63,3.63,0,0,0,1.39-3,3.75,3.75,0,0,0-.45-1.95A3.56,3.56,0,0,0,1785.2,251.17Z" transform="translate(-2.39 11)"/><path class="cls-14" d="M1716.38,262.22,1708.82,281h3.9l1.32-3.47h7.66L1723,281h4l-7.47-18.79Zm-1.15,12.2,2.67-7,2.63,7Z" transform="translate(-2.39 11)"/><rect class="cls-14" x="1726.74" y="272.69" width="3.63" height="19.32"/><path class="cls-14" d="M1739.47,271a2.39,2.39,0,0,1,1.16-.22,3.86,3.86,0,0,1,1.58.33,3.61,3.61,0,0,1,1.33,1l2.14-2.16a5.13,5.13,0,0,0-2.15-1.69,7.53,7.53,0,0,0-3-.56,6.39,6.39,0,0,0-2.65.51,4,4,0,0,0-1.75,1.43,3.72,3.72,0,0,0-.62,2.12,3.65,3.65,0,0,0,.47,1.95,3.25,3.25,0,0,0,1.21,1.15,9.43,9.43,0,0,0,1.57.65c.54.17,1,.32,1.54.45a4.51,4.51,0,0,1,1.2.5.88.88,0,0,1,.47.8.79.79,0,0,1-.43.71,2.57,2.57,0,0,1-1.25.25,4.62,4.62,0,0,1-1.93-.39,4.55,4.55,0,0,1-1.54-1.13l-2.13,2.16a6,6,0,0,0,1.54,1.28,7.43,7.43,0,0,0,2,.81,8.11,8.11,0,0,0,2.14.28,5.8,5.8,0,0,0,3.74-1.1,4.08,4.08,0,0,0,.93-4.95,3.45,3.45,0,0,0-1.2-1.2,6.64,6.64,0,0,0-1.56-.71c-.54-.17-1.06-.32-1.55-.44a4.55,4.55,0,0,1-1.2-.47.81.81,0,0,1-.46-.71A.75.75,0,0,1,1739.47,271Z" transform="translate(-2.39 11)"/><rect class="cls-14" x="1745.56" y="279.1" width="3.63" height="12.92"/><path class="cls-14" d="M1749.76,262a1.91,1.91,0,0,0-1.43.6,2,2,0,0,0-.57,1.46,2,2,0,0,0,.57,1.45,2.05,2.05,0,0,0,2.9,0,2.06,2.06,0,0,0,.56-1.45,2.08,2.08,0,0,0-.56-1.46A1.91,1.91,0,0,0,1749.76,262Z" transform="translate(-2.39 11)"/><path class="cls-14" d="M1764.63,268.53a4.69,4.69,0,0,0-2.54-.7,5.3,5.3,0,0,0-2.64.65,4.82,4.82,0,0,0-1.07.82v-1.21h-3.63V281h3.63v-7.39a2.69,2.69,0,0,1,.32-1.32,2.12,2.12,0,0,1,.9-.88,2.62,2.62,0,0,1,1.29-.31,2.47,2.47,0,0,1,1.8.69,2.49,2.49,0,0,1,.71,1.85V281H1767v-8.19a4.84,4.84,0,0,0-.64-2.44A5.28,5.28,0,0,0,1764.63,268.53Z" transform="translate(-2.39 11)"/><path class="cls-14" d="M1779,269.32a4.74,4.74,0,0,0-1.26-.93,5.2,5.2,0,0,0-2.45-.56,5.77,5.77,0,0,0-3.16.89,6.32,6.32,0,0,0-2.22,2.42,7.67,7.67,0,0,0,0,6.86,6.26,6.26,0,0,0,2.22,2.4,5.85,5.85,0,0,0,3.16.88,5.42,5.42,0,0,0,2.48-.56,4.55,4.55,0,0,0,1.23-.92V281h3.58V268.09H1779Zm-.69,7.69a3.1,3.1,0,0,1-2.35.93,3.17,3.17,0,0,1-1.63-.42,3.09,3.09,0,0,1-1.14-1.21,4,4,0,0,1,0-3.52,3.07,3.07,0,0,1,1.14-1.2,3.22,3.22,0,0,1,1.65-.43,3.28,3.28,0,0,1,1.68.43,3,3,0,0,1,1.13,1.2,3.87,3.87,0,0,1,.4,1.76A3.46,3.46,0,0,1,1778.35,277Z" transform="translate(-2.39 11)"/><path class="cls-6" d="M1608.89,314.33v3.72a7.2,7.2,0,0,1,7.19,7.2v.11h3.72v-.11A10.92,10.92,0,0,0,1608.89,314.33Z" transform="translate(-2.39 11)"/><path class="cls-11" d="M1607.18,314.33h-1.33a10.93,10.93,0,0,0,.83,21.82l.5,0V332.4a4.19,4.19,0,0,1-.5,0,7.21,7.21,0,0,1,0-14.42l.5,0Z" transform="translate(-2.39 11)"/><path class="cls-6" d="M1616.09,301.8a7.21,7.21,0,0,1-7.21,7.21v3.72h0a10.93,10.93,0,0,0,0-21.86h0v3.72A7.22,7.22,0,0,1,1616.09,301.8Z" transform="translate(-2.39 11)"/><path class="cls-11" d="M1607.18,312.72V309a7.22,7.22,0,0,1-7.2-7.21s0-.07,0-.11h-3.72v.11A10.92,10.92,0,0,0,1607.18,312.72Z" transform="translate(-2.39 11)"/><path class="cls-11" d="M1641.7,311.6a7.52,7.52,0,0,1-3.75-1,7.18,7.18,0,0,1-2.65-2.6,7,7,0,0,1-1-3.63,6.88,6.88,0,0,1,1-3.65,7.21,7.21,0,0,1,2.65-2.55,7.42,7.42,0,0,1,3.75-1,7.57,7.57,0,0,1,3.76.93,7.13,7.13,0,0,1,2.64,2.56,6.91,6.91,0,0,1,1,3.66,7.06,7.06,0,0,1-3.6,6.23A7.58,7.58,0,0,1,1641.7,311.6Zm0-3.58a3.55,3.55,0,0,0,1.82-.47,3.17,3.17,0,0,0,1.22-1.27,4.05,4.05,0,0,0,.42-1.89,3.77,3.77,0,0,0-.45-1.86,3.19,3.19,0,0,0-1.22-1.25,3.84,3.84,0,0,0-3.59,0,3.23,3.23,0,0,0-1.21,1.25,4.33,4.33,0,0,0,0,3.72,3.2,3.2,0,0,0,1.21,1.29A3.45,3.45,0,0,0,1641.7,308Z" transform="translate(-2.39 11)"/><path class="cls-11" d="M1651.55,311.28V297.55h3.86v13.73Zm9.19,0v-7.83a2.65,2.65,0,0,0-.75-2,2.62,2.62,0,0,0-1.91-.73,2.87,2.87,0,0,0-1.38.32,2.32,2.32,0,0,0-1,.94,2.79,2.79,0,0,0-.34,1.4l-1.5-.76a5.47,5.47,0,0,1,.7-2.8,5.25,5.25,0,0,1,1.93-1.9,5.63,5.63,0,0,1,2.81-.69,4.94,4.94,0,0,1,2.7.75,5.37,5.37,0,0,1,1.87,2,5.18,5.18,0,0,1,.68,2.6v8.71Z" transform="translate(-2.39 11)"/><path class="cls-11" d="M1673.23,311.57a5.93,5.93,0,0,1-3.28-.94,6.4,6.4,0,0,1-2.28-2.57,8.42,8.42,0,0,1,0-7.25,6.69,6.69,0,0,1,2.27-2.58,5.88,5.88,0,0,1,3.32-1,5.33,5.33,0,0,1,2.78.69,4.86,4.86,0,0,1,1.82,1.89,6.07,6.07,0,0,1,.71,2.69v3.78a6.35,6.35,0,0,1-.68,2.67,4.72,4.72,0,0,1-1.8,1.88A5.49,5.49,0,0,1,1673.23,311.57Zm.88-3.61a3.12,3.12,0,0,0,2.44-1,3.73,3.73,0,0,0,.91-2.6,4.25,4.25,0,0,0-.41-1.9,3,3,0,0,0-1.18-1.27,3.48,3.48,0,0,0-1.76-.43,3.36,3.36,0,0,0-1.73.45,3.07,3.07,0,0,0-1.19,1.28,4.28,4.28,0,0,0,0,3.74,3.11,3.11,0,0,0,1.18,1.28A3.32,3.32,0,0,0,1674.11,308Zm3.15,3.32V307.6l.63-3.32-.63-3.35V290.74h3.83v20.54Z" transform="translate(-2.39 11)"/><path class="cls-11" d="M1690.18,311.57a6.18,6.18,0,0,1-3.37-.94,6.57,6.57,0,0,1-2.35-2.55,8.09,8.09,0,0,1,0-7.3,6.67,6.67,0,0,1,2.35-2.56,6.1,6.1,0,0,1,3.37-1,5.63,5.63,0,0,1,2.61.59,5,5,0,0,1,1.86,1.63,4.77,4.77,0,0,1,.78,2.37V307a4.82,4.82,0,0,1-.77,2.34,4.69,4.69,0,0,1-1.84,1.63A5.7,5.7,0,0,1,1690.18,311.57Zm.71-3.55a3.25,3.25,0,0,0,2.49-1,3.62,3.62,0,0,0,.94-2.61,4,4,0,0,0-.43-1.88,3.1,3.1,0,0,0-1.19-1.27,3.38,3.38,0,0,0-1.79-.46,3.33,3.33,0,0,0-1.76.46,3.19,3.19,0,0,0-1.2,1.27,3.87,3.87,0,0,0-.44,1.88,3.83,3.83,0,0,0,.44,1.87,3.16,3.16,0,0,0,1.2,1.28A3.37,3.37,0,0,0,1690.89,308Zm3.23,3.26V307.6l.62-3.32-.62-3.35v-3.38h3.8v13.73Z" transform="translate(-2.39 11)"/><path class="cls-11" d="M1641.73,329.51a7.66,7.66,0,0,1-3.76-.94,7.2,7.2,0,0,1-2.67-9.89,6.94,6.94,0,0,1,2.67-2.57,8,8,0,0,1,6.77-.36,6.57,6.57,0,0,1,2.35,1.69l-2.47,2.5a3.28,3.28,0,0,0-1.26-.91,4.34,4.34,0,0,0-1.6-.28,3.63,3.63,0,0,0-1.82.44,3,3,0,0,0-1.23,1.25,3.81,3.81,0,0,0-.44,1.88,3.74,3.74,0,0,0,.44,1.86,3.22,3.22,0,0,0,1.23,1.28,3.55,3.55,0,0,0,1.82.47,4.13,4.13,0,0,0,1.64-.31,3.38,3.38,0,0,0,1.28-.94l2.47,2.5a7.15,7.15,0,0,1-2.41,1.73A7.39,7.39,0,0,1,1641.73,329.51Z" transform="translate(-2.39 11)"/><path class="cls-11" d="M1655.64,329.51a7.9,7.9,0,0,1-3.86-.93,6.88,6.88,0,0,1-2.69-2.55,7.55,7.55,0,0,1,0-7.37,6.8,6.8,0,0,1,2.61-2.55,7.32,7.32,0,0,1,3.7-.94,7,7,0,0,1,3.51.88,6.41,6.41,0,0,1,2.39,2.43,7,7,0,0,1,.88,3.53,5.14,5.14,0,0,1-.05.77l-.14.88h-11.61v-2.81l9.87,0-1.61,1.19a5.06,5.06,0,0,0-.42-2,2.68,2.68,0,0,0-1.09-1.25,3.4,3.4,0,0,0-1.76-.43,3.49,3.49,0,0,0-1.88.5,3.19,3.19,0,0,0-1.24,1.38,5.46,5.46,0,0,0,0,4.27,3.25,3.25,0,0,0,1.32,1.38,4.12,4.12,0,0,0,2,.48,4.75,4.75,0,0,0,1.89-.36,4.23,4.23,0,0,0,1.46-1l2.21,2.21a6,6,0,0,1-2.41,1.79A8.1,8.1,0,0,1,1655.64,329.51Z" transform="translate(-2.39 11)"/><path class="cls-11" d="M1664.55,329.19V315.46h3.86v13.73Zm3.86-7.58-1.53-1.05a7.28,7.28,0,0,1,1.54-3.94,4.34,4.34,0,0,1,3.51-1.45,4.59,4.59,0,0,1,1.8.33,3.83,3.83,0,0,1,1.4,1l-2.38,2.81a1.89,1.89,0,0,0-.72-.51,3,3,0,0,0-1-.17,2.49,2.49,0,0,0-1.86.73A3,3,0,0,0,1668.41,321.61Z" transform="translate(-2.39 11)"/><path class="cls-11" d="M1682.66,329.51a7.4,7.4,0,0,1-3.75-1,7.08,7.08,0,0,1-2.65-2.59,6.92,6.92,0,0,1-1-3.64,6.78,6.78,0,0,1,1-3.64,7.24,7.24,0,0,1,2.65-2.56,7.93,7.93,0,0,1,7.51,0,7.17,7.17,0,0,1,2.64,2.55,7,7,0,0,1,1,3.66,7.1,7.1,0,0,1-1,3.64,7,7,0,0,1-2.64,2.59A7.44,7.44,0,0,1,1682.66,329.51Zm0-3.58a3.51,3.51,0,0,0,1.81-.47,3.13,3.13,0,0,0,1.22-1.28,3.89,3.89,0,0,0,.43-1.88,3.67,3.67,0,0,0-.46-1.86,3.19,3.19,0,0,0-1.22-1.25,3.43,3.43,0,0,0-1.78-.44,3.55,3.55,0,0,0-1.81.45,3.14,3.14,0,0,0-1.2,1.25,4.24,4.24,0,0,0,0,3.72,3.11,3.11,0,0,0,1.2,1.29A3.46,3.46,0,0,0,1682.66,325.93Z" transform="translate(-2.39 11)"/><path class="cls-15" d="M1900.07,51.5a12.41,12.41,0,0,1-12.4,12.4v6.39h0a18.79,18.79,0,0,0,0-37.58h0V39.1A12.41,12.41,0,0,1,1900.07,51.5Z" transform="translate(-2.39 11)"/><path class="cls-15" d="M1875.07,11.47a12.41,12.41,0,0,0,12.4,12.4v6.4h0a18.8,18.8,0,0,1,0-37.59h0v6.4A12.41,12.41,0,0,0,1875.07,11.47Z" transform="translate(-2.39 11)"/><path class="cls-15" d="M1900.17,132a12.41,12.41,0,0,1-12.4,12.4v6.39h0a18.79,18.79,0,0,0,0-37.58h0v6.39A12.41,12.41,0,0,1,1900.17,132Z" transform="translate(-2.39 11)"/><path class="cls-15" d="M1875.17,91.92a12.41,12.41,0,0,0,12.4,12.4v6.4h0a18.8,18.8,0,0,1,0-37.59h0v6.39A12.42,12.42,0,0,0,1875.17,91.92Z" transform="translate(-2.39 11)"/><path class="cls-15" d="M1900.22,212.7a12.41,12.41,0,0,1-12.4,12.4v6.39h0a18.79,18.79,0,0,0,0-37.58h0v6.39A12.41,12.41,0,0,1,1900.22,212.7Z" transform="translate(-2.39 11)"/><path class="cls-15" d="M1875.22,172.68a12.42,12.42,0,0,0,12.4,12.4v6.39h0a18.79,18.79,0,1,1,0-37.58h0v6.39A12.41,12.41,0,0,0,1875.22,172.68Z" transform="translate(-2.39 11)"/><path class="cls-15" d="M1900.32,293.15a12.41,12.41,0,0,1-12.4,12.4v6.39h0a18.79,18.79,0,0,0,0-37.58h0v6.39A12.41,12.41,0,0,1,1900.32,293.15Z" transform="translate(-2.39 11)"/><path class="cls-15" d="M1875.32,253.13a12.42,12.42,0,0,0,12.4,12.4v6.39h0a18.79,18.79,0,1,1,0-37.58h0v6.39A12.41,12.41,0,0,0,1875.32,253.13Z" transform="translate(-2.39 11)"/><path class="cls-15" d="M1900.29,374.79a12.41,12.41,0,0,1-12.4,12.4v6.4h0a18.8,18.8,0,0,0,0-37.59h0v6.39A12.42,12.42,0,0,1,1900.29,374.79Z" transform="translate(-2.39 11)"/><path class="cls-15" d="M1875.3,334.77a12.41,12.41,0,0,0,12.39,12.4v6.39h0a18.79,18.79,0,1,1,0-37.58h0v6.39A12.41,12.41,0,0,0,1875.3,334.77Z" transform="translate(-2.39 11)"/><path class="cls-15" d="M1900.39,455.24a12.41,12.41,0,0,1-12.4,12.4V474h0a18.8,18.8,0,0,0,0-37.59h0v6.39A12.42,12.42,0,0,1,1900.39,455.24Z" transform="translate(-2.39 11)"/><path class="cls-15" d="M1875.4,415.22a12.41,12.41,0,0,0,12.39,12.4V434h0a18.79,18.79,0,1,1,0-37.58h0v6.39A12.41,12.41,0,0,0,1875.4,415.22Z" transform="translate(-2.39 11)"/><path class="cls-15" d="M1900.44,536a12.42,12.42,0,0,1-12.4,12.4v6.39h0a18.79,18.79,0,1,0,0-37.58h0v6.39A12.41,12.41,0,0,1,1900.44,536Z" transform="translate(-2.39 11)"/><path class="cls-15" d="M1875.45,496a12.41,12.41,0,0,0,12.39,12.4v6.39h0a18.79,18.79,0,1,1,0-37.58h0v6.39A12.41,12.41,0,0,0,1875.45,496Z" transform="translate(-2.39 11)"/><path class="cls-15" d="M1900.54,616.45a12.42,12.42,0,0,1-12.4,12.4v6.39h0a18.8,18.8,0,0,0,0-37.59h0v6.4A12.41,12.41,0,0,1,1900.54,616.45Z" transform="translate(-2.39 11)"/><path class="cls-15" d="M1875.54,576.42a12.42,12.42,0,0,0,12.4,12.4v6.39h0a18.79,18.79,0,1,1,0-37.58h0V564A12.42,12.42,0,0,0,1875.54,576.42Z" transform="translate(-2.39 11)"/><path class="cls-15" d="M1852.13,53.52a12.42,12.42,0,0,1-12.4,12.4v6.39h0a18.79,18.79,0,0,0,0-37.58h0v6.39A12.41,12.41,0,0,1,1852.13,53.52Z" transform="translate(-2.39 11)"/><path class="cls-15" d="M1827.13,13.49a12.41,12.41,0,0,0,12.4,12.4v6.39h0a18.79,18.79,0,1,1,0-37.58h0V1.09A12.42,12.42,0,0,0,1827.13,13.49Z" transform="translate(-2.39 11)"/><path class="cls-15" d="M1852.23,134a12.42,12.42,0,0,1-12.4,12.4v6.39h0a18.8,18.8,0,0,0,0-37.59h0v6.4A12.41,12.41,0,0,1,1852.23,134Z" transform="translate(-2.39 11)"/><path class="cls-15" d="M1827.23,93.94a12.41,12.41,0,0,0,12.4,12.4v6.39h0a18.79,18.79,0,0,1,0-37.58h0v6.39A12.41,12.41,0,0,0,1827.23,93.94Z" transform="translate(-2.39 11)"/><path class="cls-15" d="M1852.28,214.72a12.41,12.41,0,0,1-12.4,12.4v6.39h0a18.79,18.79,0,0,0,0-37.58h0v6.39A12.41,12.41,0,0,1,1852.28,214.72Z" transform="translate(-2.39 11)"/><path class="cls-15" d="M1827.28,174.7a12.41,12.41,0,0,0,12.4,12.39v6.4h0a18.8,18.8,0,0,1,0-37.59h0v6.4A12.41,12.41,0,0,0,1827.28,174.7Z" transform="translate(-2.39 11)"/><path class="cls-15" d="M1852.38,295.17a12.41,12.41,0,0,1-12.4,12.4V314h0a18.79,18.79,0,0,0,0-37.58h0v6.39A12.41,12.41,0,0,1,1852.38,295.17Z" transform="translate(-2.39 11)"/><path class="cls-15" d="M1827.38,255.14a12.41,12.41,0,0,0,12.4,12.4v6.4h0a18.8,18.8,0,0,1,0-37.59h0v6.4A12.41,12.41,0,0,0,1827.38,255.14Z" transform="translate(-2.39 11)"/><path class="cls-15" d="M1852.36,376.81a12.42,12.42,0,0,1-12.4,12.4v6.39h0a18.79,18.79,0,0,0,0-37.58h0v6.39A12.42,12.42,0,0,1,1852.36,376.81Z" transform="translate(-2.39 11)"/><path class="cls-15" d="M1827.36,336.79a12.42,12.42,0,0,0,12.4,12.4v6.39h0a18.79,18.79,0,1,1,0-37.58h0v6.39A12.41,12.41,0,0,0,1827.36,336.79Z" transform="translate(-2.39 11)"/><path class="cls-15" d="M1852.46,457.26a12.42,12.42,0,0,1-12.4,12.4v6.39h0a18.79,18.79,0,0,0,0-37.58h0v6.39A12.42,12.42,0,0,1,1852.46,457.26Z" transform="translate(-2.39 11)"/><path class="cls-15" d="M1827.46,417.24a12.42,12.42,0,0,0,12.4,12.4V436h0a18.79,18.79,0,1,1,0-37.58h0v6.39A12.41,12.41,0,0,0,1827.46,417.24Z" transform="translate(-2.39 11)"/><path class="cls-15" d="M1852.51,538a12.42,12.42,0,0,1-12.4,12.4v6.4h0a18.8,18.8,0,0,0,0-37.59h0v6.4A12.41,12.41,0,0,1,1852.51,538Z" transform="translate(-2.39 11)"/><path class="cls-15" d="M1827.51,498a12.41,12.41,0,0,0,12.4,12.4v6.39h0a18.79,18.79,0,0,1,0-37.58h0v6.39A12.41,12.41,0,0,0,1827.51,498Z" transform="translate(-2.39 11)"/><path class="cls-15" d="M1852.6,618.46a12.41,12.41,0,0,1-12.39,12.4v6.4h0a18.8,18.8,0,0,0,0-37.59h0v6.39A12.41,12.41,0,0,1,1852.6,618.46Z" transform="translate(-2.39 11)"/><path class="cls-15" d="M1827.61,578.44a12.41,12.41,0,0,0,12.4,12.4v6.39h0a18.79,18.79,0,1,1,0-37.58h0V566A12.41,12.41,0,0,0,1827.61,578.44Z" transform="translate(-2.39 11)"/><path class="cls-15" d="M1804.2,51.5a12.42,12.42,0,0,1-12.4,12.4v6.39h0a18.79,18.79,0,0,0,0-37.58h0V39.1A12.42,12.42,0,0,1,1804.2,51.5Z" transform="translate(-2.39 11)"/><path class="cls-15" d="M1779.2,11.47a12.41,12.41,0,0,0,12.4,12.4v6.4h0a18.8,18.8,0,0,1,0-37.59h0v6.4A12.41,12.41,0,0,0,1779.2,11.47Z" transform="translate(-2.39 11)"/><path class="cls-15" d="M1804.3,132a12.42,12.42,0,0,1-12.4,12.4v6.39h0a18.79,18.79,0,0,0,0-37.58h0v6.39A12.42,12.42,0,0,1,1804.3,132Z" transform="translate(-2.39 11)"/><path class="cls-15" d="M1779.3,91.92a12.41,12.41,0,0,0,12.4,12.4v6.4h0a18.8,18.8,0,0,1,0-37.59h0v6.39A12.42,12.42,0,0,0,1779.3,91.92Z" transform="translate(-2.39 11)"/><path class="cls-15" d="M1804.35,212.7a12.42,12.42,0,0,1-12.4,12.4v6.39h0a18.79,18.79,0,0,0,0-37.58h0v6.39A12.42,12.42,0,0,1,1804.35,212.7Z" transform="translate(-2.39 11)"/><path class="cls-15" d="M1779.35,172.68a12.42,12.42,0,0,0,12.4,12.4v6.39h0a18.79,18.79,0,1,1,0-37.58h0v6.39A12.41,12.41,0,0,0,1779.35,172.68Z" transform="translate(-2.39 11)"/><path class="cls-15" d="M1804.45,293.15a12.42,12.42,0,0,1-12.4,12.4v6.39h0a18.79,18.79,0,0,0,0-37.58h0v6.39A12.42,12.42,0,0,1,1804.45,293.15Z" transform="translate(-2.39 11)"/><path class="cls-15" d="M1804.42,374.79a12.41,12.41,0,0,1-12.4,12.4v6.4h0a18.8,18.8,0,0,0,0-37.59h0v6.39A12.42,12.42,0,0,1,1804.42,374.79Z" transform="translate(-2.39 11)"/><path class="cls-15" d="M1779.42,334.77a12.42,12.42,0,0,0,12.4,12.4v6.39h0a18.79,18.79,0,1,1,0-37.58h0v6.39A12.42,12.42,0,0,0,1779.42,334.77Z" transform="translate(-2.39 11)"/><path class="cls-15" d="M1804.52,455.24a12.41,12.41,0,0,1-12.4,12.4V474h0a18.8,18.8,0,0,0,0-37.59h0v6.39A12.42,12.42,0,0,1,1804.52,455.24Z" transform="translate(-2.39 11)"/><path class="cls-15" d="M1779.52,415.22a12.41,12.41,0,0,0,12.4,12.4V434h0a18.79,18.79,0,1,1,0-37.58h0v6.39A12.41,12.41,0,0,0,1779.52,415.22Z" transform="translate(-2.39 11)"/><path class="cls-15" d="M1804.57,536a12.42,12.42,0,0,1-12.4,12.4v6.39h0a18.79,18.79,0,0,0,0-37.58h0v6.39A12.41,12.41,0,0,1,1804.57,536Z" transform="translate(-2.39 11)"/><path class="cls-15" d="M1779.57,496a12.41,12.41,0,0,0,12.4,12.4v6.39h0a18.79,18.79,0,1,1,0-37.58h0v6.39A12.42,12.42,0,0,0,1779.57,496Z" transform="translate(-2.39 11)"/><path class="cls-15" d="M1804.67,616.45a12.42,12.42,0,0,1-12.4,12.4v6.39h0a18.8,18.8,0,0,0,0-37.59h0v6.4A12.41,12.41,0,0,1,1804.67,616.45Z" transform="translate(-2.39 11)"/><path class="cls-15" d="M1779.67,576.42a12.41,12.41,0,0,0,12.4,12.4v6.39h0a18.79,18.79,0,1,1,0-37.58h0V564A12.41,12.41,0,0,0,1779.67,576.42Z" transform="translate(-2.39 11)"/></g><g class="cls-16"><rect class="cls-5" x="1013.13" y="12" width="362.1" height="564.58"/><polygon class="cls-17" points="1064.22 162.95 1071.32 173.19 1079.14 173.19 1086.24 163.02 1086.24 183.47 1098.35 183.47 1098.35 139.92 1089.48 139.92 1075.26 160.83 1060.98 139.92 1052.11 139.92 1052.11 183.47 1064.22 183.47 1064.22 162.95"/><path class="cls-17" d="M1119.67,165.13H1135l2.41,7.34h12.72l-16.39-43.55h-12.48l-16.57,43.55h12.47Zm3.22-9.54,4.55-13.51,4.45,13.51Z" transform="translate(-2.39 11)"/><path class="cls-17" d="M1171.88,162.65a7.53,7.53,0,0,1-3.79.77,13.39,13.39,0,0,1-5.63-1.2,18.19,18.19,0,0,1-5-3.45l-7.64,7.64a21.79,21.79,0,0,0,7.61,5.17,26.53,26.53,0,0,0,9.7,1.62q8.63,0,13.36-3.64t4.74-10.3a13,13,0,0,0-1.1-5.63,11.64,11.64,0,0,0-2.9-3.89,17.59,17.59,0,0,0-4-2.56,39.32,39.32,0,0,0-4.31-1.75c-1.45-.49-2.77-1-4-1.4a11.63,11.63,0,0,1-2.9-1.5,2.52,2.52,0,0,1-1.1-2.11,2,2,0,0,1,1.13-1.84,6.34,6.34,0,0,1,3-.61,10.22,10.22,0,0,1,4.4.95,15.2,15.2,0,0,1,4,2.9l7.7-7.64a18.12,18.12,0,0,0-6.94-4.44,25.81,25.81,0,0,0-9.08-1.56,21.26,21.26,0,0,0-8.63,1.62,12.4,12.4,0,0,0-7.7,12,12.25,12.25,0,0,0,1.1,5.48,11.2,11.2,0,0,0,2.9,3.73,19.87,19.87,0,0,0,3.95,2.54,37.6,37.6,0,0,0,4.31,1.77c1.45.49,2.77,1,4,1.44a11,11,0,0,1,2.9,1.59,2.74,2.74,0,0,1,1.1,2.23A2.34,2.34,0,0,1,1171.88,162.65Z" transform="translate(-2.39 11)"/><path class="cls-17" d="M1107.46,224.9a27.68,27.68,0,0,0,9.36-1.53,22.19,22.19,0,0,0,7.46-4.4,19.77,19.77,0,0,0,4.92-6.89,23.81,23.81,0,0,0,0-17.92,19.82,19.82,0,0,0-4.92-6.88,22,22,0,0,0-7.49-4.4,28.13,28.13,0,0,0-9.45-1.53H1089V224.9h18.48Zm-.12-33.15a12.87,12.87,0,0,1,5.9,1.25,9,9,0,0,1,3.85,3.76,12.94,12.94,0,0,1,1.38,6.3,13.54,13.54,0,0,1-1.35,6.36,8.64,8.64,0,0,1-3.85,3.83,13.19,13.19,0,0,1-5.93,1.25h-6.12V191.75Z" transform="translate(-2.39 11)"/><polygon class="cls-17" points="1166.48 202.5 1166.48 192.35 1145.8 192.35 1143.48 192.35 1133.57 192.35 1133.57 235.9 1143.48 235.9 1145.8 235.9 1166.85 235.9 1166.85 225.75 1145.8 225.75 1145.8 218.65 1164.58 218.65 1164.58 208.74 1145.8 208.74 1145.8 202.5 1166.48 202.5"/><path class="cls-17" d="M1080.62,260.81a6.78,6.78,0,0,1-.86,3.52,5.73,5.73,0,0,1-2.35,2.2,7.53,7.53,0,0,1-3.46.77,7.77,7.77,0,0,1-3.46-.77,5.91,5.91,0,0,1-2.47-2.23,6.58,6.58,0,0,1-.92-3.55v-27h-12.23v25.87a18.82,18.82,0,0,0,2.38,9.54,16.87,16.87,0,0,0,6.67,6.52,22.52,22.52,0,0,0,20,0,16.84,16.84,0,0,0,6.61-6.49,18.84,18.84,0,0,0,2.35-9.51V233.78h-12.29Z" transform="translate(-2.39 11)"/><polygon class="cls-17" points="1123.86 267.84 1105.51 244.78 1096.94 244.78 1096.94 288.33 1109.18 288.33 1109.18 266.04 1126.92 288.33 1136.09 288.33 1136.09 244.78 1123.86 244.78 1123.86 267.84"/><path class="cls-17" d="M1189,246.53a21.6,21.6,0,0,0-4.93-7.19,22.6,22.6,0,0,0-7.49-4.74,27.42,27.42,0,0,0-18.9,0,22.54,22.54,0,0,0-7.5,4.74,21.51,21.51,0,0,0-4.92,7.16,23.9,23.9,0,0,0,0,18,21.44,21.44,0,0,0,5,7.22,23.07,23.07,0,0,0,7.52,4.77,26.94,26.94,0,0,0,18.81,0,22.27,22.27,0,0,0,7.46-4.77,21.83,21.83,0,0,0,4.93-7.22,24.09,24.09,0,0,0,0-18Zm-12.09,15.26A9.69,9.69,0,0,1,1173,266a11.52,11.52,0,0,1-5.93,1.47,12.31,12.31,0,0,1-4.62-.83,9.76,9.76,0,0,1-3.52-2.38,10.41,10.41,0,0,1-2.23-3.76,15.06,15.06,0,0,1-.76-5,13.73,13.73,0,0,1,1.34-6.27,9.66,9.66,0,0,1,3.85-4.1,11.84,11.84,0,0,1,5.94-1.43,12.31,12.31,0,0,1,4.62.82,9.83,9.83,0,0,1,3.51,2.39,10.39,10.39,0,0,1,2.24,3.73,14.58,14.58,0,0,1,.76,4.86A13.86,13.86,0,0,1,1176.89,261.79Z" transform="translate(-2.39 11)"/><polygon class="cls-17" points="1143.93 124.4 1130.24 124.4 1120.79 136.29 1131.02 136.29 1143.93 124.4"/><path class="cls-17" d="M1205.85,231a7.26,7.26,0,0,0,3.54.88,7,7,0,0,0,2.82-.56,6.84,6.84,0,0,0,2.27-1.63l-2.32-2.35a3.22,3.22,0,0,1-1.2.88,3.86,3.86,0,0,1-1.55.29,3.25,3.25,0,0,1-1.71-.44,3.11,3.11,0,0,1-1.16-1.2,3.64,3.64,0,0,1-.41-1.74,3.74,3.74,0,0,1,.41-1.78,2.9,2.9,0,0,1,1.16-1.17,3.44,3.44,0,0,1,1.71-.42,4.06,4.06,0,0,1,1.51.27,3.08,3.08,0,0,1,1.19.85l2.32-2.35a6.14,6.14,0,0,0-2.22-1.58,6.93,6.93,0,0,0-2.8-.55,7.2,7.2,0,0,0-3.56.88,6.77,6.77,0,0,0-2.51,9.3A6.63,6.63,0,0,0,1205.85,231Z" transform="translate(-2.39 11)"/><path class="cls-17" d="M1218.81,231a7.39,7.39,0,0,0,7.07,0,6.8,6.8,0,0,0,2.47-9.3,6.8,6.8,0,0,0-2.48-2.4,7.48,7.48,0,0,0-7.06,0,6.88,6.88,0,0,0-2.5,2.41,6.45,6.45,0,0,0-.92,3.43,6.58,6.58,0,0,0,.92,3.41A6.73,6.73,0,0,0,1218.81,231Zm.69-7.62a3,3,0,0,1,1.14-1.17,3.32,3.32,0,0,1,1.69-.43,3.27,3.27,0,0,1,1.68.42,3,3,0,0,1,1.15,1.17,3.57,3.57,0,0,1,.43,1.75,3.79,3.79,0,0,1-.4,1.77,3,3,0,0,1-1.15,1.2,3.25,3.25,0,0,1-1.71.44,3.13,3.13,0,0,1-1.69-.44,3,3,0,0,1-1.14-1.21,4,4,0,0,1,0-3.5Z" transform="translate(-2.39 11)"/><path class="cls-17" d="M1235.22,224.18a2.69,2.69,0,0,1,.32-1.32,2.16,2.16,0,0,1,.89-.88,2.8,2.8,0,0,1,1.3-.31,2.42,2.42,0,0,1,2.51,2.54v7.36h3.63v-8.19a5,5,0,0,0-.64-2.44,5.11,5.11,0,0,0-1.77-1.84,4.64,4.64,0,0,0-2.53-.71,5.27,5.27,0,0,0-2.64.65,5.14,5.14,0,0,0-1.07.82v-1.2h-3.63v12.91h3.63Z" transform="translate(-2.39 11)"/><path class="cls-17" d="M1208.17,240.56a4.94,4.94,0,0,1,1.84-1.27,7,7,0,0,1,5,0,5.32,5.32,0,0,1,1.9,1.3l2.51-2.51a9.67,9.67,0,0,0-3-2,10.83,10.83,0,0,0-7.82,0,9.3,9.3,0,0,0-5.11,5.12,9.87,9.87,0,0,0-.73,3.81,9.58,9.58,0,0,0,2.79,6.88,9.29,9.29,0,0,0,3.08,2.07,9.84,9.84,0,0,0,3.84.73,10.33,10.33,0,0,0,4-.73,9.61,9.61,0,0,0,3-2l-2.5-2.53a5.71,5.71,0,0,1-1.91,1.33,6.77,6.77,0,0,1-2.69.48,6.09,6.09,0,0,1-2.36-.45,5.23,5.23,0,0,1-1.85-1.27,5.48,5.48,0,0,1-1.2-2,7.57,7.57,0,0,1,0-5.06A6.24,6.24,0,0,1,1208.17,240.56Z" transform="translate(-2.39 11)"/><path class="cls-17" d="M1230.52,253.24v1.21h3.58V241.53h-3.58v1.23a4.48,4.48,0,0,0-1.25-.93,5.24,5.24,0,0,0-2.46-.56,5.71,5.71,0,0,0-3.16.89,6.37,6.37,0,0,0-2.21,2.42,7.56,7.56,0,0,0,0,6.85,6.27,6.27,0,0,0,2.21,2.41,5.87,5.87,0,0,0,3.16.88,5.43,5.43,0,0,0,2.49-.56A4.72,4.72,0,0,0,1230.52,253.24Zm-4.67-2.29a2.91,2.91,0,0,1-1.13-1.2,3.9,3.9,0,0,1,0-3.52,2.91,2.91,0,0,1,1.13-1.2,3.14,3.14,0,0,1,1.66-.43,3.18,3.18,0,0,1,1.68.43,2.89,2.89,0,0,1,1.12,1.2,3.74,3.74,0,0,1,.4,1.76,3.43,3.43,0,0,1-.88,2.46,3.38,3.38,0,0,1-4,.5Z" transform="translate(-2.39 11)"/><path class="cls-17" d="M1245.91,241.57a4.49,4.49,0,0,0-1.7-.3,4.07,4.07,0,0,0-3.29,1.36h0v-1.11h-3.62v12.92h3.62v-7.13a2.82,2.82,0,0,1,.69-2.09,2.36,2.36,0,0,1,1.74-.68,2.65,2.65,0,0,1,1,.16,1.75,1.75,0,0,1,.68.48l2.24-2.64A3.62,3.62,0,0,0,1245.91,241.57Z" transform="translate(-2.39 11)"/><rect class="cls-17" x="1246.17" y="246.13" width="3.63" height="19.32"/><path class="cls-17" d="M1267.46,251.41a6.68,6.68,0,0,0,.91-3.42,6.53,6.53,0,0,0-.92-3.44,6.67,6.67,0,0,0-2.49-2.4,7.48,7.48,0,0,0-7.06,0,6.83,6.83,0,0,0-2.49,2.4,6.5,6.5,0,0,0-.92,3.43,6.59,6.59,0,0,0,.92,3.42,6.7,6.7,0,0,0,2.49,2.44,7.49,7.49,0,0,0,7.08,0A6.67,6.67,0,0,0,1267.46,251.41Zm-3.18-1.67a2.93,2.93,0,0,1-1.14,1.2,3.35,3.35,0,0,1-1.71.44,3.29,3.29,0,0,1-1.7-.44,3,3,0,0,1-1.13-1.21,3.72,3.72,0,0,1-.4-1.74,3.66,3.66,0,0,1,.4-1.76,2.89,2.89,0,0,1,1.13-1.17,3.28,3.28,0,0,1,1.7-.43,3.37,3.37,0,0,1,1.68.41,3.11,3.11,0,0,1,1.15,1.18,3.53,3.53,0,0,1,.42,1.74A3.74,3.74,0,0,1,1264.28,249.74Z" transform="translate(-2.39 11)"/><path class="cls-17" d="M1278.64,247.48a7.24,7.24,0,0,0-1.56-.7c-.54-.17-1.06-.32-1.55-.44a4.55,4.55,0,0,1-1.2-.47.83.83,0,0,1-.47-.71.74.74,0,0,1,.39-.68,2.39,2.39,0,0,1,1.16-.22,3.89,3.89,0,0,1,1.58.33,3.69,3.69,0,0,1,1.33,1l2.14-2.17a5.25,5.25,0,0,0-2.15-1.68,7.57,7.57,0,0,0-3-.56,6.44,6.44,0,0,0-2.66.51,3.93,3.93,0,0,0-1.74,1.43,3.72,3.72,0,0,0-.62,2.12,3.65,3.65,0,0,0,.47,1.95,3.08,3.08,0,0,0,1.21,1.14,8.9,8.9,0,0,0,1.56.66c.55.17,1.06.32,1.55.45a4.51,4.51,0,0,1,1.2.5.9.9,0,0,1,.47.8.76.76,0,0,1-.43.7,2.45,2.45,0,0,1-1.25.26,4.7,4.7,0,0,1-1.94-.39,4.51,4.51,0,0,1-1.53-1.13l-2.14,2.16a6.27,6.27,0,0,0,1.55,1.28,7.51,7.51,0,0,0,2,.81,8.24,8.24,0,0,0,2.15.28,5.88,5.88,0,0,0,3.74-1.1,3.66,3.66,0,0,0,1.39-3,3.41,3.41,0,0,0-1.66-3.15Z" transform="translate(-2.39 11)"/><path class="cls-17" d="M1209.81,258.54l-7.55,18.79h3.9l1.32-3.47h7.65l1.3,3.47h4l-7.47-18.79Zm-1.14,12.19,2.67-7,2.63,7Z" transform="translate(-2.39 11)"/><rect class="cls-17" x="1220.18" y="269.01" width="3.63" height="19.32"/><path class="cls-17" d="M1232.91,267.36a2.37,2.37,0,0,1,1.16-.23,3.67,3.67,0,0,1,2.91,1.36l2.14-2.16a5.09,5.09,0,0,0-2.15-1.68,7.57,7.57,0,0,0-3-.56,6.44,6.44,0,0,0-2.66.51,4,4,0,0,0-1.75,1.42,3.82,3.82,0,0,0-.61,2.12,3.61,3.61,0,0,0,.47,1.95,3.18,3.18,0,0,0,1.21,1.15,8.16,8.16,0,0,0,1.56.65c.55.17,1.06.33,1.55.46a4.52,4.52,0,0,1,1.2.49.92.92,0,0,1,.47.8.78.78,0,0,1-.43.71,2.46,2.46,0,0,1-1.25.25,4.87,4.87,0,0,1-1.94-.38,4.45,4.45,0,0,1-1.53-1.14l-2.14,2.16a6.3,6.3,0,0,0,1.55,1.29,8.2,8.2,0,0,0,4.11,1.09,5.83,5.83,0,0,0,3.74-1.11,3.66,3.66,0,0,0,1.39-3,3.75,3.75,0,0,0-.46-1.95,3.45,3.45,0,0,0-1.2-1.2,7.28,7.28,0,0,0-1.56-.71c-.54-.17-1.06-.31-1.55-.44a4.56,4.56,0,0,1-1.2-.46.84.84,0,0,1-.47-.71A.74.74,0,0,1,1232.91,267.36Z" transform="translate(-2.39 11)"/><rect class="cls-17" x="1238.99" y="275.41" width="3.63" height="12.92"/><path class="cls-17" d="M1243.2,258.3a1.89,1.89,0,0,0-1.43.6,2,2,0,0,0-.57,1.45,2,2,0,0,0,.57,1.46,1.89,1.89,0,0,0,1.43.6,1.94,1.94,0,0,0,1.47-.6,2.08,2.08,0,0,0,.56-1.46,2.06,2.06,0,0,0-.56-1.45A1.94,1.94,0,0,0,1243.2,258.3Z" transform="translate(-2.39 11)"/><path class="cls-17" d="M1258.06,264.85a4.64,4.64,0,0,0-2.53-.71,5.17,5.17,0,0,0-2.64.66,4.78,4.78,0,0,0-1.07.81v-1.2h-3.63v12.92h3.63v-7.4a2.74,2.74,0,0,1,.32-1.32,2.22,2.22,0,0,1,.89-.88,2.8,2.8,0,0,1,1.3-.31,2.42,2.42,0,0,1,2.51,2.54v7.37h3.63v-8.2a5,5,0,0,0-.64-2.44A5.11,5.11,0,0,0,1258.06,264.85Z" transform="translate(-2.39 11)"/><path class="cls-17" d="M1272.48,265.64a4.77,4.77,0,0,0-1.26-.94,5.35,5.35,0,0,0-2.45-.56,5.75,5.75,0,0,0-3.17.9,6.34,6.34,0,0,0-2.21,2.41,7.22,7.22,0,0,0-.82,3.44,7.14,7.14,0,0,0,.82,3.42,6.32,6.32,0,0,0,2.21,2.4,5.82,5.82,0,0,0,3.17.88,5.3,5.3,0,0,0,2.48-.56,4.68,4.68,0,0,0,1.23-.91v1.21h3.57V264.41h-3.57Zm-.7,7.68a3,3,0,0,1-2.35.94,3.16,3.16,0,0,1-1.62-.43,3.07,3.07,0,0,1-1.14-1.2,4,4,0,0,1,0-3.52,3.09,3.09,0,0,1,1.14-1.21,3.21,3.21,0,0,1,1.65-.42,3.27,3.27,0,0,1,1.68.42,2.91,2.91,0,0,1,1.12,1.21,3.71,3.71,0,0,1,.4,1.76A3.41,3.41,0,0,1,1271.78,273.32Z" transform="translate(-2.39 11)"/><path class="cls-6" d="M1102.33,310.64v3.72a7.21,7.21,0,0,1,7.19,7.21v.1h3.72v-.1A10.93,10.93,0,0,0,1102.33,310.64Z" transform="translate(-2.39 11)"/><path class="cls-11" d="M1100.61,310.64h-1.32a10.93,10.93,0,0,0,.83,21.82h.49v-3.73l-.49,0a7.21,7.21,0,1,1,0-14.42c.17,0,.33,0,.49,0Z" transform="translate(-2.39 11)"/><path class="cls-6" d="M1109.53,298.12a7.21,7.21,0,0,1-7.21,7.2V309h0a10.93,10.93,0,1,0,0-21.85h0v3.72A7.21,7.21,0,0,1,1109.53,298.12Z" transform="translate(-2.39 11)"/><path class="cls-11" d="M1100.61,309v-3.72a7.22,7.22,0,0,1-7.19-7.21.34.34,0,0,1,0-.1h-3.72s0,.07,0,.1A10.93,10.93,0,0,0,1100.61,309Z" transform="translate(-2.39 11)"/><path class="cls-11" d="M1135.14,307.91a7.42,7.42,0,0,1-3.75-1,7,7,0,0,1-2.65-2.6,6.86,6.86,0,0,1-1-3.63,6.75,6.75,0,0,1,1-3.64,7.24,7.24,0,0,1,2.65-2.56,7.93,7.93,0,0,1,7.51,0,7.17,7.17,0,0,1,2.64,2.55,7.17,7.17,0,0,1-2.63,9.89A7.41,7.41,0,0,1,1135.14,307.91Zm0-3.57a3.51,3.51,0,0,0,1.81-.47,3.13,3.13,0,0,0,1.22-1.28,3.93,3.93,0,0,0,.43-1.89,3.7,3.7,0,0,0-.45-1.85,3.26,3.26,0,0,0-1.22-1.25,3.49,3.49,0,0,0-1.79-.44,3.6,3.6,0,0,0-1.81.45,3.07,3.07,0,0,0-1.2,1.25,3.94,3.94,0,0,0-.43,1.87,4,4,0,0,0,.43,1.85,3.11,3.11,0,0,0,1.2,1.29A3.51,3.51,0,0,0,1135.14,304.34Z" transform="translate(-2.39 11)"/><path class="cls-11" d="M1145,307.6V293.86h3.86V307.6Zm9.19,0v-7.83a2.56,2.56,0,0,0-2.67-2.7,2.8,2.8,0,0,0-1.37.33,2.24,2.24,0,0,0-1,.93,2.83,2.83,0,0,0-.34,1.41l-1.51-.77a5.41,5.41,0,0,1,.71-2.79,5.1,5.1,0,0,1,1.93-1.9,5.5,5.5,0,0,1,2.81-.7,5,5,0,0,1,2.7.75,5.48,5.48,0,0,1,1.87,2,5.26,5.26,0,0,1,.68,2.6v8.71Z" transform="translate(-2.39 11)"/><path class="cls-11" d="M1166.67,307.88a6,6,0,0,1-3.28-.93,6.47,6.47,0,0,1-2.28-2.57,8.33,8.33,0,0,1,0-7.25,6.71,6.71,0,0,1,2.27-2.59,5.85,5.85,0,0,1,3.32-1,5.27,5.27,0,0,1,2.78.7,5,5,0,0,1,1.82,1.88,6.15,6.15,0,0,1,.71,2.7v3.77a6.14,6.14,0,0,1-.69,2.67,4.55,4.55,0,0,1-1.8,1.89A5.52,5.52,0,0,1,1166.67,307.88Zm.88-3.6a3.14,3.14,0,0,0,2.44-1,3.69,3.69,0,0,0,.91-2.59,4.29,4.29,0,0,0-.41-1.91,3,3,0,0,0-1.18-1.26,3.51,3.51,0,0,0-1.76-.44,3.27,3.27,0,0,0-1.73.46,3,3,0,0,0-1.19,1.27,4,4,0,0,0-.43,1.88,3.94,3.94,0,0,0,.43,1.87,3.15,3.15,0,0,0,1.17,1.28A3.38,3.38,0,0,0,1167.55,304.28Zm3.15,3.32v-3.69l.62-3.32-.62-3.35V287.05h3.83V307.6Z" transform="translate(-2.39 11)"/><path class="cls-11" d="M1183.61,307.88a6.2,6.2,0,0,1-3.36-.93,6.78,6.78,0,0,1-2.36-2.56,7.6,7.6,0,0,1-.86-3.63,7.72,7.72,0,0,1,.86-3.66,6.88,6.88,0,0,1,2.36-2.57,6.13,6.13,0,0,1,3.36-.95,5.58,5.58,0,0,1,2.61.6,4.75,4.75,0,0,1,1.86,1.63,4.58,4.58,0,0,1,.78,2.37v5.14a4.71,4.71,0,0,1-.76,2.34,4.8,4.8,0,0,1-1.85,1.63A5.64,5.64,0,0,1,1183.61,307.88Zm.71-3.54a3.25,3.25,0,0,0,2.5-1,3.66,3.66,0,0,0,.94-2.61,4.06,4.06,0,0,0-.43-1.87,3.07,3.07,0,0,0-1.19-1.28,3.47,3.47,0,0,0-1.79-.45,3.41,3.41,0,0,0-1.76.45,3.25,3.25,0,0,0-1.21,1.28,3.94,3.94,0,0,0-.44,1.87,4,4,0,0,0,.44,1.88,3.26,3.26,0,0,0,2.94,1.73Zm3.24,3.26v-3.69l.62-3.32-.62-3.35v-3.38h3.8V307.6Z" transform="translate(-2.39 11)"/><path class="cls-11" d="M1135.17,325.82a7.52,7.52,0,0,1-3.76-.94,7.2,7.2,0,0,1-2.67-9.89,7,7,0,0,1,2.67-2.57,7.67,7.67,0,0,1,3.78-.93,7.44,7.44,0,0,1,3,.58,6.61,6.61,0,0,1,2.36,1.69l-2.47,2.5a3.18,3.18,0,0,0-1.26-.91,4.35,4.35,0,0,0-1.61-.29,3.7,3.7,0,0,0-1.81.44,3.17,3.17,0,0,0-1.24,1.25,3.94,3.94,0,0,0-.44,1.89,3.87,3.87,0,0,0,.44,1.86,3.39,3.39,0,0,0,1.24,1.28,3.51,3.51,0,0,0,1.81.46,4.15,4.15,0,0,0,1.65-.31,3.55,3.55,0,0,0,1.28-.93l2.47,2.49a7,7,0,0,1-2.42,1.73A7.34,7.34,0,0,1,1135.17,325.82Z" transform="translate(-2.39 11)"/><path class="cls-11" d="M1149.07,325.82a8.06,8.06,0,0,1-3.86-.92,6.94,6.94,0,0,1-3.66-6.23,7.19,7.19,0,0,1,1-3.69,7,7,0,0,1,2.61-2.56,7.49,7.49,0,0,1,3.71-.93,6.82,6.82,0,0,1,3.5.88,6.41,6.41,0,0,1,2.4,2.42,7,7,0,0,1,.88,3.54,5.06,5.06,0,0,1-.06.76c0,.27-.08.56-.14.88h-11.61v-2.81l9.88,0-1.62,1.2a5.08,5.08,0,0,0-.41-2.05,2.84,2.84,0,0,0-1.09-1.25,3.4,3.4,0,0,0-1.76-.42,3.55,3.55,0,0,0-1.89.5,3.2,3.2,0,0,0-1.23,1.37,4.71,4.71,0,0,0-.43,2.1,4.61,4.61,0,0,0,.46,2.17,3.14,3.14,0,0,0,1.32,1.38,4.08,4.08,0,0,0,2,.48,4.75,4.75,0,0,0,1.89-.35,4.07,4.07,0,0,0,1.46-1l2.22,2.22a6,6,0,0,1-2.41,1.78A8.12,8.12,0,0,1,1149.07,325.82Z" transform="translate(-2.39 11)"/><path class="cls-11" d="M1158,325.51V311.77h3.85v13.74Zm3.85-7.58-1.53-1.05a7.33,7.33,0,0,1,1.55-3.94,4.33,4.33,0,0,1,3.5-1.45,4.83,4.83,0,0,1,1.81.32,3.85,3.85,0,0,1,1.4,1l-2.38,2.81a1.67,1.67,0,0,0-.73-.51,2.68,2.68,0,0,0-1-.17,2.52,2.52,0,0,0-1.86.72A3.07,3.07,0,0,0,1161.84,317.93Z" transform="translate(-2.39 11)"/><path class="cls-11" d="M1176.09,325.82a7.45,7.45,0,0,1-3.74-.95,7.14,7.14,0,0,1-2.66-2.6,7,7,0,0,1-1-3.63,6.9,6.9,0,0,1,1-3.65,7.24,7.24,0,0,1,2.66-2.55,7.35,7.35,0,0,1,3.74-.95,7.54,7.54,0,0,1,3.76.93,7.13,7.13,0,0,1,2.64,2.56,6.87,6.87,0,0,1,1,3.66,7.06,7.06,0,0,1-3.6,6.23A7.58,7.58,0,0,1,1176.09,325.82Zm0-3.58a3.54,3.54,0,0,0,1.82-.46,3.19,3.19,0,0,0,1.22-1.28,4.05,4.05,0,0,0,.43-1.89,3.77,3.77,0,0,0-.46-1.86,3.26,3.26,0,0,0-1.22-1.25,3.57,3.57,0,0,0-1.79-.44,3.44,3.44,0,0,0-1.8.46,3.16,3.16,0,0,0-1.21,1.25,4.31,4.31,0,0,0,0,3.71,3.3,3.3,0,0,0,1.21,1.3A3.44,3.44,0,0,0,1176.09,322.24Z" transform="translate(-2.39 11)"/><path class="cls-18" d="M1393.51,47.81a12.42,12.42,0,0,1-12.4,12.4v6.4h0a18.8,18.8,0,0,0,0-37.59h0v6.39A12.42,12.42,0,0,1,1393.51,47.81Z" transform="translate(-2.39 11)"/><path class="cls-18" d="M1368.51,7.79a12.41,12.41,0,0,0,12.4,12.4v6.39h0a18.79,18.79,0,0,1,0-37.58h0v6.39A12.41,12.41,0,0,0,1368.51,7.79Z" transform="translate(-2.39 11)"/><path class="cls-18" d="M1393.61,128.26a12.42,12.42,0,0,1-12.4,12.4v6.39h0a18.79,18.79,0,0,0,0-37.58h0v6.39A12.42,12.42,0,0,1,1393.61,128.26Z" transform="translate(-2.39 11)"/><path class="cls-18" d="M1368.61,88.24a12.41,12.41,0,0,0,12.4,12.4V107h0a18.79,18.79,0,1,1,0-37.58h0v6.39A12.41,12.41,0,0,0,1368.61,88.24Z" transform="translate(-2.39 11)"/><path class="cls-18" d="M1393.66,209a12.42,12.42,0,0,1-12.4,12.4v6.39h0a18.79,18.79,0,0,0,0-37.58h0v6.39A12.42,12.42,0,0,1,1393.66,209Z" transform="translate(-2.39 11)"/><path class="cls-18" d="M1368.66,169a12.41,12.41,0,0,0,12.4,12.4v6.39h0a18.79,18.79,0,1,1,0-37.58h0v6.39A12.42,12.42,0,0,0,1368.66,169Z" transform="translate(-2.39 11)"/><path class="cls-18" d="M1393.76,289.47a12.42,12.42,0,0,1-12.4,12.4v6.39h0a18.8,18.8,0,0,0,0-37.59h0v6.4A12.42,12.42,0,0,1,1393.76,289.47Z" transform="translate(-2.39 11)"/><path class="cls-18" d="M1368.76,249.44a12.41,12.41,0,0,0,12.4,12.4v6.39h0a18.79,18.79,0,0,1,0-37.58h0V237A12.41,12.41,0,0,0,1368.76,249.44Z" transform="translate(-2.39 11)"/><path class="cls-18" d="M1393.73,371.11a12.41,12.41,0,0,1-12.4,12.4v6.39h0a18.79,18.79,0,0,0,0-37.58h0v6.39A12.41,12.41,0,0,1,1393.73,371.11Z" transform="translate(-2.39 11)"/><path class="cls-18" d="M1368.73,331.08a12.41,12.41,0,0,0,12.4,12.4v6.4h0a18.8,18.8,0,0,1,0-37.59h0v6.4A12.41,12.41,0,0,0,1368.73,331.08Z" transform="translate(-2.39 11)"/><path class="cls-18" d="M1393.83,451.56a12.41,12.41,0,0,1-12.4,12.4v6.39h0a18.79,18.79,0,0,0,0-37.58h0v6.39A12.41,12.41,0,0,1,1393.83,451.56Z" transform="translate(-2.39 11)"/><path class="cls-18" d="M1368.83,411.53a12.41,12.41,0,0,0,12.4,12.4v6.4h0a18.8,18.8,0,0,1,0-37.59h0v6.39A12.42,12.42,0,0,0,1368.83,411.53Z" transform="translate(-2.39 11)"/><path class="cls-18" d="M1393.88,532.31a12.41,12.41,0,0,1-12.4,12.4v6.39h0a18.79,18.79,0,0,0,0-37.58h0v6.39A12.41,12.41,0,0,1,1393.88,532.31Z" transform="translate(-2.39 11)"/><path class="cls-18" d="M1368.88,492.29a12.42,12.42,0,0,0,12.4,12.4v6.39h0a18.79,18.79,0,1,1,0-37.58h0v6.39A12.41,12.41,0,0,0,1368.88,492.29Z" transform="translate(-2.39 11)"/><path class="cls-18" d="M1394,612.76a12.41,12.41,0,0,1-12.4,12.4v6.39h0a18.79,18.79,0,0,0,0-37.58h0v6.39A12.41,12.41,0,0,1,1394,612.76Z" transform="translate(-2.39 11)"/><path class="cls-18" d="M1369,572.74a12.42,12.42,0,0,0,12.4,12.4v6.39h0a18.8,18.8,0,0,1,0-37.59h0v6.4A12.41,12.41,0,0,0,1369,572.74Z" transform="translate(-2.39 11)"/><path class="cls-18" d="M1345.57,49.83a12.41,12.41,0,0,1-12.4,12.4v6.39h0a18.79,18.79,0,0,0,0-37.58h0v6.39A12.41,12.41,0,0,1,1345.57,49.83Z" transform="translate(-2.39 11)"/><path class="cls-18" d="M1320.57,9.81a12.42,12.42,0,0,0,12.4,12.4V28.6h0A18.79,18.79,0,1,1,1333-9h0v6.39A12.41,12.41,0,0,0,1320.57,9.81Z" transform="translate(-2.39 11)"/><path class="cls-18" d="M1345.67,130.28a12.41,12.41,0,0,1-12.4,12.4v6.39h0a18.79,18.79,0,0,0,0-37.58h0v6.39A12.41,12.41,0,0,1,1345.67,130.28Z" transform="translate(-2.39 11)"/><path class="cls-18" d="M1320.67,90.26a12.42,12.42,0,0,0,12.4,12.4v6.39h0a18.8,18.8,0,0,1,0-37.59h0v6.4A12.41,12.41,0,0,0,1320.67,90.26Z" transform="translate(-2.39 11)"/><path class="cls-18" d="M1345.72,211a12.41,12.41,0,0,1-12.4,12.4v6.4h0a18.8,18.8,0,0,0,0-37.59h0v6.39A12.42,12.42,0,0,1,1345.72,211Z" transform="translate(-2.39 11)"/><path class="cls-18" d="M1320.72,171a12.41,12.41,0,0,0,12.4,12.4v6.39h0a18.79,18.79,0,1,1,0-37.58h0v6.39A12.41,12.41,0,0,0,1320.72,171Z" transform="translate(-2.39 11)"/><path class="cls-18" d="M1345.82,291.48a12.41,12.41,0,0,1-12.4,12.4v6.4h0a18.8,18.8,0,0,0,0-37.59h0v6.39A12.42,12.42,0,0,1,1345.82,291.48Z" transform="translate(-2.39 11)"/><path class="cls-18" d="M1320.82,251.46a12.41,12.41,0,0,0,12.4,12.4v6.39h0a18.79,18.79,0,1,1,0-37.58h0v6.39A12.41,12.41,0,0,0,1320.82,251.46Z" transform="translate(-2.39 11)"/><path class="cls-18" d="M1345.79,373.13a12.42,12.42,0,0,1-12.4,12.4v6.39h0a18.79,18.79,0,0,0,0-37.58h0v6.39A12.41,12.41,0,0,1,1345.79,373.13Z" transform="translate(-2.39 11)"/><path class="cls-18" d="M1320.79,333.1a12.42,12.42,0,0,0,12.4,12.4v6.39h0a18.79,18.79,0,1,1,0-37.58h0v6.39A12.42,12.42,0,0,0,1320.79,333.1Z" transform="translate(-2.39 11)"/><path class="cls-18" d="M1345.89,453.58a12.42,12.42,0,0,1-12.4,12.4v6.39h0a18.8,18.8,0,0,0,0-37.59h0v6.4A12.41,12.41,0,0,1,1345.89,453.58Z" transform="translate(-2.39 11)"/><path class="cls-18" d="M1320.89,413.55a12.42,12.42,0,0,0,12.4,12.4v6.39h0a18.79,18.79,0,1,1,0-37.58h0v6.39A12.42,12.42,0,0,0,1320.89,413.55Z" transform="translate(-2.39 11)"/><path class="cls-18" d="M1345.94,534.33a12.41,12.41,0,0,1-12.4,12.4v6.39h0a18.79,18.79,0,0,0,0-37.58h0v6.39A12.41,12.41,0,0,1,1345.94,534.33Z" transform="translate(-2.39 11)"/><path class="cls-18" d="M1320.94,494.3a12.42,12.42,0,0,0,12.4,12.4v6.4h0a18.8,18.8,0,0,1,0-37.59h0v6.4A12.41,12.41,0,0,0,1320.94,494.3Z" transform="translate(-2.39 11)"/><path class="cls-18" d="M1346,614.78a12.41,12.41,0,0,1-12.4,12.4v6.39h0a18.79,18.79,0,0,0,0-37.58h0v6.39A12.41,12.41,0,0,1,1346,614.78Z" transform="translate(-2.39 11)"/><path class="cls-18" d="M1321,574.75a12.42,12.42,0,0,0,12.4,12.4v6.4h0a18.8,18.8,0,0,1,0-37.59h0v6.39A12.42,12.42,0,0,0,1321,574.75Z" transform="translate(-2.39 11)"/><path class="cls-18" d="M1297.63,47.81a12.41,12.41,0,0,1-12.4,12.4v6.4h0a18.8,18.8,0,0,0,0-37.59h0v6.39A12.42,12.42,0,0,1,1297.63,47.81Z" transform="translate(-2.39 11)"/><path class="cls-18" d="M1272.64,7.79a12.41,12.41,0,0,0,12.4,12.4v6.39h0A18.79,18.79,0,1,1,1285-11h0v6.39A12.41,12.41,0,0,0,1272.64,7.79Z" transform="translate(-2.39 11)"/><path class="cls-18" d="M1297.73,128.26a12.41,12.41,0,0,1-12.4,12.4v6.39h0a18.79,18.79,0,1,0,0-37.58h0v6.39A12.42,12.42,0,0,1,1297.73,128.26Z" transform="translate(-2.39 11)"/><path class="cls-18" d="M1272.74,88.24a12.41,12.41,0,0,0,12.39,12.4V107h0a18.79,18.79,0,0,1,0-37.58h0v6.39A12.41,12.41,0,0,0,1272.74,88.24Z" transform="translate(-2.39 11)"/><path class="cls-18" d="M1297.78,209a12.42,12.42,0,0,1-12.4,12.4v6.39h0a18.8,18.8,0,0,0,0-37.59h0v6.4A12.41,12.41,0,0,1,1297.78,209Z" transform="translate(-2.39 11)"/><path class="cls-18" d="M1272.79,169a12.41,12.41,0,0,0,12.39,12.4v6.39h0a18.79,18.79,0,1,1,0-37.58h0v6.39A12.41,12.41,0,0,0,1272.79,169Z" transform="translate(-2.39 11)"/><path class="cls-18" d="M1297.88,289.47a12.42,12.42,0,0,1-12.4,12.4v6.39h0a18.8,18.8,0,0,0,0-37.59h0v6.4A12.41,12.41,0,0,1,1297.88,289.47Z" transform="translate(-2.39 11)"/><path class="cls-18" d="M1297.86,371.11a12.41,12.41,0,0,1-12.4,12.4v6.39h0a18.79,18.79,0,0,0,0-37.58h0v6.39A12.41,12.41,0,0,1,1297.86,371.11Z" transform="translate(-2.39 11)"/><path class="cls-18" d="M1272.86,331.08a12.41,12.41,0,0,0,12.4,12.4v6.4h0a18.8,18.8,0,0,1,0-37.59h0v6.4A12.41,12.41,0,0,0,1272.86,331.08Z" transform="translate(-2.39 11)"/><path class="cls-18" d="M1298,451.56a12.41,12.41,0,0,1-12.4,12.4v6.39h0a18.79,18.79,0,0,0,0-37.58h0v6.39A12.41,12.41,0,0,1,1298,451.56Z" transform="translate(-2.39 11)"/><path class="cls-18" d="M1273,411.53a12.41,12.41,0,0,0,12.4,12.4v6.4h0a18.8,18.8,0,0,1,0-37.59h0v6.39A12.42,12.42,0,0,0,1273,411.53Z" transform="translate(-2.39 11)"/><path class="cls-18" d="M1298,532.31a12.41,12.41,0,0,1-12.4,12.4v6.39h0a18.79,18.79,0,1,0,0-37.58h0v6.39A12.41,12.41,0,0,1,1298,532.31Z" transform="translate(-2.39 11)"/><path class="cls-18" d="M1273,492.29a12.42,12.42,0,0,0,12.4,12.4v6.39h0a18.79,18.79,0,0,1,0-37.58h0v6.39A12.41,12.41,0,0,0,1273,492.29Z" transform="translate(-2.39 11)"/><path class="cls-18" d="M1298.11,612.76a12.41,12.41,0,0,1-12.4,12.4v6.39h0a18.79,18.79,0,0,0,0-37.58h0v6.39A12.41,12.41,0,0,1,1298.11,612.76Z" transform="translate(-2.39 11)"/><path class="cls-18" d="M1273.11,572.74a12.42,12.42,0,0,0,12.4,12.4v6.39h0a18.8,18.8,0,0,1,0-37.59h0v6.4A12.41,12.41,0,0,0,1273.11,572.74Z" transform="translate(-2.39 11)"/></g></g></g></g></svg>