<svg xmlns="http://www.w3.org/2000/svg" viewBox="0 0 1109.22 221.04"><defs><style>.cls-1{fill:#affc41;}</style></defs><g id="Capa_2" data-name="Capa 2"><g id="Capa_1-2" data-name="Capa 1"><path class="cls-1" d="M101.21,11.82a21.36,21.36,0,0,1,21.34,21.33h11a32.34,32.34,0,0,0-64.67,0h11A21.36,21.36,0,0,1,101.21,11.82Z"/><path class="cls-1" d="M32.34,54.83A21.36,21.36,0,0,0,53.68,33.5h11A32.34,32.34,0,0,1,0,33.5H11A21.36,21.36,0,0,0,32.34,54.83Z"/><path class="cls-1" d="M239.66,11.64A21.36,21.36,0,0,1,261,33h11a32.34,32.34,0,1,0-64.67,0h11A21.37,21.37,0,0,1,239.66,11.64Z"/><path class="cls-1" d="M170.78,54.66a21.37,21.37,0,0,0,21.34-21.34h11a32.34,32.34,0,0,1-64.68,0h11A21.36,21.36,0,0,0,170.78,54.66Z"/><path class="cls-1" d="M378.62,11.56A21.36,21.36,0,0,1,400,32.9h11a32.34,32.34,0,0,0-64.68,0h11A21.36,21.36,0,0,1,378.62,11.56Z"/><path class="cls-1" d="M309.74,54.58a21.37,21.37,0,0,0,21.34-21.34h11a32.34,32.34,0,1,1-64.67,0h11A21.36,21.36,0,0,0,309.74,54.58Z"/><path class="cls-1" d="M517.06,11.39A21.36,21.36,0,0,1,538.4,32.72h11a32.34,32.34,0,0,0-64.68,0h11A21.36,21.36,0,0,1,517.06,11.39Z"/><path class="cls-1" d="M448.19,54.4a21.36,21.36,0,0,0,21.33-21.33h11a32.34,32.34,0,0,1-64.67,0h11A21.36,21.36,0,0,0,448.19,54.4Z"/><path class="cls-1" d="M657.56,11.43A21.37,21.37,0,0,1,678.9,32.77h11a32.34,32.34,0,0,0-64.68,0h11A21.36,21.36,0,0,1,657.56,11.43Z"/><path class="cls-1" d="M588.68,54.45A21.36,21.36,0,0,0,610,33.11h11a32.34,32.34,0,0,1-64.68,0h11A21.37,21.37,0,0,0,588.68,54.45Z"/><path class="cls-1" d="M796,11.26a21.36,21.36,0,0,1,21.34,21.33h11a32.34,32.34,0,0,0-64.68,0h11A21.36,21.36,0,0,1,796,11.26Z"/><path class="cls-1" d="M727.12,54.28a21.37,21.37,0,0,0,21.34-21.34h11a32.34,32.34,0,1,1-64.67,0h11A21.36,21.36,0,0,0,727.12,54.28Z"/><path class="cls-1" d="M935,11.17A21.36,21.36,0,0,1,956.3,32.51h11a32.34,32.34,0,1,0-64.67,0h11A21.36,21.36,0,0,1,935,11.17Z"/><path class="cls-1" d="M866.09,54.19a21.37,21.37,0,0,0,21.34-21.34h11a32.34,32.34,0,0,1-64.68,0h11A21.36,21.36,0,0,0,866.09,54.19Z"/><path class="cls-1" d="M1073.41,11a21.36,21.36,0,0,1,21.33,21.34h11a32.34,32.34,0,0,0-64.67,0h11A21.36,21.36,0,0,1,1073.41,11Z"/><path class="cls-1" d="M1004.53,54a21.37,21.37,0,0,0,21.34-21.34h11a32.34,32.34,0,1,1-64.68,0h11A21.36,21.36,0,0,0,1004.53,54Z"/><path class="cls-1" d="M104.69,84.53A21.36,21.36,0,0,1,126,105.87h11a32.34,32.34,0,1,0-64.67,0h11A21.37,21.37,0,0,1,104.69,84.53Z"/><path class="cls-1" d="M35.81,127.55a21.36,21.36,0,0,0,21.34-21.34h11a32.34,32.34,0,0,1-64.68,0h11A21.36,21.36,0,0,0,35.81,127.55Z"/><path class="cls-1" d="M243.13,84.36a21.37,21.37,0,0,1,21.34,21.34h11a32.34,32.34,0,0,0-64.68,0h11A21.36,21.36,0,0,1,243.13,84.36Z"/><path class="cls-1" d="M174.25,127.38A21.36,21.36,0,0,0,195.59,106h11a32.34,32.34,0,0,1-64.68,0h11A21.37,21.37,0,0,0,174.25,127.38Z"/><path class="cls-1" d="M382.09,84.28a21.36,21.36,0,0,1,21.34,21.33h11a32.34,32.34,0,0,0-64.68,0h11A21.36,21.36,0,0,1,382.09,84.28Z"/><path class="cls-1" d="M313.22,127.29A21.36,21.36,0,0,0,334.55,106h11a32.34,32.34,0,0,1-64.67,0h11A21.36,21.36,0,0,0,313.22,127.29Z"/><path class="cls-1" d="M520.53,84.1a21.37,21.37,0,0,1,21.34,21.34h11a32.34,32.34,0,1,0-64.67,0h11A21.36,21.36,0,0,1,520.53,84.1Z"/><path class="cls-1" d="M451.66,127.12A21.36,21.36,0,0,0,473,105.79h11a32.34,32.34,0,0,1-64.68,0h11A21.36,21.36,0,0,0,451.66,127.12Z"/><path class="cls-1" d="M661,84.15a21.36,21.36,0,0,1,21.34,21.34h11a32.34,32.34,0,0,0-64.68,0h11A21.36,21.36,0,0,1,661,84.15Z"/><path class="cls-1" d="M592.15,127.17a21.37,21.37,0,0,0,21.34-21.34h11a32.34,32.34,0,1,1-64.67,0h11A21.36,21.36,0,0,0,592.15,127.17Z"/><path class="cls-1" d="M799.47,84a21.36,21.36,0,0,1,21.34,21.33h11a32.34,32.34,0,0,0-64.68,0h11A21.36,21.36,0,0,1,799.47,84Z"/><path class="cls-1" d="M730.6,127a21.36,21.36,0,0,0,21.33-21.33h11a32.34,32.34,0,0,1-64.67,0h11A21.36,21.36,0,0,0,730.6,127Z"/><path class="cls-1" d="M938.44,83.89a21.36,21.36,0,0,1,21.33,21.34h11a32.34,32.34,0,0,0-64.67,0h11A21.36,21.36,0,0,1,938.44,83.89Z"/><path class="cls-1" d="M869.56,126.91a21.36,21.36,0,0,0,21.34-21.34h11a32.34,32.34,0,0,1-64.68,0h11A21.36,21.36,0,0,0,869.56,126.91Z"/><path class="cls-1" d="M1076.88,83.72a21.37,21.37,0,0,1,21.34,21.34h11a32.34,32.34,0,0,0-64.68,0h11A21.36,21.36,0,0,1,1076.88,83.72Z"/><path class="cls-1" d="M1008,126.74a21.37,21.37,0,0,0,21.34-21.34h11a32.34,32.34,0,1,1-64.68,0h11A21.37,21.37,0,0,0,1008,126.74Z"/><path class="cls-1" d="M101.21,167a21.36,21.36,0,0,1,21.34,21.34h11a32.34,32.34,0,1,0-64.67,0h11A21.36,21.36,0,0,1,101.21,167Z"/><path class="cls-1" d="M32.34,210A21.37,21.37,0,0,0,53.68,188.7h11a32.34,32.34,0,0,1-64.68,0H11A21.36,21.36,0,0,0,32.34,210Z"/><path class="cls-1" d="M239.66,166.85A21.36,21.36,0,0,1,261,188.19h11a32.34,32.34,0,1,0-64.67,0h11A21.36,21.36,0,0,1,239.66,166.85Z"/><path class="cls-1" d="M170.78,209.87a21.37,21.37,0,0,0,21.34-21.34h11a32.34,32.34,0,0,1-64.68,0h11A21.36,21.36,0,0,0,170.78,209.87Z"/><path class="cls-1" d="M378.62,166.76A21.37,21.37,0,0,1,400,188.1h11a32.34,32.34,0,1,0-64.68,0h11A21.37,21.37,0,0,1,378.62,166.76Z"/><path class="cls-1" d="M309.74,209.78a21.36,21.36,0,0,0,21.34-21.33h11a32.34,32.34,0,0,1-64.67,0h11A21.36,21.36,0,0,0,309.74,209.78Z"/><path class="cls-1" d="M517.06,166.59a21.36,21.36,0,0,1,21.34,21.34h11a32.34,32.34,0,0,0-64.68,0h11A21.37,21.37,0,0,1,517.06,166.59Z"/><path class="cls-1" d="M448.19,209.61a21.36,21.36,0,0,0,21.33-21.34h11a32.34,32.34,0,0,1-64.67,0h11A21.36,21.36,0,0,0,448.19,209.61Z"/><path class="cls-1" d="M657.56,166.64A21.36,21.36,0,0,1,678.9,188h11a32.34,32.34,0,0,0-64.68,0h11A21.36,21.36,0,0,1,657.56,166.64Z"/><path class="cls-1" d="M588.68,209.65A21.36,21.36,0,0,0,610,188.32h11a32.34,32.34,0,0,1-64.68,0h11A21.36,21.36,0,0,0,588.68,209.65Z"/><path class="cls-1" d="M796,166.46a21.37,21.37,0,0,1,21.34,21.34h11a32.34,32.34,0,0,0-64.68,0h11A21.37,21.37,0,0,1,796,166.46Z"/><path class="cls-1" d="M727.12,209.48a21.36,21.36,0,0,0,21.34-21.34h11a32.34,32.34,0,0,1-64.67,0h11A21.36,21.36,0,0,0,727.12,209.48Z"/><path class="cls-1" d="M935,166.38a21.36,21.36,0,0,1,21.34,21.34h11a32.34,32.34,0,0,0-64.67,0h11A21.36,21.36,0,0,1,935,166.38Z"/><path class="cls-1" d="M866.09,209.4a21.37,21.37,0,0,0,21.34-21.34h11a32.34,32.34,0,1,1-64.68,0h11A21.37,21.37,0,0,0,866.09,209.4Z"/><path class="cls-1" d="M1073.41,166.21a21.36,21.36,0,0,1,21.33,21.33h11a32.34,32.34,0,0,0-64.67,0h11A21.36,21.36,0,0,1,1073.41,166.21Z"/><path class="cls-1" d="M1004.53,209.22a21.36,21.36,0,0,0,21.34-21.33h11a32.34,32.34,0,0,1-64.68,0h11A21.36,21.36,0,0,0,1004.53,209.22Z"/></g></g></svg>