<svg xmlns="http://www.w3.org/2000/svg" viewBox="0 0 92.88 51.98"><defs><style>.cls-1{fill:#B2FF9E;}</style></defs><g id="Capa_2" data-name="Capa 2"><g id="Capa_1-2" data-name="Capa 1"><path class="cls-1" d="M0,51.26,19.51,0H34.2L53.5,51.26h-15L24.19,7.7h5.19L14.69,51.26Zm12.67-8.64V31.39H41.33V42.62Z"/><path class="cls-1" d="M70.49,52a16.34,16.34,0,0,1-8.79-2.37,16.57,16.57,0,0,1-6-6.52,20.33,20.33,0,0,1-2.16-9.54A20.51,20.51,0,0,1,55.73,24a16.17,16.17,0,0,1,6-6.52,16.5,16.5,0,0,1,8.79-2.34,15.47,15.47,0,0,1,5.72,1,12,12,0,0,1,4.39,2.92,8.72,8.72,0,0,1,2.27,4.32V43.7A8.63,8.63,0,0,1,80.6,48a12,12,0,0,1-4.39,2.92A15.47,15.47,0,0,1,70.49,52ZM73.66,39.6a5.65,5.65,0,0,0,4.28-1.69,6,6,0,0,0,1.62-4.36,6.49,6.49,0,0,0-.72-3.13,5.36,5.36,0,0,0-2-2.12,6,6,0,0,0-8.25,2.16,6.12,6.12,0,0,0-.79,3.09,6.25,6.25,0,0,0,.76,3.1,5.57,5.57,0,0,0,2.12,2.16A5.91,5.91,0,0,0,73.66,39.6Zm5.47,11.66v-9.5l1.94-8.64-1.94-8.57V15.84H92.88V51.26Z"/></g></g></svg>