<svg xmlns="http://www.w3.org/2000/svg" xmlns:xlink="http://www.w3.org/1999/xlink" viewBox="0 0 2781.58 913.82"><defs><style>.cls-1{fill:none;}.cls-2{clip-path:url(#clip-path);}.cls-3{clip-path:url(#clip-path-2);}.cls-4{clip-path:url(#clip-path-3);}</style><clipPath id="clip-path" transform="translate(241.02 10.49)"><rect class="cls-1" width="707.95" height="707.95"/></clipPath><clipPath id="clip-path-2" transform="translate(241.02 10.49)"><rect class="cls-1" x="881.58" y="0.52" width="707.95" height="707.95"/></clipPath><clipPath id="clip-path-3" transform="translate(241.02 10.49)"><rect class="cls-1" x="1763.16" y="3.39" width="707.95" height="707.95"/></clipPath></defs><g id="Capa_2" data-name="Capa 2"><g id="Capa_1-2" data-name="Capa 1"><g class="cls-2"><image width="1920" height="1152" transform="translate(0 1.02) scale(0.63)" xlink:href="../../Desktop/ESDM/3%C2%BA/2%C2%BA%20Semestre/Proyectos%20Interdisciplinares%20(LAB)/O0_Images/Suvi%20Suitala/9598f0132680701.61ae43e046751.jpg"/></g><g class="cls-3"><image width="404" height="316" transform="translate(992.09 0.67) scale(2.32)" xlink:href="../../Desktop/ESDM/3%C2%BA/2%C2%BA%20Semestre/Proyectos%20Interdisciplinares%20(LAB)/O0_Images/Suvi%20Suitala/215ff076036631.Y3JvcCwxOTk5LDE1NjQsMCwyNjc.jpg"/></g><g class="cls-4"><image width="1000" height="1123" transform="translate(1967.84) scale(0.81)" xlink:href="../../Desktop/ESDM/3%C2%BA/2%C2%BA%20Semestre/Proyectos%20Interdisciplinares%20(LAB)/O0_Images/Suvi%20Suitala/tumblr_p61igk0RxB1tfg381o1_1280.jpg"/></g><path d="M0,815.41v-40.7H9.05v40.7Zm7,0v-7.95H27.1v7.95Zm34.5,0H32.89V783.94h8.59Zm6.8-44.16v.58c-.53.54-1.24,1.19-2.13,2s-1.84,1.58-2.88,2.42-2,1.66-3,2.42-1.81,1.35-2.54,1.85H32v-.75l2.13-2.54c.85-1,1.65-2,2.42-3.05s1.5-2,2.08-2.89Zm19.3,44.16v-16a4.64,4.64,0,0,0-1.38-3.52,4.54,4.54,0,0,0-3.41-1.39,5,5,0,0,0-2.53.64,4.12,4.12,0,0,0-1.73,1.73,5,5,0,0,0-.64,2.54l-3.4-1.68A11.25,11.25,0,0,1,55.93,792a9.8,9.8,0,0,1,4-3.81,12.2,12.2,0,0,1,5.82-1.38,10,10,0,0,1,5.48,1.5,10.52,10.52,0,0,1,5.19,9.17v17.92Zm-18.51,0v-28h8.82v28Zm46.83.64a17.45,17.45,0,0,1-8.13-1.85,14.19,14.19,0,0,1-7.55-12.79,14.19,14.19,0,0,1,7.38-12.75,15.52,15.52,0,0,1,7.67-1.9,14.7,14.7,0,0,1,7.32,1.79,12.85,12.85,0,0,1,5,5,14.15,14.15,0,0,1,1.84,7.26,13.63,13.63,0,0,1-.11,1.62,15.58,15.58,0,0,1-.29,1.9l-24.16.06v-6.06l20.41-.06-3.81,2.54a10.38,10.38,0,0,0-.74-4,5.07,5.07,0,0,0-2.08-2.42,5.94,5.94,0,0,0-3.29-.86,6.62,6.62,0,0,0-3.63,1,6.29,6.29,0,0,0-2.36,2.65,9.88,9.88,0,0,0-.81,4.21,9.64,9.64,0,0,0,.87,4.26,6.82,6.82,0,0,0,2.53,2.71,8,8,0,0,0,3.92.93,9.53,9.53,0,0,0,3.75-.7,8.64,8.64,0,0,0,2.94-2.19l4.84,4.85a13.1,13.1,0,0,1-5,3.63A17,17,0,0,1,95.9,816.05Zm29.45-.06a12.83,12.83,0,0,1-6.92-1.9,13.84,13.84,0,0,1-4.78-5.19,17.1,17.1,0,0,1,0-15,13.84,13.84,0,0,1,4.78-5.19,12.83,12.83,0,0,1,6.92-1.9,11.44,11.44,0,0,1,5.07,1.1,9.7,9.7,0,0,1,3.75,3.05,8.08,8.08,0,0,1,1.62,4.38v12.11a8.39,8.39,0,0,1-1.62,4.44,9.45,9.45,0,0,1-3.69,3A11.82,11.82,0,0,1,125.35,816Zm1.79-8a6,6,0,0,0,4.55-1.85,6.81,6.81,0,0,0,1.73-4.78,7.16,7.16,0,0,0-.81-3.46,5.32,5.32,0,0,0-2.19-2.31,5.9,5.9,0,0,0-3.22-.86,6.18,6.18,0,0,0-5.54,3.17,7.16,7.16,0,0,0-.81,3.46,7.06,7.06,0,0,0,.81,3.4,6.12,6.12,0,0,0,5.48,3.23Zm5.94,7.37v-7.55l1.32-6.8-1.32-6.8V787.4h8.64v28Z" transform="translate(241.02 10.49)"/><path d="M877.41,814.26v-40.7h6.46l16,25h-3.28l16-25h6.52v40.7H910V788.84l1.61.4L901.22,805.5h-6l-10.37-16.26,1.55-.4v25.42Zm60.38.58a12.91,12.91,0,0,1-6.92-1.9,13.84,13.84,0,0,1-4.78-5.19,17.1,17.1,0,0,1,0-15,13.84,13.84,0,0,1,4.78-5.19,12.83,12.83,0,0,1,6.92-1.9,11.43,11.43,0,0,1,5.07,1.09,9.72,9.72,0,0,1,3.75,3.06,8.08,8.08,0,0,1,1.62,4.38v12.11a8.33,8.33,0,0,1-1.62,4.43,9.45,9.45,0,0,1-3.69,3A11.83,11.83,0,0,1,937.79,814.84Zm1.79-8a5.94,5.94,0,0,0,4.55-1.84,6.83,6.83,0,0,0,1.73-4.79,7.19,7.19,0,0,0-.81-3.46,5.29,5.29,0,0,0-2.19-2.3,5.9,5.9,0,0,0-3.22-.87,6.23,6.23,0,0,0-5.54,3.17,7.19,7.19,0,0,0-.81,3.46,7,7,0,0,0,.81,3.4,6.11,6.11,0,0,0,2.25,2.37A6.22,6.22,0,0,0,939.58,806.88Zm5.94,7.38v-7.55l1.32-6.8-1.32-6.81v-6.86h8.64v28Zm33.36,0v-16a4.63,4.63,0,0,0-1.38-3.51,4.5,4.5,0,0,0-3.41-1.39,4.88,4.88,0,0,0-2.53.64,4.12,4.12,0,0,0-1.73,1.73,5,5,0,0,0-.64,2.53l-3.4-1.67a11.25,11.25,0,0,1,1.44-5.76,9.67,9.67,0,0,1,4-3.81,12.2,12.2,0,0,1,5.82-1.38,10,10,0,0,1,5.48,1.5,10.52,10.52,0,0,1,5.19,9.16v17.93Zm-18.51,0v-28h8.82v28Zm46.54.64a16.22,16.22,0,0,1-7.84-1.91,14.18,14.18,0,0,1-7.55-12.74,14,14,0,0,1,2-7.49,14.7,14.7,0,0,1,5.59-5.25,16.31,16.31,0,0,1,7.9-1.9,15.09,15.09,0,0,1,6,1.15,13.53,13.53,0,0,1,4.9,3.35l-5.65,5.65a6,6,0,0,0-2.3-1.62,7.87,7.87,0,0,0-2.94-.52,6.64,6.64,0,0,0-3.4.87,6.07,6.07,0,0,0-2.31,2.3,6.84,6.84,0,0,0-.81,3.4,7.16,7.16,0,0,0,.81,3.46,6.39,6.39,0,0,0,2.36,2.37,6.66,6.66,0,0,0,3.35.86,7.65,7.65,0,0,0,3.05-.57,7.22,7.22,0,0,0,2.37-1.73l5.59,5.65a15.14,15.14,0,0,1-5,3.51A15.85,15.85,0,0,1,1006.91,814.9Zm33.56-.64v-16a4.63,4.63,0,0,0-1.38-3.51,4.5,4.5,0,0,0-3.41-1.39,4.88,4.88,0,0,0-2.53.64,4.12,4.12,0,0,0-1.73,1.73,5,5,0,0,0-.64,2.53l-3.4-1.67a11.53,11.53,0,0,1,1.39-5.76,9.38,9.38,0,0,1,3.86-3.81,12.61,12.61,0,0,1,11.47,0,9.18,9.18,0,0,1,3.81,3.75,10.76,10.76,0,0,1,1.38,5.53v17.93Zm-18.51,0V772.41h8.82v41.85Zm44.7.58a12.89,12.89,0,0,1-6.92-1.9,13.84,13.84,0,0,1-4.78-5.19,17.1,17.1,0,0,1,0-15,13.84,13.84,0,0,1,4.78-5.19,12.8,12.8,0,0,1,6.92-1.9,11.43,11.43,0,0,1,5.07,1.09,9.72,9.72,0,0,1,3.75,3.06,8,8,0,0,1,1.61,4.38v12.11a8.24,8.24,0,0,1-1.61,4.43,9.45,9.45,0,0,1-3.69,3A11.83,11.83,0,0,1,1066.66,814.84Zm1.79-8A5.94,5.94,0,0,0,1073,805a6.88,6.88,0,0,0,1.73-4.79,7.19,7.19,0,0,0-.81-3.46,5.29,5.29,0,0,0-2.19-2.3,5.94,5.94,0,0,0-3.23-.87,6.21,6.21,0,0,0-3.28.87,6.07,6.07,0,0,0-2.25,2.3,7.19,7.19,0,0,0-.81,3.46,7,7,0,0,0,.81,3.4,6.11,6.11,0,0,0,2.25,2.37A6.19,6.19,0,0,0,1068.45,806.88Zm5.93,7.38v-7.55l1.33-6.8-1.33-6.81v-6.86H1083v28Z" transform="translate(241.02 10.49)"/><path d="M1760.13,814.23l16.14-40.7h8.19l16,40.7h-9.57l-12.23-33.78h3.29l-12.39,33.78Zm9.16-7.38v-7.38h22.2v7.38Zm35.09,7.38v-28h8.82v28Zm17.92,0V797.86a4.14,4.14,0,0,0-1.32-3.29,4.44,4.44,0,0,0-3.17-1.21,4.86,4.86,0,0,0-2.37.58,4.31,4.31,0,0,0-1.67,1.5,4.74,4.74,0,0,0-.57,2.42l-3.41-1.5a10.7,10.7,0,0,1,1.45-5.71,9.54,9.54,0,0,1,3.92-3.69,11.68,11.68,0,0,1,5.59-1.32A10.33,10.33,0,0,1,1826,787a9.91,9.91,0,0,1,3.75,3.69,11,11,0,0,1,1.38,5.65v17.93Zm17.93,0V797.86a4.14,4.14,0,0,0-1.32-3.29,4.44,4.44,0,0,0-3.17-1.21,4.86,4.86,0,0,0-2.37.58,4.24,4.24,0,0,0-1.67,1.5,4.74,4.74,0,0,0-.58,2.42l-5.07-.69a12.35,12.35,0,0,1,1.67-6.11,11,11,0,0,1,4.21-4,12.25,12.25,0,0,1,5.94-1.44,11.57,11.57,0,0,1,5.71,1.38,9.73,9.73,0,0,1,4,3.86,11.51,11.51,0,0,1,1.49,6v17.35Zm30.62.58a11.82,11.82,0,0,1-5.19-1.15,11.27,11.27,0,0,1-3.86-3.17,8.77,8.77,0,0,1-1.73-4.5V794.17a8.12,8.12,0,0,1,1.73-4.38,10.08,10.08,0,0,1,3.86-3.06,12.22,12.22,0,0,1,5.19-1.09,13.09,13.09,0,0,1,11.87,7.09,16.59,16.59,0,0,1,0,15,13.09,13.09,0,0,1-11.87,7.09Zm-1.56-8a6,6,0,0,0,3.23-.86,6.11,6.11,0,0,0,2.25-2.37,7,7,0,0,0,.81-3.4,7.19,7.19,0,0,0-.81-3.46,5.73,5.73,0,0,0-2.25-2.3,5.94,5.94,0,0,0-3.23-.87,6.21,6.21,0,0,0-3.28.87,5.66,5.66,0,0,0-2.25,2.3,7.66,7.66,0,0,0-.75,3.46,7.27,7.27,0,0,0,.8,3.46,6.2,6.2,0,0,0,2.2,2.37A6.67,6.67,0,0,0,1869.29,806.85Zm-14.58,7.38V772.38h8.82v20.69l-1.44,6.81,1.32,6.8v7.55Zm46,.58a12.86,12.86,0,0,1-6.91-1.9,13.86,13.86,0,0,1-4.79-5.19,17.1,17.1,0,0,1,0-15,13.86,13.86,0,0,1,4.79-5.19,12.77,12.77,0,0,1,6.91-1.9,11.45,11.45,0,0,1,5.08,1.09,9.79,9.79,0,0,1,3.75,3.06,8.07,8.07,0,0,1,1.61,4.38v12.11a8.38,8.38,0,0,1-1.61,4.44,9.67,9.67,0,0,1-3.69,3A11.84,11.84,0,0,1,1900.69,814.81Zm1.79-8A6,6,0,0,0,1907,805a6.86,6.86,0,0,0,1.73-4.79,7.19,7.19,0,0,0-.81-3.46,5.35,5.35,0,0,0-2.19-2.3,5.94,5.94,0,0,0-3.23-.87,6.2,6.2,0,0,0-5.53,3.17,7.19,7.19,0,0,0-.81,3.46,7,7,0,0,0,.81,3.4,6,6,0,0,0,2.24,2.37A6.22,6.22,0,0,0,1902.48,806.85Zm5.94,7.38v-7.55l1.33-6.8-1.33-6.81v-6.86h8.65v28Zm25.06.69a19.1,19.1,0,0,1-9.34-2.42,15.74,15.74,0,0,1-3.46-2.76l5-5.08A10.15,10.15,0,0,0,1929,807a10.62,10.62,0,0,0,4.15.8,4.84,4.84,0,0,0,2.36-.46,1.4,1.4,0,0,0,.86-1.27,1.64,1.64,0,0,0-1-1.55,9.91,9.91,0,0,0-2.54-1l-3.29-1a15.21,15.21,0,0,1-3.28-1.44,7.27,7.27,0,0,1-2.54-2.54,8.27,8.27,0,0,1-1-4.21,7.84,7.84,0,0,1,1.39-4.67,9.24,9.24,0,0,1,3.92-3.17,14.2,14.2,0,0,1,5.93-1.15,16.64,16.64,0,0,1,6.58,1.27,11.51,11.51,0,0,1,5,3.63l-5,5.07a7.4,7.4,0,0,0-3-2.19,8.68,8.68,0,0,0-3.17-.63,4.35,4.35,0,0,0-2.25.46,1.3,1.3,0,0,0-.75,1.21,1.56,1.56,0,0,0,1,1.38,11.63,11.63,0,0,0,2.54.92c1,.27,2.13.6,3.28,1a15.49,15.49,0,0,1,3.29,1.56,7.69,7.69,0,0,1,2.54,2.65,8.2,8.2,0,0,1,1,4.27,7.8,7.8,0,0,1-3.12,6.51C1939.75,814.12,1937,814.92,1933.48,814.92Z" transform="translate(241.02 10.49)"/></g></g></svg>