<svg xmlns="http://www.w3.org/2000/svg" viewBox="0 0 1040 336.55"><defs><style>.cls-1{opacity:0.59;}.cls-2{fill:#c1f4d9;}</style></defs><g id="Capa_2" data-name="Capa 2"><g id="Capa_1-2" data-name="Capa 1"><g class="cls-1"><rect class="cls-2" width="72" height="72"/><rect class="cls-2" x="88" width="72" height="72"/><rect class="cls-2" y="88" width="72" height="72"/><rect class="cls-2" x="88" y="88" width="72" height="72"/><rect class="cls-2" x="176" width="72" height="72"/><rect class="cls-2" x="176" y="88" width="72" height="72"/><rect class="cls-2" y="176.28" width="72" height="72"/><rect class="cls-2" x="88" y="176.28" width="72" height="72"/><rect class="cls-2" x="176" y="176.28" width="72" height="72"/><rect class="cls-2" y="264.55" width="72" height="72"/><rect class="cls-2" x="88" y="264.55" width="72" height="72"/><rect class="cls-2" x="176" y="264.55" width="72" height="72"/><rect class="cls-2" x="264" width="72" height="72"/><rect class="cls-2" x="352" width="72" height="72"/><rect class="cls-2" x="264" y="88" width="72" height="72"/><rect class="cls-2" x="352" y="88" width="72" height="72"/><rect class="cls-2" x="440" width="72" height="72"/><rect class="cls-2" x="440" y="88" width="72" height="72"/><rect class="cls-2" x="264" y="176.28" width="72" height="72"/><rect class="cls-2" x="352" y="176.28" width="72" height="72"/><rect class="cls-2" x="440" y="176.28" width="72" height="72"/><rect class="cls-2" x="264" y="264.55" width="72" height="72"/><rect class="cls-2" x="352" y="264.55" width="72" height="72"/><rect class="cls-2" x="440" y="264.55" width="72" height="72"/><rect class="cls-2" x="528" width="72" height="72"/><rect class="cls-2" x="616" width="72" height="72"/><rect class="cls-2" x="528" y="88" width="72" height="72"/><rect class="cls-2" x="616" y="88" width="72" height="72"/><rect class="cls-2" x="704" width="72" height="72"/><rect class="cls-2" x="704" y="88" width="72" height="72"/><rect class="cls-2" x="528" y="176.28" width="72" height="72"/><rect class="cls-2" x="616" y="176.28" width="72" height="72"/><rect class="cls-2" x="704" y="176.28" width="72" height="72"/><rect class="cls-2" x="528" y="264.55" width="72" height="72"/><rect class="cls-2" x="616" y="264.55" width="72" height="72"/><rect class="cls-2" x="704" y="264.55" width="72" height="72"/><rect class="cls-2" x="792" width="72" height="72"/><rect class="cls-2" x="880" width="72" height="72"/><rect class="cls-2" x="792" y="88" width="72" height="72"/><rect class="cls-2" x="880" y="88" width="72" height="72"/><rect class="cls-2" x="968" width="72" height="72"/><rect class="cls-2" x="968" y="88" width="72" height="72"/><rect class="cls-2" x="792" y="176.28" width="72" height="72"/><rect class="cls-2" x="880" y="176.28" width="72" height="72"/><rect class="cls-2" x="968" y="176.28" width="72" height="72"/><rect class="cls-2" x="792" y="264.55" width="72" height="72"/><rect class="cls-2" x="880" y="264.55" width="72" height="72"/><rect class="cls-2" x="968" y="264.55" width="72" height="72"/></g></g></g></svg>