<svg xmlns="http://www.w3.org/2000/svg" xmlns:xlink="http://www.w3.org/1999/xlink" viewBox="0 0 1441.82 565.23"><defs><style>.cls-1{fill:none;}.cls-2{fill:#002c35;}.cls-3{fill:#cffd8d;}.cls-4{fill:#fff;}.cls-5{fill:#f2f2f2;}.cls-6{fill:#0c6;}.cls-7{fill:#4ecb71;}.cls-8{clip-path:url(#clip-path);}.cls-9{clip-path:url(#clip-path-2);}.cls-10{clip-path:url(#clip-path-3);}.cls-11{clip-path:url(#clip-path-4);}.cls-12{clip-path:url(#clip-path-5);}.cls-13{clip-path:url(#clip-path-6);}.cls-14{clip-path:url(#clip-path-7);}.cls-15{clip-path:url(#clip-path-8);}</style><clipPath id="clip-path"><rect class="cls-1" x="727.67" y="98.73" width="29" height="25"/></clipPath><clipPath id="clip-path-2"><rect class="cls-1" x="813.97" y="98.73" width="30" height="25"/></clipPath><clipPath id="clip-path-3"><rect class="cls-1" x="1297.32" y="102.23" width="24" height="22"/></clipPath><clipPath id="clip-path-4"><rect class="cls-1" x="1347.82" y="102.23" width="27" height="18"/></clipPath><clipPath id="clip-path-5"><rect class="cls-1" x="727.67" y="234.73" width="29" height="25"/></clipPath><clipPath id="clip-path-6"><rect class="cls-1" x="813.97" y="234.73" width="30" height="25"/></clipPath><clipPath id="clip-path-7"><rect class="cls-1" x="1297.32" y="238.23" width="24" height="22"/></clipPath><clipPath id="clip-path-8"><rect class="cls-1" x="1347.82" y="238.23" width="27" height="18"/></clipPath></defs><g id="Capa_2" data-name="Capa 2"><g id="Capa_1-2" data-name="Capa 1"><rect class="cls-2" x="1.82" y="400.23" width="360" height="76"/><path class="cls-3" d="M47.37,447.05A8.69,8.69,0,0,1,39,438.64a8.7,8.7,0,0,1-8.45,8.41h-.07V444h.07a5.75,5.75,0,0,0,5.57-5.94h5.71A5.79,5.79,0,0,0,47.35,444h.08v3.06Z"/><path class="cls-4" d="M75.46,442.77v-1.15H78.1a2,2,0,0,0,1-.22,1.63,1.63,0,0,0,.67-.63,2,2,0,0,0,0-1.93,1.63,1.63,0,0,0-.67-.63,2,2,0,0,0-1-.23H75.46v-1.14h2.73a3.45,3.45,0,0,1,1.59.36,2.68,2.68,0,0,1,1.12,1,2.84,2.84,0,0,1,.42,1.56,2.9,2.9,0,0,1-.42,1.57,2.81,2.81,0,0,1-1.12,1,3.45,3.45,0,0,1-1.59.36Zm-.89,3.78v-9.71h1.32v9.71Zm8.27,0V439.9H84.1v6.65Zm1.26-3.79-.48-.21a3.22,3.22,0,0,1,.59-2,2,2,0,0,1,1.7-.76,2.24,2.24,0,0,1,.91.18,2.12,2.12,0,0,1,.75.58l-.82.85a1.31,1.31,0,0,0-.47-.32,1.67,1.67,0,0,0-.58-.1,1.55,1.55,0,0,0-1.15.45A1.84,1.84,0,0,0,84.1,442.76Zm7.18,3.93a3.41,3.41,0,0,1-1.77-.46,3.44,3.44,0,0,1-1.7-3,3.28,3.28,0,0,1,.46-1.74,3.39,3.39,0,0,1,3-1.71,3.46,3.46,0,0,1,1.75.46,3.38,3.38,0,0,1,1.72,3,3.41,3.41,0,0,1-1.72,3A3.37,3.37,0,0,1,91.28,446.69Zm0-1.22a2.1,2.1,0,0,0,1.12-.29,2.19,2.19,0,0,0,.77-.8,2.47,2.47,0,0,0,.28-1.17,2.19,2.19,0,0,0-.3-1.15,2,2,0,0,0-.77-.79,2.07,2.07,0,0,0-1.1-.29,2.17,2.17,0,0,0-1.12.29,2,2,0,0,0-.77.79,2.28,2.28,0,0,0-.28,1.15,2.36,2.36,0,0,0,.28,1.17,2,2,0,0,0,.77.8A2.08,2.08,0,0,0,91.28,445.47Zm7.65,4a4.23,4.23,0,0,1-1.82-.38A3.26,3.26,0,0,1,95.85,448l.81-.83a2.51,2.51,0,0,0,1,.78,2.87,2.87,0,0,0,1.33.28,2.31,2.31,0,0,0,1.61-.54,1.84,1.84,0,0,0,.6-1.44v-1.66l.22-1.49-.22-1.49V439.9h1.26v6.39A3,3,0,0,1,102,448a3,3,0,0,1-1.23,1.12A3.91,3.91,0,0,1,98.93,449.48Zm0-3a3,3,0,0,1-2.77-1.62,3.57,3.57,0,0,1-.42-1.73,3.39,3.39,0,0,1,.42-1.69,3.15,3.15,0,0,1,1.13-1.19,3.22,3.22,0,0,1,3-.14,2.52,2.52,0,0,1,1,.87,2.45,2.45,0,0,1,.39,1.29V444a2.62,2.62,0,0,1-.41,1.29,2.37,2.37,0,0,1-1,.85A2.91,2.91,0,0,1,98.93,446.44Zm.25-1.19a2.11,2.11,0,0,0,1.08-.27,1.8,1.8,0,0,0,.73-.74,2.51,2.51,0,0,0,.25-1.13A2.24,2.24,0,0,0,101,442a1.8,1.8,0,0,0-.71-.76,2.13,2.13,0,0,0-1.09-.28,2.23,2.23,0,0,0-1.11.28,2,2,0,0,0-.76.76,2.29,2.29,0,0,0-.26,1.1,2.37,2.37,0,0,0,.26,1.12,2,2,0,0,0,.76.77A2.29,2.29,0,0,0,99.18,445.25Zm5.1,1.3V439.9h1.26v6.65Zm1.26-3.79-.48-.21a3.22,3.22,0,0,1,.59-2,2,2,0,0,1,1.69-.76,2.21,2.21,0,0,1,.91.18,2.15,2.15,0,0,1,.76.58l-.83.85a1.28,1.28,0,0,0-.46-.32,1.73,1.73,0,0,0-.59-.1,1.53,1.53,0,0,0-1.14.45A1.84,1.84,0,0,0,105.54,442.76Zm7,3.93a3.16,3.16,0,0,1-1.66-.45,3.32,3.32,0,0,1-1.17-1.24,3.92,3.92,0,0,1,0-3.53,3.4,3.4,0,0,1,1.16-1.25,3.15,3.15,0,0,1,1.67-.46,2.79,2.79,0,0,1,1.34.32,2.62,2.62,0,0,1,1,.87,2.58,2.58,0,0,1,.4,1.28v2a2.61,2.61,0,0,1-.4,1.27,2.4,2.4,0,0,1-1,.88A2.8,2.8,0,0,1,112.51,446.69Zm.21-1.19a2,2,0,0,0,1.51-.63,2.37,2.37,0,0,0,.57-1.64,2.64,2.64,0,0,0-.26-1.19,1.8,1.8,0,0,0-.73-.79,2.05,2.05,0,0,0-1.11-.3,2.11,2.11,0,0,0-1.12.3,2,2,0,0,0-.75.81,2.39,2.39,0,0,0-.27,1.16,2.52,2.52,0,0,0,.27,1.19,2,2,0,0,0,.77.8A2.17,2.17,0,0,0,112.72,445.5Zm2,1.05v-1.79l.24-1.62-.24-1.61V439.9H116v6.65Zm3.11,0V439.9h1.26v6.65Zm4.5,0v-4a1.49,1.49,0,0,0-.46-1.16,1.55,1.55,0,0,0-1.13-.43,1.79,1.79,0,0,0-.84.19,1.73,1.73,0,0,0-.59.55,1.59,1.59,0,0,0-.21.84l-.53-.25a2.56,2.56,0,0,1,.33-1.32,2.45,2.45,0,0,1,.91-.87,2.74,2.74,0,0,1,2.55,0,2.35,2.35,0,0,1,.9.87,2.57,2.57,0,0,1,.33,1.33v4.28Zm4.48,0v-4a1.49,1.49,0,0,0-.46-1.16,1.56,1.56,0,0,0-1.13-.43,1.78,1.78,0,0,0-.83.19,1.67,1.67,0,0,0-.6.55,1.59,1.59,0,0,0-.21.84l-.73-.25a2.78,2.78,0,0,1,.42-1.32,2.64,2.64,0,0,1,1-.87,2.76,2.76,0,0,1,1.31-.32,2.72,2.72,0,0,1,1.28.31,2.31,2.31,0,0,1,.91.87,2.41,2.41,0,0,1,.35,1.34v4.27Zm5.82.14a3.1,3.1,0,0,1-1.65-.45A3.27,3.27,0,0,1,129.8,445a3.92,3.92,0,0,1,0-3.53,3.43,3.43,0,0,1,1.17-1.25,3.11,3.11,0,0,1,1.66-.46,2.83,2.83,0,0,1,1.35.32,2.52,2.52,0,0,1,1,.87,2.59,2.59,0,0,1,.41,1.28v2a2.62,2.62,0,0,1-.41,1.27,2.37,2.37,0,0,1-.95.88A2.84,2.84,0,0,1,132.63,446.69Zm.21-1.19a1.93,1.93,0,0,0,1.51-.63,2.38,2.38,0,0,0,.58-1.64,2.52,2.52,0,0,0-.27-1.19,1.8,1.8,0,0,0-.73-.79,2,2,0,0,0-1.1-.3,2.09,2.09,0,0,0-1.12.3,2.05,2.05,0,0,0-.76.81,2.39,2.39,0,0,0-.27,1.16,2.52,2.52,0,0,0,.27,1.19,2.11,2.11,0,0,0,.77.8A2.2,2.2,0,0,0,132.84,445.5Zm2,1.05v-1.79l.24-1.62-.24-1.61V439.9h1.26v6.65Zm10.39,0-2.07-2.91-.24-.22-2.62-3.52h1.53l1.89,2.59.24.2,2.8,3.86Zm-5,0,2.74-3.69.72.92-2,2.77Zm3.88-3.15-.73-.89,1.83-2.61h1.47Zm9.6,3.29a3.1,3.1,0,0,1-1.65-.45,3.27,3.27,0,0,1-1.18-1.24,3.92,3.92,0,0,1,0-3.53,3.49,3.49,0,0,1,1.16-1.25,3.17,3.17,0,0,1,1.67-.46,2.79,2.79,0,0,1,1.34.32,2.55,2.55,0,0,1,1,.87,2.48,2.48,0,0,1,.4,1.28v2a2.51,2.51,0,0,1-.4,1.27,2.44,2.44,0,0,1-.95.88A2.87,2.87,0,0,1,153.66,446.69Zm.21-1.19a2,2,0,0,0,1.51-.63,2.37,2.37,0,0,0,.57-1.64,2.51,2.51,0,0,0-.26-1.19,1.8,1.8,0,0,0-.73-.79,2.05,2.05,0,0,0-1.11-.3,2,2,0,0,0-1.87,1.11,2.39,2.39,0,0,0-.27,1.16,2.52,2.52,0,0,0,.27,1.19,2.11,2.11,0,0,0,.77.8A2.2,2.2,0,0,0,153.87,445.5Zm2,1.05v-1.79l.24-1.62-.24-1.61v-5h1.26v10Zm6.19.14a3.58,3.58,0,0,1-1.79-.45A3.26,3.26,0,0,1,159,445a3.43,3.43,0,0,1-.47-1.78,3.47,3.47,0,0,1,.45-1.76,3.4,3.4,0,0,1,1.23-1.24,3.49,3.49,0,0,1,1.75-.46,3.12,3.12,0,0,1,1.63.42,2.93,2.93,0,0,1,1.1,1.16,3.37,3.37,0,0,1,.41,1.68c0,.1,0,.2,0,.31a3.12,3.12,0,0,1-.06.37h-5.61v-1.05h4.94l-.46.4a2.42,2.42,0,0,0-.24-1.13,1.7,1.7,0,0,0-.67-.73,2,2,0,0,0-1.05-.27,2.35,2.35,0,0,0-1.14.28,1.9,1.9,0,0,0-.75.79,2.46,2.46,0,0,0-.27,1.19,2.54,2.54,0,0,0,.28,1.23,2,2,0,0,0,.8.81,2.41,2.41,0,0,0,1.19.28,2.61,2.61,0,0,0,1-.19,2.07,2.07,0,0,0,.81-.59l.81.82a3,3,0,0,1-1.17.86A3.82,3.82,0,0,1,162.06,446.69Zm4.42-.14v-10h1.26v10Zm9.52.14a3,3,0,0,1-1.37-.31,2.53,2.53,0,0,1-1.37-2.15v-2a2.48,2.48,0,0,1,.4-1.28,2.65,2.65,0,0,1,1-.87,2.93,2.93,0,0,1,1.36-.32,3.07,3.07,0,0,1,1.64.46,3.32,3.32,0,0,1,1.16,1.25,3.92,3.92,0,0,1,0,3.53,3.22,3.22,0,0,1-1.16,1.24A3.06,3.06,0,0,1,176,446.69Zm-.21-1.19a2.14,2.14,0,0,0,1.11-.29,2,2,0,0,0,.75-.8,2.65,2.65,0,0,0,0-2.37,1.85,1.85,0,0,0-.75-.79,2,2,0,0,0-1.1-.3,2,2,0,0,0-1.1.3,1.83,1.83,0,0,0-.74.79,2.57,2.57,0,0,0-.27,1.19,2.62,2.62,0,0,0,.25,1.18,2.11,2.11,0,0,0,.74.8A2.19,2.19,0,0,0,175.79,445.5Zm-3.29,3.84V439.9h1.26v1.75l-.24,1.61.24,1.63v4.45Zm11.19-2.65a3.45,3.45,0,0,1-3.48-3.48,3.29,3.29,0,0,1,.47-1.74,3.46,3.46,0,0,1,1.24-1.25,3.6,3.6,0,0,1,3.52,0,3.33,3.33,0,0,1,1.26,1.24,3.44,3.44,0,0,1,.46,1.75,3.54,3.54,0,0,1-.46,1.77,3.43,3.43,0,0,1-1.26,1.25A3.39,3.39,0,0,1,183.69,446.69Zm0-1.22a2.1,2.1,0,0,0,1.12-.29,2.19,2.19,0,0,0,.77-.8,2.47,2.47,0,0,0,.28-1.17,2.19,2.19,0,0,0-.3-1.15,2,2,0,0,0-.77-.79,2.07,2.07,0,0,0-1.1-.29,2.17,2.17,0,0,0-1.12.29,2,2,0,0,0-.77.79,2.28,2.28,0,0,0-.28,1.15,2.36,2.36,0,0,0,.28,1.17,2,2,0,0,0,.77.8A2.08,2.08,0,0,0,183.69,445.47Zm7.72,1.22a3.16,3.16,0,0,1-1.66-.45,3.32,3.32,0,0,1-1.17-1.24,3.92,3.92,0,0,1,0-3.53,3.4,3.4,0,0,1,1.16-1.25,3.15,3.15,0,0,1,1.67-.46,2.79,2.79,0,0,1,1.34.32,2.62,2.62,0,0,1,1,.87,2.58,2.58,0,0,1,.4,1.28v2a2.61,2.61,0,0,1-.4,1.27,2.4,2.4,0,0,1-1,.88A2.8,2.8,0,0,1,191.41,446.69Zm.21-1.19a2,2,0,0,0,1.51-.63,2.37,2.37,0,0,0,.57-1.64,2.64,2.64,0,0,0-.26-1.19,1.8,1.8,0,0,0-.73-.79,2.05,2.05,0,0,0-1.11-.3,2.11,2.11,0,0,0-1.12.3,2,2,0,0,0-.75.81,2.39,2.39,0,0,0-.27,1.16,2.52,2.52,0,0,0,.27,1.19,2,2,0,0,0,.77.8A2.17,2.17,0,0,0,191.62,445.5Zm2,1.05v-1.79l.24-1.62-.24-1.61v-5h1.26v10Zm6.14.14a3.43,3.43,0,0,1-3-1.71,3.52,3.52,0,0,1-.45-1.76,3.47,3.47,0,0,1,.45-1.76,3.31,3.31,0,0,1,1.25-1.24,3.54,3.54,0,0,1,1.77-.46,3.39,3.39,0,0,1,1.43.3,3.08,3.08,0,0,1,1.14.82l-.84.84a2,2,0,0,0-.76-.54,2.34,2.34,0,0,0-1-.2,2.2,2.2,0,0,0-1.12.29,2.09,2.09,0,0,0-.77.79,2.54,2.54,0,0,0,0,2.32,2.19,2.19,0,0,0,.77.8,2.1,2.1,0,0,0,1.12.29,2.5,2.5,0,0,0,1-.18,2,2,0,0,0,.77-.56l.83.84a3.17,3.17,0,0,1-1.14.83A3.55,3.55,0,0,1,199.76,446.69Zm6.51,0a3.1,3.1,0,0,1-1.65-.45,3.27,3.27,0,0,1-1.18-1.24,3.92,3.92,0,0,1,0-3.53,3.49,3.49,0,0,1,1.16-1.25,3.17,3.17,0,0,1,1.67-.46,2.79,2.79,0,0,1,1.34.32,2.55,2.55,0,0,1,1,.87,2.58,2.58,0,0,1,.4,1.28v2a2.61,2.61,0,0,1-.4,1.27,2.4,2.4,0,0,1-1,.88A2.8,2.8,0,0,1,206.27,446.69Zm.21-1.19a2,2,0,0,0,1.51-.63,2.37,2.37,0,0,0,.57-1.64,2.51,2.51,0,0,0-.26-1.19,1.8,1.8,0,0,0-.73-.79,2.05,2.05,0,0,0-1.11-.3,2.11,2.11,0,0,0-1.12.3,2,2,0,0,0-.75.81,2.39,2.39,0,0,0-.27,1.16,2.52,2.52,0,0,0,.27,1.19,2,2,0,0,0,.77.8A2.17,2.17,0,0,0,206.48,445.5Zm2,1.05v-1.79l.24-1.62-.24-1.61V439.9h1.26v6.65Zm5.22.14a3.67,3.67,0,0,1-1.06-.14,3.59,3.59,0,0,1-.91-.42,2.88,2.88,0,0,1-.73-.66l.81-.81a2.4,2.4,0,0,0,.84.67,2.62,2.62,0,0,0,1.07.21,1.79,1.79,0,0,0,.91-.19.7.7,0,0,0,.05-1.14,1.86,1.86,0,0,0-.66-.33l-.86-.27a5,5,0,0,1-.86-.35,1.94,1.94,0,0,1-.67-.57,1.66,1.66,0,0,1-.25-1,1.83,1.83,0,0,1,.29-1,2,2,0,0,1,.81-.69,3.11,3.11,0,0,1,1.28-.24,3.33,3.33,0,0,1,1.38.28,2.37,2.37,0,0,1,1,.81l-.81.82a1.81,1.81,0,0,0-.7-.56,2.11,2.11,0,0,0-.92-.2,1.49,1.49,0,0,0-.84.2.57.57,0,0,0-.28.51.59.59,0,0,0,.25.52,2.14,2.14,0,0,0,.66.31l.86.27a3.79,3.79,0,0,1,.86.35,1.9,1.9,0,0,1,.66.6,1.73,1.73,0,0,1,.26,1,1.82,1.82,0,0,1-.67,1.49A2.72,2.72,0,0,1,213.7,446.69Zm4.88-.14v-9.43h1.26v9.43Zm-1.63-5.5V439.9h4.53v1.15Z"/><path class="cls-3" d="M266.35,434.33v-.08h2.73v.08a8.22,8.22,0,0,1-7.5,8.29,8.15,8.15,0,0,1,7.5,8.26V451h-2.73v-.08a5.37,5.37,0,0,0-5.29-5.47V439.8A5.39,5.39,0,0,0,266.35,434.33Z"/><path class="cls-3" d="M258.71,434.23v-.08h2.73v.08a8.2,8.2,0,0,1-7.49,8.28,8.21,8.21,0,0,1,7.49,8.29v.08h-2.73v-.08a5.36,5.36,0,0,0-5.29-5.46v-5.65A5.38,5.38,0,0,0,258.71,434.23Z"/><path class="cls-3" d="M270.44,437.15h2.48v11.44h-2.48Z"/><path class="cls-3" d="M293.92,428.36v-.13h-4.65v.13a14,14,0,0,0,12.78,14.19,14,14,0,0,0-12.78,14.19v.14h4.65v-.14a9.17,9.17,0,0,1,9-9.35v-9.67A9.17,9.17,0,0,1,293.92,428.36Z"/><path class="cls-3" d="M286.94,433.19h-4.23v19.6h4.23Z"/><path class="cls-3" d="M319.3,434.33v-.08h-2.73v.08a8.21,8.21,0,0,0,7.49,8.29,8.14,8.14,0,0,0-7.49,8.26V451h2.73v-.08a5.36,5.36,0,0,1,5.28-5.47V439.8A5.38,5.38,0,0,1,319.3,434.33Z"/><path class="cls-3" d="M326.94,434.23v-.08h-2.73v.08a8.2,8.2,0,0,0,7.49,8.28,8.2,8.2,0,0,0-7.49,8.29v.08h2.73v-.08a5.35,5.35,0,0,1,5.28-5.46v-5.65A5.37,5.37,0,0,1,326.94,434.23Z"/><path class="cls-3" d="M315.21,437.15h-2.49v11.44h2.49Z"/><rect class="cls-4" x="1.82" y="400.23" width="173" height="6"/><rect class="cls-5" x="1.82" y="489.23" width="360" height="76"/><path class="cls-6" d="M47.37,536.05A8.69,8.69,0,0,1,39,527.64a8.7,8.7,0,0,1-8.45,8.41h-.07V533h.07a5.75,5.75,0,0,0,5.57-5.94h5.71A5.79,5.79,0,0,0,47.35,533h.08v3.06Z"/><path class="cls-2" d="M75.46,531.77v-1.15H78.1a2,2,0,0,0,1-.22,1.63,1.63,0,0,0,.67-.63,2,2,0,0,0,0-1.93,1.63,1.63,0,0,0-.67-.63,2,2,0,0,0-1-.23H75.46v-1.14h2.73a3.45,3.45,0,0,1,1.59.36,2.68,2.68,0,0,1,1.12,1,2.84,2.84,0,0,1,.42,1.56,2.9,2.9,0,0,1-.42,1.57,2.81,2.81,0,0,1-1.12,1,3.45,3.45,0,0,1-1.59.36Zm-.89,3.78v-9.71h1.32v9.71Zm8.27,0V528.9H84.1v6.65Zm1.26-3.79-.48-.21a3.22,3.22,0,0,1,.59-2,2,2,0,0,1,1.7-.76,2.24,2.24,0,0,1,.91.18,2.12,2.12,0,0,1,.75.58l-.82.85a1.31,1.31,0,0,0-.47-.32,1.67,1.67,0,0,0-.58-.1,1.55,1.55,0,0,0-1.15.45A1.84,1.84,0,0,0,84.1,531.76Zm7.18,3.93a3.41,3.41,0,0,1-1.77-.46,3.44,3.44,0,0,1-1.7-3,3.28,3.28,0,0,1,.46-1.74,3.39,3.39,0,0,1,3-1.71,3.46,3.46,0,0,1,1.75.46,3.38,3.38,0,0,1,1.72,3,3.41,3.41,0,0,1-1.72,3A3.37,3.37,0,0,1,91.28,535.69Zm0-1.22a2.1,2.1,0,0,0,1.12-.29,2.19,2.19,0,0,0,.77-.8,2.47,2.47,0,0,0,.28-1.17,2.19,2.19,0,0,0-.3-1.15,2,2,0,0,0-.77-.79,2.07,2.07,0,0,0-1.1-.29,2.17,2.17,0,0,0-1.12.29,2,2,0,0,0-.77.79,2.28,2.28,0,0,0-.28,1.15,2.36,2.36,0,0,0,.28,1.17,2,2,0,0,0,.77.8A2.08,2.08,0,0,0,91.28,534.47Zm7.65,4a4.23,4.23,0,0,1-1.82-.38A3.26,3.26,0,0,1,95.85,537l.81-.83a2.51,2.51,0,0,0,1,.78,2.87,2.87,0,0,0,1.33.28,2.31,2.31,0,0,0,1.61-.54,1.84,1.84,0,0,0,.6-1.44v-1.66l.22-1.49-.22-1.49V528.9h1.26v6.39A3,3,0,0,1,102,537a3,3,0,0,1-1.23,1.12A3.91,3.91,0,0,1,98.93,538.48Zm0-3a3,3,0,0,1-2.77-1.62,3.57,3.57,0,0,1-.42-1.73,3.39,3.39,0,0,1,.42-1.69,3.15,3.15,0,0,1,1.13-1.19,3.22,3.22,0,0,1,3-.14,2.52,2.52,0,0,1,1,.87,2.45,2.45,0,0,1,.39,1.29V533a2.62,2.62,0,0,1-.41,1.29,2.37,2.37,0,0,1-1,.85A2.91,2.91,0,0,1,98.93,535.44Zm.25-1.19a2.11,2.11,0,0,0,1.08-.27,1.8,1.8,0,0,0,.73-.74,2.51,2.51,0,0,0,.25-1.13A2.24,2.24,0,0,0,101,531a1.8,1.8,0,0,0-.71-.76,2.13,2.13,0,0,0-1.09-.28,2.23,2.23,0,0,0-1.11.28,2,2,0,0,0-.76.76,2.29,2.29,0,0,0-.26,1.1,2.37,2.37,0,0,0,.26,1.12,2,2,0,0,0,.76.77A2.29,2.29,0,0,0,99.18,534.25Zm5.1,1.3V528.9h1.26v6.65Zm1.26-3.79-.48-.21a3.22,3.22,0,0,1,.59-2,2,2,0,0,1,1.69-.76,2.21,2.21,0,0,1,.91.18,2.15,2.15,0,0,1,.76.58l-.83.85a1.28,1.28,0,0,0-.46-.32,1.73,1.73,0,0,0-.59-.1,1.53,1.53,0,0,0-1.14.45A1.84,1.84,0,0,0,105.54,531.76Zm7,3.93a3.16,3.16,0,0,1-1.66-.45,3.32,3.32,0,0,1-1.17-1.24,3.92,3.92,0,0,1,0-3.53,3.4,3.4,0,0,1,1.16-1.25,3.15,3.15,0,0,1,1.67-.46,2.79,2.79,0,0,1,1.34.32,2.62,2.62,0,0,1,1,.87,2.58,2.58,0,0,1,.4,1.28v2a2.61,2.61,0,0,1-.4,1.27,2.4,2.4,0,0,1-1,.88A2.8,2.8,0,0,1,112.51,535.69Zm.21-1.19a2,2,0,0,0,1.51-.63,2.37,2.37,0,0,0,.57-1.64,2.64,2.64,0,0,0-.26-1.19,1.8,1.8,0,0,0-.73-.79,2.05,2.05,0,0,0-1.11-.3,2.11,2.11,0,0,0-1.12.3,2,2,0,0,0-.75.81,2.39,2.39,0,0,0-.27,1.16,2.52,2.52,0,0,0,.27,1.19,2,2,0,0,0,.77.8A2.17,2.17,0,0,0,112.72,534.5Zm2,1v-1.79l.24-1.62-.24-1.61V528.9H116v6.65Zm3.11,0V528.9h1.26v6.65Zm4.5,0v-4a1.49,1.49,0,0,0-.46-1.16,1.55,1.55,0,0,0-1.13-.43,1.79,1.79,0,0,0-.84.19,1.73,1.73,0,0,0-.59.55,1.59,1.59,0,0,0-.21.84l-.53-.25a2.56,2.56,0,0,1,.33-1.32,2.45,2.45,0,0,1,.91-.87,2.74,2.74,0,0,1,2.55,0,2.35,2.35,0,0,1,.9.87,2.57,2.57,0,0,1,.33,1.33v4.28Zm4.48,0v-4a1.49,1.49,0,0,0-.46-1.16,1.56,1.56,0,0,0-1.13-.43,1.78,1.78,0,0,0-.83.19,1.67,1.67,0,0,0-.6.55,1.59,1.59,0,0,0-.21.84l-.73-.25a2.78,2.78,0,0,1,.42-1.32,2.64,2.64,0,0,1,1-.87,2.76,2.76,0,0,1,1.31-.32,2.72,2.72,0,0,1,1.28.31,2.31,2.31,0,0,1,.91.87,2.41,2.41,0,0,1,.35,1.34v4.27Zm5.82.14a3.1,3.1,0,0,1-1.65-.45A3.27,3.27,0,0,1,129.8,534a3.92,3.92,0,0,1,0-3.53,3.43,3.43,0,0,1,1.17-1.25,3.11,3.11,0,0,1,1.66-.46,2.83,2.83,0,0,1,1.35.32,2.52,2.52,0,0,1,1,.87,2.59,2.59,0,0,1,.41,1.28v2a2.62,2.62,0,0,1-.41,1.27,2.37,2.37,0,0,1-.95.88A2.84,2.84,0,0,1,132.63,535.69Zm.21-1.19a1.93,1.93,0,0,0,1.51-.63,2.38,2.38,0,0,0,.58-1.64,2.52,2.52,0,0,0-.27-1.19,1.8,1.8,0,0,0-.73-.79,2,2,0,0,0-1.1-.3,2.09,2.09,0,0,0-1.12.3,2.05,2.05,0,0,0-.76.81,2.39,2.39,0,0,0-.27,1.16,2.52,2.52,0,0,0,.27,1.19,2.11,2.11,0,0,0,.77.8A2.2,2.2,0,0,0,132.84,534.5Zm2,1v-1.79l.24-1.62-.24-1.61V528.9h1.26v6.65Zm10.39,0-2.07-2.91-.24-.22-2.62-3.52h1.53l1.89,2.59.24.2,2.8,3.86Zm-5,0,2.74-3.69.72.92-2,2.77Zm3.88-3.15-.73-.89,1.83-2.61h1.47Zm9.6,3.29a3.1,3.1,0,0,1-1.65-.45,3.27,3.27,0,0,1-1.18-1.24,3.92,3.92,0,0,1,0-3.53,3.49,3.49,0,0,1,1.16-1.25,3.17,3.17,0,0,1,1.67-.46,2.79,2.79,0,0,1,1.34.32,2.55,2.55,0,0,1,1,.87,2.48,2.48,0,0,1,.4,1.28v2a2.51,2.51,0,0,1-.4,1.27,2.44,2.44,0,0,1-.95.88A2.87,2.87,0,0,1,153.66,535.69Zm.21-1.19a2,2,0,0,0,1.51-.63,2.37,2.37,0,0,0,.57-1.64,2.51,2.51,0,0,0-.26-1.19,1.8,1.8,0,0,0-.73-.79,2.05,2.05,0,0,0-1.11-.3,2,2,0,0,0-1.87,1.11,2.39,2.39,0,0,0-.27,1.16,2.52,2.52,0,0,0,.27,1.19,2.11,2.11,0,0,0,.77.8A2.2,2.2,0,0,0,153.87,534.5Zm2,1v-1.79l.24-1.62-.24-1.61v-5h1.26v10Zm6.19.14a3.58,3.58,0,0,1-1.79-.45A3.26,3.26,0,0,1,159,534a3.43,3.43,0,0,1-.47-1.78,3.47,3.47,0,0,1,.45-1.76,3.4,3.4,0,0,1,1.23-1.24,3.49,3.49,0,0,1,1.75-.46,3.12,3.12,0,0,1,1.63.42,2.93,2.93,0,0,1,1.1,1.16,3.37,3.37,0,0,1,.41,1.68c0,.1,0,.2,0,.31a3.12,3.12,0,0,1-.06.37h-5.61v-1.05h4.94l-.46.4a2.42,2.42,0,0,0-.24-1.13,1.7,1.7,0,0,0-.67-.73,2,2,0,0,0-1.05-.27,2.35,2.35,0,0,0-1.14.28,1.9,1.9,0,0,0-.75.79,2.46,2.46,0,0,0-.27,1.19,2.54,2.54,0,0,0,.28,1.23,2,2,0,0,0,.8.81,2.41,2.41,0,0,0,1.19.28,2.61,2.61,0,0,0,1-.19,2.07,2.07,0,0,0,.81-.59l.81.82a3,3,0,0,1-1.17.86A3.82,3.82,0,0,1,162.06,535.69Zm4.42-.14v-10h1.26v10Zm9.52.14a3,3,0,0,1-1.37-.31,2.53,2.53,0,0,1-1.37-2.15v-2a2.48,2.48,0,0,1,.4-1.28,2.65,2.65,0,0,1,1-.87,2.93,2.93,0,0,1,1.36-.32,3.07,3.07,0,0,1,1.64.46,3.32,3.32,0,0,1,1.16,1.25,3.92,3.92,0,0,1,0,3.53,3.22,3.22,0,0,1-1.16,1.24A3.06,3.06,0,0,1,176,535.69Zm-.21-1.19a2.14,2.14,0,0,0,1.11-.29,2,2,0,0,0,.75-.8,2.65,2.65,0,0,0,0-2.37,1.85,1.85,0,0,0-.75-.79,2,2,0,0,0-1.1-.3,2,2,0,0,0-1.1.3,1.83,1.83,0,0,0-.74.79,2.57,2.57,0,0,0-.27,1.19,2.62,2.62,0,0,0,.25,1.18,2.11,2.11,0,0,0,.74.8A2.19,2.19,0,0,0,175.79,534.5Zm-3.29,3.84V528.9h1.26v1.75l-.24,1.61.24,1.63v4.45Zm11.19-2.65a3.45,3.45,0,0,1-3.48-3.48,3.29,3.29,0,0,1,.47-1.74,3.46,3.46,0,0,1,1.24-1.25,3.6,3.6,0,0,1,3.52,0,3.33,3.33,0,0,1,1.26,1.24,3.44,3.44,0,0,1,.46,1.75,3.54,3.54,0,0,1-.46,1.77,3.43,3.43,0,0,1-1.26,1.25A3.39,3.39,0,0,1,183.69,535.69Zm0-1.22a2.1,2.1,0,0,0,1.12-.29,2.19,2.19,0,0,0,.77-.8,2.47,2.47,0,0,0,.28-1.17,2.19,2.19,0,0,0-.3-1.15,2,2,0,0,0-.77-.79,2.07,2.07,0,0,0-1.1-.29,2.17,2.17,0,0,0-1.12.29,2,2,0,0,0-.77.79,2.28,2.28,0,0,0-.28,1.15,2.36,2.36,0,0,0,.28,1.17,2,2,0,0,0,.77.8A2.08,2.08,0,0,0,183.69,534.47Zm7.72,1.22a3.16,3.16,0,0,1-1.66-.45,3.32,3.32,0,0,1-1.17-1.24,3.92,3.92,0,0,1,0-3.53,3.4,3.4,0,0,1,1.16-1.25,3.15,3.15,0,0,1,1.67-.46,2.79,2.79,0,0,1,1.34.32,2.62,2.62,0,0,1,1,.87,2.58,2.58,0,0,1,.4,1.28v2a2.61,2.61,0,0,1-.4,1.27,2.4,2.4,0,0,1-1,.88A2.8,2.8,0,0,1,191.41,535.69Zm.21-1.19a2,2,0,0,0,1.51-.63,2.37,2.37,0,0,0,.57-1.64,2.64,2.64,0,0,0-.26-1.19,1.8,1.8,0,0,0-.73-.79,2.05,2.05,0,0,0-1.11-.3,2.11,2.11,0,0,0-1.12.3,2,2,0,0,0-.75.81,2.39,2.39,0,0,0-.27,1.16,2.52,2.52,0,0,0,.27,1.19,2,2,0,0,0,.77.8A2.17,2.17,0,0,0,191.62,534.5Zm2,1v-1.79l.24-1.62-.24-1.61v-5h1.26v10Zm6.14.14a3.43,3.43,0,0,1-3-1.71,3.52,3.52,0,0,1-.45-1.76,3.47,3.47,0,0,1,.45-1.76,3.31,3.31,0,0,1,1.25-1.24,3.54,3.54,0,0,1,1.77-.46,3.39,3.39,0,0,1,1.43.3,3.08,3.08,0,0,1,1.14.82l-.84.84a2,2,0,0,0-.76-.54,2.34,2.34,0,0,0-1-.2,2.2,2.2,0,0,0-1.12.29,2.09,2.09,0,0,0-.77.79,2.54,2.54,0,0,0,0,2.32,2.19,2.19,0,0,0,.77.8,2.1,2.1,0,0,0,1.12.29,2.5,2.5,0,0,0,1-.18,2,2,0,0,0,.77-.56l.83.84a3.17,3.17,0,0,1-1.14.83A3.55,3.55,0,0,1,199.76,535.69Zm6.51,0a3.1,3.1,0,0,1-1.65-.45,3.27,3.27,0,0,1-1.18-1.24,3.92,3.92,0,0,1,0-3.53,3.49,3.49,0,0,1,1.16-1.25,3.17,3.17,0,0,1,1.67-.46,2.79,2.79,0,0,1,1.34.32,2.55,2.55,0,0,1,1,.87,2.58,2.58,0,0,1,.4,1.28v2a2.61,2.61,0,0,1-.4,1.27,2.4,2.4,0,0,1-1,.88A2.8,2.8,0,0,1,206.27,535.69Zm.21-1.19a2,2,0,0,0,1.51-.63,2.37,2.37,0,0,0,.57-1.64,2.51,2.51,0,0,0-.26-1.19,1.8,1.8,0,0,0-.73-.79,2.05,2.05,0,0,0-1.11-.3,2.11,2.11,0,0,0-1.12.3,2,2,0,0,0-.75.81,2.39,2.39,0,0,0-.27,1.16,2.52,2.52,0,0,0,.27,1.19,2,2,0,0,0,.77.8A2.17,2.17,0,0,0,206.48,534.5Zm2,1v-1.79l.24-1.62-.24-1.61V528.9h1.26v6.65Zm5.22.14a3.67,3.67,0,0,1-1.06-.14,3.59,3.59,0,0,1-.91-.42,2.88,2.88,0,0,1-.73-.66l.81-.81a2.4,2.4,0,0,0,.84.67,2.62,2.62,0,0,0,1.07.21,1.79,1.79,0,0,0,.91-.19.7.7,0,0,0,.05-1.14,1.86,1.86,0,0,0-.66-.33l-.86-.27a5,5,0,0,1-.86-.35,1.94,1.94,0,0,1-.67-.57,1.66,1.66,0,0,1-.25-1,1.83,1.83,0,0,1,.29-1,2,2,0,0,1,.81-.69,3.11,3.11,0,0,1,1.28-.24,3.33,3.33,0,0,1,1.38.28,2.37,2.37,0,0,1,1,.81l-.81.82a1.81,1.81,0,0,0-.7-.56,2.11,2.11,0,0,0-.92-.2,1.49,1.49,0,0,0-.84.2.57.57,0,0,0-.28.51.59.59,0,0,0,.25.52,2.14,2.14,0,0,0,.66.31l.86.27a3.79,3.79,0,0,1,.86.35,1.9,1.9,0,0,1,.66.6,1.73,1.73,0,0,1,.26,1,1.82,1.82,0,0,1-.67,1.49A2.72,2.72,0,0,1,213.7,535.69Zm4.88-.14v-9.43h1.26v9.43Zm-1.63-5.5V528.9h4.53v1.15Z"/><path class="cls-6" d="M266.35,523.33v-.08h2.73v.08a8.22,8.22,0,0,1-7.5,8.29,8.15,8.15,0,0,1,7.5,8.26V540h-2.73v-.08a5.37,5.37,0,0,0-5.29-5.47V528.8A5.39,5.39,0,0,0,266.35,523.33Z"/><path class="cls-6" d="M258.71,523.23v-.08h2.73v.08a8.2,8.2,0,0,1-7.49,8.28,8.21,8.21,0,0,1,7.49,8.29v.08h-2.73v-.08a5.36,5.36,0,0,0-5.29-5.46v-5.65A5.38,5.38,0,0,0,258.71,523.23Z"/><path class="cls-6" d="M270.44,526.15h2.48v11.44h-2.48Z"/><path class="cls-6" d="M293.92,517.36v-.13h-4.65v.13a14,14,0,0,0,12.78,14.19,14,14,0,0,0-12.78,14.19v.14h4.65v-.14a9.17,9.17,0,0,1,9-9.35v-9.67A9.17,9.17,0,0,1,293.92,517.36Z"/><path class="cls-6" d="M286.94,522.19h-4.23v19.6h4.23Z"/><path class="cls-6" d="M319.3,523.33v-.08h-2.73v.08a8.21,8.21,0,0,0,7.49,8.29,8.14,8.14,0,0,0-7.49,8.26V540h2.73v-.08a5.36,5.36,0,0,1,5.28-5.47V528.8A5.38,5.38,0,0,1,319.3,523.33Z"/><path class="cls-6" d="M326.94,523.23v-.08h-2.73v.08a8.2,8.2,0,0,0,7.49,8.28,8.2,8.2,0,0,0-7.49,8.29v.08h2.73v-.08a5.35,5.35,0,0,1,5.28-5.46v-5.65A5.37,5.37,0,0,1,326.94,523.23Z"/><path class="cls-6" d="M315.21,526.15h-2.49v11.44h2.49Z"/><rect class="cls-2" x="1.82" y="489.23" width="173" height="6"/><rect class="cls-2" x="1.82" y="71.23" width="1440" height="80"/><circle class="cls-7" cx="96.32" cy="111.23" r="12"/><path class="cls-4" d="M123.68,103.73V89.61h3.14v14.12Zm2.4,0V101h7.74v2.72Zm0-5.9V95.21h7v2.62Zm0-5.52v-2.7h7.64v2.7Zm16,11.42V98.19a1.61,1.61,0,0,0-.48-1.22,1.57,1.57,0,0,0-1.18-.48,1.79,1.79,0,0,0-.88.22,1.45,1.45,0,0,0-.6.6,1.72,1.72,0,0,0-.22.88l-1.18-.58a3.83,3.83,0,0,1,.5-2,3.38,3.38,0,0,1,1.38-1.32,4.22,4.22,0,0,1,2-.48,3.45,3.45,0,0,1,1.9.52,3.66,3.66,0,0,1,1.8,3.18v6.22Zm-6.42,0V94h3.06v9.72Zm19.39.2a4.62,4.62,0,0,1-2.46-.66,4.86,4.86,0,0,1-1.68-1.8,5.93,5.93,0,0,1,0-5.2,4.86,4.86,0,0,1,1.68-1.8,4.62,4.62,0,0,1,2.46-.66,4.17,4.17,0,0,1,1.8.38,3.53,3.53,0,0,1,1.34,1.06,2.64,2.64,0,0,1,.6,1.52v4.1a2.87,2.87,0,0,1-.58,1.56,3.73,3.73,0,0,1-1.34,1.1A4,4,0,0,1,155.1,103.93Zm.54-2.76a2.19,2.19,0,0,0,1.14-.28,2.07,2.07,0,0,0,.76-.82,2.45,2.45,0,0,0,.28-1.2,2.37,2.37,0,0,0-.28-1.18,1.88,1.88,0,0,0-.76-.82,2.06,2.06,0,0,0-1.12-.3,2.21,2.21,0,0,0-1.14.3,2.28,2.28,0,0,0-.78.82,2.54,2.54,0,0,0-.28,1.18,2.51,2.51,0,0,0,.28,1.18,2.12,2.12,0,0,0,.78.82A2.16,2.16,0,0,0,155.64,101.17Zm5.06,2.56h-3v-2.62l.46-2.36-.52-2.36V89.21h3.06Zm2.16,0V94h3.06v9.72Zm1.54-11.06a1.63,1.63,0,0,1-1.2-.48,1.68,1.68,0,0,1-.46-1.2,1.65,1.65,0,0,1,.46-1.2,1.63,1.63,0,0,1,1.2-.48,1.57,1.57,0,0,1,1.18.48A1.69,1.69,0,0,1,166,91a1.73,1.73,0,0,1-.46,1.2A1.57,1.57,0,0,1,164.4,92.67Zm3.67,11.06V94h3.06v9.72Zm3.06-5.34-1.28-1a5.54,5.54,0,0,1,1.28-2.64,3.32,3.32,0,0,1,2.5-.94,3.24,3.24,0,0,1,1.22.22,2.32,2.32,0,0,1,.94.64L174,97a1.39,1.39,0,0,0-.5-.34,1.83,1.83,0,0,0-.68-.12,1.61,1.61,0,0,0-1.22.48A2,2,0,0,0,171.13,98.39Zm10,5.56a6,6,0,0,1-2.82-.64,4.94,4.94,0,0,1-1.92-1.82,5.28,5.28,0,0,1,0-5.22,5.13,5.13,0,0,1,1.88-1.82,5.38,5.38,0,0,1,2.66-.66,5.11,5.11,0,0,1,2.54.62,4.44,4.44,0,0,1,1.72,1.72,4.89,4.89,0,0,1,.64,2.52,7.77,7.77,0,0,1-.14,1.22l-8.38,0v-2.1l7.08,0-1.32.88a3.57,3.57,0,0,0-.26-1.38,1.75,1.75,0,0,0-.72-.84,2,2,0,0,0-1.14-.3,2.29,2.29,0,0,0-1.26.34,2.23,2.23,0,0,0-.82.92,3.55,3.55,0,0,0-.28,1.46,3.37,3.37,0,0,0,.3,1.48,2.49,2.49,0,0,0,.88.94,2.82,2.82,0,0,0,1.36.32,3.35,3.35,0,0,0,1.3-.24,2.9,2.9,0,0,0,1-.76l1.68,1.68a4.54,4.54,0,0,1-1.74,1.26A5.8,5.8,0,0,1,181.13,104ZM192,104a5.61,5.61,0,0,1-2.72-.66,5,5,0,0,1-1.92-1.82,4.9,4.9,0,0,1-.7-2.6,4.85,4.85,0,0,1,.7-2.6,5.14,5.14,0,0,1,1.94-1.82,5.66,5.66,0,0,1,2.74-.66,5.21,5.21,0,0,1,2.08.4,4.77,4.77,0,0,1,1.7,1.16l-2,2a2.11,2.11,0,0,0-.8-.56,2.66,2.66,0,0,0-1-.18,2.33,2.33,0,0,0-1.18.3,2.19,2.19,0,0,0-.8.8,2.37,2.37,0,0,0-.28,1.18,2.45,2.45,0,0,0,.28,1.2,2.15,2.15,0,0,0,.82.82,2.28,2.28,0,0,0,1.16.3,2.71,2.71,0,0,0,1.06-.2,2.32,2.32,0,0,0,.82-.6l1.94,2a5.36,5.36,0,0,1-1.72,1.22A5.44,5.44,0,0,1,192,104Zm6.45-.22V90h3.06v13.74Zm-2.2-7.12V94h7.46v2.6ZM209.53,104a5.61,5.61,0,0,1-2.72-.66,5.16,5.16,0,0,1-1.9-1.84,4.9,4.9,0,0,1-.7-2.6,4.8,4.8,0,0,1,.7-2.58,5.06,5.06,0,0,1,1.9-1.8,5.46,5.46,0,0,1,2.72-.68,5.56,5.56,0,0,1,2.72.66,5,5,0,0,1,1.9,1.82,4.8,4.8,0,0,1,.7,2.58,4.9,4.9,0,0,1-.7,2.6,5.16,5.16,0,0,1-1.9,1.84A5.56,5.56,0,0,1,209.53,104Zm0-2.78a2.29,2.29,0,0,0,1.16-.28,1.94,1.94,0,0,0,.76-.82,2.58,2.58,0,0,0,.28-1.22,2.37,2.37,0,0,0-.28-1.18,2.07,2.07,0,0,0-.78-.8,2.11,2.11,0,0,0-1.14-.3,2.16,2.16,0,0,0-1.14.3,2.07,2.07,0,0,0-.78.8,2.47,2.47,0,0,0-.28,1.2,2.53,2.53,0,0,0,.28,1.2,2.12,2.12,0,0,0,.78.82A2.24,2.24,0,0,0,209.53,101.17ZM124.35,121V119.8H127a2,2,0,0,0,1-.22,1.69,1.69,0,0,0,.67-.63,2,2,0,0,0,0-1.93,1.69,1.69,0,0,0-.67-.63,2,2,0,0,0-1-.23h-2.65V115h2.73a3.46,3.46,0,0,1,1.6.36,2.68,2.68,0,0,1,1.12,1,2.82,2.82,0,0,1,.42,1.56,2.9,2.9,0,0,1-.42,1.57,2.81,2.81,0,0,1-1.12,1,3.46,3.46,0,0,1-1.6.36Zm-.88,3.78V115h1.32v9.71Zm8.27,0v-6.65H133v6.65Zm1.26-3.79-.48-.21a3.22,3.22,0,0,1,.59-2,2,2,0,0,1,1.69-.76,2.21,2.21,0,0,1,.91.18,2.15,2.15,0,0,1,.76.58l-.83.85a1.17,1.17,0,0,0-.46-.32,1.52,1.52,0,0,0-.59-.1,1.54,1.54,0,0,0-1.14.45A1.84,1.84,0,0,0,133,120.94Zm7.18,3.93a3.39,3.39,0,0,1-1.77-.46,3.48,3.48,0,0,1-1.71-3,3.29,3.29,0,0,1,.47-1.74,3.54,3.54,0,0,1,1.24-1.25,3.6,3.6,0,0,1,3.52,0,3.38,3.38,0,0,1,1.72,3,3.41,3.41,0,0,1-1.72,3A3.39,3.39,0,0,1,140.18,124.87Zm0-1.22a2.1,2.1,0,0,0,1.12-.29,2.19,2.19,0,0,0,.77-.8,2.47,2.47,0,0,0,.28-1.17,2.19,2.19,0,0,0-.3-1.15,2,2,0,0,0-.77-.79,2.07,2.07,0,0,0-1.1-.29,2.17,2.17,0,0,0-1.12.29,2,2,0,0,0-.77.79,2.28,2.28,0,0,0-.28,1.15,2.36,2.36,0,0,0,.28,1.17,2,2,0,0,0,.77.8A2.08,2.08,0,0,0,140.18,123.65Zm7.65,4a4.2,4.2,0,0,1-1.82-.38,3.12,3.12,0,0,1-1.26-1.06l.81-.83a2.65,2.65,0,0,0,1,.78,2.93,2.93,0,0,0,1.33.28,2.27,2.27,0,0,0,1.61-.54,1.82,1.82,0,0,0,.61-1.44v-1.66l.22-1.49-.22-1.49v-1.75h1.26v6.39a3,3,0,0,1-.45,1.66,3,3,0,0,1-1.23,1.12A3.94,3.94,0,0,1,147.83,127.66Zm0-3a3.08,3.08,0,0,1-2.78-1.62,3.57,3.57,0,0,1-.42-1.73,3.39,3.39,0,0,1,.42-1.69,3.18,3.18,0,0,1,1.14-1.19,3,3,0,0,1,1.64-.45,2.92,2.92,0,0,1,1.38.31,2.35,2.35,0,0,1,.95.87,2.37,2.37,0,0,1,.4,1.29v1.76a2.66,2.66,0,0,1-.41,1.29,2.37,2.37,0,0,1-1,.85A2.91,2.91,0,0,1,147.83,124.62Zm.25-1.19a2.11,2.11,0,0,0,1.08-.27,1.71,1.71,0,0,0,.72-.74,2.41,2.41,0,0,0,.26-1.13,2.21,2.21,0,0,0-.27-1.12,1.86,1.86,0,0,0-.71-.76,2.07,2.07,0,0,0-1.1-.28,2.09,2.09,0,0,0-1.1.28,2,2,0,0,0-.76.76,2.26,2.26,0,0,0-.26,1.1,2.37,2.37,0,0,0,.26,1.12,2,2,0,0,0,.76.77A2.26,2.26,0,0,0,148.08,123.43Zm5.1,1.3v-6.65h1.26v6.65Zm1.26-3.79-.48-.21a3.22,3.22,0,0,1,.59-2,2,2,0,0,1,1.69-.76,2.21,2.21,0,0,1,.91.18,2.24,2.24,0,0,1,.76.58l-.83.85a1.17,1.17,0,0,0-.46-.32,1.52,1.52,0,0,0-.59-.1,1.55,1.55,0,0,0-1.15.45A1.88,1.88,0,0,0,154.44,120.94Zm7,3.93a3.15,3.15,0,0,1-1.65-.45,3.32,3.32,0,0,1-1.17-1.24,3.7,3.7,0,0,1-.42-1.77,3.66,3.66,0,0,1,.42-1.76,3.4,3.4,0,0,1,1.16-1.25,3.14,3.14,0,0,1,1.66-.46,2.81,2.81,0,0,1,1.35.32,2.52,2.52,0,0,1,1,.87,2.49,2.49,0,0,1,.41,1.28v2a2.52,2.52,0,0,1-.41,1.27,2.44,2.44,0,0,1-1,.88A2.81,2.81,0,0,1,161.4,124.87Zm.21-1.19a2,2,0,0,0,1.52-.63,2.37,2.37,0,0,0,.57-1.64,2.52,2.52,0,0,0-.27-1.19,1.78,1.78,0,0,0-.72-.79,2.05,2.05,0,0,0-1.11-.3,2.11,2.11,0,0,0-1.12.3,2.05,2.05,0,0,0-.76.81,2.51,2.51,0,0,0-.26,1.16,2.67,2.67,0,0,0,.26,1.19,2.08,2.08,0,0,0,1.89,1.09Zm2,1v-1.79l.23-1.62-.23-1.61v-1.63h1.26v6.65Zm3.11,0v-6.65H168v6.65Zm4.5,0v-4a1.49,1.49,0,0,0-.46-1.16,1.56,1.56,0,0,0-1.13-.43,1.79,1.79,0,0,0-.84.19,1.64,1.64,0,0,0-.59.55,1.59,1.59,0,0,0-.21.84l-.53-.25a2.56,2.56,0,0,1,.33-1.32,2.45,2.45,0,0,1,.91-.87,2.61,2.61,0,0,1,1.28-.32,2.54,2.54,0,0,1,1.27.31,2.28,2.28,0,0,1,.9.87,2.55,2.55,0,0,1,.33,1.33v4.28Zm4.48,0v-4a1.49,1.49,0,0,0-.46-1.16,1.56,1.56,0,0,0-1.13-.43,1.78,1.78,0,0,0-.83.19,1.67,1.67,0,0,0-.6.55,1.59,1.59,0,0,0-.21.84l-.73-.25a2.75,2.75,0,0,1,.42-1.32,2.56,2.56,0,0,1,1-.87,2.72,2.72,0,0,1,1.3-.32,2.62,2.62,0,0,1,1.29.31,2.31,2.31,0,0,1,.91.87,2.41,2.41,0,0,1,.35,1.34v4.27Zm5.82.14a3.1,3.1,0,0,1-1.65-.45,3.27,3.27,0,0,1-1.18-1.24,3.7,3.7,0,0,1-.42-1.77,3.66,3.66,0,0,1,.42-1.76,3.49,3.49,0,0,1,1.16-1.25,3.17,3.17,0,0,1,1.67-.46,2.79,2.79,0,0,1,1.34.32,2.55,2.55,0,0,1,1,.87,2.59,2.59,0,0,1,.41,1.28v2a2.62,2.62,0,0,1-.41,1.27,2.44,2.44,0,0,1-1,.88A2.84,2.84,0,0,1,181.53,124.87Zm.21-1.19a2,2,0,0,0,1.51-.63,2.38,2.38,0,0,0,.58-1.64,2.52,2.52,0,0,0-.27-1.19,1.8,1.8,0,0,0-.73-.79,2,2,0,0,0-1.1-.3,2.09,2.09,0,0,0-1.12.3,2.05,2.05,0,0,0-.76.81,2.39,2.39,0,0,0-.27,1.16,2.54,2.54,0,0,0,.27,1.19,2.11,2.11,0,0,0,.77.8A2.2,2.2,0,0,0,181.74,123.68Zm2,1v-1.79l.24-1.62-.24-1.61v-1.63H185v6.65Zm10.39,0-2.07-2.91-.24-.22-2.62-3.52h1.53l1.89,2.59.24.2,2.8,3.86Zm-5,0,2.74-3.69.71.92-2,2.77Zm3.87-3.15-.72-.89,1.83-2.61h1.47Zm9.61,3.29a3.16,3.16,0,0,1-1.66-.45,3.32,3.32,0,0,1-1.17-1.24,3.7,3.7,0,0,1-.42-1.77,3.66,3.66,0,0,1,.42-1.76,3.4,3.4,0,0,1,1.16-1.25,3.17,3.17,0,0,1,1.67-.46,2.79,2.79,0,0,1,1.34.32,2.62,2.62,0,0,1,1,.87,2.58,2.58,0,0,1,.4,1.28v2a2.61,2.61,0,0,1-.4,1.27,2.47,2.47,0,0,1-1,.88A2.8,2.8,0,0,1,202.56,124.87Zm.21-1.19a2,2,0,0,0,1.51-.63,2.37,2.37,0,0,0,.57-1.64,2.64,2.64,0,0,0-.26-1.19,1.8,1.8,0,0,0-.73-.79,2.05,2.05,0,0,0-1.11-.3,2.11,2.11,0,0,0-1.12.3,2,2,0,0,0-.75.81,2.39,2.39,0,0,0-.27,1.16,2.54,2.54,0,0,0,.27,1.19,2,2,0,0,0,.77.8A2.17,2.17,0,0,0,202.77,123.68Zm2,1v-1.79l.24-1.62-.24-1.61v-5H206v10Zm6.19.14a3.55,3.55,0,0,1-1.79-.45,3.36,3.36,0,0,1-1.27-1.24,3.55,3.55,0,0,1-.46-1.78,3.47,3.47,0,0,1,.45-1.76,3.4,3.4,0,0,1,1.23-1.24,3.49,3.49,0,0,1,1.75-.46,3.12,3.12,0,0,1,1.63.42,2.93,2.93,0,0,1,1.1,1.16,3.48,3.48,0,0,1,.41,1.68c0,.1,0,.2,0,.31a3.49,3.49,0,0,1-.06.37h-5.61v-1h4.94l-.46.4a2.42,2.42,0,0,0-.24-1.13,1.72,1.72,0,0,0-.68-.73,1.91,1.91,0,0,0-1-.27,2.34,2.34,0,0,0-1.13.28,1.93,1.93,0,0,0-.76.79,2.85,2.85,0,0,0,0,2.42,2,2,0,0,0,.8.81,2.41,2.41,0,0,0,1.19.28,2.61,2.61,0,0,0,1-.19,2.18,2.18,0,0,0,.81-.59l.81.82a3,3,0,0,1-1.17.86A3.82,3.82,0,0,1,211,124.87Zm4.42-.14v-10h1.26v10Zm9.52.14a2.94,2.94,0,0,1-1.37-.31,2.5,2.5,0,0,1-1-.88,2.62,2.62,0,0,1-.41-1.27v-2a2.59,2.59,0,0,1,.41-1.28,2.65,2.65,0,0,1,1-.87,2.93,2.93,0,0,1,1.36-.32,3.1,3.1,0,0,1,1.64.46,3.32,3.32,0,0,1,1.16,1.25,3.66,3.66,0,0,1,.42,1.76,3.7,3.7,0,0,1-.42,1.77,3.22,3.22,0,0,1-1.16,1.24A3.09,3.09,0,0,1,224.9,124.87Zm-.21-1.19a2.07,2.07,0,0,0,1.1-.29,2,2,0,0,0,.76-.8,2.65,2.65,0,0,0,0-2.37,1.87,1.87,0,0,0-.76-.79,2.15,2.15,0,0,0-2.19,0,1.91,1.91,0,0,0-.75.79,2.7,2.7,0,0,0-.26,1.19,2.65,2.65,0,0,0,.25,1.18,2,2,0,0,0,.74.8A2.19,2.19,0,0,0,224.69,123.68Zm-3.29,3.84v-9.44h1.26v1.75l-.24,1.61.24,1.63v4.45Zm11.19-2.65a3.39,3.39,0,0,1-3-1.71,3.44,3.44,0,0,1-.47-1.77,3.29,3.29,0,0,1,.47-1.74,3.52,3.52,0,0,1,4.76-1.25,3.24,3.24,0,0,1,1.25,1.24,3.35,3.35,0,0,1,.47,1.75,3.44,3.44,0,0,1-.47,1.77,3.33,3.33,0,0,1-1.25,1.25A3.39,3.39,0,0,1,232.59,124.87Zm0-1.22a2.07,2.07,0,0,0,1.11-.29,2.14,2.14,0,0,0,.78-.8,2.46,2.46,0,0,0,.27-1.17,2.19,2.19,0,0,0-.29-1.15,2,2,0,0,0-.77-.79,2.12,2.12,0,0,0-1.1-.29,2.17,2.17,0,0,0-1.12.29,2,2,0,0,0-.77.79,2.28,2.28,0,0,0-.28,1.15,2.36,2.36,0,0,0,.28,1.17,2,2,0,0,0,.77.8A2.08,2.08,0,0,0,232.59,123.65Zm7.72,1.22a3.16,3.16,0,0,1-1.66-.45,3.32,3.32,0,0,1-1.17-1.24,3.7,3.7,0,0,1-.42-1.77,3.66,3.66,0,0,1,.42-1.76,3.4,3.4,0,0,1,1.16-1.25,3.15,3.15,0,0,1,1.67-.46,2.79,2.79,0,0,1,1.34.32,2.62,2.62,0,0,1,1,.87,2.58,2.58,0,0,1,.4,1.28v2a2.61,2.61,0,0,1-.4,1.27,2.54,2.54,0,0,1-1,.88A2.8,2.8,0,0,1,240.31,124.87Zm.2-1.19a2,2,0,0,0,1.52-.63,2.37,2.37,0,0,0,.57-1.64,2.64,2.64,0,0,0-.26-1.19,1.86,1.86,0,0,0-.73-.79,2.05,2.05,0,0,0-1.11-.3,2.11,2.11,0,0,0-1.12.3,2.05,2.05,0,0,0-.76.81,2.51,2.51,0,0,0-.26,1.16,2.67,2.67,0,0,0,.26,1.19,2.08,2.08,0,0,0,1.89,1.09Zm2,1v-1.79l.23-1.62-.23-1.61v-5h1.26v10Zm6.14.14a3.43,3.43,0,0,1-3-1.71,3.52,3.52,0,0,1-.45-1.76,3.47,3.47,0,0,1,.45-1.76,3.31,3.31,0,0,1,1.25-1.24,3.54,3.54,0,0,1,1.77-.46,3.39,3.39,0,0,1,1.43.3,3.08,3.08,0,0,1,1.14.82l-.84.84a2,2,0,0,0-.76-.54,2.37,2.37,0,0,0-2.09.09,2.09,2.09,0,0,0-.77.79,2.54,2.54,0,0,0,0,2.32,2.19,2.19,0,0,0,.77.8,2.1,2.1,0,0,0,1.12.29,2.5,2.5,0,0,0,1-.18,2.25,2.25,0,0,0,.77-.56l.83.84a3.17,3.17,0,0,1-1.14.83A3.55,3.55,0,0,1,248.66,124.87Zm6.51,0a3.16,3.16,0,0,1-1.66-.45,3.32,3.32,0,0,1-1.17-1.24,3.7,3.7,0,0,1-.42-1.77,3.66,3.66,0,0,1,.42-1.76,3.4,3.4,0,0,1,1.16-1.25,3.15,3.15,0,0,1,1.67-.46,2.79,2.79,0,0,1,1.34.32,2.62,2.62,0,0,1,1,.87,2.58,2.58,0,0,1,.4,1.28v2a2.61,2.61,0,0,1-.4,1.27,2.47,2.47,0,0,1-1,.88A2.8,2.8,0,0,1,255.17,124.87Zm.21-1.19a2,2,0,0,0,1.51-.63,2.37,2.37,0,0,0,.57-1.64,2.64,2.64,0,0,0-.26-1.19,1.86,1.86,0,0,0-.73-.79,2.05,2.05,0,0,0-1.11-.3,2.11,2.11,0,0,0-1.12.3,2,2,0,0,0-.75.81,2.39,2.39,0,0,0-.27,1.16,2.54,2.54,0,0,0,.27,1.19,2,2,0,0,0,.77.8A2.17,2.17,0,0,0,255.38,123.68Zm2,1v-1.79l.24-1.62-.24-1.61v-1.63h1.26v6.65Zm5.22.14a3.67,3.67,0,0,1-1.06-.14,3.59,3.59,0,0,1-.91-.42,2.88,2.88,0,0,1-.73-.66l.81-.81a2.33,2.33,0,0,0,.84.67,2.61,2.61,0,0,0,1.06.21,1.74,1.74,0,0,0,.91-.19.65.65,0,0,0,.33-.58.67.67,0,0,0-.27-.56,1.86,1.86,0,0,0-.66-.33c-.27-.1-.56-.18-.87-.27a5.24,5.24,0,0,1-.85-.35,1.94,1.94,0,0,1-.67-.57,1.66,1.66,0,0,1-.25-1,1.74,1.74,0,0,1,.29-1,2,2,0,0,1,.81-.69,3.11,3.11,0,0,1,1.28-.24,3.18,3.18,0,0,1,1.38.28,2.43,2.43,0,0,1,1,.81l-.81.82a1.81,1.81,0,0,0-.7-.56,2,2,0,0,0-.93-.2,1.45,1.45,0,0,0-.84.2.59.59,0,0,0-.28.51.6.6,0,0,0,.26.52,2.07,2.07,0,0,0,.65.31l.87.27a3.79,3.79,0,0,1,.86.35,1.79,1.79,0,0,1,.65.6,1.66,1.66,0,0,1,.27,1,1.82,1.82,0,0,1-.67,1.49A2.72,2.72,0,0,1,262.6,124.87Zm4.88-.14V115.3h1.26v9.43Zm-1.64-5.5v-1.15h4.54v1.15Z"/><path class="cls-3" d="M704.15,99.57v-.11h4v.11a11.74,11.74,0,0,1-10.85,11.75A11.67,11.67,0,0,1,708.1,123v.11h-4V123a7.68,7.68,0,0,0-7.65-7.75v-8A7.7,7.7,0,0,0,704.15,99.57Z"/><path class="cls-3" d="M693.08,99.42v-.1H697v.1a11.74,11.74,0,0,1-10.85,11.76A11.71,11.71,0,0,1,697,122.93V123h-3.95v-.11a7.68,7.68,0,0,0-7.65-7.75v-8A7.7,7.7,0,0,0,693.08,99.42Z"/><path class="cls-3" d="M710.08,103.57h3.59V119.8h-3.59Z"/><g class="cls-8"><path class="cls-3" d="M743.52,123.73v-4.26a8.49,8.49,0,0,0,8.67-8.24v-.11h4.48v.11C756.67,118.12,750.77,123.73,743.52,123.73Z"/><path class="cls-3" d="M741.44,123.73h-1.59c-6.8-.5-12.18-5.88-12.18-12.46,0-6.93,5.91-12.5,13.16-12.5h.61V103c-.2,0-.41,0-.61,0a8.27,8.27,0,1,0,0,16.52,3.13,3.13,0,0,0,.61,0Z"/></g><path class="cls-3" d="M786.92,91.1v-.18h-6.74v.18a20.08,20.08,0,0,0,18.51,20.13,20,20,0,0,0-18.51,20.13v.19h6.74v-.19A13.13,13.13,0,0,1,800,118.09V104.38A13.14,13.14,0,0,1,786.92,91.1Z"/><path class="cls-3" d="M776.8,98h-6.13v27.79h6.13Z"/><g class="cls-9"><path class="cls-3" d="M827.58,123.73v-4.26c-4.93,0-9-3.71-9-8.24v-.11H814v.11C814,118.12,820.08,123.73,827.58,123.73Z"/><path class="cls-3" d="M829.73,123.73h1.65c7-.5,12.59-5.88,12.59-12.46,0-6.93-6.1-12.5-13.6-12.5h-.64V103c.21,0,.42,0,.64,0,4.93,0,9,3.71,9,8.28s-4,8.24-9,8.24a3.39,3.39,0,0,1-.64,0Z"/></g><path class="cls-3" d="M867.5,99.57v-.11h-4v.11a11.73,11.73,0,0,0,10.85,11.75A11.66,11.66,0,0,0,863.55,123v.11h4V123a7.68,7.68,0,0,1,7.65-7.75v-8A7.7,7.7,0,0,1,867.5,99.57Z"/><path class="cls-3" d="M878.57,99.42v-.1h-4v.1a11.75,11.75,0,0,0,10.86,11.76,11.72,11.72,0,0,0-10.86,11.75V123h4v-.11a7.68,7.68,0,0,1,7.65-7.75v-8A7.7,7.7,0,0,1,878.57,99.42Z"/><path class="cls-3" d="M861.57,103.57H858V119.8h3.6Z"/><g class="cls-10"><path class="cls-4" d="M1303.11,113.76l-2.23,2.3,7.92,8.16,2.23-2.3Z"/><path class="cls-4" d="M1319.27,104.34a6.89,6.89,0,0,0-9.93,0l2.23,2.31a3.77,3.77,0,0,1,5.46,0,4.05,4.05,0,0,1,0,5.62l2.24,2.31A7.41,7.41,0,0,0,1319.27,104.34Z"/><path class="cls-4" d="M1301.61,106.65a3.77,3.77,0,0,1,5.46,0l2.23-2.31a6.89,6.89,0,0,0-9.93,0,7.41,7.41,0,0,0,0,10.24l2.24-2.31A4.11,4.11,0,0,1,1301.61,106.65Z"/></g><g class="cls-11"><path class="cls-4" d="M1347.82,111.25a9,9,0,0,0,9.12,8.93v-3a5.89,5.89,0,1,1,0-11.78v-3A9,9,0,0,0,1347.82,111.25Z"/><path class="cls-4" d="M1368.83,102.32v-.09h-3.1v.09a9.06,9.06,0,0,0,8.53,8.93,9,9,0,0,0-8.53,8.93v.08h3.1v-.08a5.94,5.94,0,0,1,6-5.89V108.2A5.94,5.94,0,0,1,1368.83,102.32Z"/><path class="cls-4" d="M1362.22,107.87a3.38,3.38,0,1,0,3.45,3.38A3.42,3.42,0,0,0,1362.22,107.87Z"/></g><rect class="cls-5" x="1.82" y="207.23" width="1440" height="80"/><circle class="cls-7" cx="96.32" cy="247.23" r="12"/><path class="cls-2" d="M123.68,239.73V225.61h3.14v14.12Zm2.4,0V237h7.74v2.72Zm0-5.9v-2.62h7v2.62Zm0-5.52v-2.7h7.64v2.7Zm16,11.42v-5.54a1.61,1.61,0,0,0-.48-1.22,1.57,1.57,0,0,0-1.18-.48,1.79,1.79,0,0,0-.88.22,1.45,1.45,0,0,0-.6.6,1.72,1.72,0,0,0-.22.88l-1.18-.58a3.83,3.83,0,0,1,.5-2,3.38,3.38,0,0,1,1.38-1.32,4.22,4.22,0,0,1,2-.48,3.45,3.45,0,0,1,1.9.52,3.66,3.66,0,0,1,1.8,3.18v6.22Zm-6.42,0V230h3.06v9.72Zm19.39.2a4.62,4.62,0,0,1-2.46-.66,4.86,4.86,0,0,1-1.68-1.8,5.93,5.93,0,0,1,0-5.2,4.86,4.86,0,0,1,1.68-1.8,4.62,4.62,0,0,1,2.46-.66,4.17,4.17,0,0,1,1.8.38,3.53,3.53,0,0,1,1.34,1.06,2.64,2.64,0,0,1,.6,1.52v4.1a2.87,2.87,0,0,1-.58,1.56,3.73,3.73,0,0,1-1.34,1.1A4,4,0,0,1,155.1,239.93Zm.54-2.76a2.19,2.19,0,0,0,1.14-.28,2.07,2.07,0,0,0,.76-.82,2.45,2.45,0,0,0,.28-1.2,2.37,2.37,0,0,0-.28-1.18,1.88,1.88,0,0,0-.76-.82,2.06,2.06,0,0,0-1.12-.3,2.21,2.21,0,0,0-1.14.3,2.28,2.28,0,0,0-.78.82,2.54,2.54,0,0,0-.28,1.18,2.51,2.51,0,0,0,.28,1.18,2.12,2.12,0,0,0,.78.82A2.16,2.16,0,0,0,155.64,237.17Zm5.06,2.56h-3v-2.62l.46-2.36-.52-2.36v-7.18h3.06Zm2.16,0V230h3.06v9.72Zm1.54-11.06a1.63,1.63,0,0,1-1.2-.48,1.68,1.68,0,0,1-.46-1.2,1.65,1.65,0,0,1,.46-1.2,1.63,1.63,0,0,1,1.2-.48,1.57,1.57,0,0,1,1.18.48A1.69,1.69,0,0,1,166,227a1.73,1.73,0,0,1-.46,1.2A1.57,1.57,0,0,1,164.4,228.67Zm3.67,11.06V230h3.06v9.72Zm3.06-5.34-1.28-1a5.54,5.54,0,0,1,1.28-2.64,3.32,3.32,0,0,1,2.5-.94,3.24,3.24,0,0,1,1.22.22,2.32,2.32,0,0,1,.94.64L174,233a1.39,1.39,0,0,0-.5-.34,1.83,1.83,0,0,0-.68-.12,1.61,1.61,0,0,0-1.22.48A2,2,0,0,0,171.13,234.39Zm10,5.56a6,6,0,0,1-2.82-.64,4.94,4.94,0,0,1-1.92-1.82,5.28,5.28,0,0,1,0-5.22,5.13,5.13,0,0,1,1.88-1.82,5.38,5.38,0,0,1,2.66-.66,5.11,5.11,0,0,1,2.54.62,4.44,4.44,0,0,1,1.72,1.72,4.89,4.89,0,0,1,.64,2.52,7.77,7.77,0,0,1-.14,1.22l-8.38,0v-2.1l7.08,0-1.32.88a3.57,3.57,0,0,0-.26-1.38,1.75,1.75,0,0,0-.72-.84,2,2,0,0,0-1.14-.3,2.29,2.29,0,0,0-1.26.34,2.23,2.23,0,0,0-.82.92,3.55,3.55,0,0,0-.28,1.46,3.37,3.37,0,0,0,.3,1.48,2.49,2.49,0,0,0,.88.94,2.82,2.82,0,0,0,1.36.32,3.35,3.35,0,0,0,1.3-.24,2.9,2.9,0,0,0,1-.76l1.68,1.68a4.54,4.54,0,0,1-1.74,1.26A5.8,5.8,0,0,1,181.13,240ZM192,240a5.61,5.61,0,0,1-2.72-.66,5,5,0,0,1-1.92-1.82,4.9,4.9,0,0,1-.7-2.6,4.85,4.85,0,0,1,.7-2.6,5.14,5.14,0,0,1,1.94-1.82,5.66,5.66,0,0,1,2.74-.66,5.21,5.21,0,0,1,2.08.4,4.77,4.77,0,0,1,1.7,1.16l-2,2a2.11,2.11,0,0,0-.8-.56,2.66,2.66,0,0,0-1-.18,2.33,2.33,0,0,0-1.18.3,2.19,2.19,0,0,0-.8.8,2.37,2.37,0,0,0-.28,1.18,2.45,2.45,0,0,0,.28,1.2,2.15,2.15,0,0,0,.82.82,2.28,2.28,0,0,0,1.16.3,2.71,2.71,0,0,0,1.06-.2,2.32,2.32,0,0,0,.82-.6l1.94,2a5.36,5.36,0,0,1-1.72,1.22A5.44,5.44,0,0,1,192,240Zm6.45-.22V226h3.06v13.74Zm-2.2-7.12V230h7.46v2.6ZM209.53,240a5.61,5.61,0,0,1-2.72-.66,5.16,5.16,0,0,1-1.9-1.84,4.9,4.9,0,0,1-.7-2.6,4.8,4.8,0,0,1,.7-2.58,5.06,5.06,0,0,1,1.9-1.8,5.46,5.46,0,0,1,2.72-.68,5.56,5.56,0,0,1,2.72.66,5,5,0,0,1,1.9,1.82,4.8,4.8,0,0,1,.7,2.58,4.9,4.9,0,0,1-.7,2.6,5.16,5.16,0,0,1-1.9,1.84A5.56,5.56,0,0,1,209.53,240Zm0-2.78a2.29,2.29,0,0,0,1.16-.28,1.94,1.94,0,0,0,.76-.82,2.58,2.58,0,0,0,.28-1.22,2.37,2.37,0,0,0-.28-1.18,2.07,2.07,0,0,0-.78-.8,2.11,2.11,0,0,0-1.14-.3,2.16,2.16,0,0,0-1.14.3,2.07,2.07,0,0,0-.78.8,2.47,2.47,0,0,0-.28,1.2,2.53,2.53,0,0,0,.28,1.2,2.12,2.12,0,0,0,.78.82A2.24,2.24,0,0,0,209.53,237.17ZM124.35,257V255.8H127a2,2,0,0,0,1-.22,1.69,1.69,0,0,0,.67-.63,2,2,0,0,0,0-1.93,1.69,1.69,0,0,0-.67-.63,2,2,0,0,0-1-.23h-2.65V251h2.73a3.46,3.46,0,0,1,1.6.36,2.68,2.68,0,0,1,1.12,1,2.82,2.82,0,0,1,.42,1.56,2.9,2.9,0,0,1-.42,1.57,2.81,2.81,0,0,1-1.12,1,3.46,3.46,0,0,1-1.6.36Zm-.88,3.78V251h1.32v9.71Zm8.27,0v-6.65H133v6.65Zm1.26-3.79-.48-.21a3.22,3.22,0,0,1,.59-2,2,2,0,0,1,1.69-.76,2.21,2.21,0,0,1,.91.18,2.15,2.15,0,0,1,.76.58l-.83.85a1.17,1.17,0,0,0-.46-.32,1.52,1.52,0,0,0-.59-.1,1.54,1.54,0,0,0-1.14.45A1.84,1.84,0,0,0,133,256.94Zm7.18,3.93a3.39,3.39,0,0,1-1.77-.46,3.48,3.48,0,0,1-1.71-3,3.29,3.29,0,0,1,.47-1.74,3.54,3.54,0,0,1,1.24-1.25,3.6,3.6,0,0,1,3.52,0,3.38,3.38,0,0,1,1.72,3,3.41,3.41,0,0,1-1.72,3A3.39,3.39,0,0,1,140.18,260.87Zm0-1.22a2.1,2.1,0,0,0,1.12-.29,2.19,2.19,0,0,0,.77-.8,2.47,2.47,0,0,0,.28-1.17,2.19,2.19,0,0,0-.3-1.15,2,2,0,0,0-.77-.79,2.07,2.07,0,0,0-1.1-.29,2.17,2.17,0,0,0-1.12.29,2,2,0,0,0-.77.79,2.28,2.28,0,0,0-.28,1.15,2.36,2.36,0,0,0,.28,1.17,2,2,0,0,0,.77.8A2.08,2.08,0,0,0,140.18,259.65Zm7.65,4a4.2,4.2,0,0,1-1.82-.38,3.12,3.12,0,0,1-1.26-1.06l.81-.83a2.65,2.65,0,0,0,1,.78,2.93,2.93,0,0,0,1.33.28,2.27,2.27,0,0,0,1.61-.54,1.82,1.82,0,0,0,.61-1.44v-1.66l.22-1.49-.22-1.49v-1.75h1.26v6.39a3,3,0,0,1-.45,1.66,3,3,0,0,1-1.23,1.12A3.94,3.94,0,0,1,147.83,263.66Zm0-3a3.08,3.08,0,0,1-2.78-1.62,3.57,3.57,0,0,1-.42-1.73,3.39,3.39,0,0,1,.42-1.69,3.18,3.18,0,0,1,1.14-1.19,3,3,0,0,1,1.64-.45,2.92,2.92,0,0,1,1.38.31,2.35,2.35,0,0,1,.95.87,2.37,2.37,0,0,1,.4,1.29v1.76a2.66,2.66,0,0,1-.41,1.29,2.37,2.37,0,0,1-1,.85A2.91,2.91,0,0,1,147.83,260.62Zm.25-1.19a2.11,2.11,0,0,0,1.08-.27,1.71,1.71,0,0,0,.72-.74,2.41,2.41,0,0,0,.26-1.13,2.21,2.21,0,0,0-.27-1.12,1.86,1.86,0,0,0-.71-.76,2.07,2.07,0,0,0-1.1-.28,2.09,2.09,0,0,0-1.1.28,2,2,0,0,0-.76.76,2.26,2.26,0,0,0-.26,1.1,2.37,2.37,0,0,0,.26,1.12,2,2,0,0,0,.76.77A2.26,2.26,0,0,0,148.08,259.43Zm5.1,1.3v-6.65h1.26v6.65Zm1.26-3.79-.48-.21a3.22,3.22,0,0,1,.59-2,2,2,0,0,1,1.69-.76,2.21,2.21,0,0,1,.91.18,2.24,2.24,0,0,1,.76.58l-.83.85a1.17,1.17,0,0,0-.46-.32,1.52,1.52,0,0,0-.59-.1,1.55,1.55,0,0,0-1.15.45A1.88,1.88,0,0,0,154.44,256.94Zm7,3.93a3.15,3.15,0,0,1-1.65-.45,3.32,3.32,0,0,1-1.17-1.24,3.7,3.7,0,0,1-.42-1.77,3.66,3.66,0,0,1,.42-1.76,3.4,3.4,0,0,1,1.16-1.25,3.14,3.14,0,0,1,1.66-.46,2.81,2.81,0,0,1,1.35.32,2.52,2.52,0,0,1,1,.87,2.49,2.49,0,0,1,.41,1.28v2a2.52,2.52,0,0,1-.41,1.27,2.44,2.44,0,0,1-1,.88A2.81,2.81,0,0,1,161.4,260.87Zm.21-1.19a2,2,0,0,0,1.52-.63,2.37,2.37,0,0,0,.57-1.64,2.52,2.52,0,0,0-.27-1.19,1.78,1.78,0,0,0-.72-.79,2.05,2.05,0,0,0-1.11-.3,2.11,2.11,0,0,0-1.12.3,2.05,2.05,0,0,0-.76.81,2.51,2.51,0,0,0-.26,1.16,2.67,2.67,0,0,0,.26,1.19,2.08,2.08,0,0,0,1.89,1.09Zm2,1.05v-1.79l.23-1.62-.23-1.61v-1.63h1.26v6.65Zm3.11,0v-6.65H168v6.65Zm4.5,0v-4a1.49,1.49,0,0,0-.46-1.16,1.56,1.56,0,0,0-1.13-.43,1.79,1.79,0,0,0-.84.19,1.64,1.64,0,0,0-.59.55,1.59,1.59,0,0,0-.21.84l-.53-.25a2.56,2.56,0,0,1,.33-1.32,2.45,2.45,0,0,1,.91-.87,2.61,2.61,0,0,1,1.28-.32,2.54,2.54,0,0,1,1.27.31,2.28,2.28,0,0,1,.9.87,2.55,2.55,0,0,1,.33,1.33v4.28Zm4.48,0v-4a1.49,1.49,0,0,0-.46-1.16,1.56,1.56,0,0,0-1.13-.43,1.78,1.78,0,0,0-.83.19,1.67,1.67,0,0,0-.6.55,1.59,1.59,0,0,0-.21.84l-.73-.25a2.75,2.75,0,0,1,.42-1.32,2.56,2.56,0,0,1,1-.87,2.72,2.72,0,0,1,1.3-.32,2.62,2.62,0,0,1,1.29.31,2.31,2.31,0,0,1,.91.87,2.41,2.41,0,0,1,.35,1.34v4.27Zm5.82.14a3.1,3.1,0,0,1-1.65-.45,3.27,3.27,0,0,1-1.18-1.24,3.7,3.7,0,0,1-.42-1.77,3.66,3.66,0,0,1,.42-1.76,3.49,3.49,0,0,1,1.16-1.25,3.17,3.17,0,0,1,1.67-.46,2.79,2.79,0,0,1,1.34.32,2.55,2.55,0,0,1,1,.87,2.59,2.59,0,0,1,.41,1.28v2a2.62,2.62,0,0,1-.41,1.27,2.44,2.44,0,0,1-1,.88A2.84,2.84,0,0,1,181.53,260.87Zm.21-1.19a2,2,0,0,0,1.51-.63,2.38,2.38,0,0,0,.58-1.64,2.52,2.52,0,0,0-.27-1.19,1.8,1.8,0,0,0-.73-.79,2,2,0,0,0-1.1-.3,2.09,2.09,0,0,0-1.12.3,2.05,2.05,0,0,0-.76.81,2.39,2.39,0,0,0-.27,1.16,2.54,2.54,0,0,0,.27,1.19,2.11,2.11,0,0,0,.77.8A2.2,2.2,0,0,0,181.74,259.68Zm2,1.05v-1.79l.24-1.62-.24-1.61v-1.63H185v6.65Zm10.39,0-2.07-2.91-.24-.22-2.62-3.52h1.53l1.89,2.59.24.2,2.8,3.86Zm-5,0,2.74-3.69.71.92-2,2.77Zm3.87-3.15-.72-.89,1.83-2.61h1.47Zm9.61,3.29a3.16,3.16,0,0,1-1.66-.45,3.32,3.32,0,0,1-1.17-1.24,3.7,3.7,0,0,1-.42-1.77,3.66,3.66,0,0,1,.42-1.76,3.4,3.4,0,0,1,1.16-1.25,3.17,3.17,0,0,1,1.67-.46,2.79,2.79,0,0,1,1.34.32,2.62,2.62,0,0,1,1,.87,2.58,2.58,0,0,1,.4,1.28v2a2.61,2.61,0,0,1-.4,1.27,2.47,2.47,0,0,1-1,.88A2.8,2.8,0,0,1,202.56,260.87Zm.21-1.19a2,2,0,0,0,1.51-.63,2.37,2.37,0,0,0,.57-1.64,2.64,2.64,0,0,0-.26-1.19,1.8,1.8,0,0,0-.73-.79,2.05,2.05,0,0,0-1.11-.3,2.11,2.11,0,0,0-1.12.3,2,2,0,0,0-.75.81,2.39,2.39,0,0,0-.27,1.16,2.54,2.54,0,0,0,.27,1.19,2,2,0,0,0,.77.8A2.17,2.17,0,0,0,202.77,259.68Zm2,1.05v-1.79l.24-1.62-.24-1.61v-5H206v10Zm6.19.14a3.55,3.55,0,0,1-1.79-.45,3.36,3.36,0,0,1-1.27-1.24,3.55,3.55,0,0,1-.46-1.78,3.47,3.47,0,0,1,.45-1.76,3.4,3.4,0,0,1,1.23-1.24,3.49,3.49,0,0,1,1.75-.46,3.12,3.12,0,0,1,1.63.42,2.93,2.93,0,0,1,1.1,1.16,3.48,3.48,0,0,1,.41,1.68c0,.1,0,.2,0,.31a3.49,3.49,0,0,1-.06.37h-5.61v-1.05h4.94l-.46.4a2.42,2.42,0,0,0-.24-1.13,1.72,1.72,0,0,0-.68-.73,1.91,1.91,0,0,0-1-.27,2.34,2.34,0,0,0-1.13.28,1.93,1.93,0,0,0-.76.79,2.85,2.85,0,0,0,0,2.42,2,2,0,0,0,.8.81,2.41,2.41,0,0,0,1.19.28,2.61,2.61,0,0,0,1-.19,2.18,2.18,0,0,0,.81-.59l.81.82a3,3,0,0,1-1.17.86A3.82,3.82,0,0,1,211,260.87Zm4.42-.14v-10h1.26v10Zm9.52.14a2.94,2.94,0,0,1-1.37-.31,2.5,2.5,0,0,1-1-.88,2.62,2.62,0,0,1-.41-1.27v-2a2.59,2.59,0,0,1,.41-1.28,2.65,2.65,0,0,1,1-.87,2.93,2.93,0,0,1,1.36-.32,3.1,3.1,0,0,1,1.64.46,3.32,3.32,0,0,1,1.16,1.25,3.66,3.66,0,0,1,.42,1.76,3.7,3.7,0,0,1-.42,1.77,3.22,3.22,0,0,1-1.16,1.24A3.09,3.09,0,0,1,224.9,260.87Zm-.21-1.19a2.07,2.07,0,0,0,1.1-.29,2,2,0,0,0,.76-.8,2.65,2.65,0,0,0,0-2.37,1.87,1.87,0,0,0-.76-.79,2.15,2.15,0,0,0-2.19,0,1.91,1.91,0,0,0-.75.79,2.7,2.7,0,0,0-.26,1.19,2.65,2.65,0,0,0,.25,1.18,2,2,0,0,0,.74.8A2.19,2.19,0,0,0,224.69,259.68Zm-3.29,3.84v-9.44h1.26v1.75l-.24,1.61.24,1.63v4.45Zm11.19-2.65a3.39,3.39,0,0,1-3-1.71,3.44,3.44,0,0,1-.47-1.77,3.29,3.29,0,0,1,.47-1.74,3.52,3.52,0,0,1,4.76-1.25,3.24,3.24,0,0,1,1.25,1.24,3.35,3.35,0,0,1,.47,1.75,3.44,3.44,0,0,1-.47,1.77,3.33,3.33,0,0,1-1.25,1.25A3.39,3.39,0,0,1,232.59,260.87Zm0-1.22a2.07,2.07,0,0,0,1.11-.29,2.14,2.14,0,0,0,.78-.8,2.46,2.46,0,0,0,.27-1.17,2.19,2.19,0,0,0-.29-1.15,2,2,0,0,0-.77-.79,2.12,2.12,0,0,0-1.1-.29,2.17,2.17,0,0,0-1.12.29,2,2,0,0,0-.77.79,2.28,2.28,0,0,0-.28,1.15,2.36,2.36,0,0,0,.28,1.17,2,2,0,0,0,.77.8A2.08,2.08,0,0,0,232.59,259.65Zm7.72,1.22a3.16,3.16,0,0,1-1.66-.45,3.32,3.32,0,0,1-1.17-1.24,3.7,3.7,0,0,1-.42-1.77,3.66,3.66,0,0,1,.42-1.76,3.4,3.4,0,0,1,1.16-1.25,3.15,3.15,0,0,1,1.67-.46,2.79,2.79,0,0,1,1.34.32,2.62,2.62,0,0,1,1,.87,2.58,2.58,0,0,1,.4,1.28v2a2.61,2.61,0,0,1-.4,1.27,2.54,2.54,0,0,1-1,.88A2.8,2.8,0,0,1,240.31,260.87Zm.2-1.19a2,2,0,0,0,1.52-.63,2.37,2.37,0,0,0,.57-1.64,2.64,2.64,0,0,0-.26-1.19,1.86,1.86,0,0,0-.73-.79,2.05,2.05,0,0,0-1.11-.3,2.11,2.11,0,0,0-1.12.3,2.05,2.05,0,0,0-.76.81,2.51,2.51,0,0,0-.26,1.16,2.67,2.67,0,0,0,.26,1.19,2.08,2.08,0,0,0,1.89,1.09Zm2,1.05v-1.79l.23-1.62-.23-1.61v-5h1.26v10Zm6.14.14a3.43,3.43,0,0,1-3-1.71,3.52,3.52,0,0,1-.45-1.76,3.47,3.47,0,0,1,.45-1.76,3.31,3.31,0,0,1,1.25-1.24,3.54,3.54,0,0,1,1.77-.46,3.39,3.39,0,0,1,1.43.3,3.08,3.08,0,0,1,1.14.82l-.84.84a2,2,0,0,0-.76-.54,2.37,2.37,0,0,0-2.09.09,2.09,2.09,0,0,0-.77.79,2.54,2.54,0,0,0,0,2.32,2.19,2.19,0,0,0,.77.8,2.1,2.1,0,0,0,1.12.29,2.5,2.5,0,0,0,1-.18,2.25,2.25,0,0,0,.77-.56l.83.84a3.17,3.17,0,0,1-1.14.83A3.55,3.55,0,0,1,248.66,260.87Zm6.51,0a3.16,3.16,0,0,1-1.66-.45,3.32,3.32,0,0,1-1.17-1.24,3.7,3.7,0,0,1-.42-1.77,3.66,3.66,0,0,1,.42-1.76,3.4,3.4,0,0,1,1.16-1.25,3.15,3.15,0,0,1,1.67-.46,2.79,2.79,0,0,1,1.34.32,2.62,2.62,0,0,1,1,.87,2.58,2.58,0,0,1,.4,1.28v2a2.61,2.61,0,0,1-.4,1.27,2.47,2.47,0,0,1-1,.88A2.8,2.8,0,0,1,255.17,260.87Zm.21-1.19a2,2,0,0,0,1.51-.63,2.37,2.37,0,0,0,.57-1.64,2.64,2.64,0,0,0-.26-1.19,1.86,1.86,0,0,0-.73-.79,2.05,2.05,0,0,0-1.11-.3,2.11,2.11,0,0,0-1.12.3,2,2,0,0,0-.75.81,2.39,2.39,0,0,0-.27,1.16,2.54,2.54,0,0,0,.27,1.19,2,2,0,0,0,.77.8A2.17,2.17,0,0,0,255.38,259.68Zm2,1.05v-1.79l.24-1.62-.24-1.61v-1.63h1.26v6.65Zm5.22.14a3.67,3.67,0,0,1-1.06-.14,3.59,3.59,0,0,1-.91-.42,2.88,2.88,0,0,1-.73-.66l.81-.81a2.33,2.33,0,0,0,.84.67,2.61,2.61,0,0,0,1.06.21,1.74,1.74,0,0,0,.91-.19.65.65,0,0,0,.33-.58.67.67,0,0,0-.27-.56,1.86,1.86,0,0,0-.66-.33c-.27-.1-.56-.18-.87-.27a5.24,5.24,0,0,1-.85-.35,1.94,1.94,0,0,1-.67-.57,1.66,1.66,0,0,1-.25-1,1.74,1.74,0,0,1,.29-1,2,2,0,0,1,.81-.69,3.11,3.11,0,0,1,1.28-.24,3.18,3.18,0,0,1,1.38.28,2.43,2.43,0,0,1,1,.81l-.81.82a1.81,1.81,0,0,0-.7-.56,2,2,0,0,0-.93-.2,1.45,1.45,0,0,0-.84.2.59.59,0,0,0-.28.51.6.6,0,0,0,.26.52,2.07,2.07,0,0,0,.65.31l.87.27a3.79,3.79,0,0,1,.86.35,1.79,1.79,0,0,1,.65.6,1.66,1.66,0,0,1,.27,1,1.82,1.82,0,0,1-.67,1.49A2.72,2.72,0,0,1,262.6,260.87Zm4.88-.14V251.3h1.26v9.43Zm-1.64-5.5v-1.15h4.54v1.15Z"/><path class="cls-6" d="M704.15,235.57v-.11h4v.11a11.74,11.74,0,0,1-10.85,11.75A11.67,11.67,0,0,1,708.1,259v.11h-4V259a7.68,7.68,0,0,0-7.65-7.75v-8A7.7,7.7,0,0,0,704.15,235.57Z"/><path class="cls-6" d="M693.08,235.42v-.1H697v.1a11.74,11.74,0,0,1-10.85,11.76A11.71,11.71,0,0,1,697,258.93V259h-3.95v-.11a7.68,7.68,0,0,0-7.65-7.75v-8A7.7,7.7,0,0,0,693.08,235.42Z"/><path class="cls-6" d="M710.08,239.57h3.59V255.8h-3.59Z"/><g class="cls-12"><path class="cls-6" d="M743.52,259.73v-4.26a8.49,8.49,0,0,0,8.67-8.24v-.11h4.48v.11C756.67,254.12,750.77,259.73,743.52,259.73Z"/><path class="cls-6" d="M741.44,259.73h-1.59c-6.8-.5-12.18-5.88-12.18-12.46,0-6.93,5.91-12.5,13.16-12.5h.61V239c-.2,0-.41,0-.61,0a8.27,8.27,0,1,0,0,16.52,3.13,3.13,0,0,0,.61,0Z"/></g><path class="cls-6" d="M786.92,227.1v-.18h-6.74v.18a20.08,20.08,0,0,0,18.51,20.13,20,20,0,0,0-18.51,20.13v.19h6.74v-.19A13.13,13.13,0,0,1,800,254.09V240.38A13.14,13.14,0,0,1,786.92,227.1Z"/><path class="cls-6" d="M776.8,234h-6.13v27.79h6.13Z"/><g class="cls-13"><path class="cls-6" d="M827.58,259.73v-4.26c-4.93,0-9-3.71-9-8.24v-.11H814v.11C814,254.12,820.08,259.73,827.58,259.73Z"/><path class="cls-6" d="M829.73,259.73h1.65c7-.5,12.59-5.88,12.59-12.46,0-6.93-6.1-12.5-13.6-12.5h-.64V239c.21,0,.42,0,.64,0,4.93,0,9,3.71,9,8.28s-4,8.24-9,8.24a3.39,3.39,0,0,1-.64,0Z"/></g><path class="cls-6" d="M867.5,235.57v-.11h-4v.11a11.73,11.73,0,0,0,10.85,11.75A11.66,11.66,0,0,0,863.55,259v.11h4V259a7.68,7.68,0,0,1,7.65-7.75v-8A7.7,7.7,0,0,1,867.5,235.57Z"/><path class="cls-6" d="M878.57,235.42v-.1h-4v.1a11.75,11.75,0,0,0,10.86,11.76,11.72,11.72,0,0,0-10.86,11.75V259h4v-.11a7.68,7.68,0,0,1,7.65-7.75v-8A7.7,7.7,0,0,1,878.57,235.42Z"/><path class="cls-6" d="M861.57,239.57H858V255.8h3.6Z"/><g class="cls-14"><path class="cls-2" d="M1303.11,249.76l-2.23,2.3,7.92,8.16,2.23-2.3Z"/><path class="cls-2" d="M1319.27,240.34a6.89,6.89,0,0,0-9.93,0l2.23,2.31a3.77,3.77,0,0,1,5.46,0,4.05,4.05,0,0,1,0,5.62l2.24,2.31A7.41,7.41,0,0,0,1319.27,240.34Z"/><path class="cls-2" d="M1301.61,242.65a3.77,3.77,0,0,1,5.46,0l2.23-2.31a6.89,6.89,0,0,0-9.93,0,7.41,7.41,0,0,0,0,10.24l2.24-2.31A4.11,4.11,0,0,1,1301.61,242.65Z"/></g><g class="cls-15"><path class="cls-2" d="M1347.82,247.25a9,9,0,0,0,9.12,8.93v-3a5.89,5.89,0,1,1,0-11.78v-3A9,9,0,0,0,1347.82,247.25Z"/><path class="cls-2" d="M1368.83,238.32v-.09h-3.1v.09a9.06,9.06,0,0,0,8.53,8.93,9,9,0,0,0-8.53,8.93v.08h3.1v-.08a5.94,5.94,0,0,1,6-5.89V244.2A5.94,5.94,0,0,1,1368.83,238.32Z"/><path class="cls-2" d="M1362.22,243.87a3.38,3.38,0,1,0,3.45,3.38A3.42,3.42,0,0,0,1362.22,243.87Z"/></g><path d="M3.39,23.23V18.82H9a7.72,7.72,0,0,0,3.59-.8,5.75,5.75,0,0,0,2.36-2.4,7.8,7.8,0,0,0,.84-3.72,7.37,7.37,0,0,0-.87-3.68,5.68,5.68,0,0,0-2.37-2.36A7.14,7.14,0,0,0,9,5H3.23V.64H9.06a13,13,0,0,1,4.7.83,10.8,10.8,0,0,1,3.78,2.34A10.09,10.09,0,0,1,20,7.39a11.2,11.2,0,0,1,.9,4.55,11.32,11.32,0,0,1-.9,4.54,10.18,10.18,0,0,1-2.46,3.58,11.41,11.41,0,0,1-3.78,2.34,12.67,12.67,0,0,1-4.67.83ZM0,23.23V.64H5V23.23Zm31.36.35a9.77,9.77,0,0,1-4.52-1,7.89,7.89,0,0,1-3.07-2.91,8,8,0,0,1-1.12-4.19,8,8,0,0,1,1.09-4.16,8.11,8.11,0,0,1,3-2.92A8.61,8.61,0,0,1,31,7.33a8.15,8.15,0,0,1,4.07,1,7.13,7.13,0,0,1,2.75,2.75,7.89,7.89,0,0,1,1,4,7.28,7.28,0,0,1-.06.9,7.21,7.21,0,0,1-.16,1.06l-13.41,0V13.73l11.33,0-2.11,1.4A5.66,5.66,0,0,0,34,12.9a2.74,2.74,0,0,0-1.15-1.35A3.27,3.27,0,0,0,31,11.07a3.66,3.66,0,0,0-2,.55,3.55,3.55,0,0,0-1.31,1.47,5.47,5.47,0,0,0-.45,2.33,5.39,5.39,0,0,0,.48,2.37,3.87,3.87,0,0,0,1.41,1.51,4.43,4.43,0,0,0,2.17.51,5.37,5.37,0,0,0,2.09-.39A4.75,4.75,0,0,0,35,18.21l2.69,2.69a7.35,7.35,0,0,1-2.79,2A9.28,9.28,0,0,1,31.36,23.58Zm15.51,0a10.78,10.78,0,0,1-5.18-1.35,8.73,8.73,0,0,1-1.92-1.53l2.78-2.82a5.62,5.62,0,0,0,1.83,1.31,5.79,5.79,0,0,0,2.3.45A2.68,2.68,0,0,0,48,19.42a.77.77,0,0,0,.48-.7.92.92,0,0,0-.57-.86,5.53,5.53,0,0,0-1.41-.55l-1.83-.54a8.19,8.19,0,0,1-1.82-.8,4,4,0,0,1-1.41-1.41,4.6,4.6,0,0,1-.54-2.34,4.33,4.33,0,0,1,.77-2.59,5.18,5.18,0,0,1,2.17-1.76,8,8,0,0,1,3.3-.64,9.28,9.28,0,0,1,3.65.71,6.44,6.44,0,0,1,2.75,2l-2.79,2.82a4.09,4.09,0,0,0-1.66-1.22,4.88,4.88,0,0,0-1.76-.35,2.35,2.35,0,0,0-1.25.26.7.7,0,0,0-.41.67.87.87,0,0,0,.54.77,6.62,6.62,0,0,0,1.41.51c.57.15,1.18.33,1.82.54a8.07,8.07,0,0,1,1.83.87,4.21,4.21,0,0,1,1.4,1.47,4.45,4.45,0,0,1,.55,2.37,4.34,4.34,0,0,1-1.73,3.61A7.21,7.21,0,0,1,46.87,23.62Zm18.95-.39-5.44-8.06,5.4-7.49h5.48L64.73,16.1l.16-2,6.69,9.15Zm-10,0V0h4.9V23.23Zm18.81,0v-22h4.89v22ZM71.15,11.84V7.68H83.08v4.16ZM92.42,23.58a9,9,0,0,1-4.36-1,8.27,8.27,0,0,1-3-3,7.93,7.93,0,0,1-1.12-4.16A7.76,7.76,0,0,1,85,11.3a8,8,0,0,1,3-2.88,8.63,8.63,0,0,1,4.36-1.09,8.92,8.92,0,0,1,4.35,1.05,8,8,0,0,1,3,2.92,7.76,7.76,0,0,1,1.12,4.12,7.93,7.93,0,0,1-1.12,4.16,8.27,8.27,0,0,1-3,3A8.92,8.92,0,0,1,92.42,23.58Zm0-4.44a3.7,3.7,0,0,0,1.85-.45,3.21,3.21,0,0,0,1.22-1.31,4.19,4.19,0,0,0,.44-2,3.76,3.76,0,0,0-.44-1.88,3.09,3.09,0,0,0-1.25-1.28,3.36,3.36,0,0,0-1.82-.48,3.47,3.47,0,0,0-1.83.48,3.09,3.09,0,0,0-1.25,1.28,4,4,0,0,0-.45,1.92,4.12,4.12,0,0,0,.45,1.92,3.42,3.42,0,0,0,1.25,1.31A3.65,3.65,0,0,0,92.42,19.14Zm19.9,4.41a6.66,6.66,0,0,1-2.87-.61,5.68,5.68,0,0,1-2.15-1.66,4.8,4.8,0,0,1-1-2.46V12.26a5,5,0,0,1,1-2.5A5.72,5.72,0,0,1,109.45,8a6.39,6.39,0,0,1,2.87-.64,7.3,7.3,0,0,1,6.6,3.94,8.56,8.56,0,0,1,1,4.16,8.61,8.61,0,0,1-1,4.16,7.38,7.38,0,0,1-2.69,2.88A7.26,7.26,0,0,1,112.32,23.55Zm-.89-4.41a3.36,3.36,0,0,0,1.82-.48,3.31,3.31,0,0,0,1.25-1.32,3.87,3.87,0,0,0,.45-1.88,4,4,0,0,0-.45-1.92,3,3,0,0,0-1.25-1.28,3.3,3.3,0,0,0-1.79-.48,3.46,3.46,0,0,0-1.82.48,3.14,3.14,0,0,0-1.22,1.28,4,4,0,0,0-.45,1.92,4.1,4.1,0,0,0,.42,1.88,3.31,3.31,0,0,0,1.25,1.32A3.4,3.4,0,0,0,111.43,19.14Zm-8.06,10.65V7.68h4.89v4l-.8,3.78.74,3.77V29.79Z"/><path d="M4,357.23V334.64H7.58l8.9,13.85H14.66l8.86-13.85h3.62v22.59h-5V343.12l.9.22-5.79,9H13.89l-5.76-9,.86-.22v14.11Zm34.51.35a9,9,0,0,1-4.35-1.05,8.2,8.2,0,0,1-3-2.95A7.86,7.86,0,0,1,30,349.42a7.73,7.73,0,0,1,1.12-4.13,8,8,0,0,1,3-2.87,8.62,8.62,0,0,1,4.35-1.09,8.92,8.92,0,0,1,4.35,1.05,8.09,8.09,0,0,1,3,2.91A7.73,7.73,0,0,1,47,349.42a7.86,7.86,0,0,1-1.12,4.16,8.27,8.27,0,0,1-3,2.95A8.92,8.92,0,0,1,38.51,357.58Zm0-4.45a3.8,3.8,0,0,0,1.85-.44,3.11,3.11,0,0,0,1.22-1.32,4.12,4.12,0,0,0,.45-1.95,3.83,3.83,0,0,0-.45-1.89,3.15,3.15,0,0,0-1.25-1.28,3.36,3.36,0,0,0-1.82-.48,3.52,3.52,0,0,0-1.83.48,3.18,3.18,0,0,0-1.24,1.28,4,4,0,0,0-.45,1.92,4.06,4.06,0,0,0,.45,1.92,3.36,3.36,0,0,0,1.24,1.32A3.81,3.81,0,0,0,38.51,353.13Zm19.91,4.42a6.41,6.41,0,0,1-2.88-.64,6.21,6.21,0,0,1-2.15-1.76,5,5,0,0,1-1-2.5v-6.56a4.63,4.63,0,0,1,1-2.43A5.63,5.63,0,0,1,55.54,342a6.67,6.67,0,0,1,2.88-.61,7.17,7.17,0,0,1,3.9,1.06A7.29,7.29,0,0,1,65,345.29a9.24,9.24,0,0,1,0,8.32,7.25,7.25,0,0,1-2.69,2.88A7.17,7.17,0,0,1,58.42,357.55Zm-.87-4.42a3.34,3.34,0,0,0,1.8-.48,3.26,3.26,0,0,0,1.24-1.31,3.88,3.88,0,0,0,.45-1.89,4,4,0,0,0-.45-1.92,3.12,3.12,0,0,0-1.24-1.28,3.34,3.34,0,0,0-1.8-.48,3.46,3.46,0,0,0-1.82.48,3.21,3.21,0,0,0-1.25,1.28,4.23,4.23,0,0,0-.41,1.92,4.06,4.06,0,0,0,.44,1.92,3.45,3.45,0,0,0,1.22,1.32A3.74,3.74,0,0,0,57.55,353.13Zm-8.09,4.1V334h4.89v11.49l-.8,3.77.74,3.78v4.19Zm19,0V341.68h4.9v15.55ZM71,339.54a2.64,2.64,0,0,1-1.92-.77,2.76,2.76,0,0,1-.73-1.92A2.57,2.57,0,0,1,71,334.16a2.51,2.51,0,0,1,1.89.77,2.66,2.66,0,0,1,.74,1.92,2.77,2.77,0,0,1-.74,1.92A2.51,2.51,0,0,1,71,339.54Zm5.88,17.69V334h4.9v23.23Zm16,.35a9.7,9.7,0,0,1-4.51-1,8.23,8.23,0,0,1-3.11-11.27,8.16,8.16,0,0,1,3-2.91,8.61,8.61,0,0,1,4.25-1.05,8.15,8.15,0,0,1,4.07,1,7.13,7.13,0,0,1,2.75,2.75,7.89,7.89,0,0,1,1,4,7.38,7.38,0,0,1-.07.9,6.91,6.91,0,0,1-.16,1.05l-13.41,0v-3.36l11.33,0-2.11,1.41a5.76,5.76,0,0,0-.42-2.21,2.76,2.76,0,0,0-1.15-1.34,3.27,3.27,0,0,0-1.82-.48,3.74,3.74,0,0,0-2,.54,3.64,3.64,0,0,0-1.31,1.48,6.17,6.17,0,0,0,0,4.7,3.78,3.78,0,0,0,1.41,1.5,4.33,4.33,0,0,0,2.17.52,5.37,5.37,0,0,0,2.09-.39,4.89,4.89,0,0,0,1.63-1.21l2.69,2.68a7.27,7.27,0,0,1-2.79,2A9.28,9.28,0,0,1,92.86,357.58Z"/></g></g></svg>