<svg xmlns="http://www.w3.org/2000/svg" viewBox="0 0 84 156"><defs><style>.cls-1{fill:#fff;}.cls-11,.cls-2,.cls-3,.cls-4,.cls-7,.cls-9{fill:none;}.cls-2,.cls-7{stroke:#0c6;}.cls-2,.cls-3,.cls-4{stroke-width:2px;}.cls-3,.cls-9{stroke:#affc41;}.cls-11,.cls-4{stroke:#f7a278;}.cls-5{fill:#002c35;}.cls-6{fill:#0c6;}.cls-8{fill:#affc41;}.cls-10{fill:#f7a278;}</style></defs><g id="Capa_2" data-name="Capa 2"><g id="Capa_1-2" data-name="Capa 1"><path class="cls-1" d="M8,0H8a8,8,0,0,1,8,8h0a8,8,0,0,1-8,8H8A8,8,0,0,1,0,8H0A8,8,0,0,1,8,0Z"/><path class="cls-2" d="M8,1H8a7,7,0,0,1,7,7h0a7,7,0,0,1-7,7H8A7,7,0,0,1,1,8H1A7,7,0,0,1,8,1Z"/><path class="cls-1" d="M8,84H8a8,8,0,0,1,8,8h0a8,8,0,0,1-8,8H8a8,8,0,0,1-8-8H0A8,8,0,0,1,8,84Z"/><path class="cls-2" d="M8,85H8a7,7,0,0,1,7,7h0a7,7,0,0,1-7,7H8a7,7,0,0,1-7-7H1A7,7,0,0,1,8,85Z"/><path class="cls-1" d="M8,112H8a8,8,0,0,1,8,8h0a8,8,0,0,1-8,8H8a8,8,0,0,1-8-8H0A8,8,0,0,1,8,112Z"/><path class="cls-3" d="M8,113H8a7,7,0,0,1,7,7h0a7,7,0,0,1-7,7H8a7,7,0,0,1-7-7H1A7,7,0,0,1,8,113Z"/><path class="cls-1" d="M8,140H8a8,8,0,0,1,8,8h0a8,8,0,0,1-8,8H8a8,8,0,0,1-8-8H0A8,8,0,0,1,8,140Z"/><path class="cls-4" d="M8,141H8a7,7,0,0,1,7,7h0a7,7,0,0,1-7,7H8a7,7,0,0,1-7-7H1A7,7,0,0,1,8,141Z"/><path class="cls-1" d="M42,84h0a8,8,0,0,1,8,8h0a8,8,0,0,1-8,8h0a8,8,0,0,1-8-8h0A8,8,0,0,1,42,84Z"/><path class="cls-5" d="M46,89.47,44.53,88,42,90.53,39.47,88,38,89.47,40.53,92,38,94.53,39.47,96,42,93.47,44.53,96,46,94.53,43.47,92Z"/><path class="cls-2" d="M42,85h0a7,7,0,0,1,7,7h0a7,7,0,0,1-7,7h0a7,7,0,0,1-7-7h0A7,7,0,0,1,42,85Z"/><path class="cls-1" d="M42,112h0a8,8,0,0,1,8,8h0a8,8,0,0,1-8,8h0a8,8,0,0,1-8-8h0A8,8,0,0,1,42,112Z"/><path class="cls-5" d="M46,117.47,44.53,116,42,118.53,39.47,116,38,117.47,40.53,120,38,122.53,39.47,124,42,121.47,44.53,124,46,122.53,43.47,120Z"/><path class="cls-3" d="M42,113h0a7,7,0,0,1,7,7h0a7,7,0,0,1-7,7h0a7,7,0,0,1-7-7h0A7,7,0,0,1,42,113Z"/><path class="cls-1" d="M42,140h0a8,8,0,0,1,8,8h0a8,8,0,0,1-8,8h0a8,8,0,0,1-8-8h0A8,8,0,0,1,42,140Z"/><path class="cls-5" d="M46,145.47,44.53,144,42,146.53,39.47,144,38,145.47,40.53,148,38,150.53,39.47,152,42,149.47,44.53,152,46,150.53,43.47,148Z"/><path class="cls-4" d="M42,141h0a7,7,0,0,1,7,7h0a7,7,0,0,1-7,7h0a7,7,0,0,1-7-7h0A7,7,0,0,1,42,141Z"/><path class="cls-1" d="M76,84h0a8,8,0,0,1,8,8h0a8,8,0,0,1-8,8h0a8,8,0,0,1-8-8h0A8,8,0,0,1,76,84Z"/><rect class="cls-5" x="71" y="91" width="10" height="3"/><path class="cls-2" d="M76,85h0a7,7,0,0,1,7,7h0a7,7,0,0,1-7,7h0a7,7,0,0,1-7-7h0A7,7,0,0,1,76,85Z"/><path class="cls-1" d="M76,112h0a8,8,0,0,1,8,8h0a8,8,0,0,1-8,8h0a8,8,0,0,1-8-8h0A8,8,0,0,1,76,112Z"/><rect class="cls-5" x="71" y="119" width="10" height="3"/><path class="cls-3" d="M76,113h0a7,7,0,0,1,7,7h0a7,7,0,0,1-7,7h0a7,7,0,0,1-7-7h0A7,7,0,0,1,76,113Z"/><path class="cls-1" d="M76,140h0a8,8,0,0,1,8,8h0a8,8,0,0,1-8,8h0a8,8,0,0,1-8-8h0A8,8,0,0,1,76,140Z"/><rect class="cls-5" x="71" y="147" width="10" height="3"/><path class="cls-4" d="M76,141h0a7,7,0,0,1,7,7h0a7,7,0,0,1-7,7h0a7,7,0,0,1-7-7h0A7,7,0,0,1,76,141Z"/><path class="cls-3" d="M8,29H8a7,7,0,0,1,7,7h0a7,7,0,0,1-7,7H8a7,7,0,0,1-7-7H1A7,7,0,0,1,8,29Z"/><path class="cls-4" d="M8,57H8a7,7,0,0,1,7,7h0a7,7,0,0,1-7,7H8a7,7,0,0,1-7-7H1A7,7,0,0,1,8,57Z"/><path class="cls-6" d="M42,0h0a8,8,0,0,1,8,8h0a8,8,0,0,1-8,8h0a8,8,0,0,1-8-8h0A8,8,0,0,1,42,0Z"/><path class="cls-1" d="M46,5.47,44.53,4,42,6.53,39.47,4,38,5.47,40.53,8,38,10.53,39.47,12,42,9.47,44.53,12,46,10.53,43.47,8Z"/><path class="cls-7" d="M42,.5h0A7.5,7.5,0,0,1,49.5,8h0A7.5,7.5,0,0,1,42,15.5h0A7.5,7.5,0,0,1,34.5,8h0A7.5,7.5,0,0,1,42,.5Z"/><path class="cls-8" d="M42,28h0a8,8,0,0,1,8,8h0a8,8,0,0,1-8,8h0a8,8,0,0,1-8-8h0A8,8,0,0,1,42,28Z"/><path class="cls-5" d="M46,33.47,44.53,32,42,34.53,39.47,32,38,33.47,40.53,36,38,38.53,39.47,40,42,37.47,44.53,40,46,38.53,43.47,36Z"/><path class="cls-9" d="M42,28.5h0A7.5,7.5,0,0,1,49.5,36h0A7.5,7.5,0,0,1,42,43.5h0A7.5,7.5,0,0,1,34.5,36h0A7.5,7.5,0,0,1,42,28.5Z"/><path class="cls-10" d="M42,56h0a8,8,0,0,1,8,8h0a8,8,0,0,1-8,8h0a8,8,0,0,1-8-8h0A8,8,0,0,1,42,56Z"/><path class="cls-1" d="M46,61.47,44.53,60,42,62.53,39.47,60,38,61.47,40.53,64,38,66.53,39.47,68,42,65.47,44.53,68,46,66.53,43.47,64Z"/><path class="cls-11" d="M42,56.5h0A7.5,7.5,0,0,1,49.5,64h0A7.5,7.5,0,0,1,42,71.5h0A7.5,7.5,0,0,1,34.5,64h0A7.5,7.5,0,0,1,42,56.5Z"/><path class="cls-6" d="M76,0h0a8,8,0,0,1,8,8h0a8,8,0,0,1-8,8h0a8,8,0,0,1-8-8h0A8,8,0,0,1,76,0Z"/><rect class="cls-1" x="71" y="7" width="10" height="3"/><path class="cls-7" d="M76,.5h0A7.5,7.5,0,0,1,83.5,8h0A7.5,7.5,0,0,1,76,15.5h0A7.5,7.5,0,0,1,68.5,8h0A7.5,7.5,0,0,1,76,.5Z"/><path class="cls-8" d="M76,28h0a8,8,0,0,1,8,8h0a8,8,0,0,1-8,8h0a8,8,0,0,1-8-8h0A8,8,0,0,1,76,28Z"/><rect class="cls-5" x="71" y="35" width="10" height="3"/><path class="cls-9" d="M76,28.5h0A7.5,7.5,0,0,1,83.5,36h0A7.5,7.5,0,0,1,76,43.5h0A7.5,7.5,0,0,1,68.5,36h0A7.5,7.5,0,0,1,76,28.5Z"/><path class="cls-10" d="M76,56h0a8,8,0,0,1,8,8h0a8,8,0,0,1-8,8h0a8,8,0,0,1-8-8h0A8,8,0,0,1,76,56Z"/><rect class="cls-1" x="71" y="63" width="10" height="3"/><path class="cls-11" d="M76,56.5h0A7.5,7.5,0,0,1,83.5,64h0A7.5,7.5,0,0,1,76,71.5h0A7.5,7.5,0,0,1,68.5,64h0A7.5,7.5,0,0,1,76,56.5Z"/></g></g></svg>