<svg xmlns="http://www.w3.org/2000/svg" xmlns:xlink="http://www.w3.org/1999/xlink" viewBox="0 0 201 309.21"><defs><style>.cls-1{fill:none;}.cls-2{fill:#002c35;}.cls-3{clip-path:url(#clip-path);}.cls-4{fill:#26bea1;}.cls-5{clip-path:url(#clip-path-2);}.cls-6{fill:#f7a278;}.cls-7{fill:#086375;}.cls-8{clip-path:url(#clip-path-3);}.cls-9{fill:#0c6;}.cls-10{fill:#042127;}.cls-11{clip-path:url(#clip-path-4);}.cls-12{clip-path:url(#clip-path-5);}.cls-13{fill:#f9b593;}.cls-14{fill:#0a758a;}.cls-15{clip-path:url(#clip-path-6);}.cls-16{fill:#b2ff9e;}.cls-17{fill:#e7e7e7;}</style><clipPath id="clip-path"><rect class="cls-1" x="19.5" y="64.21" width="25" height="22"/></clipPath><clipPath id="clip-path-2"><rect class="cls-1" x="19.5" y="125.71" width="25" height="23"/></clipPath><clipPath id="clip-path-3"><rect class="cls-1" x="82" y="126.71" width="24" height="21"/></clipPath><clipPath id="clip-path-4"><rect class="cls-1" x="25.5" y="199.21" width="25" height="22"/></clipPath><clipPath id="clip-path-5"><rect class="cls-1" x="25.5" y="260.71" width="25" height="23"/></clipPath><clipPath id="clip-path-6"><rect class="cls-1" x="88" y="261.71" width="24" height="21"/></clipPath></defs><g id="Capa_2" data-name="Capa 2"><g id="Capa_1-2" data-name="Capa 1"><rect class="cls-2" y="173.21" width="201" height="136"/><path d="M17.51,10.22V7.44h3.58a2.38,2.38,0,0,0,1.73-.58,2,2,0,0,0,.62-1.56,2.06,2.06,0,0,0-.6-1.51,2.35,2.35,0,0,0-1.73-.6h-3.6V.26h4a6.48,6.48,0,0,1,3,.65,4.91,4.91,0,0,1,2,1.75,4.75,4.75,0,0,1,.72,2.6,4.74,4.74,0,0,1-.72,2.61,4.84,4.84,0,0,1-2,1.73,6.89,6.89,0,0,1-3,.62Zm-2.88,7V.26H18.4v17Zm9.22,0-5.28-7.3L22,9l6.29,8.23Zm9-7V7.44h3.58a2.36,2.36,0,0,0,1.72-.58,2,2,0,0,0,.63-1.56,2.06,2.06,0,0,0-.6-1.51,2.35,2.35,0,0,0-1.73-.6h-3.6V.26h4a6.41,6.41,0,0,1,3,.65,4.88,4.88,0,0,1,2,1.75,4.75,4.75,0,0,1,.72,2.6,4.74,4.74,0,0,1-.72,2.61,4.9,4.9,0,0,1-2,1.73,6.89,6.89,0,0,1-3,.62Zm-2.88,7V.26h3.77v17Zm9.22,0L33.9,9.91,37.35,9l6.29,8.23Zm8.4.26A2.06,2.06,0,0,1,46,16.82a2.3,2.3,0,0,1,0-3.14A2.1,2.1,0,0,1,47.58,13a2,2,0,0,1,1.56.65,2.27,2.27,0,0,1,0,3.14A2,2,0,0,1,47.58,17.47Zm10.32,0a8.8,8.8,0,0,1-3.6-.67,8.6,8.6,0,0,1-2.74-2.09L54,12.29a6.61,6.61,0,0,0,1.8,1.46,5.09,5.09,0,0,0,2.33.51A3.3,3.3,0,0,0,60,13.82a1.33,1.33,0,0,0,.67-1.2,1.49,1.49,0,0,0-.43-1.12,3.7,3.7,0,0,0-1.15-.75q-.7-.32-1.56-.6C57,10,56.4,9.74,55.84,9.5a7.66,7.66,0,0,1-1.56-.93,4.5,4.5,0,0,1-1.13-1.42A4.75,4.75,0,0,1,52.72,5a4.76,4.76,0,0,1,.74-2.69A4.75,4.75,0,0,1,55.57.6a7.55,7.55,0,0,1,3.1-.6,8.32,8.32,0,0,1,3.24.62,6.74,6.74,0,0,1,2.45,1.71L61.91,4.75a5.4,5.4,0,0,0-1.56-1.17,3.82,3.82,0,0,0-1.75-.39A2.73,2.73,0,0,0,57,3.58a1.16,1.16,0,0,0-.58,1,1.39,1.39,0,0,0,.43,1.06A4.17,4.17,0,0,0,58,6.36c.48.19,1,.38,1.56.58a15.37,15.37,0,0,1,1.7.67,6.2,6.2,0,0,1,1.54,1A4.2,4.2,0,0,1,64,10.08a5,5,0,0,1,.43,2.21,4.62,4.62,0,0,1-1.72,3.81A7.49,7.49,0,0,1,57.9,17.47Zm13.57,0a8.8,8.8,0,0,1-3.6-.67,8.6,8.6,0,0,1-2.74-2.09l2.45-2.42a6.61,6.61,0,0,0,1.8,1.46,5.09,5.09,0,0,0,2.33.51,3.3,3.3,0,0,0,1.85-.44,1.33,1.33,0,0,0,.67-1.2,1.49,1.49,0,0,0-.43-1.12,3.7,3.7,0,0,0-1.15-.75q-.7-.32-1.56-.6C70.53,10,70,9.74,69.41,9.5a7.66,7.66,0,0,1-1.56-.93,4.5,4.5,0,0,1-1.13-1.42A4.75,4.75,0,0,1,66.29,5,4.76,4.76,0,0,1,67,2.3,4.75,4.75,0,0,1,69.14.6a7.55,7.55,0,0,1,3.1-.6,8.32,8.32,0,0,1,3.24.62,6.74,6.74,0,0,1,2.45,1.71L75.48,4.75a5.4,5.4,0,0,0-1.56-1.17,3.82,3.82,0,0,0-1.75-.39,2.73,2.73,0,0,0-1.56.39,1.16,1.16,0,0,0-.58,1,1.39,1.39,0,0,0,.43,1.06,4.17,4.17,0,0,0,1.13.67c.48.19,1,.38,1.56.58a15.37,15.37,0,0,1,1.7.67,6.2,6.2,0,0,1,1.54,1,4.2,4.2,0,0,1,1.15,1.49A5,5,0,0,1,78,12.29a4.62,4.62,0,0,1-1.72,3.81A7.49,7.49,0,0,1,71.47,17.47Z"/><g class="cls-3"><path class="cls-4" d="M25.08,83.37l.79.75a9.53,9.53,0,0,0,12.43-.45,8.33,8.33,0,0,0,0-12.24c-.09-.08-.2-.18-.31-.26l-2.21,2.08a2.49,2.49,0,0,1,.31.27,5.51,5.51,0,0,1,0,8.08,6.3,6.3,0,0,1-8.55,0,2.6,2.6,0,0,1-.28-.29Z"/><path class="cls-4" d="M41.64,64.21a3.38,3.38,0,0,1-3.45,3.26v2.71a6.15,6.15,0,0,0,6.31-6Z"/><path class="cls-4" d="M31.36,75.69V72.75a5.9,5.9,0,0,1-6-5.7V67H22.22v.09A8.93,8.93,0,0,0,31.36,75.69Z"/><path class="cls-4" d="M22.16,79.22l2.21-2.08a5.49,5.49,0,0,1,0-8.06s.06,0,.06,0l-2.21-2.09s-.06,0-.06,0A8.35,8.35,0,0,0,22.16,79.22Z"/></g><g class="cls-5"><path class="cls-6" d="M40.69,142.24a3.56,3.56,0,0,1-3.55,3.54v2.93a6.48,6.48,0,0,0,6.49-6.47Z"/><path class="cls-6" d="M38,128.64a3.56,3.56,0,0,1,3.55,3.54H44.5A6.48,6.48,0,0,0,38,125.71Z"/><path class="cls-6" d="M23.31,142.24a3.56,3.56,0,0,0,3.55,3.54v2.93a6.48,6.48,0,0,1-6.49-6.47Z"/><path class="cls-6" d="M26,128.64a3.56,3.56,0,0,0-3.55,3.54H19.5A6.48,6.48,0,0,1,26,125.71Z"/><path class="cls-6" d="M32,130.75a6.47,6.47,0,1,0,6.49,6.47A6.49,6.49,0,0,0,32,130.75Zm3.56,6.47A3.56,3.56,0,1,1,32,133.68,3.56,3.56,0,0,1,35.57,137.22Z"/></g><path class="cls-7" d="M93.62,65.55a5.21,5.21,0,0,1,5.13,5.25H103a9.5,9.5,0,0,0-9.38-9.59Z"/><path class="cls-7" d="M93.62,70h-4.2V89.21h4.2Z"/><path class="cls-7" d="M98.08,73.55H85v4.3H98.08Z"/><g class="cls-8"><path class="cls-9" d="M82,137.21h3.69a7,7,0,0,1,7.14-6.93h.1v-3.57h-.1A10.68,10.68,0,0,0,82,137.21Z"/><path class="cls-9" d="M94.7,147.71H96a10.51,10.51,0,0,0-.84-21h-.5v3.57c.17,0,.34,0,.5,0a6.93,6.93,0,1,1,0,13.85,2.85,2.85,0,0,1-.5,0v3.64Z"/><path class="cls-9" d="M86.53,143.22a7.17,7.17,0,0,0-.54-3.7H82a3.87,3.87,0,0,1,0,5.62l.13.13,2.25,2.18.13.13a4.18,4.18,0,0,1,5.67-.1v-3.8A7.31,7.31,0,0,0,86.53,143.22Z"/></g><path class="cls-10" d="M151.39,72.88a7.17,7.17,0,1,0,7.39,7.17A7.29,7.29,0,0,0,151.39,72.88Zm4.05,7.17a4,4,0,1,1-4.05-3.92A4,4,0,0,1,155.44,80.05Z"/><path class="cls-10" d="M158.78,65.21h-3.31V79.53h3.31Z"/><path class="cls-10" d="M168,69.13a4,4,0,0,1-4-3.92h-3.35A7.28,7.28,0,0,0,168,72.37Z"/><g class="cls-11"><path class="cls-4" d="M31.08,218.37l.79.75a9.53,9.53,0,0,0,12.43-.45,8.33,8.33,0,0,0,0-12.24c-.09-.08-.2-.18-.31-.26l-2.21,2.08a3.74,3.74,0,0,1,.31.27,5.51,5.51,0,0,1,0,8.08,6.3,6.3,0,0,1-8.55,0,2.6,2.6,0,0,1-.28-.29Z"/><path class="cls-4" d="M47.64,199.21a3.38,3.38,0,0,1-3.45,3.26v2.71a6.15,6.15,0,0,0,6.31-6Z"/><path class="cls-4" d="M37.36,210.69v-2.94a5.9,5.9,0,0,1-6-5.7V202H28.22v.08A8.93,8.93,0,0,0,37.36,210.69Z"/><path class="cls-4" d="M28.16,214.22l2.21-2.08a5.49,5.49,0,0,1,0-8.06s.06,0,.06-.05l-2.21-2.09s-.06,0-.06.05A8.35,8.35,0,0,0,28.16,214.22Z"/></g><g class="cls-12"><path class="cls-13" d="M46.69,277.24a3.56,3.56,0,0,1-3.55,3.54v2.93a6.48,6.48,0,0,0,6.49-6.47Z"/><path class="cls-13" d="M44,263.64a3.56,3.56,0,0,1,3.55,3.54H50.5A6.48,6.48,0,0,0,44,260.71Z"/><path class="cls-13" d="M29.31,277.24a3.56,3.56,0,0,0,3.55,3.54v2.93a6.48,6.48,0,0,1-6.49-6.47Z"/><path class="cls-13" d="M32,263.64a3.56,3.56,0,0,0-3.55,3.54H25.5A6.48,6.48,0,0,1,32,260.71Z"/><path class="cls-13" d="M38,265.75a6.47,6.47,0,1,0,6.49,6.47A6.48,6.48,0,0,0,38,265.75Zm3.56,6.47A3.56,3.56,0,1,1,38,268.68,3.56,3.56,0,0,1,41.57,272.22Z"/></g><path class="cls-14" d="M99.62,200.55a5.21,5.21,0,0,1,5.13,5.25H109a9.5,9.5,0,0,0-9.38-9.59Z"/><path class="cls-14" d="M99.62,205h-4.2v19.18h4.2Z"/><path class="cls-14" d="M104.08,208.55H91v4.3h13.08Z"/><g class="cls-15"><path class="cls-16" d="M88,272.21h3.69a7,7,0,0,1,7.14-6.93h.1v-3.57h-.1A10.68,10.68,0,0,0,88,272.21Z"/><path class="cls-16" d="M100.7,282.71H102a10.51,10.51,0,0,0-.84-21h-.5v3.57c.17,0,.34,0,.5,0a6.93,6.93,0,1,1,0,13.85,2.85,2.85,0,0,1-.5,0v3.64Z"/><path class="cls-16" d="M92.53,278.22a7.17,7.17,0,0,0-.54-3.7H88a3.87,3.87,0,0,1,0,5.62l.13.13,2.25,2.18.13.13a4.18,4.18,0,0,1,5.67-.1v-3.8A7.31,7.31,0,0,0,92.53,278.22Z"/></g><path class="cls-17" d="M157.39,207.88a7.17,7.17,0,1,0,7.39,7.17A7.28,7.28,0,0,0,157.39,207.88Zm4.05,7.17a4,4,0,1,1-4.05-3.92A4,4,0,0,1,161.44,215.05Z"/><path class="cls-17" d="M164.78,200.21h-3.31v14.32h3.31Z"/><path class="cls-17" d="M174,204.13a4,4,0,0,1-4-3.92h-3.35a7.28,7.28,0,0,0,7.39,7.16Z"/></g></g></svg>