<svg xmlns="http://www.w3.org/2000/svg" viewBox="0 0 1040 337.27"><defs><style>.cls-1{isolation:isolate;}.cls-2,.cls-3{fill:#c1f4d9;}.cls-3{mix-blend-mode:multiply;}</style></defs><g class="cls-1"><g id="Capa_2" data-name="Capa 2"><g id="Capa_1-2" data-name="Capa 1"><rect class="cls-2" y="0.36" width="72" height="72"/><rect class="cls-2" x="88" y="0.36" width="72" height="72"/><rect class="cls-2" y="88.36" width="72" height="72"/><rect class="cls-2" x="88" y="88.36" width="72" height="72"/><rect class="cls-2" x="176" y="0.36" width="72" height="72"/><rect class="cls-2" x="176" y="88.36" width="72" height="72"/><rect class="cls-2" y="176.63" width="72" height="72"/><rect class="cls-2" x="88" y="176.63" width="72" height="72"/><rect class="cls-2" x="176" y="176.63" width="72" height="72"/><rect class="cls-2" y="264.91" width="72" height="72"/><rect class="cls-2" x="88" y="264.91" width="72" height="72"/><rect class="cls-2" x="176" y="264.91" width="72" height="72"/><rect class="cls-2" x="264" y="0.36" width="72" height="72"/><rect class="cls-2" x="352" y="0.36" width="72" height="72"/><rect class="cls-2" x="264" y="88.36" width="72" height="72"/><rect class="cls-2" x="352" y="88.36" width="72" height="72"/><rect class="cls-2" x="440" y="0.36" width="72" height="72"/><rect class="cls-2" x="440" y="88.36" width="72" height="72"/><rect class="cls-2" x="264" y="176.63" width="72" height="72"/><rect class="cls-2" x="352" y="176.63" width="72" height="72"/><rect class="cls-2" x="440" y="176.63" width="72" height="72"/><rect class="cls-2" x="264" y="264.91" width="72" height="72"/><rect class="cls-2" x="352" y="264.91" width="72" height="72"/><rect class="cls-2" x="440" y="264.91" width="72" height="72"/><rect class="cls-2" x="528" y="0.36" width="72" height="72"/><rect class="cls-2" x="616" y="0.36" width="72" height="72"/><rect class="cls-2" x="528" y="88.36" width="72" height="72"/><rect class="cls-2" x="616" y="88.36" width="72" height="72"/><rect class="cls-2" x="704" y="0.36" width="72" height="72"/><rect class="cls-2" x="704" y="88.36" width="72" height="72"/><rect class="cls-2" x="528" y="176.63" width="72" height="72"/><rect class="cls-2" x="616" y="176.63" width="72" height="72"/><rect class="cls-2" x="704" y="176.63" width="72" height="72"/><rect class="cls-2" x="528" y="264.91" width="72" height="72"/><rect class="cls-2" x="616" y="264.91" width="72" height="72"/><rect class="cls-2" x="704" y="264.91" width="72" height="72"/><rect class="cls-2" x="792" y="0.36" width="72" height="72"/><rect class="cls-2" x="880" y="0.36" width="72" height="72"/><rect class="cls-2" x="792" y="88.36" width="72" height="72"/><rect class="cls-2" x="880" y="88.36" width="72" height="72"/><rect class="cls-2" x="968" y="0.36" width="72" height="72"/><rect class="cls-2" x="968" y="88.36" width="72" height="72"/><rect class="cls-2" x="792" y="176.63" width="72" height="72"/><rect class="cls-2" x="880" y="176.63" width="72" height="72"/><rect class="cls-2" x="968" y="176.63" width="72" height="72"/><rect class="cls-2" x="792" y="264.91" width="72" height="72"/><rect class="cls-2" x="880" y="264.91" width="72" height="72"/><rect class="cls-2" x="968" y="264.91" width="72" height="72"/><rect class="cls-3" x="0.45" width="1039.11" height="337.27"/></g></g></g></svg>