<svg xmlns="http://www.w3.org/2000/svg" viewBox="0 0 553.51 36"><defs><style>.cls-1{fill:#cffd8d;}</style></defs><g id="Capa_2" data-name="Capa 2"><g id="Capa_1-2" data-name="Capa 1"><path class="cls-1" d="M431.51,18a18,18,0,0,1,18-18h86a18,18,0,0,1,18,18h0a18,18,0,0,1-18,18h-86a18,18,0,0,1-18-18Z"/><path class="cls-1" d="M382.67,5a7.84,7.84,0,0,1,7.83,7.83V23.17A7.84,7.84,0,0,1,382.67,31H12.83A7.84,7.84,0,0,1,5,23.17V12.83A7.84,7.84,0,0,1,12.83,5H382.67m0-5H12.83A12.82,12.82,0,0,0,0,12.83V23.17A12.82,12.82,0,0,0,12.83,36H382.67A12.82,12.82,0,0,0,395.5,23.17V12.83A12.82,12.82,0,0,0,382.67,0Z"/></g></g></svg>